<svg width="814" height="782" viewBox="0 0 814 782" fill="none" xmlns="http://www.w3.org/2000/svg">
<rect x="100" y="100" width="309" height="123" fill="#ABD4C1"/>
<path d="M144.528 170.218C144.368 170.218 144.209 170.21 144.049 170.196C143.904 170.196 143.773 170.189 143.657 170.174V168.346C143.773 168.361 143.904 168.375 144.049 168.39C144.209 168.39 144.368 168.39 144.528 168.39C144.832 168.39 145.094 168.368 145.311 168.324C145.529 168.266 145.717 168.172 145.877 168.042C146.051 167.896 146.203 167.708 146.334 167.476C146.479 167.244 146.631 166.939 146.791 166.562L140.502 154.768H142.722L147.814 164.451L152.122 154.768H154.211L148.662 167.019C148.416 167.57 148.162 168.049 147.901 168.455C147.64 168.861 147.349 169.195 147.03 169.456C146.711 169.717 146.348 169.906 145.942 170.022C145.536 170.152 145.065 170.218 144.528 170.218ZM155.514 158.467H157.299V160.643C157.69 159.874 158.234 159.287 158.931 158.88C159.641 158.46 160.461 158.249 161.39 158.249C162.84 158.249 164.001 158.728 164.871 159.686C165.742 160.629 166.177 162.036 166.177 163.907V164.342C166.177 165.329 166.061 166.192 165.829 166.932C165.597 167.657 165.27 168.266 164.849 168.76C164.429 169.238 163.921 169.601 163.326 169.848C162.746 170.094 162.1 170.218 161.39 170.218C160.403 170.218 159.576 170 158.909 169.565C158.256 169.13 157.763 168.586 157.429 167.933V174.352H155.514V158.467ZM160.954 168.52C161.419 168.52 161.854 168.433 162.26 168.259C162.666 168.071 163.014 167.802 163.304 167.454C163.609 167.106 163.841 166.671 164.001 166.148C164.175 165.626 164.262 165.024 164.262 164.342V163.907C164.262 163.283 164.175 162.725 164.001 162.232C163.841 161.738 163.609 161.325 163.304 160.991C163.014 160.643 162.666 160.382 162.26 160.208C161.854 160.034 161.419 159.947 160.954 159.947C160.432 159.947 159.953 160.034 159.518 160.208C159.083 160.367 158.713 160.6 158.408 160.904C158.104 161.194 157.864 161.542 157.69 161.949C157.516 162.355 157.429 162.79 157.429 163.254V164.995C157.429 165.517 157.516 165.996 157.69 166.431C157.864 166.867 158.104 167.236 158.408 167.541C158.713 167.846 159.083 168.085 159.518 168.259C159.953 168.433 160.432 168.52 160.954 168.52ZM173.689 170.218C172.949 170.218 172.246 170.102 171.578 169.869C170.911 169.623 170.324 169.26 169.816 168.781C169.308 168.288 168.902 167.672 168.597 166.932C168.293 166.192 168.14 165.329 168.14 164.342V163.907C168.14 162.979 168.293 162.159 168.597 161.448C168.902 160.737 169.308 160.15 169.816 159.686C170.324 159.207 170.911 158.851 171.578 158.619C172.246 158.373 172.949 158.249 173.689 158.249C174.429 158.249 175.133 158.373 175.8 158.619C176.467 158.851 177.055 159.207 177.563 159.686C178.07 160.15 178.476 160.737 178.781 161.448C179.086 162.159 179.238 162.979 179.238 163.907V164.342C179.238 165.329 179.086 166.192 178.781 166.932C178.476 167.672 178.07 168.288 177.563 168.781C177.055 169.26 176.467 169.623 175.8 169.869C175.133 170.102 174.429 170.218 173.689 170.218ZM173.689 168.477C174.124 168.477 174.56 168.404 174.995 168.259C175.43 168.1 175.814 167.86 176.148 167.541C176.482 167.207 176.75 166.779 176.953 166.257C177.171 165.735 177.28 165.097 177.28 164.342V163.907C177.28 163.211 177.171 162.616 176.953 162.123C176.75 161.63 176.482 161.223 176.148 160.904C175.814 160.585 175.43 160.353 174.995 160.208C174.56 160.063 174.124 159.99 173.689 159.99C173.254 159.99 172.819 160.063 172.384 160.208C171.948 160.353 171.564 160.585 171.23 160.904C170.897 161.223 170.621 161.63 170.403 162.123C170.2 162.616 170.099 163.211 170.099 163.907V164.342C170.099 165.097 170.2 165.735 170.403 166.257C170.621 166.779 170.897 167.207 171.23 167.541C171.564 167.86 171.948 168.1 172.384 168.259C172.819 168.404 173.254 168.477 173.689 168.477ZM181.95 158.467H186.955C188.376 158.467 189.421 158.764 190.088 159.359C190.755 159.939 191.089 160.694 191.089 161.622C191.089 161.869 191.045 162.123 190.958 162.384C190.871 162.63 190.748 162.863 190.588 163.08C190.443 163.298 190.262 163.486 190.044 163.646C189.841 163.806 189.609 163.929 189.348 164.016C190.059 164.19 190.596 164.524 190.958 165.017C191.336 165.496 191.524 166.061 191.524 166.714C191.524 167.715 191.191 168.513 190.523 169.108C189.856 169.703 188.811 170 187.39 170H181.95V158.467ZM187.39 168.303C188.202 168.303 188.775 168.158 189.109 167.867C189.442 167.577 189.609 167.164 189.609 166.627C189.609 166.076 189.442 165.655 189.109 165.365C188.775 165.06 188.202 164.908 187.39 164.908H183.865V168.303H187.39ZM186.955 163.341C187.781 163.341 188.354 163.196 188.674 162.906C189.007 162.616 189.174 162.217 189.174 161.709C189.174 161.231 189.007 160.853 188.674 160.578C188.354 160.302 187.781 160.164 186.955 160.164H183.865V163.341H186.955ZM199.041 170.218C198.301 170.218 197.597 170.102 196.93 169.869C196.263 169.637 195.675 169.282 195.168 168.803C194.66 168.31 194.254 167.693 193.949 166.954C193.644 166.214 193.492 165.343 193.492 164.342V163.907C193.492 162.95 193.637 162.123 193.927 161.426C194.217 160.716 194.602 160.128 195.08 159.664C195.574 159.185 196.139 158.83 196.778 158.598C197.431 158.365 198.112 158.249 198.823 158.249C200.521 158.249 201.833 158.714 202.762 159.642C203.69 160.571 204.155 161.883 204.155 163.581V164.799H195.407C195.407 165.481 195.516 166.054 195.733 166.518C195.951 166.983 196.234 167.36 196.582 167.65C196.93 167.94 197.315 168.15 197.735 168.281C198.17 168.411 198.606 168.477 199.041 168.477C199.911 168.477 200.579 168.332 201.043 168.042C201.522 167.751 201.862 167.352 202.066 166.845H203.937C203.821 167.396 203.611 167.882 203.306 168.303C203.016 168.723 202.653 169.079 202.218 169.369C201.797 169.645 201.311 169.855 200.76 170C200.223 170.145 199.65 170.218 199.041 170.218ZM198.932 159.99C198.482 159.99 198.047 160.056 197.626 160.186C197.206 160.302 196.829 160.498 196.495 160.774C196.176 161.035 195.915 161.368 195.712 161.775C195.508 162.181 195.407 162.667 195.407 163.233H202.348C202.334 162.638 202.232 162.137 202.044 161.731C201.87 161.31 201.63 160.977 201.326 160.73C201.021 160.469 200.658 160.28 200.238 160.164C199.831 160.048 199.396 159.99 198.932 159.99ZM206.876 158.467H208.791V163.276H214.754V158.467H216.668V170H214.754V164.973H208.791V170H206.876V158.467ZM220.158 158.467H222.073V162.819H224.836C226.287 162.819 227.353 163.138 228.035 163.777C228.731 164.415 229.079 165.3 229.079 166.431C229.079 167.534 228.731 168.404 228.035 169.043C227.353 169.681 226.287 170 224.836 170H220.158V158.467ZM224.727 168.303C225.627 168.303 226.258 168.143 226.621 167.824C226.983 167.505 227.165 167.033 227.165 166.41C227.165 165.786 226.983 165.314 226.621 164.995C226.258 164.676 225.627 164.516 224.727 164.516H222.073V168.303H224.727ZM237.031 158.467H246.605V170H244.69V160.164H238.945V170H237.031V158.467ZM250.078 158.467H251.863V160.643C252.254 159.874 252.798 159.287 253.495 158.88C254.205 158.46 255.025 158.249 255.954 158.249C257.404 158.249 258.565 158.728 259.435 159.686C260.306 160.629 260.741 162.036 260.741 163.907V164.342C260.741 165.329 260.625 166.192 260.393 166.932C260.161 167.657 259.834 168.266 259.413 168.76C258.993 169.238 258.485 169.601 257.89 169.848C257.31 170.094 256.664 170.218 255.954 170.218C254.967 170.218 254.14 170 253.473 169.565C252.82 169.13 252.327 168.586 251.993 167.933V174.352H250.078V158.467ZM255.518 168.52C255.983 168.52 256.418 168.433 256.824 168.259C257.23 168.071 257.578 167.802 257.868 167.454C258.173 167.106 258.405 166.671 258.565 166.148C258.739 165.626 258.826 165.024 258.826 164.342V163.907C258.826 163.283 258.739 162.725 258.565 162.232C258.405 161.738 258.173 161.325 257.868 160.991C257.578 160.643 257.23 160.382 256.824 160.208C256.418 160.034 255.983 159.947 255.518 159.947C254.996 159.947 254.517 160.034 254.082 160.208C253.647 160.367 253.277 160.6 252.972 160.904C252.668 161.194 252.428 161.542 252.254 161.949C252.08 162.355 251.993 162.79 251.993 163.254V164.995C251.993 165.517 252.08 165.996 252.254 166.431C252.428 166.867 252.668 167.236 252.972 167.541C253.277 167.846 253.647 168.085 254.082 168.259C254.517 168.433 254.996 168.52 255.518 168.52ZM263.466 158.467H265.381V167.171L271.343 158.467H273.258V170H271.343V161.296L265.381 170H263.466V158.467ZM276.203 170.218C275.986 170.218 275.768 170.196 275.551 170.152V168.237C275.623 168.252 275.732 168.259 275.877 168.259C276.196 168.259 276.472 168.158 276.704 167.955C276.951 167.751 277.146 167.396 277.291 166.888C277.436 166.381 277.545 165.691 277.618 164.821C277.69 163.951 277.727 162.848 277.727 161.513V158.467H285.996V170H284.081V160.164H279.642V161.949C279.642 163.559 279.569 164.894 279.424 165.953C279.279 167.012 279.061 167.86 278.771 168.499C278.495 169.122 278.14 169.565 277.705 169.826C277.27 170.087 276.769 170.218 276.203 170.218ZM294.264 170.218C293.524 170.218 292.82 170.102 292.153 169.869C291.486 169.623 290.898 169.26 290.39 168.781C289.883 168.288 289.476 167.672 289.172 166.932C288.867 166.192 288.715 165.329 288.715 164.342V163.907C288.715 162.979 288.867 162.159 289.172 161.448C289.476 160.737 289.883 160.15 290.39 159.686C290.898 159.207 291.486 158.851 292.153 158.619C292.82 158.373 293.524 158.249 294.264 158.249C295.003 158.249 295.707 158.373 296.374 158.619C297.042 158.851 297.629 159.207 298.137 159.686C298.645 160.15 299.051 160.737 299.356 161.448C299.66 162.159 299.813 162.979 299.813 163.907V164.342C299.813 165.329 299.66 166.192 299.356 166.932C299.051 167.672 298.645 168.288 298.137 168.781C297.629 169.26 297.042 169.623 296.374 169.869C295.707 170.102 295.003 170.218 294.264 170.218ZM294.264 168.477C294.699 168.477 295.134 168.404 295.569 168.259C296.004 168.1 296.389 167.86 296.723 167.541C297.056 167.207 297.325 166.779 297.528 166.257C297.745 165.735 297.854 165.097 297.854 164.342V163.907C297.854 163.211 297.745 162.616 297.528 162.123C297.325 161.63 297.056 161.223 296.723 160.904C296.389 160.585 296.004 160.353 295.569 160.208C295.134 160.063 294.699 159.99 294.264 159.99C293.828 159.99 293.393 160.063 292.958 160.208C292.523 160.353 292.138 160.585 291.805 160.904C291.471 161.223 291.195 161.63 290.978 162.123C290.775 162.616 290.673 163.211 290.673 163.907V164.342C290.673 165.097 290.775 165.735 290.978 166.257C291.195 166.779 291.471 167.207 291.805 167.541C292.138 167.86 292.523 168.1 292.958 168.259C293.393 168.404 293.828 168.477 294.264 168.477ZM305.254 164.059L301.12 158.467H303.252L306.778 163.298H308.105V158.467H310.02V163.298H311.325L314.916 158.467H317.005L312.87 163.994L317.223 170H314.959L311.325 164.952H310.02V170H308.105V164.952H306.778L303.122 170H300.902L305.254 164.059ZM323.865 170.218C323.126 170.218 322.422 170.102 321.755 169.869C321.087 169.637 320.5 169.282 319.992 168.803C319.484 168.31 319.078 167.693 318.773 166.954C318.469 166.214 318.316 165.343 318.316 164.342V163.907C318.316 162.95 318.462 162.123 318.752 161.426C319.042 160.716 319.426 160.128 319.905 159.664C320.398 159.185 320.964 158.83 321.602 158.598C322.255 158.365 322.937 158.249 323.648 158.249C325.345 158.249 326.658 158.714 327.586 159.642C328.515 160.571 328.979 161.883 328.979 163.581V164.799H320.231C320.231 165.481 320.34 166.054 320.558 166.518C320.775 166.983 321.058 167.36 321.406 167.65C321.755 167.94 322.139 168.15 322.56 168.281C322.995 168.411 323.43 168.477 323.865 168.477C324.736 168.477 325.403 168.332 325.867 168.042C326.346 167.751 326.687 167.352 326.89 166.845H328.761C328.645 167.396 328.435 167.882 328.13 168.303C327.84 168.723 327.478 169.079 327.042 169.369C326.622 169.645 326.136 169.855 325.584 170C325.048 170.145 324.475 170.218 323.865 170.218ZM323.757 159.99C323.307 159.99 322.872 160.056 322.451 160.186C322.03 160.302 321.653 160.498 321.319 160.774C321 161.035 320.739 161.368 320.536 161.775C320.333 162.181 320.231 162.667 320.231 163.233H327.173C327.158 162.638 327.057 162.137 326.868 161.731C326.694 161.31 326.455 160.977 326.15 160.73C325.846 160.469 325.483 160.28 325.062 160.164C324.656 160.048 324.221 159.99 323.757 159.99ZM331.701 158.467H333.616V163.276H339.578V158.467H341.493V170H339.578V164.973H333.616V170H331.701V158.467ZM344.982 158.467H346.897V167.171L352.859 158.467H354.774V170H352.859V161.296L346.897 170H344.982V158.467ZM360.527 165.43C359.569 165.213 358.88 164.821 358.46 164.255C358.039 163.675 357.829 162.935 357.829 162.036C357.829 160.904 358.169 160.027 358.851 159.403C359.548 158.779 360.657 158.467 362.181 158.467H367.185V170H365.271V165.604H362.333L359.526 170H357.393L360.527 165.43ZM359.743 162.036C359.743 162.645 359.918 163.109 360.266 163.428C360.628 163.748 361.23 163.907 362.072 163.907H365.271V160.164H362.072C361.23 160.164 360.628 160.324 360.266 160.643C359.918 160.962 359.743 161.426 359.743 162.036Z" fill="black"/>
<rect x="100" y="100" width="309" height="123" stroke="#508C6D"/>
<path d="M254.5 283.19L263.16 268.19L245.84 268.19L254.5 283.19ZM253 223L253 269.69L256 269.69L256 223L253 223Z" fill="black"/>
<rect x="100" y="283.19" width="309" height="54" fill="#ABD4C1"/>
<path d="M136.11 305.243H130.823V303.458H143.444V305.243H138.156V318.69H136.11V305.243ZM143.667 307.157H145.451V309.333C145.843 308.565 146.387 307.977 147.084 307.571C147.794 307.15 148.614 306.94 149.542 306.94C150.993 306.94 152.154 307.419 153.024 308.376C153.895 309.319 154.33 310.726 154.33 312.598V313.033C154.33 314.019 154.214 314.882 153.982 315.622C153.749 316.348 153.423 316.957 153.002 317.45C152.582 317.929 152.074 318.291 151.479 318.538C150.899 318.785 150.253 318.908 149.542 318.908C148.556 318.908 147.729 318.69 147.062 318.255C146.409 317.82 145.916 317.276 145.582 316.623V323.042H143.667V307.157ZM149.107 317.211C149.571 317.211 150.007 317.124 150.413 316.95C150.819 316.761 151.167 316.493 151.457 316.144C151.762 315.796 151.994 315.361 152.154 314.839C152.328 314.317 152.415 313.715 152.415 313.033V312.598C152.415 311.974 152.328 311.415 152.154 310.922C151.994 310.429 151.762 310.015 151.457 309.682C151.167 309.333 150.819 309.072 150.413 308.898C150.007 308.724 149.571 308.637 149.107 308.637C148.585 308.637 148.106 308.724 147.671 308.898C147.236 309.058 146.866 309.29 146.561 309.595C146.257 309.885 146.017 310.233 145.843 310.639C145.669 311.045 145.582 311.481 145.582 311.945V313.686C145.582 314.208 145.669 314.687 145.843 315.122C146.017 315.557 146.257 315.927 146.561 316.232C146.866 316.536 147.236 316.776 147.671 316.95C148.106 317.124 148.585 317.211 149.107 317.211ZM160.341 318.908C159.702 318.908 159.137 318.821 158.643 318.647C158.165 318.458 157.758 318.204 157.425 317.885C157.091 317.566 156.837 317.189 156.663 316.754C156.489 316.319 156.402 315.84 156.402 315.318C156.402 314.172 156.736 313.345 157.403 312.837C158.085 312.329 159.057 312.075 160.319 312.075H164.062V311.292C164.062 310.305 163.837 309.624 163.387 309.246C162.952 308.869 162.292 308.681 161.407 308.681C160.58 308.681 159.978 308.84 159.601 309.159C159.224 309.464 159.013 309.812 158.97 310.204H157.055C157.084 309.74 157.207 309.312 157.425 308.92C157.657 308.514 157.962 308.166 158.339 307.876C158.73 307.585 159.195 307.361 159.731 307.201C160.268 307.027 160.863 306.94 161.516 306.94C162.879 306.94 163.96 307.266 164.758 307.919C165.57 308.557 165.977 309.609 165.977 311.074V315.753C165.977 316.362 165.977 316.899 165.977 317.363C165.991 317.813 166.027 318.255 166.085 318.69H164.41C164.366 318.357 164.337 318.045 164.323 317.755C164.308 317.45 164.301 317.109 164.301 316.732C163.996 317.341 163.503 317.856 162.821 318.277C162.14 318.698 161.313 318.908 160.341 318.908ZM160.754 317.167C161.204 317.167 161.625 317.109 162.016 316.993C162.422 316.863 162.778 316.681 163.082 316.449C163.387 316.202 163.626 315.905 163.801 315.557C163.975 315.209 164.062 314.803 164.062 314.338V313.555H160.645C159.934 313.555 159.376 313.7 158.97 313.99C158.564 314.266 158.36 314.708 158.36 315.318C158.36 315.854 158.549 316.297 158.926 316.645C159.318 316.993 159.927 317.167 160.754 317.167ZM169.359 307.157H171.274V311.966H177.236V307.157H179.151V318.69H177.236V313.664H171.274V318.69H169.359V307.157ZM187.101 318.908C186.361 318.908 185.672 318.792 185.034 318.56C184.396 318.313 183.844 317.951 183.38 317.472C182.916 316.979 182.546 316.362 182.27 315.622C182.009 314.882 181.879 314.019 181.879 313.033V312.598C181.879 311.669 182.024 310.849 182.314 310.139C182.604 309.428 182.988 308.84 183.467 308.376C183.946 307.897 184.497 307.542 185.121 307.31C185.759 307.063 186.419 306.94 187.101 306.94C187.783 306.94 188.392 307.034 188.929 307.223C189.48 307.411 189.952 307.672 190.343 308.006C190.75 308.34 191.076 308.731 191.323 309.181C191.584 309.631 191.772 310.117 191.888 310.639H189.93C189.814 310.363 189.676 310.11 189.517 309.877C189.371 309.631 189.183 309.421 188.951 309.246C188.733 309.072 188.472 308.935 188.167 308.833C187.863 308.731 187.507 308.681 187.101 308.681C186.68 308.681 186.274 308.76 185.883 308.92C185.491 309.065 185.143 309.297 184.838 309.616C184.533 309.921 184.287 310.32 184.098 310.813C183.924 311.306 183.837 311.901 183.837 312.598V313.033C183.837 313.773 183.924 314.411 184.098 314.948C184.287 315.47 184.533 315.898 184.838 316.232C185.143 316.551 185.491 316.79 185.883 316.95C186.274 317.095 186.68 317.167 187.101 317.167C187.812 317.167 188.407 316.993 188.885 316.645C189.379 316.297 189.727 315.818 189.93 315.209H191.888C191.613 316.355 191.047 317.262 190.191 317.929C189.335 318.582 188.305 318.908 187.101 318.908ZM194.498 307.157H204.073V318.69H202.158V308.855H196.413V318.69H194.498V307.157ZM212.333 318.908C211.593 318.908 210.89 318.792 210.222 318.56C209.555 318.313 208.967 317.951 208.46 317.472C207.952 316.979 207.546 316.362 207.241 315.622C206.936 314.882 206.784 314.019 206.784 313.033V312.598C206.784 311.669 206.936 310.849 207.241 310.139C207.546 309.428 207.952 308.84 208.46 308.376C208.967 307.897 209.555 307.542 210.222 307.31C210.89 307.063 211.593 306.94 212.333 306.94C213.073 306.94 213.776 307.063 214.444 307.31C215.111 307.542 215.699 307.897 216.206 308.376C216.714 308.84 217.12 309.428 217.425 310.139C217.73 310.849 217.882 311.669 217.882 312.598V313.033C217.882 314.019 217.73 314.882 217.425 315.622C217.12 316.362 216.714 316.979 216.206 317.472C215.699 317.951 215.111 318.313 214.444 318.56C213.776 318.792 213.073 318.908 212.333 318.908ZM212.333 317.167C212.768 317.167 213.203 317.095 213.639 316.95C214.074 316.79 214.458 316.551 214.792 316.232C215.126 315.898 215.394 315.47 215.597 314.948C215.815 314.425 215.923 313.787 215.923 313.033V312.598C215.923 311.901 215.815 311.306 215.597 310.813C215.394 310.32 215.126 309.914 214.792 309.595C214.458 309.275 214.074 309.043 213.639 308.898C213.203 308.753 212.768 308.681 212.333 308.681C211.898 308.681 211.463 308.753 211.027 308.898C210.592 309.043 210.208 309.275 209.874 309.595C209.54 309.914 209.265 310.32 209.047 310.813C208.844 311.306 208.742 311.901 208.742 312.598V313.033C208.742 313.787 208.844 314.425 209.047 314.948C209.265 315.47 209.54 315.898 209.874 316.232C210.208 316.551 210.592 316.79 211.027 316.95C211.463 317.095 211.898 317.167 212.333 317.167ZM220.593 307.157H222.378V309.333C222.769 308.565 223.313 307.977 224.01 307.571C224.721 307.15 225.54 306.94 226.469 306.94C227.919 306.94 229.08 307.419 229.95 308.376C230.821 309.319 231.256 310.726 231.256 312.598V313.033C231.256 314.019 231.14 314.882 230.908 315.622C230.676 316.348 230.349 316.957 229.929 317.45C229.508 317.929 229 318.291 228.405 318.538C227.825 318.785 227.18 318.908 226.469 318.908C225.482 318.908 224.655 318.69 223.988 318.255C223.335 317.82 222.842 317.276 222.508 316.623V323.042H220.593V307.157ZM226.033 317.211C226.498 317.211 226.933 317.124 227.339 316.95C227.745 316.761 228.093 316.493 228.384 316.144C228.688 315.796 228.92 315.361 229.08 314.839C229.254 314.317 229.341 313.715 229.341 313.033V312.598C229.341 311.974 229.254 311.415 229.08 310.922C228.92 310.429 228.688 310.015 228.384 309.682C228.093 309.333 227.745 309.072 227.339 308.898C226.933 308.724 226.498 308.637 226.033 308.637C225.511 308.637 225.032 308.724 224.597 308.898C224.162 309.058 223.792 309.29 223.488 309.595C223.183 309.885 222.944 310.233 222.769 310.639C222.595 311.045 222.508 311.481 222.508 311.945V313.686C222.508 314.208 222.595 314.687 222.769 315.122C222.944 315.557 223.183 315.927 223.488 316.232C223.792 316.536 224.162 316.776 224.597 316.95C225.032 317.124 225.511 317.211 226.033 317.211ZM236.402 308.855H232.463V307.157H242.255V308.855H238.317V318.69H236.402V308.855ZM244.436 307.157H246.351V311.966H252.314V307.157H254.228V318.69H252.314V313.664H246.351V318.69H244.436V307.157ZM257.718 307.157H259.633V311.51H261.961C263.412 311.51 264.478 311.829 265.16 312.467C265.856 313.105 266.204 313.99 266.204 315.122C266.204 316.224 265.856 317.095 265.16 317.733C264.478 318.371 263.412 318.69 261.961 318.69H257.718V307.157ZM261.852 316.993C262.752 316.993 263.383 316.834 263.745 316.514C264.108 316.195 264.289 315.724 264.289 315.1C264.289 314.476 264.108 314.005 263.745 313.686C263.383 313.366 262.752 313.207 261.852 313.207H259.633V316.993H261.852ZM267.989 307.157H269.904V318.69H267.989V307.157ZM273.379 307.157H275.294V315.862L281.256 307.157H283.171V318.69H281.256V309.986L275.294 318.69H273.379V307.157ZM278.275 305.743C277.144 305.743 276.317 305.504 275.795 305.025C275.272 304.532 275.011 303.828 275.011 302.914H276.883C276.883 303.901 277.347 304.394 278.275 304.394C279.233 304.394 279.711 303.901 279.711 302.914H281.539C281.539 303.828 281.278 304.532 280.756 305.025C280.234 305.504 279.407 305.743 278.275 305.743ZM293.624 323.26C293.406 323.26 293.189 323.238 292.971 323.195V321.454C293.189 321.498 293.406 321.519 293.624 321.519C293.842 321.519 294.03 321.483 294.19 321.41C294.349 321.338 294.502 321.2 294.647 320.997C294.792 320.794 294.944 320.504 295.104 320.127C295.278 319.764 295.474 319.285 295.691 318.69L290.795 307.157H292.928L296.67 316.514L300.065 307.157H302.111L297.758 318.69C297.454 319.503 297.164 320.199 296.888 320.779C296.612 321.36 296.315 321.831 295.996 322.194C295.691 322.571 295.35 322.839 294.973 322.999C294.596 323.173 294.146 323.26 293.624 323.26ZM304.277 307.157H306.062V309.333C306.453 308.565 306.997 307.977 307.694 307.571C308.404 307.15 309.224 306.94 310.153 306.94C311.603 306.94 312.764 307.419 313.634 308.376C314.505 309.319 314.94 310.726 314.94 312.598V313.033C314.94 314.019 314.824 314.882 314.592 315.622C314.36 316.348 314.033 316.957 313.612 317.45C313.192 317.929 312.684 318.291 312.089 318.538C311.509 318.785 310.863 318.908 310.153 318.908C309.166 318.908 308.339 318.69 307.672 318.255C307.019 317.82 306.526 317.276 306.192 316.623V323.042H304.277V307.157ZM309.717 317.211C310.182 317.211 310.617 317.124 311.023 316.95C311.429 316.761 311.777 316.493 312.067 316.144C312.372 315.796 312.604 315.361 312.764 314.839C312.938 314.317 313.025 313.715 313.025 313.033V312.598C313.025 311.974 312.938 311.415 312.764 310.922C312.604 310.429 312.372 310.015 312.067 309.682C311.777 309.333 311.429 309.072 311.023 308.898C310.617 308.724 310.182 308.637 309.717 308.637C309.195 308.637 308.716 308.724 308.281 308.898C307.846 309.058 307.476 309.29 307.171 309.595C306.867 309.885 306.627 310.233 306.453 310.639C306.279 311.045 306.192 311.481 306.192 311.945V313.686C306.192 314.208 306.279 314.687 306.453 315.122C306.627 315.557 306.867 315.927 307.171 316.232C307.476 316.536 307.846 316.776 308.281 316.95C308.716 317.124 309.195 317.211 309.717 317.211ZM322.452 318.908C321.712 318.908 321.009 318.792 320.341 318.56C319.674 318.313 319.087 317.951 318.579 317.472C318.071 316.979 317.665 316.362 317.36 315.622C317.056 314.882 316.903 314.019 316.903 313.033V312.598C316.903 311.669 317.056 310.849 317.36 310.139C317.665 309.428 318.071 308.84 318.579 308.376C319.087 307.897 319.674 307.542 320.341 307.31C321.009 307.063 321.712 306.94 322.452 306.94C323.192 306.94 323.896 307.063 324.563 307.31C325.23 307.542 325.818 307.897 326.326 308.376C326.833 308.84 327.239 309.428 327.544 310.139C327.849 310.849 328.001 311.669 328.001 312.598V313.033C328.001 314.019 327.849 314.882 327.544 315.622C327.239 316.362 326.833 316.979 326.326 317.472C325.818 317.951 325.23 318.313 324.563 318.56C323.896 318.792 323.192 318.908 322.452 318.908ZM322.452 317.167C322.887 317.167 323.323 317.095 323.758 316.95C324.193 316.79 324.577 316.551 324.911 316.232C325.245 315.898 325.513 315.47 325.716 314.948C325.934 314.425 326.043 313.787 326.043 313.033V312.598C326.043 311.901 325.934 311.306 325.716 310.813C325.513 310.32 325.245 309.914 324.911 309.595C324.577 309.275 324.193 309.043 323.758 308.898C323.323 308.753 322.887 308.681 322.452 308.681C322.017 308.681 321.582 308.753 321.147 308.898C320.711 309.043 320.327 309.275 319.993 309.595C319.66 309.914 319.384 310.32 319.166 310.813C318.963 311.306 318.862 311.901 318.862 312.598V313.033C318.862 313.787 318.963 314.425 319.166 314.948C319.384 315.47 319.66 315.898 319.993 316.232C320.327 316.551 320.711 316.79 321.147 316.95C321.582 317.095 322.017 317.167 322.452 317.167ZM330.713 307.157H335.718C337.139 307.157 338.184 307.455 338.851 308.05C339.518 308.63 339.852 309.384 339.852 310.313C339.852 310.559 339.808 310.813 339.721 311.074C339.634 311.321 339.511 311.553 339.352 311.771C339.206 311.988 339.025 312.177 338.808 312.336C338.604 312.496 338.372 312.619 338.111 312.706C338.822 312.88 339.359 313.214 339.721 313.707C340.099 314.186 340.287 314.752 340.287 315.405C340.287 316.406 339.954 317.203 339.286 317.798C338.619 318.393 337.574 318.69 336.153 318.69H330.713V307.157ZM336.153 316.993C336.965 316.993 337.538 316.848 337.872 316.558C338.205 316.268 338.372 315.854 338.372 315.318C338.372 314.766 338.205 314.346 337.872 314.055C337.538 313.751 336.965 313.599 336.153 313.599H332.628V316.993H336.153ZM335.718 312.032C336.544 312.032 337.117 311.887 337.437 311.597C337.77 311.306 337.937 310.907 337.937 310.4C337.937 309.921 337.77 309.544 337.437 309.268C337.117 308.993 336.544 308.855 335.718 308.855H332.628V312.032H335.718ZM347.804 318.908C347.064 318.908 346.36 318.792 345.693 318.56C345.026 318.328 344.438 317.972 343.931 317.494C343.423 317 343.017 316.384 342.712 315.644C342.407 314.904 342.255 314.034 342.255 313.033V312.598C342.255 311.64 342.4 310.813 342.69 310.117C342.98 309.406 343.365 308.818 343.843 308.354C344.337 307.876 344.902 307.52 345.541 307.288C346.194 307.056 346.875 306.94 347.586 306.94C349.284 306.94 350.596 307.404 351.525 308.333C352.453 309.261 352.918 310.574 352.918 312.271V313.49H344.17C344.17 314.172 344.279 314.745 344.496 315.209C344.714 315.673 344.997 316.05 345.345 316.34C345.693 316.63 346.078 316.841 346.498 316.971C346.933 317.102 347.369 317.167 347.804 317.167C348.674 317.167 349.342 317.022 349.806 316.732C350.285 316.442 350.625 316.043 350.829 315.535H352.7C352.584 316.086 352.374 316.572 352.069 316.993C351.779 317.414 351.416 317.769 350.981 318.059C350.56 318.335 350.074 318.545 349.523 318.69C348.986 318.835 348.413 318.908 347.804 318.908ZM347.695 308.681C347.245 308.681 346.81 308.746 346.389 308.877C345.969 308.993 345.592 309.188 345.258 309.464C344.939 309.725 344.678 310.059 344.475 310.465C344.271 310.871 344.17 311.357 344.17 311.923H351.111C351.097 311.328 350.995 310.828 350.807 310.421C350.633 310.001 350.393 309.667 350.089 309.421C349.784 309.159 349.421 308.971 349.001 308.855C348.594 308.739 348.159 308.681 347.695 308.681ZM355.639 307.157H357.554V311.966H363.517V307.157H365.431V318.69H363.517V313.664H357.554V318.69H355.639V307.157ZM368.921 307.157H370.836V311.51H373.599C375.05 311.51 376.116 311.829 376.798 312.467C377.494 313.105 377.843 313.99 377.843 315.122C377.843 316.224 377.494 317.095 376.798 317.733C376.116 318.371 375.05 318.69 373.599 318.69H368.921V307.157ZM373.49 316.993C374.39 316.993 375.021 316.834 375.384 316.514C375.746 316.195 375.928 315.724 375.928 315.1C375.928 314.476 375.746 314.005 375.384 313.686C375.021 313.366 374.39 313.207 373.49 313.207H370.836V316.993H373.49Z" fill="black"/>
<rect x="100" y="283.19" width="309" height="54" stroke="#508C6D"/>
<path d="M254.5 397.38L263.16 382.38L245.84 382.38L254.5 397.38ZM253 337.19L253 383.88L256 383.88L256 337.19L253 337.19Z" fill="black"/>
<rect x="100" y="397.38" width="309" height="55" fill="#ABD4C1"/>
<path d="M170.923 433.597C170.067 433.597 169.255 433.452 168.486 433.162C167.717 432.858 167.035 432.393 166.44 431.77C165.845 431.131 165.374 430.326 165.026 429.354C164.678 428.382 164.504 427.222 164.504 425.873V425.437C164.504 424.132 164.678 423.007 165.026 422.065C165.374 421.122 165.845 420.345 166.44 419.736C167.035 419.127 167.717 418.677 168.486 418.387C169.255 418.082 170.067 417.93 170.923 417.93C171.75 417.93 172.504 418.039 173.186 418.256C173.882 418.474 174.492 418.786 175.014 419.192C175.536 419.598 175.957 420.099 176.276 420.694C176.61 421.288 176.82 421.963 176.907 422.717H174.731C174.528 421.731 174.1 420.991 173.447 420.498C172.794 420.005 171.953 419.758 170.923 419.758C170.386 419.758 169.864 419.859 169.356 420.063C168.848 420.266 168.391 420.592 167.985 421.042C167.593 421.477 167.274 422.057 167.028 422.783C166.796 423.508 166.68 424.393 166.68 425.437V425.873C166.68 426.975 166.81 427.904 167.071 428.658C167.332 429.398 167.666 430 168.072 430.464C168.478 430.928 168.935 431.262 169.443 431.465C169.951 431.668 170.444 431.77 170.923 431.77C172.054 431.77 172.939 431.494 173.578 430.943C174.216 430.391 174.6 429.681 174.731 428.81H176.907C176.791 429.652 176.559 430.377 176.211 430.986C175.862 431.581 175.42 432.074 174.883 432.466C174.361 432.858 173.759 433.148 173.077 433.336C172.41 433.51 171.692 433.597 170.923 433.597ZM184.516 433.597C183.776 433.597 183.073 433.481 182.405 433.249C181.738 433.017 181.151 432.662 180.643 432.183C180.135 431.69 179.729 431.073 179.424 430.333C179.12 429.594 178.967 428.723 178.967 427.722V427.287C178.967 426.33 179.112 425.503 179.403 424.806C179.693 424.095 180.077 423.508 180.556 423.044C181.049 422.565 181.615 422.21 182.253 421.977C182.906 421.745 183.588 421.629 184.299 421.629C185.996 421.629 187.309 422.094 188.237 423.022C189.166 423.95 189.63 425.263 189.63 426.961V428.179H180.882C180.882 428.861 180.991 429.434 181.209 429.898C181.426 430.362 181.709 430.74 182.057 431.03C182.405 431.32 182.79 431.53 183.211 431.661C183.646 431.791 184.081 431.857 184.516 431.857C185.387 431.857 186.054 431.712 186.518 431.421C186.997 431.131 187.338 430.732 187.541 430.225H189.412C189.296 430.776 189.086 431.262 188.781 431.683C188.491 432.103 188.128 432.459 187.693 432.749C187.273 433.024 186.787 433.235 186.235 433.38C185.699 433.525 185.126 433.597 184.516 433.597ZM184.407 423.37C183.958 423.37 183.523 423.435 183.102 423.566C182.681 423.682 182.304 423.878 181.97 424.153C181.651 424.415 181.39 424.748 181.187 425.154C180.984 425.561 180.882 426.047 180.882 426.612H187.824C187.809 426.018 187.708 425.517 187.519 425.111C187.345 424.69 187.106 424.357 186.801 424.11C186.496 423.849 186.134 423.66 185.713 423.544C185.307 423.428 184.872 423.37 184.407 423.37ZM194.772 423.544H190.834V421.847H200.626V423.544H196.687V433.38H194.772V423.544ZM207.382 433.597C206.642 433.597 205.938 433.481 205.271 433.249C204.604 433.017 204.016 432.662 203.508 432.183C203.001 431.69 202.594 431.073 202.29 430.333C201.985 429.594 201.833 428.723 201.833 427.722V427.287C201.833 426.33 201.978 425.503 202.268 424.806C202.558 424.095 202.943 423.508 203.421 423.044C203.914 422.565 204.48 422.21 205.119 421.977C205.771 421.745 206.453 421.629 207.164 421.629C208.861 421.629 210.174 422.094 211.103 423.022C212.031 423.95 212.495 425.263 212.495 426.961V428.179H203.748C203.748 428.861 203.856 429.434 204.074 429.898C204.292 430.362 204.575 430.74 204.923 431.03C205.271 431.32 205.655 431.53 206.076 431.661C206.511 431.791 206.946 431.857 207.382 431.857C208.252 431.857 208.919 431.712 209.384 431.421C209.862 431.131 210.203 430.732 210.406 430.225H212.278C212.162 430.776 211.951 431.262 211.647 431.683C211.357 432.103 210.994 432.459 210.559 432.749C210.138 433.024 209.652 433.235 209.101 433.38C208.564 433.525 207.991 433.597 207.382 433.597ZM207.273 423.37C206.823 423.37 206.388 423.435 205.967 423.566C205.546 423.682 205.169 423.878 204.836 424.153C204.517 424.415 204.255 424.748 204.052 425.154C203.849 425.561 203.748 426.047 203.748 426.612H210.689C210.675 426.018 210.573 425.517 210.385 425.111C210.21 424.69 209.971 424.357 209.666 424.11C209.362 423.849 208.999 423.66 208.578 423.544C208.172 423.428 207.737 423.37 207.273 423.37ZM215.217 421.847H220.222C221.644 421.847 222.688 422.144 223.355 422.739C224.023 423.319 224.356 424.074 224.356 425.002C224.356 425.249 224.313 425.503 224.226 425.764C224.139 426.01 224.015 426.242 223.856 426.46C223.711 426.678 223.529 426.866 223.312 427.026C223.109 427.185 222.877 427.309 222.616 427.396C223.326 427.57 223.863 427.904 224.226 428.397C224.603 428.875 224.792 429.441 224.792 430.094C224.792 431.095 224.458 431.893 223.791 432.488C223.123 433.082 222.079 433.38 220.657 433.38H215.217V421.847ZM220.657 431.683C221.47 431.683 222.043 431.538 222.376 431.247C222.71 430.957 222.877 430.544 222.877 430.007C222.877 429.456 222.71 429.035 222.376 428.745C222.043 428.44 221.47 428.288 220.657 428.288H217.132V431.683H220.657ZM220.222 426.721C221.049 426.721 221.622 426.576 221.941 426.286C222.275 425.996 222.441 425.597 222.441 425.089C222.441 424.61 222.275 424.233 221.941 423.958C221.622 423.682 221.049 423.544 220.222 423.544H217.132V426.721H220.222ZM232.308 433.597C231.568 433.597 230.865 433.481 230.198 433.249C229.53 433.003 228.943 432.64 228.435 432.161C227.927 431.668 227.521 431.052 227.216 430.312C226.912 429.572 226.759 428.709 226.759 427.722V427.287C226.759 426.359 226.912 425.539 227.216 424.828C227.521 424.117 227.927 423.53 228.435 423.065C228.943 422.587 229.53 422.231 230.198 421.999C230.865 421.753 231.568 421.629 232.308 421.629C233.048 421.629 233.752 421.753 234.419 421.999C235.086 422.231 235.674 422.587 236.182 423.065C236.689 423.53 237.096 424.117 237.4 424.828C237.705 425.539 237.857 426.359 237.857 427.287V427.722C237.857 428.709 237.705 429.572 237.4 430.312C237.096 431.052 236.689 431.668 236.182 432.161C235.674 432.64 235.086 433.003 234.419 433.249C233.752 433.481 233.048 433.597 232.308 433.597ZM232.308 431.857C232.743 431.857 233.179 431.784 233.614 431.639C234.049 431.479 234.434 431.24 234.767 430.921C235.101 430.587 235.369 430.159 235.572 429.637C235.79 429.115 235.899 428.477 235.899 427.722V427.287C235.899 426.591 235.79 425.996 235.572 425.503C235.369 425.009 235.101 424.603 234.767 424.284C234.434 423.965 234.049 423.733 233.614 423.588C233.179 423.443 232.743 423.37 232.308 423.37C231.873 423.37 231.438 423.443 231.003 423.588C230.567 423.733 230.183 423.965 229.849 424.284C229.516 424.603 229.24 425.009 229.022 425.503C228.819 425.996 228.718 426.591 228.718 427.287V427.722C228.718 428.477 228.819 429.115 229.022 429.637C229.24 430.159 229.516 430.587 229.849 430.921C230.183 431.24 230.567 431.479 231.003 431.639C231.438 431.784 231.873 431.857 232.308 431.857ZM240.569 421.847H242.484V430.551L248.446 421.847H250.361V433.38H248.446V424.676L242.484 433.38H240.569V421.847ZM245.465 420.432C244.333 420.432 243.506 420.193 242.984 419.714C242.462 419.221 242.201 418.518 242.201 417.604H244.072C244.072 418.59 244.536 419.083 245.465 419.083C246.422 419.083 246.901 418.59 246.901 417.604H248.729C248.729 418.518 248.468 419.221 247.945 419.714C247.423 420.193 246.596 420.432 245.465 420.432ZM260.813 437.95C260.596 437.95 260.378 437.928 260.161 437.884V436.143C260.378 436.187 260.596 436.209 260.813 436.209C261.031 436.209 261.22 436.172 261.379 436.1C261.539 436.027 261.691 435.89 261.836 435.686C261.981 435.483 262.134 435.193 262.293 434.816C262.467 434.453 262.663 433.975 262.881 433.38L257.985 421.847H260.117L263.86 431.204L267.255 421.847H269.3L264.948 433.38C264.643 434.192 264.353 434.889 264.078 435.469C263.802 436.049 263.505 436.521 263.185 436.883C262.881 437.26 262.54 437.529 262.163 437.688C261.785 437.863 261.336 437.95 260.813 437.95ZM271.467 421.847H273.251V424.023C273.643 423.254 274.187 422.667 274.883 422.26C275.594 421.84 276.414 421.629 277.342 421.629C278.793 421.629 279.953 422.108 280.824 423.065C281.694 424.008 282.129 425.416 282.129 427.287V427.722C282.129 428.709 282.013 429.572 281.781 430.312C281.549 431.037 281.223 431.646 280.802 432.14C280.381 432.618 279.873 432.981 279.279 433.228C278.698 433.474 278.053 433.597 277.342 433.597C276.356 433.597 275.529 433.38 274.861 432.945C274.209 432.509 273.715 431.965 273.382 431.313V437.732H271.467V421.847ZM276.907 431.9C277.371 431.9 277.806 431.813 278.212 431.639C278.619 431.45 278.967 431.182 279.257 430.834C279.562 430.486 279.794 430.051 279.953 429.528C280.127 429.006 280.214 428.404 280.214 427.722V427.287C280.214 426.663 280.127 426.105 279.953 425.611C279.794 425.118 279.562 424.705 279.257 424.371C278.967 424.023 278.619 423.762 278.212 423.588C277.806 423.414 277.371 423.327 276.907 423.327C276.385 423.327 275.906 423.414 275.471 423.588C275.035 423.747 274.665 423.979 274.361 424.284C274.056 424.574 273.817 424.922 273.643 425.329C273.469 425.735 273.382 426.17 273.382 426.634V428.375C273.382 428.897 273.469 429.376 273.643 429.811C273.817 430.246 274.056 430.616 274.361 430.921C274.665 431.226 275.035 431.465 275.471 431.639C275.906 431.813 276.385 431.9 276.907 431.9ZM289.642 433.597C288.902 433.597 288.198 433.481 287.531 433.249C286.864 433.003 286.276 432.64 285.768 432.161C285.261 431.668 284.854 431.052 284.55 430.312C284.245 429.572 284.093 428.709 284.093 427.722V427.287C284.093 426.359 284.245 425.539 284.55 424.828C284.854 424.117 285.261 423.53 285.768 423.065C286.276 422.587 286.864 422.231 287.531 421.999C288.198 421.753 288.902 421.629 289.642 421.629C290.382 421.629 291.085 421.753 291.752 421.999C292.42 422.231 293.007 422.587 293.515 423.065C294.023 423.53 294.429 424.117 294.734 424.828C295.038 425.539 295.191 426.359 295.191 427.287V427.722C295.191 428.709 295.038 429.572 294.734 430.312C294.429 431.052 294.023 431.668 293.515 432.161C293.007 432.64 292.42 433.003 291.752 433.249C291.085 433.481 290.382 433.597 289.642 433.597ZM289.642 431.857C290.077 431.857 290.512 431.784 290.947 431.639C291.383 431.479 291.767 431.24 292.101 430.921C292.434 430.587 292.703 430.159 292.906 429.637C293.123 429.115 293.232 428.477 293.232 427.722V427.287C293.232 426.591 293.123 425.996 292.906 425.503C292.703 425.009 292.434 424.603 292.101 424.284C291.767 423.965 291.383 423.733 290.947 423.588C290.512 423.443 290.077 423.37 289.642 423.37C289.206 423.37 288.771 423.443 288.336 423.588C287.901 423.733 287.516 423.965 287.183 424.284C286.849 424.603 286.573 425.009 286.356 425.503C286.153 425.996 286.051 426.591 286.051 427.287V427.722C286.051 428.477 286.153 429.115 286.356 429.637C286.573 430.159 286.849 430.587 287.183 430.921C287.516 431.24 287.901 431.479 288.336 431.639C288.771 431.784 289.206 431.857 289.642 431.857ZM297.902 421.847H302.907C304.329 421.847 305.373 422.144 306.04 422.739C306.708 423.319 307.041 424.074 307.041 425.002C307.041 425.249 306.998 425.503 306.911 425.764C306.824 426.01 306.701 426.242 306.541 426.46C306.396 426.678 306.215 426.866 305.997 427.026C305.794 427.185 305.562 427.309 305.301 427.396C306.011 427.57 306.548 427.904 306.911 428.397C307.288 428.875 307.477 429.441 307.477 430.094C307.477 431.095 307.143 431.893 306.476 432.488C305.808 433.082 304.764 433.38 303.342 433.38H297.902V421.847ZM303.342 431.683C304.155 431.683 304.728 431.538 305.061 431.247C305.395 430.957 305.562 430.544 305.562 430.007C305.562 429.456 305.395 429.035 305.061 428.745C304.728 428.44 304.155 428.288 303.342 428.288H299.817V431.683H303.342ZM302.907 426.721C303.734 426.721 304.307 426.576 304.626 426.286C304.96 425.996 305.127 425.597 305.127 425.089C305.127 424.61 304.96 424.233 304.626 423.958C304.307 423.682 303.734 423.544 302.907 423.544H299.817V426.721H302.907ZM314.993 433.597C314.253 433.597 313.55 433.481 312.883 433.249C312.215 433.017 311.628 432.662 311.12 432.183C310.612 431.69 310.206 431.073 309.901 430.333C309.597 429.594 309.444 428.723 309.444 427.722V427.287C309.444 426.33 309.59 425.503 309.88 424.806C310.17 424.095 310.554 423.508 311.033 423.044C311.526 422.565 312.092 422.21 312.73 421.977C313.383 421.745 314.065 421.629 314.776 421.629C316.473 421.629 317.786 422.094 318.714 423.022C319.643 423.95 320.107 425.263 320.107 426.961V428.179H311.359C311.359 428.861 311.468 429.434 311.686 429.898C311.903 430.362 312.186 430.74 312.534 431.03C312.883 431.32 313.267 431.53 313.688 431.661C314.123 431.791 314.558 431.857 314.993 431.857C315.864 431.857 316.531 431.712 316.995 431.421C317.474 431.131 317.815 430.732 318.018 430.225H319.889C319.773 430.776 319.563 431.262 319.258 431.683C318.968 432.103 318.606 432.459 318.17 432.749C317.75 433.024 317.264 433.235 316.712 433.38C316.176 433.525 315.603 433.597 314.993 433.597ZM314.885 423.37C314.435 423.37 314 423.435 313.579 423.566C313.158 423.682 312.781 423.878 312.447 424.153C312.128 424.415 311.867 424.748 311.664 425.154C311.461 425.561 311.359 426.047 311.359 426.612H318.301C318.286 426.018 318.185 425.517 317.996 425.111C317.822 424.69 317.583 424.357 317.278 424.11C316.974 423.849 316.611 423.66 316.19 423.544C315.784 423.428 315.349 423.37 314.885 423.37ZM322.829 421.847H324.744V426.656H330.706V421.847H332.621V433.38H330.706V428.353H324.744V433.38H322.829V421.847ZM336.11 421.847H338.025V426.199H340.789C342.239 426.199 343.306 426.518 343.987 427.156C344.684 427.795 345.032 428.68 345.032 429.811C345.032 430.914 344.684 431.784 343.987 432.422C343.306 433.061 342.239 433.38 340.789 433.38H336.11V421.847ZM340.68 431.683C341.579 431.683 342.21 431.523 342.573 431.204C342.936 430.885 343.117 430.413 343.117 429.789C343.117 429.166 342.936 428.694 342.573 428.375C342.21 428.056 341.579 427.896 340.68 427.896H338.025V431.683H340.68Z" fill="black"/>
<rect x="100" y="397.38" width="309" height="55" stroke="#508C6D"/>
<path d="M254.5 512.57L263.16 497.57L245.84 497.57L254.5 512.57ZM253 452.38L253 499.07L256 499.07L256 452.38L253 452.38Z" fill="black"/>
<rect x="100" y="512.57" width="309" height="54" fill="#ABD4C1"/>
<path d="M150.18 532.838H152.225V539.388H153.966L159.929 532.838H162.366L155.707 540.106L162.583 548.07H159.972L153.966 541.085H152.225V548.07H150.18V532.838ZM168.055 548.288C167.416 548.288 166.85 548.201 166.357 548.027C165.879 547.838 165.472 547.584 165.139 547.265C164.805 546.946 164.551 546.569 164.377 546.134C164.203 545.698 164.116 545.22 164.116 544.697C164.116 543.551 164.45 542.725 165.117 542.217C165.799 541.709 166.771 541.455 168.033 541.455H171.776V540.672C171.776 539.685 171.551 539.003 171.101 538.626C170.666 538.249 170.006 538.061 169.121 538.061C168.294 538.061 167.692 538.22 167.315 538.539C166.938 538.844 166.727 539.192 166.684 539.584H164.769C164.798 539.12 164.921 538.692 165.139 538.3C165.371 537.894 165.675 537.546 166.053 537.255C166.444 536.965 166.909 536.74 167.445 536.581C167.982 536.407 168.577 536.32 169.23 536.32C170.593 536.32 171.674 536.646 172.472 537.299C173.284 537.937 173.69 538.989 173.69 540.454V545.133C173.69 545.742 173.69 546.279 173.69 546.743C173.705 547.193 173.741 547.635 173.799 548.07H172.124C172.08 547.737 172.051 547.425 172.037 547.135C172.022 546.83 172.015 546.489 172.015 546.112C171.71 546.721 171.217 547.236 170.535 547.657C169.853 548.078 169.027 548.288 168.055 548.288ZM168.468 546.547C168.918 546.547 169.338 546.489 169.73 546.373C170.136 546.242 170.492 546.061 170.796 545.829C171.101 545.582 171.34 545.285 171.514 544.937C171.689 544.589 171.776 544.182 171.776 543.718V542.935H168.359C167.648 542.935 167.09 543.08 166.684 543.37C166.277 543.646 166.074 544.088 166.074 544.697C166.074 545.234 166.263 545.677 166.64 546.025C167.032 546.373 167.641 546.547 168.468 546.547ZM177.073 536.537H178.988V541.346H184.95V536.537H186.865V548.07H184.95V543.044H178.988V548.07H177.073V536.537ZM193.64 548.288C193.002 548.288 192.436 548.201 191.943 548.027C191.464 547.838 191.058 547.584 190.724 547.265C190.39 546.946 190.137 546.569 189.962 546.134C189.788 545.698 189.701 545.22 189.701 544.697C189.701 543.551 190.035 542.725 190.702 542.217C191.384 541.709 192.356 541.455 193.618 541.455H197.361V540.672C197.361 539.685 197.136 539.003 196.686 538.626C196.251 538.249 195.591 538.061 194.706 538.061C193.879 538.061 193.277 538.22 192.9 538.539C192.523 538.844 192.313 539.192 192.269 539.584H190.354C190.383 539.12 190.506 538.692 190.724 538.3C190.956 537.894 191.261 537.546 191.638 537.255C192.03 536.965 192.494 536.74 193.031 536.581C193.567 536.407 194.162 536.32 194.815 536.32C196.179 536.32 197.259 536.646 198.057 537.299C198.87 537.937 199.276 538.989 199.276 540.454V545.133C199.276 545.742 199.276 546.279 199.276 546.743C199.29 547.193 199.327 547.635 199.385 548.07H197.709C197.666 547.737 197.637 547.425 197.622 547.135C197.608 546.83 197.6 546.489 197.6 546.112C197.296 546.721 196.802 547.236 196.121 547.657C195.439 548.078 194.612 548.288 193.64 548.288ZM194.053 546.547C194.503 546.547 194.924 546.489 195.316 546.373C195.722 546.242 196.077 546.061 196.382 545.829C196.686 545.582 196.926 545.285 197.1 544.937C197.274 544.589 197.361 544.182 197.361 543.718V542.935H193.945C193.234 542.935 192.675 543.08 192.269 543.37C191.863 543.646 191.66 544.088 191.66 544.697C191.66 545.234 191.848 545.677 192.226 546.025C192.617 546.373 193.227 546.547 194.053 546.547ZM202.114 548.288C201.896 548.288 201.679 548.266 201.461 548.223V546.308C201.534 546.322 201.643 546.329 201.788 546.329C202.107 546.329 202.382 546.228 202.615 546.025C202.861 545.822 203.057 545.466 203.202 544.959C203.347 544.451 203.456 543.762 203.529 542.891C203.601 542.021 203.637 540.918 203.637 539.584V536.537H211.906V548.07H209.991V538.235H205.552V540.019C205.552 541.629 205.48 542.964 205.335 544.023C205.19 545.082 204.972 545.931 204.682 546.569C204.406 547.193 204.051 547.635 203.616 547.896C203.18 548.157 202.68 548.288 202.114 548.288ZM215.387 536.537H217.302V540.889H220.066C221.516 540.889 222.582 541.209 223.264 541.847C223.961 542.485 224.309 543.37 224.309 544.502C224.309 545.604 223.961 546.475 223.264 547.113C222.582 547.751 221.516 548.07 220.066 548.07H215.387V536.537ZM219.957 546.373C220.856 546.373 221.487 546.213 221.85 545.894C222.213 545.575 222.394 545.104 222.394 544.48C222.394 543.856 222.213 543.385 221.85 543.065C221.487 542.746 220.856 542.587 219.957 542.587H217.302V546.373H219.957ZM226.82 536.537H228.735V541.346H234.697V536.537H236.612V548.07H234.697V543.044H228.735V548.07H226.82V536.537ZM240.101 536.537H242.016V540.889H244.344C245.795 540.889 246.861 541.209 247.543 541.847C248.24 542.485 248.588 543.37 248.588 544.502C248.588 545.604 248.24 546.475 247.543 547.113C246.861 547.751 245.795 548.07 244.344 548.07H240.101V536.537ZM244.236 546.373C245.135 546.373 245.766 546.213 246.129 545.894C246.491 545.575 246.673 545.104 246.673 544.48C246.673 543.856 246.491 543.385 246.129 543.065C245.766 542.746 245.135 542.587 244.236 542.587H242.016V546.373H244.236ZM250.372 536.537H252.287V548.07H250.372V536.537ZM255.763 536.537H257.678V545.241L263.64 536.537H265.555V548.07H263.64V539.366L257.678 548.07H255.763V536.537ZM260.659 535.123C259.527 535.123 258.7 534.884 258.178 534.405C257.656 533.912 257.395 533.208 257.395 532.294H259.266C259.266 533.281 259.73 533.774 260.659 533.774C261.616 533.774 262.095 533.281 262.095 532.294H263.923C263.923 533.208 263.662 533.912 263.139 534.405C262.617 534.884 261.79 535.123 260.659 535.123ZM276.007 552.64C275.79 552.64 275.572 552.618 275.355 552.575V550.834C275.572 550.877 275.79 550.899 276.007 550.899C276.225 550.899 276.414 550.863 276.573 550.79C276.733 550.718 276.885 550.58 277.03 550.377C277.175 550.174 277.328 549.884 277.487 549.506C277.661 549.144 277.857 548.665 278.075 548.07L273.179 536.537H275.311L279.054 545.894L282.449 536.537H284.494L280.142 548.07C279.837 548.883 279.547 549.579 279.272 550.159C278.996 550.74 278.698 551.211 278.379 551.574C278.075 551.951 277.734 552.219 277.357 552.379C276.979 552.553 276.53 552.64 276.007 552.64ZM286.661 536.537H288.445V538.713C288.837 537.944 289.381 537.357 290.077 536.951C290.788 536.53 291.608 536.32 292.536 536.32C293.987 536.32 295.147 536.798 296.018 537.756C296.888 538.699 297.323 540.106 297.323 541.977V542.413C297.323 543.399 297.207 544.262 296.975 545.002C296.743 545.727 296.417 546.337 295.996 546.83C295.575 547.309 295.067 547.671 294.473 547.918C293.892 548.165 293.247 548.288 292.536 548.288C291.55 548.288 290.723 548.07 290.055 547.635C289.402 547.2 288.909 546.656 288.576 546.003V552.422H286.661V536.537ZM292.101 546.591C292.565 546.591 293 546.504 293.406 546.329C293.813 546.141 294.161 545.873 294.451 545.524C294.756 545.176 294.988 544.741 295.147 544.219C295.321 543.696 295.408 543.094 295.408 542.413V541.977C295.408 541.354 295.321 540.795 295.147 540.302C294.988 539.809 294.756 539.395 294.451 539.062C294.161 538.713 293.813 538.452 293.406 538.278C293 538.104 292.565 538.017 292.101 538.017C291.579 538.017 291.1 538.104 290.665 538.278C290.229 538.438 289.859 538.67 289.555 538.974C289.25 539.265 289.011 539.613 288.837 540.019C288.663 540.425 288.576 540.86 288.576 541.325V543.065C288.576 543.588 288.663 544.066 288.837 544.502C289.011 544.937 289.25 545.307 289.555 545.611C289.859 545.916 290.229 546.155 290.665 546.329C291.1 546.504 291.579 546.591 292.101 546.591ZM304.836 548.288C304.096 548.288 303.392 548.172 302.725 547.94C302.058 547.693 301.47 547.33 300.962 546.852C300.455 546.358 300.048 545.742 299.744 545.002C299.439 544.262 299.287 543.399 299.287 542.413V541.977C299.287 541.049 299.439 540.229 299.744 539.518C300.048 538.808 300.455 538.22 300.962 537.756C301.47 537.277 302.058 536.922 302.725 536.69C303.392 536.443 304.096 536.32 304.836 536.32C305.576 536.32 306.279 536.443 306.946 536.69C307.614 536.922 308.201 537.277 308.709 537.756C309.217 538.22 309.623 538.808 309.928 539.518C310.232 540.229 310.385 541.049 310.385 541.977V542.413C310.385 543.399 310.232 544.262 309.928 545.002C309.623 545.742 309.217 546.358 308.709 546.852C308.201 547.33 307.614 547.693 306.946 547.94C306.279 548.172 305.576 548.288 304.836 548.288ZM304.836 546.547C305.271 546.547 305.706 546.475 306.141 546.329C306.577 546.17 306.961 545.931 307.295 545.611C307.628 545.278 307.897 544.85 308.1 544.328C308.317 543.805 308.426 543.167 308.426 542.413V541.977C308.426 541.281 308.317 540.686 308.1 540.193C307.897 539.7 307.628 539.294 307.295 538.974C306.961 538.655 306.577 538.423 306.141 538.278C305.706 538.133 305.271 538.061 304.836 538.061C304.4 538.061 303.965 538.133 303.53 538.278C303.095 538.423 302.71 538.655 302.377 538.974C302.043 539.294 301.767 539.7 301.55 540.193C301.347 540.686 301.245 541.281 301.245 541.977V542.413C301.245 543.167 301.347 543.805 301.55 544.328C301.767 544.85 302.043 545.278 302.377 545.611C302.71 545.931 303.095 546.17 303.53 546.329C303.965 546.475 304.4 546.547 304.836 546.547ZM313.096 536.537H318.101C319.523 536.537 320.567 536.835 321.234 537.43C321.902 538.01 322.235 538.764 322.235 539.693C322.235 539.939 322.192 540.193 322.105 540.454C322.018 540.701 321.895 540.933 321.735 541.151C321.59 541.368 321.409 541.557 321.191 541.716C320.988 541.876 320.756 541.999 320.495 542.086C321.205 542.26 321.742 542.594 322.105 543.087C322.482 543.566 322.671 544.132 322.671 544.784C322.671 545.785 322.337 546.583 321.67 547.178C321.002 547.773 319.958 548.07 318.536 548.07H313.096V536.537ZM318.536 546.373C319.349 546.373 319.922 546.228 320.255 545.938C320.589 545.648 320.756 545.234 320.756 544.697C320.756 544.146 320.589 543.725 320.255 543.435C319.922 543.131 319.349 542.978 318.536 542.978H315.011V546.373H318.536ZM318.101 541.412C318.928 541.412 319.501 541.267 319.82 540.976C320.154 540.686 320.321 540.287 320.321 539.78C320.321 539.301 320.154 538.924 319.82 538.648C319.501 538.372 318.928 538.235 318.101 538.235H315.011V541.412H318.101ZM330.187 548.288C329.447 548.288 328.744 548.172 328.077 547.94C327.409 547.708 326.822 547.352 326.314 546.873C325.806 546.38 325.4 545.764 325.095 545.024C324.791 544.284 324.638 543.414 324.638 542.413V541.977C324.638 541.02 324.784 540.193 325.074 539.497C325.364 538.786 325.748 538.198 326.227 537.734C326.72 537.255 327.286 536.9 327.924 536.668C328.577 536.436 329.259 536.32 329.97 536.32C331.667 536.32 332.98 536.784 333.908 537.712C334.837 538.641 335.301 539.954 335.301 541.651V542.87H326.553C326.553 543.551 326.662 544.124 326.88 544.589C327.097 545.053 327.38 545.43 327.728 545.72C328.077 546.01 328.461 546.221 328.882 546.351C329.317 546.482 329.752 546.547 330.187 546.547C331.058 546.547 331.725 546.402 332.189 546.112C332.668 545.822 333.009 545.423 333.212 544.915H335.083C334.967 545.466 334.757 545.952 334.452 546.373C334.162 546.794 333.8 547.149 333.364 547.439C332.944 547.715 332.458 547.925 331.906 548.07C331.37 548.215 330.797 548.288 330.187 548.288ZM330.079 538.061C329.629 538.061 329.194 538.126 328.773 538.256C328.352 538.372 327.975 538.568 327.641 538.844C327.322 539.105 327.061 539.439 326.858 539.845C326.655 540.251 326.553 540.737 326.553 541.303H333.495C333.48 540.708 333.379 540.208 333.19 539.801C333.016 539.381 332.777 539.047 332.472 538.8C332.168 538.539 331.805 538.351 331.384 538.235C330.978 538.119 330.543 538.061 330.079 538.061ZM338.023 536.537H339.938V541.346H345.9V536.537H347.815V548.07H345.9V543.044H339.938V548.07H338.023V536.537ZM351.304 536.537H353.219V540.889H355.983C357.433 540.889 358.5 541.209 359.181 541.847C359.878 542.485 360.226 543.37 360.226 544.502C360.226 545.604 359.878 546.475 359.181 547.113C358.5 547.751 357.433 548.07 355.983 548.07H351.304V536.537ZM355.874 546.373C356.773 546.373 357.404 546.213 357.767 545.894C358.13 545.575 358.311 545.104 358.311 544.48C358.311 543.856 358.13 543.385 357.767 543.065C357.404 542.746 356.773 542.587 355.874 542.587H353.219V546.373H355.874Z" fill="black"/>
<rect x="100" y="512.57" width="309" height="54" stroke="#508C6D"/>
<path d="M254.5 626.76L263.16 611.76L245.84 611.76L254.5 626.76ZM253 566.57L253 613.26L256 613.26L256 566.57L253 566.57Z" fill="black"/>
<rect x="100" y="626.76" width="309" height="55" fill="#ABD4C1"/>
<path d="M149.814 661.824C148.697 661.824 147.696 661.664 146.811 661.345C145.926 661.026 145.179 660.576 144.57 659.996C143.961 659.401 143.489 658.698 143.156 657.885C142.836 657.059 142.677 656.145 142.677 655.144V654.708C142.677 653.824 142.836 652.997 143.156 652.228C143.489 651.459 143.961 650.799 144.57 650.248C145.179 649.696 145.926 649.261 146.811 648.942C147.696 648.623 148.697 648.463 149.814 648.463V646.875H151.86V648.463C152.977 648.463 153.978 648.623 154.863 648.942C155.748 649.261 156.495 649.696 157.104 650.248C157.713 650.799 158.177 651.459 158.497 652.228C158.83 652.997 158.997 653.824 158.997 654.708V655.144C158.997 656.145 158.83 657.059 158.497 657.885C158.177 658.698 157.713 659.401 157.104 659.996C156.495 660.576 155.748 661.026 154.863 661.345C153.978 661.664 152.977 661.824 151.86 661.824V663.413H149.814V661.824ZM156.821 654.708C156.821 654.085 156.712 653.504 156.495 652.968C156.277 652.431 155.958 651.967 155.537 651.575C155.117 651.169 154.594 650.857 153.97 650.639C153.361 650.407 152.658 650.291 151.86 650.291V659.996C152.658 659.996 153.361 659.88 153.97 659.648C154.594 659.416 155.117 659.09 155.537 658.669C155.958 658.248 156.277 657.74 156.495 657.146C156.712 656.551 156.821 655.883 156.821 655.144V654.708ZM144.853 655.144C144.853 655.883 144.962 656.551 145.179 657.146C145.397 657.74 145.716 658.248 146.137 658.669C146.557 659.09 147.072 659.416 147.682 659.648C148.306 659.88 149.016 659.996 149.814 659.996V650.291C149.016 650.291 148.306 650.407 147.682 650.639C147.072 650.857 146.557 651.169 146.137 651.575C145.716 651.967 145.397 652.431 145.179 652.968C144.962 653.504 144.853 654.085 144.853 654.708V655.144ZM161.942 651.227H163.857V659.931L169.82 651.227H171.735V662.76H169.82V654.056L163.857 662.76H161.942V651.227ZM179.141 662.977C177.69 662.977 176.551 662.673 175.724 662.063C174.897 661.454 174.441 660.598 174.353 659.496H176.268C176.37 660.061 176.667 660.497 177.161 660.801C177.668 661.091 178.328 661.237 179.141 661.237C180.142 661.237 180.867 661.07 181.317 660.736C181.781 660.388 182.013 659.974 182.013 659.496C182.013 658.93 181.825 658.487 181.447 658.168C181.07 657.835 180.417 657.668 179.489 657.668H177.509V656.101H179.358C180.156 656.101 180.722 655.949 181.056 655.644C181.404 655.339 181.578 654.912 181.578 654.36C181.578 653.925 181.375 653.548 180.969 653.229C180.562 652.91 179.953 652.75 179.141 652.75C178.256 652.75 177.61 652.895 177.204 653.185C176.812 653.461 176.573 653.86 176.486 654.382H174.571C174.615 653.903 174.745 653.461 174.963 653.055C175.195 652.634 175.507 652.271 175.898 651.967C176.29 651.662 176.754 651.43 177.291 651.27C177.842 651.096 178.459 651.009 179.141 651.009C179.881 651.009 180.519 651.096 181.056 651.27C181.607 651.43 182.064 651.662 182.427 651.967C182.789 652.257 183.058 652.605 183.232 653.011C183.406 653.417 183.493 653.867 183.493 654.36C183.493 654.912 183.355 655.398 183.079 655.818C182.804 656.224 182.361 656.544 181.752 656.776C182.564 656.993 183.13 657.341 183.449 657.82C183.768 658.299 183.928 658.857 183.928 659.496C183.928 659.974 183.826 660.424 183.623 660.845C183.42 661.266 183.116 661.635 182.709 661.955C182.318 662.259 181.817 662.506 181.208 662.694C180.613 662.883 179.924 662.977 179.141 662.977ZM186.657 651.227H188.571V659.931L194.534 651.227H196.449V662.76H194.534V654.056L188.571 662.76H186.657V651.227ZM206.618 658.168C206.285 658.371 205.879 658.553 205.4 658.712C204.936 658.872 204.348 658.952 203.637 658.952C202.97 658.952 202.368 658.879 201.831 658.734C201.309 658.589 200.866 658.357 200.504 658.038C200.141 657.719 199.866 657.305 199.677 656.797C199.488 656.29 199.394 655.666 199.394 654.926V651.227H201.309V654.6C201.309 655.093 201.352 655.506 201.44 655.84C201.541 656.174 201.701 656.442 201.918 656.645C202.136 656.848 202.411 656.993 202.745 657.08C203.079 657.167 203.485 657.211 203.964 657.211C204.617 657.211 205.175 657.146 205.639 657.015C206.103 656.884 206.43 656.747 206.618 656.602V651.227H208.533V662.76H206.618V658.168ZM216.796 662.977C216.056 662.977 215.352 662.861 214.685 662.629C214.017 662.397 213.43 662.042 212.922 661.563C212.414 661.07 212.008 660.453 211.704 659.713C211.399 658.973 211.247 658.103 211.247 657.102V656.667C211.247 655.709 211.392 654.883 211.682 654.186C211.972 653.475 212.356 652.888 212.835 652.424C213.328 651.945 213.894 651.589 214.532 651.357C215.185 651.125 215.867 651.009 216.578 651.009C218.275 651.009 219.588 651.473 220.517 652.402C221.445 653.33 221.909 654.643 221.909 656.34V657.559H213.162C213.162 658.241 213.27 658.814 213.488 659.278C213.706 659.742 213.988 660.12 214.337 660.41C214.685 660.7 215.069 660.91 215.49 661.041C215.925 661.171 216.36 661.237 216.796 661.237C217.666 661.237 218.333 661.091 218.797 660.801C219.276 660.511 219.617 660.112 219.82 659.605H221.692C221.576 660.156 221.365 660.642 221.061 661.062C220.77 661.483 220.408 661.839 219.973 662.129C219.552 662.404 219.066 662.615 218.515 662.76C217.978 662.905 217.405 662.977 216.796 662.977ZM216.687 652.75C216.237 652.75 215.802 652.815 215.381 652.946C214.96 653.062 214.583 653.258 214.25 653.533C213.93 653.795 213.669 654.128 213.466 654.534C213.263 654.941 213.162 655.427 213.162 655.992H220.103C220.089 655.398 219.987 654.897 219.798 654.491C219.624 654.07 219.385 653.736 219.08 653.49C218.776 653.229 218.413 653.04 217.992 652.924C217.586 652.808 217.151 652.75 216.687 652.75ZM229.092 662.977C228.352 662.977 227.663 662.861 227.025 662.629C226.386 662.383 225.835 662.02 225.371 661.541C224.907 661.048 224.537 660.431 224.261 659.692C224 658.952 223.869 658.089 223.869 657.102V656.667C223.869 655.738 224.014 654.919 224.305 654.208C224.595 653.497 224.979 652.91 225.458 652.445C225.937 651.967 226.488 651.611 227.112 651.379C227.75 651.132 228.41 651.009 229.092 651.009C229.774 651.009 230.383 651.103 230.92 651.292C231.471 651.481 231.942 651.742 232.334 652.075C232.74 652.409 233.067 652.801 233.313 653.25C233.574 653.7 233.763 654.186 233.879 654.708H231.921C231.805 654.433 231.667 654.179 231.507 653.947C231.362 653.7 231.174 653.49 230.941 653.316C230.724 653.142 230.463 653.004 230.158 652.902C229.853 652.801 229.498 652.75 229.092 652.75C228.671 652.75 228.265 652.83 227.873 652.989C227.482 653.134 227.133 653.367 226.829 653.686C226.524 653.99 226.277 654.389 226.089 654.883C225.915 655.376 225.828 655.971 225.828 656.667V657.102C225.828 657.842 225.915 658.48 226.089 659.017C226.277 659.539 226.524 659.967 226.829 660.301C227.133 660.62 227.482 660.859 227.873 661.019C228.265 661.164 228.671 661.237 229.092 661.237C229.803 661.237 230.397 661.062 230.876 660.714C231.369 660.366 231.718 659.887 231.921 659.278H233.879C233.603 660.424 233.038 661.331 232.182 661.998C231.326 662.651 230.296 662.977 229.092 662.977ZM236.489 651.227H238.404V656.058H239.927L244.235 651.227H246.498L241.494 656.754L246.716 662.76H244.279L239.927 657.711H238.404V662.76H236.489V651.227ZM249.005 651.227H250.92V659.931L256.882 651.227H258.797V662.76H256.882V654.056L250.92 662.76H249.005V651.227ZM262.287 651.227H264.201V659.931L270.164 651.227H272.079V662.76H270.164V654.056L264.201 662.76H262.287V651.227ZM267.183 649.812C266.051 649.812 265.224 649.573 264.702 649.094C264.18 648.601 263.919 647.897 263.919 646.984H265.79C265.79 647.97 266.254 648.463 267.183 648.463C268.14 648.463 268.619 647.97 268.619 646.984H270.447C270.447 647.897 270.186 648.601 269.663 649.094C269.141 649.573 268.314 649.812 267.183 649.812ZM282.531 667.329C282.314 667.329 282.096 667.308 281.879 667.264V665.523C282.096 665.567 282.314 665.589 282.531 665.589C282.749 665.589 282.938 665.552 283.097 665.48C283.257 665.407 283.409 665.269 283.554 665.066C283.699 664.863 283.851 664.573 284.011 664.196C284.185 663.833 284.381 663.355 284.599 662.76L279.702 651.227H281.835L285.578 660.584L288.972 651.227H291.018L286.666 662.76C286.361 663.572 286.071 664.268 285.795 664.849C285.52 665.429 285.222 665.901 284.903 666.263C284.599 666.64 284.258 666.909 283.88 667.068C283.503 667.242 283.054 667.329 282.531 667.329ZM293.185 651.227H294.969V653.403C295.361 652.634 295.905 652.046 296.601 651.64C297.312 651.22 298.131 651.009 299.06 651.009C300.511 651.009 301.671 651.488 302.541 652.445C303.412 653.388 303.847 654.795 303.847 656.667V657.102C303.847 658.089 303.731 658.952 303.499 659.692C303.267 660.417 302.94 661.026 302.52 661.519C302.099 661.998 301.591 662.361 300.997 662.607C300.416 662.854 299.771 662.977 299.06 662.977C298.073 662.977 297.246 662.76 296.579 662.325C295.926 661.889 295.433 661.345 295.099 660.693V667.112H293.185V651.227ZM298.625 661.28C299.089 661.28 299.524 661.193 299.93 661.019C300.336 660.83 300.685 660.562 300.975 660.214C301.279 659.866 301.511 659.43 301.671 658.908C301.845 658.386 301.932 657.784 301.932 657.102V656.667C301.932 656.043 301.845 655.485 301.671 654.991C301.511 654.498 301.279 654.085 300.975 653.751C300.685 653.403 300.336 653.142 299.93 652.968C299.524 652.794 299.089 652.706 298.625 652.706C298.102 652.706 297.624 652.794 297.188 652.968C296.753 653.127 296.383 653.359 296.079 653.664C295.774 653.954 295.535 654.302 295.361 654.708C295.186 655.115 295.099 655.55 295.099 656.014V657.755C295.099 658.277 295.186 658.756 295.361 659.191C295.535 659.626 295.774 659.996 296.079 660.301C296.383 660.605 296.753 660.845 297.188 661.019C297.624 661.193 298.102 661.28 298.625 661.28ZM311.36 662.977C310.62 662.977 309.916 662.861 309.249 662.629C308.581 662.383 307.994 662.02 307.486 661.541C306.978 661.048 306.572 660.431 306.268 659.692C305.963 658.952 305.811 658.089 305.811 657.102V656.667C305.811 655.738 305.963 654.919 306.268 654.208C306.572 653.497 306.978 652.91 307.486 652.445C307.994 651.967 308.581 651.611 309.249 651.379C309.916 651.132 310.62 651.009 311.36 651.009C312.099 651.009 312.803 651.132 313.47 651.379C314.138 651.611 314.725 651.967 315.233 652.445C315.741 652.91 316.147 653.497 316.451 654.208C316.756 654.919 316.908 655.738 316.908 656.667V657.102C316.908 658.089 316.756 658.952 316.451 659.692C316.147 660.431 315.741 661.048 315.233 661.541C314.725 662.02 314.138 662.383 313.47 662.629C312.803 662.861 312.099 662.977 311.36 662.977ZM311.36 661.237C311.795 661.237 312.23 661.164 312.665 661.019C313.1 660.859 313.485 660.62 313.818 660.301C314.152 659.967 314.42 659.539 314.624 659.017C314.841 658.495 314.95 657.856 314.95 657.102V656.667C314.95 655.971 314.841 655.376 314.624 654.883C314.42 654.389 314.152 653.983 313.818 653.664C313.485 653.345 313.1 653.113 312.665 652.968C312.23 652.823 311.795 652.75 311.36 652.75C310.924 652.75 310.489 652.823 310.054 652.968C309.619 653.113 309.234 653.345 308.901 653.664C308.567 653.983 308.291 654.389 308.074 654.883C307.871 655.376 307.769 655.971 307.769 656.667V657.102C307.769 657.856 307.871 658.495 308.074 659.017C308.291 659.539 308.567 659.967 308.901 660.301C309.234 660.62 309.619 660.859 310.054 661.019C310.489 661.164 310.924 661.237 311.36 661.237ZM319.62 651.227H324.625C326.047 651.227 327.091 651.524 327.758 652.119C328.426 652.699 328.759 653.454 328.759 654.382C328.759 654.629 328.716 654.883 328.629 655.144C328.542 655.39 328.418 655.622 328.259 655.84C328.114 656.058 327.932 656.246 327.715 656.406C327.512 656.565 327.28 656.689 327.018 656.776C327.729 656.95 328.266 657.283 328.629 657.777C329.006 658.255 329.195 658.821 329.195 659.474C329.195 660.475 328.861 661.273 328.194 661.868C327.526 662.462 326.482 662.76 325.06 662.76H319.62V651.227ZM325.06 661.062C325.872 661.062 326.445 660.917 326.779 660.627C327.113 660.337 327.28 659.924 327.28 659.387C327.28 658.836 327.113 658.415 326.779 658.125C326.445 657.82 325.872 657.668 325.06 657.668H321.535V661.062H325.06ZM324.625 656.101C325.452 656.101 326.025 655.956 326.344 655.666C326.678 655.376 326.844 654.977 326.844 654.469C326.844 653.99 326.678 653.613 326.344 653.338C326.025 653.062 325.452 652.924 324.625 652.924H321.535V656.101H324.625ZM336.711 662.977C335.971 662.977 335.268 662.861 334.6 662.629C333.933 662.397 333.346 662.042 332.838 661.563C332.33 661.07 331.924 660.453 331.619 659.713C331.315 658.973 331.162 658.103 331.162 657.102V656.667C331.162 655.709 331.307 654.883 331.598 654.186C331.888 653.475 332.272 652.888 332.751 652.424C333.244 651.945 333.81 651.589 334.448 651.357C335.101 651.125 335.783 651.009 336.494 651.009C338.191 651.009 339.504 651.473 340.432 652.402C341.361 653.33 341.825 654.643 341.825 656.34V657.559H333.077C333.077 658.241 333.186 658.814 333.404 659.278C333.621 659.742 333.904 660.12 334.252 660.41C334.6 660.7 334.985 660.91 335.406 661.041C335.841 661.171 336.276 661.237 336.711 661.237C337.582 661.237 338.249 661.091 338.713 660.801C339.192 660.511 339.533 660.112 339.736 659.605H341.607C341.491 660.156 341.281 660.642 340.976 661.062C340.686 661.483 340.323 661.839 339.888 662.129C339.468 662.404 338.982 662.615 338.43 662.76C337.894 662.905 337.32 662.977 336.711 662.977ZM336.602 652.75C336.153 652.75 335.717 652.815 335.297 652.946C334.876 653.062 334.499 653.258 334.165 653.533C333.846 653.795 333.585 654.128 333.382 654.534C333.179 654.941 333.077 655.427 333.077 655.992H340.019C340.004 655.398 339.903 654.897 339.714 654.491C339.54 654.07 339.301 653.736 338.996 653.49C338.691 653.229 338.329 653.04 337.908 652.924C337.502 652.808 337.067 652.75 336.602 652.75ZM344.547 651.227H346.462V656.036H352.424V651.227H354.339V662.76H352.424V657.733H346.462V662.76H344.547V651.227ZM357.828 651.227H359.743V655.579H362.507C363.957 655.579 365.024 655.898 365.705 656.536C366.402 657.175 366.75 658.06 366.75 659.191C366.75 660.294 366.402 661.164 365.705 661.802C365.024 662.441 363.957 662.76 362.507 662.76H357.828V651.227ZM362.398 661.062C363.297 661.062 363.928 660.903 364.291 660.584C364.654 660.265 364.835 659.793 364.835 659.169C364.835 658.546 364.654 658.074 364.291 657.755C363.928 657.436 363.297 657.276 362.398 657.276H359.743V661.062H362.398Z" fill="black"/>
<rect x="100" y="626.76" width="309" height="55" stroke="#508C6D"/>
<path d="M439 156.953L534 156.953V166.953L439 166.953V156.953Z" fill="#FFBD6E"/>
<path d="M439 173.5L419 161.953L439 150.406V173.5Z" fill="#FFBD6E"/>
<rect x="532.5" y="129.5" width="181" height="64" fill="#FFF5EA"/>
<path d="M554.176 154.768H556.222V161.274H564.316V154.768H566.362V170H564.316V163.058H556.222V170H554.176V154.768ZM573.559 170.218C572.921 170.218 572.355 170.131 571.862 169.956C571.383 169.768 570.977 169.514 570.644 169.195C570.31 168.876 570.056 168.499 569.882 168.063C569.708 167.628 569.621 167.149 569.621 166.627C569.621 165.481 569.954 164.654 570.622 164.146C571.304 163.639 572.276 163.385 573.538 163.385H577.28V162.601C577.28 161.615 577.056 160.933 576.606 160.556C576.171 160.179 575.511 159.99 574.626 159.99C573.799 159.99 573.197 160.15 572.82 160.469C572.442 160.774 572.232 161.122 572.189 161.513H570.274C570.303 161.049 570.426 160.621 570.644 160.23C570.876 159.823 571.18 159.475 571.557 159.185C571.949 158.895 572.413 158.67 572.95 158.511C573.487 158.336 574.082 158.249 574.734 158.249C576.098 158.249 577.179 158.576 577.977 159.229C578.789 159.867 579.195 160.919 579.195 162.384V167.062C579.195 167.672 579.195 168.208 579.195 168.673C579.21 169.122 579.246 169.565 579.304 170H577.629C577.585 169.666 577.556 169.354 577.542 169.064C577.527 168.76 577.52 168.419 577.52 168.042C577.215 168.651 576.722 169.166 576.04 169.587C575.358 170.007 574.531 170.218 573.559 170.218ZM573.973 168.477C574.423 168.477 574.843 168.419 575.235 168.303C575.641 168.172 575.997 167.991 576.301 167.759C576.606 167.512 576.845 167.215 577.019 166.867C577.193 166.518 577.28 166.112 577.28 165.648V164.865H573.864C573.153 164.865 572.595 165.01 572.189 165.3C571.782 165.575 571.579 166.018 571.579 166.627C571.579 167.164 571.768 167.606 572.145 167.955C572.537 168.303 573.146 168.477 573.973 168.477ZM589.258 165.409C588.924 165.612 588.518 165.793 588.039 165.953C587.575 166.112 586.988 166.192 586.277 166.192C585.609 166.192 585.007 166.119 584.471 165.974C583.948 165.829 583.506 165.597 583.143 165.278C582.781 164.959 582.505 164.545 582.316 164.038C582.128 163.53 582.034 162.906 582.034 162.166V158.467H583.948V161.84C583.948 162.333 583.992 162.747 584.079 163.08C584.181 163.414 584.34 163.682 584.558 163.885C584.775 164.088 585.051 164.234 585.385 164.321C585.718 164.408 586.124 164.451 586.603 164.451C587.256 164.451 587.815 164.386 588.279 164.255C588.743 164.125 589.069 163.987 589.258 163.842V158.467H591.173V170H589.258V165.409ZM597.934 170.218C597.295 170.218 596.729 170.131 596.236 169.956C595.758 169.768 595.351 169.514 595.018 169.195C594.684 168.876 594.43 168.499 594.256 168.063C594.082 167.628 593.995 167.149 593.995 166.627C593.995 165.481 594.329 164.654 594.996 164.146C595.678 163.639 596.65 163.385 597.912 163.385H601.655V162.601C601.655 161.615 601.43 160.933 600.98 160.556C600.545 160.179 599.885 159.99 599 159.99C598.173 159.99 597.571 160.15 597.194 160.469C596.817 160.774 596.606 161.122 596.563 161.513H594.648C594.677 161.049 594.8 160.621 595.018 160.23C595.25 159.823 595.554 159.475 595.932 159.185C596.323 158.895 596.788 158.67 597.324 158.511C597.861 158.336 598.456 158.249 599.109 158.249C600.472 158.249 601.553 158.576 602.351 159.229C603.163 159.867 603.569 160.919 603.569 162.384V167.062C603.569 167.672 603.569 168.208 603.569 168.673C603.584 169.122 603.62 169.565 603.678 170H602.003C601.959 169.666 601.93 169.354 601.916 169.064C601.901 168.76 601.894 168.419 601.894 168.042C601.589 168.651 601.096 169.166 600.414 169.587C599.732 170.007 598.906 170.218 597.934 170.218ZM598.347 168.477C598.797 168.477 599.217 168.419 599.609 168.303C600.015 168.172 600.371 167.991 600.675 167.759C600.98 167.512 601.219 167.215 601.393 166.867C601.568 166.518 601.655 166.112 601.655 165.648V164.865H598.238C597.527 164.865 596.969 165.01 596.563 165.3C596.156 165.575 595.953 166.018 595.953 166.627C595.953 167.164 596.142 167.606 596.519 167.955C596.911 168.303 597.52 168.477 598.347 168.477ZM609.372 160.164H605.434V158.467H615.226V160.164H611.287V170H609.372V160.164ZM617.407 158.467H619.322V162.819H622.085C623.536 162.819 624.602 163.138 625.284 163.777C625.98 164.415 626.329 165.3 626.329 166.431C626.329 167.534 625.98 168.404 625.284 169.043C624.602 169.681 623.536 170 622.085 170H617.407V158.467ZM621.977 168.303C622.876 168.303 623.507 168.143 623.87 167.824C624.232 167.505 624.414 167.033 624.414 166.41C624.414 165.786 624.232 165.314 623.87 164.995C623.507 164.676 622.876 164.516 621.977 164.516H619.322V168.303H621.977ZM638.196 170.218C636.746 170.218 635.607 169.913 634.78 169.304C633.953 168.694 633.496 167.838 633.409 166.736H635.324C635.426 167.302 635.723 167.737 636.216 168.042C636.724 168.332 637.384 168.477 638.196 168.477C639.197 168.477 639.923 168.31 640.373 167.976C640.837 167.628 641.069 167.215 641.069 166.736C641.069 166.17 640.88 165.728 640.503 165.409C640.126 165.075 639.473 164.908 638.545 164.908H636.564V163.341H638.414C639.212 163.341 639.778 163.189 640.111 162.884C640.46 162.58 640.634 162.152 640.634 161.601C640.634 161.165 640.431 160.788 640.024 160.469C639.618 160.15 639.009 159.99 638.196 159.99C637.312 159.99 636.666 160.135 636.26 160.425C635.868 160.701 635.629 161.1 635.542 161.622H633.627C633.67 161.144 633.801 160.701 634.018 160.295C634.251 159.874 634.563 159.512 634.954 159.207C635.346 158.902 635.81 158.67 636.347 158.511C636.898 158.336 637.515 158.249 638.196 158.249C638.936 158.249 639.575 158.336 640.111 158.511C640.663 158.67 641.12 158.902 641.482 159.207C641.845 159.497 642.113 159.845 642.287 160.251C642.462 160.658 642.549 161.107 642.549 161.601C642.549 162.152 642.411 162.638 642.135 163.058C641.859 163.465 641.417 163.784 640.808 164.016C641.62 164.234 642.186 164.582 642.505 165.06C642.824 165.539 642.984 166.098 642.984 166.736C642.984 167.215 642.882 167.664 642.679 168.085C642.476 168.506 642.171 168.876 641.765 169.195C641.373 169.5 640.873 169.746 640.264 169.935C639.669 170.123 638.98 170.218 638.196 170.218ZM644.407 168.303H645.821C645.981 168.085 646.126 167.751 646.256 167.302C646.387 166.852 646.503 166.323 646.604 165.713C646.706 165.104 646.779 164.444 646.822 163.733C646.88 163.008 646.909 162.268 646.909 161.513V158.467H654.96V168.303H656.592V172.72H654.765V170H646.235V172.72H644.407V168.303ZM653.046 168.303V160.164H648.781V161.949C648.781 162.558 648.759 163.167 648.715 163.777C648.672 164.371 648.606 164.944 648.519 165.496C648.432 166.032 648.324 166.547 648.193 167.041C648.077 167.519 647.939 167.94 647.78 168.303H653.046ZM663.675 170.218C662.935 170.218 662.231 170.102 661.564 169.869C660.897 169.637 660.309 169.282 659.801 168.803C659.294 168.31 658.888 167.693 658.583 166.954C658.278 166.214 658.126 165.343 658.126 164.342V163.907C658.126 162.95 658.271 162.123 658.561 161.426C658.851 160.716 659.236 160.128 659.714 159.664C660.208 159.185 660.773 158.83 661.412 158.598C662.065 158.365 662.746 158.249 663.457 158.249C665.154 158.249 666.467 158.714 667.396 159.642C668.324 160.571 668.788 161.883 668.788 163.581V164.799H660.041C660.041 165.481 660.15 166.054 660.367 166.518C660.585 166.983 660.868 167.36 661.216 167.65C661.564 167.94 661.948 168.15 662.369 168.281C662.804 168.411 663.24 168.477 663.675 168.477C664.545 168.477 665.213 168.332 665.677 168.042C666.155 167.751 666.496 167.352 666.699 166.845H668.571C668.455 167.396 668.244 167.882 667.94 168.303C667.65 168.723 667.287 169.079 666.852 169.369C666.431 169.645 665.945 169.855 665.394 170C664.857 170.145 664.284 170.218 663.675 170.218ZM663.566 159.99C663.116 159.99 662.681 160.056 662.26 160.186C661.84 160.302 661.462 160.498 661.129 160.774C660.81 161.035 660.549 161.368 660.345 161.775C660.142 162.181 660.041 162.667 660.041 163.233H666.982C666.968 162.638 666.866 162.137 666.678 161.731C666.504 161.31 666.264 160.977 665.96 160.73C665.655 160.469 665.292 160.28 664.872 160.164C664.465 160.048 664.03 159.99 663.566 159.99ZM675.971 170.218C675.231 170.218 674.542 170.102 673.904 169.869C673.266 169.623 672.714 169.26 672.25 168.781C671.786 168.288 671.416 167.672 671.14 166.932C670.879 166.192 670.749 165.329 670.749 164.342V163.907C670.749 162.979 670.894 162.159 671.184 161.448C671.474 160.737 671.858 160.15 672.337 159.686C672.816 159.207 673.367 158.851 673.991 158.619C674.629 158.373 675.289 158.249 675.971 158.249C676.653 158.249 677.262 158.344 677.799 158.532C678.35 158.721 678.822 158.982 679.213 159.316C679.62 159.649 679.946 160.041 680.193 160.491C680.454 160.94 680.642 161.426 680.758 161.949H678.8C678.684 161.673 678.546 161.419 678.386 161.187C678.241 160.94 678.053 160.73 677.821 160.556C677.603 160.382 677.342 160.244 677.037 160.143C676.733 160.041 676.377 159.99 675.971 159.99C675.55 159.99 675.144 160.07 674.753 160.23C674.361 160.375 674.013 160.607 673.708 160.926C673.403 161.231 673.157 161.63 672.968 162.123C672.794 162.616 672.707 163.211 672.707 163.907V164.342C672.707 165.082 672.794 165.72 672.968 166.257C673.157 166.779 673.403 167.207 673.708 167.541C674.013 167.86 674.361 168.1 674.753 168.259C675.144 168.404 675.55 168.477 675.971 168.477C676.682 168.477 677.277 168.303 677.755 167.955C678.249 167.606 678.597 167.128 678.8 166.518H680.758C680.483 167.664 679.917 168.571 679.061 169.238C678.205 169.891 677.175 170.218 675.971 170.218ZM683.368 158.467H685.283V162.819H688.046C689.497 162.819 690.563 163.138 691.245 163.777C691.941 164.415 692.29 165.3 692.29 166.431C692.29 167.534 691.941 168.404 691.245 169.043C690.563 169.681 689.497 170 688.046 170H683.368V158.467ZM687.938 168.303C688.837 168.303 689.468 168.143 689.831 167.824C690.193 167.505 690.375 167.033 690.375 166.41C690.375 165.786 690.193 165.314 689.831 164.995C689.468 164.676 688.837 164.516 687.938 164.516H685.283V168.303H687.938Z" fill="black"/>
<rect x="532.5" y="129.5" width="181" height="64" stroke="#FFBD6E"/>
</svg>
