<svg width="912" height="490" viewBox="0 0 912 490" fill="none" xmlns="http://www.w3.org/2000/svg">
<path d="M101.227 105.874V104.174H113.096V105.874H108.12V120H106.203V105.874H101.227ZM114.574 124.451V108.131H116.336V110.016H116.552C116.686 109.81 116.872 109.547 117.109 109.228C117.351 108.903 117.696 108.615 118.144 108.363C118.598 108.105 119.211 107.976 119.983 107.976C120.983 107.976 121.864 108.226 122.626 108.726C123.389 109.225 123.984 109.934 124.411 110.851C124.839 111.768 125.053 112.85 125.053 114.096C125.053 115.353 124.839 116.443 124.411 117.365C123.984 118.282 123.391 118.993 122.634 119.498C121.877 119.997 121.003 120.247 120.014 120.247C119.252 120.247 118.641 120.121 118.183 119.869C117.724 119.611 117.371 119.32 117.124 118.995C116.877 118.666 116.686 118.393 116.552 118.176H116.398V124.451H114.574ZM116.367 114.065C116.367 114.962 116.498 115.753 116.761 116.438C117.024 117.118 117.408 117.651 117.912 118.037C118.417 118.418 119.035 118.609 119.767 118.609C120.529 118.609 121.166 118.408 121.676 118.006C122.191 117.599 122.577 117.053 122.835 116.368C123.097 115.678 123.229 114.91 123.229 114.065C123.229 113.231 123.1 112.479 122.842 111.809C122.59 111.134 122.206 110.601 121.691 110.209C121.181 109.813 120.54 109.614 119.767 109.614C119.025 109.614 118.402 109.802 117.897 110.178C117.392 110.549 117.011 111.07 116.753 111.739C116.496 112.404 116.367 113.179 116.367 114.065ZM131.327 120.278C130.575 120.278 129.892 120.137 129.279 119.853C128.666 119.565 128.18 119.15 127.819 118.609C127.458 118.063 127.278 117.404 127.278 116.631C127.278 115.951 127.412 115.4 127.68 114.977C127.948 114.55 128.306 114.215 128.754 113.973C129.202 113.731 129.697 113.55 130.238 113.432C130.784 113.308 131.332 113.21 131.884 113.138C132.605 113.045 133.189 112.976 133.638 112.929C134.091 112.878 134.421 112.793 134.627 112.674C134.838 112.556 134.944 112.35 134.944 112.056V111.994C134.944 111.232 134.735 110.64 134.318 110.217C133.906 109.795 133.28 109.583 132.44 109.583C131.569 109.583 130.887 109.774 130.392 110.155C129.898 110.537 129.55 110.943 129.349 111.376L127.618 110.758C127.927 110.037 128.339 109.475 128.854 109.073C129.375 108.666 129.941 108.383 130.554 108.223C131.173 108.059 131.781 107.976 132.378 107.976C132.759 107.976 133.197 108.023 133.692 108.115C134.191 108.203 134.673 108.386 135.137 108.664C135.606 108.942 135.995 109.362 136.304 109.923C136.613 110.485 136.767 111.237 136.767 112.18V120H134.944V118.393H134.851C134.727 118.65 134.521 118.926 134.233 119.22C133.944 119.513 133.56 119.763 133.081 119.969C132.602 120.175 132.017 120.278 131.327 120.278ZM131.605 118.64C132.327 118.64 132.934 118.498 133.429 118.215C133.929 117.932 134.305 117.566 134.557 117.118C134.815 116.669 134.944 116.198 134.944 115.704V114.034C134.866 114.127 134.696 114.212 134.434 114.289C134.176 114.362 133.877 114.426 133.537 114.483C133.202 114.534 132.875 114.581 132.556 114.622C132.242 114.658 131.987 114.689 131.791 114.714C131.317 114.776 130.874 114.877 130.462 115.016C130.055 115.15 129.725 115.353 129.473 115.626C129.225 115.894 129.102 116.26 129.102 116.724C129.102 117.357 129.336 117.836 129.805 118.161C130.279 118.48 130.879 118.64 131.605 118.64ZM148.04 113.231V114.931H141.487V113.231H148.04ZM141.919 108.131V120H140.096V108.131H141.919ZM149.431 108.131V120H147.607V108.131H149.431ZM157.583 120.247C156.47 120.247 155.512 119.985 154.708 119.459C153.905 118.934 153.286 118.21 152.854 117.288C152.421 116.366 152.205 115.312 152.205 114.127C152.205 112.922 152.426 111.858 152.869 110.936C153.317 110.008 153.941 109.285 154.739 108.764C155.543 108.239 156.48 107.976 157.552 107.976C158.387 107.976 159.139 108.131 159.808 108.44C160.478 108.749 161.027 109.182 161.454 109.738C161.882 110.294 162.147 110.943 162.25 111.685H160.427C160.288 111.144 159.978 110.665 159.499 110.248C159.025 109.826 158.387 109.614 157.583 109.614C156.872 109.614 156.249 109.8 155.713 110.171C155.182 110.537 154.768 111.054 154.469 111.724C154.175 112.389 154.028 113.169 154.028 114.065C154.028 114.982 154.173 115.781 154.461 116.461C154.755 117.141 155.167 117.669 155.697 118.045C156.233 118.421 156.862 118.609 157.583 118.609C158.057 118.609 158.487 118.527 158.873 118.362C159.26 118.197 159.587 117.96 159.855 117.651C160.123 117.342 160.313 116.971 160.427 116.538H162.25C162.147 117.239 161.892 117.87 161.485 118.431C161.083 118.988 160.55 119.431 159.886 119.76C159.226 120.085 158.459 120.247 157.583 120.247ZM164.916 120V108.131H174.251V120H172.427V109.831H166.74V120H164.916ZM182.403 120.247C181.332 120.247 180.392 119.992 179.583 119.482C178.779 118.972 178.151 118.259 177.697 117.342C177.249 116.425 177.025 115.353 177.025 114.127C177.025 112.891 177.249 111.812 177.697 110.889C178.151 109.967 178.779 109.251 179.583 108.741C180.392 108.231 181.332 107.976 182.403 107.976C183.475 107.976 184.412 108.231 185.216 108.741C186.025 109.251 186.653 109.967 187.102 110.889C187.555 111.812 187.782 112.891 187.782 114.127C187.782 115.353 187.555 116.425 187.102 117.342C186.653 118.259 186.025 118.972 185.216 119.482C184.412 119.992 183.475 120.247 182.403 120.247ZM182.403 118.609C183.217 118.609 183.887 118.4 184.412 117.983C184.938 117.566 185.327 117.017 185.579 116.337C185.832 115.657 185.958 114.921 185.958 114.127C185.958 113.334 185.832 112.595 185.579 111.909C185.327 111.224 184.938 110.67 184.412 110.248C183.887 109.826 183.217 109.614 182.403 109.614C181.589 109.614 180.92 109.826 180.394 110.248C179.869 110.67 179.48 111.224 179.227 111.909C178.975 112.595 178.849 113.334 178.849 114.127C178.849 114.921 178.975 115.657 179.227 116.337C179.48 117.017 179.869 117.566 180.394 117.983C180.92 118.4 181.589 118.609 182.403 118.609ZM190.565 124.451V108.131H192.327V110.016H192.544C192.678 109.81 192.863 109.547 193.1 109.228C193.342 108.903 193.687 108.615 194.135 108.363C194.589 108.105 195.202 107.976 195.975 107.976C196.974 107.976 197.855 108.226 198.617 108.726C199.38 109.225 199.975 109.934 200.402 110.851C200.83 111.768 201.044 112.85 201.044 114.096C201.044 115.353 200.83 116.443 200.402 117.365C199.975 118.282 199.382 118.993 198.625 119.498C197.868 119.997 196.995 120.247 196.005 120.247C195.243 120.247 194.633 120.121 194.174 119.869C193.716 119.611 193.363 119.32 193.115 118.995C192.868 118.666 192.678 118.393 192.544 118.176H192.389V124.451H190.565ZM192.358 114.065C192.358 114.962 192.49 115.753 192.752 116.438C193.015 117.118 193.399 117.651 193.904 118.037C194.408 118.418 195.027 118.609 195.758 118.609C196.521 118.609 197.157 118.408 197.667 118.006C198.182 117.599 198.568 117.053 198.826 116.368C199.089 115.678 199.22 114.91 199.22 114.065C199.22 113.231 199.091 112.479 198.834 111.809C198.581 111.134 198.197 110.601 197.682 110.209C197.172 109.813 196.531 109.614 195.758 109.614C195.016 109.614 194.393 109.802 193.888 110.178C193.383 110.549 193.002 111.07 192.745 111.739C192.487 112.404 192.358 113.179 192.358 114.065ZM202.274 109.831V108.131H211.918V109.831H208.024V120H206.2V109.831H202.274ZM222.522 113.231V114.931H215.969V113.231H222.522ZM216.402 108.131V120H214.578V108.131H216.402ZM223.913 108.131V120H222.089V108.131H223.913ZM228.82 112.427H232.22C233.611 112.427 234.675 112.78 235.411 113.486C236.148 114.192 236.516 115.085 236.516 116.167C236.516 116.878 236.352 117.525 236.022 118.107C235.692 118.684 235.208 119.145 234.569 119.49C233.93 119.83 233.147 120 232.22 120H227.243V108.131H229.067V118.3H232.22C232.941 118.3 233.534 118.109 233.997 117.728C234.461 117.347 234.693 116.858 234.693 116.26C234.693 115.631 234.461 115.119 233.997 114.722C233.534 114.326 232.941 114.127 232.22 114.127H228.82V112.427ZM238.402 120V108.131H240.226V120H238.402ZM245.387 117.311L251.106 108.131H253.208V120H251.384V110.82L245.697 120H243.564V108.131H245.387V117.311ZM249.9 104.174H251.6C251.6 105.009 251.312 105.691 250.735 106.222C250.158 106.753 249.375 107.018 248.386 107.018C247.412 107.018 246.637 106.753 246.06 106.222C245.488 105.691 245.202 105.009 245.202 104.174H246.902C246.902 104.576 247.013 104.929 247.234 105.233C247.461 105.537 247.845 105.689 248.386 105.689C248.927 105.689 249.313 105.537 249.545 105.233C249.782 104.929 249.9 104.576 249.9 104.174ZM129.673 145V133.131H139.007V145H137.184V134.831H131.496V145H129.673ZM142.338 149.451V133.131H144.1V135.016H144.316C144.45 134.81 144.635 134.547 144.872 134.228C145.114 133.903 145.46 133.615 145.908 133.363C146.361 133.105 146.974 132.976 147.747 132.976C148.746 132.976 149.627 133.226 150.39 133.726C151.152 134.225 151.747 134.934 152.175 135.851C152.602 136.768 152.816 137.85 152.816 139.096C152.816 140.353 152.602 141.443 152.175 142.365C151.747 143.282 151.155 143.993 150.397 144.498C149.64 144.997 148.767 145.247 147.778 145.247C147.015 145.247 146.405 145.121 145.946 144.869C145.488 144.611 145.135 144.32 144.888 143.995C144.641 143.666 144.45 143.393 144.316 143.176H144.161V149.451H142.338ZM144.131 139.065C144.131 139.962 144.262 140.753 144.525 141.438C144.787 142.118 145.171 142.651 145.676 143.037C146.181 143.418 146.799 143.609 147.531 143.609C148.293 143.609 148.929 143.408 149.439 143.006C149.954 142.599 150.341 142.053 150.598 141.368C150.861 140.678 150.992 139.91 150.992 139.065C150.992 138.231 150.864 137.479 150.606 136.809C150.354 136.134 149.97 135.601 149.455 135.209C148.945 134.813 148.303 134.614 147.531 134.614C146.789 134.614 146.165 134.802 145.661 135.178C145.156 135.549 144.774 136.07 144.517 136.739C144.259 137.404 144.131 138.179 144.131 139.065ZM160.42 145.247C159.348 145.247 158.408 144.992 157.599 144.482C156.796 143.972 156.167 143.259 155.714 142.342C155.266 141.425 155.042 140.353 155.042 139.127C155.042 137.891 155.266 136.812 155.714 135.889C156.167 134.967 156.796 134.251 157.599 133.741C158.408 133.231 159.348 132.976 160.42 132.976C161.491 132.976 162.429 133.231 163.233 133.741C164.041 134.251 164.67 134.967 165.118 135.889C165.571 136.812 165.798 137.891 165.798 139.127C165.798 140.353 165.571 141.425 165.118 142.342C164.67 143.259 164.041 143.972 163.233 144.482C162.429 144.992 161.491 145.247 160.42 145.247ZM160.42 143.609C161.234 143.609 161.904 143.4 162.429 142.983C162.954 142.566 163.343 142.017 163.596 141.337C163.848 140.657 163.974 139.921 163.974 139.127C163.974 138.334 163.848 137.595 163.596 136.909C163.343 136.224 162.954 135.67 162.429 135.248C161.904 134.826 161.234 134.614 160.42 134.614C159.606 134.614 158.936 134.826 158.411 135.248C157.885 135.67 157.496 136.224 157.244 136.909C156.991 137.595 156.865 138.334 156.865 139.127C156.865 139.921 156.991 140.657 157.244 141.337C157.496 142.017 157.885 142.566 158.411 142.983C158.936 143.4 159.606 143.609 160.42 143.609ZM167.031 134.831V133.131H176.674V134.831H172.78V145H170.956V134.831H167.031ZM183.54 145.247C182.469 145.247 181.529 144.992 180.72 144.482C179.916 143.972 179.288 143.259 178.834 142.342C178.386 141.425 178.162 140.353 178.162 139.127C178.162 137.891 178.386 136.812 178.834 135.889C179.288 134.967 179.916 134.251 180.72 133.741C181.529 133.231 182.469 132.976 183.54 132.976C184.612 132.976 185.549 133.231 186.353 133.741C187.162 134.251 187.79 134.967 188.238 135.889C188.692 136.812 188.918 137.891 188.918 139.127C188.918 140.353 188.692 141.425 188.238 142.342C187.79 143.259 187.162 143.972 186.353 144.482C185.549 144.992 184.612 145.247 183.54 145.247ZM183.54 143.609C184.354 143.609 185.024 143.4 185.549 142.983C186.075 142.566 186.464 142.017 186.716 141.337C186.969 140.657 187.095 139.921 187.095 139.127C187.095 138.334 186.969 137.595 186.716 136.909C186.464 136.224 186.075 135.67 185.549 135.248C185.024 134.826 184.354 134.614 183.54 134.614C182.726 134.614 182.057 134.826 181.531 135.248C181.006 135.67 180.617 136.224 180.364 136.909C180.112 137.595 179.986 138.334 179.986 139.127C179.986 139.921 180.112 140.657 180.364 141.337C180.617 142.017 181.006 142.566 181.531 142.983C182.057 143.4 182.726 143.609 183.54 143.609ZM191.702 145V133.131H193.526V138.293H194.731L198.997 133.131H201.346L196.555 138.849L201.408 145H199.059L195.164 139.993H193.526V145H191.702ZM207.723 145.247C206.652 145.247 205.711 144.992 204.903 144.482C204.099 143.972 203.47 143.259 203.017 142.342C202.569 141.425 202.345 140.353 202.345 139.127C202.345 137.891 202.569 136.812 203.017 135.889C203.47 134.967 204.099 134.251 204.903 133.741C205.711 133.231 206.652 132.976 207.723 132.976C208.795 132.976 209.732 133.231 210.536 133.741C211.345 134.251 211.973 134.967 212.421 135.889C212.875 136.812 213.101 137.891 213.101 139.127C213.101 140.353 212.875 141.425 212.421 142.342C211.973 143.259 211.345 143.972 210.536 144.482C209.732 144.992 208.795 145.247 207.723 145.247ZM207.723 143.609C208.537 143.609 209.207 143.4 209.732 142.983C210.258 142.566 210.647 142.017 210.899 141.337C211.152 140.657 211.278 139.921 211.278 139.127C211.278 138.334 211.152 137.595 210.899 136.909C210.647 136.224 210.258 135.67 209.732 135.248C209.207 134.826 208.537 134.614 207.723 134.614C206.909 134.614 206.239 134.826 205.714 135.248C205.189 135.67 204.8 136.224 204.547 136.909C204.295 137.595 204.169 138.334 204.169 139.127C204.169 139.921 204.295 140.657 204.547 141.337C204.8 142.017 205.189 142.566 205.714 142.983C206.239 143.4 206.909 143.609 207.723 143.609ZM214.834 145V143.3H215.267C215.622 143.3 215.919 143.23 216.156 143.091C216.393 142.947 216.583 142.697 216.727 142.342C216.877 141.981 216.99 141.481 217.067 140.843C217.15 140.199 217.209 139.38 217.245 138.385L217.462 133.131H225.374V145H223.551V134.831H219.193L219.007 139.065C218.966 140.039 218.878 140.897 218.744 141.639C218.616 142.375 218.417 142.993 218.149 143.493C217.887 143.993 217.536 144.369 217.098 144.621C216.66 144.874 216.112 145 215.452 145H214.834Z" fill="black"/>
<path d="M227.562 384.461V368.635H229.478V375.683H237.916V368.635H239.833V384.461H237.916V377.383H229.478V384.461H227.562ZM248.399 384.708C247.255 384.708 246.268 384.456 245.439 383.951C244.615 383.441 243.979 382.73 243.53 381.818C243.087 380.901 242.866 379.835 242.866 378.619C242.866 377.403 243.087 376.332 243.53 375.404C243.979 374.472 244.602 373.746 245.4 373.225C246.204 372.7 247.142 372.437 248.213 372.437C248.831 372.437 249.442 372.54 250.045 372.746C250.647 372.952 251.196 373.287 251.691 373.751C252.185 374.209 252.579 374.817 252.873 375.574C253.166 376.332 253.313 377.264 253.313 378.372V379.144H244.164V377.568H251.459C251.459 376.898 251.325 376.301 251.057 375.775C250.794 375.25 250.418 374.835 249.929 374.531C249.444 374.227 248.873 374.075 248.213 374.075C247.487 374.075 246.858 374.256 246.328 374.616C245.802 374.972 245.398 375.435 245.115 376.007C244.831 376.579 244.689 377.192 244.689 377.846V378.897C244.689 379.794 244.844 380.553 245.153 381.177C245.467 381.795 245.903 382.266 246.459 382.591C247.015 382.91 247.662 383.07 248.399 383.07C248.878 383.07 249.31 383.003 249.697 382.869C250.088 382.73 250.426 382.524 250.709 382.251C250.992 381.973 251.211 381.628 251.366 381.215L253.128 381.71C252.942 382.308 252.631 382.833 252.193 383.286C251.755 383.735 251.214 384.085 250.57 384.337C249.926 384.585 249.202 384.708 248.399 384.708ZM260.909 384.708C259.797 384.708 258.838 384.445 258.035 383.92C257.231 383.395 256.613 382.671 256.18 381.749C255.747 380.826 255.531 379.773 255.531 378.588C255.531 377.383 255.753 376.319 256.196 375.397C256.644 374.469 257.267 373.746 258.066 373.225C258.869 372.7 259.807 372.437 260.878 372.437C261.713 372.437 262.465 372.592 263.135 372.901C263.804 373.21 264.353 373.643 264.781 374.199C265.208 374.755 265.474 375.404 265.577 376.146H263.753C263.614 375.605 263.305 375.126 262.826 374.709C262.352 374.287 261.713 374.075 260.909 374.075C260.198 374.075 259.575 374.261 259.039 374.632C258.509 374.997 258.094 375.515 257.795 376.185C257.502 376.849 257.355 377.63 257.355 378.526C257.355 379.443 257.499 380.242 257.787 380.922C258.081 381.602 258.493 382.13 259.024 382.506C259.56 382.882 260.188 383.07 260.909 383.07C261.383 383.07 261.813 382.988 262.2 382.823C262.586 382.658 262.913 382.421 263.181 382.112C263.449 381.803 263.64 381.432 263.753 380.999H265.577C265.474 381.7 265.219 382.331 264.812 382.892C264.41 383.449 263.877 383.892 263.212 384.221C262.553 384.546 261.785 384.708 260.909 384.708ZM269.417 388.912C269.108 388.912 268.832 388.886 268.59 388.835C268.348 388.788 268.181 388.742 268.088 388.696L268.552 387.088C268.995 387.202 269.386 387.243 269.726 387.212C270.066 387.181 270.368 387.029 270.63 386.756C270.898 386.488 271.143 386.053 271.364 385.45L271.704 384.523L267.315 372.592H269.294L272.57 382.05H272.694L275.97 372.592H277.948L272.91 386.192C272.683 386.805 272.403 387.312 272.068 387.714C271.733 388.121 271.344 388.423 270.901 388.618C270.463 388.814 269.968 388.912 269.417 388.912ZM296.552 382.761L296.336 387.861H294.45V384.461H292.905V382.761H296.552ZM280.355 372.592H282.179V382.761H286.661V372.592H288.485V382.761H292.966V372.592H294.79V384.461H280.355V372.592ZM301.028 381.772L306.746 372.592H308.848V384.461H307.024V375.281L301.337 384.461H299.204V372.592H301.028V381.772ZM314.012 381.772L319.73 372.592H321.832V384.461H320.008V375.281L314.321 384.461H312.188V372.592H314.012V381.772ZM318.525 368.635H320.225C320.225 369.47 319.936 370.152 319.359 370.683C318.782 371.214 317.999 371.479 317.01 371.479C316.037 371.479 315.261 371.214 314.684 370.683C314.112 370.152 313.827 369.47 313.827 368.635H315.527C315.527 369.037 315.637 369.39 315.859 369.694C316.085 369.998 316.469 370.15 317.01 370.15C317.551 370.15 317.937 369.998 318.169 369.694C318.406 369.39 318.525 369.037 318.525 368.635ZM331.292 384.461V372.592H340.627V384.461H338.803V374.292H333.116V384.461H331.292ZM343.958 388.912V372.592H345.719V374.477H345.936C346.07 374.271 346.255 374.008 346.492 373.689C346.734 373.364 347.079 373.076 347.528 372.823C347.981 372.566 348.594 372.437 349.367 372.437C350.366 372.437 351.247 372.687 352.01 373.187C352.772 373.686 353.367 374.395 353.795 375.312C354.222 376.229 354.436 377.311 354.436 378.557C354.436 379.814 354.222 380.904 353.795 381.826C353.367 382.743 352.775 383.454 352.017 383.959C351.26 384.458 350.387 384.708 349.398 384.708C348.635 384.708 348.025 384.582 347.566 384.33C347.108 384.072 346.755 383.781 346.508 383.456C346.26 383.127 346.07 382.854 345.936 382.637H345.781V388.912H343.958ZM345.75 378.526C345.75 379.423 345.882 380.213 346.144 380.899C346.407 381.579 346.791 382.112 347.296 382.498C347.801 382.879 348.419 383.07 349.15 383.07C349.913 383.07 350.549 382.869 351.059 382.467C351.574 382.06 351.961 381.514 352.218 380.829C352.481 380.139 352.612 379.371 352.612 378.526C352.612 377.692 352.483 376.94 352.226 376.27C351.973 375.595 351.59 375.062 351.074 374.67C350.564 374.274 349.923 374.075 349.15 374.075C348.409 374.075 347.785 374.263 347.28 374.639C346.775 375.01 346.394 375.531 346.137 376.2C345.879 376.865 345.75 377.64 345.75 378.526ZM362.04 384.708C360.968 384.708 360.028 384.453 359.219 383.943C358.416 383.433 357.787 382.72 357.334 381.803C356.885 380.886 356.661 379.814 356.661 378.588C356.661 377.352 356.885 376.272 357.334 375.35C357.787 374.428 358.416 373.712 359.219 373.202C360.028 372.692 360.968 372.437 362.04 372.437C363.111 372.437 364.049 372.692 364.852 373.202C365.661 373.712 366.29 374.428 366.738 375.35C367.191 376.272 367.418 377.352 367.418 378.588C367.418 379.814 367.191 380.886 366.738 381.803C366.29 382.72 365.661 383.433 364.852 383.943C364.049 384.453 363.111 384.708 362.04 384.708ZM362.04 383.07C362.854 383.07 363.523 382.861 364.049 382.444C364.574 382.027 364.963 381.478 365.216 380.798C365.468 380.118 365.594 379.381 365.594 378.588C365.594 377.795 365.468 377.056 365.216 376.37C364.963 375.685 364.574 375.131 364.049 374.709C363.523 374.287 362.854 374.075 362.04 374.075C361.226 374.075 360.556 374.287 360.031 374.709C359.505 375.131 359.116 375.685 358.864 376.37C358.611 377.056 358.485 377.795 358.485 378.588C358.485 379.381 358.611 380.118 358.864 380.798C359.116 381.478 359.505 382.027 360.031 382.444C360.556 382.861 361.226 383.07 362.04 383.07ZM368.65 374.292V372.592H378.294V374.292H374.4V384.461H372.576V374.292H368.65ZM385.16 384.708C384.089 384.708 383.148 384.453 382.34 383.943C381.536 383.433 380.907 382.72 380.454 381.803C380.006 380.886 379.782 379.814 379.782 378.588C379.782 377.352 380.006 376.272 380.454 375.35C380.907 374.428 381.536 373.712 382.34 373.202C383.148 372.692 384.089 372.437 385.16 372.437C386.232 372.437 387.169 372.692 387.973 373.202C388.782 373.712 389.41 374.428 389.858 375.35C390.312 376.272 390.538 377.352 390.538 378.588C390.538 379.814 390.312 380.886 389.858 381.803C389.41 382.72 388.782 383.433 387.973 383.943C387.169 384.453 386.232 384.708 385.16 384.708ZM385.16 383.07C385.974 383.07 386.644 382.861 387.169 382.444C387.695 382.027 388.084 381.478 388.336 380.798C388.588 380.118 388.715 379.381 388.715 378.588C388.715 377.795 388.588 377.056 388.336 376.37C388.084 375.685 387.695 375.131 387.169 374.709C386.644 374.287 385.974 374.075 385.16 374.075C384.346 374.075 383.676 374.287 383.151 374.709C382.625 375.131 382.237 375.685 381.984 376.37C381.732 377.056 381.605 377.795 381.605 378.588C381.605 379.381 381.732 380.118 381.984 380.798C382.237 381.478 382.625 382.027 383.151 382.444C383.676 382.861 384.346 383.07 385.16 383.07ZM393.322 384.461V372.592H395.146V377.754H396.351L400.617 372.592H402.966L398.175 378.31L403.028 384.461H400.679L396.784 379.454H395.146V384.461H393.322ZM409.343 384.708C408.271 384.708 407.331 384.453 406.522 383.943C405.719 383.433 405.09 382.72 404.637 381.803C404.189 380.886 403.965 379.814 403.965 378.588C403.965 377.352 404.189 376.272 404.637 375.35C405.09 374.428 405.719 373.712 406.522 373.202C407.331 372.692 408.271 372.437 409.343 372.437C410.414 372.437 411.352 372.692 412.156 373.202C412.965 373.712 413.593 374.428 414.041 375.35C414.495 376.272 414.721 377.352 414.721 378.588C414.721 379.814 414.495 380.886 414.041 381.803C413.593 382.72 412.965 383.433 412.156 383.943C411.352 384.453 410.414 384.708 409.343 384.708ZM409.343 383.07C410.157 383.07 410.827 382.861 411.352 382.444C411.878 382.027 412.266 381.478 412.519 380.798C412.771 380.118 412.898 379.381 412.898 378.588C412.898 377.795 412.771 377.056 412.519 376.37C412.266 375.685 411.878 375.131 411.352 374.709C410.827 374.287 410.157 374.075 409.343 374.075C408.529 374.075 407.859 374.287 407.334 374.709C406.808 375.131 406.419 375.685 406.167 376.37C405.915 377.056 405.788 377.795 405.788 378.588C405.788 379.381 405.915 380.118 406.167 380.798C406.419 381.478 406.808 382.027 407.334 382.444C407.859 382.861 408.529 383.07 409.343 383.07ZM416.454 384.461V382.761H416.887C417.242 382.761 417.538 382.691 417.775 382.552C418.012 382.408 418.203 382.158 418.347 381.803C418.497 381.442 418.61 380.942 418.687 380.304C418.77 379.66 418.829 378.841 418.865 377.846L419.081 372.592H426.994V384.461H425.171V374.292H420.812L420.627 378.526C420.586 379.5 420.498 380.358 420.364 381.1C420.235 381.836 420.037 382.454 419.769 382.954C419.506 383.454 419.156 383.83 418.718 384.082C418.28 384.335 417.732 384.461 417.072 384.461H416.454Z" fill="black"/>
<path d="M493.537 180.624H491.93L488.808 175.988V175.833H490.57L493.537 180.624ZM493.537 171.135L490.57 175.926H488.808V175.771L491.93 171.135H493.537ZM497.494 180.624H495.886L492.765 175.988V175.833H494.526L497.494 180.624ZM497.494 171.135L494.526 175.926H492.765V175.771L495.886 171.135H497.494ZM512.862 166.499V182.324H510.945V168.199H502.97V182.324H501.054V166.499H512.862ZM516.48 186.775V170.455H518.242V172.34H518.458C518.592 172.134 518.778 171.872 519.014 171.552C519.257 171.228 519.602 170.939 520.05 170.687C520.503 170.429 521.116 170.3 521.889 170.3C522.888 170.3 523.769 170.55 524.532 171.05C525.294 171.55 525.889 172.258 526.317 173.175C526.744 174.092 526.958 175.174 526.958 176.42C526.958 177.677 526.744 178.767 526.317 179.689C525.889 180.606 525.297 181.317 524.54 181.822C523.782 182.322 522.909 182.571 521.92 182.571C521.158 182.571 520.547 182.445 520.089 182.193C519.63 181.935 519.277 181.644 519.03 181.32C518.783 180.99 518.592 180.717 518.458 180.501H518.304V186.775H516.48ZM518.273 176.39C518.273 177.286 518.404 178.077 518.667 178.762C518.929 179.442 519.313 179.975 519.818 180.361C520.323 180.743 520.941 180.933 521.673 180.933C522.435 180.933 523.071 180.732 523.581 180.331C524.097 179.924 524.483 179.378 524.74 178.692C525.003 178.002 525.135 177.234 525.135 176.39C525.135 175.555 525.006 174.803 524.748 174.133C524.496 173.458 524.112 172.925 523.597 172.534C523.087 172.137 522.445 171.939 521.673 171.939C520.931 171.939 520.308 172.127 519.803 172.503C519.298 172.874 518.917 173.394 518.659 174.064C518.401 174.728 518.273 175.504 518.273 176.39ZM534.562 182.571C533.49 182.571 532.55 182.316 531.741 181.806C530.938 181.296 530.309 180.583 529.856 179.666C529.408 178.749 529.184 177.677 529.184 176.451C529.184 175.215 529.408 174.136 529.856 173.214C530.309 172.291 530.938 171.575 531.741 171.065C532.55 170.555 533.49 170.3 534.562 170.3C535.634 170.3 536.571 170.555 537.375 171.065C538.184 171.575 538.812 172.291 539.26 173.214C539.714 174.136 539.94 175.215 539.94 176.451C539.94 177.677 539.714 178.749 539.26 179.666C538.812 180.583 538.184 181.296 537.375 181.806C536.571 182.316 535.634 182.571 534.562 182.571ZM534.562 180.933C535.376 180.933 536.046 180.725 536.571 180.307C537.097 179.89 537.486 179.341 537.738 178.661C537.99 177.981 538.117 177.245 538.117 176.451C538.117 175.658 537.99 174.919 537.738 174.234C537.486 173.548 537.097 172.995 536.571 172.572C536.046 172.15 535.376 171.939 534.562 171.939C533.748 171.939 533.078 172.15 532.553 172.572C532.027 172.995 531.638 173.548 531.386 174.234C531.134 174.919 531.007 175.658 531.007 176.451C531.007 177.245 531.134 177.981 531.386 178.661C531.638 179.341 532.027 179.89 532.553 180.307C533.078 180.725 533.748 180.933 534.562 180.933ZM541.173 172.155V170.455H550.817V172.155H546.922V182.324H545.098V172.155H541.173ZM557.682 182.571C556.611 182.571 555.671 182.316 554.862 181.806C554.058 181.296 553.43 180.583 552.976 179.666C552.528 178.749 552.304 177.677 552.304 176.451C552.304 175.215 552.528 174.136 552.976 173.214C553.43 172.291 554.058 171.575 554.862 171.065C555.671 170.555 556.611 170.3 557.682 170.3C558.754 170.3 559.691 170.555 560.495 171.065C561.304 171.575 561.932 172.291 562.381 173.214C562.834 174.136 563.061 175.215 563.061 176.451C563.061 177.677 562.834 178.749 562.381 179.666C561.932 180.583 561.304 181.296 560.495 181.806C559.691 182.316 558.754 182.571 557.682 182.571ZM557.682 180.933C558.496 180.933 559.166 180.725 559.691 180.307C560.217 179.89 560.606 179.341 560.858 178.661C561.111 177.981 561.237 177.245 561.237 176.451C561.237 175.658 561.111 174.919 560.858 174.234C560.606 173.548 560.217 172.995 559.691 172.572C559.166 172.15 558.496 171.939 557.682 171.939C556.868 171.939 556.199 172.15 555.673 172.572C555.148 172.995 554.759 173.548 554.506 174.234C554.254 174.919 554.128 175.658 554.128 176.451C554.128 177.245 554.254 177.981 554.506 178.661C554.759 179.341 555.148 179.89 555.673 180.307C556.199 180.725 556.868 180.933 557.682 180.933ZM565.844 182.324V170.455H567.668V175.617H568.874L573.139 170.455H575.488L570.697 176.173L575.55 182.324H573.201L569.306 177.317H567.668V182.324H565.844ZM581.865 182.571C580.794 182.571 579.854 182.316 579.045 181.806C578.241 181.296 577.613 180.583 577.159 179.666C576.711 178.749 576.487 177.677 576.487 176.451C576.487 175.215 576.711 174.136 577.159 173.214C577.613 172.291 578.241 171.575 579.045 171.065C579.854 170.555 580.794 170.3 581.865 170.3C582.937 170.3 583.874 170.555 584.678 171.065C585.487 171.575 586.115 172.291 586.564 173.214C587.017 174.136 587.244 175.215 587.244 176.451C587.244 177.677 587.017 178.749 586.564 179.666C586.115 180.583 585.487 181.296 584.678 181.806C583.874 182.316 582.937 182.571 581.865 182.571ZM581.865 180.933C582.679 180.933 583.349 180.725 583.874 180.307C584.4 179.89 584.789 179.341 585.041 178.661C585.294 177.981 585.42 177.245 585.42 176.451C585.42 175.658 585.294 174.919 585.041 174.234C584.789 173.548 584.4 172.995 583.874 172.572C583.349 172.15 582.679 171.939 581.865 171.939C581.051 171.939 580.382 172.15 579.856 172.572C579.331 172.995 578.942 173.548 578.689 174.234C578.437 174.919 578.311 175.658 578.311 176.451C578.311 177.245 578.437 177.981 578.689 178.661C578.942 179.341 579.331 179.89 579.856 180.307C580.382 180.725 581.051 180.933 581.865 180.933ZM588.976 182.324V180.624H589.409C589.765 180.624 590.061 180.555 590.298 180.416C590.535 180.271 590.725 180.021 590.87 179.666C591.019 179.305 591.132 178.806 591.21 178.167C591.292 177.523 591.351 176.704 591.387 175.71L591.604 170.455H599.517V182.324H597.693V172.155H593.335L593.149 176.39C593.108 177.363 593.02 178.221 592.886 178.963C592.758 179.699 592.559 180.318 592.291 180.817C592.029 181.317 591.678 181.693 591.241 181.946C590.803 182.198 590.254 182.324 589.595 182.324H588.976ZM609.663 174.69V176.39H602.739V174.69H609.663ZM612.871 182.324V170.455H622.206V182.324H620.382V172.155H614.695V182.324H612.871ZM629.029 182.602C628.277 182.602 627.595 182.461 626.982 182.177C626.369 181.889 625.882 181.474 625.521 180.933C625.161 180.387 624.98 179.728 624.98 178.955C624.98 178.275 625.114 177.724 625.382 177.301C625.65 176.874 626.008 176.539 626.456 176.297C626.904 176.055 627.399 175.874 627.94 175.756C628.486 175.632 629.035 175.534 629.586 175.462C630.307 175.37 630.892 175.3 631.34 175.254C631.793 175.202 632.123 175.117 632.329 174.999C632.54 174.88 632.646 174.674 632.646 174.38V174.319C632.646 173.556 632.437 172.964 632.02 172.541C631.608 172.119 630.982 171.908 630.142 171.908C629.272 171.908 628.589 172.098 628.094 172.48C627.6 172.861 627.252 173.268 627.051 173.7L625.32 173.082C625.629 172.361 626.041 171.8 626.557 171.398C627.077 170.991 627.644 170.707 628.257 170.548C628.875 170.383 629.483 170.3 630.08 170.3C630.462 170.3 630.899 170.347 631.394 170.439C631.894 170.527 632.375 170.71 632.839 170.988C633.308 171.266 633.697 171.686 634.006 172.248C634.315 172.809 634.47 173.561 634.47 174.504V182.324H632.646V180.717H632.553C632.429 180.975 632.223 181.25 631.935 181.544C631.646 181.837 631.263 182.087 630.784 182.293C630.304 182.499 629.72 182.602 629.029 182.602ZM629.308 180.964C630.029 180.964 630.637 180.823 631.131 180.539C631.631 180.256 632.007 179.89 632.259 179.442C632.517 178.994 632.646 178.522 632.646 178.028V176.359C632.569 176.451 632.399 176.536 632.136 176.614C631.878 176.686 631.579 176.75 631.239 176.807C630.905 176.858 630.577 176.905 630.258 176.946C629.944 176.982 629.689 177.013 629.493 177.039C629.019 177.1 628.576 177.201 628.164 177.34C627.757 177.474 627.427 177.677 627.175 177.951C626.928 178.218 626.804 178.584 626.804 179.048C626.804 179.681 627.038 180.161 627.507 180.485C627.981 180.804 628.581 180.964 629.308 180.964ZM642.62 182.571C641.507 182.571 640.549 182.309 639.745 181.783C638.942 181.258 638.324 180.534 637.891 179.612C637.458 178.69 637.242 177.636 637.242 176.451C637.242 175.246 637.463 174.182 637.906 173.26C638.354 172.333 638.978 171.609 639.776 171.089C640.58 170.563 641.518 170.3 642.589 170.3C643.424 170.3 644.176 170.455 644.845 170.764C645.515 171.073 646.064 171.506 646.491 172.062C646.919 172.619 647.184 173.268 647.287 174.01H645.464C645.325 173.469 645.015 172.99 644.536 172.572C644.062 172.15 643.424 171.939 642.62 171.939C641.909 171.939 641.286 172.124 640.75 172.495C640.219 172.861 639.805 173.378 639.506 174.048C639.212 174.713 639.065 175.493 639.065 176.39C639.065 177.307 639.21 178.105 639.498 178.785C639.792 179.465 640.204 179.993 640.734 180.369C641.27 180.745 641.899 180.933 642.62 180.933C643.094 180.933 643.524 180.851 643.91 180.686C644.297 180.521 644.624 180.284 644.892 179.975C645.16 179.666 645.35 179.295 645.464 178.862H647.287C647.184 179.563 646.929 180.194 646.522 180.756C646.12 181.312 645.587 181.755 644.923 182.085C644.263 182.409 643.496 182.571 642.62 182.571ZM654.775 182.571C653.662 182.571 652.704 182.309 651.901 181.783C651.097 181.258 650.479 180.534 650.046 179.612C649.613 178.69 649.397 177.636 649.397 176.451C649.397 175.246 649.618 174.182 650.061 173.26C650.51 172.333 651.133 171.609 651.931 171.089C652.735 170.563 653.673 170.3 654.744 170.3C655.579 170.3 656.331 170.455 657.001 170.764C657.67 171.073 658.219 171.506 658.647 172.062C659.074 172.619 659.339 173.268 659.443 174.01H657.619C657.48 173.469 657.171 172.99 656.692 172.572C656.218 172.15 655.579 171.939 654.775 171.939C654.064 171.939 653.441 172.124 652.905 172.495C652.375 172.861 651.96 173.378 651.661 174.048C651.367 174.713 651.221 175.493 651.221 176.39C651.221 177.307 651.365 178.105 651.653 178.785C651.947 179.465 652.359 179.993 652.89 180.369C653.425 180.745 654.054 180.933 654.775 180.933C655.249 180.933 655.679 180.851 656.066 180.686C656.452 180.521 656.779 180.284 657.047 179.975C657.315 179.666 657.506 179.295 657.619 178.862H659.443C659.339 179.563 659.084 180.194 658.678 180.756C658.276 181.312 657.742 181.755 657.078 182.085C656.419 182.409 655.651 182.571 654.775 182.571ZM665.601 182.602C664.849 182.602 664.167 182.461 663.554 182.177C662.94 181.889 662.454 181.474 662.093 180.933C661.732 180.387 661.552 179.728 661.552 178.955C661.552 178.275 661.686 177.724 661.954 177.301C662.222 176.874 662.58 176.539 663.028 176.297C663.476 176.055 663.971 175.874 664.512 175.756C665.058 175.632 665.606 175.534 666.158 175.462C666.879 175.37 667.464 175.3 667.912 175.254C668.365 175.202 668.695 175.117 668.901 174.999C669.112 174.88 669.218 174.674 669.218 174.38V174.319C669.218 173.556 669.009 172.964 668.592 172.541C668.18 172.119 667.554 171.908 666.714 171.908C665.843 171.908 665.161 172.098 664.666 172.48C664.172 172.861 663.824 173.268 663.623 173.7L661.892 173.082C662.201 172.361 662.613 171.8 663.128 171.398C663.649 170.991 664.215 170.707 664.829 170.548C665.447 170.383 666.055 170.3 666.652 170.3C667.033 170.3 667.471 170.347 667.966 170.439C668.466 170.527 668.947 170.71 669.411 170.988C669.88 171.266 670.269 171.686 670.578 172.248C670.887 172.809 671.041 173.561 671.041 174.504V182.324H669.218V180.717H669.125C669.001 180.975 668.795 181.25 668.507 181.544C668.218 181.837 667.834 182.087 667.355 182.293C666.876 182.499 666.292 182.602 665.601 182.602ZM665.879 180.964C666.601 180.964 667.209 180.823 667.703 180.539C668.203 180.256 668.579 179.89 668.831 179.442C669.089 178.994 669.218 178.522 669.218 178.028V176.359C669.14 176.451 668.97 176.536 668.708 176.614C668.45 176.686 668.151 176.75 667.811 176.807C667.476 176.858 667.149 176.905 666.83 176.946C666.516 176.982 666.261 177.013 666.065 177.039C665.591 177.1 665.148 177.201 664.736 177.34C664.329 177.474 663.999 177.677 663.747 177.951C663.499 178.218 663.376 178.584 663.376 179.048C663.376 179.681 663.61 180.161 664.079 180.485C664.553 180.804 665.153 180.964 665.879 180.964ZM673.628 182.324L678.45 176.297L673.69 170.455H675.854L679.81 175.524H680.799V170.455H682.623V175.524H683.581L687.537 170.455H689.701L684.972 176.297L689.763 182.324H687.568L683.55 177.224H682.623V182.324H680.799V177.224H679.872L675.823 182.324H673.628ZM694.193 179.635L699.911 170.455H702.013V182.324H700.189V173.144L694.502 182.324H692.369V170.455H694.193V179.635ZM705.353 186.775V170.455H707.115V172.34H707.331C707.465 172.134 707.651 171.872 707.888 171.552C708.13 171.228 708.475 170.939 708.923 170.687C709.376 170.429 709.989 170.3 710.762 170.3C711.762 170.3 712.642 170.55 713.405 171.05C714.167 171.55 714.762 172.258 715.19 173.175C715.617 174.092 715.831 175.174 715.831 176.42C715.831 177.677 715.617 178.767 715.19 179.689C714.762 180.606 714.17 181.317 713.413 181.822C712.655 182.322 711.782 182.571 710.793 182.571C710.031 182.571 709.42 182.445 708.962 182.193C708.503 181.935 708.15 181.644 707.903 181.32C707.656 180.99 707.465 180.717 707.331 180.501H707.177V186.775H705.353ZM707.146 176.39C707.146 177.286 707.277 178.077 707.54 178.762C707.803 179.442 708.186 179.975 708.691 180.361C709.196 180.743 709.814 180.933 710.546 180.933C711.308 180.933 711.944 180.732 712.454 180.331C712.97 179.924 713.356 179.378 713.614 178.692C713.876 178.002 714.008 177.234 714.008 176.39C714.008 175.555 713.879 174.803 713.621 174.133C713.369 173.458 712.985 172.925 712.47 172.534C711.96 172.137 711.318 171.939 710.546 171.939C709.804 171.939 709.181 172.127 708.676 172.503C708.171 172.874 707.79 173.394 707.532 174.064C707.274 174.728 707.146 175.504 707.146 176.39ZM718.397 180.624L721.364 175.833H723.126V175.988L720.004 180.624H718.397ZM718.397 171.135H720.004L723.126 175.771V175.926H721.364L718.397 171.135ZM722.353 180.624L725.321 175.833H727.082V175.988L723.96 180.624H722.353ZM722.353 171.135H723.96L727.082 175.771V175.926H725.321L722.353 171.135Z" fill="black"/>
<rect x="108.848" y="224.23" width="140.6" height="65" fill="#ABCFF4"/>
<path d="M173.195 248.405V264.23H171.279V248.405H173.195ZM177.038 264.23V248.405H182.385C183.627 248.405 184.642 248.629 185.43 249.077C186.223 249.52 186.81 250.12 187.192 250.878C187.573 251.635 187.764 252.48 187.764 253.412C187.764 254.345 187.573 255.192 187.192 255.954C186.816 256.717 186.233 257.325 185.445 257.778C184.657 258.226 183.647 258.45 182.416 258.45H178.583V256.75H182.354C183.204 256.75 183.887 256.604 184.402 256.31C184.917 256.016 185.291 255.62 185.523 255.12C185.76 254.615 185.878 254.046 185.878 253.412C185.878 252.778 185.76 252.212 185.523 251.712C185.291 251.212 184.915 250.821 184.394 250.538C183.874 250.249 183.184 250.105 182.323 250.105H178.954V264.23H177.038Z" fill="black"/>
<rect x="108.848" y="224.23" width="140.6" height="65" stroke="black"/>
<rect x="249.447" y="224.23" width="140.6" height="65" fill="#ABCFF4"/>
<path d="M310.935 253.35C310.765 252.83 310.541 252.364 310.263 251.952C309.99 251.534 309.663 251.179 309.281 250.885C308.905 250.592 308.478 250.368 307.999 250.213C307.519 250.058 306.994 249.981 306.422 249.981C305.485 249.981 304.632 250.223 303.864 250.708C303.097 251.192 302.486 251.905 302.033 252.848C301.58 253.791 301.353 254.947 301.353 256.318C301.353 257.688 301.582 258.844 302.041 259.787C302.499 260.73 303.12 261.443 303.903 261.928C304.686 262.412 305.567 262.654 306.546 262.654C307.452 262.654 308.251 262.461 308.941 262.075C309.637 261.683 310.178 261.132 310.564 260.421C310.956 259.705 311.151 258.863 311.151 257.894L311.739 258.018H306.979V256.318H313.006V258.018C313.006 259.321 312.728 260.454 312.171 261.418C311.62 262.381 310.858 263.128 309.884 263.659C308.916 264.184 307.803 264.447 306.546 264.447C305.145 264.447 303.913 264.117 302.852 263.458C301.796 262.798 300.972 261.861 300.379 260.645C299.792 259.429 299.498 257.987 299.498 256.318C299.498 255.066 299.666 253.94 300.001 252.941C300.341 251.936 300.82 251.081 301.438 250.375C302.056 249.669 302.788 249.129 303.633 248.752C304.477 248.376 305.407 248.188 306.422 248.188C307.257 248.188 308.035 248.315 308.756 248.567C309.482 248.814 310.129 249.167 310.695 249.626C311.267 250.079 311.744 250.623 312.125 251.256C312.506 251.885 312.769 252.583 312.913 253.35H310.935ZM316.288 264.23V248.405H321.635C322.872 248.405 323.887 248.616 324.68 249.038C325.473 249.456 326.061 250.03 326.442 250.762C326.823 251.493 327.014 252.325 327.014 253.258C327.014 254.19 326.823 255.017 326.442 255.738C326.061 256.459 325.476 257.026 324.688 257.438C323.9 257.845 322.892 258.049 321.666 258.049H317.339V256.318H321.605C322.449 256.318 323.129 256.194 323.645 255.947C324.165 255.699 324.541 255.349 324.773 254.896C325.01 254.437 325.128 253.891 325.128 253.258C325.128 252.624 325.01 252.07 324.773 251.596C324.536 251.122 324.157 250.756 323.637 250.499C323.117 250.236 322.429 250.105 321.574 250.105H318.204V264.23H316.288ZM323.737 257.121L327.632 264.23H325.406L321.574 257.121H323.737ZM330.207 264.23V248.405H339.758V250.105H332.123V255.452H339.264V257.152H332.123V262.53H339.882V264.23H330.207Z" fill="black"/>
<rect x="249.447" y="224.23" width="140.6" height="65" stroke="black"/>
<rect x="390.047" y="224.23" width="140.6" height="65" fill="#FFF5D6"/>
<path d="M454.395 248.405V264.23H452.478V248.405H454.395ZM458.237 264.23V248.405H463.584C464.826 248.405 465.841 248.629 466.629 249.077C467.422 249.52 468.01 250.12 468.391 250.878C468.772 251.635 468.963 252.48 468.963 253.412C468.963 254.345 468.772 255.192 468.391 255.954C468.015 256.717 467.433 257.325 466.645 257.778C465.856 258.226 464.847 258.45 463.615 258.45H459.783V256.75H463.554C464.404 256.75 465.086 256.604 465.601 256.31C466.116 256.016 466.49 255.62 466.722 255.12C466.959 254.615 467.077 254.046 467.077 253.412C467.077 252.778 466.959 252.212 466.722 251.712C466.49 251.212 466.114 250.821 465.594 250.538C465.073 250.249 464.383 250.105 463.523 250.105H460.154V264.23H458.237Z" fill="black"/>
<rect x="390.047" y="224.23" width="140.6" height="65" stroke="black"/>
<rect x="530.648" y="224.23" width="140.6" height="65" fill="#FFF5D6"/>
<path d="M580.527 250.105V248.405H592.396V250.105H587.42V264.23H585.503V250.105H580.527ZM607.43 253.35H605.513C605.4 252.799 605.202 252.315 604.918 251.898C604.64 251.48 604.3 251.13 603.898 250.847C603.502 250.558 603.061 250.342 602.577 250.198C602.093 250.053 601.588 249.981 601.062 249.981C600.104 249.981 599.236 250.223 598.458 250.708C597.685 251.192 597.07 251.905 596.611 252.848C596.158 253.791 595.931 254.947 595.931 256.318C595.931 257.688 596.158 258.844 596.611 259.787C597.07 260.73 597.685 261.443 598.458 261.928C599.236 262.412 600.104 262.654 601.062 262.654C601.588 262.654 602.093 262.582 602.577 262.438C603.061 262.293 603.502 262.08 603.898 261.796C604.3 261.508 604.64 261.155 604.918 260.738C605.202 260.315 605.4 259.831 605.513 259.285H607.43C607.285 260.094 607.023 260.818 606.641 261.456C606.26 262.095 605.786 262.639 605.22 263.087C604.653 263.53 604.017 263.867 603.311 264.099C602.61 264.331 601.861 264.447 601.062 264.447C599.713 264.447 598.512 264.117 597.461 263.458C596.41 262.798 595.584 261.861 594.981 260.645C594.378 259.429 594.077 257.987 594.077 256.318C594.077 254.648 594.378 253.206 594.981 251.99C595.584 250.774 596.41 249.837 597.461 249.177C598.512 248.518 599.713 248.188 601.062 248.188C601.861 248.188 602.61 248.304 603.311 248.536C604.017 248.768 604.653 249.108 605.22 249.556C605.786 249.999 606.26 250.54 606.641 251.179C607.023 251.813 607.285 252.536 607.43 253.35ZM610.526 264.23V248.405H615.874C617.115 248.405 618.13 248.629 618.918 249.077C619.712 249.52 620.299 250.12 620.68 250.878C621.061 251.635 621.252 252.48 621.252 253.412C621.252 254.345 621.061 255.192 620.68 255.954C620.304 256.717 619.722 257.325 618.934 257.778C618.146 258.226 617.136 258.45 615.905 258.45H612.072V256.75H615.843C616.693 256.75 617.375 256.604 617.891 256.31C618.406 256.016 618.779 255.62 619.011 255.12C619.248 254.615 619.367 254.046 619.367 253.412C619.367 252.778 619.248 252.212 619.011 251.712C618.779 251.212 618.403 250.821 617.883 250.538C617.363 250.249 616.672 250.105 615.812 250.105H612.443V264.23H610.526Z" fill="black"/>
<rect x="530.648" y="224.23" width="140.6" height="65" stroke="black"/>
<rect x="671.248" y="224.23" width="140.6" height="65" fill="#FFF5D6"/>
<path d="M700.646 268.063V262.53H701.666C702.016 262.211 702.346 261.76 702.655 261.178C702.969 260.591 703.234 259.808 703.451 258.829C703.672 257.845 703.819 256.596 703.891 255.081L704.231 248.405H713.628V262.53H715.451V268.032H713.628V264.23H702.469V268.063H700.646ZM703.953 262.53H711.804V250.105H705.962L705.715 255.081C705.653 256.235 705.545 257.281 705.39 258.219C705.236 259.151 705.038 259.978 704.795 260.699C704.553 261.415 704.273 262.026 703.953 262.53ZM721.593 264.509C720.841 264.509 720.158 264.367 719.545 264.084C718.932 263.795 718.445 263.38 718.085 262.84C717.724 262.293 717.544 261.634 717.544 260.861C717.544 260.181 717.678 259.63 717.945 259.208C718.213 258.78 718.571 258.445 719.02 258.203C719.468 257.961 719.962 257.781 720.503 257.662C721.049 257.539 721.598 257.441 722.149 257.369C722.87 257.276 723.455 257.206 723.903 257.16C724.357 257.108 724.686 257.023 724.892 256.905C725.104 256.786 725.209 256.58 725.209 256.287V256.225C725.209 255.462 725.001 254.87 724.583 254.448C724.171 254.025 723.545 253.814 722.706 253.814C721.835 253.814 721.152 254.005 720.658 254.386C720.163 254.767 719.816 255.174 719.615 255.607L717.884 254.989C718.193 254.267 718.605 253.706 719.12 253.304C719.64 252.897 720.207 252.614 720.82 252.454C721.438 252.289 722.046 252.207 722.644 252.207C723.025 252.207 723.463 252.253 723.957 252.346C724.457 252.433 724.939 252.616 725.402 252.894C725.871 253.173 726.26 253.592 726.569 254.154C726.878 254.715 727.033 255.468 727.033 256.41V264.23H725.209V262.623H725.117C724.993 262.881 724.787 263.156 724.498 263.45C724.21 263.744 723.826 263.993 723.347 264.2C722.868 264.406 722.283 264.509 721.593 264.509ZM721.871 262.87C722.592 262.87 723.2 262.729 723.695 262.445C724.194 262.162 724.57 261.796 724.823 261.348C725.08 260.9 725.209 260.429 725.209 259.934V258.265C725.132 258.358 724.962 258.443 724.699 258.52C724.442 258.592 724.143 258.656 723.803 258.713C723.468 258.765 723.141 258.811 722.821 258.852C722.507 258.888 722.252 258.919 722.056 258.945C721.583 259.007 721.139 259.107 720.727 259.246C720.32 259.38 719.991 259.584 719.738 259.857C719.491 260.125 719.367 260.49 719.367 260.954C719.367 261.588 719.602 262.067 720.071 262.391C720.544 262.711 721.145 262.87 721.871 262.87ZM738.305 257.461V259.161H731.752V257.461H738.305ZM732.185 252.361V264.23H730.361V252.361H732.185ZM739.696 252.361V264.23H737.873V252.361H739.696ZM750.97 257.461V259.161H744.418V257.461H750.97ZM744.85 252.361V264.23H743.027V252.361H744.85ZM752.361 252.361V264.23H750.538V252.361H752.361ZM757.268 256.658H760.668C762.059 256.658 763.123 257.011 763.86 257.716C764.596 258.422 764.965 259.316 764.965 260.398C764.965 261.109 764.8 261.755 764.47 262.337C764.141 262.914 763.656 263.375 763.017 263.72C762.379 264.06 761.596 264.23 760.668 264.23H755.692V252.361H757.516V262.53H760.668C761.39 262.53 761.982 262.34 762.446 261.959C762.909 261.577 763.141 261.088 763.141 260.49C763.141 259.862 762.909 259.349 762.446 258.953C761.982 258.556 761.39 258.358 760.668 258.358H757.268V256.658ZM766.85 264.23V252.361H768.674V264.23H766.85ZM776.989 264.478C775.845 264.478 774.858 264.225 774.029 263.72C773.205 263.21 772.569 262.5 772.12 261.588C771.677 260.671 771.456 259.604 771.456 258.389C771.456 257.173 771.677 256.101 772.12 255.174C772.569 254.242 773.192 253.515 773.99 252.995C774.794 252.469 775.732 252.207 776.803 252.207C777.421 252.207 778.032 252.31 778.635 252.516C779.237 252.722 779.786 253.057 780.28 253.52C780.775 253.979 781.169 254.587 781.463 255.344C781.756 256.101 781.903 257.034 781.903 258.141V258.914H772.754V257.338H780.049C780.049 256.668 779.915 256.07 779.647 255.545C779.384 255.019 779.008 254.605 778.519 254.301C778.034 253.997 777.463 253.845 776.803 253.845C776.077 253.845 775.448 254.025 774.918 254.386C774.392 254.741 773.988 255.205 773.704 255.777C773.421 256.349 773.279 256.962 773.279 257.616V258.667C773.279 259.563 773.434 260.323 773.743 260.946C774.057 261.565 774.493 262.036 775.049 262.36C775.605 262.68 776.252 262.84 776.989 262.84C777.468 262.84 777.9 262.773 778.287 262.639C778.678 262.5 779.016 262.293 779.299 262.02C779.582 261.742 779.801 261.397 779.956 260.985L781.718 261.48C781.532 262.077 781.221 262.603 780.783 263.056C780.345 263.504 779.804 263.854 779.16 264.107C778.516 264.354 777.792 264.478 776.989 264.478Z" fill="black"/>
<rect x="671.248" y="224.23" width="140.6" height="65" stroke="black"/>
<path d="M332.395 319.23L332.395 350.23L322.395 350.23L322.395 319.23L332.395 319.23Z" fill="#FFBD6E"/>
<path d="M315.847 319.23L327.394 299.23L338.941 319.23L315.847 319.23Z" fill="#FFBD6E"/>
<path d="M172.527 196L172.527 165L182.527 165L182.527 196L172.527 196Z" fill="#FFBD6E"/>
<path d="M189.074 196L177.527 216L165.98 196L189.074 196Z" fill="#FFBD6E"/>
<path d="M419.848 194.23L399.848 205.777L419.848 217.324V194.23Z" fill="#FFBD6E"/>
<path d="M781.848 210.777L419.848 210.777V200.777L781.848 200.777V210.777Z" fill="#FFBD6E"/>
<path d="M781.848 194.23L801.848 205.777L781.848 217.324V194.23Z" fill="#FFBD6E"/>
</svg>
