<svg width="1320" height="526" viewBox="0 0 1320 526" fill="none" xmlns="http://www.w3.org/2000/svg">
<rect x="100.5" y="136.5" width="504" height="289" fill="#F1F7F5"/>
<path d="M313.408 164.807H310.047C309.951 164.256 309.775 163.768 309.517 163.342C309.259 162.911 308.939 162.546 308.556 162.246C308.172 161.947 307.735 161.722 307.244 161.572C306.759 161.417 306.234 161.339 305.671 161.339C304.671 161.339 303.784 161.59 303.012 162.094C302.239 162.591 301.634 163.322 301.197 164.286C300.759 165.244 300.541 166.415 300.541 167.799C300.541 169.207 300.759 170.393 301.197 171.357C301.64 172.316 302.245 173.041 303.012 173.532C303.784 174.017 304.668 174.26 305.662 174.26C306.213 174.26 306.729 174.188 307.208 174.044C307.693 173.894 308.127 173.675 308.511 173.388C308.9 173.1 309.227 172.747 309.49 172.328C309.76 171.908 309.945 171.429 310.047 170.89L313.408 170.908C313.282 171.783 313.009 172.603 312.59 173.37C312.177 174.137 311.635 174.814 310.964 175.401C310.293 175.982 309.508 176.437 308.61 176.766C307.711 177.09 306.714 177.252 305.617 177.252C304 177.252 302.557 176.877 301.287 176.128C300.017 175.38 299.016 174.298 298.286 172.885C297.555 171.471 297.189 169.776 297.189 167.799C297.189 165.816 297.558 164.121 298.295 162.714C299.031 161.3 300.035 160.219 301.305 159.47C302.574 158.721 304.012 158.347 305.617 158.347C306.642 158.347 307.594 158.49 308.475 158.778C309.355 159.066 310.14 159.488 310.829 160.045C311.518 160.596 312.084 161.273 312.527 162.076C312.976 162.872 313.27 163.783 313.408 164.807ZM322.427 177.27C321.043 177.27 319.848 176.982 318.841 176.407C317.841 175.826 317.071 175.005 316.532 173.945C315.993 172.879 315.724 171.624 315.724 170.18C315.724 168.761 315.993 167.515 316.532 166.442C317.077 165.364 317.838 164.526 318.814 163.927C319.791 163.322 320.938 163.019 322.256 163.019C323.106 163.019 323.909 163.157 324.664 163.432C325.425 163.702 326.095 164.121 326.677 164.69C327.264 165.259 327.725 165.984 328.06 166.865C328.396 167.739 328.563 168.782 328.563 169.992V170.989H317.251V168.797H325.446C325.44 168.174 325.305 167.619 325.041 167.134C324.778 166.643 324.409 166.257 323.936 165.975C323.469 165.694 322.924 165.553 322.301 165.553C321.636 165.553 321.052 165.715 320.549 166.038C320.045 166.356 319.653 166.775 319.372 167.296C319.096 167.811 318.955 168.377 318.949 168.994V170.908C318.949 171.711 319.096 172.4 319.39 172.975C319.683 173.544 320.093 173.981 320.621 174.286C321.148 174.586 321.765 174.736 322.471 174.736C322.945 174.736 323.373 174.67 323.756 174.538C324.14 174.4 324.472 174.2 324.754 173.936C325.035 173.672 325.248 173.346 325.392 172.957L328.429 173.298C328.237 174.101 327.872 174.802 327.332 175.401C326.799 175.994 326.116 176.455 325.284 176.784C324.451 177.108 323.499 177.27 322.427 177.27ZM331.315 182.175V163.199H334.514V165.481H334.703C334.87 165.146 335.107 164.789 335.412 164.412C335.718 164.028 336.131 163.702 336.652 163.432C337.173 163.157 337.838 163.019 338.647 163.019C339.713 163.019 340.675 163.292 341.531 163.837C342.394 164.376 343.077 165.175 343.58 166.236C344.089 167.29 344.344 168.584 344.344 170.117C344.344 171.633 344.095 172.921 343.598 173.981C343.101 175.041 342.424 175.85 341.567 176.407C340.711 176.964 339.74 177.243 338.656 177.243C337.865 177.243 337.209 177.111 336.688 176.847C336.167 176.584 335.748 176.266 335.43 175.895C335.119 175.517 334.876 175.161 334.703 174.826H334.568V182.175H331.315ZM334.505 170.099C334.505 170.992 334.631 171.774 334.882 172.445C335.14 173.115 335.508 173.64 335.987 174.017C336.473 174.388 337.06 174.574 337.749 174.574C338.467 174.574 339.069 174.382 339.555 173.999C340.04 173.61 340.405 173.079 340.651 172.409C340.902 171.732 341.028 170.962 341.028 170.099C341.028 169.243 340.905 168.482 340.66 167.817C340.414 167.152 340.049 166.631 339.564 166.254C339.078 165.876 338.473 165.688 337.749 165.688C337.054 165.688 336.464 165.87 335.978 166.236C335.493 166.601 335.125 167.113 334.873 167.772C334.628 168.431 334.505 169.207 334.505 170.099ZM347.129 177V163.199H352.925C354.56 163.199 355.851 163.525 356.797 164.178C357.75 164.831 358.226 165.742 358.226 166.91C358.226 167.682 357.956 168.314 357.417 168.805C356.884 169.291 356.156 169.617 355.234 169.785C355.959 169.845 356.594 170.027 357.139 170.333C357.69 170.638 358.121 171.04 358.432 171.537C358.744 172.034 358.9 172.606 358.9 173.253C358.9 174.014 358.699 174.676 358.298 175.239C357.902 175.796 357.324 176.23 356.564 176.542C355.809 176.847 354.892 177 353.814 177H347.129ZM350.175 174.439H353.814C354.413 174.439 354.883 174.298 355.225 174.017C355.566 173.729 355.737 173.34 355.737 172.849C355.737 172.28 355.566 171.834 355.225 171.51C354.883 171.181 354.413 171.016 353.814 171.016H350.175V174.439ZM350.175 168.913H352.987C353.431 168.913 353.811 168.85 354.129 168.725C354.446 168.593 354.689 168.41 354.856 168.177C355.024 167.937 355.108 167.652 355.108 167.323C355.108 166.85 354.913 166.478 354.524 166.209C354.141 165.939 353.607 165.804 352.925 165.804H350.175V168.913ZM367.694 177.27C366.31 177.27 365.115 176.982 364.109 176.407C363.109 175.826 362.339 175.005 361.8 173.945C361.261 172.879 360.991 171.624 360.991 170.18C360.991 168.761 361.261 167.515 361.8 166.442C362.345 165.364 363.106 164.526 364.082 163.927C365.058 163.322 366.205 163.019 367.523 163.019C368.374 163.019 369.177 163.157 369.931 163.432C370.692 163.702 371.363 164.121 371.944 164.69C372.531 165.259 372.992 165.984 373.328 166.865C373.663 167.739 373.831 168.782 373.831 169.992V170.989H362.518V168.797H370.713C370.707 168.174 370.572 167.619 370.309 167.134C370.045 166.643 369.677 166.257 369.203 165.975C368.736 165.694 368.191 165.553 367.568 165.553C366.903 165.553 366.319 165.715 365.816 166.038C365.313 166.356 364.921 166.775 364.639 167.296C364.363 167.811 364.223 168.377 364.217 168.994V170.908C364.217 171.711 364.363 172.4 364.657 172.975C364.95 173.544 365.361 173.981 365.888 174.286C366.415 174.586 367.032 174.736 367.739 174.736C368.212 174.736 368.64 174.67 369.024 174.538C369.407 174.4 369.74 174.2 370.021 173.936C370.303 173.672 370.515 173.346 370.659 172.957L373.696 173.298C373.504 174.101 373.139 174.802 372.6 175.401C372.067 175.994 371.384 176.455 370.551 176.784C369.719 177.108 368.766 177.27 367.694 177.27ZM376.583 182.175V163.199H379.781V165.481H379.97C380.138 165.146 380.374 164.789 380.68 164.412C380.985 164.028 381.399 163.702 381.92 163.432C382.441 163.157 383.106 163.019 383.915 163.019C384.981 163.019 385.942 163.292 386.799 163.837C387.661 164.376 388.344 165.175 388.847 166.236C389.357 167.29 389.611 168.584 389.611 170.117C389.611 171.633 389.363 172.921 388.865 173.981C388.368 175.041 387.691 175.85 386.835 176.407C385.978 176.964 385.008 177.243 383.923 177.243C383.133 177.243 382.477 177.111 381.956 176.847C381.435 176.584 381.015 176.266 380.698 175.895C380.386 175.517 380.144 175.161 379.97 174.826H379.835V182.175H376.583ZM379.772 170.099C379.772 170.992 379.898 171.774 380.15 172.445C380.407 173.115 380.776 173.64 381.255 174.017C381.74 174.388 382.327 174.574 383.016 174.574C383.735 174.574 384.337 174.382 384.822 173.999C385.307 173.61 385.673 173.079 385.918 172.409C386.17 171.732 386.296 170.962 386.296 170.099C386.296 169.243 386.173 168.482 385.927 167.817C385.682 167.152 385.316 166.631 384.831 166.254C384.346 165.876 383.741 165.688 383.016 165.688C382.321 165.688 381.731 165.87 381.246 166.236C380.761 166.601 380.392 167.113 380.141 167.772C379.895 168.431 379.772 169.207 379.772 170.099ZM406.121 158.598V177H402.788V161.842H402.68L398.376 164.591V161.536L402.95 158.598H406.121Z" fill="black"/>
<rect x="120" y="191" width="177" height="65" fill="#FBFCFC"/>
<path d="M156.19 223.087C156.19 224.792 155.871 226.253 155.232 227.469C154.599 228.679 153.733 229.606 152.636 230.25C151.544 230.894 150.305 231.216 148.919 231.216C147.533 231.216 146.292 230.894 145.194 230.25C144.102 229.601 143.237 228.671 142.598 227.461C141.964 226.245 141.647 224.787 141.647 223.087C141.647 221.382 141.964 219.924 142.598 218.713C143.237 217.498 144.102 216.568 145.194 215.924C146.292 215.28 147.533 214.958 148.919 214.958C150.305 214.958 151.544 215.28 152.636 215.924C153.733 216.568 154.599 217.498 155.232 218.713C155.871 219.924 156.19 221.382 156.19 223.087ZM153.308 223.087C153.308 221.887 153.12 220.875 152.744 220.05C152.373 219.221 151.858 218.595 151.198 218.173C150.539 217.745 149.779 217.531 148.919 217.531C148.059 217.531 147.299 217.745 146.639 218.173C145.98 218.595 145.462 219.221 145.086 220.05C144.715 220.875 144.53 221.887 144.53 223.087C144.53 224.287 144.715 225.302 145.086 226.132C145.462 226.956 145.98 227.582 146.639 228.009C147.299 228.432 148.059 228.643 148.919 228.643C149.779 228.643 150.539 228.432 151.198 228.009C151.858 227.582 152.373 226.956 152.744 226.132C153.12 225.302 153.308 224.287 153.308 223.087ZM172.447 220.514H169.557C169.474 220.04 169.322 219.62 169.101 219.254C168.879 218.883 168.604 218.569 168.274 218.312C167.944 218.054 167.568 217.861 167.146 217.732C166.729 217.598 166.278 217.531 165.794 217.531C164.933 217.531 164.171 217.748 163.506 218.18C162.842 218.608 162.321 219.236 161.945 220.066C161.569 220.89 161.381 221.897 161.381 223.087C161.381 224.298 161.569 225.318 161.945 226.147C162.327 226.971 162.847 227.595 163.506 228.017C164.171 228.435 164.931 228.643 165.786 228.643C166.26 228.643 166.703 228.581 167.115 228.458C167.532 228.329 167.906 228.141 168.235 227.894C168.57 227.646 168.851 227.342 169.078 226.982C169.31 226.621 169.469 226.209 169.557 225.745L172.447 225.761C172.339 226.513 172.104 227.219 171.744 227.878C171.388 228.538 170.922 229.12 170.345 229.625C169.768 230.124 169.093 230.516 168.32 230.799C167.548 231.077 166.69 231.216 165.747 231.216C164.356 231.216 163.115 230.894 162.023 230.25C160.93 229.606 160.07 228.677 159.442 227.461C158.813 226.245 158.499 224.787 158.499 223.087C158.499 221.382 158.816 219.924 159.449 218.713C160.083 217.498 160.946 216.568 162.038 215.924C163.13 215.28 164.367 214.958 165.747 214.958C166.628 214.958 167.447 215.082 168.205 215.329C168.962 215.576 169.637 215.939 170.229 216.418C170.822 216.892 171.308 217.474 171.69 218.165C172.076 218.85 172.328 219.633 172.447 220.514ZM183.8 231L179.334 215.174H182.417L185.269 226.804H185.415L188.46 215.174H191.265L194.317 226.812H194.456L197.308 215.174H200.391L195.925 231H193.096L189.928 219.896H189.805L186.629 231H183.8ZM202.255 231V219.131H205.053V231H202.255ZM203.662 217.446C203.219 217.446 202.837 217.299 202.518 217.006C202.199 216.707 202.039 216.349 202.039 215.932C202.039 215.509 202.199 215.151 202.518 214.857C202.837 214.559 203.219 214.409 203.662 214.409C204.11 214.409 204.491 214.559 204.805 214.857C205.125 215.151 205.284 215.509 205.284 215.932C205.284 216.349 205.125 216.707 204.805 217.006C204.491 217.299 204.11 217.446 203.662 217.446ZM210.726 224.045V231H207.929V219.131H210.603V221.148H210.742C211.015 220.483 211.45 219.955 212.048 219.563C212.651 219.172 213.395 218.976 214.281 218.976C215.1 218.976 215.814 219.151 216.422 219.502C217.035 219.852 217.509 220.359 217.843 221.024C218.183 221.688 218.351 222.495 218.346 223.443V231H215.548V223.875C215.548 223.082 215.342 222.461 214.93 222.013C214.523 221.565 213.959 221.341 213.238 221.341C212.748 221.341 212.313 221.449 211.932 221.665C211.556 221.877 211.26 222.183 211.043 222.585C210.832 222.987 210.726 223.474 210.726 224.045ZM225.594 231.209C224.662 231.209 223.827 230.969 223.09 230.49C222.354 230.011 221.771 229.315 221.344 228.404C220.916 227.492 220.703 226.384 220.703 225.081C220.703 223.762 220.919 222.649 221.352 221.743C221.79 220.831 222.379 220.143 223.121 219.679C223.863 219.211 224.69 218.976 225.602 218.976C226.297 218.976 226.869 219.095 227.317 219.332C227.765 219.563 228.121 219.844 228.384 220.174C228.646 220.498 228.85 220.805 228.994 221.093H229.11V215.174H231.915V231H229.164V229.13H228.994C228.85 229.418 228.641 229.725 228.368 230.05C228.095 230.369 227.734 230.642 227.286 230.869C226.838 231.095 226.274 231.209 225.594 231.209ZM226.374 228.914C226.967 228.914 227.472 228.754 227.889 228.435C228.306 228.11 228.623 227.659 228.839 227.082C229.056 226.505 229.164 225.833 229.164 225.065C229.164 224.298 229.056 223.631 228.839 223.064C228.628 222.497 228.314 222.057 227.897 221.743C227.485 221.428 226.977 221.271 226.374 221.271C225.751 221.271 225.231 221.433 224.813 221.758C224.396 222.083 224.082 222.531 223.871 223.103C223.66 223.674 223.554 224.329 223.554 225.065C223.554 225.807 223.66 226.469 223.871 227.051C224.087 227.628 224.404 228.084 224.821 228.419C225.244 228.749 225.761 228.914 226.374 228.914ZM240.073 231.232C238.914 231.232 237.909 230.977 237.059 230.467C236.209 229.957 235.55 229.243 235.081 228.326C234.618 227.409 234.386 226.338 234.386 225.112C234.386 223.886 234.618 222.812 235.081 221.889C235.55 220.967 236.209 220.251 237.059 219.741C237.909 219.231 238.914 218.976 240.073 218.976C241.232 218.976 242.237 219.231 243.087 219.741C243.937 220.251 244.594 220.967 245.057 221.889C245.526 222.812 245.761 223.886 245.761 225.112C245.761 226.338 245.526 227.409 245.057 228.326C244.594 229.243 243.937 229.957 243.087 230.467C242.237 230.977 241.232 231.232 240.073 231.232ZM240.089 228.991C240.717 228.991 241.243 228.818 241.665 228.473C242.087 228.123 242.402 227.654 242.608 227.067C242.819 226.479 242.925 225.825 242.925 225.104C242.925 224.378 242.819 223.721 242.608 223.134C242.402 222.541 242.087 222.07 241.665 221.719C241.243 221.369 240.717 221.194 240.089 221.194C239.445 221.194 238.909 221.369 238.481 221.719C238.059 222.07 237.742 222.541 237.531 223.134C237.325 223.721 237.222 224.378 237.222 225.104C237.222 225.825 237.325 226.479 237.531 227.067C237.742 227.654 238.059 228.123 238.481 228.473C238.909 228.818 239.445 228.991 240.089 228.991ZM250.244 231L246.891 219.131H249.742L251.828 227.476H251.937L254.069 219.131H256.89L259.023 227.43H259.139L261.194 219.131H264.053L260.692 231H257.779L255.553 222.979H255.391L253.165 231H250.244ZM275.387 222.268L272.837 222.546C272.765 222.289 272.639 222.047 272.459 221.82C272.284 221.593 272.047 221.41 271.748 221.271C271.449 221.132 271.083 221.063 270.65 221.063C270.068 221.063 269.579 221.189 269.182 221.441C268.791 221.694 268.598 222.021 268.603 222.423C268.598 222.768 268.724 223.049 268.981 223.265C269.244 223.481 269.677 223.659 270.28 223.798L272.304 224.231C273.427 224.473 274.262 224.857 274.808 225.382C275.359 225.908 275.637 226.595 275.642 227.445C275.637 228.192 275.418 228.852 274.986 229.424C274.558 229.99 273.963 230.433 273.201 230.753C272.438 231.072 271.562 231.232 270.573 231.232C269.12 231.232 267.951 230.928 267.065 230.32C266.179 229.707 265.651 228.854 265.481 227.762L268.209 227.499C268.332 228.035 268.595 228.44 268.997 228.713C269.399 228.986 269.922 229.122 270.565 229.122C271.23 229.122 271.763 228.986 272.165 228.713C272.572 228.44 272.776 228.102 272.776 227.7C272.776 227.36 272.644 227.08 272.381 226.858C272.124 226.637 271.722 226.467 271.176 226.348L269.151 225.923C268.013 225.686 267.171 225.287 266.625 224.725C266.078 224.159 265.808 223.443 265.813 222.577C265.808 221.846 266.006 221.212 266.408 220.676C266.815 220.135 267.379 219.718 268.1 219.424C268.827 219.126 269.664 218.976 270.612 218.976C272.003 218.976 273.097 219.272 273.896 219.865C274.7 220.457 275.197 221.258 275.387 222.268Z" fill="black"/>
<rect x="120" y="191" width="177" height="65" stroke="#58A982" stroke-width="2" stroke-dasharray="4 4"/>
<rect x="307" y="191" width="136" height="65" fill="#DBEEE5"/>
<path d="M343.123 223.087C343.123 224.792 342.803 226.253 342.164 227.469C341.531 228.679 340.665 229.606 339.568 230.25C338.476 230.894 337.237 231.216 335.851 231.216C334.465 231.216 333.224 230.894 332.126 230.25C331.034 229.601 330.169 228.671 329.53 227.461C328.896 226.245 328.58 224.787 328.58 223.087C328.58 221.382 328.896 219.924 329.53 218.713C330.169 217.498 331.034 216.568 332.126 215.924C333.224 215.28 334.465 214.958 335.851 214.958C337.237 214.958 338.476 215.28 339.568 215.924C340.665 216.568 341.531 217.498 342.164 218.713C342.803 219.924 343.123 221.382 343.123 223.087ZM340.24 223.087C340.24 221.887 340.052 220.875 339.676 220.05C339.305 219.221 338.79 218.595 338.131 218.173C337.471 217.745 336.711 217.531 335.851 217.531C334.991 217.531 334.231 217.745 333.571 218.173C332.912 218.595 332.394 219.221 332.018 220.05C331.647 220.875 331.462 221.887 331.462 223.087C331.462 224.287 331.647 225.302 332.018 226.132C332.394 226.956 332.912 227.582 333.571 228.009C334.231 228.432 334.991 228.643 335.851 228.643C336.711 228.643 337.471 228.432 338.131 228.009C338.79 227.582 339.305 226.956 339.676 226.132C340.052 225.302 340.24 224.287 340.24 223.087ZM359.379 220.514H356.489C356.407 220.04 356.255 219.62 356.033 219.254C355.812 218.883 355.536 218.569 355.206 218.312C354.877 218.054 354.501 217.861 354.078 217.732C353.661 217.598 353.21 217.531 352.726 217.531C351.865 217.531 351.103 217.748 350.438 218.18C349.774 218.608 349.254 219.236 348.878 220.066C348.501 220.89 348.313 221.897 348.313 223.087C348.313 224.298 348.501 225.318 348.878 226.147C349.259 226.971 349.779 227.595 350.438 228.017C351.103 228.435 351.863 228.643 352.718 228.643C353.192 228.643 353.635 228.581 354.047 228.458C354.464 228.329 354.838 228.141 355.168 227.894C355.502 227.646 355.783 227.342 356.01 226.982C356.242 226.621 356.401 226.209 356.489 225.745L359.379 225.761C359.271 226.513 359.036 227.219 358.676 227.878C358.32 228.538 357.854 229.12 357.277 229.625C356.7 230.124 356.025 230.516 355.253 230.799C354.48 231.077 353.622 231.216 352.679 231.216C351.288 231.216 350.047 230.894 348.955 230.25C347.863 229.606 347.002 228.677 346.374 227.461C345.745 226.245 345.431 224.787 345.431 223.087C345.431 221.382 345.748 219.924 346.382 218.713C347.015 217.498 347.878 216.568 348.97 215.924C350.062 215.28 351.299 214.958 352.679 214.958C353.56 214.958 354.379 215.082 355.137 215.329C355.894 215.576 356.569 215.939 357.161 216.418C357.754 216.892 358.241 217.474 358.622 218.165C359.008 218.85 359.261 219.633 359.379 220.514ZM367.402 231V215.174H370.269V228.597H377.239V231H367.402ZM379.604 231V219.131H382.401V231H379.604ZM381.01 217.446C380.567 217.446 380.186 217.299 379.866 217.006C379.547 216.707 379.387 216.349 379.387 215.932C379.387 215.509 379.547 215.151 379.866 214.857C380.186 214.559 380.567 214.409 381.01 214.409C381.458 214.409 381.839 214.559 382.154 214.857C382.473 215.151 382.633 215.509 382.633 215.932C382.633 216.349 382.473 216.707 382.154 217.006C381.839 217.299 381.458 217.446 381.01 217.446ZM388.075 224.045V231H385.277V219.131H387.951V221.148H388.09C388.363 220.483 388.799 219.955 389.396 219.563C389.999 219.172 390.743 218.976 391.629 218.976C392.448 218.976 393.162 219.151 393.77 219.502C394.383 219.852 394.857 220.359 395.192 221.024C395.532 221.688 395.699 222.495 395.694 223.443V231H392.897V223.875C392.897 223.082 392.691 222.461 392.278 222.013C391.871 221.565 391.307 221.341 390.586 221.341C390.097 221.341 389.661 221.449 389.28 221.665C388.904 221.877 388.608 222.183 388.392 222.585C388.18 222.987 388.075 223.474 388.075 224.045ZM406.103 226.008V219.131H408.9V231H406.188V228.89H406.064C405.796 229.555 405.356 230.098 404.743 230.521C404.135 230.943 403.385 231.155 402.494 231.155C401.716 231.155 401.028 230.982 400.431 230.637C399.838 230.287 399.375 229.779 399.04 229.115C398.705 228.445 398.538 227.636 398.538 226.688V219.131H401.335V226.255C401.335 227.008 401.541 227.605 401.953 228.048C402.365 228.491 402.906 228.713 403.576 228.713C403.988 228.713 404.387 228.612 404.774 228.411C405.16 228.21 405.477 227.912 405.724 227.515C405.977 227.113 406.103 226.611 406.103 226.008ZM414.064 219.131L416.459 223.512L418.894 219.131H421.853L418.275 225.065L421.915 231H418.971L416.459 226.727L413.971 231H411.004L414.62 225.065L411.097 219.131H414.064Z" fill="black"/>
<rect x="307" y="191" width="136" height="65" stroke="#58A982" stroke-width="2"/>
<rect x="453" y="191" width="132" height="65" fill="#DBEEE5"/>
<path d="M488.95 223.087C488.95 224.792 488.631 226.253 487.992 227.469C487.358 228.679 486.493 229.606 485.395 230.25C484.303 230.894 483.064 231.216 481.679 231.216C480.293 231.216 479.051 230.894 477.954 230.25C476.862 229.601 475.996 228.671 475.358 227.461C474.724 226.245 474.407 224.787 474.407 223.087C474.407 221.382 474.724 219.924 475.358 218.713C475.996 217.498 476.862 216.568 477.954 215.924C479.051 215.28 480.293 214.958 481.679 214.958C483.064 214.958 484.303 215.28 485.395 215.924C486.493 216.568 487.358 217.498 487.992 218.713C488.631 219.924 488.95 221.382 488.95 223.087ZM486.068 223.087C486.068 221.887 485.88 220.875 485.504 220.05C485.133 219.221 484.618 218.595 483.958 218.173C483.299 217.745 482.539 217.531 481.679 217.531C480.818 217.531 480.058 217.745 479.399 218.173C478.74 218.595 478.222 219.221 477.846 220.05C477.475 220.875 477.289 221.887 477.289 223.087C477.289 224.287 477.475 225.302 477.846 226.132C478.222 226.956 478.74 227.582 479.399 228.009C480.058 228.432 480.818 228.643 481.679 228.643C482.539 228.643 483.299 228.432 483.958 228.009C484.618 227.582 485.133 226.956 485.504 226.132C485.88 225.302 486.068 224.287 486.068 223.087ZM505.207 220.514H502.317C502.234 220.04 502.082 219.62 501.861 219.254C501.639 218.883 501.364 218.569 501.034 218.312C500.704 218.054 500.328 217.861 499.906 217.732C499.488 217.598 499.038 217.531 498.553 217.531C497.693 217.531 496.931 217.748 496.266 218.18C495.601 218.608 495.081 219.236 494.705 220.066C494.329 220.89 494.141 221.897 494.141 223.087C494.141 224.298 494.329 225.318 494.705 226.147C495.086 226.971 495.607 227.595 496.266 228.017C496.931 228.435 497.69 228.643 498.546 228.643C499.02 228.643 499.463 228.581 499.875 228.458C500.292 228.329 500.665 228.141 500.995 227.894C501.33 227.646 501.611 227.342 501.837 226.982C502.069 226.621 502.229 226.209 502.317 225.745L505.207 225.761C505.098 226.513 504.864 227.219 504.503 227.878C504.148 228.538 503.682 229.12 503.105 229.625C502.528 230.124 501.853 230.516 501.08 230.799C500.307 231.077 499.45 231.216 498.507 231.216C497.116 231.216 495.874 230.894 494.782 230.25C493.69 229.606 492.83 228.677 492.201 227.461C491.573 226.245 491.259 224.787 491.259 223.087C491.259 221.382 491.575 219.924 492.209 218.713C492.843 217.498 493.706 216.568 494.798 215.924C495.89 215.28 497.126 214.958 498.507 214.958C499.388 214.958 500.207 215.082 500.964 215.329C501.722 215.576 502.396 215.939 502.989 216.418C503.581 216.892 504.068 217.474 504.449 218.165C504.836 218.85 505.088 219.633 505.207 220.514ZM523.206 215.174H526.072V225.514C526.072 226.647 525.805 227.644 525.269 228.504C524.738 229.364 523.991 230.037 523.028 230.521C522.065 231 520.939 231.24 519.651 231.24C518.358 231.24 517.23 231 516.266 230.521C515.303 230.037 514.556 229.364 514.025 228.504C513.495 227.644 513.23 226.647 513.23 225.514V215.174H516.096V225.274C516.096 225.933 516.241 226.521 516.529 227.036C516.823 227.551 517.235 227.955 517.766 228.249C518.296 228.538 518.925 228.682 519.651 228.682C520.377 228.682 521.006 228.538 521.537 228.249C522.072 227.955 522.484 227.551 522.773 227.036C523.061 226.521 523.206 225.933 523.206 225.274V215.174ZM542.194 215.174V231H539.644L532.187 220.22H532.055V231H529.189V215.174H531.754L539.203 225.962H539.342V215.174H542.194ZM548.184 215.174V231H545.318V215.174H548.184ZM553.684 215.174L557.169 220.97H557.293L560.794 215.174H564.062L559.186 223.087L564.14 231H560.817L557.293 225.243H557.169L553.646 231H550.338L555.338 223.087L550.4 215.174H553.684Z" fill="black"/>
<rect x="453" y="191" width="132" height="65" stroke="#58A982" stroke-width="2"/>
<rect x="120" y="266" width="465" height="65" fill="#DBEEE5"/>
<path d="M292.486 290.174V292.578H285.176V306H282.309V290.174H292.486ZM296.251 302.214L301.004 294.131H303.878V306H301.174V297.909L296.437 306H293.554V294.131H296.251V302.214ZM306.751 306V294.131H316.773V306H314.076V296.426H309.425V306H306.751ZM324.904 306.232C323.714 306.232 322.687 305.985 321.821 305.49C320.961 304.99 320.299 304.285 319.835 303.373C319.372 302.456 319.14 301.376 319.14 300.135C319.14 298.914 319.372 297.842 319.835 296.92C320.304 295.993 320.958 295.272 321.798 294.757C322.638 294.236 323.624 293.976 324.758 293.976C325.489 293.976 326.18 294.095 326.829 294.332C327.483 294.563 328.06 294.924 328.56 295.413C329.064 295.903 329.461 296.526 329.75 297.283C330.038 298.036 330.182 298.932 330.182 299.973V300.83H320.454V298.945H327.501C327.496 298.409 327.38 297.933 327.153 297.515C326.927 297.093 326.61 296.761 326.203 296.518C325.801 296.276 325.332 296.155 324.796 296.155C324.224 296.155 323.722 296.294 323.289 296.573C322.857 296.846 322.519 297.206 322.277 297.654C322.04 298.097 321.919 298.584 321.914 299.115V300.761C321.914 301.451 322.04 302.044 322.293 302.538C322.545 303.028 322.898 303.404 323.351 303.666C323.805 303.924 324.335 304.053 324.943 304.053C325.35 304.053 325.718 303.996 326.048 303.883C326.378 303.764 326.664 303.592 326.906 303.365C327.148 303.138 327.331 302.858 327.455 302.523L330.066 302.816C329.902 303.507 329.587 304.109 329.124 304.625C328.665 305.135 328.078 305.531 327.362 305.815C326.646 306.093 325.827 306.232 324.904 306.232ZM332.549 310.451V294.131H335.3V296.093H335.462C335.606 295.805 335.81 295.498 336.073 295.174C336.335 294.844 336.691 294.563 337.139 294.332C337.587 294.095 338.159 293.976 338.854 293.976C339.771 293.976 340.598 294.211 341.335 294.679C342.077 295.143 342.664 295.831 343.097 296.743C343.535 297.649 343.754 298.762 343.754 300.081C343.754 301.384 343.54 302.492 343.112 303.404C342.685 304.315 342.102 305.011 341.366 305.49C340.629 305.969 339.795 306.209 338.862 306.209C338.182 306.209 337.618 306.095 337.17 305.869C336.722 305.642 336.361 305.369 336.088 305.05C335.82 304.725 335.611 304.418 335.462 304.13H335.346V310.451H332.549ZM335.292 300.065C335.292 300.833 335.4 301.505 335.617 302.082C335.838 302.659 336.155 303.11 336.567 303.435C336.984 303.754 337.489 303.914 338.082 303.914C338.7 303.914 339.218 303.749 339.635 303.419C340.052 303.084 340.366 302.628 340.578 302.051C340.794 301.469 340.902 300.807 340.902 300.065C340.902 299.329 340.797 298.674 340.585 298.103C340.374 297.531 340.06 297.083 339.643 296.758C339.225 296.433 338.705 296.271 338.082 296.271C337.484 296.271 336.977 296.428 336.559 296.743C336.142 297.057 335.825 297.497 335.609 298.064C335.398 298.631 335.292 299.298 335.292 300.065ZM346.149 306V294.131H351.133C352.54 294.131 353.65 294.411 354.464 294.973C355.283 295.535 355.692 296.318 355.692 297.322C355.692 297.987 355.461 298.53 354.997 298.953C354.538 299.37 353.913 299.651 353.119 299.795C353.742 299.846 354.289 300.004 354.757 300.266C355.231 300.529 355.602 300.874 355.87 301.302C356.138 301.729 356.272 302.221 356.272 302.778C356.272 303.432 356.099 304.001 355.754 304.485C355.414 304.965 354.917 305.338 354.263 305.606C353.614 305.869 352.826 306 351.898 306H346.149ZM348.769 303.798H351.898C352.413 303.798 352.818 303.677 353.111 303.435C353.405 303.187 353.552 302.852 353.552 302.43C353.552 301.941 353.405 301.557 353.111 301.279C352.818 300.995 352.413 300.854 351.898 300.854H348.769V303.798ZM348.769 299.045H351.187C351.569 299.045 351.896 298.991 352.169 298.883C352.442 298.77 352.65 298.613 352.795 298.412C352.939 298.206 353.011 297.961 353.011 297.678C353.011 297.271 352.844 296.951 352.509 296.719C352.179 296.488 351.72 296.372 351.133 296.372H348.769V299.045ZM361.277 302.214L366.03 294.131H368.904V306H366.2V297.909L361.463 306H358.58V294.131H361.277V302.214ZM371.12 302.747H373.894C373.92 303.19 374.118 303.532 374.489 303.775C374.86 304.017 375.342 304.138 375.934 304.138C376.537 304.138 377.044 304.006 377.457 303.744C377.874 303.476 378.083 303.071 378.083 302.53C378.083 302.211 378.003 301.93 377.843 301.688C377.683 301.441 377.459 301.25 377.171 301.116C376.882 300.982 376.542 300.915 376.151 300.915H374.335V298.929H376.151C376.733 298.929 377.173 298.795 377.472 298.528C377.776 298.26 377.928 297.922 377.928 297.515C377.928 297.077 377.768 296.722 377.449 296.449C377.135 296.176 376.699 296.039 376.143 296.039C375.587 296.039 375.123 296.166 374.752 296.418C374.386 296.67 374.196 296.995 374.18 297.392H371.421C371.432 296.701 371.638 296.101 372.04 295.591C372.447 295.081 372.993 294.685 373.678 294.401C374.368 294.118 375.146 293.976 376.012 293.976C376.939 293.976 377.74 294.115 378.415 294.393C379.09 294.672 379.61 295.061 379.976 295.56C380.341 296.055 380.524 296.637 380.524 297.307C380.524 297.951 380.323 298.484 379.922 298.906C379.52 299.324 378.979 299.622 378.299 299.803V299.926C378.768 299.952 379.19 300.086 379.566 300.328C379.942 300.565 380.241 300.887 380.463 301.294C380.684 301.701 380.795 302.172 380.795 302.708C380.795 303.435 380.586 304.063 380.169 304.594C379.752 305.119 379.177 305.523 378.446 305.807C377.719 306.09 376.887 306.232 375.95 306.232C375.038 306.232 374.221 306.095 373.5 305.822C372.784 305.544 372.215 305.145 371.792 304.625C371.37 304.104 371.146 303.478 371.12 302.747ZM388.174 306.232C387.015 306.232 386.011 305.977 385.161 305.467C384.311 304.957 383.651 304.243 383.183 303.326C382.719 302.409 382.487 301.338 382.487 300.112C382.487 298.886 382.719 297.812 383.183 296.889C383.651 295.967 384.311 295.251 385.161 294.741C386.011 294.231 387.015 293.976 388.174 293.976C389.334 293.976 390.338 294.231 391.188 294.741C392.038 295.251 392.695 295.967 393.159 296.889C393.627 297.812 393.862 298.886 393.862 300.112C393.862 301.338 393.627 302.409 393.159 303.326C392.695 304.243 392.038 304.957 391.188 305.467C390.338 305.977 389.334 306.232 388.174 306.232ZM388.19 303.991C388.818 303.991 389.344 303.818 389.766 303.473C390.189 303.123 390.503 302.654 390.709 302.067C390.92 301.479 391.026 300.825 391.026 300.104C391.026 299.378 390.92 298.721 390.709 298.134C390.503 297.541 390.189 297.07 389.766 296.719C389.344 296.369 388.818 296.194 388.19 296.194C387.546 296.194 387.01 296.369 386.583 296.719C386.16 297.07 385.843 297.541 385.632 298.134C385.426 298.721 385.323 299.378 385.323 300.104C385.323 300.825 385.426 301.479 385.632 302.067C385.843 302.654 386.16 303.123 386.583 303.473C387.01 303.818 387.546 303.991 388.19 303.991ZM396.236 310.451V294.131H398.987V296.093H399.149C399.294 295.805 399.497 295.498 399.76 295.174C400.023 294.844 400.378 294.563 400.826 294.332C401.274 294.095 401.846 293.976 402.542 293.976C403.459 293.976 404.285 294.211 405.022 294.679C405.764 295.143 406.351 295.831 406.784 296.743C407.222 297.649 407.441 298.762 407.441 300.081C407.441 301.384 407.227 302.492 406.799 303.404C406.372 304.315 405.79 305.011 405.053 305.49C404.316 305.969 403.482 306.209 402.549 306.209C401.869 306.209 401.305 306.095 400.857 305.869C400.409 305.642 400.048 305.369 399.775 305.05C399.507 304.725 399.299 304.418 399.149 304.13H399.033V310.451H396.236ZM398.979 300.065C398.979 300.833 399.088 301.505 399.304 302.082C399.525 302.659 399.842 303.11 400.254 303.435C400.672 303.754 401.176 303.914 401.769 303.914C402.387 303.914 402.905 303.749 403.322 303.419C403.739 303.084 404.054 302.628 404.265 302.051C404.481 301.469 404.589 300.807 404.589 300.065C404.589 299.329 404.484 298.674 404.273 298.103C404.061 297.531 403.747 297.083 403.33 296.758C402.913 296.433 402.392 296.271 401.769 296.271C401.171 296.271 400.664 296.428 400.247 296.743C399.829 297.057 399.513 297.497 399.296 298.064C399.085 298.631 398.979 299.298 398.979 300.065ZM421.64 290.174V306H418.773V292.964H418.68L414.979 295.328V292.701L418.912 290.174H421.64Z" fill="black"/>
<rect x="120" y="266" width="465" height="65" stroke="#58A982" stroke-width="2"/>
<rect x="120" y="341" width="465" height="65" fill="#DBEEE5"/>
<path d="M217.105 381H214.045L219.617 365.174H223.156L228.735 381H225.675L221.448 368.42H221.325L217.105 381ZM217.206 374.795H225.551V377.098H217.206V374.795ZM230.696 381V369.131H240.718V381H238.022V371.426H233.37V381H230.696ZM243.595 381V369.131H253.617V381H250.92V371.426H246.269V381H243.595ZM259.909 381.24C259.157 381.24 258.48 381.106 257.877 380.838C257.279 380.565 256.806 380.163 256.455 379.632C256.11 379.102 255.937 378.447 255.937 377.669C255.937 377 256.061 376.446 256.308 376.008C256.556 375.57 256.893 375.22 257.321 374.957C257.748 374.694 258.23 374.496 258.766 374.362C259.307 374.223 259.866 374.123 260.443 374.061C261.138 373.989 261.702 373.924 262.135 373.868C262.568 373.806 262.882 373.713 263.078 373.589C263.279 373.461 263.379 373.262 263.379 372.994V372.948C263.379 372.366 263.206 371.915 262.861 371.596C262.516 371.276 262.019 371.117 261.37 371.117C260.685 371.117 260.141 371.266 259.739 371.565C259.343 371.864 259.075 372.217 258.936 372.624L256.324 372.253C256.53 371.531 256.87 370.929 257.344 370.444C257.818 369.955 258.397 369.589 259.083 369.347C259.768 369.1 260.525 368.976 261.354 368.976C261.926 368.976 262.495 369.043 263.062 369.177C263.629 369.311 264.147 369.533 264.615 369.842C265.084 370.146 265.46 370.56 265.744 371.086C266.032 371.611 266.176 372.268 266.176 373.056V381H263.487V379.37H263.394C263.224 379.699 262.985 380.008 262.676 380.297C262.372 380.58 261.988 380.809 261.524 380.985C261.066 381.155 260.528 381.24 259.909 381.24ZM260.636 379.184C261.197 379.184 261.684 379.073 262.096 378.852C262.508 378.625 262.825 378.326 263.047 377.955C263.273 377.584 263.387 377.18 263.387 376.742V375.344C263.299 375.416 263.15 375.483 262.939 375.544C262.732 375.606 262.501 375.66 262.243 375.707C261.985 375.753 261.73 375.794 261.478 375.83C261.226 375.866 261.007 375.897 260.821 375.923C260.404 375.98 260.03 376.072 259.701 376.201C259.371 376.33 259.111 376.51 258.92 376.742C258.73 376.969 258.634 377.263 258.634 377.623C258.634 378.138 258.822 378.527 259.198 378.79C259.575 379.053 260.054 379.184 260.636 379.184ZM268.989 385.451V369.131H271.74V371.093H271.902C272.047 370.805 272.25 370.498 272.513 370.174C272.775 369.844 273.131 369.563 273.579 369.332C274.027 369.095 274.599 368.976 275.295 368.976C276.212 368.976 277.038 369.211 277.775 369.679C278.517 370.143 279.104 370.831 279.537 371.743C279.975 372.649 280.194 373.762 280.194 375.081C280.194 376.384 279.98 377.492 279.552 378.404C279.125 379.315 278.543 380.011 277.806 380.49C277.069 380.969 276.235 381.209 275.302 381.209C274.622 381.209 274.058 381.095 273.61 380.869C273.162 380.642 272.801 380.369 272.528 380.05C272.26 379.725 272.052 379.418 271.902 379.13H271.786V385.451H268.989ZM271.732 375.065C271.732 375.833 271.84 376.505 272.057 377.082C272.278 377.659 272.595 378.11 273.007 378.435C273.425 378.754 273.929 378.914 274.522 378.914C275.14 378.914 275.658 378.749 276.075 378.419C276.492 378.084 276.807 377.628 277.018 377.051C277.234 376.469 277.342 375.807 277.342 375.065C277.342 374.329 277.237 373.674 277.026 373.103C276.814 372.531 276.5 372.083 276.083 371.758C275.666 371.433 275.145 371.271 274.522 371.271C273.924 371.271 273.417 371.428 273 371.743C272.582 372.057 272.265 372.497 272.049 373.064C271.838 373.631 271.732 374.298 271.732 375.065ZM286.005 381.24C285.253 381.24 284.575 381.106 283.972 380.838C283.375 380.565 282.901 380.163 282.551 379.632C282.205 379.102 282.033 378.447 282.033 377.669C282.033 377 282.157 376.446 282.404 376.008C282.651 375.57 282.989 375.22 283.416 374.957C283.844 374.694 284.325 374.496 284.861 374.362C285.402 374.223 285.961 374.123 286.538 374.061C287.233 373.989 287.798 373.924 288.23 373.868C288.663 373.806 288.977 373.713 289.173 373.589C289.374 373.461 289.474 373.262 289.474 372.994V372.948C289.474 372.366 289.302 371.915 288.957 371.596C288.611 371.276 288.114 371.117 287.465 371.117C286.78 371.117 286.237 371.266 285.835 371.565C285.438 371.864 285.17 372.217 285.031 372.624L282.419 372.253C282.625 371.531 282.965 370.929 283.439 370.444C283.913 369.955 284.493 369.589 285.178 369.347C285.863 369.1 286.62 368.976 287.45 368.976C288.022 368.976 288.591 369.043 289.158 369.177C289.724 369.311 290.242 369.533 290.711 369.842C291.18 370.146 291.556 370.56 291.839 371.086C292.127 371.611 292.272 372.268 292.272 373.056V381H289.583V379.37H289.49C289.32 379.699 289.08 380.008 288.771 380.297C288.467 380.58 288.083 380.809 287.62 380.985C287.161 381.155 286.623 381.24 286.005 381.24ZM286.731 379.184C287.293 379.184 287.78 379.073 288.192 378.852C288.604 378.625 288.921 378.326 289.142 377.955C289.369 377.584 289.482 377.18 289.482 376.742V375.344C289.395 375.416 289.245 375.483 289.034 375.544C288.828 375.606 288.596 375.66 288.338 375.707C288.081 375.753 287.826 375.794 287.573 375.83C287.321 375.866 287.102 375.897 286.917 375.923C286.499 375.98 286.126 376.072 285.796 376.201C285.466 376.33 285.206 376.51 285.016 376.742C284.825 376.969 284.73 377.263 284.73 377.623C284.73 378.138 284.918 378.527 285.294 378.79C285.67 379.053 286.149 379.184 286.731 379.184ZM293.755 371.426V369.131H304.141V371.426H300.3V381H297.596V371.426H293.755ZM314.521 373.906V376.201H308.2V373.906H314.521ZM309.065 369.131V381H306.368V369.131H309.065ZM316.352 369.131V381H313.663V369.131H316.352ZM324.36 381.232C323.201 381.232 322.196 380.977 321.346 380.467C320.496 379.957 319.837 379.243 319.368 378.326C318.904 377.409 318.672 376.338 318.672 375.112C318.672 373.886 318.904 372.812 319.368 371.889C319.837 370.967 320.496 370.251 321.346 369.741C322.196 369.231 323.201 368.976 324.36 368.976C325.519 368.976 326.523 369.231 327.373 369.741C328.223 370.251 328.88 370.967 329.344 371.889C329.813 372.812 330.047 373.886 330.047 375.112C330.047 376.338 329.813 377.409 329.344 378.326C328.88 379.243 328.223 379.957 327.373 380.467C326.523 380.977 325.519 381.232 324.36 381.232ZM324.375 378.991C325.004 378.991 325.529 378.818 325.952 378.473C326.374 378.123 326.688 377.654 326.894 377.067C327.106 376.479 327.211 375.825 327.211 375.104C327.211 374.378 327.106 373.721 326.894 373.134C326.688 372.541 326.374 372.07 325.952 371.719C325.529 371.369 325.004 371.194 324.375 371.194C323.731 371.194 323.195 371.369 322.768 371.719C322.345 372.07 322.029 372.541 321.817 373.134C321.611 373.721 321.508 374.378 321.508 375.104C321.508 375.825 321.611 376.479 321.817 377.067C322.029 377.654 322.345 378.123 322.768 378.473C323.195 378.818 323.731 378.991 324.375 378.991ZM337.676 381.232C336.486 381.232 335.458 380.985 334.593 380.49C333.732 379.99 333.07 379.285 332.607 378.373C332.143 377.456 331.911 376.376 331.911 375.135C331.911 373.914 332.143 372.842 332.607 371.92C333.076 370.993 333.73 370.272 334.57 369.757C335.409 369.236 336.396 368.976 337.529 368.976C338.261 368.976 338.951 369.095 339.6 369.332C340.254 369.563 340.831 369.924 341.331 370.413C341.836 370.903 342.233 371.526 342.521 372.283C342.81 373.036 342.954 373.932 342.954 374.973V375.83H333.225V373.945H340.272C340.267 373.409 340.151 372.933 339.925 372.515C339.698 372.093 339.381 371.761 338.974 371.518C338.572 371.276 338.104 371.155 337.568 371.155C336.996 371.155 336.494 371.294 336.061 371.573C335.628 371.846 335.291 372.206 335.049 372.654C334.812 373.097 334.691 373.584 334.685 374.115V375.761C334.685 376.451 334.812 377.044 335.064 377.538C335.317 378.028 335.669 378.404 336.123 378.666C336.576 378.924 337.107 379.053 337.715 379.053C338.122 379.053 338.49 378.996 338.82 378.883C339.149 378.764 339.435 378.592 339.677 378.365C339.919 378.138 340.102 377.858 340.226 377.523L342.838 377.816C342.673 378.507 342.359 379.109 341.895 379.625C341.437 380.135 340.849 380.531 340.133 380.815C339.417 381.093 338.598 381.232 337.676 381.232ZM355.895 381.232C354.736 381.232 353.732 380.977 352.882 380.467C352.032 379.957 351.372 379.243 350.903 378.326C350.44 377.409 350.208 376.338 350.208 375.112C350.208 373.886 350.44 372.812 350.903 371.889C351.372 370.967 352.032 370.251 352.882 369.741C353.732 369.231 354.736 368.976 355.895 368.976C357.054 368.976 358.059 369.231 358.909 369.741C359.759 370.251 360.416 370.967 360.879 371.889C361.348 372.812 361.583 373.886 361.583 375.112C361.583 376.338 361.348 377.409 360.879 378.326C360.416 379.243 359.759 379.957 358.909 380.467C358.059 380.977 357.054 381.232 355.895 381.232ZM355.911 378.991C356.539 378.991 357.065 378.818 357.487 378.473C357.91 378.123 358.224 377.654 358.43 377.067C358.641 376.479 358.747 375.825 358.747 375.104C358.747 374.378 358.641 373.721 358.43 373.134C358.224 372.541 357.91 372.07 357.487 371.719C357.065 371.369 356.539 371.194 355.911 371.194C355.267 371.194 354.731 371.369 354.303 371.719C353.881 372.07 353.564 372.541 353.353 373.134C353.147 373.721 353.044 374.378 353.044 375.104C353.044 375.825 353.147 376.479 353.353 377.067C353.564 377.654 353.881 378.123 354.303 378.473C354.731 378.818 355.267 378.991 355.911 378.991ZM373.469 364.742L374.443 366.55C374.098 366.849 373.711 367.065 373.284 367.199C372.856 367.333 372.354 367.42 371.777 367.462C371.205 367.498 370.525 367.523 369.737 367.539C368.851 367.559 368.127 367.727 367.566 368.041C367.004 368.355 366.574 368.832 366.275 369.471C365.976 370.104 365.78 370.913 365.688 371.897H365.819C366.19 371.171 366.71 370.617 367.38 370.236C368.05 369.855 368.835 369.664 369.737 369.664C370.721 369.664 371.589 369.885 372.341 370.328C373.098 370.766 373.688 371.403 374.111 372.237C374.538 373.072 374.752 374.081 374.752 375.266C374.752 376.487 374.523 377.546 374.064 378.442C373.606 379.333 372.954 380.021 372.109 380.505C371.27 380.99 370.273 381.232 369.119 381.232C367.97 381.232 366.971 380.982 366.12 380.482C365.276 379.977 364.621 379.233 364.158 378.249C363.699 377.26 363.47 376.042 363.47 374.594V373.528C363.47 370.735 363.99 368.652 365.031 367.276C366.072 365.901 367.614 365.2 369.66 365.174C370.268 365.164 370.811 365.161 371.29 365.167C371.774 365.172 372.197 365.149 372.557 365.097C372.918 365.046 373.222 364.927 373.469 364.742ZM369.134 378.991C369.706 378.991 370.201 378.844 370.618 378.55C371.035 378.252 371.355 377.829 371.576 377.283C371.803 376.737 371.916 376.091 371.916 375.344C371.916 374.607 371.803 373.981 371.576 373.466C371.349 372.945 371.027 372.549 370.61 372.276C370.193 372.003 369.696 371.866 369.119 371.866C368.686 371.866 368.297 371.943 367.952 372.098C367.607 372.253 367.313 372.479 367.071 372.778C366.829 373.077 366.643 373.44 366.515 373.868C366.386 374.295 366.316 374.787 366.306 375.344C366.306 376.461 366.558 377.35 367.063 378.009C367.568 378.664 368.258 378.991 369.134 378.991ZM382.387 381.232C381.197 381.232 380.169 380.985 379.303 380.49C378.443 379.99 377.781 379.285 377.318 378.373C376.854 377.456 376.622 376.376 376.622 375.135C376.622 373.914 376.854 372.842 377.318 371.92C377.786 370.993 378.441 370.272 379.28 369.757C380.12 369.236 381.107 368.976 382.24 368.976C382.971 368.976 383.662 369.095 384.311 369.332C384.965 369.563 385.542 369.924 386.042 370.413C386.547 370.903 386.943 371.526 387.232 372.283C387.52 373.036 387.664 373.932 387.664 374.973V375.83H377.936V373.945H384.983C384.978 373.409 384.862 372.933 384.635 372.515C384.409 372.093 384.092 371.761 383.685 371.518C383.283 371.276 382.814 371.155 382.278 371.155C381.707 371.155 381.204 371.294 380.772 371.573C380.339 371.846 380.001 372.206 379.759 372.654C379.522 373.097 379.401 373.584 379.396 374.115V375.761C379.396 376.451 379.522 377.044 379.775 377.538C380.027 378.028 380.38 378.404 380.833 378.666C381.287 378.924 381.817 379.053 382.425 379.053C382.832 379.053 383.201 378.996 383.53 378.883C383.86 378.764 384.146 378.592 384.388 378.365C384.63 378.138 384.813 377.858 384.937 377.523L387.549 377.816C387.384 378.507 387.069 379.109 386.606 379.625C386.147 380.135 385.56 380.531 384.844 380.815C384.128 381.093 383.309 381.232 382.387 381.232ZM395.208 381.232C394.023 381.232 393.006 380.972 392.156 380.451C391.311 379.931 390.659 379.212 390.201 378.295C389.748 377.373 389.521 376.312 389.521 375.112C389.521 373.906 389.753 372.842 390.216 371.92C390.68 370.993 391.334 370.272 392.179 369.757C393.029 369.236 394.034 368.976 395.193 368.976C396.156 368.976 397.009 369.154 397.751 369.509C398.498 369.86 399.093 370.357 399.536 371.001C399.979 371.64 400.231 372.387 400.293 373.242H397.619C397.511 372.67 397.254 372.193 396.847 371.812C396.445 371.426 395.906 371.233 395.232 371.233C394.66 371.233 394.157 371.387 393.725 371.696C393.292 372 392.955 372.438 392.712 373.01C392.475 373.582 392.357 374.267 392.357 375.065C392.357 375.874 392.475 376.57 392.712 377.152C392.949 377.729 393.282 378.174 393.709 378.489C394.142 378.798 394.649 378.952 395.232 378.952C395.644 378.952 396.012 378.875 396.337 378.72C396.666 378.561 396.942 378.331 397.163 378.033C397.385 377.734 397.537 377.371 397.619 376.943H400.293C400.226 377.783 399.979 378.527 399.551 379.176C399.124 379.82 398.541 380.325 397.805 380.691C397.068 381.052 396.203 381.232 395.208 381.232ZM402.59 381V369.131H412.612V381H409.916V371.426H405.264V381H402.59ZM420.744 381.232C419.554 381.232 418.526 380.985 417.66 380.49C416.8 379.99 416.138 379.285 415.674 378.373C415.211 377.456 414.979 376.376 414.979 375.135C414.979 373.914 415.211 372.842 415.674 371.92C416.143 370.993 416.797 370.272 417.637 369.757C418.477 369.236 419.463 368.976 420.597 368.976C421.328 368.976 422.019 369.095 422.668 369.332C423.322 369.563 423.899 369.924 424.399 370.413C424.903 370.903 425.3 371.526 425.589 372.283C425.877 373.036 426.021 373.932 426.021 374.973V375.83H416.293V373.945H423.34C423.335 373.409 423.219 372.933 422.992 372.515C422.766 372.093 422.449 371.761 422.042 371.518C421.64 371.276 421.171 371.155 420.635 371.155C420.064 371.155 419.561 371.294 419.129 371.573C418.696 371.846 418.358 372.206 418.116 372.654C417.879 373.097 417.758 373.584 417.753 374.115V375.761C417.753 376.451 417.879 377.044 418.132 377.538C418.384 378.028 418.737 378.404 419.19 378.666C419.644 378.924 420.174 379.053 420.782 379.053C421.189 379.053 421.557 378.996 421.887 378.883C422.217 378.764 422.503 378.592 422.745 378.365C422.987 378.138 423.17 377.858 423.294 377.523L425.905 377.816C425.741 378.507 425.426 379.109 424.963 379.625C424.504 380.135 423.917 380.531 423.201 380.815C422.485 381.093 421.666 381.232 420.744 381.232ZM438.302 369.131V381H435.613V369.131H438.302ZM437.043 374.494V376.781C436.739 376.915 436.393 377.036 436.007 377.144C435.626 377.247 435.221 377.329 434.794 377.391C434.371 377.453 433.949 377.484 433.527 377.484C431.94 377.484 430.685 377.129 429.763 376.418C428.846 375.702 428.388 374.586 428.388 373.072V369.115H431.062V373.072C431.062 373.582 431.152 373.991 431.332 374.3C431.512 374.609 431.785 374.836 432.151 374.98C432.517 375.119 432.975 375.189 433.527 375.189C434.145 375.189 434.732 375.127 435.288 375.004C435.845 374.88 436.43 374.71 437.043 374.494ZM446.371 381.232C445.181 381.232 444.154 380.985 443.288 380.49C442.428 379.99 441.766 379.285 441.302 378.373C440.839 377.456 440.607 376.376 440.607 375.135C440.607 373.914 440.839 372.842 441.302 371.92C441.771 370.993 442.425 370.272 443.265 369.757C444.105 369.236 445.091 368.976 446.225 368.976C446.956 368.976 447.646 369.095 448.296 369.332C448.95 369.563 449.527 369.924 450.027 370.413C450.531 370.903 450.928 371.526 451.217 372.283C451.505 373.036 451.649 373.932 451.649 374.973V375.83H441.92V373.945H448.968C448.963 373.409 448.847 372.933 448.62 372.515C448.393 372.093 448.077 371.761 447.67 371.518C447.268 371.276 446.799 371.155 446.263 371.155C445.691 371.155 445.189 371.294 444.756 371.573C444.324 371.846 443.986 372.206 443.744 372.654C443.507 373.097 443.386 373.584 443.381 374.115V375.761C443.381 376.451 443.507 377.044 443.76 377.538C444.012 378.028 444.365 378.404 444.818 378.666C445.272 378.924 445.802 379.053 446.41 379.053C446.817 379.053 447.185 378.996 447.515 378.883C447.845 378.764 448.131 378.592 448.373 378.365C448.615 378.138 448.798 377.858 448.921 377.523L451.533 377.816C451.368 378.507 451.054 379.109 450.591 379.625C450.132 380.135 449.545 380.531 448.829 380.815C448.113 381.093 447.294 381.232 446.371 381.232ZM462.168 373.906V376.201H455.847V373.906H462.168ZM456.713 369.131V381H454.016V369.131H456.713ZM464 369.131V381H461.31V369.131H464ZM469.527 377.214L474.279 369.131H477.154V381H474.449V372.909L469.712 381H466.83V369.131H469.527V377.214ZM485.281 381.232C484.091 381.232 483.063 380.985 482.198 380.49C481.337 379.99 480.675 379.285 480.212 378.373C479.748 377.456 479.516 376.376 479.516 375.135C479.516 373.914 479.748 372.842 480.212 371.92C480.68 370.993 481.335 370.272 482.174 369.757C483.014 369.236 484.001 368.976 485.134 368.976C485.866 368.976 486.556 369.095 487.205 369.332C487.859 369.563 488.436 369.924 488.936 370.413C489.441 370.903 489.837 371.526 490.126 372.283C490.414 373.036 490.559 373.932 490.559 374.973V375.83H480.83V373.945H487.877C487.872 373.409 487.756 372.933 487.529 372.515C487.303 372.093 486.986 371.761 486.579 371.518C486.177 371.276 485.708 371.155 485.173 371.155C484.601 371.155 484.099 371.294 483.666 371.573C483.233 371.846 482.896 372.206 482.654 372.654C482.417 373.097 482.295 373.584 482.29 374.115V375.761C482.29 376.451 482.417 377.044 482.669 377.538C482.921 378.028 483.274 378.404 483.728 378.666C484.181 378.924 484.712 379.053 485.319 379.053C485.726 379.053 486.095 378.996 486.424 378.883C486.754 378.764 487.04 378.592 487.282 378.365C487.524 378.138 487.707 377.858 487.831 377.523L490.443 377.816C490.278 378.507 489.964 379.109 489.5 379.625C489.041 380.135 488.454 380.531 487.738 380.815C487.022 381.093 486.203 381.232 485.281 381.232Z" fill="black"/>
<rect x="120" y="341" width="465" height="65" stroke="#58A982" stroke-width="2"/>
<rect x="100.5" y="136.5" width="504" height="289" stroke="#ABD4C1"/>
<rect x="644.5" y="136.5" width="575" height="289" fill="#F1F7F5"/>
<path d="M891.129 164.807H887.768C887.672 164.256 887.496 163.768 887.238 163.342C886.98 162.911 886.66 162.546 886.277 162.246C885.893 161.947 885.456 161.722 884.965 161.572C884.48 161.417 883.955 161.339 883.392 161.339C882.392 161.339 881.505 161.59 880.733 162.094C879.96 162.591 879.355 163.322 878.918 164.286C878.48 165.244 878.262 166.415 878.262 167.799C878.262 169.207 878.48 170.393 878.918 171.357C879.361 172.316 879.966 173.041 880.733 173.532C881.505 174.017 882.389 174.26 883.383 174.26C883.934 174.26 884.45 174.188 884.929 174.044C885.414 173.894 885.848 173.675 886.232 173.388C886.621 173.1 886.947 172.747 887.211 172.328C887.481 171.908 887.666 171.429 887.768 170.89L891.129 170.908C891.003 171.783 890.73 172.603 890.311 173.37C889.898 174.137 889.355 174.814 888.685 175.401C888.014 175.982 887.229 176.437 886.33 176.766C885.432 177.09 884.435 177.252 883.338 177.252C881.721 177.252 880.277 176.877 879.008 176.128C877.738 175.38 876.737 174.298 876.006 172.885C875.276 171.471 874.91 169.776 874.91 167.799C874.91 165.816 875.279 164.121 876.015 162.714C876.752 161.3 877.756 160.219 879.026 159.47C880.295 158.721 881.733 158.347 883.338 158.347C884.363 158.347 885.315 158.49 886.196 158.778C887.076 159.066 887.861 159.488 888.55 160.045C889.239 160.596 889.805 161.273 890.248 162.076C890.697 162.872 890.991 163.783 891.129 164.807ZM900.147 177.27C898.764 177.27 897.569 176.982 896.562 176.407C895.562 175.826 894.792 175.005 894.253 173.945C893.714 172.879 893.445 171.624 893.445 170.18C893.445 168.761 893.714 167.515 894.253 166.442C894.798 165.364 895.559 164.526 896.535 163.927C897.512 163.322 898.659 163.019 899.977 163.019C900.827 163.019 901.63 163.157 902.385 163.432C903.146 163.702 903.816 164.121 904.397 164.69C904.984 165.259 905.446 165.984 905.781 166.865C906.117 167.739 906.284 168.782 906.284 169.992V170.989H894.972V168.797H903.166C903.161 168.174 903.026 167.619 902.762 167.134C902.499 166.643 902.13 166.257 901.657 165.975C901.19 165.694 900.645 165.553 900.022 165.553C899.357 165.553 898.773 165.715 898.27 166.038C897.766 166.356 897.374 166.775 897.092 167.296C896.817 167.811 896.676 168.377 896.67 168.994V170.908C896.67 171.711 896.817 172.4 897.11 172.975C897.404 173.544 897.814 173.981 898.341 174.286C898.869 174.586 899.486 174.736 900.192 174.736C900.666 174.736 901.094 174.67 901.477 174.538C901.861 174.4 902.193 174.2 902.475 173.936C902.756 173.672 902.969 173.346 903.113 172.957L906.15 173.298C905.958 174.101 905.592 174.802 905.053 175.401C904.52 175.994 903.837 176.455 903.005 176.784C902.172 177.108 901.22 177.27 900.147 177.27ZM909.036 182.175V163.199H912.235V165.481H912.423C912.591 165.146 912.828 164.789 913.133 164.412C913.439 164.028 913.852 163.702 914.373 163.432C914.894 163.157 915.559 163.019 916.368 163.019C917.434 163.019 918.396 163.292 919.252 163.837C920.115 164.376 920.798 165.175 921.301 166.236C921.81 167.29 922.065 168.584 922.065 170.117C922.065 171.633 921.816 172.921 921.319 173.981C920.822 175.041 920.145 175.85 919.288 176.407C918.432 176.964 917.461 177.243 916.377 177.243C915.586 177.243 914.93 177.111 914.409 176.847C913.888 176.584 913.469 176.266 913.151 175.895C912.84 175.517 912.597 175.161 912.423 174.826H912.289V182.175H909.036ZM912.226 170.099C912.226 170.992 912.352 171.774 912.603 172.445C912.861 173.115 913.229 173.64 913.708 174.017C914.194 174.388 914.781 174.574 915.469 174.574C916.188 174.574 916.79 174.382 917.276 173.999C917.761 173.61 918.126 173.079 918.372 172.409C918.623 171.732 918.749 170.962 918.749 170.099C918.749 169.243 918.626 168.482 918.381 167.817C918.135 167.152 917.77 166.631 917.284 166.254C916.799 165.876 916.194 165.688 915.469 165.688C914.775 165.688 914.185 165.87 913.699 166.236C913.214 166.601 912.846 167.113 912.594 167.772C912.349 168.431 912.226 169.207 912.226 170.099ZM924.85 177V163.199H930.645C932.281 163.199 933.572 163.525 934.518 164.178C935.471 164.831 935.947 165.742 935.947 166.91C935.947 167.682 935.677 168.314 935.138 168.805C934.605 169.291 933.877 169.617 932.955 169.785C933.679 169.845 934.314 170.027 934.86 170.333C935.411 170.638 935.842 171.04 936.153 171.537C936.465 172.034 936.621 172.606 936.621 173.253C936.621 174.014 936.42 174.676 936.019 175.239C935.623 175.796 935.045 176.23 934.284 176.542C933.53 176.847 932.613 177 931.535 177H924.85ZM927.896 174.439H931.535C932.134 174.439 932.604 174.298 932.946 174.017C933.287 173.729 933.458 173.34 933.458 172.849C933.458 172.28 933.287 171.834 932.946 171.51C932.604 171.181 932.134 171.016 931.535 171.016H927.896V174.439ZM927.896 168.913H930.708C931.152 168.913 931.532 168.85 931.849 168.725C932.167 168.593 932.41 168.41 932.577 168.177C932.745 167.937 932.829 167.652 932.829 167.323C932.829 166.85 932.634 166.478 932.245 166.209C931.861 165.939 931.328 165.804 930.645 165.804H927.896V168.913ZM945.415 177.27C944.031 177.27 942.836 176.982 941.83 176.407C940.829 175.826 940.06 175.005 939.521 173.945C938.982 172.879 938.712 171.624 938.712 170.18C938.712 168.761 938.982 167.515 939.521 166.442C940.066 165.364 940.826 164.526 941.803 163.927C942.779 163.322 943.926 163.019 945.244 163.019C946.095 163.019 946.897 163.157 947.652 163.432C948.413 163.702 949.084 164.121 949.665 164.69C950.252 165.259 950.713 165.984 951.049 166.865C951.384 167.739 951.552 168.782 951.552 169.992V170.989H940.239V168.797H948.434C948.428 168.174 948.293 167.619 948.03 167.134C947.766 166.643 947.398 166.257 946.924 165.975C946.457 165.694 945.912 165.553 945.289 165.553C944.624 165.553 944.04 165.715 943.537 166.038C943.034 166.356 942.641 166.775 942.36 167.296C942.084 167.811 941.944 168.377 941.938 168.994V170.908C941.938 171.711 942.084 172.4 942.378 172.975C942.671 173.544 943.082 173.981 943.609 174.286C944.136 174.586 944.753 174.736 945.46 174.736C945.933 174.736 946.361 174.67 946.745 174.538C947.128 174.4 947.461 174.2 947.742 173.936C948.024 173.672 948.236 173.346 948.38 172.957L951.417 173.298C951.225 174.101 950.86 174.802 950.321 175.401C949.788 175.994 949.105 176.455 948.272 176.784C947.44 177.108 946.487 177.27 945.415 177.27ZM954.304 182.175V163.199H957.502V165.481H957.691C957.859 165.146 958.095 164.789 958.401 164.412C958.706 164.028 959.12 163.702 959.641 163.432C960.162 163.157 960.827 163.019 961.635 163.019C962.702 163.019 963.663 163.292 964.52 163.837C965.382 164.376 966.065 165.175 966.568 166.236C967.077 167.29 967.332 168.584 967.332 170.117C967.332 171.633 967.083 172.921 966.586 173.981C966.089 175.041 965.412 175.85 964.556 176.407C963.699 176.964 962.729 177.243 961.644 177.243C960.854 177.243 960.198 177.111 959.677 176.847C959.156 176.584 958.736 176.266 958.419 175.895C958.107 175.517 957.865 175.161 957.691 174.826H957.556V182.175H954.304ZM957.493 170.099C957.493 170.992 957.619 171.774 957.871 172.445C958.128 173.115 958.497 173.64 958.976 174.017C959.461 174.388 960.048 174.574 960.737 174.574C961.456 174.574 962.058 174.382 962.543 173.999C963.028 173.61 963.394 173.079 963.639 172.409C963.891 171.732 964.017 170.962 964.017 170.099C964.017 169.243 963.894 168.482 963.648 167.817C963.403 167.152 963.037 166.631 962.552 166.254C962.067 165.876 961.462 165.688 960.737 165.688C960.042 165.688 959.452 165.87 958.967 166.236C958.482 166.601 958.113 167.113 957.862 167.772C957.616 168.431 957.493 169.207 957.493 170.099ZM976.358 177V174.592L982.746 168.329C983.357 167.712 983.866 167.164 984.274 166.685C984.681 166.206 984.986 165.742 985.19 165.292C985.394 164.843 985.496 164.364 985.496 163.855C985.496 163.274 985.364 162.776 985.1 162.363C984.837 161.944 984.474 161.62 984.013 161.393C983.552 161.165 983.028 161.051 982.441 161.051C981.836 161.051 981.306 161.177 980.85 161.429C980.395 161.674 980.042 162.025 979.79 162.48C979.544 162.935 979.422 163.477 979.422 164.106H976.25C976.25 162.938 976.516 161.923 977.05 161.06C977.583 160.198 978.316 159.53 979.251 159.057C980.191 158.583 981.27 158.347 982.486 158.347C983.72 158.347 984.804 158.577 985.738 159.039C986.673 159.5 987.398 160.132 987.913 160.934C988.434 161.737 988.694 162.654 988.694 163.684C988.694 164.373 988.563 165.05 988.299 165.715C988.035 166.379 987.571 167.116 986.906 167.925C986.247 168.734 985.322 169.713 984.13 170.863L980.958 174.089V174.215H988.973V177H976.358Z" fill="black"/>
<rect x="664" y="191" width="177" height="65" fill="#DBEEE5"/>
<path d="M700.19 223.087C700.19 224.792 699.871 226.253 699.232 227.469C698.599 228.679 697.733 229.606 696.636 230.25C695.544 230.894 694.305 231.216 692.919 231.216C691.533 231.216 690.292 230.894 689.194 230.25C688.102 229.601 687.237 228.671 686.598 227.461C685.964 226.245 685.647 224.787 685.647 223.087C685.647 221.382 685.964 219.924 686.598 218.713C687.237 217.498 688.102 216.568 689.194 215.924C690.292 215.28 691.533 214.958 692.919 214.958C694.305 214.958 695.544 215.28 696.636 215.924C697.733 216.568 698.599 217.498 699.232 218.713C699.871 219.924 700.19 221.382 700.19 223.087ZM697.308 223.087C697.308 221.887 697.12 220.875 696.744 220.05C696.373 219.221 695.858 218.595 695.198 218.173C694.539 217.745 693.779 217.531 692.919 217.531C692.059 217.531 691.299 217.745 690.639 218.173C689.98 218.595 689.462 219.221 689.086 220.05C688.715 220.875 688.53 221.887 688.53 223.087C688.53 224.287 688.715 225.302 689.086 226.132C689.462 226.956 689.98 227.582 690.639 228.009C691.299 228.432 692.059 228.643 692.919 228.643C693.779 228.643 694.539 228.432 695.198 228.009C695.858 227.582 696.373 226.956 696.744 226.132C697.12 225.302 697.308 224.287 697.308 223.087ZM716.447 220.514H713.557C713.474 220.04 713.322 219.62 713.101 219.254C712.879 218.883 712.604 218.569 712.274 218.312C711.944 218.054 711.568 217.861 711.146 217.732C710.729 217.598 710.278 217.531 709.794 217.531C708.933 217.531 708.171 217.748 707.506 218.18C706.842 218.608 706.321 219.236 705.945 220.066C705.569 220.89 705.381 221.897 705.381 223.087C705.381 224.298 705.569 225.318 705.945 226.147C706.327 226.971 706.847 227.595 707.506 228.017C708.171 228.435 708.931 228.643 709.786 228.643C710.26 228.643 710.703 228.581 711.115 228.458C711.532 228.329 711.906 228.141 712.235 227.894C712.57 227.646 712.851 227.342 713.078 226.982C713.31 226.621 713.469 226.209 713.557 225.745L716.447 225.761C716.339 226.513 716.104 227.219 715.744 227.878C715.388 228.538 714.922 229.12 714.345 229.625C713.768 230.124 713.093 230.516 712.32 230.799C711.548 231.077 710.69 231.216 709.747 231.216C708.356 231.216 707.115 230.894 706.023 230.25C704.93 229.606 704.07 228.677 703.442 227.461C702.813 226.245 702.499 224.787 702.499 223.087C702.499 221.382 702.816 219.924 703.449 218.713C704.083 217.498 704.946 216.568 706.038 215.924C707.13 215.28 708.367 214.958 709.747 214.958C710.628 214.958 711.447 215.082 712.205 215.329C712.962 215.576 713.637 215.939 714.229 216.418C714.822 216.892 715.308 217.474 715.69 218.165C716.076 218.85 716.328 219.633 716.447 220.514ZM727.8 231L723.334 215.174H726.417L729.269 226.804H729.415L732.46 215.174H735.265L738.317 226.812H738.456L741.308 215.174H744.391L739.925 231H737.096L733.928 219.896H733.805L730.629 231H727.8ZM746.255 231V219.131H749.053V231H746.255ZM747.662 217.446C747.219 217.446 746.837 217.299 746.518 217.006C746.199 216.707 746.039 216.349 746.039 215.932C746.039 215.509 746.199 215.151 746.518 214.857C746.837 214.559 747.219 214.409 747.662 214.409C748.11 214.409 748.491 214.559 748.805 214.857C749.125 215.151 749.284 215.509 749.284 215.932C749.284 216.349 749.125 216.707 748.805 217.006C748.491 217.299 748.11 217.446 747.662 217.446ZM754.726 224.045V231H751.929V219.131H754.603V221.148H754.742C755.015 220.483 755.45 219.955 756.048 219.563C756.651 219.172 757.395 218.976 758.281 218.976C759.1 218.976 759.814 219.151 760.422 219.502C761.035 219.852 761.509 220.359 761.843 221.024C762.183 221.688 762.351 222.495 762.346 223.443V231H759.548V223.875C759.548 223.082 759.342 222.461 758.93 222.013C758.523 221.565 757.959 221.341 757.238 221.341C756.748 221.341 756.313 221.449 755.932 221.665C755.556 221.877 755.26 222.183 755.043 222.585C754.832 222.987 754.726 223.474 754.726 224.045ZM769.594 231.209C768.662 231.209 767.827 230.969 767.09 230.49C766.354 230.011 765.771 229.315 765.344 228.404C764.916 227.492 764.703 226.384 764.703 225.081C764.703 223.762 764.919 222.649 765.352 221.743C765.79 220.831 766.379 220.143 767.121 219.679C767.863 219.211 768.69 218.976 769.602 218.976C770.297 218.976 770.869 219.095 771.317 219.332C771.765 219.563 772.121 219.844 772.384 220.174C772.646 220.498 772.85 220.805 772.994 221.093H773.11V215.174H775.915V231H773.164V229.13H772.994C772.85 229.418 772.641 229.725 772.368 230.05C772.095 230.369 771.734 230.642 771.286 230.869C770.838 231.095 770.274 231.209 769.594 231.209ZM770.374 228.914C770.967 228.914 771.472 228.754 771.889 228.435C772.306 228.11 772.623 227.659 772.839 227.082C773.056 226.505 773.164 225.833 773.164 225.065C773.164 224.298 773.056 223.631 772.839 223.064C772.628 222.497 772.314 222.057 771.897 221.743C771.485 221.428 770.977 221.271 770.374 221.271C769.751 221.271 769.231 221.433 768.813 221.758C768.396 222.083 768.082 222.531 767.871 223.103C767.66 223.674 767.554 224.329 767.554 225.065C767.554 225.807 767.66 226.469 767.871 227.051C768.087 227.628 768.404 228.084 768.821 228.419C769.244 228.749 769.761 228.914 770.374 228.914ZM784.073 231.232C782.914 231.232 781.909 230.977 781.059 230.467C780.209 229.957 779.55 229.243 779.081 228.326C778.618 227.409 778.386 226.338 778.386 225.112C778.386 223.886 778.618 222.812 779.081 221.889C779.55 220.967 780.209 220.251 781.059 219.741C781.909 219.231 782.914 218.976 784.073 218.976C785.232 218.976 786.237 219.231 787.087 219.741C787.937 220.251 788.594 220.967 789.057 221.889C789.526 222.812 789.761 223.886 789.761 225.112C789.761 226.338 789.526 227.409 789.057 228.326C788.594 229.243 787.937 229.957 787.087 230.467C786.237 230.977 785.232 231.232 784.073 231.232ZM784.089 228.991C784.717 228.991 785.243 228.818 785.665 228.473C786.087 228.123 786.402 227.654 786.608 227.067C786.819 226.479 786.925 225.825 786.925 225.104C786.925 224.378 786.819 223.721 786.608 223.134C786.402 222.541 786.087 222.07 785.665 221.719C785.243 221.369 784.717 221.194 784.089 221.194C783.445 221.194 782.909 221.369 782.481 221.719C782.059 222.07 781.742 222.541 781.531 223.134C781.325 223.721 781.222 224.378 781.222 225.104C781.222 225.825 781.325 226.479 781.531 227.067C781.742 227.654 782.059 228.123 782.481 228.473C782.909 228.818 783.445 228.991 784.089 228.991ZM794.244 231L790.891 219.131H793.742L795.828 227.476H795.937L798.069 219.131H800.89L803.023 227.43H803.139L805.194 219.131H808.053L804.692 231H801.779L799.553 222.979H799.391L797.165 231H794.244ZM819.387 222.268L816.837 222.546C816.765 222.289 816.639 222.047 816.459 221.82C816.284 221.593 816.047 221.41 815.748 221.271C815.449 221.132 815.083 221.063 814.65 221.063C814.068 221.063 813.579 221.189 813.182 221.441C812.791 221.694 812.598 222.021 812.603 222.423C812.598 222.768 812.724 223.049 812.981 223.265C813.244 223.481 813.677 223.659 814.28 223.798L816.304 224.231C817.427 224.473 818.262 224.857 818.808 225.382C819.359 225.908 819.637 226.595 819.642 227.445C819.637 228.192 819.418 228.852 818.986 229.424C818.558 229.99 817.963 230.433 817.201 230.753C816.438 231.072 815.562 231.232 814.573 231.232C813.12 231.232 811.951 230.928 811.065 230.32C810.179 229.707 809.651 228.854 809.481 227.762L812.209 227.499C812.332 228.035 812.595 228.44 812.997 228.713C813.399 228.986 813.922 229.122 814.565 229.122C815.23 229.122 815.763 228.986 816.165 228.713C816.572 228.44 816.776 228.102 816.776 227.7C816.776 227.36 816.644 227.08 816.381 226.858C816.124 226.637 815.722 226.467 815.176 226.348L813.151 225.923C812.013 225.686 811.171 225.287 810.625 224.725C810.078 224.159 809.808 223.443 809.813 222.577C809.808 221.846 810.006 221.212 810.408 220.676C810.815 220.135 811.379 219.718 812.1 219.424C812.827 219.126 813.664 218.976 814.612 218.976C816.003 218.976 817.097 219.272 817.896 219.865C818.7 220.457 819.197 221.258 819.387 222.268Z" fill="black"/>
<rect x="664" y="191" width="177" height="65" stroke="#58A982" stroke-width="2"/>
<rect x="664" y="266" width="536" height="65" fill="#DBEEE5"/>
<path d="M870.456 290.174V292.578H863.146V306H860.279V290.174H870.456ZM874.221 302.214L878.974 294.131H881.848V306H879.144V297.909L874.407 306H871.524V294.131H874.221V302.214ZM884.721 306V294.131H894.743V306H892.046V296.426H887.395V306H884.721ZM902.874 306.232C901.684 306.232 900.657 305.985 899.791 305.49C898.931 304.99 898.269 304.285 897.805 303.373C897.342 302.456 897.11 301.376 897.11 300.135C897.11 298.914 897.342 297.842 897.805 296.92C898.274 295.993 898.928 295.272 899.768 294.757C900.608 294.236 901.594 293.976 902.728 293.976C903.459 293.976 904.149 294.095 904.799 294.332C905.453 294.563 906.03 294.924 906.53 295.413C907.034 295.903 907.431 296.526 907.72 297.283C908.008 298.036 908.152 298.932 908.152 299.973V300.83H898.423V298.945H905.471C905.466 298.409 905.35 297.933 905.123 297.515C904.896 297.093 904.58 296.761 904.173 296.518C903.771 296.276 903.302 296.155 902.766 296.155C902.194 296.155 901.692 296.294 901.259 296.573C900.827 296.846 900.489 297.206 900.247 297.654C900.01 298.097 899.889 298.584 899.884 299.115V300.761C899.884 301.451 900.01 302.044 900.263 302.538C900.515 303.028 900.868 303.404 901.321 303.666C901.775 303.924 902.305 304.053 902.913 304.053C903.32 304.053 903.688 303.996 904.018 303.883C904.348 303.764 904.634 303.592 904.876 303.365C905.118 303.138 905.301 302.858 905.425 302.523L908.036 302.816C907.872 303.507 907.557 304.109 907.094 304.625C906.635 305.135 906.048 305.531 905.332 305.815C904.616 306.093 903.797 306.232 902.874 306.232ZM910.519 310.451V294.131H913.27V296.093H913.432C913.576 295.805 913.78 295.498 914.042 295.174C914.305 294.844 914.661 294.563 915.109 294.332C915.557 294.095 916.129 293.976 916.824 293.976C917.741 293.976 918.568 294.211 919.305 294.679C920.047 295.143 920.634 295.831 921.067 296.743C921.505 297.649 921.724 298.762 921.724 300.081C921.724 301.384 921.51 302.492 921.082 303.404C920.655 304.315 920.072 305.011 919.336 305.49C918.599 305.969 917.765 306.209 916.832 306.209C916.152 306.209 915.588 306.095 915.14 305.869C914.692 305.642 914.331 305.369 914.058 305.05C913.79 304.725 913.581 304.418 913.432 304.13H913.316V310.451H910.519ZM913.262 300.065C913.262 300.833 913.37 301.505 913.587 302.082C913.808 302.659 914.125 303.11 914.537 303.435C914.954 303.754 915.459 303.914 916.052 303.914C916.67 303.914 917.188 303.749 917.605 303.419C918.022 303.084 918.336 302.628 918.548 302.051C918.764 301.469 918.872 300.807 918.872 300.065C918.872 299.329 918.767 298.674 918.555 298.103C918.344 297.531 918.03 297.083 917.613 296.758C917.195 296.433 916.675 296.271 916.052 296.271C915.454 296.271 914.947 296.428 914.529 296.743C914.112 297.057 913.795 297.497 913.579 298.064C913.368 298.631 913.262 299.298 913.262 300.065ZM924.119 306V294.131H929.103C930.51 294.131 931.62 294.411 932.434 294.973C933.253 295.535 933.662 296.318 933.662 297.322C933.662 297.987 933.431 298.53 932.967 298.953C932.508 299.37 931.882 299.651 931.089 299.795C931.712 299.846 932.259 300.004 932.727 300.266C933.201 300.529 933.572 300.874 933.84 301.302C934.108 301.729 934.242 302.221 934.242 302.778C934.242 303.432 934.069 304.001 933.724 304.485C933.384 304.965 932.887 305.338 932.233 305.606C931.584 305.869 930.795 306 929.868 306H924.119ZM926.739 303.798H929.868C930.383 303.798 930.788 303.677 931.081 303.435C931.375 303.187 931.522 302.852 931.522 302.43C931.522 301.941 931.375 301.557 931.081 301.279C930.788 300.995 930.383 300.854 929.868 300.854H926.739V303.798ZM926.739 299.045H929.157C929.539 299.045 929.866 298.991 930.139 298.883C930.412 298.77 930.62 298.613 930.765 298.412C930.909 298.206 930.981 297.961 930.981 297.678C930.981 297.271 930.814 296.951 930.479 296.719C930.149 296.488 929.69 296.372 929.103 296.372H926.739V299.045ZM939.247 302.214L944 294.131H946.874V306H944.17V297.909L939.433 306H936.55V294.131H939.247V302.214ZM949.09 302.747H951.864C951.89 303.19 952.088 303.532 952.459 303.775C952.83 304.017 953.312 304.138 953.904 304.138C954.507 304.138 955.014 304.006 955.427 303.744C955.844 303.476 956.052 303.071 956.052 302.53C956.052 302.211 955.973 301.93 955.813 301.688C955.653 301.441 955.429 301.25 955.141 301.116C954.852 300.982 954.512 300.915 954.121 300.915H952.305V298.929H954.121C954.703 298.929 955.143 298.795 955.442 298.528C955.746 298.26 955.898 297.922 955.898 297.515C955.898 297.077 955.738 296.722 955.419 296.449C955.105 296.176 954.669 296.039 954.113 296.039C953.557 296.039 953.093 296.166 952.722 296.418C952.356 296.67 952.166 296.995 952.15 297.392H949.391C949.402 296.701 949.608 296.101 950.01 295.591C950.417 295.081 950.963 294.685 951.648 294.401C952.338 294.118 953.116 293.976 953.982 293.976C954.909 293.976 955.71 294.115 956.385 294.393C957.06 294.672 957.58 295.061 957.946 295.56C958.311 296.055 958.494 296.637 958.494 297.307C958.494 297.951 958.293 298.484 957.892 298.906C957.49 299.324 956.949 299.622 956.269 299.803V299.926C956.738 299.952 957.16 300.086 957.536 300.328C957.912 300.565 958.211 300.887 958.433 301.294C958.654 301.701 958.765 302.172 958.765 302.708C958.765 303.435 958.556 304.063 958.139 304.594C957.722 305.119 957.147 305.523 956.416 305.807C955.689 306.09 954.857 306.232 953.92 306.232C953.008 306.232 952.191 306.095 951.47 305.822C950.754 305.544 950.185 305.145 949.762 304.625C949.34 304.104 949.116 303.478 949.09 302.747ZM966.144 306.232C964.985 306.232 963.981 305.977 963.131 305.467C962.281 304.957 961.621 304.243 961.153 303.326C960.689 302.409 960.457 301.338 960.457 300.112C960.457 298.886 960.689 297.812 961.153 296.889C961.621 295.967 962.281 295.251 963.131 294.741C963.981 294.231 964.985 293.976 966.144 293.976C967.304 293.976 968.308 294.231 969.158 294.741C970.008 295.251 970.665 295.967 971.129 296.889C971.597 297.812 971.832 298.886 971.832 300.112C971.832 301.338 971.597 302.409 971.129 303.326C970.665 304.243 970.008 304.957 969.158 305.467C968.308 305.977 967.304 306.232 966.144 306.232ZM966.16 303.991C966.788 303.991 967.314 303.818 967.736 303.473C968.159 303.123 968.473 302.654 968.679 302.067C968.89 301.479 968.996 300.825 968.996 300.104C968.996 299.378 968.89 298.721 968.679 298.134C968.473 297.541 968.159 297.07 967.736 296.719C967.314 296.369 966.788 296.194 966.16 296.194C965.516 296.194 964.98 296.369 964.553 296.719C964.13 297.07 963.813 297.541 963.602 298.134C963.396 298.721 963.293 299.378 963.293 300.104C963.293 300.825 963.396 301.479 963.602 302.067C963.813 302.654 964.13 303.123 964.553 303.473C964.98 303.818 965.516 303.991 966.16 303.991ZM974.206 310.451V294.131H976.957V296.093H977.119C977.264 295.805 977.467 295.498 977.73 295.174C977.993 294.844 978.348 294.563 978.796 294.332C979.244 294.095 979.816 293.976 980.512 293.976C981.429 293.976 982.255 294.211 982.992 294.679C983.734 295.143 984.321 295.831 984.754 296.743C985.192 297.649 985.411 298.762 985.411 300.081C985.411 301.384 985.197 302.492 984.769 303.404C984.342 304.315 983.76 305.011 983.023 305.49C982.286 305.969 981.452 306.209 980.519 306.209C979.839 306.209 979.275 306.095 978.827 305.869C978.379 305.642 978.018 305.369 977.745 305.05C977.477 304.725 977.269 304.418 977.119 304.13H977.003V310.451H974.206ZM976.949 300.065C976.949 300.833 977.057 301.505 977.274 302.082C977.495 302.659 977.812 303.11 978.224 303.435C978.642 303.754 979.146 303.914 979.739 303.914C980.357 303.914 980.875 303.749 981.292 303.419C981.709 303.084 982.024 302.628 982.235 302.051C982.451 301.469 982.559 300.807 982.559 300.065C982.559 299.329 982.454 298.674 982.243 298.103C982.031 297.531 981.717 297.083 981.3 296.758C980.883 296.433 980.362 296.271 979.739 296.271C979.141 296.271 978.634 296.428 978.217 296.743C977.799 297.057 977.482 297.497 977.266 298.064C977.055 298.631 976.949 299.298 976.949 300.065ZM993.173 306V303.929L998.667 298.543C999.193 298.012 999.631 297.541 999.981 297.129C1000.33 296.717 1000.59 296.318 1000.77 295.931C1000.94 295.545 1001.03 295.133 1001.03 294.695C1001.03 294.195 1000.92 293.768 1000.69 293.412C1000.47 293.051 1000.15 292.773 999.757 292.578C999.36 292.382 998.909 292.284 998.404 292.284C997.884 292.284 997.428 292.392 997.037 292.608C996.645 292.82 996.341 293.121 996.125 293.513C995.914 293.904 995.808 294.37 995.808 294.911H993.08C993.08 293.907 993.309 293.033 993.768 292.292C994.226 291.55 994.858 290.975 995.661 290.568C996.47 290.161 997.397 289.958 998.443 289.958C999.504 289.958 1000.44 290.156 1001.24 290.553C1002.04 290.95 1002.67 291.493 1003.11 292.183C1003.56 292.874 1003.78 293.662 1003.78 294.548C1003.78 295.14 1003.67 295.723 1003.44 296.294C1003.22 296.866 1002.82 297.5 1002.24 298.195C1001.68 298.891 1000.88 299.733 999.857 300.722L997.129 303.496V303.605H1004.02V306H993.173Z" fill="black"/>
<rect x="664" y="266" width="536" height="65" stroke="#58A982" stroke-width="2"/>
<rect x="664" y="341" width="536" height="65" fill="#DBEEE5"/>
<path d="M796.605 381H793.545L799.117 365.174H802.656L808.235 381H805.175L800.948 368.42H800.825L796.605 381ZM796.706 374.795H805.051V377.098H796.706V374.795ZM810.196 381V369.131H820.218V381H817.522V371.426H812.87V381H810.196ZM823.095 381V369.131H833.117V381H830.42V371.426H825.769V381H823.095ZM839.409 381.24C838.657 381.24 837.98 381.106 837.377 380.838C836.779 380.565 836.306 380.163 835.955 379.632C835.61 379.102 835.437 378.447 835.437 377.669C835.437 377 835.561 376.446 835.808 376.008C836.056 375.57 836.393 375.22 836.821 374.957C837.248 374.694 837.73 374.496 838.266 374.362C838.807 374.223 839.366 374.123 839.943 374.061C840.638 373.989 841.202 373.924 841.635 373.868C842.068 373.806 842.382 373.713 842.578 373.589C842.779 373.461 842.879 373.262 842.879 372.994V372.948C842.879 372.366 842.706 371.915 842.361 371.596C842.016 371.276 841.519 371.117 840.87 371.117C840.185 371.117 839.641 371.266 839.239 371.565C838.843 371.864 838.575 372.217 838.436 372.624L835.824 372.253C836.03 371.531 836.37 370.929 836.844 370.444C837.318 369.955 837.897 369.589 838.583 369.347C839.268 369.1 840.025 368.976 840.854 368.976C841.426 368.976 841.995 369.043 842.562 369.177C843.129 369.311 843.647 369.533 844.115 369.842C844.584 370.146 844.96 370.56 845.244 371.086C845.532 371.611 845.676 372.268 845.676 373.056V381H842.987V379.37H842.894C842.724 379.699 842.485 380.008 842.176 380.297C841.872 380.58 841.488 380.809 841.024 380.985C840.566 381.155 840.028 381.24 839.409 381.24ZM840.136 379.184C840.697 379.184 841.184 379.073 841.596 378.852C842.008 378.625 842.325 378.326 842.547 377.955C842.773 377.584 842.887 377.18 842.887 376.742V375.344C842.799 375.416 842.65 375.483 842.439 375.544C842.232 375.606 842.001 375.66 841.743 375.707C841.485 375.753 841.23 375.794 840.978 375.83C840.726 375.866 840.507 375.897 840.321 375.923C839.904 375.98 839.53 376.072 839.201 376.201C838.871 376.33 838.611 376.51 838.42 376.742C838.23 376.969 838.134 377.263 838.134 377.623C838.134 378.138 838.322 378.527 838.698 378.79C839.075 379.053 839.554 379.184 840.136 379.184ZM848.489 385.451V369.131H851.24V371.093H851.402C851.547 370.805 851.75 370.498 852.013 370.174C852.275 369.844 852.631 369.563 853.079 369.332C853.527 369.095 854.099 368.976 854.795 368.976C855.712 368.976 856.538 369.211 857.275 369.679C858.017 370.143 858.604 370.831 859.037 371.743C859.475 372.649 859.694 373.762 859.694 375.081C859.694 376.384 859.48 377.492 859.052 378.404C858.625 379.315 858.043 380.011 857.306 380.49C856.569 380.969 855.735 381.209 854.802 381.209C854.122 381.209 853.558 381.095 853.11 380.869C852.662 380.642 852.301 380.369 852.028 380.05C851.76 379.725 851.552 379.418 851.402 379.13H851.286V385.451H848.489ZM851.232 375.065C851.232 375.833 851.34 376.505 851.557 377.082C851.778 377.659 852.095 378.11 852.507 378.435C852.925 378.754 853.429 378.914 854.022 378.914C854.64 378.914 855.158 378.749 855.575 378.419C855.992 378.084 856.307 377.628 856.518 377.051C856.734 376.469 856.842 375.807 856.842 375.065C856.842 374.329 856.737 373.674 856.526 373.103C856.314 372.531 856 372.083 855.583 371.758C855.166 371.433 854.645 371.271 854.022 371.271C853.424 371.271 852.917 371.428 852.5 371.743C852.082 372.057 851.765 372.497 851.549 373.064C851.338 373.631 851.232 374.298 851.232 375.065ZM865.505 381.24C864.753 381.24 864.075 381.106 863.472 380.838C862.875 380.565 862.401 380.163 862.051 379.632C861.705 379.102 861.533 378.447 861.533 377.669C861.533 377 861.657 376.446 861.904 376.008C862.151 375.57 862.489 375.22 862.916 374.957C863.344 374.694 863.825 374.496 864.361 374.362C864.902 374.223 865.461 374.123 866.038 374.061C866.733 373.989 867.298 373.924 867.73 373.868C868.163 373.806 868.477 373.713 868.673 373.589C868.874 373.461 868.974 373.262 868.974 372.994V372.948C868.974 372.366 868.802 371.915 868.457 371.596C868.111 371.276 867.614 371.117 866.965 371.117C866.28 371.117 865.737 371.266 865.335 371.565C864.938 371.864 864.67 372.217 864.531 372.624L861.919 372.253C862.125 371.531 862.465 370.929 862.939 370.444C863.413 369.955 863.993 369.589 864.678 369.347C865.363 369.1 866.12 368.976 866.95 368.976C867.522 368.976 868.091 369.043 868.658 369.177C869.224 369.311 869.742 369.533 870.211 369.842C870.68 370.146 871.056 370.56 871.339 371.086C871.627 371.611 871.772 372.268 871.772 373.056V381H869.083V379.37H868.99C868.82 379.699 868.58 380.008 868.271 380.297C867.967 380.58 867.583 380.809 867.12 380.985C866.661 381.155 866.123 381.24 865.505 381.24ZM866.231 379.184C866.793 379.184 867.28 379.073 867.692 378.852C868.104 378.625 868.421 378.326 868.642 377.955C868.869 377.584 868.982 377.18 868.982 376.742V375.344C868.895 375.416 868.745 375.483 868.534 375.544C868.328 375.606 868.096 375.66 867.838 375.707C867.581 375.753 867.326 375.794 867.073 375.83C866.821 375.866 866.602 375.897 866.417 375.923C865.999 375.98 865.626 376.072 865.296 376.201C864.966 376.33 864.706 376.51 864.516 376.742C864.325 376.969 864.23 377.263 864.23 377.623C864.23 378.138 864.418 378.527 864.794 378.79C865.17 379.053 865.649 379.184 866.231 379.184ZM873.255 371.426V369.131H883.641V371.426H879.8V381H877.096V371.426H873.255ZM894.021 373.906V376.201H887.7V373.906H894.021ZM888.565 369.131V381H885.868V369.131H888.565ZM895.852 369.131V381H893.163V369.131H895.852ZM903.86 381.232C902.701 381.232 901.696 380.977 900.846 380.467C899.996 379.957 899.337 379.243 898.868 378.326C898.404 377.409 898.172 376.338 898.172 375.112C898.172 373.886 898.404 372.812 898.868 371.889C899.337 370.967 899.996 370.251 900.846 369.741C901.696 369.231 902.701 368.976 903.86 368.976C905.019 368.976 906.023 369.231 906.873 369.741C907.723 370.251 908.38 370.967 908.844 371.889C909.313 372.812 909.547 373.886 909.547 375.112C909.547 376.338 909.313 377.409 908.844 378.326C908.38 379.243 907.723 379.957 906.873 380.467C906.023 380.977 905.019 381.232 903.86 381.232ZM903.875 378.991C904.504 378.991 905.029 378.818 905.452 378.473C905.874 378.123 906.188 377.654 906.394 377.067C906.606 376.479 906.711 375.825 906.711 375.104C906.711 374.378 906.606 373.721 906.394 373.134C906.188 372.541 905.874 372.07 905.452 371.719C905.029 371.369 904.504 371.194 903.875 371.194C903.231 371.194 902.695 371.369 902.268 371.719C901.845 372.07 901.529 372.541 901.317 373.134C901.111 373.721 901.008 374.378 901.008 375.104C901.008 375.825 901.111 376.479 901.317 377.067C901.529 377.654 901.845 378.123 902.268 378.473C902.695 378.818 903.231 378.991 903.875 378.991ZM917.176 381.232C915.986 381.232 914.958 380.985 914.093 380.49C913.232 379.99 912.57 379.285 912.107 378.373C911.643 377.456 911.411 376.376 911.411 375.135C911.411 373.914 911.643 372.842 912.107 371.92C912.576 370.993 913.23 370.272 914.07 369.757C914.909 369.236 915.896 368.976 917.029 368.976C917.761 368.976 918.451 369.095 919.1 369.332C919.754 369.563 920.331 369.924 920.831 370.413C921.336 370.903 921.733 371.526 922.021 372.283C922.31 373.036 922.454 373.932 922.454 374.973V375.83H912.725V373.945H919.772C919.767 373.409 919.651 372.933 919.425 372.515C919.198 372.093 918.881 371.761 918.474 371.518C918.072 371.276 917.604 371.155 917.068 371.155C916.496 371.155 915.994 371.294 915.561 371.573C915.128 371.846 914.791 372.206 914.549 372.654C914.312 373.097 914.191 373.584 914.185 374.115V375.761C914.185 376.451 914.312 377.044 914.564 377.538C914.817 378.028 915.169 378.404 915.623 378.666C916.076 378.924 916.607 379.053 917.215 379.053C917.622 379.053 917.99 378.996 918.32 378.883C918.649 378.764 918.935 378.592 919.177 378.365C919.419 378.138 919.602 377.858 919.726 377.523L922.338 377.816C922.173 378.507 921.859 379.109 921.395 379.625C920.937 380.135 920.349 380.531 919.633 380.815C918.917 381.093 918.098 381.232 917.176 381.232ZM935.395 381.232C934.236 381.232 933.232 380.977 932.382 380.467C931.532 379.957 930.872 379.243 930.403 378.326C929.94 377.409 929.708 376.338 929.708 375.112C929.708 373.886 929.94 372.812 930.403 371.889C930.872 370.967 931.532 370.251 932.382 369.741C933.232 369.231 934.236 368.976 935.395 368.976C936.554 368.976 937.559 369.231 938.409 369.741C939.259 370.251 939.916 370.967 940.379 371.889C940.848 372.812 941.083 373.886 941.083 375.112C941.083 376.338 940.848 377.409 940.379 378.326C939.916 379.243 939.259 379.957 938.409 380.467C937.559 380.977 936.554 381.232 935.395 381.232ZM935.411 378.991C936.039 378.991 936.565 378.818 936.987 378.473C937.41 378.123 937.724 377.654 937.93 377.067C938.141 376.479 938.247 375.825 938.247 375.104C938.247 374.378 938.141 373.721 937.93 373.134C937.724 372.541 937.41 372.07 936.987 371.719C936.565 371.369 936.039 371.194 935.411 371.194C934.767 371.194 934.231 371.369 933.803 371.719C933.381 372.07 933.064 372.541 932.853 373.134C932.647 373.721 932.544 374.378 932.544 375.104C932.544 375.825 932.647 376.479 932.853 377.067C933.064 377.654 933.381 378.123 933.803 378.473C934.231 378.818 934.767 378.991 935.411 378.991ZM952.969 364.742L953.943 366.55C953.598 366.849 953.211 367.065 952.784 367.199C952.356 367.333 951.854 367.42 951.277 367.462C950.705 367.498 950.025 367.523 949.237 367.539C948.351 367.559 947.627 367.727 947.066 368.041C946.504 368.355 946.074 368.832 945.775 369.471C945.476 370.104 945.28 370.913 945.188 371.897H945.319C945.69 371.171 946.21 370.617 946.88 370.236C947.55 369.855 948.335 369.664 949.237 369.664C950.221 369.664 951.089 369.885 951.841 370.328C952.598 370.766 953.188 371.403 953.611 372.237C954.038 373.072 954.252 374.081 954.252 375.266C954.252 376.487 954.023 377.546 953.564 378.442C953.106 379.333 952.454 380.021 951.609 380.505C950.77 380.99 949.773 381.232 948.619 381.232C947.47 381.232 946.471 380.982 945.62 380.482C944.776 379.977 944.121 379.233 943.658 378.249C943.199 377.26 942.97 376.042 942.97 374.594V373.528C942.97 370.735 943.49 368.652 944.531 367.276C945.572 365.901 947.114 365.2 949.16 365.174C949.768 365.164 950.311 365.161 950.79 365.167C951.274 365.172 951.697 365.149 952.057 365.097C952.418 365.046 952.722 364.927 952.969 364.742ZM948.634 378.991C949.206 378.991 949.701 378.844 950.118 378.55C950.535 378.252 950.855 377.829 951.076 377.283C951.303 376.737 951.416 376.091 951.416 375.344C951.416 374.607 951.303 373.981 951.076 373.466C950.849 372.945 950.527 372.549 950.11 372.276C949.693 372.003 949.196 371.866 948.619 371.866C948.186 371.866 947.797 371.943 947.452 372.098C947.107 372.253 946.813 372.479 946.571 372.778C946.329 373.077 946.143 373.44 946.015 373.868C945.886 374.295 945.816 374.787 945.806 375.344C945.806 376.461 946.058 377.35 946.563 378.009C947.068 378.664 947.758 378.991 948.634 378.991ZM961.887 381.232C960.697 381.232 959.669 380.985 958.803 380.49C957.943 379.99 957.281 379.285 956.818 378.373C956.354 377.456 956.122 376.376 956.122 375.135C956.122 373.914 956.354 372.842 956.818 371.92C957.286 370.993 957.941 370.272 958.78 369.757C959.62 369.236 960.607 368.976 961.74 368.976C962.471 368.976 963.162 369.095 963.811 369.332C964.465 369.563 965.042 369.924 965.542 370.413C966.047 370.903 966.443 371.526 966.732 372.283C967.02 373.036 967.164 373.932 967.164 374.973V375.83H957.436V373.945H964.483C964.478 373.409 964.362 372.933 964.135 372.515C963.909 372.093 963.592 371.761 963.185 371.518C962.783 371.276 962.314 371.155 961.778 371.155C961.207 371.155 960.704 371.294 960.272 371.573C959.839 371.846 959.501 372.206 959.259 372.654C959.022 373.097 958.901 373.584 958.896 374.115V375.761C958.896 376.451 959.022 377.044 959.275 377.538C959.527 378.028 959.88 378.404 960.333 378.666C960.787 378.924 961.317 379.053 961.925 379.053C962.332 379.053 962.701 378.996 963.03 378.883C963.36 378.764 963.646 378.592 963.888 378.365C964.13 378.138 964.313 377.858 964.437 377.523L967.049 377.816C966.884 378.507 966.569 379.109 966.106 379.625C965.647 380.135 965.06 380.531 964.344 380.815C963.628 381.093 962.809 381.232 961.887 381.232ZM974.708 381.232C973.523 381.232 972.506 380.972 971.656 380.451C970.811 379.931 970.159 379.212 969.701 378.295C969.248 377.373 969.021 376.312 969.021 375.112C969.021 373.906 969.253 372.842 969.716 371.92C970.18 370.993 970.834 370.272 971.679 369.757C972.529 369.236 973.534 368.976 974.693 368.976C975.656 368.976 976.509 369.154 977.251 369.509C977.998 369.86 978.593 370.357 979.036 371.001C979.479 371.64 979.731 372.387 979.793 373.242H977.119C977.011 372.67 976.754 372.193 976.347 371.812C975.945 371.426 975.406 371.233 974.732 371.233C974.16 371.233 973.657 371.387 973.225 371.696C972.792 372 972.455 372.438 972.212 373.01C971.975 373.582 971.857 374.267 971.857 375.065C971.857 375.874 971.975 376.57 972.212 377.152C972.449 377.729 972.782 378.174 973.209 378.489C973.642 378.798 974.149 378.952 974.732 378.952C975.144 378.952 975.512 378.875 975.837 378.72C976.166 378.561 976.442 378.331 976.663 378.033C976.885 377.734 977.037 377.371 977.119 376.943H979.793C979.726 377.783 979.479 378.527 979.051 379.176C978.624 379.82 978.041 380.325 977.305 380.691C976.568 381.052 975.703 381.232 974.708 381.232ZM982.09 381V369.131H992.112V381H989.416V371.426H984.764V381H982.09ZM1000.24 381.232C999.054 381.232 998.026 380.985 997.16 380.49C996.3 379.99 995.638 379.285 995.174 378.373C994.711 377.456 994.479 376.376 994.479 375.135C994.479 373.914 994.711 372.842 995.174 371.92C995.643 370.993 996.297 370.272 997.137 369.757C997.977 369.236 998.963 368.976 1000.1 368.976C1000.83 368.976 1001.52 369.095 1002.17 369.332C1002.82 369.563 1003.4 369.924 1003.9 370.413C1004.4 370.903 1004.8 371.526 1005.09 372.283C1005.38 373.036 1005.52 373.932 1005.52 374.973V375.83H995.793V373.945H1002.84C1002.83 373.409 1002.72 372.933 1002.49 372.515C1002.27 372.093 1001.95 371.761 1001.54 371.518C1001.14 371.276 1000.67 371.155 1000.14 371.155C999.564 371.155 999.061 371.294 998.629 371.573C998.196 371.846 997.858 372.206 997.616 372.654C997.379 373.097 997.258 373.584 997.253 374.115V375.761C997.253 376.451 997.379 377.044 997.632 377.538C997.884 378.028 998.237 378.404 998.69 378.666C999.144 378.924 999.674 379.053 1000.28 379.053C1000.69 379.053 1001.06 378.996 1001.39 378.883C1001.72 378.764 1002 378.592 1002.24 378.365C1002.49 378.138 1002.67 377.858 1002.79 377.523L1005.41 377.816C1005.24 378.507 1004.93 379.109 1004.46 379.625C1004 380.135 1003.42 380.531 1002.7 380.815C1001.98 381.093 1001.17 381.232 1000.24 381.232ZM1017.8 369.131V381H1015.11V369.131H1017.8ZM1016.54 374.494V376.781C1016.24 376.915 1015.89 377.036 1015.51 377.144C1015.13 377.247 1014.72 377.329 1014.29 377.391C1013.87 377.453 1013.45 377.484 1013.03 377.484C1011.44 377.484 1010.19 377.129 1009.26 376.418C1008.35 375.702 1007.89 374.586 1007.89 373.072V369.115H1010.56V373.072C1010.56 373.582 1010.65 373.991 1010.83 374.3C1011.01 374.609 1011.29 374.836 1011.65 374.98C1012.02 375.119 1012.48 375.189 1013.03 375.189C1013.64 375.189 1014.23 375.127 1014.79 375.004C1015.34 374.88 1015.93 374.71 1016.54 374.494ZM1025.87 381.232C1024.68 381.232 1023.65 380.985 1022.79 380.49C1021.93 379.99 1021.27 379.285 1020.8 378.373C1020.34 377.456 1020.11 376.376 1020.11 375.135C1020.11 373.914 1020.34 372.842 1020.8 371.92C1021.27 370.993 1021.93 370.272 1022.77 369.757C1023.6 369.236 1024.59 368.976 1025.72 368.976C1026.46 368.976 1027.15 369.095 1027.8 369.332C1028.45 369.563 1029.03 369.924 1029.53 370.413C1030.03 370.903 1030.43 371.526 1030.72 372.283C1031.01 373.036 1031.15 373.932 1031.15 374.973V375.83H1021.42V373.945H1028.47C1028.46 373.409 1028.35 372.933 1028.12 372.515C1027.89 372.093 1027.58 371.761 1027.17 371.518C1026.77 371.276 1026.3 371.155 1025.76 371.155C1025.19 371.155 1024.69 371.294 1024.26 371.573C1023.82 371.846 1023.49 372.206 1023.24 372.654C1023.01 373.097 1022.89 373.584 1022.88 374.115V375.761C1022.88 376.451 1023.01 377.044 1023.26 377.538C1023.51 378.028 1023.86 378.404 1024.32 378.666C1024.77 378.924 1025.3 379.053 1025.91 379.053C1026.32 379.053 1026.69 378.996 1027.02 378.883C1027.34 378.764 1027.63 378.592 1027.87 378.365C1028.11 378.138 1028.3 377.858 1028.42 377.523L1031.03 377.816C1030.87 378.507 1030.55 379.109 1030.09 379.625C1029.63 380.135 1029.04 380.531 1028.33 380.815C1027.61 381.093 1026.79 381.232 1025.87 381.232ZM1041.67 373.906V376.201H1035.35V373.906H1041.67ZM1036.21 369.131V381H1033.52V369.131H1036.21ZM1043.5 369.131V381H1040.81V369.131H1043.5ZM1049.03 377.214L1053.78 369.131H1056.65V381H1053.95V372.909L1049.21 381H1046.33V369.131H1049.03V377.214ZM1064.78 381.232C1063.59 381.232 1062.56 380.985 1061.7 380.49C1060.84 379.99 1060.18 379.285 1059.71 378.373C1059.25 377.456 1059.02 376.376 1059.02 375.135C1059.02 373.914 1059.25 372.842 1059.71 371.92C1060.18 370.993 1060.83 370.272 1061.67 369.757C1062.51 369.236 1063.5 368.976 1064.63 368.976C1065.37 368.976 1066.06 369.095 1066.7 369.332C1067.36 369.563 1067.94 369.924 1068.44 370.413C1068.94 370.903 1069.34 371.526 1069.63 372.283C1069.91 373.036 1070.06 373.932 1070.06 374.973V375.83H1060.33V373.945H1067.38C1067.37 373.409 1067.26 372.933 1067.03 372.515C1066.8 372.093 1066.49 371.761 1066.08 371.518C1065.68 371.276 1065.21 371.155 1064.67 371.155C1064.1 371.155 1063.6 371.294 1063.17 371.573C1062.73 371.846 1062.4 372.206 1062.15 372.654C1061.92 373.097 1061.8 373.584 1061.79 374.115V375.761C1061.79 376.451 1061.92 377.044 1062.17 377.538C1062.42 378.028 1062.77 378.404 1063.23 378.666C1063.68 378.924 1064.21 379.053 1064.82 379.053C1065.23 379.053 1065.59 378.996 1065.92 378.883C1066.25 378.764 1066.54 378.592 1066.78 378.365C1067.02 378.138 1067.21 377.858 1067.33 377.523L1069.94 377.816C1069.78 378.507 1069.46 379.109 1069 379.625C1068.54 380.135 1067.95 380.531 1067.24 380.815C1066.52 381.093 1065.7 381.232 1064.78 381.232Z" fill="black"/>
<rect x="664" y="341" width="536" height="65" stroke="#58A982" stroke-width="2"/>
<rect x="644.5" y="136.5" width="575" height="289" stroke="#ABD4C1"/>
<path d="M760.094 170L748.547 190L737 170L760.094 170Z" fill="#FFBD6E"/>
<path d="M749.3 171V100H210V190" stroke="#FFBD6E" stroke-width="10"/>
</svg>
