<svg width="705" height="490" viewBox="0 0 705 490" fill="none" xmlns="http://www.w3.org/2000/svg">
<rect x="100.5" y="100.5" width="504" height="289" fill="#F1F7F5"/>
<path d="M322.624 128.807H319.264C319.168 128.256 318.991 127.768 318.734 127.342C318.476 126.911 318.156 126.546 317.772 126.246C317.389 125.947 316.952 125.722 316.46 125.572C315.975 125.417 315.451 125.339 314.888 125.339C313.888 125.339 313.001 125.59 312.228 126.094C311.456 126.591 310.851 127.322 310.413 128.286C309.976 129.244 309.757 130.415 309.757 131.799C309.757 133.207 309.976 134.393 310.413 135.357C310.857 136.316 311.462 137.041 312.228 137.532C313.001 138.017 313.885 138.26 314.879 138.26C315.43 138.26 315.945 138.188 316.424 138.044C316.91 137.894 317.344 137.675 317.727 137.388C318.117 137.1 318.443 136.747 318.707 136.328C318.976 135.908 319.162 135.429 319.264 134.89L322.624 134.908C322.498 135.783 322.226 136.603 321.807 137.37C321.393 138.137 320.851 138.814 320.18 139.401C319.509 139.982 318.725 140.437 317.826 140.766C316.928 141.09 315.93 141.252 314.834 141.252C313.217 141.252 311.773 140.877 310.503 140.128C309.233 139.38 308.233 138.298 307.502 136.885C306.771 135.471 306.406 133.776 306.406 131.799C306.406 129.816 306.774 128.121 307.511 126.714C308.248 125.3 309.251 124.219 310.521 123.47C311.791 122.721 313.229 122.347 314.834 122.347C315.858 122.347 316.811 122.49 317.691 122.778C318.572 123.066 319.357 123.488 320.045 124.045C320.734 124.596 321.3 125.273 321.744 126.076C322.193 126.872 322.486 127.783 322.624 128.807ZM331.643 141.27C330.259 141.27 329.064 140.982 328.058 140.407C327.058 139.826 326.288 139.005 325.749 137.945C325.21 136.879 324.94 135.624 324.94 134.18C324.94 132.761 325.21 131.515 325.749 130.442C326.294 129.364 327.055 128.526 328.031 127.927C329.007 127.322 330.155 127.019 331.472 127.019C332.323 127.019 333.126 127.157 333.88 127.432C334.641 127.702 335.312 128.121 335.893 128.69C336.48 129.259 336.941 129.984 337.277 130.865C337.612 131.739 337.78 132.782 337.78 133.992V134.989H326.468V132.797H334.662C334.656 132.174 334.521 131.619 334.258 131.134C333.994 130.643 333.626 130.257 333.153 129.975C332.685 129.694 332.14 129.553 331.517 129.553C330.852 129.553 330.268 129.715 329.765 130.038C329.262 130.356 328.87 130.775 328.588 131.296C328.313 131.811 328.172 132.377 328.166 132.994V134.908C328.166 135.711 328.313 136.4 328.606 136.975C328.9 137.544 329.31 137.981 329.837 138.286C330.364 138.586 330.981 138.736 331.688 138.736C332.161 138.736 332.59 138.67 332.973 138.538C333.356 138.4 333.689 138.2 333.97 137.936C334.252 137.672 334.464 137.346 334.608 136.957L337.645 137.298C337.454 138.101 337.088 138.802 336.549 139.401C336.016 139.994 335.333 140.455 334.5 140.784C333.668 141.108 332.715 141.27 331.643 141.27ZM340.532 146.175V127.199H343.73V129.481H343.919C344.087 129.146 344.323 128.789 344.629 128.412C344.934 128.028 345.348 127.702 345.869 127.432C346.39 127.157 347.055 127.019 347.864 127.019C348.93 127.019 349.891 127.292 350.748 127.837C351.61 128.376 352.293 129.175 352.797 130.236C353.306 131.29 353.56 132.584 353.56 134.117C353.56 135.633 353.312 136.921 352.814 137.981C352.317 139.041 351.64 139.85 350.784 140.407C349.927 140.964 348.957 141.243 347.873 141.243C347.082 141.243 346.426 141.111 345.905 140.847C345.384 140.584 344.964 140.266 344.647 139.895C344.335 139.517 344.093 139.161 343.919 138.826H343.784V146.175H340.532ZM343.721 134.099C343.721 134.992 343.847 135.774 344.099 136.445C344.356 137.115 344.725 137.64 345.204 138.017C345.689 138.388 346.276 138.574 346.965 138.574C347.684 138.574 348.286 138.382 348.771 137.999C349.256 137.61 349.622 137.079 349.867 136.409C350.119 135.732 350.245 134.962 350.245 134.099C350.245 133.243 350.122 132.482 349.876 131.817C349.631 131.152 349.265 130.631 348.78 130.254C348.295 129.876 347.69 129.688 346.965 129.688C346.27 129.688 345.68 129.87 345.195 130.236C344.71 130.601 344.341 131.113 344.09 131.772C343.844 132.431 343.721 133.207 343.721 134.099ZM356.346 141V127.199H362.141C363.776 127.199 365.067 127.525 366.014 128.178C366.966 128.831 367.442 129.742 367.442 130.91C367.442 131.682 367.173 132.314 366.634 132.805C366.101 133.291 365.373 133.617 364.45 133.785C365.175 133.845 365.81 134.027 366.355 134.333C366.906 134.638 367.338 135.04 367.649 135.537C367.961 136.034 368.116 136.606 368.116 137.253C368.116 138.014 367.916 138.676 367.514 139.239C367.119 139.796 366.541 140.23 365.78 140.542C365.025 140.847 364.109 141 363.031 141H356.346ZM359.392 138.439H363.031C363.63 138.439 364.1 138.298 364.441 138.017C364.783 137.729 364.953 137.34 364.953 136.849C364.953 136.28 364.783 135.834 364.441 135.51C364.1 135.181 363.63 135.016 363.031 135.016H359.392V138.439ZM359.392 132.913H362.204C362.647 132.913 363.028 132.85 363.345 132.725C363.663 132.593 363.905 132.41 364.073 132.177C364.241 131.937 364.325 131.652 364.325 131.323C364.325 130.85 364.13 130.478 363.74 130.209C363.357 129.939 362.824 129.804 362.141 129.804H359.392V132.913ZM376.911 141.27C375.527 141.27 374.332 140.982 373.325 140.407C372.325 139.826 371.555 139.005 371.016 137.945C370.477 136.879 370.208 135.624 370.208 134.18C370.208 132.761 370.477 131.515 371.016 130.442C371.561 129.364 372.322 128.526 373.298 127.927C374.275 127.322 375.422 127.019 376.74 127.019C377.59 127.019 378.393 127.157 379.148 127.432C379.909 127.702 380.58 128.121 381.161 128.69C381.748 129.259 382.209 129.984 382.544 130.865C382.88 131.739 383.047 132.782 383.047 133.992V134.989H371.735V132.797H379.93C379.924 132.174 379.789 131.619 379.525 131.134C379.262 130.643 378.893 130.257 378.42 129.975C377.953 129.694 377.408 129.553 376.785 129.553C376.12 129.553 375.536 129.715 375.033 130.038C374.529 130.356 374.137 130.775 373.856 131.296C373.58 131.811 373.439 132.377 373.433 132.994V134.908C373.433 135.711 373.58 136.4 373.874 136.975C374.167 137.544 374.577 137.981 375.105 138.286C375.632 138.586 376.249 138.736 376.955 138.736C377.429 138.736 377.857 138.67 378.24 138.538C378.624 138.4 378.956 138.2 379.238 137.936C379.519 137.672 379.732 137.346 379.876 136.957L382.913 137.298C382.721 138.101 382.356 138.802 381.816 139.401C381.283 139.994 380.6 140.455 379.768 140.784C378.935 141.108 377.983 141.27 376.911 141.27ZM385.799 146.175V127.199H388.998V129.481H389.187C389.354 129.146 389.591 128.789 389.896 128.412C390.202 128.028 390.615 127.702 391.136 127.432C391.658 127.157 392.322 127.019 393.131 127.019C394.197 127.019 395.159 127.292 396.015 127.837C396.878 128.376 397.561 129.175 398.064 130.236C398.573 131.29 398.828 132.584 398.828 134.117C398.828 135.633 398.579 136.921 398.082 137.981C397.585 139.041 396.908 139.85 396.051 140.407C395.195 140.964 394.224 141.243 393.14 141.243C392.349 141.243 391.693 141.111 391.172 140.847C390.651 140.584 390.232 140.266 389.914 139.895C389.603 139.517 389.36 139.161 389.187 138.826H389.052V146.175H385.799ZM388.989 134.099C388.989 134.992 389.115 135.774 389.366 136.445C389.624 137.115 389.992 137.64 390.471 138.017C390.957 138.388 391.544 138.574 392.233 138.574C392.951 138.574 393.553 138.382 394.039 137.999C394.524 137.61 394.889 137.079 395.135 136.409C395.386 135.732 395.512 134.962 395.512 134.099C395.512 133.243 395.389 132.482 395.144 131.817C394.898 131.152 394.533 130.631 394.048 130.254C393.562 129.876 392.957 129.688 392.233 129.688C391.538 129.688 390.948 129.87 390.462 130.236C389.977 130.601 389.609 131.113 389.357 131.772C389.112 132.431 388.989 133.207 388.989 134.099Z" fill="black"/>
<rect x="120" y="155" width="177" height="65" fill="#DBEEE5"/>
<path d="M156.19 187.087C156.19 188.792 155.871 190.253 155.232 191.469C154.599 192.679 153.733 193.606 152.636 194.25C151.544 194.894 150.305 195.216 148.919 195.216C147.533 195.216 146.292 194.894 145.194 194.25C144.102 193.601 143.237 192.671 142.598 191.461C141.964 190.245 141.647 188.787 141.647 187.087C141.647 185.382 141.964 183.924 142.598 182.713C143.237 181.498 144.102 180.568 145.194 179.924C146.292 179.28 147.533 178.958 148.919 178.958C150.305 178.958 151.544 179.28 152.636 179.924C153.733 180.568 154.599 181.498 155.232 182.713C155.871 183.924 156.19 185.382 156.19 187.087ZM153.308 187.087C153.308 185.887 153.12 184.875 152.744 184.05C152.373 183.221 151.858 182.595 151.198 182.173C150.539 181.745 149.779 181.531 148.919 181.531C148.059 181.531 147.299 181.745 146.639 182.173C145.98 182.595 145.462 183.221 145.086 184.05C144.715 184.875 144.53 185.887 144.53 187.087C144.53 188.287 144.715 189.302 145.086 190.132C145.462 190.956 145.98 191.582 146.639 192.009C147.299 192.432 148.059 192.643 148.919 192.643C149.779 192.643 150.539 192.432 151.198 192.009C151.858 191.582 152.373 190.956 152.744 190.132C153.12 189.302 153.308 188.287 153.308 187.087ZM172.447 184.514H169.557C169.474 184.04 169.322 183.62 169.101 183.254C168.879 182.883 168.604 182.569 168.274 182.312C167.944 182.054 167.568 181.861 167.146 181.732C166.729 181.598 166.278 181.531 165.794 181.531C164.933 181.531 164.171 181.748 163.506 182.18C162.842 182.608 162.321 183.236 161.945 184.066C161.569 184.89 161.381 185.897 161.381 187.087C161.381 188.298 161.569 189.318 161.945 190.147C162.327 190.971 162.847 191.595 163.506 192.017C164.171 192.435 164.931 192.643 165.786 192.643C166.26 192.643 166.703 192.581 167.115 192.458C167.532 192.329 167.906 192.141 168.235 191.894C168.57 191.646 168.851 191.342 169.078 190.982C169.31 190.621 169.469 190.209 169.557 189.745L172.447 189.761C172.339 190.513 172.104 191.219 171.744 191.878C171.388 192.538 170.922 193.12 170.345 193.625C169.768 194.124 169.093 194.516 168.32 194.799C167.548 195.077 166.69 195.216 165.747 195.216C164.356 195.216 163.115 194.894 162.023 194.25C160.93 193.606 160.07 192.677 159.442 191.461C158.813 190.245 158.499 188.787 158.499 187.087C158.499 185.382 158.816 183.924 159.449 182.713C160.083 181.498 160.946 180.568 162.038 179.924C163.13 179.28 164.367 178.958 165.747 178.958C166.628 178.958 167.447 179.082 168.205 179.329C168.962 179.576 169.637 179.939 170.229 180.418C170.822 180.892 171.308 181.474 171.69 182.165C172.076 182.85 172.328 183.633 172.447 184.514ZM183.8 195L179.334 179.174H182.417L185.269 190.804H185.415L188.46 179.174H191.265L194.317 190.812H194.456L197.308 179.174H200.391L195.925 195H193.096L189.928 183.896H189.805L186.629 195H183.8ZM202.255 195V183.131H205.053V195H202.255ZM203.662 181.446C203.219 181.446 202.837 181.299 202.518 181.006C202.199 180.707 202.039 180.349 202.039 179.932C202.039 179.509 202.199 179.151 202.518 178.857C202.837 178.559 203.219 178.409 203.662 178.409C204.11 178.409 204.491 178.559 204.805 178.857C205.125 179.151 205.284 179.509 205.284 179.932C205.284 180.349 205.125 180.707 204.805 181.006C204.491 181.299 204.11 181.446 203.662 181.446ZM210.726 188.045V195H207.929V183.131H210.603V185.148H210.742C211.015 184.483 211.45 183.955 212.048 183.563C212.651 183.172 213.395 182.976 214.281 182.976C215.1 182.976 215.814 183.151 216.422 183.502C217.035 183.852 217.509 184.359 217.843 185.024C218.183 185.688 218.351 186.495 218.346 187.443V195H215.548V187.875C215.548 187.082 215.342 186.461 214.93 186.013C214.523 185.565 213.959 185.341 213.238 185.341C212.748 185.341 212.313 185.449 211.932 185.665C211.556 185.877 211.26 186.183 211.043 186.585C210.832 186.987 210.726 187.474 210.726 188.045ZM225.594 195.209C224.662 195.209 223.827 194.969 223.09 194.49C222.354 194.011 221.771 193.315 221.344 192.404C220.916 191.492 220.703 190.384 220.703 189.081C220.703 187.762 220.919 186.649 221.352 185.743C221.79 184.831 222.379 184.143 223.121 183.679C223.863 183.211 224.69 182.976 225.602 182.976C226.297 182.976 226.869 183.095 227.317 183.332C227.765 183.563 228.121 183.844 228.384 184.174C228.646 184.498 228.85 184.805 228.994 185.093H229.11V179.174H231.915V195H229.164V193.13H228.994C228.85 193.418 228.641 193.725 228.368 194.05C228.095 194.369 227.734 194.642 227.286 194.869C226.838 195.095 226.274 195.209 225.594 195.209ZM226.374 192.914C226.967 192.914 227.472 192.754 227.889 192.435C228.306 192.11 228.623 191.659 228.839 191.082C229.056 190.505 229.164 189.833 229.164 189.065C229.164 188.298 229.056 187.631 228.839 187.064C228.628 186.497 228.314 186.057 227.897 185.743C227.485 185.428 226.977 185.271 226.374 185.271C225.751 185.271 225.231 185.433 224.813 185.758C224.396 186.083 224.082 186.531 223.871 187.103C223.66 187.674 223.554 188.329 223.554 189.065C223.554 189.807 223.66 190.469 223.871 191.051C224.087 191.628 224.404 192.084 224.821 192.419C225.244 192.749 225.761 192.914 226.374 192.914ZM240.073 195.232C238.914 195.232 237.909 194.977 237.059 194.467C236.209 193.957 235.55 193.243 235.081 192.326C234.618 191.409 234.386 190.338 234.386 189.112C234.386 187.886 234.618 186.812 235.081 185.889C235.55 184.967 236.209 184.251 237.059 183.741C237.909 183.231 238.914 182.976 240.073 182.976C241.232 182.976 242.237 183.231 243.087 183.741C243.937 184.251 244.594 184.967 245.057 185.889C245.526 186.812 245.761 187.886 245.761 189.112C245.761 190.338 245.526 191.409 245.057 192.326C244.594 193.243 243.937 193.957 243.087 194.467C242.237 194.977 241.232 195.232 240.073 195.232ZM240.089 192.991C240.717 192.991 241.243 192.818 241.665 192.473C242.087 192.123 242.402 191.654 242.608 191.067C242.819 190.479 242.925 189.825 242.925 189.104C242.925 188.378 242.819 187.721 242.608 187.134C242.402 186.541 242.087 186.07 241.665 185.719C241.243 185.369 240.717 185.194 240.089 185.194C239.445 185.194 238.909 185.369 238.481 185.719C238.059 186.07 237.742 186.541 237.531 187.134C237.325 187.721 237.222 188.378 237.222 189.104C237.222 189.825 237.325 190.479 237.531 191.067C237.742 191.654 238.059 192.123 238.481 192.473C238.909 192.818 239.445 192.991 240.089 192.991ZM250.244 195L246.891 183.131H249.742L251.828 191.476H251.937L254.069 183.131H256.89L259.023 191.43H259.139L261.194 183.131H264.053L260.692 195H257.779L255.553 186.979H255.391L253.165 195H250.244ZM275.387 186.268L272.837 186.546C272.765 186.289 272.639 186.047 272.459 185.82C272.284 185.593 272.047 185.41 271.748 185.271C271.449 185.132 271.083 185.063 270.65 185.063C270.068 185.063 269.579 185.189 269.182 185.441C268.791 185.694 268.598 186.021 268.603 186.423C268.598 186.768 268.724 187.049 268.981 187.265C269.244 187.481 269.677 187.659 270.28 187.798L272.304 188.231C273.427 188.473 274.262 188.857 274.808 189.382C275.359 189.908 275.637 190.595 275.642 191.445C275.637 192.192 275.418 192.852 274.986 193.424C274.558 193.99 273.963 194.433 273.201 194.753C272.438 195.072 271.562 195.232 270.573 195.232C269.12 195.232 267.951 194.928 267.065 194.32C266.179 193.707 265.651 192.854 265.481 191.762L268.209 191.499C268.332 192.035 268.595 192.44 268.997 192.713C269.399 192.986 269.922 193.122 270.565 193.122C271.23 193.122 271.763 192.986 272.165 192.713C272.572 192.44 272.776 192.102 272.776 191.7C272.776 191.36 272.644 191.08 272.381 190.858C272.124 190.637 271.722 190.467 271.176 190.348L269.151 189.923C268.013 189.686 267.171 189.287 266.625 188.725C266.078 188.159 265.808 187.443 265.813 186.577C265.808 185.846 266.006 185.212 266.408 184.676C266.815 184.135 267.379 183.718 268.1 183.424C268.827 183.126 269.664 182.976 270.612 182.976C272.003 182.976 273.097 183.272 273.896 183.865C274.7 184.457 275.197 185.258 275.387 186.268Z" fill="black"/>
<rect x="120" y="155" width="177" height="65" stroke="#58A982" stroke-width="2"/>
<rect x="307" y="155" width="136" height="65" fill="#DBEEE5"/>
<path d="M343.123 187.087C343.123 188.792 342.803 190.253 342.164 191.469C341.531 192.679 340.665 193.606 339.568 194.25C338.476 194.894 337.237 195.216 335.851 195.216C334.465 195.216 333.224 194.894 332.126 194.25C331.034 193.601 330.169 192.671 329.53 191.461C328.896 190.245 328.58 188.787 328.58 187.087C328.58 185.382 328.896 183.924 329.53 182.713C330.169 181.498 331.034 180.568 332.126 179.924C333.224 179.28 334.465 178.958 335.851 178.958C337.237 178.958 338.476 179.28 339.568 179.924C340.665 180.568 341.531 181.498 342.164 182.713C342.803 183.924 343.123 185.382 343.123 187.087ZM340.24 187.087C340.24 185.887 340.052 184.875 339.676 184.05C339.305 183.221 338.79 182.595 338.131 182.173C337.471 181.745 336.711 181.531 335.851 181.531C334.991 181.531 334.231 181.745 333.571 182.173C332.912 182.595 332.394 183.221 332.018 184.05C331.647 184.875 331.462 185.887 331.462 187.087C331.462 188.287 331.647 189.302 332.018 190.132C332.394 190.956 332.912 191.582 333.571 192.009C334.231 192.432 334.991 192.643 335.851 192.643C336.711 192.643 337.471 192.432 338.131 192.009C338.79 191.582 339.305 190.956 339.676 190.132C340.052 189.302 340.24 188.287 340.24 187.087ZM359.379 184.514H356.489C356.407 184.04 356.255 183.62 356.033 183.254C355.812 182.883 355.536 182.569 355.206 182.312C354.877 182.054 354.501 181.861 354.078 181.732C353.661 181.598 353.21 181.531 352.726 181.531C351.865 181.531 351.103 181.748 350.438 182.18C349.774 182.608 349.254 183.236 348.878 184.066C348.501 184.89 348.313 185.897 348.313 187.087C348.313 188.298 348.501 189.318 348.878 190.147C349.259 190.971 349.779 191.595 350.438 192.017C351.103 192.435 351.863 192.643 352.718 192.643C353.192 192.643 353.635 192.581 354.047 192.458C354.464 192.329 354.838 192.141 355.168 191.894C355.502 191.646 355.783 191.342 356.01 190.982C356.242 190.621 356.401 190.209 356.489 189.745L359.379 189.761C359.271 190.513 359.036 191.219 358.676 191.878C358.32 192.538 357.854 193.12 357.277 193.625C356.7 194.124 356.025 194.516 355.253 194.799C354.48 195.077 353.622 195.216 352.679 195.216C351.288 195.216 350.047 194.894 348.955 194.25C347.863 193.606 347.002 192.677 346.374 191.461C345.745 190.245 345.431 188.787 345.431 187.087C345.431 185.382 345.748 183.924 346.382 182.713C347.015 181.498 347.878 180.568 348.97 179.924C350.062 179.28 351.299 178.958 352.679 178.958C353.56 178.958 354.379 179.082 355.137 179.329C355.894 179.576 356.569 179.939 357.161 180.418C357.754 180.892 358.241 181.474 358.622 182.165C359.008 182.85 359.261 183.633 359.379 184.514ZM367.402 195V179.174H370.269V192.597H377.239V195H367.402ZM379.604 195V183.131H382.401V195H379.604ZM381.01 181.446C380.567 181.446 380.186 181.299 379.866 181.006C379.547 180.707 379.387 180.349 379.387 179.932C379.387 179.509 379.547 179.151 379.866 178.857C380.186 178.559 380.567 178.409 381.01 178.409C381.458 178.409 381.839 178.559 382.154 178.857C382.473 179.151 382.633 179.509 382.633 179.932C382.633 180.349 382.473 180.707 382.154 181.006C381.839 181.299 381.458 181.446 381.01 181.446ZM388.075 188.045V195H385.277V183.131H387.951V185.148H388.09C388.363 184.483 388.799 183.955 389.396 183.563C389.999 183.172 390.743 182.976 391.629 182.976C392.448 182.976 393.162 183.151 393.77 183.502C394.383 183.852 394.857 184.359 395.192 185.024C395.532 185.688 395.699 186.495 395.694 187.443V195H392.897V187.875C392.897 187.082 392.691 186.461 392.278 186.013C391.871 185.565 391.307 185.341 390.586 185.341C390.097 185.341 389.661 185.449 389.28 185.665C388.904 185.877 388.608 186.183 388.392 186.585C388.18 186.987 388.075 187.474 388.075 188.045ZM406.103 190.008V183.131H408.9V195H406.188V192.89H406.064C405.796 193.555 405.356 194.098 404.743 194.521C404.135 194.943 403.385 195.155 402.494 195.155C401.716 195.155 401.028 194.982 400.431 194.637C399.838 194.287 399.375 193.779 399.04 193.115C398.705 192.445 398.538 191.636 398.538 190.688V183.131H401.335V190.255C401.335 191.008 401.541 191.605 401.953 192.048C402.365 192.491 402.906 192.713 403.576 192.713C403.988 192.713 404.387 192.612 404.774 192.411C405.16 192.21 405.477 191.912 405.724 191.515C405.977 191.113 406.103 190.611 406.103 190.008ZM414.064 183.131L416.459 187.512L418.894 183.131H421.853L418.275 189.065L421.915 195H418.971L416.459 190.727L413.971 195H411.004L414.62 189.065L411.097 183.131H414.064Z" fill="black"/>
<rect x="307" y="155" width="136" height="65" stroke="#58A982" stroke-width="2"/>
<rect x="453" y="155" width="132" height="65" fill="#DBEEE5"/>
<path d="M488.95 187.087C488.95 188.792 488.631 190.253 487.992 191.469C487.358 192.679 486.493 193.606 485.395 194.25C484.303 194.894 483.064 195.216 481.679 195.216C480.293 195.216 479.051 194.894 477.954 194.25C476.862 193.601 475.996 192.671 475.358 191.461C474.724 190.245 474.407 188.787 474.407 187.087C474.407 185.382 474.724 183.924 475.358 182.713C475.996 181.498 476.862 180.568 477.954 179.924C479.051 179.28 480.293 178.958 481.679 178.958C483.064 178.958 484.303 179.28 485.395 179.924C486.493 180.568 487.358 181.498 487.992 182.713C488.631 183.924 488.95 185.382 488.95 187.087ZM486.068 187.087C486.068 185.887 485.88 184.875 485.504 184.05C485.133 183.221 484.618 182.595 483.958 182.173C483.299 181.745 482.539 181.531 481.679 181.531C480.818 181.531 480.058 181.745 479.399 182.173C478.74 182.595 478.222 183.221 477.846 184.05C477.475 184.875 477.289 185.887 477.289 187.087C477.289 188.287 477.475 189.302 477.846 190.132C478.222 190.956 478.74 191.582 479.399 192.009C480.058 192.432 480.818 192.643 481.679 192.643C482.539 192.643 483.299 192.432 483.958 192.009C484.618 191.582 485.133 190.956 485.504 190.132C485.88 189.302 486.068 188.287 486.068 187.087ZM505.207 184.514H502.317C502.234 184.04 502.082 183.62 501.861 183.254C501.639 182.883 501.364 182.569 501.034 182.312C500.704 182.054 500.328 181.861 499.906 181.732C499.488 181.598 499.038 181.531 498.553 181.531C497.693 181.531 496.931 181.748 496.266 182.18C495.601 182.608 495.081 183.236 494.705 184.066C494.329 184.89 494.141 185.897 494.141 187.087C494.141 188.298 494.329 189.318 494.705 190.147C495.086 190.971 495.607 191.595 496.266 192.017C496.931 192.435 497.69 192.643 498.546 192.643C499.02 192.643 499.463 192.581 499.875 192.458C500.292 192.329 500.665 192.141 500.995 191.894C501.33 191.646 501.611 191.342 501.837 190.982C502.069 190.621 502.229 190.209 502.317 189.745L505.207 189.761C505.098 190.513 504.864 191.219 504.503 191.878C504.148 192.538 503.682 193.12 503.105 193.625C502.528 194.124 501.853 194.516 501.08 194.799C500.307 195.077 499.45 195.216 498.507 195.216C497.116 195.216 495.874 194.894 494.782 194.25C493.69 193.606 492.83 192.677 492.201 191.461C491.573 190.245 491.259 188.787 491.259 187.087C491.259 185.382 491.575 183.924 492.209 182.713C492.843 181.498 493.706 180.568 494.798 179.924C495.89 179.28 497.126 178.958 498.507 178.958C499.388 178.958 500.207 179.082 500.964 179.329C501.722 179.576 502.396 179.939 502.989 180.418C503.581 180.892 504.068 181.474 504.449 182.165C504.836 182.85 505.088 183.633 505.207 184.514ZM523.206 179.174H526.072V189.514C526.072 190.647 525.805 191.644 525.269 192.504C524.738 193.364 523.991 194.037 523.028 194.521C522.065 195 520.939 195.24 519.651 195.24C518.358 195.24 517.23 195 516.266 194.521C515.303 194.037 514.556 193.364 514.025 192.504C513.495 191.644 513.23 190.647 513.23 189.514V179.174H516.096V189.274C516.096 189.933 516.241 190.521 516.529 191.036C516.823 191.551 517.235 191.955 517.766 192.249C518.296 192.538 518.925 192.682 519.651 192.682C520.377 192.682 521.006 192.538 521.537 192.249C522.072 191.955 522.484 191.551 522.773 191.036C523.061 190.521 523.206 189.933 523.206 189.274V179.174ZM542.194 179.174V195H539.644L532.187 184.22H532.055V195H529.189V179.174H531.754L539.203 189.962H539.342V179.174H542.194ZM548.184 179.174V195H545.318V179.174H548.184ZM553.684 179.174L557.169 184.97H557.293L560.794 179.174H564.062L559.186 187.087L564.14 195H560.817L557.293 189.243H557.169L553.646 195H550.338L555.338 187.087L550.4 179.174H553.684Z" fill="black"/>
<rect x="453" y="155" width="132" height="65" stroke="#58A982" stroke-width="2"/>
<rect x="120" y="230" width="465" height="65" fill="#DBEEE5"/>
<path d="M300.413 254.174V256.578H293.102V270H290.236V254.174H300.413ZM304.178 266.214L308.93 258.131H311.805V270H309.1V261.909L304.363 270H301.481V258.131H304.178V266.214ZM314.677 270V258.131H324.7V270H322.003V260.426H317.351V270H314.677ZM332.831 270.232C331.641 270.232 330.613 269.985 329.748 269.49C328.887 268.99 328.225 268.285 327.762 267.373C327.298 266.456 327.066 265.376 327.066 264.135C327.066 262.914 327.298 261.842 327.762 260.92C328.23 259.993 328.885 259.272 329.724 258.757C330.564 258.236 331.551 257.976 332.684 257.976C333.416 257.976 334.106 258.095 334.755 258.332C335.409 258.563 335.986 258.924 336.486 259.413C336.991 259.903 337.387 260.526 337.676 261.283C337.964 262.036 338.109 262.932 338.109 263.973V264.83H328.38V262.945H335.427C335.422 262.409 335.306 261.933 335.08 261.515C334.853 261.093 334.536 260.761 334.129 260.518C333.727 260.276 333.258 260.155 332.723 260.155C332.151 260.155 331.649 260.294 331.216 260.573C330.783 260.846 330.446 261.206 330.204 261.654C329.967 262.097 329.846 262.584 329.84 263.115V264.761C329.84 265.451 329.967 266.044 330.219 266.538C330.471 267.028 330.824 267.404 331.278 267.666C331.731 267.924 332.262 268.053 332.87 268.053C333.276 268.053 333.645 267.996 333.975 267.883C334.304 267.764 334.59 267.592 334.832 267.365C335.074 267.138 335.257 266.858 335.381 266.523L337.993 266.816C337.828 267.507 337.514 268.109 337.05 268.625C336.592 269.135 336.004 269.531 335.288 269.815C334.572 270.093 333.753 270.232 332.831 270.232ZM340.475 274.451V258.131H343.226V260.093H343.388C343.533 259.805 343.736 259.498 343.999 259.174C344.262 258.844 344.617 258.563 345.065 258.332C345.513 258.095 346.085 257.976 346.781 257.976C347.698 257.976 348.525 258.211 349.261 258.679C350.003 259.143 350.59 259.831 351.023 260.743C351.461 261.649 351.68 262.762 351.68 264.081C351.68 265.384 351.466 266.492 351.039 267.404C350.611 268.315 350.029 269.011 349.292 269.49C348.555 269.969 347.721 270.209 346.788 270.209C346.108 270.209 345.544 270.095 345.096 269.869C344.648 269.642 344.287 269.369 344.014 269.05C343.746 268.725 343.538 268.418 343.388 268.13H343.273V274.451H340.475ZM343.218 264.065C343.218 264.833 343.327 265.505 343.543 266.082C343.764 266.659 344.081 267.11 344.493 267.435C344.911 267.754 345.416 267.914 346.008 267.914C346.626 267.914 347.144 267.749 347.561 267.419C347.979 267.084 348.293 266.628 348.504 266.051C348.72 265.469 348.829 264.807 348.829 264.065C348.829 263.329 348.723 262.674 348.512 262.103C348.3 261.531 347.986 261.083 347.569 260.758C347.152 260.433 346.631 260.271 346.008 260.271C345.41 260.271 344.903 260.428 344.486 260.743C344.068 261.057 343.752 261.497 343.535 262.064C343.324 262.631 343.218 263.298 343.218 264.065ZM354.075 270V258.131H359.06C360.466 258.131 361.576 258.411 362.39 258.973C363.209 259.535 363.619 260.318 363.619 261.322C363.619 261.987 363.387 262.53 362.923 262.953C362.465 263.37 361.839 263.651 361.046 263.795C361.669 263.846 362.215 264.004 362.684 264.266C363.158 264.529 363.529 264.874 363.796 265.302C364.064 265.729 364.198 266.221 364.198 266.778C364.198 267.432 364.026 268.001 363.681 268.485C363.341 268.965 362.843 269.338 362.189 269.606C361.54 269.869 360.752 270 359.825 270H354.075ZM356.695 267.798H359.825C360.34 267.798 360.744 267.677 361.038 267.435C361.331 267.187 361.478 266.852 361.478 266.43C361.478 265.941 361.331 265.557 361.038 265.279C360.744 264.995 360.34 264.854 359.825 264.854H356.695V267.798ZM356.695 263.045H359.114C359.495 263.045 359.822 262.991 360.095 262.883C360.368 262.77 360.577 262.613 360.721 262.412C360.865 262.206 360.937 261.961 360.937 261.678C360.937 261.271 360.77 260.951 360.435 260.719C360.105 260.488 359.647 260.372 359.06 260.372H356.695V263.045ZM369.204 266.214L373.956 258.131H376.831V270H374.126V261.909L369.389 270H366.507V258.131H369.204V266.214ZM379.047 266.747H381.821C381.846 267.19 382.045 267.532 382.416 267.775C382.787 268.017 383.268 268.138 383.861 268.138C384.463 268.138 384.971 268.006 385.383 267.744C385.8 267.476 386.009 267.071 386.009 266.53C386.009 266.211 385.929 265.93 385.769 265.688C385.61 265.441 385.386 265.25 385.097 265.116C384.809 264.982 384.469 264.915 384.077 264.915H382.261V262.929H384.077C384.659 262.929 385.1 262.795 385.398 262.528C385.702 262.26 385.854 261.922 385.854 261.515C385.854 261.077 385.695 260.722 385.375 260.449C385.061 260.176 384.626 260.039 384.069 260.039C383.513 260.039 383.049 260.166 382.678 260.418C382.313 260.67 382.122 260.995 382.107 261.392H379.348C379.358 260.701 379.564 260.101 379.966 259.591C380.373 259.081 380.919 258.685 381.604 258.401C382.295 258.118 383.072 257.976 383.938 257.976C384.865 257.976 385.666 258.115 386.341 258.393C387.016 258.672 387.536 259.061 387.902 259.56C388.268 260.055 388.451 260.637 388.451 261.307C388.451 261.951 388.25 262.484 387.848 262.906C387.446 263.324 386.905 263.622 386.225 263.803V263.926C386.694 263.952 387.116 264.086 387.493 264.328C387.869 264.565 388.167 264.887 388.389 265.294C388.61 265.701 388.721 266.172 388.721 266.708C388.721 267.435 388.513 268.063 388.095 268.594C387.678 269.119 387.104 269.523 386.372 269.807C385.646 270.09 384.814 270.232 383.876 270.232C382.964 270.232 382.148 270.095 381.427 269.822C380.71 269.544 380.141 269.145 379.719 268.625C379.296 268.104 379.072 267.478 379.047 266.747ZM396.101 270.232C394.942 270.232 393.937 269.977 393.087 269.467C392.237 268.957 391.578 268.243 391.109 267.326C390.645 266.409 390.414 265.338 390.414 264.112C390.414 262.886 390.645 261.812 391.109 260.889C391.578 259.967 392.237 259.251 393.087 258.741C393.937 258.231 394.942 257.976 396.101 257.976C397.26 257.976 398.265 258.231 399.115 258.741C399.965 259.251 400.621 259.967 401.085 260.889C401.554 261.812 401.788 262.886 401.788 264.112C401.788 265.338 401.554 266.409 401.085 267.326C400.621 268.243 399.965 268.957 399.115 269.467C398.265 269.977 397.26 270.232 396.101 270.232ZM396.116 267.991C396.745 267.991 397.27 267.818 397.693 267.473C398.115 267.123 398.429 266.654 398.635 266.067C398.847 265.479 398.952 264.825 398.952 264.104C398.952 263.378 398.847 262.721 398.635 262.134C398.429 261.541 398.115 261.07 397.693 260.719C397.27 260.369 396.745 260.194 396.116 260.194C395.472 260.194 394.937 260.369 394.509 260.719C394.087 261.07 393.77 261.541 393.559 262.134C393.352 262.721 393.249 263.378 393.249 264.104C393.249 264.825 393.352 265.479 393.559 266.067C393.77 266.654 394.087 267.123 394.509 267.473C394.937 267.818 395.472 267.991 396.116 267.991ZM404.162 274.451V258.131H406.913V260.093H407.076C407.22 259.805 407.423 259.498 407.686 259.174C407.949 258.844 408.304 258.563 408.753 258.332C409.201 258.095 409.773 257.976 410.468 257.976C411.385 257.976 412.212 258.211 412.949 258.679C413.69 259.143 414.278 259.831 414.71 260.743C415.148 261.649 415.367 262.762 415.367 264.081C415.367 265.384 415.153 266.492 414.726 267.404C414.298 268.315 413.716 269.011 412.979 269.49C412.243 269.969 411.408 270.209 410.476 270.209C409.796 270.209 409.232 270.095 408.783 269.869C408.335 269.642 407.975 269.369 407.702 269.05C407.434 268.725 407.225 268.418 407.076 268.13H406.96V274.451H404.162ZM406.906 264.065C406.906 264.833 407.014 265.505 407.23 266.082C407.452 266.659 407.769 267.11 408.181 267.435C408.598 267.754 409.103 267.914 409.695 267.914C410.313 267.914 410.831 267.749 411.249 267.419C411.666 267.084 411.98 266.628 412.191 266.051C412.408 265.469 412.516 264.807 412.516 264.065C412.516 263.329 412.41 262.674 412.199 262.103C411.988 261.531 411.674 261.083 411.256 260.758C410.839 260.433 410.319 260.271 409.695 260.271C409.098 260.271 408.59 260.428 408.173 260.743C407.756 261.057 407.439 261.497 407.223 262.064C407.011 262.631 406.906 263.298 406.906 264.065Z" fill="black"/>
<rect x="120" y="230" width="465" height="65" stroke="#58A982" stroke-width="2"/>
<rect x="120" y="305" width="465" height="65" fill="#DBEEE5"/>
<path d="M217.105 345H214.045L219.617 329.174H223.156L228.735 345H225.675L221.448 332.42H221.325L217.105 345ZM217.206 338.795H225.551V341.098H217.206V338.795ZM230.696 345V333.131H240.718V345H238.022V335.426H233.37V345H230.696ZM243.595 345V333.131H253.617V345H250.92V335.426H246.269V345H243.595ZM259.909 345.24C259.157 345.24 258.48 345.106 257.877 344.838C257.279 344.565 256.806 344.163 256.455 343.632C256.11 343.102 255.937 342.447 255.937 341.669C255.937 341 256.061 340.446 256.308 340.008C256.556 339.57 256.893 339.22 257.321 338.957C257.748 338.694 258.23 338.496 258.766 338.362C259.307 338.223 259.866 338.123 260.443 338.061C261.138 337.989 261.702 337.924 262.135 337.868C262.568 337.806 262.882 337.713 263.078 337.589C263.279 337.461 263.379 337.262 263.379 336.994V336.948C263.379 336.366 263.206 335.915 262.861 335.596C262.516 335.276 262.019 335.117 261.37 335.117C260.685 335.117 260.141 335.266 259.739 335.565C259.343 335.864 259.075 336.217 258.936 336.624L256.324 336.253C256.53 335.531 256.87 334.929 257.344 334.444C257.818 333.955 258.397 333.589 259.083 333.347C259.768 333.1 260.525 332.976 261.354 332.976C261.926 332.976 262.495 333.043 263.062 333.177C263.629 333.311 264.147 333.533 264.615 333.842C265.084 334.146 265.46 334.56 265.744 335.086C266.032 335.611 266.176 336.268 266.176 337.056V345H263.487V343.37H263.394C263.224 343.699 262.985 344.008 262.676 344.297C262.372 344.58 261.988 344.809 261.524 344.985C261.066 345.155 260.528 345.24 259.909 345.24ZM260.636 343.184C261.197 343.184 261.684 343.073 262.096 342.852C262.508 342.625 262.825 342.326 263.047 341.955C263.273 341.584 263.387 341.18 263.387 340.742V339.344C263.299 339.416 263.15 339.483 262.939 339.544C262.732 339.606 262.501 339.66 262.243 339.707C261.985 339.753 261.73 339.794 261.478 339.83C261.226 339.866 261.007 339.897 260.821 339.923C260.404 339.98 260.03 340.072 259.701 340.201C259.371 340.33 259.111 340.51 258.92 340.742C258.73 340.969 258.634 341.263 258.634 341.623C258.634 342.138 258.822 342.527 259.198 342.79C259.575 343.053 260.054 343.184 260.636 343.184ZM268.989 349.451V333.131H271.74V335.093H271.902C272.047 334.805 272.25 334.498 272.513 334.174C272.775 333.844 273.131 333.563 273.579 333.332C274.027 333.095 274.599 332.976 275.295 332.976C276.212 332.976 277.038 333.211 277.775 333.679C278.517 334.143 279.104 334.831 279.537 335.743C279.975 336.649 280.194 337.762 280.194 339.081C280.194 340.384 279.98 341.492 279.552 342.404C279.125 343.315 278.543 344.011 277.806 344.49C277.069 344.969 276.235 345.209 275.302 345.209C274.622 345.209 274.058 345.095 273.61 344.869C273.162 344.642 272.801 344.369 272.528 344.05C272.26 343.725 272.052 343.418 271.902 343.13H271.786V349.451H268.989ZM271.732 339.065C271.732 339.833 271.84 340.505 272.057 341.082C272.278 341.659 272.595 342.11 273.007 342.435C273.425 342.754 273.929 342.914 274.522 342.914C275.14 342.914 275.658 342.749 276.075 342.419C276.492 342.084 276.807 341.628 277.018 341.051C277.234 340.469 277.342 339.807 277.342 339.065C277.342 338.329 277.237 337.674 277.026 337.103C276.814 336.531 276.5 336.083 276.083 335.758C275.666 335.433 275.145 335.271 274.522 335.271C273.924 335.271 273.417 335.428 273 335.743C272.582 336.057 272.265 336.497 272.049 337.064C271.838 337.631 271.732 338.298 271.732 339.065ZM286.005 345.24C285.253 345.24 284.575 345.106 283.972 344.838C283.375 344.565 282.901 344.163 282.551 343.632C282.205 343.102 282.033 342.447 282.033 341.669C282.033 341 282.157 340.446 282.404 340.008C282.651 339.57 282.989 339.22 283.416 338.957C283.844 338.694 284.325 338.496 284.861 338.362C285.402 338.223 285.961 338.123 286.538 338.061C287.233 337.989 287.798 337.924 288.23 337.868C288.663 337.806 288.977 337.713 289.173 337.589C289.374 337.461 289.474 337.262 289.474 336.994V336.948C289.474 336.366 289.302 335.915 288.957 335.596C288.611 335.276 288.114 335.117 287.465 335.117C286.78 335.117 286.237 335.266 285.835 335.565C285.438 335.864 285.17 336.217 285.031 336.624L282.419 336.253C282.625 335.531 282.965 334.929 283.439 334.444C283.913 333.955 284.493 333.589 285.178 333.347C285.863 333.1 286.62 332.976 287.45 332.976C288.022 332.976 288.591 333.043 289.158 333.177C289.724 333.311 290.242 333.533 290.711 333.842C291.18 334.146 291.556 334.56 291.839 335.086C292.127 335.611 292.272 336.268 292.272 337.056V345H289.583V343.37H289.49C289.32 343.699 289.08 344.008 288.771 344.297C288.467 344.58 288.083 344.809 287.62 344.985C287.161 345.155 286.623 345.24 286.005 345.24ZM286.731 343.184C287.293 343.184 287.78 343.073 288.192 342.852C288.604 342.625 288.921 342.326 289.142 341.955C289.369 341.584 289.482 341.18 289.482 340.742V339.344C289.395 339.416 289.245 339.483 289.034 339.544C288.828 339.606 288.596 339.66 288.338 339.707C288.081 339.753 287.826 339.794 287.573 339.83C287.321 339.866 287.102 339.897 286.917 339.923C286.499 339.98 286.126 340.072 285.796 340.201C285.466 340.33 285.206 340.51 285.016 340.742C284.825 340.969 284.73 341.263 284.73 341.623C284.73 342.138 284.918 342.527 285.294 342.79C285.67 343.053 286.149 343.184 286.731 343.184ZM293.755 335.426V333.131H304.141V335.426H300.3V345H297.596V335.426H293.755ZM314.521 337.906V340.201H308.2V337.906H314.521ZM309.065 333.131V345H306.368V333.131H309.065ZM316.352 333.131V345H313.663V333.131H316.352ZM324.36 345.232C323.201 345.232 322.196 344.977 321.346 344.467C320.496 343.957 319.837 343.243 319.368 342.326C318.904 341.409 318.672 340.338 318.672 339.112C318.672 337.886 318.904 336.812 319.368 335.889C319.837 334.967 320.496 334.251 321.346 333.741C322.196 333.231 323.201 332.976 324.36 332.976C325.519 332.976 326.523 333.231 327.373 333.741C328.223 334.251 328.88 334.967 329.344 335.889C329.813 336.812 330.047 337.886 330.047 339.112C330.047 340.338 329.813 341.409 329.344 342.326C328.88 343.243 328.223 343.957 327.373 344.467C326.523 344.977 325.519 345.232 324.36 345.232ZM324.375 342.991C325.004 342.991 325.529 342.818 325.952 342.473C326.374 342.123 326.688 341.654 326.894 341.067C327.106 340.479 327.211 339.825 327.211 339.104C327.211 338.378 327.106 337.721 326.894 337.134C326.688 336.541 326.374 336.07 325.952 335.719C325.529 335.369 325.004 335.194 324.375 335.194C323.731 335.194 323.195 335.369 322.768 335.719C322.345 336.07 322.029 336.541 321.817 337.134C321.611 337.721 321.508 338.378 321.508 339.104C321.508 339.825 321.611 340.479 321.817 341.067C322.029 341.654 322.345 342.123 322.768 342.473C323.195 342.818 323.731 342.991 324.375 342.991ZM337.676 345.232C336.486 345.232 335.458 344.985 334.593 344.49C333.732 343.99 333.07 343.285 332.607 342.373C332.143 341.456 331.911 340.376 331.911 339.135C331.911 337.914 332.143 336.842 332.607 335.92C333.076 334.993 333.73 334.272 334.57 333.757C335.409 333.236 336.396 332.976 337.529 332.976C338.261 332.976 338.951 333.095 339.6 333.332C340.254 333.563 340.831 333.924 341.331 334.413C341.836 334.903 342.233 335.526 342.521 336.283C342.81 337.036 342.954 337.932 342.954 338.973V339.83H333.225V337.945H340.272C340.267 337.409 340.151 336.933 339.925 336.515C339.698 336.093 339.381 335.761 338.974 335.518C338.572 335.276 338.104 335.155 337.568 335.155C336.996 335.155 336.494 335.294 336.061 335.573C335.628 335.846 335.291 336.206 335.049 336.654C334.812 337.097 334.691 337.584 334.685 338.115V339.761C334.685 340.451 334.812 341.044 335.064 341.538C335.317 342.028 335.669 342.404 336.123 342.666C336.576 342.924 337.107 343.053 337.715 343.053C338.122 343.053 338.49 342.996 338.82 342.883C339.149 342.764 339.435 342.592 339.677 342.365C339.919 342.138 340.102 341.858 340.226 341.523L342.838 341.816C342.673 342.507 342.359 343.109 341.895 343.625C341.437 344.135 340.849 344.531 340.133 344.815C339.417 345.093 338.598 345.232 337.676 345.232ZM355.895 345.232C354.736 345.232 353.732 344.977 352.882 344.467C352.032 343.957 351.372 343.243 350.903 342.326C350.44 341.409 350.208 340.338 350.208 339.112C350.208 337.886 350.44 336.812 350.903 335.889C351.372 334.967 352.032 334.251 352.882 333.741C353.732 333.231 354.736 332.976 355.895 332.976C357.054 332.976 358.059 333.231 358.909 333.741C359.759 334.251 360.416 334.967 360.879 335.889C361.348 336.812 361.583 337.886 361.583 339.112C361.583 340.338 361.348 341.409 360.879 342.326C360.416 343.243 359.759 343.957 358.909 344.467C358.059 344.977 357.054 345.232 355.895 345.232ZM355.911 342.991C356.539 342.991 357.065 342.818 357.487 342.473C357.91 342.123 358.224 341.654 358.43 341.067C358.641 340.479 358.747 339.825 358.747 339.104C358.747 338.378 358.641 337.721 358.43 337.134C358.224 336.541 357.91 336.07 357.487 335.719C357.065 335.369 356.539 335.194 355.911 335.194C355.267 335.194 354.731 335.369 354.303 335.719C353.881 336.07 353.564 336.541 353.353 337.134C353.147 337.721 353.044 338.378 353.044 339.104C353.044 339.825 353.147 340.479 353.353 341.067C353.564 341.654 353.881 342.123 354.303 342.473C354.731 342.818 355.267 342.991 355.911 342.991ZM373.469 328.742L374.443 330.55C374.098 330.849 373.711 331.065 373.284 331.199C372.856 331.333 372.354 331.42 371.777 331.462C371.205 331.498 370.525 331.523 369.737 331.539C368.851 331.559 368.127 331.727 367.566 332.041C367.004 332.355 366.574 332.832 366.275 333.471C365.976 334.104 365.78 334.913 365.688 335.897H365.819C366.19 335.171 366.71 334.617 367.38 334.236C368.05 333.855 368.835 333.664 369.737 333.664C370.721 333.664 371.589 333.885 372.341 334.328C373.098 334.766 373.688 335.403 374.111 336.237C374.538 337.072 374.752 338.081 374.752 339.266C374.752 340.487 374.523 341.546 374.064 342.442C373.606 343.333 372.954 344.021 372.109 344.505C371.27 344.99 370.273 345.232 369.119 345.232C367.97 345.232 366.971 344.982 366.12 344.482C365.276 343.977 364.621 343.233 364.158 342.249C363.699 341.26 363.47 340.042 363.47 338.594V337.528C363.47 334.735 363.99 332.652 365.031 331.276C366.072 329.901 367.614 329.2 369.66 329.174C370.268 329.164 370.811 329.161 371.29 329.167C371.774 329.172 372.197 329.149 372.557 329.097C372.918 329.046 373.222 328.927 373.469 328.742ZM369.134 342.991C369.706 342.991 370.201 342.844 370.618 342.55C371.035 342.252 371.355 341.829 371.576 341.283C371.803 340.737 371.916 340.091 371.916 339.344C371.916 338.607 371.803 337.981 371.576 337.466C371.349 336.945 371.027 336.549 370.61 336.276C370.193 336.003 369.696 335.866 369.119 335.866C368.686 335.866 368.297 335.943 367.952 336.098C367.607 336.253 367.313 336.479 367.071 336.778C366.829 337.077 366.643 337.44 366.515 337.868C366.386 338.295 366.316 338.787 366.306 339.344C366.306 340.461 366.558 341.35 367.063 342.009C367.568 342.664 368.258 342.991 369.134 342.991ZM382.387 345.232C381.197 345.232 380.169 344.985 379.303 344.49C378.443 343.99 377.781 343.285 377.318 342.373C376.854 341.456 376.622 340.376 376.622 339.135C376.622 337.914 376.854 336.842 377.318 335.92C377.786 334.993 378.441 334.272 379.28 333.757C380.12 333.236 381.107 332.976 382.24 332.976C382.971 332.976 383.662 333.095 384.311 333.332C384.965 333.563 385.542 333.924 386.042 334.413C386.547 334.903 386.943 335.526 387.232 336.283C387.52 337.036 387.664 337.932 387.664 338.973V339.83H377.936V337.945H384.983C384.978 337.409 384.862 336.933 384.635 336.515C384.409 336.093 384.092 335.761 383.685 335.518C383.283 335.276 382.814 335.155 382.278 335.155C381.707 335.155 381.204 335.294 380.772 335.573C380.339 335.846 380.001 336.206 379.759 336.654C379.522 337.097 379.401 337.584 379.396 338.115V339.761C379.396 340.451 379.522 341.044 379.775 341.538C380.027 342.028 380.38 342.404 380.833 342.666C381.287 342.924 381.817 343.053 382.425 343.053C382.832 343.053 383.201 342.996 383.53 342.883C383.86 342.764 384.146 342.592 384.388 342.365C384.63 342.138 384.813 341.858 384.937 341.523L387.549 341.816C387.384 342.507 387.069 343.109 386.606 343.625C386.147 344.135 385.56 344.531 384.844 344.815C384.128 345.093 383.309 345.232 382.387 345.232ZM395.208 345.232C394.023 345.232 393.006 344.972 392.156 344.451C391.311 343.931 390.659 343.212 390.201 342.295C389.748 341.373 389.521 340.312 389.521 339.112C389.521 337.906 389.753 336.842 390.216 335.92C390.68 334.993 391.334 334.272 392.179 333.757C393.029 333.236 394.034 332.976 395.193 332.976C396.156 332.976 397.009 333.154 397.751 333.509C398.498 333.86 399.093 334.357 399.536 335.001C399.979 335.64 400.231 336.387 400.293 337.242H397.619C397.511 336.67 397.254 336.193 396.847 335.812C396.445 335.426 395.906 335.233 395.232 335.233C394.66 335.233 394.157 335.387 393.725 335.696C393.292 336 392.955 336.438 392.712 337.01C392.475 337.582 392.357 338.267 392.357 339.065C392.357 339.874 392.475 340.57 392.712 341.152C392.949 341.729 393.282 342.174 393.709 342.489C394.142 342.798 394.649 342.952 395.232 342.952C395.644 342.952 396.012 342.875 396.337 342.72C396.666 342.561 396.942 342.331 397.163 342.033C397.385 341.734 397.537 341.371 397.619 340.943H400.293C400.226 341.783 399.979 342.527 399.551 343.176C399.124 343.82 398.541 344.325 397.805 344.691C397.068 345.052 396.203 345.232 395.208 345.232ZM402.59 345V333.131H412.612V345H409.916V335.426H405.264V345H402.59ZM420.744 345.232C419.554 345.232 418.526 344.985 417.66 344.49C416.8 343.99 416.138 343.285 415.674 342.373C415.211 341.456 414.979 340.376 414.979 339.135C414.979 337.914 415.211 336.842 415.674 335.92C416.143 334.993 416.797 334.272 417.637 333.757C418.477 333.236 419.463 332.976 420.597 332.976C421.328 332.976 422.019 333.095 422.668 333.332C423.322 333.563 423.899 333.924 424.399 334.413C424.903 334.903 425.3 335.526 425.589 336.283C425.877 337.036 426.021 337.932 426.021 338.973V339.83H416.293V337.945H423.34C423.335 337.409 423.219 336.933 422.992 336.515C422.766 336.093 422.449 335.761 422.042 335.518C421.64 335.276 421.171 335.155 420.635 335.155C420.064 335.155 419.561 335.294 419.129 335.573C418.696 335.846 418.358 336.206 418.116 336.654C417.879 337.097 417.758 337.584 417.753 338.115V339.761C417.753 340.451 417.879 341.044 418.132 341.538C418.384 342.028 418.737 342.404 419.19 342.666C419.644 342.924 420.174 343.053 420.782 343.053C421.189 343.053 421.557 342.996 421.887 342.883C422.217 342.764 422.503 342.592 422.745 342.365C422.987 342.138 423.17 341.858 423.294 341.523L425.905 341.816C425.741 342.507 425.426 343.109 424.963 343.625C424.504 344.135 423.917 344.531 423.201 344.815C422.485 345.093 421.666 345.232 420.744 345.232ZM438.302 333.131V345H435.613V333.131H438.302ZM437.043 338.494V340.781C436.739 340.915 436.393 341.036 436.007 341.144C435.626 341.247 435.221 341.329 434.794 341.391C434.371 341.453 433.949 341.484 433.527 341.484C431.94 341.484 430.685 341.129 429.763 340.418C428.846 339.702 428.388 338.586 428.388 337.072V333.115H431.062V337.072C431.062 337.582 431.152 337.991 431.332 338.3C431.512 338.609 431.785 338.836 432.151 338.98C432.517 339.119 432.975 339.189 433.527 339.189C434.145 339.189 434.732 339.127 435.288 339.004C435.845 338.88 436.43 338.71 437.043 338.494ZM446.371 345.232C445.181 345.232 444.154 344.985 443.288 344.49C442.428 343.99 441.766 343.285 441.302 342.373C440.839 341.456 440.607 340.376 440.607 339.135C440.607 337.914 440.839 336.842 441.302 335.92C441.771 334.993 442.425 334.272 443.265 333.757C444.105 333.236 445.091 332.976 446.225 332.976C446.956 332.976 447.646 333.095 448.296 333.332C448.95 333.563 449.527 333.924 450.027 334.413C450.531 334.903 450.928 335.526 451.217 336.283C451.505 337.036 451.649 337.932 451.649 338.973V339.83H441.92V337.945H448.968C448.963 337.409 448.847 336.933 448.62 336.515C448.393 336.093 448.077 335.761 447.67 335.518C447.268 335.276 446.799 335.155 446.263 335.155C445.691 335.155 445.189 335.294 444.756 335.573C444.324 335.846 443.986 336.206 443.744 336.654C443.507 337.097 443.386 337.584 443.381 338.115V339.761C443.381 340.451 443.507 341.044 443.76 341.538C444.012 342.028 444.365 342.404 444.818 342.666C445.272 342.924 445.802 343.053 446.41 343.053C446.817 343.053 447.185 342.996 447.515 342.883C447.845 342.764 448.131 342.592 448.373 342.365C448.615 342.138 448.798 341.858 448.921 341.523L451.533 341.816C451.368 342.507 451.054 343.109 450.591 343.625C450.132 344.135 449.545 344.531 448.829 344.815C448.113 345.093 447.294 345.232 446.371 345.232ZM462.168 337.906V340.201H455.847V337.906H462.168ZM456.713 333.131V345H454.016V333.131H456.713ZM464 333.131V345H461.31V333.131H464ZM469.527 341.214L474.279 333.131H477.154V345H474.449V336.909L469.712 345H466.83V333.131H469.527V341.214ZM485.281 345.232C484.091 345.232 483.063 344.985 482.198 344.49C481.337 343.99 480.675 343.285 480.212 342.373C479.748 341.456 479.516 340.376 479.516 339.135C479.516 337.914 479.748 336.842 480.212 335.92C480.68 334.993 481.335 334.272 482.174 333.757C483.014 333.236 484.001 332.976 485.134 332.976C485.866 332.976 486.556 333.095 487.205 333.332C487.859 333.563 488.436 333.924 488.936 334.413C489.441 334.903 489.837 335.526 490.126 336.283C490.414 337.036 490.559 337.932 490.559 338.973V339.83H480.83V337.945H487.877C487.872 337.409 487.756 336.933 487.529 336.515C487.303 336.093 486.986 335.761 486.579 335.518C486.177 335.276 485.708 335.155 485.173 335.155C484.601 335.155 484.099 335.294 483.666 335.573C483.233 335.846 482.896 336.206 482.654 336.654C482.417 337.097 482.295 337.584 482.29 338.115V339.761C482.29 340.451 482.417 341.044 482.669 341.538C482.921 342.028 483.274 342.404 483.728 342.666C484.181 342.924 484.712 343.053 485.319 343.053C485.726 343.053 486.095 342.996 486.424 342.883C486.754 342.764 487.04 342.592 487.282 342.365C487.524 342.138 487.707 341.858 487.831 341.523L490.443 341.816C490.278 342.507 489.964 343.109 489.5 343.625C489.041 344.135 488.454 344.531 487.738 344.815C487.022 345.093 486.203 345.232 485.281 345.232Z" fill="black"/>
<rect x="120" y="305" width="465" height="65" stroke="#58A982" stroke-width="2"/>
<rect x="100.5" y="100.5" width="504" height="289" stroke="#ABD4C1"/>
</svg>
