<svg width="1367" height="706" viewBox="0 0 1367 706" fill="none" xmlns="http://www.w3.org/2000/svg">
<path d="M251.244 586.768H256.684C257.598 586.768 258.382 586.869 259.035 587.072C259.687 587.275 260.224 587.558 260.645 587.921C261.08 588.269 261.399 588.697 261.602 589.205C261.805 589.698 261.907 590.242 261.907 590.837C261.907 591.62 261.689 592.295 261.254 592.861C260.819 593.412 260.282 593.811 259.644 594.057C260.543 594.261 261.254 594.674 261.776 595.298C262.299 595.907 262.56 596.705 262.56 597.691C262.56 598.315 262.458 598.888 262.255 599.411C262.052 599.933 261.733 600.39 261.298 600.781C260.862 601.159 260.297 601.456 259.6 601.674C258.918 601.891 258.092 602 257.12 602H251.244V586.768ZM257.12 600.216C257.772 600.216 258.316 600.158 258.752 600.042C259.187 599.911 259.535 599.737 259.796 599.519C260.057 599.287 260.239 599.012 260.34 598.692C260.456 598.373 260.514 598.018 260.514 597.626C260.514 597.234 260.456 596.879 260.34 596.56C260.239 596.226 260.057 595.951 259.796 595.733C259.535 595.501 259.18 595.327 258.73 595.211C258.295 595.08 257.751 595.015 257.098 595.015H253.29V600.216H257.12ZM256.684 593.318C257.294 593.318 257.801 593.26 258.208 593.144C258.614 593.027 258.94 592.861 259.187 592.643C259.433 592.425 259.608 592.172 259.709 591.881C259.811 591.591 259.861 591.272 259.861 590.924C259.861 590.576 259.811 590.257 259.709 589.967C259.608 589.662 259.433 589.408 259.187 589.205C258.94 589.002 258.614 588.842 258.208 588.726C257.801 588.61 257.294 588.552 256.684 588.552H253.29V593.318H256.684ZM268.308 596.146L264.195 590.467H266.415L269.461 594.667L272.508 590.467H274.64L270.527 596.038L274.858 602H272.595L269.374 597.496L266.154 602H263.978L268.308 596.146ZM281.501 602.218C280.761 602.218 280.057 602.102 279.39 601.869C278.722 601.623 278.135 601.26 277.627 600.781C277.119 600.288 276.713 599.672 276.409 598.932C276.104 598.192 275.952 597.329 275.952 596.342V595.907C275.952 594.979 276.104 594.159 276.409 593.448C276.713 592.737 277.119 592.15 277.627 591.686C278.135 591.207 278.722 590.851 279.39 590.619C280.057 590.373 280.761 590.249 281.501 590.249C282.24 590.249 282.944 590.373 283.611 590.619C284.279 590.851 284.866 591.207 285.374 591.686C285.882 592.15 286.288 592.737 286.592 593.448C286.897 594.159 287.049 594.979 287.049 595.907V596.342C287.049 597.329 286.897 598.192 286.592 598.932C286.288 599.672 285.882 600.288 285.374 600.781C284.866 601.26 284.279 601.623 283.611 601.869C282.944 602.102 282.24 602.218 281.501 602.218ZM281.501 600.477C281.936 600.477 282.371 600.404 282.806 600.259C283.241 600.1 283.626 599.86 283.959 599.541C284.293 599.207 284.562 598.779 284.765 598.257C284.982 597.735 285.091 597.097 285.091 596.342V595.907C285.091 595.211 284.982 594.616 284.765 594.123C284.562 593.63 284.293 593.223 283.959 592.904C283.626 592.585 283.241 592.353 282.806 592.208C282.371 592.063 281.936 591.99 281.501 591.99C281.065 591.99 280.63 592.063 280.195 592.208C279.76 592.353 279.375 592.585 279.042 592.904C278.708 593.223 278.432 593.63 278.215 594.123C278.012 594.616 277.91 595.211 277.91 595.907V596.342C277.91 597.097 278.012 597.735 278.215 598.257C278.432 598.779 278.708 599.207 279.042 599.541C279.375 599.86 279.76 600.1 280.195 600.259C280.63 600.404 281.065 600.477 281.501 600.477ZM288.243 600.303H289.657C289.817 600.085 289.962 599.751 290.092 599.302C290.223 598.852 290.339 598.323 290.441 597.713C290.542 597.104 290.615 596.444 290.658 595.733C290.716 595.008 290.745 594.268 290.745 593.513V590.467H298.797V600.303H300.429V604.72H298.601V602H290.071V604.72H288.243V600.303ZM296.882 600.303V592.164H292.617V593.949C292.617 594.558 292.595 595.167 292.551 595.777C292.508 596.371 292.443 596.944 292.356 597.496C292.269 598.032 292.16 598.547 292.029 599.041C291.913 599.519 291.775 599.94 291.616 600.303H296.882ZM302.724 590.467H304.639V595.276H310.601V590.467H312.516V602H310.601V596.973H304.639V602H302.724V590.467ZM320.792 602.218C320.053 602.218 319.349 602.102 318.682 601.869C318.014 601.623 317.427 601.26 316.919 600.781C316.411 600.288 316.005 599.672 315.701 598.932C315.396 598.192 315.244 597.329 315.244 596.342V595.907C315.244 594.979 315.396 594.159 315.701 593.448C316.005 592.737 316.411 592.15 316.919 591.686C317.427 591.207 318.014 590.851 318.682 590.619C319.349 590.373 320.053 590.249 320.792 590.249C321.532 590.249 322.236 590.373 322.903 590.619C323.571 590.851 324.158 591.207 324.666 591.686C325.174 592.15 325.58 592.737 325.884 593.448C326.189 594.159 326.341 594.979 326.341 595.907V596.342C326.341 597.329 326.189 598.192 325.884 598.932C325.58 599.672 325.174 600.288 324.666 600.781C324.158 601.26 323.571 601.623 322.903 601.869C322.236 602.102 321.532 602.218 320.792 602.218ZM320.792 600.477C321.228 600.477 321.663 600.404 322.098 600.259C322.533 600.1 322.918 599.86 323.251 599.541C323.585 599.207 323.853 598.779 324.056 598.257C324.274 597.735 324.383 597.097 324.383 596.342V595.907C324.383 595.211 324.274 594.616 324.056 594.123C323.853 593.63 323.585 593.223 323.251 592.904C322.918 592.585 322.533 592.353 322.098 592.208C321.663 592.063 321.228 591.99 320.792 591.99C320.357 591.99 319.922 592.063 319.487 592.208C319.052 592.353 318.667 592.585 318.334 592.904C318 593.223 317.724 593.63 317.507 594.123C317.304 594.616 317.202 595.211 317.202 595.907V596.342C317.202 597.097 317.304 597.735 317.507 598.257C317.724 598.779 318 599.207 318.334 599.541C318.667 599.86 319.052 600.1 319.487 600.259C319.922 600.404 320.357 600.477 320.792 600.477ZM329.053 590.467H330.968V599.171L336.93 590.467H338.845V602H336.93V593.296L330.968 602H329.053V590.467ZM333.949 589.053C332.817 589.053 331.991 588.813 331.468 588.335C330.946 587.841 330.685 587.138 330.685 586.224H332.556C332.556 587.21 333.021 587.703 333.949 587.703C334.906 587.703 335.385 587.21 335.385 586.224H337.213C337.213 587.138 336.952 587.841 336.43 588.335C335.907 588.813 335.08 589.053 333.949 589.053ZM347.774 590.467H349.689V599.171L355.652 590.467H357.567V602H355.652V593.296L349.689 602H347.774V590.467ZM361.056 590.467H362.971V595.276H368.933V590.467H370.848V602H368.933V596.973H362.971V602H361.056V590.467ZM376.97 592.164H373.032V590.467H382.824V592.164H378.885V602H376.97V592.164ZM389.58 602.218C388.84 602.218 388.136 602.102 387.469 601.869C386.802 601.637 386.214 601.282 385.706 600.803C385.199 600.31 384.793 599.693 384.488 598.954C384.183 598.214 384.031 597.343 384.031 596.342V595.907C384.031 594.95 384.176 594.123 384.466 593.426C384.756 592.716 385.141 592.128 385.619 591.664C386.113 591.185 386.678 590.83 387.317 590.598C387.97 590.365 388.651 590.249 389.362 590.249C391.059 590.249 392.372 590.714 393.301 591.642C394.229 592.571 394.693 593.883 394.693 595.581V596.799H385.946C385.946 597.481 386.055 598.054 386.272 598.518C386.49 598.983 386.773 599.36 387.121 599.65C387.469 599.94 387.853 600.15 388.274 600.281C388.709 600.411 389.145 600.477 389.58 600.477C390.45 600.477 391.118 600.332 391.582 600.042C392.06 599.751 392.401 599.352 392.604 598.845H394.476C394.36 599.396 394.149 599.882 393.845 600.303C393.555 600.723 393.192 601.079 392.757 601.369C392.336 601.645 391.85 601.855 391.299 602C390.762 602.145 390.189 602.218 389.58 602.218ZM389.471 591.99C389.021 591.99 388.586 592.056 388.165 592.186C387.745 592.302 387.367 592.498 387.034 592.774C386.715 593.035 386.454 593.368 386.25 593.775C386.047 594.181 385.946 594.667 385.946 595.233H392.887C392.873 594.638 392.771 594.137 392.583 593.731C392.409 593.31 392.169 592.977 391.865 592.73C391.56 592.469 391.197 592.28 390.777 592.164C390.37 592.048 389.935 591.99 389.471 591.99ZM397.415 590.467H399.2V592.643C399.591 591.874 400.135 591.287 400.832 590.88C401.542 590.46 402.362 590.249 403.291 590.249C404.741 590.249 405.902 590.728 406.772 591.686C407.643 592.629 408.078 594.036 408.078 595.907V596.342C408.078 597.329 407.962 598.192 407.73 598.932C407.498 599.657 407.171 600.266 406.75 600.76C406.33 601.238 405.822 601.601 405.227 601.848C404.647 602.094 404.001 602.218 403.291 602.218C402.304 602.218 401.477 602 400.81 601.565C400.157 601.13 399.664 600.586 399.33 599.933V606.352H397.415V590.467ZM402.855 600.52C403.32 600.52 403.755 600.433 404.161 600.259C404.567 600.071 404.915 599.802 405.205 599.454C405.51 599.106 405.742 598.671 405.902 598.148C406.076 597.626 406.163 597.024 406.163 596.342V595.907C406.163 595.283 406.076 594.725 405.902 594.232C405.742 593.738 405.51 593.325 405.205 592.991C404.915 592.643 404.567 592.382 404.161 592.208C403.755 592.034 403.32 591.947 402.855 591.947C402.333 591.947 401.854 592.034 401.419 592.208C400.984 592.367 400.614 592.6 400.309 592.904C400.005 593.194 399.765 593.542 399.591 593.949C399.417 594.355 399.33 594.79 399.33 595.254V596.995C399.33 597.517 399.417 597.996 399.591 598.431C399.765 598.867 400.005 599.236 400.309 599.541C400.614 599.846 400.984 600.085 401.419 600.259C401.854 600.433 402.333 600.52 402.855 600.52ZM416.156 602.218C414.154 602.218 412.631 601.71 411.586 600.694C410.556 599.679 410.041 598.235 410.041 596.364V595.929C410.041 594.145 410.556 592.752 411.586 591.751C412.631 590.75 414.154 590.249 416.156 590.249V586.768H418.071V590.249C420.073 590.249 421.589 590.75 422.619 591.751C423.663 592.752 424.186 594.145 424.186 595.929V596.364C424.186 598.235 423.663 599.679 422.619 600.694C421.589 601.71 420.073 602.218 418.071 602.218V606.352H416.156V602.218ZM422.227 595.929C422.227 594.609 421.886 593.622 421.204 592.969C420.537 592.317 419.485 591.99 418.049 591.99V600.477C419.485 600.477 420.537 600.143 421.204 599.476C421.886 598.808 422.227 597.771 422.227 596.364V595.929ZM412 596.364C412 597.771 412.333 598.808 413.001 599.476C413.683 600.143 414.742 600.477 416.178 600.477V591.99C414.742 591.99 413.683 592.317 413.001 592.969C412.333 593.622 412 594.609 412 595.929V596.364ZM431.698 602.218C430.958 602.218 430.255 602.102 429.587 601.869C428.92 601.637 428.332 601.282 427.825 600.803C427.317 600.31 426.911 599.693 426.606 598.954C426.301 598.214 426.149 597.343 426.149 596.342V595.907C426.149 594.95 426.294 594.123 426.584 593.426C426.874 592.716 427.259 592.128 427.738 591.664C428.231 591.185 428.797 590.83 429.435 590.598C430.088 590.365 430.77 590.249 431.48 590.249C433.178 590.249 434.491 590.714 435.419 591.642C436.347 592.571 436.812 593.883 436.812 595.581V596.799H428.064C428.064 597.481 428.173 598.054 428.39 598.518C428.608 598.983 428.891 599.36 429.239 599.65C429.587 599.94 429.972 600.15 430.392 600.281C430.828 600.411 431.263 600.477 431.698 600.477C432.568 600.477 433.236 600.332 433.7 600.042C434.179 599.751 434.52 599.352 434.723 598.845H436.594C436.478 599.396 436.268 599.882 435.963 600.303C435.673 600.723 435.31 601.079 434.875 601.369C434.454 601.645 433.968 601.855 433.417 602C432.88 602.145 432.307 602.218 431.698 602.218ZM431.589 591.99C431.139 591.99 430.704 592.056 430.284 592.186C429.863 592.302 429.486 592.498 429.152 592.774C428.833 593.035 428.572 593.368 428.369 593.775C428.166 594.181 428.064 594.667 428.064 595.233H435.006C434.991 594.638 434.889 594.137 434.701 593.731C434.527 593.31 434.287 592.977 433.983 592.73C433.678 592.469 433.315 592.28 432.895 592.164C432.489 592.048 432.053 591.99 431.589 591.99ZM439.533 590.467H441.448V599.171L447.411 590.467H449.326V602H447.411V593.296L441.448 602H439.533V590.467ZM444.429 589.053C443.298 589.053 442.471 588.813 441.949 588.335C441.427 587.841 441.165 587.138 441.165 586.224H443.037C443.037 587.21 443.501 587.703 444.429 587.703C445.387 587.703 445.866 587.21 445.866 586.224H447.694C447.694 587.138 447.432 587.841 446.91 588.335C446.388 588.813 445.561 589.053 444.429 589.053ZM457.276 602.218C456.536 602.218 455.847 602.102 455.209 601.869C454.57 601.623 454.019 601.26 453.555 600.781C453.09 600.288 452.721 599.672 452.445 598.932C452.184 598.192 452.053 597.329 452.053 596.342V595.907C452.053 594.979 452.198 594.159 452.488 593.448C452.779 592.737 453.163 592.15 453.642 591.686C454.12 591.207 454.672 590.851 455.296 590.619C455.934 590.373 456.594 590.249 457.276 590.249C457.958 590.249 458.567 590.344 459.104 590.532C459.655 590.721 460.126 590.982 460.518 591.316C460.924 591.649 461.251 592.041 461.497 592.491C461.758 592.94 461.947 593.426 462.063 593.949H460.105C459.989 593.673 459.851 593.419 459.691 593.187C459.546 592.94 459.357 592.73 459.125 592.556C458.908 592.382 458.647 592.244 458.342 592.143C458.037 592.041 457.682 591.99 457.276 591.99C456.855 591.99 456.449 592.07 456.057 592.23C455.665 592.375 455.317 592.607 455.013 592.926C454.708 593.231 454.461 593.63 454.273 594.123C454.099 594.616 454.012 595.211 454.012 595.907V596.342C454.012 597.082 454.099 597.72 454.273 598.257C454.461 598.779 454.708 599.207 455.013 599.541C455.317 599.86 455.665 600.1 456.057 600.259C456.449 600.404 456.855 600.477 457.276 600.477C457.987 600.477 458.581 600.303 459.06 599.955C459.553 599.606 459.901 599.128 460.105 598.518H462.063C461.787 599.664 461.222 600.571 460.366 601.238C459.51 601.891 458.48 602.218 457.276 602.218Z" fill="black"/>
<path d="M949.307 586.768H954.747C955.661 586.768 956.445 586.869 957.098 587.072C957.75 587.275 958.287 587.558 958.708 587.921C959.143 588.269 959.462 588.697 959.665 589.205C959.868 589.698 959.97 590.242 959.97 590.837C959.97 591.62 959.752 592.295 959.317 592.861C958.882 593.412 958.345 593.811 957.707 594.057C958.606 594.261 959.317 594.674 959.839 595.298C960.362 595.907 960.623 596.705 960.623 597.691C960.623 598.315 960.521 598.888 960.318 599.411C960.115 599.933 959.796 600.39 959.361 600.781C958.925 601.159 958.36 601.456 957.663 601.674C956.981 601.891 956.155 602 955.183 602H949.307V586.768ZM955.183 600.216C955.835 600.216 956.379 600.158 956.815 600.042C957.25 599.911 957.598 599.737 957.859 599.519C958.12 599.287 958.302 599.012 958.403 598.692C958.519 598.373 958.577 598.018 958.577 597.626C958.577 597.234 958.519 596.879 958.403 596.56C958.302 596.226 958.12 595.951 957.859 595.733C957.598 595.501 957.243 595.327 956.793 595.211C956.358 595.08 955.814 595.015 955.161 595.015H951.353V600.216H955.183ZM954.747 593.318C955.357 593.318 955.864 593.26 956.271 593.144C956.677 593.027 957.003 592.861 957.25 592.643C957.496 592.425 957.671 592.172 957.772 591.881C957.874 591.591 957.924 591.272 957.924 590.924C957.924 590.576 957.874 590.257 957.772 589.967C957.671 589.662 957.496 589.408 957.25 589.205C957.003 589.002 956.677 588.842 956.271 588.726C955.864 588.61 955.357 588.552 954.747 588.552H951.353V593.318H954.747ZM963.45 590.467H965.365V594.819H967.693C969.144 594.819 970.21 595.138 970.892 595.777C971.588 596.415 971.936 597.3 971.936 598.431C971.936 599.534 971.588 600.404 970.892 601.043C970.21 601.681 969.144 602 967.693 602H963.45V590.467ZM967.584 600.303C968.484 600.303 969.115 600.143 969.477 599.824C969.84 599.505 970.021 599.033 970.021 598.41C970.021 597.786 969.84 597.314 969.477 596.995C969.115 596.676 968.484 596.516 967.584 596.516H965.365V600.303H967.584ZM973.721 590.467H975.636V602H973.721V590.467ZM982.245 596.146L978.132 590.467H980.352L983.398 594.667L986.445 590.467H988.577L984.464 596.038L988.795 602H986.532L983.311 597.496L980.091 602H977.915L982.245 596.146ZM995.438 602.218C994.698 602.218 993.994 602.102 993.327 601.869C992.659 601.623 992.072 601.26 991.564 600.781C991.056 600.288 990.65 599.672 990.346 598.932C990.041 598.192 989.889 597.329 989.889 596.342V595.907C989.889 594.979 990.041 594.159 990.346 593.448C990.65 592.737 991.056 592.15 991.564 591.686C992.072 591.207 992.659 590.851 993.327 590.619C993.994 590.373 994.698 590.249 995.438 590.249C996.177 590.249 996.881 590.373 997.548 590.619C998.216 590.851 998.803 591.207 999.311 591.686C999.819 592.15 1000.22 592.737 1000.53 593.448C1000.83 594.159 1000.99 594.979 1000.99 595.907V596.342C1000.99 597.329 1000.83 598.192 1000.53 598.932C1000.22 599.672 999.819 600.288 999.311 600.781C998.803 601.26 998.216 601.623 997.548 601.869C996.881 602.102 996.177 602.218 995.438 602.218ZM995.438 600.477C995.873 600.477 996.308 600.404 996.743 600.259C997.178 600.1 997.563 599.86 997.896 599.541C998.23 599.207 998.499 598.779 998.702 598.257C998.919 597.735 999.028 597.097 999.028 596.342V595.907C999.028 595.211 998.919 594.616 998.702 594.123C998.499 593.63 998.23 593.223 997.896 592.904C997.563 592.585 997.178 592.353 996.743 592.208C996.308 592.063 995.873 591.99 995.438 591.99C995.002 591.99 994.567 592.063 994.132 592.208C993.697 592.353 993.312 592.585 992.979 592.904C992.645 593.223 992.369 593.63 992.152 594.123C991.949 594.616 991.847 595.211 991.847 595.907V596.342C991.847 597.097 991.949 597.735 992.152 598.257C992.369 598.779 992.645 599.207 992.979 599.541C993.312 599.86 993.697 600.1 994.132 600.259C994.567 600.404 995.002 600.477 995.438 600.477ZM1002.18 600.303H1003.59C1003.75 600.085 1003.9 599.751 1004.03 599.302C1004.16 598.852 1004.28 598.323 1004.38 597.713C1004.48 597.104 1004.55 596.444 1004.6 595.733C1004.65 595.008 1004.68 594.268 1004.68 593.513V590.467H1012.73V600.303H1014.37V604.72H1012.54V602H1004.01V604.72H1002.18V600.303ZM1010.82 600.303V592.164H1006.55V593.949C1006.55 594.558 1006.53 595.167 1006.49 595.777C1006.44 596.371 1006.38 596.944 1006.29 597.496C1006.21 598.032 1006.1 598.547 1005.97 599.041C1005.85 599.519 1005.71 599.94 1005.55 600.303H1010.82ZM1016.66 590.467H1018.58V595.276H1024.54V590.467H1026.45V602H1024.54V596.973H1018.58V602H1016.66V590.467ZM1034.73 602.218C1033.99 602.218 1033.29 602.102 1032.62 601.869C1031.95 601.623 1031.36 601.26 1030.86 600.781C1030.35 600.288 1029.94 599.672 1029.64 598.932C1029.33 598.192 1029.18 597.329 1029.18 596.342V595.907C1029.18 594.979 1029.33 594.159 1029.64 593.448C1029.94 592.737 1030.35 592.15 1030.86 591.686C1031.36 591.207 1031.95 590.851 1032.62 590.619C1033.29 590.373 1033.99 590.249 1034.73 590.249C1035.47 590.249 1036.17 590.373 1036.84 590.619C1037.51 590.851 1038.1 591.207 1038.6 591.686C1039.11 592.15 1039.52 592.737 1039.82 593.448C1040.13 594.159 1040.28 594.979 1040.28 595.907V596.342C1040.28 597.329 1040.13 598.192 1039.82 598.932C1039.52 599.672 1039.11 600.288 1038.6 600.781C1038.1 601.26 1037.51 601.623 1036.84 601.869C1036.17 602.102 1035.47 602.218 1034.73 602.218ZM1034.73 600.477C1035.16 600.477 1035.6 600.404 1036.04 600.259C1036.47 600.1 1036.85 599.86 1037.19 599.541C1037.52 599.207 1037.79 598.779 1037.99 598.257C1038.21 597.735 1038.32 597.097 1038.32 596.342V595.907C1038.32 595.211 1038.21 594.616 1037.99 594.123C1037.79 593.63 1037.52 593.223 1037.19 592.904C1036.85 592.585 1036.47 592.353 1036.04 592.208C1035.6 592.063 1035.16 591.99 1034.73 591.99C1034.29 591.99 1033.86 592.063 1033.42 592.208C1032.99 592.353 1032.6 592.585 1032.27 592.904C1031.94 593.223 1031.66 593.63 1031.44 594.123C1031.24 594.616 1031.14 595.211 1031.14 595.907V596.342C1031.14 597.097 1031.24 597.735 1031.44 598.257C1031.66 598.779 1031.94 599.207 1032.27 599.541C1032.6 599.86 1032.99 600.1 1033.42 600.259C1033.86 600.404 1034.29 600.477 1034.73 600.477ZM1042.99 590.467H1044.9V599.171L1050.87 590.467H1052.78V602H1050.87V593.296L1044.9 602H1042.99V590.467ZM1047.89 589.053C1046.75 589.053 1045.93 588.813 1045.41 588.335C1044.88 587.841 1044.62 587.138 1044.62 586.224H1046.49C1046.49 587.21 1046.96 587.703 1047.89 587.703C1048.84 587.703 1049.32 587.21 1049.32 586.224H1051.15C1051.15 587.138 1050.89 587.841 1050.37 588.335C1049.84 588.813 1049.02 589.053 1047.89 589.053ZM1061.71 590.467H1063.63V599.171L1069.59 590.467H1071.5V602H1069.59V593.296L1063.63 602H1061.71V590.467ZM1074.99 590.467H1076.91V595.276H1082.87V590.467H1084.79V602H1082.87V596.973H1076.91V602H1074.99V590.467ZM1090.91 592.164H1086.97V590.467H1096.76V592.164H1092.82V602H1090.91V592.164ZM1103.52 602.218C1102.78 602.218 1102.07 602.102 1101.41 601.869C1100.74 601.637 1100.15 601.282 1099.64 600.803C1099.14 600.31 1098.73 599.693 1098.42 598.954C1098.12 598.214 1097.97 597.343 1097.97 596.342V595.907C1097.97 594.95 1098.11 594.123 1098.4 593.426C1098.69 592.716 1099.08 592.128 1099.56 591.664C1100.05 591.185 1100.62 590.83 1101.25 590.598C1101.91 590.365 1102.59 590.249 1103.3 590.249C1105 590.249 1106.31 590.714 1107.24 591.642C1108.17 592.571 1108.63 593.883 1108.63 595.581V596.799H1099.88C1099.88 597.481 1099.99 598.054 1100.21 598.518C1100.43 598.983 1100.71 599.36 1101.06 599.65C1101.41 599.94 1101.79 600.15 1102.21 600.281C1102.65 600.411 1103.08 600.477 1103.52 600.477C1104.39 600.477 1105.05 600.332 1105.52 600.042C1106 599.751 1106.34 599.352 1106.54 598.845H1108.41C1108.3 599.396 1108.09 599.882 1107.78 600.303C1107.49 600.723 1107.13 601.079 1106.69 601.369C1106.27 601.645 1105.79 601.855 1105.24 602C1104.7 602.145 1104.13 602.218 1103.52 602.218ZM1103.41 591.99C1102.96 591.99 1102.52 592.056 1102.1 592.186C1101.68 592.302 1101.3 592.498 1100.97 592.774C1100.65 593.035 1100.39 593.368 1100.19 593.775C1099.98 594.181 1099.88 594.667 1099.88 595.233H1106.82C1106.81 594.638 1106.71 594.137 1106.52 593.731C1106.35 593.31 1106.11 592.977 1105.8 592.73C1105.5 592.469 1105.13 592.28 1104.71 592.164C1104.31 592.048 1103.87 591.99 1103.41 591.99ZM1111.35 590.467H1113.14V592.643C1113.53 591.874 1114.07 591.287 1114.77 590.88C1115.48 590.46 1116.3 590.249 1117.23 590.249C1118.68 590.249 1119.84 590.728 1120.71 591.686C1121.58 592.629 1122.01 594.036 1122.01 595.907V596.342C1122.01 597.329 1121.9 598.192 1121.67 598.932C1121.43 599.657 1121.11 600.266 1120.69 600.76C1120.27 601.238 1119.76 601.601 1119.16 601.848C1118.58 602.094 1117.94 602.218 1117.23 602.218C1116.24 602.218 1115.41 602 1114.75 601.565C1114.09 601.13 1113.6 600.586 1113.27 599.933V606.352H1111.35V590.467ZM1116.79 600.52C1117.26 600.52 1117.69 600.433 1118.1 600.259C1118.5 600.071 1118.85 599.802 1119.14 599.454C1119.45 599.106 1119.68 598.671 1119.84 598.148C1120.01 597.626 1120.1 597.024 1120.1 596.342V595.907C1120.1 595.283 1120.01 594.725 1119.84 594.232C1119.68 593.738 1119.45 593.325 1119.14 592.991C1118.85 592.643 1118.5 592.382 1118.1 592.208C1117.69 592.034 1117.26 591.947 1116.79 591.947C1116.27 591.947 1115.79 592.034 1115.36 592.208C1114.92 592.367 1114.55 592.6 1114.25 592.904C1113.94 593.194 1113.7 593.542 1113.53 593.949C1113.35 594.355 1113.27 594.79 1113.27 595.254V596.995C1113.27 597.517 1113.35 597.996 1113.53 598.431C1113.7 598.867 1113.94 599.236 1114.25 599.541C1114.55 599.846 1114.92 600.085 1115.36 600.259C1115.79 600.433 1116.27 600.52 1116.79 600.52ZM1130.09 602.218C1128.09 602.218 1126.57 601.71 1125.52 600.694C1124.49 599.679 1123.98 598.235 1123.98 596.364V595.929C1123.98 594.145 1124.49 592.752 1125.52 591.751C1126.57 590.75 1128.09 590.249 1130.09 590.249V586.768H1132.01V590.249C1134.01 590.249 1135.53 590.75 1136.56 591.751C1137.6 592.752 1138.12 594.145 1138.12 595.929V596.364C1138.12 598.235 1137.6 599.679 1136.56 600.694C1135.53 601.71 1134.01 602.218 1132.01 602.218V606.352H1130.09V602.218ZM1136.16 595.929C1136.16 594.609 1135.82 593.622 1135.14 592.969C1134.47 592.317 1133.42 591.99 1131.99 591.99V600.477C1133.42 600.477 1134.47 600.143 1135.14 599.476C1135.82 598.808 1136.16 597.771 1136.16 596.364V595.929ZM1125.94 596.364C1125.94 597.771 1126.27 598.808 1126.94 599.476C1127.62 600.143 1128.68 600.477 1130.11 600.477V591.99C1128.68 591.99 1127.62 592.317 1126.94 592.969C1126.27 593.622 1125.94 594.609 1125.94 595.929V596.364ZM1145.63 602.218C1144.9 602.218 1144.19 602.102 1143.52 601.869C1142.86 601.637 1142.27 601.282 1141.76 600.803C1141.25 600.31 1140.85 599.693 1140.54 598.954C1140.24 598.214 1140.09 597.343 1140.09 596.342V595.907C1140.09 594.95 1140.23 594.123 1140.52 593.426C1140.81 592.716 1141.2 592.128 1141.67 591.664C1142.17 591.185 1142.73 590.83 1143.37 590.598C1144.02 590.365 1144.71 590.249 1145.42 590.249C1147.11 590.249 1148.43 590.714 1149.36 591.642C1150.28 592.571 1150.75 593.883 1150.75 595.581V596.799H1142C1142 597.481 1142.11 598.054 1142.33 598.518C1142.55 598.983 1142.83 599.36 1143.18 599.65C1143.52 599.94 1143.91 600.15 1144.33 600.281C1144.76 600.411 1145.2 600.477 1145.63 600.477C1146.51 600.477 1147.17 600.332 1147.64 600.042C1148.12 599.751 1148.46 599.352 1148.66 598.845H1150.53C1150.42 599.396 1150.2 599.882 1149.9 600.303C1149.61 600.723 1149.25 601.079 1148.81 601.369C1148.39 601.645 1147.91 601.855 1147.35 602C1146.82 602.145 1146.24 602.218 1145.63 602.218ZM1145.53 591.99C1145.08 591.99 1144.64 592.056 1144.22 592.186C1143.8 592.302 1143.42 592.498 1143.09 592.774C1142.77 593.035 1142.51 593.368 1142.31 593.775C1142.1 594.181 1142 594.667 1142 595.233H1148.94C1148.93 594.638 1148.83 594.137 1148.64 593.731C1148.46 593.31 1148.22 592.977 1147.92 592.73C1147.62 592.469 1147.25 592.28 1146.83 592.164C1146.43 592.048 1145.99 591.99 1145.53 591.99ZM1153.47 590.467H1155.39V599.171L1161.35 590.467H1163.26V602H1161.35V593.296L1155.39 602H1153.47V590.467ZM1158.37 589.053C1157.23 589.053 1156.41 588.813 1155.89 588.335C1155.36 587.841 1155.1 587.138 1155.1 586.224H1156.97C1156.97 587.21 1157.44 587.703 1158.37 587.703C1159.32 587.703 1159.8 587.21 1159.8 586.224H1161.63C1161.63 587.138 1161.37 587.841 1160.85 588.335C1160.32 588.813 1159.5 589.053 1158.37 589.053ZM1171.21 602.218C1170.47 602.218 1169.78 602.102 1169.15 601.869C1168.51 601.623 1167.96 601.26 1167.49 600.781C1167.03 600.288 1166.66 599.672 1166.38 598.932C1166.12 598.192 1165.99 597.329 1165.99 596.342V595.907C1165.99 594.979 1166.14 594.159 1166.43 593.448C1166.72 592.737 1167.1 592.15 1167.58 591.686C1168.06 591.207 1168.61 590.851 1169.23 590.619C1169.87 590.373 1170.53 590.249 1171.21 590.249C1171.89 590.249 1172.5 590.344 1173.04 590.532C1173.59 590.721 1174.06 590.982 1174.46 591.316C1174.86 591.649 1175.19 592.041 1175.43 592.491C1175.7 592.94 1175.88 593.426 1176 593.949H1174.04C1173.93 593.673 1173.79 593.419 1173.63 593.187C1173.48 592.94 1173.29 592.73 1173.06 592.556C1172.84 592.382 1172.58 592.244 1172.28 592.143C1171.97 592.041 1171.62 591.99 1171.21 591.99C1170.79 591.99 1170.39 592.07 1169.99 592.23C1169.6 592.375 1169.25 592.607 1168.95 592.926C1168.64 593.231 1168.4 593.63 1168.21 594.123C1168.04 594.616 1167.95 595.211 1167.95 595.907V596.342C1167.95 597.082 1168.04 597.72 1168.21 598.257C1168.4 598.779 1168.64 599.207 1168.95 599.541C1169.25 599.86 1169.6 600.1 1169.99 600.259C1170.39 600.404 1170.79 600.477 1171.21 600.477C1171.92 600.477 1172.52 600.303 1173 599.955C1173.49 599.606 1173.84 599.128 1174.04 598.518H1176C1175.72 599.664 1175.16 600.571 1174.3 601.238C1173.45 601.891 1172.42 602.218 1171.21 602.218Z" fill="black"/>
<rect x="987" y="227" width="280" height="109" fill="#F9FCFE"/>
<rect x="1007" y="247" width="60" height="69" fill="#ABD4C1"/>
<rect x="1007" y="247" width="60" height="69" stroke="black"/>
<rect x="1067" y="247" width="60" height="69" fill="#ABCFF4"/>
<rect x="1067" y="247" width="60" height="69" stroke="black"/>
<rect x="1127" y="247" width="60" height="69" fill="#F2DCDB"/>
<rect x="1127" y="247" width="60" height="69" stroke="black"/>
<rect x="1187" y="247" width="60" height="69" fill="#F3EFE7"/>
<rect x="1187" y="247" width="60" height="69" stroke="black"/>
<rect x="987" y="227" width="280" height="109" stroke="#DAEBFB"/>
<path d="M957 286.547H896V276.547H957V286.547Z" fill="#FFBD6E"/>
<path d="M957 270L977 281.547L957 293.094V270Z" fill="#FFBD6E"/>
<rect x="624" y="100" width="221" height="358" fill="#F9FCFE"/>
<path d="M709.592 156.268H719.385V158.052H711.638V162.992H718.732V164.776H711.638V171.5H709.592V156.268ZM722.752 156.268H724.797V171.5H722.752V156.268ZM729.377 156.268H739.169V158.052H731.422V162.992H738.516V164.776H731.422V171.5H729.377V156.268ZM748.087 171.718C747.217 171.718 746.375 171.573 745.563 171.282C744.75 170.978 744.032 170.514 743.409 169.89C742.785 169.266 742.284 168.468 741.907 167.496C741.53 166.524 741.341 165.356 741.341 163.993V163.557C741.341 162.252 741.53 161.128 741.907 160.185C742.284 159.242 742.785 158.466 743.409 157.856C744.032 157.232 744.75 156.775 745.563 156.485C746.375 156.195 747.217 156.05 748.087 156.05C748.957 156.05 749.799 156.195 750.611 156.485C751.424 156.775 752.142 157.232 752.766 157.856C753.389 158.466 753.89 159.242 754.267 160.185C754.644 161.128 754.833 162.252 754.833 163.557V163.993C754.833 165.356 754.644 166.524 754.267 167.496C753.89 168.468 753.389 169.266 752.766 169.89C752.142 170.514 751.424 170.978 750.611 171.282C749.799 171.573 748.957 171.718 748.087 171.718ZM748.087 169.89C748.682 169.89 749.255 169.781 749.806 169.563C750.357 169.346 750.843 169.005 751.264 168.541C751.685 168.062 752.018 167.453 752.265 166.713C752.526 165.958 752.657 165.052 752.657 163.993V163.557C752.657 162.556 752.526 161.701 752.265 160.99C752.018 160.264 751.685 159.677 751.264 159.227C750.843 158.763 750.357 158.422 749.806 158.204C749.255 157.987 748.682 157.878 748.087 157.878C747.492 157.878 746.919 157.987 746.368 158.204C745.817 158.422 745.331 158.763 744.91 159.227C744.489 159.677 744.148 160.264 743.887 160.99C743.641 161.701 743.517 162.556 743.517 163.557V163.993C743.517 165.052 743.641 165.958 743.887 166.713C744.148 167.453 744.489 168.062 744.91 168.541C745.331 169.005 745.817 169.346 746.368 169.563C746.919 169.781 747.492 169.89 748.087 169.89ZM645.055 180.268H654.847V182.052H647.101V186.992H654.195V188.776H647.101V195.5H645.055V180.268ZM657.779 183.967H659.694V195.5H657.779V183.967ZM658.736 182.444C658.359 182.444 658.047 182.32 657.801 182.074C657.554 181.827 657.431 181.515 657.431 181.138C657.431 180.761 657.554 180.449 657.801 180.202C658.047 179.956 658.359 179.833 658.736 179.833C659.114 179.833 659.426 179.956 659.672 180.202C659.919 180.449 660.042 180.761 660.042 181.138C660.042 181.515 659.919 181.827 659.672 182.074C659.426 182.32 659.114 182.444 658.736 182.444ZM663.384 183.967H665.168V186.143C665.415 185.461 665.821 184.895 666.387 184.446C666.967 183.982 667.671 183.749 668.498 183.749C668.788 183.749 669.02 183.764 669.194 183.793C669.383 183.822 669.549 183.858 669.695 183.902V185.686C669.506 185.614 669.317 185.563 669.129 185.534C668.955 185.505 668.708 185.49 668.389 185.49C667.954 185.49 667.548 185.57 667.17 185.73C666.793 185.889 666.467 186.114 666.191 186.404C665.915 186.68 665.698 187.021 665.538 187.427C665.379 187.833 665.299 188.276 665.299 188.754V195.5H663.384V183.967ZM675.889 195.718C675.12 195.718 674.452 195.631 673.887 195.456C673.335 195.268 672.864 195.021 672.472 194.717C672.081 194.412 671.776 194.057 671.558 193.65C671.341 193.244 671.188 192.809 671.101 192.345H673.016C673.118 192.809 673.386 193.215 673.821 193.563C674.271 193.897 674.96 194.064 675.889 194.064C676.425 194.064 676.875 194.02 677.238 193.933C677.6 193.832 677.891 193.708 678.108 193.563C678.34 193.404 678.507 193.222 678.609 193.019C678.71 192.802 678.761 192.577 678.761 192.345C678.761 192.098 678.71 191.881 678.609 191.692C678.522 191.503 678.355 191.337 678.108 191.191C677.876 191.032 677.55 190.894 677.129 190.778C676.723 190.647 676.208 190.539 675.584 190.452C674.946 190.365 674.365 190.241 673.843 190.082C673.335 189.908 672.9 189.683 672.537 189.407C672.189 189.131 671.914 188.805 671.711 188.428C671.522 188.036 671.428 187.565 671.428 187.013C671.428 186.578 671.522 186.165 671.711 185.773C671.899 185.381 672.182 185.033 672.559 184.729C672.936 184.424 673.401 184.185 673.952 184.011C674.503 183.836 675.149 183.749 675.889 183.749C676.57 183.749 677.165 183.844 677.673 184.032C678.181 184.206 678.609 184.446 678.957 184.75C679.319 185.055 679.602 185.41 679.805 185.817C680.009 186.223 680.154 186.658 680.241 187.122H678.326C678.21 186.615 677.963 186.201 677.586 185.882C677.209 185.563 676.643 185.403 675.889 185.403C674.946 185.403 674.286 185.563 673.908 185.882C673.531 186.187 673.343 186.564 673.343 187.013C673.343 187.275 673.386 187.499 673.473 187.688C673.575 187.877 673.734 188.043 673.952 188.189C674.184 188.334 674.481 188.457 674.844 188.558C675.221 188.645 675.685 188.725 676.237 188.798C676.948 188.885 677.579 189.015 678.13 189.189C678.681 189.349 679.145 189.574 679.523 189.864C679.9 190.14 680.183 190.481 680.371 190.887C680.574 191.293 680.676 191.779 680.676 192.345C680.676 192.809 680.574 193.244 680.371 193.65C680.183 194.057 679.892 194.412 679.501 194.717C679.109 195.021 678.609 195.268 677.999 195.456C677.405 195.631 676.701 195.718 675.889 195.718ZM687.645 195.609C686.412 195.609 685.52 195.333 684.969 194.782C684.432 194.216 684.163 193.367 684.163 192.236V185.664H682.423V183.967H684.163V181.356H686.078V183.967H689.168V185.664H686.078V192.018C686.078 192.671 686.216 193.143 686.492 193.433C686.767 193.723 687.297 193.868 688.08 193.868C688.516 193.868 688.951 193.846 689.386 193.803V195.5C689.11 195.529 688.835 195.551 688.559 195.565C688.283 195.594 687.979 195.609 687.645 195.609ZM698.207 180.268H700.253V195.5H698.207V180.268ZM704.397 183.967H706.182V186.143C706.312 185.824 706.493 185.519 706.726 185.229C706.958 184.939 707.233 184.685 707.552 184.468C707.886 184.25 708.263 184.076 708.684 183.945C709.119 183.815 709.598 183.749 710.12 183.749C711.571 183.749 712.644 184.141 713.341 184.924C714.052 185.693 714.407 186.825 714.407 188.319V195.5H712.492V188.754C712.492 187.681 712.267 186.868 711.817 186.317C711.368 185.766 710.613 185.49 709.554 185.49C708.989 185.49 708.495 185.585 708.075 185.773C707.668 185.962 707.335 186.208 707.074 186.513C706.813 186.818 706.617 187.166 706.486 187.557C706.37 187.949 706.312 188.348 706.312 188.754V195.5H704.397V183.967ZM722.355 188.515H728.883V190.299H722.355V188.515ZM737.367 180.268H747.159V182.052H739.412V186.992H746.506V188.776H739.412V195.5H737.367V180.268ZM750.091 183.967H752.005V195.5H750.091V183.967ZM751.048 182.444C750.671 182.444 750.359 182.32 750.112 182.074C749.866 181.827 749.742 181.515 749.742 181.138C749.742 180.761 749.866 180.449 750.112 180.202C750.359 179.956 750.671 179.833 751.048 179.833C751.425 179.833 751.737 179.956 751.984 180.202C752.23 180.449 752.354 180.761 752.354 181.138C752.354 181.515 752.23 181.827 751.984 182.074C751.737 182.32 751.425 182.444 751.048 182.444ZM755.696 183.967H757.48V186.143C757.726 185.461 758.133 184.895 758.698 184.446C759.279 183.982 759.982 183.749 760.809 183.749C761.099 183.749 761.331 183.764 761.506 183.793C761.694 183.822 761.861 183.858 762.006 183.902V185.686C761.817 185.614 761.629 185.563 761.44 185.534C761.266 185.505 761.02 185.49 760.7 185.49C760.265 185.49 759.859 185.57 759.482 185.73C759.105 185.889 758.778 186.114 758.503 186.404C758.227 186.68 758.009 187.021 757.85 187.427C757.69 187.833 757.61 188.276 757.61 188.754V195.5H755.696V183.967ZM768.2 195.718C767.431 195.718 766.764 195.631 766.198 195.456C765.647 195.268 765.175 195.021 764.784 194.717C764.392 194.412 764.087 194.057 763.87 193.65C763.652 193.244 763.5 192.809 763.413 192.345H765.328C765.429 192.809 765.698 193.215 766.133 193.563C766.583 193.897 767.272 194.064 768.2 194.064C768.737 194.064 769.187 194.02 769.549 193.933C769.912 193.832 770.202 193.708 770.42 193.563C770.652 193.404 770.819 193.222 770.92 193.019C771.022 192.802 771.072 192.577 771.072 192.345C771.072 192.098 771.022 191.881 770.92 191.692C770.833 191.503 770.666 191.337 770.42 191.191C770.188 191.032 769.861 190.894 769.44 190.778C769.034 190.647 768.519 190.539 767.895 190.452C767.257 190.365 766.677 190.241 766.155 190.082C765.647 189.908 765.212 189.683 764.849 189.407C764.501 189.131 764.225 188.805 764.022 188.428C763.833 188.036 763.739 187.565 763.739 187.013C763.739 186.578 763.833 186.165 764.022 185.773C764.211 185.381 764.494 185.033 764.871 184.729C765.248 184.424 765.712 184.185 766.263 184.011C766.815 183.836 767.46 183.749 768.2 183.749C768.882 183.749 769.477 183.844 769.984 184.032C770.492 184.206 770.92 184.446 771.268 184.75C771.631 185.055 771.914 185.41 772.117 185.817C772.32 186.223 772.465 186.658 772.552 187.122H770.637C770.521 186.615 770.275 186.201 769.897 185.882C769.52 185.563 768.954 185.403 768.2 185.403C767.257 185.403 766.597 185.563 766.22 185.882C765.843 186.187 765.654 186.564 765.654 187.013C765.654 187.275 765.698 187.499 765.785 187.688C765.886 187.877 766.046 188.043 766.263 188.189C766.496 188.334 766.793 188.457 767.156 188.558C767.533 188.645 767.997 188.725 768.548 188.798C769.259 188.885 769.89 189.015 770.441 189.189C770.993 189.349 771.457 189.574 771.834 189.864C772.211 190.14 772.494 190.481 772.683 190.887C772.886 191.293 772.987 191.779 772.987 192.345C772.987 192.809 772.886 193.244 772.683 193.65C772.494 194.057 772.204 194.412 771.812 194.717C771.421 195.021 770.92 195.268 770.311 195.456C769.716 195.631 769.012 195.718 768.2 195.718ZM779.957 195.609C778.724 195.609 777.831 195.333 777.28 194.782C776.743 194.216 776.475 193.367 776.475 192.236V185.664H774.734V183.967H776.475V181.356H778.39V183.967H781.48V185.664H778.39V192.018C778.39 192.671 778.528 193.143 778.803 193.433C779.079 193.723 779.608 193.868 780.392 193.868C780.827 193.868 781.262 193.846 781.697 193.803V195.5C781.422 195.529 781.146 195.551 780.871 195.565C780.595 195.594 780.29 195.609 779.957 195.609ZM796.177 195.718C795.306 195.718 794.465 195.573 793.652 195.282C792.84 194.978 792.122 194.514 791.498 193.89C790.874 193.266 790.374 192.468 789.997 191.496C789.619 190.524 789.431 189.356 789.431 187.993V187.557C789.431 186.252 789.619 185.128 789.997 184.185C790.374 183.242 790.874 182.466 791.498 181.856C792.122 181.232 792.84 180.775 793.652 180.485C794.465 180.195 795.306 180.05 796.177 180.05C797.047 180.05 797.888 180.195 798.701 180.485C799.513 180.775 800.231 181.232 800.855 181.856C801.479 182.466 801.979 183.242 802.356 184.185C802.734 185.128 802.922 186.252 802.922 187.557V187.993C802.922 189.356 802.734 190.524 802.356 191.496C801.979 192.468 801.479 193.266 800.855 193.89C800.231 194.514 799.513 194.978 798.701 195.282C797.888 195.573 797.047 195.718 796.177 195.718ZM796.177 193.89C796.771 193.89 797.344 193.781 797.896 193.563C798.447 193.346 798.933 193.005 799.354 192.541C799.774 192.062 800.108 191.453 800.355 190.713C800.616 189.958 800.746 189.052 800.746 187.993V187.557C800.746 186.556 800.616 185.701 800.355 184.99C800.108 184.264 799.774 183.677 799.354 183.227C798.933 182.763 798.447 182.422 797.896 182.204C797.344 181.987 796.771 181.878 796.177 181.878C795.582 181.878 795.009 181.987 794.457 182.204C793.906 182.422 793.42 182.763 793 183.227C792.579 183.677 792.238 184.264 791.977 184.99C791.73 185.701 791.607 186.556 791.607 187.557V187.993C791.607 189.052 791.73 189.958 791.977 190.713C792.238 191.453 792.579 192.062 793 192.541C793.42 193.005 793.906 193.346 794.457 193.563C795.009 193.781 795.582 193.89 796.177 193.89ZM810.043 195.718C808.65 195.718 807.606 195.319 806.91 194.521C806.213 193.723 805.865 192.49 805.865 190.822V183.967H807.78V190.713C807.78 191.786 807.998 192.599 808.433 193.15C808.882 193.701 809.608 193.977 810.609 193.977C811.146 193.977 811.61 193.882 812.001 193.694C812.408 193.505 812.734 193.259 812.981 192.954C813.242 192.649 813.43 192.301 813.546 191.91C813.677 191.518 813.742 191.119 813.742 190.713V183.967H815.657V195.5H813.873V193.324C813.742 193.643 813.561 193.948 813.329 194.238C813.111 194.528 812.836 194.782 812.502 195C812.183 195.217 811.813 195.391 811.392 195.522C810.986 195.652 810.536 195.718 810.043 195.718ZM823.392 195.609C822.159 195.609 821.267 195.333 820.716 194.782C820.179 194.216 819.911 193.367 819.911 192.236V185.664H818.17V183.967H819.911V181.356H821.826V183.967H824.916V185.664H821.826V192.018C821.826 192.671 821.963 193.143 822.239 193.433C822.515 193.723 823.044 193.868 823.828 193.868C824.263 193.868 824.698 193.846 825.133 193.803V195.5C824.857 195.529 824.582 195.551 824.306 195.565C824.031 195.594 823.726 195.609 823.392 195.609ZM655.659 351.268H667.627V366.5H665.582V353.052H657.705V366.5H655.659V351.268ZM676.331 366.718C675.592 366.718 674.888 366.602 674.221 366.369C673.553 366.137 672.966 365.782 672.458 365.303C671.95 364.81 671.544 364.193 671.24 363.454C670.935 362.714 670.783 361.843 670.783 360.842V360.407C670.783 359.45 670.928 358.623 671.218 357.926C671.508 357.216 671.892 356.628 672.371 356.164C672.864 355.685 673.43 355.33 674.068 355.098C674.721 354.865 675.403 354.749 676.114 354.749C677.811 354.749 679.124 355.214 680.052 356.142C680.981 357.071 681.445 358.383 681.445 360.081V361.299H672.697C672.697 361.981 672.806 362.554 673.024 363.018C673.241 363.483 673.524 363.86 673.873 364.15C674.221 364.44 674.605 364.65 675.026 364.781C675.461 364.911 675.896 364.977 676.331 364.977C677.202 364.977 677.869 364.832 678.333 364.542C678.812 364.251 679.153 363.852 679.356 363.345H681.228C681.111 363.896 680.901 364.382 680.596 364.803C680.306 365.223 679.944 365.579 679.508 365.869C679.088 366.145 678.602 366.355 678.051 366.5C677.514 366.645 676.941 366.718 676.331 366.718ZM676.223 356.49C675.773 356.49 675.338 356.556 674.917 356.686C674.496 356.802 674.119 356.998 673.785 357.274C673.466 357.535 673.205 357.868 673.002 358.275C672.799 358.681 672.697 359.167 672.697 359.733H679.639C679.625 359.138 679.523 358.637 679.334 358.231C679.16 357.81 678.921 357.477 678.616 357.23C678.312 356.969 677.949 356.78 677.528 356.664C677.122 356.548 676.687 356.49 676.223 356.49ZM684.167 354.967H685.951V357.143C686.343 356.374 686.887 355.787 687.583 355.38C688.294 354.96 689.114 354.749 690.042 354.749C691.493 354.749 692.653 355.228 693.524 356.186C694.394 357.129 694.829 358.536 694.829 360.407V360.842C694.829 361.829 694.713 362.692 694.481 363.432C694.249 364.157 693.923 364.766 693.502 365.26C693.081 365.738 692.574 366.101 691.979 366.348C691.399 366.594 690.753 366.718 690.042 366.718C689.056 366.718 688.229 366.5 687.561 366.065C686.909 365.63 686.415 365.086 686.082 364.433V370.852H684.167V354.967ZM689.607 365.02C690.071 365.02 690.506 364.933 690.913 364.759C691.319 364.571 691.667 364.302 691.957 363.954C692.262 363.606 692.494 363.171 692.653 362.648C692.827 362.126 692.915 361.524 692.915 360.842V360.407C692.915 359.783 692.827 359.225 692.653 358.732C692.494 358.238 692.262 357.825 691.957 357.491C691.667 357.143 691.319 356.882 690.913 356.708C690.506 356.534 690.071 356.447 689.607 356.447C689.085 356.447 688.606 356.534 688.171 356.708C687.736 356.867 687.366 357.1 687.061 357.404C686.756 357.694 686.517 358.042 686.343 358.449C686.169 358.855 686.082 359.29 686.082 359.754V361.495C686.082 362.017 686.169 362.496 686.343 362.931C686.517 363.367 686.756 363.736 687.061 364.041C687.366 364.346 687.736 364.585 688.171 364.759C688.606 364.933 689.085 365.02 689.607 365.02ZM697.555 354.967H702.559C703.981 354.967 705.026 355.264 705.693 355.859C706.36 356.439 706.694 357.194 706.694 358.122C706.694 358.369 706.65 358.623 706.563 358.884C706.476 359.13 706.353 359.363 706.193 359.58C706.048 359.798 705.867 359.986 705.649 360.146C705.446 360.306 705.214 360.429 704.953 360.516C705.664 360.69 706.201 361.024 706.563 361.517C706.941 361.996 707.129 362.561 707.129 363.214C707.129 364.215 706.795 365.013 706.128 365.608C705.461 366.203 704.416 366.5 702.995 366.5H697.555V354.967ZM702.995 364.803C703.807 364.803 704.38 364.658 704.714 364.367C705.047 364.077 705.214 363.664 705.214 363.127C705.214 362.576 705.047 362.155 704.714 361.865C704.38 361.56 703.807 361.408 702.995 361.408H699.469V364.803H702.995ZM702.559 359.841C703.386 359.841 703.959 359.696 704.279 359.406C704.612 359.116 704.779 358.717 704.779 358.209C704.779 357.731 704.612 357.353 704.279 357.078C703.959 356.802 703.386 356.664 702.559 356.664H699.469V359.841H702.559ZM709.859 354.967H711.773V359.319H714.102C715.552 359.319 716.619 359.638 717.301 360.277C717.997 360.915 718.345 361.8 718.345 362.931C718.345 364.034 717.997 364.904 717.301 365.543C716.619 366.181 715.552 366.5 714.102 366.5H709.859V354.967ZM713.993 364.803C714.892 364.803 715.523 364.643 715.886 364.324C716.249 364.005 716.43 363.533 716.43 362.91C716.43 362.286 716.249 361.814 715.886 361.495C715.523 361.176 714.892 361.016 713.993 361.016H711.773V364.803H713.993ZM720.129 354.967H722.044V366.5H720.129V354.967ZM725.52 354.967H727.435V363.671L733.397 354.967H735.312V366.5H733.397V357.796L727.435 366.5H725.52V354.967ZM730.416 353.553C729.285 353.553 728.458 353.313 727.935 352.835C727.413 352.341 727.152 351.638 727.152 350.724H729.023C729.023 351.71 729.488 352.203 730.416 352.203C731.374 352.203 731.852 351.71 731.852 350.724H733.68C733.68 351.638 733.419 352.341 732.897 352.835C732.375 353.313 731.548 353.553 730.416 353.553ZM748.158 366.718C746.708 366.718 745.569 366.413 744.742 365.804C743.915 365.194 743.458 364.338 743.371 363.236H745.286C745.388 363.802 745.685 364.237 746.178 364.542C746.686 364.832 747.346 364.977 748.158 364.977C749.159 364.977 749.885 364.81 750.334 364.476C750.799 364.128 751.031 363.715 751.031 363.236C751.031 362.67 750.842 362.228 750.465 361.909C750.088 361.575 749.435 361.408 748.507 361.408H746.526V359.841H748.376C749.174 359.841 749.74 359.689 750.073 359.384C750.422 359.08 750.596 358.652 750.596 358.101C750.596 357.665 750.393 357.288 749.986 356.969C749.58 356.65 748.971 356.49 748.158 356.49C747.274 356.49 746.628 356.635 746.222 356.925C745.83 357.201 745.591 357.6 745.504 358.122H743.589C743.632 357.644 743.763 357.201 743.98 356.795C744.213 356.374 744.524 356.012 744.916 355.707C745.308 355.402 745.772 355.17 746.309 355.011C746.86 354.836 747.477 354.749 748.158 354.749C748.898 354.749 749.537 354.836 750.073 355.011C750.625 355.17 751.082 355.402 751.444 355.707C751.807 355.997 752.075 356.345 752.249 356.751C752.423 357.158 752.511 357.607 752.511 358.101C752.511 358.652 752.373 359.138 752.097 359.558C751.821 359.965 751.379 360.284 750.77 360.516C751.582 360.734 752.148 361.082 752.467 361.56C752.786 362.039 752.946 362.598 752.946 363.236C752.946 363.715 752.844 364.164 752.641 364.585C752.438 365.006 752.133 365.376 751.727 365.695C751.335 366 750.835 366.246 750.226 366.435C749.631 366.623 748.942 366.718 748.158 366.718ZM758.96 366.718C758.322 366.718 757.756 366.631 757.263 366.456C756.784 366.268 756.378 366.014 756.044 365.695C755.711 365.376 755.457 364.999 755.283 364.563C755.108 364.128 755.021 363.649 755.021 363.127C755.021 361.981 755.355 361.154 756.022 360.646C756.704 360.139 757.676 359.885 758.938 359.885H762.681V359.101C762.681 358.115 762.456 357.433 762.007 357.056C761.571 356.679 760.911 356.49 760.026 356.49C759.199 356.49 758.597 356.65 758.22 356.969C757.843 357.274 757.633 357.622 757.589 358.013H755.674C755.703 357.549 755.827 357.121 756.044 356.73C756.276 356.323 756.581 355.975 756.958 355.685C757.35 355.395 757.814 355.17 758.351 355.011C758.888 354.836 759.482 354.749 760.135 354.749C761.499 354.749 762.58 355.076 763.377 355.729C764.19 356.367 764.596 357.419 764.596 358.884V363.562C764.596 364.172 764.596 364.708 764.596 365.173C764.611 365.622 764.647 366.065 764.705 366.5H763.029C762.986 366.166 762.957 365.854 762.942 365.564C762.928 365.26 762.92 364.919 762.92 364.542C762.616 365.151 762.123 365.666 761.441 366.087C760.759 366.507 759.932 366.718 758.96 366.718ZM759.374 364.977C759.823 364.977 760.244 364.919 760.636 364.803C761.042 364.672 761.397 364.491 761.702 364.259C762.007 364.012 762.246 363.715 762.42 363.367C762.594 363.018 762.681 362.612 762.681 362.148V361.365H759.265C758.554 361.365 757.995 361.51 757.589 361.8C757.183 362.075 756.98 362.518 756.98 363.127C756.98 363.664 757.168 364.106 757.546 364.455C757.937 364.803 758.547 364.977 759.374 364.977ZM767.978 354.967H769.893V364.803H774.093V354.967H776.008V364.803H780.208V354.967H782.122V366.5H767.978V354.967ZM790.382 366.718C789.642 366.718 788.939 366.602 788.271 366.369C787.604 366.137 787.016 365.782 786.509 365.303C786.001 364.81 785.595 364.193 785.29 363.454C784.985 362.714 784.833 361.843 784.833 360.842V360.407C784.833 359.45 784.978 358.623 785.268 357.926C785.558 357.216 785.943 356.628 786.422 356.164C786.915 355.685 787.481 355.33 788.119 355.098C788.772 354.865 789.454 354.749 790.164 354.749C791.862 354.749 793.175 355.214 794.103 356.142C795.031 357.071 795.496 358.383 795.496 360.081V361.299H786.748C786.748 361.981 786.857 362.554 787.074 363.018C787.292 363.483 787.575 363.86 787.923 364.15C788.271 364.44 788.656 364.65 789.076 364.781C789.512 364.911 789.947 364.977 790.382 364.977C791.252 364.977 791.92 364.832 792.384 364.542C792.863 364.251 793.204 363.852 793.407 363.345H795.278C795.162 363.896 794.952 364.382 794.647 364.803C794.357 365.223 793.994 365.579 793.559 365.869C793.138 366.145 792.652 366.355 792.101 366.5C791.564 366.645 790.991 366.718 790.382 366.718ZM790.273 356.49C789.824 356.49 789.388 356.556 788.968 356.686C788.547 356.802 788.17 356.998 787.836 357.274C787.517 357.535 787.256 357.868 787.053 358.275C786.85 358.681 786.748 359.167 786.748 359.733H793.69C793.675 359.138 793.574 358.637 793.385 358.231C793.211 357.81 792.971 357.477 792.667 357.23C792.362 356.969 792 356.78 791.579 356.664C791.173 356.548 790.737 356.49 790.273 356.49ZM797.461 366.718C797.243 366.718 797.026 366.696 796.808 366.652V364.737C796.881 364.752 796.989 364.759 797.135 364.759C797.454 364.759 797.729 364.658 797.961 364.455C798.208 364.251 798.404 363.896 798.549 363.388C798.694 362.881 798.803 362.191 798.875 361.321C798.948 360.451 798.984 359.348 798.984 358.013V354.967H807.253V366.5H805.338V356.664H800.899V358.449C800.899 360.059 800.827 361.394 800.681 362.453C800.536 363.512 800.319 364.36 800.029 364.999C799.753 365.622 799.398 366.065 798.962 366.326C798.527 366.587 798.027 366.718 797.461 366.718ZM811.06 366.5V364.106H813.454V366.5L811.278 369.764H810.19L811.06 366.5ZM658.008 379.967H667.582V391.5H665.667V381.664H659.923V391.5H658.008V379.967ZM675.843 391.718C675.103 391.718 674.399 391.602 673.732 391.369C673.065 391.137 672.477 390.782 671.969 390.303C671.462 389.81 671.055 389.193 670.751 388.454C670.446 387.714 670.294 386.843 670.294 385.842V385.407C670.294 384.45 670.439 383.623 670.729 382.926C671.019 382.216 671.404 381.628 671.882 381.164C672.376 380.685 672.941 380.33 673.58 380.098C674.232 379.865 674.914 379.749 675.625 379.749C677.322 379.749 678.635 380.214 679.564 381.142C680.492 382.071 680.956 383.383 680.956 385.081V386.299H672.209C672.209 386.981 672.318 387.554 672.535 388.018C672.753 388.483 673.036 388.86 673.384 389.15C673.732 389.44 674.116 389.65 674.537 389.781C674.972 389.911 675.407 389.977 675.843 389.977C676.713 389.977 677.38 389.832 677.845 389.542C678.323 389.251 678.664 388.852 678.867 388.345H680.739C680.623 388.896 680.412 389.382 680.108 389.803C679.818 390.223 679.455 390.579 679.02 390.869C678.599 391.145 678.113 391.355 677.562 391.5C677.025 391.645 676.452 391.718 675.843 391.718ZM675.734 381.49C675.284 381.49 674.849 381.556 674.428 381.686C674.008 381.802 673.63 381.998 673.297 382.274C672.978 382.535 672.716 382.868 672.513 383.275C672.31 383.681 672.209 384.167 672.209 384.733H679.15C679.136 384.138 679.034 383.637 678.846 383.231C678.672 382.81 678.432 382.477 678.128 382.23C677.823 381.969 677.46 381.78 677.04 381.664C676.633 381.548 676.198 381.49 675.734 381.49ZM683.678 379.967H685.462V382.143C685.854 381.374 686.398 380.787 687.094 380.38C687.805 379.96 688.625 379.749 689.553 379.749C691.004 379.749 692.165 380.228 693.035 381.186C693.905 382.129 694.341 383.536 694.341 385.407V385.842C694.341 386.829 694.225 387.692 693.993 388.432C693.76 389.157 693.434 389.766 693.013 390.26C692.593 390.738 692.085 391.101 691.49 391.348C690.91 391.594 690.264 391.718 689.553 391.718C688.567 391.718 687.74 391.5 687.073 391.065C686.42 390.63 685.927 390.086 685.593 389.433V395.852H683.678V379.967ZM689.118 390.02C689.582 390.02 690.018 389.933 690.424 389.759C690.83 389.571 691.178 389.302 691.468 388.954C691.773 388.606 692.005 388.171 692.165 387.648C692.339 387.126 692.426 386.524 692.426 385.842V385.407C692.426 384.783 692.339 384.225 692.165 383.732C692.005 383.238 691.773 382.825 691.468 382.491C691.178 382.143 690.83 381.882 690.424 381.708C690.018 381.534 689.582 381.447 689.118 381.447C688.596 381.447 688.117 381.534 687.682 381.708C687.247 381.867 686.877 382.1 686.572 382.404C686.268 382.694 686.028 383.042 685.854 383.449C685.68 383.855 685.593 384.29 685.593 384.754V386.495C685.593 387.017 685.68 387.496 685.854 387.931C686.028 388.367 686.268 388.736 686.572 389.041C686.877 389.346 687.247 389.585 687.682 389.759C688.117 389.933 688.596 390.02 689.118 390.02ZM697.066 379.967H702.071C703.492 379.967 704.537 380.264 705.204 380.859C705.872 381.439 706.205 382.194 706.205 383.122C706.205 383.369 706.162 383.623 706.075 383.884C705.988 384.13 705.864 384.363 705.705 384.58C705.56 384.798 705.378 384.986 705.161 385.146C704.958 385.306 704.725 385.429 704.464 385.516C705.175 385.69 705.712 386.024 706.075 386.517C706.452 386.996 706.64 387.561 706.64 388.214C706.64 389.215 706.307 390.013 705.639 390.608C704.972 391.203 703.928 391.5 702.506 391.5H697.066V379.967ZM702.506 389.803C703.318 389.803 703.891 389.658 704.225 389.367C704.559 389.077 704.725 388.664 704.725 388.127C704.725 387.576 704.559 387.155 704.225 386.865C703.891 386.56 703.318 386.408 702.506 386.408H698.981V389.803H702.506ZM702.071 384.841C702.898 384.841 703.471 384.696 703.79 384.406C704.123 384.116 704.29 383.717 704.29 383.209C704.29 382.731 704.123 382.353 703.79 382.078C703.471 381.802 702.898 381.664 702.071 381.664H698.981V384.841H702.071ZM709.37 379.967H711.285V384.319H713.613C715.064 384.319 716.13 384.638 716.812 385.277C717.508 385.915 717.856 386.8 717.856 387.931C717.856 389.034 717.508 389.904 716.812 390.543C716.13 391.181 715.064 391.5 713.613 391.5H709.37V379.967ZM713.504 389.803C714.404 389.803 715.035 389.643 715.397 389.324C715.76 389.005 715.941 388.533 715.941 387.91C715.941 387.286 715.76 386.814 715.397 386.495C715.035 386.176 714.404 386.016 713.504 386.016H711.285V389.803H713.504ZM719.641 379.967H721.556V391.5H719.641V379.967ZM725.031 379.967H726.946V388.671L732.909 379.967H734.823V391.5H732.909V382.796L726.946 391.5H725.031V379.967ZM729.927 378.553C728.796 378.553 727.969 378.313 727.447 377.835C726.924 377.341 726.663 376.638 726.663 375.724H728.535C728.535 376.71 728.999 377.203 729.927 377.203C730.885 377.203 731.364 376.71 731.364 375.724H733.191C733.191 376.638 732.93 377.341 732.408 377.835C731.886 378.313 731.059 378.553 729.927 378.553ZM743.753 379.967H748.758C750.179 379.967 751.224 380.264 751.891 380.859C752.559 381.439 752.892 382.194 752.892 383.122C752.892 383.369 752.849 383.623 752.762 383.884C752.675 384.13 752.551 384.363 752.392 384.58C752.247 384.798 752.065 384.986 751.848 385.146C751.645 385.306 751.412 385.429 751.151 385.516C751.862 385.69 752.399 386.024 752.762 386.517C753.139 386.996 753.327 387.561 753.327 388.214C753.327 389.215 752.994 390.013 752.326 390.608C751.659 391.203 750.615 391.5 749.193 391.5H743.753V379.967ZM749.193 389.803C750.005 389.803 750.578 389.658 750.912 389.367C751.246 389.077 751.412 388.664 751.412 388.127C751.412 387.576 751.246 387.155 750.912 386.865C750.578 386.56 750.005 386.408 749.193 386.408H745.668V389.803H749.193ZM748.758 384.841C749.585 384.841 750.158 384.696 750.477 384.406C750.81 384.116 750.977 383.717 750.977 383.209C750.977 382.731 750.81 382.353 750.477 382.078C750.158 381.802 749.585 381.664 748.758 381.664H745.668V384.841H748.758ZM756.057 379.967H757.972V384.319H760.3C761.751 384.319 762.817 384.638 763.499 385.277C764.195 385.915 764.543 386.8 764.543 387.931C764.543 389.034 764.195 389.904 763.499 390.543C762.817 391.181 761.751 391.5 760.3 391.5H756.057V379.967ZM760.191 389.803C761.091 389.803 761.722 389.643 762.084 389.324C762.447 389.005 762.628 388.533 762.628 387.91C762.628 387.286 762.447 386.814 762.084 386.495C761.722 386.176 761.091 386.016 760.191 386.016H757.972V389.803H760.191ZM766.328 379.967H768.243V391.5H766.328V379.967ZM771.718 379.967H773.633V389.803H777.833V379.967H779.748V389.803H783.948V379.967H785.863V391.5H771.718V379.967ZM794.122 391.718C793.382 391.718 792.679 391.602 792.011 391.369C791.344 391.137 790.756 390.782 790.249 390.303C789.741 389.81 789.335 389.193 789.03 388.454C788.726 387.714 788.573 386.843 788.573 385.842V385.407C788.573 384.45 788.718 383.623 789.008 382.926C789.299 382.216 789.683 381.628 790.162 381.164C790.655 380.685 791.221 380.33 791.859 380.098C792.512 379.865 793.194 379.749 793.904 379.749C795.602 379.749 796.915 380.214 797.843 381.142C798.772 382.071 799.236 383.383 799.236 385.081V386.299H790.488C790.488 386.981 790.597 387.554 790.814 388.018C791.032 388.483 791.315 388.86 791.663 389.15C792.011 389.44 792.396 389.65 792.816 389.781C793.252 389.911 793.687 389.977 794.122 389.977C794.992 389.977 795.66 389.832 796.124 389.542C796.603 389.251 796.944 388.852 797.147 388.345H799.018C798.902 388.896 798.692 389.382 798.387 389.803C798.097 390.223 797.734 390.579 797.299 390.869C796.878 391.145 796.392 391.355 795.841 391.5C795.304 391.645 794.731 391.718 794.122 391.718ZM794.013 381.49C793.564 381.49 793.128 381.556 792.708 381.686C792.287 381.802 791.91 381.998 791.576 382.274C791.257 382.535 790.996 382.868 790.793 383.275C790.59 383.681 790.488 384.167 790.488 384.733H797.43C797.415 384.138 797.314 383.637 797.125 383.231C796.951 382.81 796.712 382.477 796.407 382.23C796.102 381.969 795.74 381.78 795.319 381.664C794.913 381.548 794.477 381.49 794.013 381.49ZM801.201 391.718C800.983 391.718 800.766 391.696 800.548 391.652V389.737C800.621 389.752 800.73 389.759 800.875 389.759C801.194 389.759 801.469 389.658 801.701 389.455C801.948 389.251 802.144 388.896 802.289 388.388C802.434 387.881 802.543 387.191 802.615 386.321C802.688 385.451 802.724 384.348 802.724 383.013V379.967H810.993V391.5H809.078V381.664H804.639V383.449C804.639 385.059 804.567 386.394 804.422 387.453C804.276 388.512 804.059 389.36 803.769 389.999C803.493 390.622 803.138 391.065 802.702 391.326C802.267 391.587 801.767 391.718 801.201 391.718Z" fill="black"/>
<rect x="624" y="100" width="221" height="358" stroke="#DAEBFB"/>
<path d="M1267 515L1267 544.659L1062 544.659M857 515L857 544.659L1062 544.659M1062 544.659L1062 570" stroke="black"/>
<path d="M611 515L611 544.659L355.5 544.659M100 515L100 544.659L355.5 544.659M355.5 544.659L355.5 570" stroke="black"/>
<rect x="801.5" y="232.5" width="99" height="99" rx="49.5" fill="#FFF5D6"/>
<rect x="801.5" y="232.5" width="99" height="99" rx="49.5" stroke="#EAC053"/>
<path d="M433.5 138.868L664.003 272.5L433.5 406.132L433.5 138.868Z" fill="#FFF5D6" stroke="#EAC053"/>
<path d="M445.176 252.768H455.077V254.53H447.222V258.861H450.616C451.617 258.861 452.488 258.969 453.227 259.187C453.967 259.405 454.577 259.717 455.055 260.123C455.548 260.529 455.911 261.015 456.143 261.581C456.375 262.132 456.491 262.749 456.491 263.43C456.491 264.112 456.375 264.736 456.143 265.302C455.911 265.853 455.548 266.332 455.055 266.738C454.577 267.144 453.967 267.456 453.227 267.674C452.488 267.891 451.617 268 450.616 268H445.176V252.768ZM450.507 266.216C451.958 266.216 452.973 265.976 453.554 265.498C454.149 265.004 454.446 264.315 454.446 263.43C454.446 262.545 454.149 261.864 453.554 261.385C452.973 260.892 451.958 260.645 450.507 260.645H447.222V266.216H450.507ZM464 268.218C463.26 268.218 462.556 268.102 461.889 267.869C461.222 267.637 460.634 267.282 460.126 266.803C459.619 266.31 459.212 265.693 458.908 264.954C458.603 264.214 458.451 263.343 458.451 262.342V261.907C458.451 260.95 458.596 260.123 458.886 259.426C459.176 258.716 459.56 258.128 460.039 257.664C460.532 257.185 461.098 256.83 461.737 256.598C462.389 256.365 463.071 256.249 463.782 256.249C465.479 256.249 466.792 256.714 467.721 257.642C468.649 258.571 469.113 259.883 469.113 261.581V262.799H460.366C460.366 263.481 460.474 264.054 460.692 264.518C460.91 264.983 461.193 265.36 461.541 265.65C461.889 265.94 462.273 266.15 462.694 266.281C463.129 266.411 463.564 266.477 464 266.477C464.87 266.477 465.537 266.332 466.002 266.042C466.48 265.751 466.821 265.352 467.024 264.845H468.896C468.78 265.396 468.569 265.882 468.265 266.303C467.974 266.723 467.612 267.079 467.177 267.369C466.756 267.645 466.27 267.855 465.719 268C465.182 268.145 464.609 268.218 464 268.218ZM463.891 257.99C463.441 257.99 463.006 258.056 462.585 258.186C462.164 258.302 461.787 258.498 461.454 258.774C461.134 259.035 460.873 259.368 460.67 259.775C460.467 260.181 460.366 260.667 460.366 261.233H467.307C467.293 260.638 467.191 260.137 467.003 259.731C466.828 259.31 466.589 258.977 466.284 258.73C465.98 258.469 465.617 258.28 465.196 258.164C464.79 258.048 464.355 257.99 463.891 257.99ZM475.752 268.218C474.301 268.218 473.162 267.913 472.336 267.304C471.509 266.694 471.052 265.838 470.965 264.736H472.88C472.981 265.302 473.278 265.737 473.772 266.042C474.279 266.332 474.939 266.477 475.752 266.477C476.753 266.477 477.478 266.31 477.928 265.976C478.392 265.628 478.624 265.215 478.624 264.736C478.624 264.17 478.436 263.728 478.058 263.409C477.681 263.075 477.028 262.908 476.1 262.908H474.12V261.341H475.969C476.767 261.341 477.333 261.189 477.667 260.884C478.015 260.58 478.189 260.152 478.189 259.601C478.189 259.165 477.986 258.788 477.58 258.469C477.174 258.15 476.564 257.99 475.752 257.99C474.867 257.99 474.221 258.135 473.815 258.425C473.424 258.701 473.184 259.1 473.097 259.622H471.182C471.226 259.144 471.356 258.701 471.574 258.295C471.806 257.874 472.118 257.512 472.51 257.207C472.901 256.902 473.365 256.67 473.902 256.511C474.454 256.336 475.07 256.249 475.752 256.249C476.492 256.249 477.13 256.336 477.667 256.511C478.218 256.67 478.675 256.902 479.038 257.207C479.4 257.497 479.669 257.845 479.843 258.251C480.017 258.658 480.104 259.107 480.104 259.601C480.104 260.152 479.966 260.638 479.69 261.058C479.415 261.465 478.972 261.784 478.363 262.016C479.176 262.234 479.741 262.582 480.06 263.06C480.38 263.539 480.539 264.098 480.539 264.736C480.539 265.215 480.438 265.664 480.235 266.085C480.031 266.506 479.727 266.876 479.321 267.195C478.929 267.5 478.428 267.746 477.819 267.935C477.224 268.123 476.535 268.218 475.752 268.218ZM493.495 268.218C492.755 268.218 492.052 268.102 491.384 267.869C490.717 267.623 490.129 267.26 489.622 266.781C489.114 266.288 488.708 265.672 488.403 264.932C488.098 264.192 487.946 263.329 487.946 262.342V261.907C487.946 260.979 488.098 260.159 488.403 259.448C488.708 258.737 489.114 258.15 489.622 257.686C490.129 257.207 490.717 256.851 491.384 256.619C492.052 256.373 492.755 256.249 493.495 256.249C494.235 256.249 494.938 256.373 495.606 256.619C496.273 256.851 496.861 257.207 497.368 257.686C497.876 258.15 498.282 258.737 498.587 259.448C498.892 260.159 499.044 260.979 499.044 261.907V262.342C499.044 263.329 498.892 264.192 498.587 264.932C498.282 265.672 497.876 266.288 497.368 266.781C496.861 267.26 496.273 267.623 495.606 267.869C494.938 268.102 494.235 268.218 493.495 268.218ZM493.495 266.477C493.93 266.477 494.365 266.404 494.801 266.259C495.236 266.1 495.62 265.86 495.954 265.541C496.288 265.207 496.556 264.779 496.759 264.257C496.977 263.735 497.086 263.097 497.086 262.342V261.907C497.086 261.211 496.977 260.616 496.759 260.123C496.556 259.63 496.288 259.223 495.954 258.904C495.62 258.585 495.236 258.353 494.801 258.208C494.365 258.063 493.93 257.99 493.495 257.99C493.06 257.99 492.625 258.063 492.189 258.208C491.754 258.353 491.37 258.585 491.036 258.904C490.702 259.223 490.427 259.63 490.209 260.123C490.006 260.616 489.905 261.211 489.905 261.907V262.342C489.905 263.097 490.006 263.735 490.209 264.257C490.427 264.779 490.702 265.207 491.036 265.541C491.37 265.86 491.754 266.1 492.189 266.259C492.625 266.404 493.06 266.477 493.495 266.477ZM501.755 256.467H503.54V258.643C503.932 257.874 504.476 257.287 505.172 256.88C505.883 256.46 506.702 256.249 507.631 256.249C509.081 256.249 510.242 256.728 511.112 257.686C511.983 258.629 512.418 260.036 512.418 261.907V262.342C512.418 263.329 512.302 264.192 512.07 264.932C511.838 265.657 511.511 266.266 511.091 266.76C510.67 267.238 510.162 267.601 509.567 267.848C508.987 268.094 508.342 268.218 507.631 268.218C506.644 268.218 505.817 268 505.15 267.565C504.497 267.13 504.004 266.586 503.67 265.933V272.352H501.755V256.467ZM507.196 266.52C507.66 266.52 508.095 266.433 508.501 266.259C508.907 266.071 509.256 265.802 509.546 265.454C509.85 265.106 510.082 264.671 510.242 264.148C510.416 263.626 510.503 263.024 510.503 262.342V261.907C510.503 261.283 510.416 260.725 510.242 260.232C510.082 259.738 509.85 259.325 509.546 258.991C509.256 258.643 508.907 258.382 508.501 258.208C508.095 258.034 507.66 257.947 507.196 257.947C506.673 257.947 506.195 258.034 505.759 258.208C505.324 258.367 504.954 258.6 504.65 258.904C504.345 259.194 504.106 259.542 503.932 259.949C503.757 260.355 503.67 260.79 503.67 261.254V262.995C503.67 263.517 503.757 263.996 503.932 264.431C504.106 264.867 504.345 265.236 504.65 265.541C504.954 265.846 505.324 266.085 505.759 266.259C506.195 266.433 506.673 266.52 507.196 266.52ZM515.143 256.467H522.977V258.164H517.058V268H515.143V256.467ZM528.013 268.218C527.375 268.218 526.809 268.131 526.316 267.956C525.837 267.768 525.431 267.514 525.097 267.195C524.763 266.876 524.51 266.499 524.335 266.063C524.161 265.628 524.074 265.149 524.074 264.627C524.074 263.481 524.408 262.654 525.075 262.146C525.757 261.639 526.729 261.385 527.991 261.385H531.734V260.601C531.734 259.615 531.509 258.933 531.059 258.556C530.624 258.179 529.964 257.99 529.079 257.99C528.252 257.99 527.65 258.15 527.273 258.469C526.896 258.774 526.686 259.122 526.642 259.513H524.727C524.756 259.049 524.879 258.621 525.097 258.23C525.329 257.823 525.634 257.475 526.011 257.185C526.403 256.895 526.867 256.67 527.404 256.511C527.94 256.336 528.535 256.249 529.188 256.249C530.552 256.249 531.632 256.576 532.43 257.229C533.243 257.867 533.649 258.919 533.649 260.384V265.062C533.649 265.672 533.649 266.208 533.649 266.673C533.663 267.122 533.7 267.565 533.758 268H532.082C532.039 267.666 532.01 267.354 531.995 267.064C531.981 266.76 531.973 266.419 531.973 266.042C531.669 266.651 531.175 267.166 530.494 267.587C529.812 268.007 528.985 268.218 528.013 268.218ZM528.426 266.477C528.876 266.477 529.297 266.419 529.688 266.303C530.095 266.172 530.45 265.991 530.755 265.759C531.059 265.512 531.299 265.215 531.473 264.867C531.647 264.518 531.734 264.112 531.734 263.648V262.865H528.318C527.607 262.865 527.048 263.01 526.642 263.3C526.236 263.575 526.033 264.018 526.033 264.627C526.033 265.164 526.221 265.606 526.599 265.955C526.99 266.303 527.599 266.477 528.426 266.477ZM537.031 256.467H538.946V261.276H544.908V256.467H546.823V268H544.908V262.973H538.946V268H537.031V256.467ZM550.313 256.467H552.227V265.171L558.19 256.467H560.105V268H558.19V259.296L552.227 268H550.313V256.467ZM567.511 268.218C566.06 268.218 564.921 267.913 564.094 267.304C563.268 266.694 562.811 265.838 562.724 264.736H564.638C564.74 265.302 565.037 265.737 565.531 266.042C566.038 266.332 566.698 266.477 567.511 266.477C568.512 266.477 569.237 266.31 569.687 265.976C570.151 265.628 570.383 265.215 570.383 264.736C570.383 264.17 570.195 263.728 569.817 263.409C569.44 263.075 568.787 262.908 567.859 262.908H565.879V261.341H567.728C568.526 261.341 569.092 261.189 569.426 260.884C569.774 260.58 569.948 260.152 569.948 259.601C569.948 259.165 569.745 258.788 569.339 258.469C568.933 258.15 568.323 257.99 567.511 257.99C566.626 257.99 565.98 258.135 565.574 258.425C565.182 258.701 564.943 259.1 564.856 259.622H562.941C562.985 259.144 563.115 258.701 563.333 258.295C563.565 257.874 563.877 257.512 564.269 257.207C564.66 256.902 565.124 256.67 565.661 256.511C566.212 256.336 566.829 256.249 567.511 256.249C568.251 256.249 568.889 256.336 569.426 256.511C569.977 256.67 570.434 256.902 570.797 257.207C571.159 257.497 571.428 257.845 571.602 258.251C571.776 258.658 571.863 259.107 571.863 259.601C571.863 260.152 571.725 260.638 571.449 261.058C571.174 261.465 570.731 261.784 570.122 262.016C570.934 262.234 571.5 262.582 571.819 263.06C572.139 263.539 572.298 264.098 572.298 264.736C572.298 265.215 572.197 265.664 571.993 266.085C571.79 266.506 571.486 266.876 571.08 267.195C570.688 267.5 570.187 267.746 569.578 267.935C568.983 268.123 568.294 268.218 567.511 268.218ZM578.312 268.218C577.674 268.218 577.108 268.131 576.615 267.956C576.136 267.768 575.73 267.514 575.397 267.195C575.063 266.876 574.809 266.499 574.635 266.063C574.461 265.628 574.374 265.149 574.374 264.627C574.374 263.481 574.708 262.654 575.375 262.146C576.057 261.639 577.029 261.385 578.291 261.385H582.034V260.601C582.034 259.615 581.809 258.933 581.359 258.556C580.924 258.179 580.264 257.99 579.379 257.99C578.552 257.99 577.95 258.15 577.573 258.469C577.195 258.774 576.985 259.122 576.942 259.513H575.027C575.056 259.049 575.179 258.621 575.397 258.23C575.629 257.823 575.933 257.475 576.311 257.185C576.702 256.895 577.166 256.67 577.703 256.511C578.24 256.336 578.835 256.249 579.488 256.249C580.851 256.249 581.932 256.576 582.73 257.229C583.542 257.867 583.948 258.919 583.948 260.384V265.062C583.948 265.672 583.948 266.208 583.948 266.673C583.963 267.122 583.999 267.565 584.057 268H582.382C582.338 267.666 582.309 267.354 582.295 267.064C582.28 266.76 582.273 266.419 582.273 266.042C581.968 266.651 581.475 267.166 580.793 267.587C580.111 268.007 579.284 268.218 578.312 268.218ZM578.726 266.477C579.176 266.477 579.596 266.419 579.988 266.303C580.394 266.172 580.75 265.991 581.054 265.759C581.359 265.512 581.598 265.215 581.772 264.867C581.946 264.518 582.034 264.112 582.034 263.648V262.865H578.617C577.906 262.865 577.348 263.01 576.942 263.3C576.535 263.575 576.332 264.018 576.332 264.627C576.332 265.164 576.521 265.606 576.898 265.955C577.29 266.303 577.899 266.477 578.726 266.477ZM596.709 268H587.331V256.467H589.246V266.303H594.773V256.467H596.688V266.303H598.537V270.72H596.709V268ZM600.825 256.467H602.739V265.171L608.702 256.467H610.617V268H608.702V259.296L602.739 268H600.825V256.467ZM444.741 280.467H446.656V289.171L452.618 280.467H454.533V292H452.618V283.296L446.656 292H444.741V280.467ZM468.25 292.218C467.51 292.218 466.806 292.102 466.139 291.869C465.472 291.623 464.884 291.26 464.376 290.781C463.869 290.288 463.462 289.672 463.158 288.932C462.853 288.192 462.701 287.329 462.701 286.342V285.907C462.701 284.979 462.853 284.159 463.158 283.448C463.462 282.737 463.869 282.15 464.376 281.686C464.884 281.207 465.472 280.851 466.139 280.619C466.806 280.373 467.51 280.249 468.25 280.249C468.99 280.249 469.693 280.373 470.36 280.619C471.028 280.851 471.615 281.207 472.123 281.686C472.631 282.15 473.037 282.737 473.342 283.448C473.646 284.159 473.799 284.979 473.799 285.907V286.342C473.799 287.329 473.646 288.192 473.342 288.932C473.037 289.672 472.631 290.288 472.123 290.781C471.615 291.26 471.028 291.623 470.36 291.869C469.693 292.102 468.99 292.218 468.25 292.218ZM468.25 290.477C468.685 290.477 469.12 290.404 469.555 290.259C469.99 290.1 470.375 289.86 470.709 289.541C471.042 289.207 471.311 288.779 471.514 288.257C471.731 287.735 471.84 287.097 471.84 286.342V285.907C471.84 285.211 471.731 284.616 471.514 284.123C471.311 283.63 471.042 283.223 470.709 282.904C470.375 282.585 469.99 282.353 469.555 282.208C469.12 282.063 468.685 281.99 468.25 281.99C467.814 281.99 467.379 282.063 466.944 282.208C466.509 282.353 466.124 282.585 465.791 282.904C465.457 283.223 465.181 283.63 464.964 284.123C464.761 284.616 464.659 285.211 464.659 285.907V286.342C464.659 287.097 464.761 287.735 464.964 288.257C465.181 288.779 465.457 289.207 465.791 289.541C466.124 289.86 466.509 290.1 466.944 290.259C467.379 290.404 467.814 290.477 468.25 290.477ZM483.191 287.409C482.857 287.612 482.451 287.793 481.972 287.953C481.508 288.112 480.92 288.192 480.209 288.192C479.542 288.192 478.94 288.119 478.403 287.974C477.881 287.829 477.439 287.597 477.076 287.278C476.713 286.959 476.438 286.545 476.249 286.038C476.06 285.53 475.966 284.906 475.966 284.166V280.467H477.881V283.84C477.881 284.333 477.925 284.747 478.012 285.08C478.113 285.414 478.273 285.682 478.49 285.885C478.708 286.088 478.984 286.234 479.317 286.321C479.651 286.408 480.057 286.451 480.536 286.451C481.189 286.451 481.747 286.386 482.211 286.255C482.676 286.125 483.002 285.987 483.191 285.842V280.467H485.105V292H483.191V287.409ZM493.368 292.218C492.628 292.218 491.924 292.102 491.257 291.869C490.589 291.637 490.002 291.282 489.494 290.803C488.986 290.31 488.58 289.693 488.276 288.954C487.971 288.214 487.819 287.343 487.819 286.342V285.907C487.819 284.95 487.964 284.123 488.254 283.426C488.544 282.716 488.928 282.128 489.407 281.664C489.9 281.185 490.466 280.83 491.104 280.598C491.757 280.365 492.439 280.249 493.15 280.249C494.847 280.249 496.16 280.714 497.089 281.642C498.017 282.571 498.481 283.883 498.481 285.581V286.799H489.734C489.734 287.481 489.842 288.054 490.06 288.518C490.278 288.983 490.56 289.36 490.909 289.65C491.257 289.94 491.641 290.15 492.062 290.281C492.497 290.411 492.932 290.477 493.368 290.477C494.238 290.477 494.905 290.332 495.37 290.042C495.848 289.751 496.189 289.352 496.392 288.845H498.264C498.148 289.396 497.937 289.882 497.633 290.303C497.342 290.723 496.98 291.079 496.545 291.369C496.124 291.645 495.638 291.855 495.087 292C494.55 292.145 493.977 292.218 493.368 292.218ZM493.259 281.99C492.809 281.99 492.374 282.056 491.953 282.186C491.532 282.302 491.155 282.498 490.822 282.774C490.502 283.035 490.241 283.368 490.038 283.775C489.835 284.181 489.734 284.667 489.734 285.233H496.675C496.661 284.638 496.559 284.137 496.37 283.731C496.196 283.31 495.957 282.977 495.652 282.73C495.348 282.469 494.985 282.28 494.564 282.164C494.158 282.048 493.723 281.99 493.259 281.99ZM501.203 280.467H502.987V282.643C503.379 281.874 503.923 281.287 504.619 280.88C505.33 280.46 506.15 280.249 507.078 280.249C508.529 280.249 509.69 280.728 510.56 281.686C511.43 282.629 511.866 284.036 511.866 285.907V286.342C511.866 287.329 511.75 288.192 511.517 288.932C511.285 289.657 510.959 290.266 510.538 290.76C510.117 291.238 509.61 291.601 509.015 291.848C508.435 292.094 507.789 292.218 507.078 292.218C506.092 292.218 505.265 292 504.598 291.565C503.945 291.13 503.452 290.586 503.118 289.933V296.352H501.203V280.467ZM506.643 290.52C507.107 290.52 507.543 290.433 507.949 290.259C508.355 290.071 508.703 289.802 508.993 289.454C509.298 289.106 509.53 288.671 509.69 288.148C509.864 287.626 509.951 287.024 509.951 286.342V285.907C509.951 285.283 509.864 284.725 509.69 284.232C509.53 283.738 509.298 283.325 508.993 282.991C508.703 282.643 508.355 282.382 507.949 282.208C507.543 282.034 507.107 281.947 506.643 281.947C506.121 281.947 505.642 282.034 505.207 282.208C504.772 282.367 504.402 282.6 504.097 282.904C503.792 283.194 503.553 283.542 503.379 283.949C503.205 284.355 503.118 284.79 503.118 285.254V286.995C503.118 287.517 503.205 287.996 503.379 288.431C503.553 288.867 503.792 289.236 504.097 289.541C504.402 289.846 504.772 290.085 505.207 290.259C505.642 290.433 506.121 290.52 506.643 290.52ZM519.378 292.218C518.638 292.218 517.935 292.102 517.267 291.869C516.6 291.637 516.012 291.282 515.505 290.803C514.997 290.31 514.591 289.693 514.286 288.954C513.981 288.214 513.829 287.343 513.829 286.342V285.907C513.829 284.95 513.974 284.123 514.264 283.426C514.554 282.716 514.939 282.128 515.418 281.664C515.911 281.185 516.477 280.83 517.115 280.598C517.768 280.365 518.45 280.249 519.16 280.249C520.858 280.249 522.171 280.714 523.099 281.642C524.027 282.571 524.492 283.883 524.492 285.581V286.799H515.744C515.744 287.481 515.853 288.054 516.07 288.518C516.288 288.983 516.571 289.36 516.919 289.65C517.267 289.94 517.652 290.15 518.072 290.281C518.508 290.411 518.943 290.477 519.378 290.477C520.248 290.477 520.916 290.332 521.38 290.042C521.859 289.751 522.2 289.352 522.403 288.845H524.274C524.158 289.396 523.948 289.882 523.643 290.303C523.353 290.723 522.99 291.079 522.555 291.369C522.134 291.645 521.648 291.855 521.097 292C520.56 292.145 519.987 292.218 519.378 292.218ZM519.269 281.99C518.819 281.99 518.384 282.056 517.964 282.186C517.543 282.302 517.166 282.498 516.832 282.774C516.513 283.035 516.252 283.368 516.049 283.775C515.846 284.181 515.744 284.667 515.744 285.233H522.686C522.671 284.638 522.569 284.137 522.381 283.731C522.207 283.31 521.967 282.977 521.663 282.73C521.358 282.469 520.995 282.28 520.575 282.164C520.169 282.048 519.733 281.99 519.269 281.99ZM525.695 290.303H527.11C527.269 290.085 527.414 289.751 527.545 289.302C527.675 288.852 527.792 288.323 527.893 287.713C527.995 287.104 528.067 286.444 528.111 285.733C528.169 285.008 528.198 284.268 528.198 283.513V280.467H536.249V290.303H537.881V294.72H536.053V292H527.523V294.72H525.695V290.303ZM534.334 290.303V282.164H530.069V283.949C530.069 284.558 530.047 285.167 530.004 285.777C529.96 286.371 529.895 286.944 529.808 287.496C529.721 288.032 529.612 288.547 529.482 289.041C529.366 289.519 529.228 289.94 529.068 290.303H534.334ZM540.176 280.467H542.091V289.171L548.053 280.467H549.968V292H548.053V283.296L542.091 292H540.176V280.467Z" fill="black"/>
<rect x="100" y="222" width="280" height="109" fill="#F9FCFE"/>
<rect x="120" y="242" width="60" height="69" fill="#ABD4C1"/>
<rect x="120" y="242" width="60" height="69" stroke="black"/>
<rect x="180" y="242" width="60" height="69" fill="#ABCFF4"/>
<rect x="180" y="242" width="60" height="69" stroke="black"/>
<rect x="240" y="242" width="60" height="69" fill="#F2DCDB"/>
<rect x="240" y="242" width="60" height="69" stroke="black"/>
<rect x="300" y="242" width="60" height="69" fill="#F3EFE7"/>
<rect x="300" y="242" width="60" height="69" stroke="black"/>
<rect x="100" y="222" width="280" height="109" stroke="#DAEBFB"/>
<path d="M413 280.547H386V270.547H413V280.547Z" fill="#FFBD6E"/>
<path d="M413 264L433 275.547L413 287.094V264Z" fill="#FFBD6E"/>
</svg>
