<svg width="1551" height="580" viewBox="0 0 1551 580" fill="none" xmlns="http://www.w3.org/2000/svg">
<path d="M202.479 436.553L243.369 165.004L268.531 383.082L317.809 191.215L384.91 376.791L415.315 198.554L439.429 254.122L468.786 156.616L515.966 367.355L550.565 291.867L573.631 400.906L666.943 165.004" stroke="#58A982" stroke-width="3"/>
<path d="M202.479 100V444.94H679.523" stroke="black" stroke-width="2"/>
<path d="M970.994 100V444.94H1448.04" stroke="black" stroke-width="2"/>
<path d="M202.479 224.766H681.621" stroke="black" stroke-width="2" stroke-dasharray="10 10"/>
<path d="M970.994 224.766H1450.14" stroke="black" stroke-width="2" stroke-dasharray="10 10"/>
<path d="M970.994 436.553L1002.89 224.766H1018.78L1037.05 383.082L1077.71 224.766H1098.46L1153.43 376.791L1179.36 224.766H1195.21L1207.94 254.122L1216.78 224.766H1252.56L1284.48 367.355L1319.08 291.867L1342.15 400.906L1411.82 224.766H1435.46" stroke="#58A982" stroke-width="3"/>
<path d="M485.142 166.384H487.188V178.352L495.282 166.384H497.328V181.616H495.282V169.648L487.188 181.616H485.142V166.384ZM501.24 170.083H503.155V174.892H509.117V170.083H511.032V181.616H509.117V176.59H503.155V181.616H501.24V170.083ZM517.154 171.781H513.215V170.083H523.008V171.781H519.069V181.616H517.154V171.781ZM529.764 181.834C529.024 181.834 528.32 181.718 527.653 181.486C526.985 181.254 526.398 180.898 525.89 180.419C525.382 179.926 524.976 179.31 524.672 178.57C524.367 177.83 524.215 176.959 524.215 175.959V175.523C524.215 174.566 524.36 173.739 524.65 173.043C524.94 172.332 525.324 171.744 525.803 171.28C526.296 170.801 526.862 170.446 527.5 170.214C528.153 169.982 528.835 169.866 529.546 169.866C531.243 169.866 532.556 170.33 533.485 171.258C534.413 172.187 534.877 173.5 534.877 175.197V176.415H526.13C526.13 177.097 526.238 177.67 526.456 178.135C526.674 178.599 526.956 178.976 527.305 179.266C527.653 179.556 528.037 179.767 528.458 179.897C528.893 180.028 529.328 180.093 529.764 180.093C530.634 180.093 531.301 179.948 531.765 179.658C532.244 179.368 532.585 178.969 532.788 178.461H534.66C534.544 179.012 534.333 179.498 534.029 179.919C533.738 180.34 533.376 180.695 532.941 180.985C532.52 181.261 532.034 181.471 531.483 181.616C530.946 181.761 530.373 181.834 529.764 181.834ZM529.655 171.606C529.205 171.606 528.77 171.672 528.349 171.802C527.928 171.918 527.551 172.114 527.218 172.39C526.898 172.651 526.637 172.985 526.434 173.391C526.231 173.797 526.13 174.283 526.13 174.849H533.071C533.057 174.254 532.955 173.753 532.766 173.347C532.592 172.927 532.353 172.593 532.048 172.346C531.744 172.085 531.381 171.897 530.96 171.781C530.554 171.664 530.119 171.606 529.655 171.606ZM537.599 170.083H539.514V174.892H545.476V170.083H547.391V181.616H545.476V176.59H539.514V181.616H537.599V170.083ZM555.341 181.834C554.601 181.834 553.912 181.718 553.274 181.486C552.636 181.239 552.084 180.876 551.62 180.398C551.156 179.904 550.786 179.288 550.51 178.548C550.249 177.808 550.119 176.945 550.119 175.959V175.523C550.119 174.595 550.264 173.775 550.554 173.064C550.844 172.354 551.229 171.766 551.707 171.302C552.186 170.823 552.737 170.468 553.361 170.236C553.999 169.989 554.659 169.866 555.341 169.866C556.023 169.866 556.632 169.96 557.169 170.149C557.72 170.337 558.192 170.598 558.584 170.932C558.99 171.266 559.316 171.657 559.563 172.107C559.824 172.557 560.013 173.043 560.129 173.565H558.17C558.054 173.289 557.916 173.035 557.757 172.803C557.612 172.557 557.423 172.346 557.191 172.172C556.973 171.998 556.712 171.86 556.408 171.759C556.103 171.657 555.747 171.606 555.341 171.606C554.921 171.606 554.514 171.686 554.123 171.846C553.731 171.991 553.383 172.223 553.078 172.542C552.774 172.847 552.527 173.246 552.338 173.739C552.164 174.232 552.077 174.827 552.077 175.523V175.959C552.077 176.698 552.164 177.337 552.338 177.873C552.527 178.396 552.774 178.824 553.078 179.157C553.383 179.476 553.731 179.716 554.123 179.875C554.514 180.02 554.921 180.093 555.341 180.093C556.052 180.093 556.647 179.919 557.126 179.571C557.619 179.223 557.967 178.744 558.17 178.135H560.129C559.853 179.281 559.287 180.187 558.431 180.855C557.575 181.507 556.545 181.834 555.341 181.834ZM562.738 170.083H564.653V178.787L570.615 170.083H572.53V181.616H570.615V172.912L564.653 181.616H562.738V170.083ZM576.02 170.083H581.024C582.446 170.083 583.491 170.381 584.158 170.975C584.825 171.556 585.159 172.31 585.159 173.238C585.159 173.485 585.115 173.739 585.028 174C584.941 174.247 584.818 174.479 584.658 174.696C584.513 174.914 584.332 175.103 584.114 175.262C583.911 175.422 583.679 175.545 583.418 175.632C584.129 175.806 584.666 176.14 585.028 176.633C585.406 177.112 585.594 177.678 585.594 178.33C585.594 179.331 585.26 180.129 584.593 180.724C583.926 181.319 582.881 181.616 581.46 181.616H576.02V170.083ZM581.46 179.919C582.272 179.919 582.845 179.774 583.179 179.484C583.512 179.194 583.679 178.78 583.679 178.243C583.679 177.692 583.512 177.271 583.179 176.981C582.845 176.677 582.272 176.524 581.46 176.524H577.934V179.919H581.46ZM581.024 174.958C581.851 174.958 582.424 174.812 582.744 174.522C583.077 174.232 583.244 173.833 583.244 173.326C583.244 172.847 583.077 172.47 582.744 172.194C582.424 171.918 581.851 171.781 581.024 171.781H577.934V174.958H581.024ZM588.324 170.083H590.238V174.892H596.201V170.083H598.116V181.616H596.201V176.59H590.238V181.616H588.324V170.083ZM606.392 181.834C605.652 181.834 604.949 181.718 604.282 181.486C603.614 181.239 603.027 180.876 602.519 180.398C602.011 179.904 601.605 179.288 601.3 178.548C600.996 177.808 600.843 176.945 600.843 175.959V175.523C600.843 174.595 600.996 173.775 601.3 173.064C601.605 172.354 602.011 171.766 602.519 171.302C603.027 170.823 603.614 170.468 604.282 170.236C604.949 169.989 605.652 169.866 606.392 169.866C607.132 169.866 607.836 169.989 608.503 170.236C609.17 170.468 609.758 170.823 610.266 171.302C610.773 171.766 611.18 172.354 611.484 173.064C611.789 173.775 611.941 174.595 611.941 175.523V175.959C611.941 176.945 611.789 177.808 611.484 178.548C611.18 179.288 610.773 179.904 610.266 180.398C609.758 180.876 609.17 181.239 608.503 181.486C607.836 181.718 607.132 181.834 606.392 181.834ZM606.392 180.093C606.827 180.093 607.263 180.02 607.698 179.875C608.133 179.716 608.518 179.476 608.851 179.157C609.185 178.824 609.453 178.396 609.656 177.873C609.874 177.351 609.983 176.713 609.983 175.959V175.523C609.983 174.827 609.874 174.232 609.656 173.739C609.453 173.246 609.185 172.84 608.851 172.52C608.518 172.201 608.133 171.969 607.698 171.824C607.263 171.679 606.827 171.606 606.392 171.606C605.957 171.606 605.522 171.679 605.087 171.824C604.651 171.969 604.267 172.201 603.933 172.52C603.6 172.84 603.324 173.246 603.106 173.739C602.903 174.232 602.802 174.827 602.802 175.523V175.959C602.802 176.713 602.903 177.351 603.106 177.873C603.324 178.396 603.6 178.824 603.933 179.157C604.267 179.476 604.651 179.716 605.087 179.875C605.522 180.02 605.957 180.093 606.392 180.093ZM619.114 181.834C618.374 181.834 617.685 181.718 617.046 181.486C616.408 181.239 615.857 180.876 615.393 180.398C614.928 179.904 614.558 179.288 614.283 178.548C614.022 177.808 613.891 176.945 613.891 175.959V175.523C613.891 174.595 614.036 173.775 614.326 173.064C614.616 172.354 615.001 171.766 615.48 171.302C615.958 170.823 616.51 170.468 617.133 170.236C617.772 169.989 618.432 169.866 619.114 169.866C619.795 169.866 620.405 169.96 620.941 170.149C621.493 170.337 621.964 170.598 622.356 170.932C622.762 171.266 623.088 171.657 623.335 172.107C623.596 172.557 623.785 173.043 623.901 173.565H621.942C621.826 173.289 621.689 173.035 621.529 172.803C621.384 172.557 621.195 172.346 620.963 172.172C620.746 171.998 620.484 171.86 620.18 171.759C619.875 171.657 619.52 171.606 619.114 171.606C618.693 171.606 618.287 171.686 617.895 171.846C617.503 171.991 617.155 172.223 616.85 172.542C616.546 172.847 616.299 173.246 616.111 173.739C615.937 174.232 615.85 174.827 615.85 175.523V175.959C615.85 176.698 615.937 177.337 616.111 177.873C616.299 178.396 616.546 178.824 616.85 179.157C617.155 179.476 617.503 179.716 617.895 179.875C618.287 180.02 618.693 180.093 619.114 180.093C619.824 180.093 620.419 179.919 620.898 179.571C621.391 179.223 621.739 178.744 621.942 178.135H623.901C623.625 179.281 623.059 180.187 622.204 180.855C621.348 181.507 620.318 181.834 619.114 181.834ZM629.143 171.781H625.205V170.083H634.997V171.781H631.058V181.616H629.143V171.781ZM637.178 170.083H639.093V174.435H641.857C643.307 174.435 644.373 174.754 645.055 175.393C645.752 176.031 646.1 176.916 646.1 178.048C646.1 179.15 645.752 180.02 645.055 180.659C644.373 181.297 643.307 181.616 641.857 181.616H637.178V170.083ZM641.748 179.919C642.647 179.919 643.278 179.759 643.641 179.44C644.004 179.121 644.185 178.65 644.185 178.026C644.185 177.402 644.004 176.93 643.641 176.611C643.278 176.292 642.647 176.133 641.748 176.133H639.093V179.919H641.748ZM524.114 195.781H520.175V194.083H529.967V195.781H526.028V205.616H524.114V195.781ZM532.148 194.083H533.933V196.259C534.324 195.49 534.868 194.903 535.565 194.497C536.275 194.076 537.095 193.866 538.024 193.866C539.474 193.866 540.635 194.344 541.505 195.302C542.376 196.245 542.811 197.652 542.811 199.523V199.959C542.811 200.945 542.695 201.808 542.463 202.548C542.231 203.273 541.904 203.883 541.483 204.376C541.063 204.855 540.555 205.217 539.96 205.464C539.38 205.711 538.734 205.834 538.024 205.834C537.037 205.834 536.21 205.616 535.543 205.181C534.89 204.746 534.397 204.202 534.063 203.549V209.968H532.148V194.083ZM537.588 204.137C538.053 204.137 538.488 204.049 538.894 203.875C539.3 203.687 539.648 203.418 539.938 203.07C540.243 202.722 540.475 202.287 540.635 201.765C540.809 201.242 540.896 200.64 540.896 199.959V199.523C540.896 198.9 540.809 198.341 540.635 197.848C540.475 197.355 540.243 196.941 539.938 196.607C539.648 196.259 539.3 195.998 538.894 195.824C538.488 195.65 538.053 195.563 537.588 195.563C537.066 195.563 536.587 195.65 536.152 195.824C535.717 195.984 535.347 196.216 535.042 196.52C534.738 196.811 534.498 197.159 534.324 197.565C534.15 197.971 534.063 198.406 534.063 198.871V200.611C534.063 201.134 534.15 201.612 534.324 202.048C534.498 202.483 534.738 202.853 535.042 203.157C535.347 203.462 535.717 203.701 536.152 203.875C536.587 204.049 537.066 204.137 537.588 204.137ZM548.822 205.834C548.183 205.834 547.618 205.747 547.124 205.573C546.646 205.384 546.24 205.13 545.906 204.811C545.572 204.492 545.318 204.115 545.144 203.68C544.97 203.244 544.883 202.766 544.883 202.243C544.883 201.097 545.217 200.27 545.884 199.763C546.566 199.255 547.538 199.001 548.8 199.001H552.543V198.218C552.543 197.231 552.318 196.549 551.868 196.172C551.433 195.795 550.773 195.606 549.888 195.606C549.061 195.606 548.459 195.766 548.082 196.085C547.705 196.39 547.494 196.738 547.451 197.13H545.536C545.565 196.665 545.688 196.237 545.906 195.846C546.138 195.44 546.443 195.091 546.82 194.801C547.212 194.511 547.676 194.286 548.212 194.127C548.749 193.953 549.344 193.866 549.997 193.866C551.36 193.866 552.441 194.192 553.239 194.845C554.052 195.483 554.458 196.535 554.458 198V202.679C554.458 203.288 554.458 203.825 554.458 204.289C554.472 204.739 554.508 205.181 554.567 205.616H552.891C552.847 205.283 552.818 204.971 552.804 204.681C552.789 204.376 552.782 204.035 552.782 203.658C552.478 204.267 551.984 204.782 551.302 205.203C550.621 205.623 549.794 205.834 548.822 205.834ZM549.235 204.093C549.685 204.093 550.106 204.035 550.497 203.919C550.904 203.788 551.259 203.607 551.564 203.375C551.868 203.128 552.108 202.831 552.282 202.483C552.456 202.135 552.543 201.728 552.543 201.264V200.481H549.126C548.416 200.481 547.857 200.626 547.451 200.916C547.045 201.192 546.842 201.634 546.842 202.243C546.842 202.78 547.03 203.223 547.407 203.571C547.799 203.919 548.408 204.093 549.235 204.093ZM563.193 205.834C561.191 205.834 559.668 205.326 558.623 204.311C557.593 203.295 557.078 201.852 557.078 199.98V199.545C557.078 197.761 557.593 196.368 558.623 195.367C559.668 194.366 561.191 193.866 563.193 193.866V190.384H565.108V193.866C567.11 193.866 568.626 194.366 569.656 195.367C570.7 196.368 571.223 197.761 571.223 199.545V199.98C571.223 201.852 570.7 203.295 569.656 204.311C568.626 205.326 567.11 205.834 565.108 205.834V209.968H563.193V205.834ZM569.264 199.545C569.264 198.225 568.923 197.238 568.241 196.586C567.574 195.933 566.522 195.606 565.086 195.606V204.093C566.522 204.093 567.574 203.759 568.241 203.092C568.923 202.425 569.264 201.387 569.264 199.98V199.545ZM559.037 199.98C559.037 201.387 559.37 202.425 560.038 203.092C560.72 203.759 561.779 204.093 563.215 204.093V195.606C561.779 195.606 560.72 195.933 560.038 196.586C559.37 197.238 559.037 198.225 559.037 199.545V199.98ZM573.948 194.083H575.863V202.787L581.825 194.083H583.74V205.616H581.825V196.912L575.863 205.616H573.948V194.083ZM587.229 194.083H589.144V198.914H590.667L594.976 194.083H597.239L592.234 199.61L597.456 205.616H595.019L590.667 200.568H589.144V205.616H587.229V194.083ZM602.819 205.834C602.181 205.834 601.615 205.747 601.122 205.573C600.643 205.384 600.237 205.13 599.903 204.811C599.569 204.492 599.315 204.115 599.141 203.68C598.967 203.244 598.88 202.766 598.88 202.243C598.88 201.097 599.214 200.27 599.881 199.763C600.563 199.255 601.535 199.001 602.797 199.001H606.54V198.218C606.54 197.231 606.315 196.549 605.865 196.172C605.43 195.795 604.77 195.606 603.885 195.606C603.058 195.606 602.456 195.766 602.079 196.085C601.702 196.39 601.492 196.738 601.448 197.13H599.533C599.562 196.665 599.685 196.237 599.903 195.846C600.135 195.44 600.44 195.091 600.817 194.801C601.209 194.511 601.673 194.286 602.21 194.127C602.746 193.953 603.341 193.866 603.994 193.866C605.358 193.866 606.438 194.192 607.236 194.845C608.049 195.483 608.455 196.535 608.455 198V202.679C608.455 203.288 608.455 203.825 608.455 204.289C608.469 204.739 608.506 205.181 608.564 205.616H606.888C606.845 205.283 606.816 204.971 606.801 204.681C606.787 204.376 606.779 204.035 606.779 203.658C606.475 204.267 605.981 204.782 605.3 205.203C604.618 205.623 603.791 205.834 602.819 205.834ZM603.232 204.093C603.682 204.093 604.103 204.035 604.494 203.919C604.901 203.788 605.256 203.607 605.561 203.375C605.865 203.128 606.105 202.831 606.279 202.483C606.453 202.135 606.54 201.728 606.54 201.264V200.481H603.124C602.413 200.481 601.854 200.626 601.448 200.916C601.042 201.192 600.839 201.634 600.839 202.243C600.839 202.78 601.027 203.223 601.404 203.571C601.796 203.919 602.405 204.093 603.232 204.093Z" fill="black"/>
<path d="M879.809 213.168H874.521V211.384H887.142V213.168H881.855V226.616H879.809V213.168ZM887.366 215.083H889.15V217.259C889.542 216.49 890.086 215.903 890.782 215.497C891.493 215.076 892.313 214.866 893.241 214.866C894.692 214.866 895.852 215.344 896.723 216.302C897.593 217.245 898.028 218.652 898.028 220.523V220.959C898.028 221.945 897.912 222.808 897.68 223.548C897.448 224.273 897.122 224.883 896.701 225.376C896.28 225.855 895.773 226.217 895.178 226.464C894.598 226.711 893.952 226.834 893.241 226.834C892.255 226.834 891.428 226.616 890.761 226.181C890.108 225.746 889.614 225.202 889.281 224.549V230.968H887.366V215.083ZM892.806 225.137C893.27 225.137 893.705 225.049 894.112 224.875C894.518 224.687 894.866 224.418 895.156 224.07C895.461 223.722 895.693 223.287 895.852 222.765C896.027 222.242 896.114 221.64 896.114 220.959V220.523C896.114 219.9 896.027 219.341 895.852 218.848C895.693 218.355 895.461 217.941 895.156 217.607C894.866 217.259 894.518 216.998 894.112 216.824C893.705 216.65 893.27 216.563 892.806 216.563C892.284 216.563 891.805 216.65 891.37 216.824C890.935 216.984 890.565 217.216 890.26 217.52C889.955 217.811 889.716 218.159 889.542 218.565C889.368 218.971 889.281 219.406 889.281 219.871V221.611C889.281 222.134 889.368 222.612 889.542 223.048C889.716 223.483 889.955 223.853 890.26 224.157C890.565 224.462 890.935 224.701 891.37 224.875C891.805 225.049 892.284 225.137 892.806 225.137ZM904.039 226.834C903.401 226.834 902.835 226.747 902.342 226.573C901.863 226.384 901.457 226.13 901.124 225.811C900.79 225.492 900.536 225.115 900.362 224.68C900.188 224.244 900.101 223.766 900.101 223.243C900.101 222.097 900.434 221.27 901.102 220.763C901.784 220.255 902.756 220.001 904.018 220.001H907.76V219.218C907.76 218.231 907.536 217.549 907.086 217.172C906.651 216.795 905.991 216.606 905.106 216.606C904.279 216.606 903.677 216.766 903.3 217.085C902.922 217.39 902.712 217.738 902.669 218.13H900.754C900.783 217.665 900.906 217.237 901.124 216.846C901.356 216.44 901.66 216.091 902.037 215.801C902.429 215.511 902.893 215.286 903.43 215.127C903.967 214.953 904.562 214.866 905.215 214.866C906.578 214.866 907.659 215.192 908.457 215.845C909.269 216.483 909.675 217.535 909.675 219V223.679C909.675 224.288 909.675 224.825 909.675 225.289C909.69 225.739 909.726 226.181 909.784 226.616H908.109C908.065 226.283 908.036 225.971 908.022 225.681C908.007 225.376 908 225.035 908 224.658C907.695 225.267 907.202 225.782 906.52 226.203C905.838 226.623 905.011 226.834 904.039 226.834ZM904.453 225.093C904.903 225.093 905.323 225.035 905.715 224.919C906.121 224.788 906.477 224.607 906.781 224.375C907.086 224.128 907.325 223.831 907.499 223.483C907.673 223.135 907.76 222.728 907.76 222.264V221.481H904.344C903.633 221.481 903.075 221.626 902.669 221.916C902.262 222.192 902.059 222.634 902.059 223.243C902.059 223.78 902.248 224.223 902.625 224.571C903.017 224.919 903.626 225.093 904.453 225.093ZM918.411 226.834C916.409 226.834 914.885 226.326 913.841 225.311C912.811 224.295 912.296 222.852 912.296 220.98V220.545C912.296 218.761 912.811 217.368 913.841 216.367C914.885 215.366 916.409 214.866 918.411 214.866V211.384H920.326V214.866C922.327 214.866 923.843 215.366 924.873 216.367C925.918 217.368 926.44 218.761 926.44 220.545V220.98C926.44 222.852 925.918 224.295 924.873 225.311C923.843 226.326 922.327 226.834 920.326 226.834V230.968H918.411V226.834ZM924.482 220.545C924.482 219.225 924.141 218.238 923.459 217.586C922.792 216.933 921.74 216.606 920.304 216.606V225.093C921.74 225.093 922.792 224.759 923.459 224.092C924.141 223.425 924.482 222.387 924.482 220.98V220.545ZM914.254 220.98C914.254 222.387 914.588 223.425 915.255 224.092C915.937 224.759 916.996 225.093 918.432 225.093V216.606C916.996 216.606 915.937 216.933 915.255 217.586C914.588 218.238 914.254 219.225 914.254 220.545V220.98ZM929.165 215.083H931.08V223.787L937.043 215.083H938.958V226.616H937.043V217.912L931.08 226.616H929.165V215.083ZM942.447 215.083H944.362V219.914H945.885L950.193 215.083H952.457L947.452 220.61L952.674 226.616H950.237L945.885 221.568H944.362V226.616H942.447V215.083Z" fill="black"/>
<path d="M414.655 460.708H420.095C421.009 460.708 421.792 460.81 422.445 461.013C423.098 461.216 423.634 461.499 424.055 461.861C424.49 462.21 424.81 462.638 425.013 463.145C425.216 463.639 425.317 464.183 425.317 464.777C425.317 465.561 425.1 466.235 424.664 466.801C424.229 467.352 423.693 467.751 423.054 467.998C423.954 468.201 424.664 468.614 425.187 469.238C425.709 469.848 425.97 470.645 425.97 471.632C425.97 472.256 425.869 472.829 425.665 473.351C425.462 473.873 425.143 474.33 424.708 474.722C424.273 475.099 423.707 475.396 423.011 475.614C422.329 475.832 421.502 475.94 420.53 475.94H414.655V460.708ZM420.53 474.156C421.183 474.156 421.727 474.098 422.162 473.982C422.597 473.851 422.945 473.677 423.207 473.46C423.468 473.228 423.649 472.952 423.751 472.633C423.867 472.314 423.925 471.958 423.925 471.567C423.925 471.175 423.867 470.819 423.751 470.5C423.649 470.167 423.468 469.891 423.207 469.673C422.945 469.441 422.59 469.267 422.14 469.151C421.705 469.021 421.161 468.955 420.508 468.955H416.7V474.156H420.53ZM420.095 467.258C420.704 467.258 421.212 467.2 421.618 467.084C422.024 466.968 422.351 466.801 422.597 466.583C422.844 466.366 423.018 466.112 423.119 465.822C423.221 465.532 423.272 465.213 423.272 464.864C423.272 464.516 423.221 464.197 423.119 463.907C423.018 463.602 422.844 463.348 422.597 463.145C422.351 462.942 422.024 462.783 421.618 462.667C421.212 462.551 420.704 462.493 420.095 462.493H416.7V467.258H420.095ZM428.797 464.407H430.582V466.583C430.973 465.815 431.517 465.227 432.214 464.821C432.924 464.4 433.744 464.19 434.673 464.19C436.123 464.19 437.284 464.669 438.154 465.626C439.025 466.569 439.46 467.976 439.46 469.848V470.283C439.46 471.269 439.344 472.132 439.112 472.872C438.88 473.598 438.553 474.207 438.132 474.7C437.712 475.179 437.204 475.541 436.609 475.788C436.029 476.035 435.383 476.158 434.673 476.158C433.686 476.158 432.859 475.94 432.192 475.505C431.539 475.07 431.046 474.526 430.712 473.873V480.292H428.797V464.407ZM434.237 474.461C434.702 474.461 435.137 474.374 435.543 474.2C435.949 474.011 436.297 473.743 436.587 473.394C436.892 473.046 437.124 472.611 437.284 472.089C437.458 471.567 437.545 470.965 437.545 470.283V469.848C437.545 469.224 437.458 468.665 437.284 468.172C437.124 467.679 436.892 467.265 436.587 466.932C436.297 466.583 435.949 466.322 435.543 466.148C435.137 465.974 434.702 465.887 434.237 465.887C433.715 465.887 433.236 465.974 432.801 466.148C432.366 466.308 431.996 466.54 431.691 466.845C431.387 467.135 431.147 467.483 430.973 467.889C430.799 468.295 430.712 468.731 430.712 469.195V470.936C430.712 471.458 430.799 471.937 430.973 472.372C431.147 472.807 431.387 473.177 431.691 473.482C431.996 473.786 432.366 474.026 432.801 474.2C433.236 474.374 433.715 474.461 434.237 474.461ZM446.972 476.158C446.232 476.158 445.529 476.042 444.861 475.81C444.194 475.578 443.607 475.222 443.099 474.744C442.591 474.25 442.185 473.634 441.88 472.894C441.576 472.154 441.423 471.284 441.423 470.283V469.848C441.423 468.89 441.568 468.063 441.859 467.367C442.149 466.656 442.533 466.068 443.012 465.604C443.505 465.126 444.071 464.77 444.709 464.538C445.362 464.306 446.044 464.19 446.755 464.19C448.452 464.19 449.765 464.654 450.693 465.583C451.622 466.511 452.086 467.824 452.086 469.521V470.74H443.338C443.338 471.422 443.447 471.995 443.665 472.459C443.882 472.923 444.165 473.3 444.513 473.59C444.861 473.88 445.246 474.091 445.667 474.221C446.102 474.352 446.537 474.417 446.972 474.417C447.843 474.417 448.51 474.272 448.974 473.982C449.453 473.692 449.794 473.293 449.997 472.785H451.868C451.752 473.336 451.542 473.822 451.237 474.243C450.947 474.664 450.584 475.019 450.149 475.309C449.729 475.585 449.243 475.795 448.691 475.94C448.155 476.085 447.582 476.158 446.972 476.158ZM446.863 465.931C446.414 465.931 445.979 465.996 445.558 466.127C445.137 466.243 444.76 466.438 444.426 466.714C444.107 466.975 443.846 467.309 443.643 467.715C443.44 468.121 443.338 468.607 443.338 469.173H450.28C450.265 468.578 450.164 468.078 449.975 467.671C449.801 467.251 449.562 466.917 449.257 466.671C448.952 466.409 448.59 466.221 448.169 466.105C447.763 465.989 447.328 465.931 446.863 465.931ZM454.808 464.407H456.853L460.966 471.588L465.079 464.407H466.993V475.94H465.079V467.563L461.662 473.438H460.139L456.723 467.563V475.94H454.808V464.407ZM472.732 471.371C471.775 471.153 471.086 470.761 470.665 470.196C470.244 469.615 470.034 468.876 470.034 467.976C470.034 466.845 470.375 465.967 471.057 465.343C471.753 464.719 472.863 464.407 474.386 464.407H479.391V475.94H477.476V471.545H474.538L471.731 475.94H469.599L472.732 471.371ZM471.949 467.976C471.949 468.585 472.123 469.05 472.471 469.369C472.834 469.688 473.436 469.848 474.277 469.848H477.476V466.105H474.277C473.436 466.105 472.834 466.264 472.471 466.583C472.123 466.903 471.949 467.367 471.949 467.976Z" fill="black"/>
<path d="M106.155 213.168H100.867V211.384H113.488V213.168H108.2V226.616H106.155V213.168ZM113.712 215.083H115.496V217.259C115.888 216.49 116.432 215.903 117.128 215.497C117.839 215.076 118.658 214.866 119.587 214.866C121.038 214.866 122.198 215.344 123.069 216.302C123.939 217.245 124.374 218.652 124.374 220.523V220.959C124.374 221.945 124.258 222.808 124.026 223.548C123.794 224.273 123.468 224.883 123.047 225.376C122.626 225.855 122.118 226.217 121.524 226.464C120.943 226.711 120.298 226.834 119.587 226.834C118.6 226.834 117.774 226.616 117.106 226.181C116.453 225.746 115.96 225.202 115.627 224.549V230.968H113.712V215.083ZM119.152 225.137C119.616 225.137 120.051 225.049 120.457 224.875C120.864 224.687 121.212 224.418 121.502 224.07C121.806 223.722 122.039 223.287 122.198 222.765C122.372 222.242 122.459 221.64 122.459 220.959V220.523C122.459 219.9 122.372 219.341 122.198 218.848C122.039 218.355 121.806 217.941 121.502 217.607C121.212 217.259 120.864 216.998 120.457 216.824C120.051 216.65 119.616 216.563 119.152 216.563C118.629 216.563 118.151 216.65 117.716 216.824C117.28 216.984 116.91 217.216 116.606 217.52C116.301 217.811 116.062 218.159 115.888 218.565C115.714 218.971 115.627 219.406 115.627 219.871V221.611C115.627 222.134 115.714 222.612 115.888 223.048C116.062 223.483 116.301 223.853 116.606 224.157C116.91 224.462 117.28 224.701 117.716 224.875C118.151 225.049 118.629 225.137 119.152 225.137ZM130.385 226.834C129.747 226.834 129.181 226.747 128.688 226.573C128.209 226.384 127.803 226.13 127.469 225.811C127.136 225.492 126.882 225.115 126.708 224.68C126.534 224.244 126.447 223.766 126.447 223.243C126.447 222.097 126.78 221.27 127.448 220.763C128.129 220.255 129.101 220.001 130.363 220.001H134.106V219.218C134.106 218.231 133.881 217.549 133.432 217.172C132.996 216.795 132.336 216.606 131.451 216.606C130.625 216.606 130.022 216.766 129.645 217.085C129.268 217.39 129.058 217.738 129.014 218.13H127.099C127.128 217.665 127.252 217.237 127.469 216.846C127.701 216.44 128.006 216.091 128.383 215.801C128.775 215.511 129.239 215.286 129.776 215.127C130.313 214.953 130.907 214.866 131.56 214.866C132.924 214.866 134.005 215.192 134.803 215.845C135.615 216.483 136.021 217.535 136.021 219V223.679C136.021 224.288 136.021 224.825 136.021 225.289C136.036 225.739 136.072 226.181 136.13 226.616H134.454C134.411 226.283 134.382 225.971 134.367 225.681C134.353 225.376 134.346 225.035 134.346 224.658C134.041 225.267 133.548 225.782 132.866 226.203C132.184 226.623 131.357 226.834 130.385 226.834ZM130.799 225.093C131.248 225.093 131.669 225.035 132.061 224.919C132.467 224.788 132.822 224.607 133.127 224.375C133.432 224.128 133.671 223.831 133.845 223.483C134.019 223.135 134.106 222.728 134.106 222.264V221.481H130.69C129.979 221.481 129.42 221.626 129.014 221.916C128.608 222.192 128.405 222.634 128.405 223.243C128.405 223.78 128.594 224.223 128.971 224.571C129.362 224.919 129.972 225.093 130.799 225.093ZM144.756 226.834C142.754 226.834 141.231 226.326 140.187 225.311C139.157 224.295 138.642 222.852 138.642 220.98V220.545C138.642 218.761 139.157 217.368 140.187 216.367C141.231 215.366 142.754 214.866 144.756 214.866V211.384H146.671V214.866C148.673 214.866 150.189 215.366 151.219 216.367C152.264 217.368 152.786 218.761 152.786 220.545V220.98C152.786 222.852 152.264 224.295 151.219 225.311C150.189 226.326 148.673 226.834 146.671 226.834V230.968H144.756V226.834ZM150.827 220.545C150.827 219.225 150.487 218.238 149.805 217.586C149.137 216.933 148.086 216.606 146.649 216.606V225.093C148.086 225.093 149.137 224.759 149.805 224.092C150.487 223.425 150.827 222.387 150.827 220.98V220.545ZM140.6 220.98C140.6 222.387 140.934 223.425 141.601 224.092C142.283 224.759 143.342 225.093 144.778 225.093V216.606C143.342 216.606 142.283 216.933 141.601 217.586C140.934 218.238 140.6 219.225 140.6 220.545V220.98ZM155.511 215.083H157.426V223.787L163.388 215.083H165.303V226.616H163.388V217.912L157.426 226.616H155.511V215.083ZM168.793 215.083H170.707V219.914H172.231L176.539 215.083H178.802L173.797 220.61L179.02 226.616H176.583L172.231 221.568H170.707V226.616H168.793V215.083Z" fill="black"/>
<path d="M761.686 395.551C760.816 395.551 759.974 395.406 759.162 395.115C758.35 394.811 757.632 394.347 757.008 393.723C756.384 393.099 755.883 392.301 755.506 391.329C755.129 390.357 754.94 389.189 754.94 387.826V387.39C754.94 386.085 755.129 384.961 755.506 384.018C755.883 383.075 756.384 382.299 757.008 381.689C757.632 381.065 758.35 380.609 759.162 380.318C759.974 380.028 760.816 379.883 761.686 379.883C762.557 379.883 763.398 380.028 764.21 380.318C765.023 380.609 765.741 381.065 766.365 381.689C766.988 382.299 767.489 383.075 767.866 384.018C768.243 384.961 768.432 386.085 768.432 387.39V387.826C768.432 389.189 768.243 390.357 767.866 391.329C767.489 392.301 766.988 393.099 766.365 393.723C765.741 394.347 765.023 394.811 764.21 395.115C763.398 395.406 762.557 395.551 761.686 395.551ZM761.686 393.723C762.281 393.723 762.854 393.614 763.405 393.396C763.957 393.179 764.443 392.838 764.863 392.374C765.284 391.895 765.618 391.286 765.864 390.546C766.125 389.791 766.256 388.885 766.256 387.826V387.39C766.256 386.39 766.125 385.534 765.864 384.823C765.618 384.097 765.284 383.51 764.863 383.06C764.443 382.596 763.957 382.255 763.405 382.037C762.854 381.82 762.281 381.711 761.686 381.711C761.091 381.711 760.518 381.82 759.967 382.037C759.416 382.255 758.93 382.596 758.509 383.06C758.088 383.51 757.748 384.097 757.486 384.823C757.24 385.534 757.117 386.39 757.117 387.39V387.826C757.117 388.885 757.24 389.791 757.486 390.546C757.748 391.286 758.088 391.895 758.509 392.374C758.93 392.838 759.416 393.179 759.967 393.396C760.518 393.614 761.091 393.723 761.686 393.723ZM771.483 383.8H779.317V385.497H773.398V395.333H771.483V383.8ZM781.492 383.8H783.277V385.976C783.668 385.207 784.212 384.62 784.909 384.213C785.62 383.793 786.439 383.582 787.368 383.582C788.818 383.582 789.979 384.061 790.849 385.019C791.72 385.962 792.155 387.369 792.155 389.24V389.675C792.155 390.662 792.039 391.525 791.807 392.265C791.575 392.99 791.248 393.599 790.828 394.093C790.407 394.571 789.899 394.934 789.304 395.181C788.724 395.427 788.079 395.551 787.368 395.551C786.381 395.551 785.554 395.333 784.887 394.898C784.234 394.463 783.741 393.919 783.407 393.266V399.685H781.492V383.8ZM786.932 393.853C787.397 393.853 787.832 393.766 788.238 393.592C788.644 393.404 788.992 393.135 789.283 392.787C789.587 392.439 789.819 392.004 789.979 391.481C790.153 390.959 790.24 390.357 790.24 389.675V389.24C790.24 388.616 790.153 388.058 789.979 387.565C789.819 387.071 789.587 386.658 789.283 386.324C788.992 385.976 788.644 385.715 788.238 385.541C787.832 385.367 787.397 385.28 786.932 385.28C786.41 385.28 785.931 385.367 785.496 385.541C785.061 385.7 784.691 385.933 784.386 386.237C784.082 386.527 783.842 386.875 783.668 387.282C783.494 387.688 783.407 388.123 783.407 388.587V390.328C783.407 390.85 783.494 391.329 783.668 391.764C783.842 392.2 784.082 392.569 784.386 392.874C784.691 393.179 785.061 393.418 785.496 393.592C785.931 393.766 786.41 393.853 786.932 393.853ZM798.166 395.551C797.528 395.551 796.962 395.464 796.469 395.289C795.99 395.101 795.584 394.847 795.25 394.528C794.916 394.209 794.662 393.832 794.488 393.396C794.314 392.961 794.227 392.482 794.227 391.96C794.227 390.814 794.561 389.987 795.228 389.479C795.91 388.972 796.882 388.718 798.144 388.718H801.887V387.934C801.887 386.948 801.662 386.266 801.212 385.889C800.777 385.512 800.117 385.323 799.232 385.323C798.405 385.323 797.803 385.483 797.426 385.802C797.049 386.107 796.839 386.455 796.795 386.846H794.88C794.909 386.382 795.032 385.954 795.25 385.563C795.482 385.156 795.787 384.808 796.164 384.518C796.556 384.228 797.02 384.003 797.557 383.844C798.093 383.669 798.688 383.582 799.341 383.582C800.705 383.582 801.785 383.909 802.583 384.562C803.396 385.2 803.802 386.252 803.802 387.717V392.395C803.802 393.005 803.802 393.541 803.802 394.006C803.816 394.455 803.853 394.898 803.911 395.333H802.235C802.192 394.999 802.163 394.687 802.148 394.397C802.134 394.093 802.126 393.752 802.126 393.375C801.822 393.984 801.328 394.499 800.647 394.92C799.965 395.34 799.138 395.551 798.166 395.551ZM798.579 393.81C799.029 393.81 799.45 393.752 799.841 393.636C800.248 393.505 800.603 393.324 800.908 393.092C801.212 392.845 801.452 392.548 801.626 392.2C801.8 391.851 801.887 391.445 801.887 390.981V390.198H798.471C797.76 390.198 797.201 390.343 796.795 390.633C796.389 390.908 796.186 391.351 796.186 391.96C796.186 392.497 796.374 392.939 796.751 393.288C797.143 393.636 797.752 393.81 798.579 393.81ZM807.184 383.8H809.099V388.609H815.061V383.8H816.976V395.333H815.061V390.306H809.099V395.333H807.184V383.8ZM820.465 383.8H822.38V392.504L828.343 383.8H830.258V395.333H828.343V386.629L822.38 395.333H820.465V383.8ZM840.427 390.742C840.094 390.945 839.688 391.126 839.209 391.286C838.745 391.445 838.157 391.525 837.446 391.525C836.779 391.525 836.177 391.452 835.64 391.307C835.118 391.162 834.675 390.93 834.313 390.611C833.95 390.292 833.674 389.878 833.486 389.371C833.297 388.863 833.203 388.239 833.203 387.499V383.8H835.118V387.173C835.118 387.666 835.161 388.08 835.248 388.413C835.35 388.747 835.51 389.015 835.727 389.218C835.945 389.421 836.22 389.567 836.554 389.654C836.888 389.741 837.294 389.784 837.773 389.784C838.425 389.784 838.984 389.719 839.448 389.588C839.912 389.458 840.239 389.32 840.427 389.175V383.8H842.342V395.333H840.427V390.742ZM850.604 395.551C849.865 395.551 849.161 395.435 848.494 395.202C847.826 394.97 847.239 394.615 846.731 394.136C846.223 393.643 845.817 393.026 845.513 392.287C845.208 391.547 845.056 390.676 845.056 389.675V389.24C845.056 388.283 845.201 387.456 845.491 386.759C845.781 386.049 846.165 385.461 846.644 384.997C847.137 384.518 847.703 384.163 848.341 383.931C848.994 383.698 849.676 383.582 850.387 383.582C852.084 383.582 853.397 384.047 854.325 384.975C855.254 385.904 855.718 387.216 855.718 388.914V390.132H846.97C846.97 390.814 847.079 391.387 847.297 391.851C847.514 392.316 847.797 392.693 848.146 392.983C848.494 393.273 848.878 393.483 849.299 393.614C849.734 393.745 850.169 393.81 850.604 393.81C851.475 393.81 852.142 393.665 852.606 393.375C853.085 393.084 853.426 392.685 853.629 392.178H855.501C855.384 392.729 855.174 393.215 854.869 393.636C854.579 394.056 854.217 394.412 853.781 394.702C853.361 394.978 852.875 395.188 852.323 395.333C851.787 395.478 851.214 395.551 850.604 395.551ZM850.496 385.323C850.046 385.323 849.611 385.389 849.19 385.519C848.769 385.635 848.392 385.831 848.058 386.107C847.739 386.368 847.478 386.701 847.275 387.108C847.072 387.514 846.97 388 846.97 388.566H853.912C853.897 387.971 853.796 387.47 853.607 387.064C853.433 386.643 853.194 386.31 852.889 386.063C852.585 385.802 852.222 385.613 851.801 385.497C851.395 385.381 850.96 385.323 850.496 385.323ZM858.44 383.8H860.355V388.609H866.317V383.8H868.232V395.333H866.317V390.306H860.355V395.333H858.44V383.8ZM871.721 383.8H873.636V392.504L879.599 383.8H881.513V395.333H879.599V386.629L873.636 395.333H871.721V383.8ZM889.79 395.551C889.05 395.551 888.347 395.435 887.679 395.202C887.012 394.97 886.424 394.615 885.917 394.136C885.409 393.643 885.003 393.026 884.698 392.287C884.393 391.547 884.241 390.676 884.241 389.675V389.24C884.241 388.283 884.386 387.456 884.676 386.759C884.967 386.049 885.351 385.461 885.83 384.997C886.323 384.518 886.889 384.163 887.527 383.931C888.18 383.698 888.862 383.582 889.572 383.582C891.27 383.582 892.583 384.047 893.511 384.975C894.44 385.904 894.904 387.216 894.904 388.914V390.132H886.156C886.156 390.814 886.265 391.387 886.482 391.851C886.7 392.316 886.983 392.693 887.331 392.983C887.679 393.273 888.064 393.483 888.484 393.614C888.92 393.745 889.355 393.81 889.79 393.81C890.66 393.81 891.328 393.665 891.792 393.375C892.271 393.084 892.612 392.685 892.815 392.178H894.686C894.57 392.729 894.36 393.215 894.055 393.636C893.765 394.056 893.402 394.412 892.967 394.702C892.546 394.978 892.06 395.188 891.509 395.333C890.972 395.478 890.399 395.551 889.79 395.551ZM889.681 385.323C889.232 385.323 888.796 385.389 888.376 385.519C887.955 385.635 887.578 385.831 887.244 386.107C886.925 386.368 886.664 386.701 886.461 387.108C886.258 387.514 886.156 388 886.156 388.566H893.098C893.083 387.971 892.982 387.47 892.793 387.064C892.619 386.643 892.38 386.31 892.075 386.063C891.77 385.802 891.408 385.613 890.987 385.497C890.581 385.381 890.145 385.323 889.681 385.323ZM738.583 419.551C737.843 419.551 737.14 419.435 736.473 419.202C735.805 418.956 735.218 418.593 734.71 418.114C734.202 417.621 733.796 417.005 733.491 416.265C733.187 415.525 733.034 414.662 733.034 413.675V413.24C733.034 412.312 733.187 411.492 733.491 410.781C733.796 410.07 734.202 409.483 734.71 409.019C735.218 408.54 735.805 408.184 736.473 407.952C737.14 407.706 737.843 407.582 738.583 407.582C739.323 407.582 740.027 407.706 740.694 407.952C741.361 408.184 741.949 408.54 742.457 409.019C742.964 409.483 743.371 410.07 743.675 410.781C743.98 411.492 744.132 412.312 744.132 413.24V413.675C744.132 414.662 743.98 415.525 743.675 416.265C743.371 417.005 742.964 417.621 742.457 418.114C741.949 418.593 741.361 418.956 740.694 419.202C740.027 419.435 739.323 419.551 738.583 419.551ZM738.583 417.81C739.018 417.81 739.454 417.737 739.889 417.592C740.324 417.433 740.709 417.193 741.042 416.874C741.376 416.54 741.644 416.112 741.847 415.59C742.065 415.068 742.174 414.43 742.174 413.675V413.24C742.174 412.544 742.065 411.949 741.847 411.456C741.644 410.963 741.376 410.556 741.042 410.237C740.709 409.918 740.324 409.686 739.889 409.541C739.454 409.396 739.018 409.323 738.583 409.323C738.148 409.323 737.713 409.396 737.278 409.541C736.842 409.686 736.458 409.918 736.124 410.237C735.791 410.556 735.515 410.963 735.297 411.456C735.094 411.949 734.993 412.544 734.993 413.24V413.675C734.993 414.43 735.094 415.068 735.297 415.59C735.515 416.112 735.791 416.54 736.124 416.874C736.458 417.193 736.842 417.433 737.278 417.592C737.713 417.737 738.148 417.81 738.583 417.81ZM751.631 419.551C750.862 419.551 750.144 419.406 749.477 419.115C748.824 418.825 748.251 418.405 747.758 417.853C747.279 417.288 746.894 416.598 746.604 415.786C746.329 414.974 746.191 414.052 746.191 413.023V412.587C746.191 411.282 746.285 410.121 746.474 409.106C746.662 408.076 746.982 407.205 747.431 406.494C747.895 405.769 748.497 405.203 749.237 404.797C749.992 404.391 750.935 404.159 752.066 404.101C752.98 404.057 753.778 404.021 754.46 403.992C755.142 403.948 755.722 403.803 756.201 403.557V405.406C755.969 405.537 755.541 405.638 754.917 405.711C754.307 405.784 753.466 405.834 752.393 405.863C751.696 405.878 751.08 405.965 750.543 406.124C750.021 406.284 749.571 406.538 749.194 406.886C748.831 407.234 748.541 407.691 748.323 408.257C748.12 408.808 747.99 409.49 747.932 410.302C748.28 409.534 748.817 408.924 749.542 408.475C750.267 408.025 751.109 407.8 752.066 407.8C752.806 407.8 753.481 407.931 754.09 408.192C754.699 408.438 755.221 408.794 755.657 409.258C756.106 409.722 756.455 410.295 756.701 410.977C756.948 411.644 757.071 412.399 757.071 413.24V413.675C757.071 414.575 756.933 415.387 756.658 416.112C756.382 416.823 756.005 417.44 755.526 417.962C755.047 418.47 754.474 418.862 753.807 419.137C753.14 419.413 752.414 419.551 751.631 419.551ZM751.631 417.81C752.646 417.81 753.481 417.462 754.133 416.765C754.786 416.054 755.113 415.024 755.113 413.675V413.24C755.113 412.674 755.026 412.167 754.851 411.717C754.677 411.267 754.438 410.883 754.133 410.564C753.829 410.23 753.459 409.976 753.024 409.802C752.603 409.628 752.139 409.541 751.631 409.541C751.123 409.541 750.652 409.628 750.217 409.802C749.796 409.976 749.433 410.23 749.129 410.564C748.824 410.883 748.585 411.267 748.41 411.717C748.236 412.167 748.149 412.674 748.149 413.24V413.675C748.149 414.314 748.236 414.894 748.41 415.416C748.599 415.924 748.853 416.359 749.172 416.722C749.491 417.07 749.861 417.338 750.282 417.527C750.703 417.715 751.152 417.81 751.631 417.81ZM761.313 409.497H758.267V407.8H763.228V412.152H765.992C767.443 412.152 768.509 412.471 769.191 413.11C769.887 413.748 770.235 414.633 770.235 415.764C770.235 416.867 769.887 417.737 769.191 418.376C768.509 419.014 767.443 419.333 765.992 419.333H761.313V409.497ZM765.883 417.636C766.783 417.636 767.414 417.476 767.776 417.157C768.139 416.838 768.32 416.366 768.32 415.743C768.32 415.119 768.139 414.647 767.776 414.328C767.414 414.009 766.783 413.849 765.883 413.849H763.228V417.636H765.883ZM777.748 419.551C777.008 419.551 776.304 419.435 775.637 419.202C774.97 418.97 774.382 418.615 773.874 418.136C773.367 417.643 772.96 417.026 772.656 416.287C772.351 415.547 772.199 414.676 772.199 413.675V413.24C772.199 412.283 772.344 411.456 772.634 410.759C772.924 410.049 773.309 409.461 773.787 408.997C774.28 408.518 774.846 408.163 775.485 407.931C776.137 407.698 776.819 407.582 777.53 407.582C779.227 407.582 780.54 408.047 781.469 408.975C782.397 409.904 782.861 411.216 782.861 412.914V414.132H774.114C774.114 414.814 774.222 415.387 774.44 415.851C774.658 416.316 774.941 416.693 775.289 416.983C775.637 417.273 776.021 417.483 776.442 417.614C776.877 417.745 777.312 417.81 777.748 417.81C778.618 417.81 779.285 417.665 779.75 417.375C780.228 417.084 780.569 416.685 780.772 416.178H782.644C782.528 416.729 782.317 417.215 782.013 417.636C781.723 418.056 781.36 418.412 780.925 418.702C780.504 418.978 780.018 419.188 779.467 419.333C778.93 419.478 778.357 419.551 777.748 419.551ZM777.639 409.323C777.189 409.323 776.754 409.389 776.333 409.519C775.913 409.635 775.535 409.831 775.202 410.107C774.883 410.368 774.621 410.701 774.418 411.108C774.215 411.514 774.114 412 774.114 412.566H781.055C781.041 411.971 780.939 411.47 780.751 411.064C780.576 410.643 780.337 410.31 780.032 410.063C779.728 409.802 779.365 409.613 778.944 409.497C778.538 409.381 778.103 409.323 777.639 409.323ZM785.583 407.8H787.629L791.741 414.981L795.854 407.8H797.769V419.333H795.854V410.955L792.438 416.831H790.914L787.498 410.955V419.333H785.583V407.8ZM804.53 419.551C803.892 419.551 803.326 419.464 802.833 419.289C802.354 419.101 801.948 418.847 801.614 418.528C801.281 418.209 801.027 417.832 800.853 417.396C800.679 416.961 800.592 416.482 800.592 415.96C800.592 414.814 800.925 413.987 801.593 413.479C802.275 412.972 803.247 412.718 804.509 412.718H808.251V411.934C808.251 410.948 808.027 410.266 807.577 409.889C807.142 409.512 806.482 409.323 805.597 409.323C804.77 409.323 804.168 409.483 803.791 409.802C803.413 410.107 803.203 410.455 803.159 410.846H801.245C801.274 410.382 801.397 409.954 801.614 409.563C801.847 409.156 802.151 408.808 802.528 408.518C802.92 408.228 803.384 408.003 803.921 407.844C804.458 407.669 805.053 407.582 805.705 407.582C807.069 407.582 808.15 407.909 808.948 408.562C809.76 409.2 810.166 410.252 810.166 411.717V416.395C810.166 417.005 810.166 417.541 810.166 418.006C810.181 418.455 810.217 418.898 810.275 419.333H808.6C808.556 418.999 808.527 418.687 808.513 418.397C808.498 418.093 808.491 417.752 808.491 417.375C808.186 417.984 807.693 418.499 807.011 418.92C806.329 419.34 805.502 419.551 804.53 419.551ZM804.944 417.81C805.394 417.81 805.814 417.752 806.206 417.636C806.612 417.505 806.968 417.324 807.272 417.092C807.577 416.845 807.816 416.548 807.99 416.2C808.164 415.851 808.251 415.445 808.251 414.981V414.198H804.835C804.124 414.198 803.566 414.343 803.159 414.633C802.753 414.908 802.55 415.351 802.55 415.96C802.55 416.497 802.739 416.939 803.116 417.288C803.508 417.636 804.117 417.81 804.944 417.81ZM819.206 413.675C819.206 412.254 819.402 410.963 819.794 409.802C820.2 408.641 820.65 407.633 821.143 406.777C821.709 405.791 822.354 404.899 823.08 404.101H825.299C824.516 404.899 823.827 405.791 823.232 406.777C822.971 407.198 822.717 407.662 822.47 408.17C822.224 408.678 821.999 409.222 821.796 409.802C821.607 410.382 821.455 410.999 821.339 411.652C821.223 412.29 821.165 412.964 821.165 413.675V414.111C821.165 414.821 821.223 415.503 821.339 416.156C821.455 416.809 821.607 417.425 821.796 418.006C821.999 418.586 822.224 419.13 822.47 419.638C822.717 420.145 822.971 420.61 823.232 421.03C823.827 422.031 824.516 422.916 825.299 423.685H822.993C822.282 422.916 821.651 422.031 821.099 421.03C820.621 420.189 820.185 419.181 819.794 418.006C819.402 416.831 819.206 415.532 819.206 414.111V413.675ZM827.255 407.8H829.039V409.976C829.431 409.207 829.975 408.62 830.671 408.213C831.382 407.793 832.202 407.582 833.13 407.582C834.581 407.582 835.742 408.061 836.612 409.019C837.482 409.962 837.918 411.369 837.918 413.24V413.675C837.918 414.662 837.801 415.525 837.569 416.265C837.337 416.99 837.011 417.599 836.59 418.093C836.169 418.571 835.662 418.934 835.067 419.181C834.487 419.427 833.841 419.551 833.13 419.551C832.144 419.551 831.317 419.333 830.65 418.898C829.997 418.463 829.504 417.919 829.17 417.266V423.685H827.255V407.8ZM832.695 417.853C833.159 417.853 833.594 417.766 834.001 417.592C834.407 417.404 834.755 417.135 835.045 416.787C835.35 416.439 835.582 416.004 835.742 415.481C835.916 414.959 836.003 414.357 836.003 413.675V413.24C836.003 412.616 835.916 412.058 835.742 411.565C835.582 411.071 835.35 410.658 835.045 410.324C834.755 409.976 834.407 409.715 834.001 409.541C833.594 409.367 833.159 409.28 832.695 409.28C832.173 409.28 831.694 409.367 831.259 409.541C830.824 409.7 830.454 409.933 830.149 410.237C829.844 410.527 829.605 410.875 829.431 411.282C829.257 411.688 829.17 412.123 829.17 412.587V414.328C829.17 414.85 829.257 415.329 829.431 415.764C829.605 416.2 829.844 416.569 830.149 416.874C830.454 417.179 830.824 417.418 831.259 417.592C831.694 417.766 832.173 417.853 832.695 417.853ZM845.43 419.551C844.69 419.551 843.987 419.435 843.319 419.202C842.652 418.956 842.064 418.593 841.557 418.114C841.049 417.621 840.643 417.005 840.338 416.265C840.033 415.525 839.881 414.662 839.881 413.675V413.24C839.881 412.312 840.033 411.492 840.338 410.781C840.643 410.07 841.049 409.483 841.557 409.019C842.064 408.54 842.652 408.184 843.319 407.952C843.987 407.706 844.69 407.582 845.43 407.582C846.17 407.582 846.873 407.706 847.541 407.952C848.208 408.184 848.796 408.54 849.303 409.019C849.811 409.483 850.217 410.07 850.522 410.781C850.827 411.492 850.979 412.312 850.979 413.24V413.675C850.979 414.662 850.827 415.525 850.522 416.265C850.217 417.005 849.811 417.621 849.303 418.114C848.796 418.593 848.208 418.956 847.541 419.202C846.873 419.435 846.17 419.551 845.43 419.551ZM845.43 417.81C845.865 417.81 846.3 417.737 846.736 417.592C847.171 417.433 847.555 417.193 847.889 416.874C848.223 416.54 848.491 416.112 848.694 415.59C848.912 415.068 849.02 414.43 849.02 413.675V413.24C849.02 412.544 848.912 411.949 848.694 411.456C848.491 410.963 848.223 410.556 847.889 410.237C847.555 409.918 847.171 409.686 846.736 409.541C846.3 409.396 845.865 409.323 845.43 409.323C844.995 409.323 844.56 409.396 844.124 409.541C843.689 409.686 843.305 409.918 842.971 410.237C842.637 410.556 842.362 410.963 842.144 411.456C841.941 411.949 841.84 412.544 841.84 413.24V413.675C841.84 414.43 841.941 415.068 842.144 415.59C842.362 416.112 842.637 416.54 842.971 416.874C843.305 417.193 843.689 417.433 844.124 417.592C844.56 417.737 844.995 417.81 845.43 417.81ZM857.172 419.442C855.968 419.442 855.105 419.152 854.583 418.571C854.06 417.991 853.799 417.048 853.799 415.743V404.101H855.714V415.743C855.714 416.497 855.837 417.012 856.084 417.288C856.331 417.563 856.766 417.701 857.39 417.701C857.549 417.701 857.687 417.701 857.803 417.701C857.919 417.686 858.035 417.672 858.151 417.657V419.355C858.035 419.384 857.868 419.406 857.651 419.42C857.448 419.435 857.288 419.442 857.172 419.442ZM860.878 407.8H862.793V419.333H860.878V407.8ZM861.836 406.277C861.458 406.277 861.146 406.153 860.9 405.907C860.653 405.66 860.53 405.348 860.53 404.971C860.53 404.594 860.653 404.282 860.9 404.035C861.146 403.789 861.458 403.666 861.836 403.666C862.213 403.666 862.525 403.789 862.771 404.035C863.018 404.282 863.141 404.594 863.141 404.971C863.141 405.348 863.018 405.66 862.771 405.907C862.525 406.153 862.213 406.277 861.836 406.277ZM870.944 419.551C870.204 419.551 869.515 419.435 868.877 419.202C868.238 418.956 867.687 418.593 867.223 418.114C866.759 417.621 866.389 417.005 866.113 416.265C865.852 415.525 865.721 414.662 865.721 413.675V413.24C865.721 412.312 865.867 411.492 866.157 410.781C866.447 410.07 866.831 409.483 867.31 409.019C867.789 408.54 868.34 408.184 868.964 407.952C869.602 407.706 870.262 407.582 870.944 407.582C871.626 407.582 872.235 407.677 872.772 407.865C873.323 408.054 873.795 408.315 874.186 408.649C874.592 408.982 874.919 409.374 875.165 409.824C875.427 410.273 875.615 410.759 875.731 411.282H873.773C873.657 411.006 873.519 410.752 873.359 410.52C873.214 410.273 873.026 410.063 872.794 409.889C872.576 409.715 872.315 409.577 872.01 409.476C871.706 409.374 871.35 409.323 870.944 409.323C870.523 409.323 870.117 409.403 869.725 409.563C869.334 409.708 868.986 409.94 868.681 410.259C868.376 410.564 868.13 410.963 867.941 411.456C867.767 411.949 867.68 412.544 867.68 413.24V413.675C867.68 414.415 867.767 415.053 867.941 415.59C868.13 416.112 868.376 416.54 868.681 416.874C868.986 417.193 869.334 417.433 869.725 417.592C870.117 417.737 870.523 417.81 870.944 417.81C871.655 417.81 872.25 417.636 872.728 417.288C873.222 416.939 873.57 416.461 873.773 415.851H875.731C875.456 416.997 874.89 417.904 874.034 418.571C873.178 419.224 872.148 419.551 870.944 419.551ZM878.558 407.8H880.473V419.333H878.558V407.8ZM879.516 406.277C879.139 406.277 878.827 406.153 878.58 405.907C878.334 405.66 878.21 405.348 878.21 404.971C878.21 404.594 878.334 404.282 878.58 404.035C878.827 403.789 879.139 403.666 879.516 403.666C879.893 403.666 880.205 403.789 880.452 404.035C880.698 404.282 880.821 404.594 880.821 404.971C880.821 405.348 880.698 405.66 880.452 405.907C880.205 406.153 879.893 406.277 879.516 406.277ZM884.163 407.8H885.948V409.976C886.078 409.657 886.26 409.352 886.492 409.062C886.724 408.772 887 408.518 887.319 408.301C887.652 408.083 888.029 407.909 888.45 407.778C888.885 407.648 889.364 407.582 889.886 407.582C891.337 407.582 892.411 407.974 893.107 408.757C893.818 409.526 894.173 410.658 894.173 412.152V419.333H892.258V412.587C892.258 411.514 892.033 410.701 891.584 410.15C891.134 409.599 890.38 409.323 889.321 409.323C888.755 409.323 888.262 409.418 887.841 409.606C887.435 409.795 887.101 410.041 886.84 410.346C886.579 410.651 886.383 410.999 886.252 411.39C886.136 411.782 886.078 412.181 886.078 412.587V419.333H884.163V407.8ZM902.121 423.903C901.279 423.903 900.561 423.816 899.966 423.642C899.372 423.482 898.878 423.257 898.487 422.967C898.11 422.677 897.819 422.329 897.616 421.922C897.413 421.531 897.283 421.103 897.225 420.639H899.227C899.299 420.871 899.401 421.081 899.531 421.27C899.662 421.458 899.836 421.618 900.054 421.748C900.271 421.879 900.547 421.981 900.88 422.053C901.229 422.126 901.642 422.162 902.121 422.162C903.296 422.162 904.159 421.879 904.71 421.313C905.262 420.747 905.537 419.942 905.537 418.898V417.048C905.203 417.817 904.688 418.39 903.992 418.767C903.31 419.144 902.505 419.333 901.577 419.333C900.866 419.333 900.213 419.21 899.618 418.963C899.038 418.716 898.538 418.354 898.117 417.875C897.696 417.396 897.37 416.802 897.138 416.091C896.906 415.365 896.789 414.524 896.789 413.567V413.131C896.789 412.246 896.906 411.463 897.138 410.781C897.384 410.085 897.718 409.505 898.139 409.04C898.559 408.562 899.06 408.199 899.64 407.952C900.235 407.706 900.88 407.582 901.577 407.582C902.563 407.582 903.419 407.807 904.144 408.257C904.87 408.692 905.378 409.265 905.668 409.976V407.8H907.452V418.898C907.452 420.465 906.995 421.69 906.081 422.575C905.167 423.46 903.847 423.903 902.121 423.903ZM902.012 417.636C902.534 417.636 903.013 417.556 903.448 417.396C903.883 417.222 904.253 416.983 904.558 416.678C904.863 416.374 905.102 416.011 905.276 415.59C905.45 415.17 905.537 414.713 905.537 414.219V412.478C905.537 412.043 905.45 411.63 905.276 411.238C905.102 410.846 904.863 410.506 904.558 410.215C904.253 409.925 903.883 409.7 903.448 409.541C903.013 409.367 902.534 409.28 902.012 409.28C901.548 409.28 901.113 409.367 900.706 409.541C900.3 409.715 899.945 409.969 899.64 410.302C899.35 410.636 899.118 411.042 898.944 411.521C898.784 411.985 898.704 412.522 898.704 413.131V413.567C898.704 414.219 898.784 414.8 898.944 415.307C899.118 415.815 899.35 416.243 899.64 416.591C899.945 416.939 900.3 417.2 900.706 417.375C901.113 417.549 901.548 417.636 902.012 417.636ZM915.508 414.111C915.508 415.532 915.305 416.823 914.899 417.984C914.508 419.144 914.065 420.153 913.572 421.009C913.006 421.995 912.361 422.887 911.635 423.685H909.416C910.199 422.887 910.888 421.995 911.483 421.009C911.744 420.588 911.998 420.124 912.244 419.616C912.491 419.108 912.709 418.564 912.897 417.984C913.1 417.404 913.26 416.794 913.376 416.156C913.492 415.503 913.55 414.821 913.55 414.111V413.675C913.55 412.964 913.492 412.283 913.376 411.63C913.26 410.977 913.1 410.36 912.897 409.78C912.709 409.2 912.491 408.656 912.244 408.148C911.998 407.64 911.744 407.176 911.483 406.756C910.888 405.755 910.199 404.87 909.416 404.101H911.722C912.433 404.87 913.064 405.755 913.615 406.756C914.094 407.597 914.529 408.605 914.921 409.78C915.313 410.955 915.508 412.254 915.508 413.675V414.111Z" fill="black"/>
<path d="M1183.34 460.708H1188.78C1189.69 460.708 1190.48 460.81 1191.13 461.013C1191.78 461.216 1192.32 461.499 1192.74 461.861C1193.18 462.21 1193.5 462.638 1193.7 463.145C1193.9 463.639 1194 464.183 1194 464.777C1194 465.561 1193.79 466.235 1193.35 466.801C1192.91 467.352 1192.38 467.751 1191.74 467.998C1192.64 468.201 1193.35 468.614 1193.87 469.238C1194.39 469.848 1194.66 470.645 1194.66 471.632C1194.66 472.256 1194.55 472.829 1194.35 473.351C1194.15 473.873 1193.83 474.33 1193.39 474.722C1192.96 475.099 1192.39 475.396 1191.7 475.614C1191.01 475.832 1190.19 475.94 1189.22 475.94H1183.34V460.708ZM1189.22 474.156C1189.87 474.156 1190.41 474.098 1190.85 473.982C1191.28 473.851 1191.63 473.677 1191.89 473.46C1192.15 473.228 1192.33 472.952 1192.44 472.633C1192.55 472.314 1192.61 471.958 1192.61 471.567C1192.61 471.175 1192.55 470.819 1192.44 470.5C1192.33 470.167 1192.15 469.891 1191.89 469.673C1191.63 469.441 1191.28 469.267 1190.83 469.151C1190.39 469.021 1189.85 468.955 1189.19 468.955H1185.39V474.156H1189.22ZM1188.78 467.258C1189.39 467.258 1189.9 467.2 1190.3 467.084C1190.71 466.968 1191.04 466.801 1191.28 466.583C1191.53 466.366 1191.7 466.112 1191.81 465.822C1191.91 465.532 1191.96 465.213 1191.96 464.864C1191.96 464.516 1191.91 464.197 1191.81 463.907C1191.7 463.602 1191.53 463.348 1191.28 463.145C1191.04 462.942 1190.71 462.783 1190.3 462.667C1189.9 462.551 1189.39 462.493 1188.78 462.493H1185.39V467.258H1188.78ZM1197.48 464.407H1199.27V466.583C1199.66 465.815 1200.2 465.227 1200.9 464.821C1201.61 464.4 1202.43 464.19 1203.36 464.19C1204.81 464.19 1205.97 464.669 1206.84 465.626C1207.71 466.569 1208.15 467.976 1208.15 469.848V470.283C1208.15 471.269 1208.03 472.132 1207.8 472.872C1207.57 473.598 1207.24 474.207 1206.82 474.7C1206.4 475.179 1205.89 475.541 1205.29 475.788C1204.71 476.035 1204.07 476.158 1203.36 476.158C1202.37 476.158 1201.54 475.94 1200.88 475.505C1200.22 475.07 1199.73 474.526 1199.4 473.873V480.292H1197.48V464.407ZM1202.92 474.461C1203.39 474.461 1203.82 474.374 1204.23 474.2C1204.63 474.011 1204.98 473.743 1205.27 473.394C1205.58 473.046 1205.81 472.611 1205.97 472.089C1206.14 471.567 1206.23 470.965 1206.23 470.283V469.848C1206.23 469.224 1206.14 468.665 1205.97 468.172C1205.81 467.679 1205.58 467.265 1205.27 466.932C1204.98 466.583 1204.63 466.322 1204.23 466.148C1203.82 465.974 1203.39 465.887 1202.92 465.887C1202.4 465.887 1201.92 465.974 1201.49 466.148C1201.05 466.308 1200.68 466.54 1200.38 466.845C1200.07 467.135 1199.83 467.483 1199.66 467.889C1199.48 468.295 1199.4 468.731 1199.4 469.195V470.936C1199.4 471.458 1199.48 471.937 1199.66 472.372C1199.83 472.807 1200.07 473.177 1200.38 473.482C1200.68 473.786 1201.05 474.026 1201.49 474.2C1201.92 474.374 1202.4 474.461 1202.92 474.461ZM1215.66 476.158C1214.92 476.158 1214.21 476.042 1213.55 475.81C1212.88 475.578 1212.29 475.222 1211.78 474.744C1211.28 474.25 1210.87 473.634 1210.57 472.894C1210.26 472.154 1210.11 471.284 1210.11 470.283V469.848C1210.11 468.89 1210.25 468.063 1210.54 467.367C1210.83 466.656 1211.22 466.068 1211.7 465.604C1212.19 465.126 1212.76 464.77 1213.39 464.538C1214.05 464.306 1214.73 464.19 1215.44 464.19C1217.14 464.19 1218.45 464.654 1219.38 465.583C1220.31 466.511 1220.77 467.824 1220.77 469.521V470.74H1212.02C1212.02 471.422 1212.13 471.995 1212.35 472.459C1212.57 472.923 1212.85 473.3 1213.2 473.59C1213.55 473.88 1213.93 474.091 1214.35 474.221C1214.79 474.352 1215.22 474.417 1215.66 474.417C1216.53 474.417 1217.2 474.272 1217.66 473.982C1218.14 473.692 1218.48 473.293 1218.68 472.785H1220.55C1220.44 473.336 1220.23 473.822 1219.92 474.243C1219.63 474.664 1219.27 475.019 1218.83 475.309C1218.41 475.585 1217.93 475.795 1217.38 475.94C1216.84 476.085 1216.27 476.158 1215.66 476.158ZM1215.55 465.931C1215.1 465.931 1214.66 465.996 1214.24 466.127C1213.82 466.243 1213.45 466.438 1213.11 466.714C1212.79 466.975 1212.53 467.309 1212.33 467.715C1212.13 468.121 1212.02 468.607 1212.02 469.173H1218.97C1218.95 468.578 1218.85 468.078 1218.66 467.671C1218.49 467.251 1218.25 466.917 1217.94 466.671C1217.64 466.409 1217.28 466.221 1216.85 466.105C1216.45 465.989 1216.01 465.931 1215.55 465.931ZM1223.49 464.407H1225.54L1229.65 471.588L1233.76 464.407H1235.68V475.94H1233.76V467.563L1230.35 473.438H1228.82L1225.41 467.563V475.94H1223.49V464.407ZM1241.42 471.371C1240.46 471.153 1239.77 470.761 1239.35 470.196C1238.93 469.615 1238.72 468.876 1238.72 467.976C1238.72 466.845 1239.06 465.967 1239.74 465.343C1240.44 464.719 1241.55 464.407 1243.07 464.407H1248.08V475.94H1246.16V471.545H1243.22L1240.42 475.94H1238.28L1241.42 471.371ZM1240.63 467.976C1240.63 468.585 1240.81 469.05 1241.16 469.369C1241.52 469.688 1242.12 469.848 1242.96 469.848H1246.16V466.105H1242.96C1242.12 466.105 1241.52 466.264 1241.16 466.583C1240.81 466.903 1240.63 467.367 1240.63 467.976Z" fill="black"/>
<path d="M902.26 358.597H738.26V348.597H902.26V358.597Z" fill="#FFBD6E"/>
<path d="M902.26 342.05L922.26 353.597L902.26 365.144V342.05Z" fill="#FFBD6E"/>
</svg>
