<svg width="1551" height="580" viewBox="0 0 1551 580" fill="none" xmlns="http://www.w3.org/2000/svg">
<path d="M970.994 224.766H1450.14" stroke="black" stroke-width="2" stroke-dasharray="10 10"/>
<path d="M970.994 436.553C970.994 436.553 1010.76 224.766 1036.62 224.766C1145.2 224.766 1435.46 224.766 1435.46 224.766" stroke="#58A982" stroke-width="3"/>
<path d="M202.479 436.553L243.369 165.004L268.531 383.082L317.809 191.215L384.91 376.791L415.315 198.554L439.429 254.122L468.786 156.616L515.966 367.355L550.565 291.867L573.631 400.906L666.943 165.004" stroke="#58A982" stroke-width="3"/>
<path d="M202.479 100V444.94H679.523" stroke="black" stroke-width="2"/>
<path d="M970.994 100V444.94H1448.04" stroke="black" stroke-width="2"/>
<path d="M202.479 224.766H681.621" stroke="black" stroke-width="2" stroke-dasharray="10 10"/>
<path d="M485.142 166.384H487.188V178.352L495.282 166.384H497.328V181.616H495.282V169.648L487.188 181.616H485.142V166.384ZM501.24 170.083H503.155V174.892H509.117V170.083H511.032V181.616H509.117V176.59H503.155V181.616H501.24V170.083ZM517.154 171.781H513.215V170.083H523.008V171.781H519.069V181.616H517.154V171.781ZM529.764 181.834C529.024 181.834 528.32 181.718 527.653 181.486C526.985 181.254 526.398 180.898 525.89 180.419C525.382 179.926 524.976 179.31 524.672 178.57C524.367 177.83 524.215 176.959 524.215 175.959V175.523C524.215 174.566 524.36 173.739 524.65 173.043C524.94 172.332 525.324 171.744 525.803 171.28C526.296 170.801 526.862 170.446 527.5 170.214C528.153 169.982 528.835 169.866 529.546 169.866C531.243 169.866 532.556 170.33 533.485 171.258C534.413 172.187 534.877 173.5 534.877 175.197V176.415H526.13C526.13 177.097 526.238 177.67 526.456 178.135C526.674 178.599 526.956 178.976 527.305 179.266C527.653 179.556 528.037 179.767 528.458 179.897C528.893 180.028 529.328 180.093 529.764 180.093C530.634 180.093 531.301 179.948 531.765 179.658C532.244 179.368 532.585 178.969 532.788 178.461H534.66C534.544 179.012 534.333 179.498 534.029 179.919C533.738 180.34 533.376 180.695 532.941 180.985C532.52 181.261 532.034 181.471 531.483 181.616C530.946 181.761 530.373 181.834 529.764 181.834ZM529.655 171.606C529.205 171.606 528.77 171.672 528.349 171.802C527.928 171.918 527.551 172.114 527.218 172.39C526.898 172.651 526.637 172.985 526.434 173.391C526.231 173.797 526.13 174.283 526.13 174.849H533.071C533.057 174.254 532.955 173.753 532.766 173.347C532.592 172.927 532.353 172.593 532.048 172.346C531.744 172.085 531.381 171.897 530.96 171.781C530.554 171.664 530.119 171.606 529.655 171.606ZM537.599 170.083H539.514V174.892H545.476V170.083H547.391V181.616H545.476V176.59H539.514V181.616H537.599V170.083ZM555.341 181.834C554.601 181.834 553.912 181.718 553.274 181.486C552.636 181.239 552.084 180.876 551.62 180.398C551.156 179.904 550.786 179.288 550.51 178.548C550.249 177.808 550.119 176.945 550.119 175.959V175.523C550.119 174.595 550.264 173.775 550.554 173.064C550.844 172.354 551.229 171.766 551.707 171.302C552.186 170.823 552.737 170.468 553.361 170.236C553.999 169.989 554.659 169.866 555.341 169.866C556.023 169.866 556.632 169.96 557.169 170.149C557.72 170.337 558.192 170.598 558.584 170.932C558.99 171.266 559.316 171.657 559.563 172.107C559.824 172.557 560.013 173.043 560.129 173.565H558.17C558.054 173.289 557.916 173.035 557.757 172.803C557.612 172.557 557.423 172.346 557.191 172.172C556.973 171.998 556.712 171.86 556.408 171.759C556.103 171.657 555.747 171.606 555.341 171.606C554.921 171.606 554.514 171.686 554.123 171.846C553.731 171.991 553.383 172.223 553.078 172.542C552.774 172.847 552.527 173.246 552.338 173.739C552.164 174.232 552.077 174.827 552.077 175.523V175.959C552.077 176.698 552.164 177.337 552.338 177.873C552.527 178.396 552.774 178.824 553.078 179.157C553.383 179.476 553.731 179.716 554.123 179.875C554.514 180.02 554.921 180.093 555.341 180.093C556.052 180.093 556.647 179.919 557.126 179.571C557.619 179.223 557.967 178.744 558.17 178.135H560.129C559.853 179.281 559.287 180.187 558.431 180.855C557.575 181.507 556.545 181.834 555.341 181.834ZM562.738 170.083H564.653V178.787L570.615 170.083H572.53V181.616H570.615V172.912L564.653 181.616H562.738V170.083ZM576.02 170.083H581.024C582.446 170.083 583.491 170.381 584.158 170.975C584.825 171.556 585.159 172.31 585.159 173.238C585.159 173.485 585.115 173.739 585.028 174C584.941 174.247 584.818 174.479 584.658 174.696C584.513 174.914 584.332 175.103 584.114 175.262C583.911 175.422 583.679 175.545 583.418 175.632C584.129 175.806 584.666 176.14 585.028 176.633C585.406 177.112 585.594 177.678 585.594 178.33C585.594 179.331 585.26 180.129 584.593 180.724C583.926 181.319 582.881 181.616 581.46 181.616H576.02V170.083ZM581.46 179.919C582.272 179.919 582.845 179.774 583.179 179.484C583.512 179.194 583.679 178.78 583.679 178.243C583.679 177.692 583.512 177.271 583.179 176.981C582.845 176.677 582.272 176.524 581.46 176.524H577.934V179.919H581.46ZM581.024 174.958C581.851 174.958 582.424 174.812 582.744 174.522C583.077 174.232 583.244 173.833 583.244 173.326C583.244 172.847 583.077 172.47 582.744 172.194C582.424 171.918 581.851 171.781 581.024 171.781H577.934V174.958H581.024ZM588.324 170.083H590.238V174.892H596.201V170.083H598.116V181.616H596.201V176.59H590.238V181.616H588.324V170.083ZM606.392 181.834C605.652 181.834 604.949 181.718 604.282 181.486C603.614 181.239 603.027 180.876 602.519 180.398C602.011 179.904 601.605 179.288 601.3 178.548C600.996 177.808 600.843 176.945 600.843 175.959V175.523C600.843 174.595 600.996 173.775 601.3 173.064C601.605 172.354 602.011 171.766 602.519 171.302C603.027 170.823 603.614 170.468 604.282 170.236C604.949 169.989 605.652 169.866 606.392 169.866C607.132 169.866 607.836 169.989 608.503 170.236C609.17 170.468 609.758 170.823 610.266 171.302C610.773 171.766 611.18 172.354 611.484 173.064C611.789 173.775 611.941 174.595 611.941 175.523V175.959C611.941 176.945 611.789 177.808 611.484 178.548C611.18 179.288 610.773 179.904 610.266 180.398C609.758 180.876 609.17 181.239 608.503 181.486C607.836 181.718 607.132 181.834 606.392 181.834ZM606.392 180.093C606.827 180.093 607.263 180.02 607.698 179.875C608.133 179.716 608.518 179.476 608.851 179.157C609.185 178.824 609.453 178.396 609.656 177.873C609.874 177.351 609.983 176.713 609.983 175.959V175.523C609.983 174.827 609.874 174.232 609.656 173.739C609.453 173.246 609.185 172.84 608.851 172.52C608.518 172.201 608.133 171.969 607.698 171.824C607.263 171.679 606.827 171.606 606.392 171.606C605.957 171.606 605.522 171.679 605.087 171.824C604.651 171.969 604.267 172.201 603.933 172.52C603.6 172.84 603.324 173.246 603.106 173.739C602.903 174.232 602.802 174.827 602.802 175.523V175.959C602.802 176.713 602.903 177.351 603.106 177.873C603.324 178.396 603.6 178.824 603.933 179.157C604.267 179.476 604.651 179.716 605.087 179.875C605.522 180.02 605.957 180.093 606.392 180.093ZM619.114 181.834C618.374 181.834 617.685 181.718 617.046 181.486C616.408 181.239 615.857 180.876 615.393 180.398C614.928 179.904 614.558 179.288 614.283 178.548C614.022 177.808 613.891 176.945 613.891 175.959V175.523C613.891 174.595 614.036 173.775 614.326 173.064C614.616 172.354 615.001 171.766 615.48 171.302C615.958 170.823 616.51 170.468 617.133 170.236C617.772 169.989 618.432 169.866 619.114 169.866C619.795 169.866 620.405 169.96 620.941 170.149C621.493 170.337 621.964 170.598 622.356 170.932C622.762 171.266 623.088 171.657 623.335 172.107C623.596 172.557 623.785 173.043 623.901 173.565H621.942C621.826 173.289 621.689 173.035 621.529 172.803C621.384 172.557 621.195 172.346 620.963 172.172C620.746 171.998 620.484 171.86 620.18 171.759C619.875 171.657 619.52 171.606 619.114 171.606C618.693 171.606 618.287 171.686 617.895 171.846C617.503 171.991 617.155 172.223 616.85 172.542C616.546 172.847 616.299 173.246 616.111 173.739C615.937 174.232 615.85 174.827 615.85 175.523V175.959C615.85 176.698 615.937 177.337 616.111 177.873C616.299 178.396 616.546 178.824 616.85 179.157C617.155 179.476 617.503 179.716 617.895 179.875C618.287 180.02 618.693 180.093 619.114 180.093C619.824 180.093 620.419 179.919 620.898 179.571C621.391 179.223 621.739 178.744 621.942 178.135H623.901C623.625 179.281 623.059 180.187 622.204 180.855C621.348 181.507 620.318 181.834 619.114 181.834ZM629.143 171.781H625.205V170.083H634.997V171.781H631.058V181.616H629.143V171.781ZM637.178 170.083H639.093V174.435H641.857C643.307 174.435 644.373 174.754 645.055 175.393C645.752 176.031 646.1 176.916 646.1 178.048C646.1 179.15 645.752 180.02 645.055 180.659C644.373 181.297 643.307 181.616 641.857 181.616H637.178V170.083ZM641.748 179.919C642.647 179.919 643.278 179.759 643.641 179.44C644.004 179.121 644.185 178.65 644.185 178.026C644.185 177.402 644.004 176.93 643.641 176.611C643.278 176.292 642.647 176.133 641.748 176.133H639.093V179.919H641.748ZM524.114 195.781H520.175V194.083H529.967V195.781H526.028V205.616H524.114V195.781ZM532.148 194.083H533.933V196.259C534.324 195.49 534.868 194.903 535.565 194.497C536.275 194.076 537.095 193.866 538.024 193.866C539.474 193.866 540.635 194.344 541.505 195.302C542.376 196.245 542.811 197.652 542.811 199.523V199.959C542.811 200.945 542.695 201.808 542.463 202.548C542.231 203.273 541.904 203.883 541.483 204.376C541.063 204.855 540.555 205.217 539.96 205.464C539.38 205.711 538.734 205.834 538.024 205.834C537.037 205.834 536.21 205.616 535.543 205.181C534.89 204.746 534.397 204.202 534.063 203.549V209.968H532.148V194.083ZM537.588 204.137C538.053 204.137 538.488 204.049 538.894 203.875C539.3 203.687 539.648 203.418 539.938 203.07C540.243 202.722 540.475 202.287 540.635 201.765C540.809 201.242 540.896 200.64 540.896 199.959V199.523C540.896 198.9 540.809 198.341 540.635 197.848C540.475 197.355 540.243 196.941 539.938 196.607C539.648 196.259 539.3 195.998 538.894 195.824C538.488 195.65 538.053 195.563 537.588 195.563C537.066 195.563 536.587 195.65 536.152 195.824C535.717 195.984 535.347 196.216 535.042 196.52C534.738 196.811 534.498 197.159 534.324 197.565C534.15 197.971 534.063 198.406 534.063 198.871V200.611C534.063 201.134 534.15 201.612 534.324 202.048C534.498 202.483 534.738 202.853 535.042 203.157C535.347 203.462 535.717 203.701 536.152 203.875C536.587 204.049 537.066 204.137 537.588 204.137ZM548.822 205.834C548.183 205.834 547.618 205.747 547.124 205.573C546.646 205.384 546.24 205.13 545.906 204.811C545.572 204.492 545.318 204.115 545.144 203.68C544.97 203.244 544.883 202.766 544.883 202.243C544.883 201.097 545.217 200.27 545.884 199.763C546.566 199.255 547.538 199.001 548.8 199.001H552.543V198.218C552.543 197.231 552.318 196.549 551.868 196.172C551.433 195.795 550.773 195.606 549.888 195.606C549.061 195.606 548.459 195.766 548.082 196.085C547.705 196.39 547.494 196.738 547.451 197.13H545.536C545.565 196.665 545.688 196.237 545.906 195.846C546.138 195.44 546.443 195.091 546.82 194.801C547.212 194.511 547.676 194.286 548.212 194.127C548.749 193.953 549.344 193.866 549.997 193.866C551.36 193.866 552.441 194.192 553.239 194.845C554.052 195.483 554.458 196.535 554.458 198V202.679C554.458 203.288 554.458 203.825 554.458 204.289C554.472 204.739 554.508 205.181 554.567 205.616H552.891C552.847 205.283 552.818 204.971 552.804 204.681C552.789 204.376 552.782 204.035 552.782 203.658C552.478 204.267 551.984 204.782 551.302 205.203C550.621 205.623 549.794 205.834 548.822 205.834ZM549.235 204.093C549.685 204.093 550.106 204.035 550.497 203.919C550.904 203.788 551.259 203.607 551.564 203.375C551.868 203.128 552.108 202.831 552.282 202.483C552.456 202.135 552.543 201.728 552.543 201.264V200.481H549.126C548.416 200.481 547.857 200.626 547.451 200.916C547.045 201.192 546.842 201.634 546.842 202.243C546.842 202.78 547.03 203.223 547.407 203.571C547.799 203.919 548.408 204.093 549.235 204.093ZM563.193 205.834C561.191 205.834 559.668 205.326 558.623 204.311C557.593 203.295 557.078 201.852 557.078 199.98V199.545C557.078 197.761 557.593 196.368 558.623 195.367C559.668 194.366 561.191 193.866 563.193 193.866V190.384H565.108V193.866C567.11 193.866 568.626 194.366 569.656 195.367C570.7 196.368 571.223 197.761 571.223 199.545V199.98C571.223 201.852 570.7 203.295 569.656 204.311C568.626 205.326 567.11 205.834 565.108 205.834V209.968H563.193V205.834ZM569.264 199.545C569.264 198.225 568.923 197.238 568.241 196.586C567.574 195.933 566.522 195.606 565.086 195.606V204.093C566.522 204.093 567.574 203.759 568.241 203.092C568.923 202.425 569.264 201.387 569.264 199.98V199.545ZM559.037 199.98C559.037 201.387 559.37 202.425 560.038 203.092C560.72 203.759 561.779 204.093 563.215 204.093V195.606C561.779 195.606 560.72 195.933 560.038 196.586C559.37 197.238 559.037 198.225 559.037 199.545V199.98ZM573.948 194.083H575.863V202.787L581.825 194.083H583.74V205.616H581.825V196.912L575.863 205.616H573.948V194.083ZM587.229 194.083H589.144V198.914H590.667L594.976 194.083H597.239L592.234 199.61L597.456 205.616H595.019L590.667 200.568H589.144V205.616H587.229V194.083ZM602.819 205.834C602.181 205.834 601.615 205.747 601.122 205.573C600.643 205.384 600.237 205.13 599.903 204.811C599.569 204.492 599.315 204.115 599.141 203.68C598.967 203.244 598.88 202.766 598.88 202.243C598.88 201.097 599.214 200.27 599.881 199.763C600.563 199.255 601.535 199.001 602.797 199.001H606.54V198.218C606.54 197.231 606.315 196.549 605.865 196.172C605.43 195.795 604.77 195.606 603.885 195.606C603.058 195.606 602.456 195.766 602.079 196.085C601.702 196.39 601.492 196.738 601.448 197.13H599.533C599.562 196.665 599.685 196.237 599.903 195.846C600.135 195.44 600.44 195.091 600.817 194.801C601.209 194.511 601.673 194.286 602.21 194.127C602.746 193.953 603.341 193.866 603.994 193.866C605.358 193.866 606.438 194.192 607.236 194.845C608.049 195.483 608.455 196.535 608.455 198V202.679C608.455 203.288 608.455 203.825 608.455 204.289C608.469 204.739 608.506 205.181 608.564 205.616H606.888C606.845 205.283 606.816 204.971 606.801 204.681C606.787 204.376 606.779 204.035 606.779 203.658C606.475 204.267 605.981 204.782 605.3 205.203C604.618 205.623 603.791 205.834 602.819 205.834ZM603.232 204.093C603.682 204.093 604.103 204.035 604.494 203.919C604.901 203.788 605.256 203.607 605.561 203.375C605.865 203.128 606.105 202.831 606.279 202.483C606.453 202.135 606.54 201.728 606.54 201.264V200.481H603.124C602.413 200.481 601.854 200.626 601.448 200.916C601.042 201.192 600.839 201.634 600.839 202.243C600.839 202.78 601.027 203.223 601.404 203.571C601.796 203.919 602.405 204.093 603.232 204.093Z" fill="black"/>
<path d="M879.809 213.168H874.521V211.384H887.142V213.168H881.855V226.616H879.809V213.168ZM887.366 215.083H889.15V217.259C889.542 216.49 890.086 215.903 890.782 215.497C891.493 215.076 892.313 214.866 893.241 214.866C894.692 214.866 895.852 215.344 896.723 216.302C897.593 217.245 898.028 218.652 898.028 220.523V220.959C898.028 221.945 897.912 222.808 897.68 223.548C897.448 224.273 897.122 224.883 896.701 225.376C896.28 225.855 895.773 226.217 895.178 226.464C894.598 226.711 893.952 226.834 893.241 226.834C892.255 226.834 891.428 226.616 890.761 226.181C890.108 225.746 889.614 225.202 889.281 224.549V230.968H887.366V215.083ZM892.806 225.137C893.27 225.137 893.705 225.049 894.112 224.875C894.518 224.687 894.866 224.418 895.156 224.07C895.461 223.722 895.693 223.287 895.852 222.765C896.027 222.242 896.114 221.64 896.114 220.959V220.523C896.114 219.9 896.027 219.341 895.852 218.848C895.693 218.355 895.461 217.941 895.156 217.607C894.866 217.259 894.518 216.998 894.112 216.824C893.705 216.65 893.27 216.563 892.806 216.563C892.284 216.563 891.805 216.65 891.37 216.824C890.935 216.984 890.565 217.216 890.26 217.52C889.955 217.811 889.716 218.159 889.542 218.565C889.368 218.971 889.281 219.406 889.281 219.871V221.611C889.281 222.134 889.368 222.612 889.542 223.048C889.716 223.483 889.955 223.853 890.26 224.157C890.565 224.462 890.935 224.701 891.37 224.875C891.805 225.049 892.284 225.137 892.806 225.137ZM904.039 226.834C903.401 226.834 902.835 226.747 902.342 226.573C901.863 226.384 901.457 226.13 901.124 225.811C900.79 225.492 900.536 225.115 900.362 224.68C900.188 224.244 900.101 223.766 900.101 223.243C900.101 222.097 900.434 221.27 901.102 220.763C901.784 220.255 902.756 220.001 904.018 220.001H907.76V219.218C907.76 218.231 907.536 217.549 907.086 217.172C906.651 216.795 905.991 216.606 905.106 216.606C904.279 216.606 903.677 216.766 903.3 217.085C902.922 217.39 902.712 217.738 902.669 218.13H900.754C900.783 217.665 900.906 217.237 901.124 216.846C901.356 216.44 901.66 216.091 902.037 215.801C902.429 215.511 902.893 215.286 903.43 215.127C903.967 214.953 904.562 214.866 905.215 214.866C906.578 214.866 907.659 215.192 908.457 215.845C909.269 216.483 909.675 217.535 909.675 219V223.679C909.675 224.288 909.675 224.825 909.675 225.289C909.69 225.739 909.726 226.181 909.784 226.616H908.109C908.065 226.283 908.036 225.971 908.022 225.681C908.007 225.376 908 225.035 908 224.658C907.695 225.267 907.202 225.782 906.52 226.203C905.838 226.623 905.011 226.834 904.039 226.834ZM904.453 225.093C904.903 225.093 905.323 225.035 905.715 224.919C906.121 224.788 906.477 224.607 906.781 224.375C907.086 224.128 907.325 223.831 907.499 223.483C907.673 223.135 907.76 222.728 907.76 222.264V221.481H904.344C903.633 221.481 903.075 221.626 902.669 221.916C902.262 222.192 902.059 222.634 902.059 223.243C902.059 223.78 902.248 224.223 902.625 224.571C903.017 224.919 903.626 225.093 904.453 225.093ZM918.411 226.834C916.409 226.834 914.885 226.326 913.841 225.311C912.811 224.295 912.296 222.852 912.296 220.98V220.545C912.296 218.761 912.811 217.368 913.841 216.367C914.885 215.366 916.409 214.866 918.411 214.866V211.384H920.326V214.866C922.327 214.866 923.843 215.366 924.873 216.367C925.918 217.368 926.44 218.761 926.44 220.545V220.98C926.44 222.852 925.918 224.295 924.873 225.311C923.843 226.326 922.327 226.834 920.326 226.834V230.968H918.411V226.834ZM924.482 220.545C924.482 219.225 924.141 218.238 923.459 217.586C922.792 216.933 921.74 216.606 920.304 216.606V225.093C921.74 225.093 922.792 224.759 923.459 224.092C924.141 223.425 924.482 222.387 924.482 220.98V220.545ZM914.254 220.98C914.254 222.387 914.588 223.425 915.255 224.092C915.937 224.759 916.996 225.093 918.432 225.093V216.606C916.996 216.606 915.937 216.933 915.255 217.586C914.588 218.238 914.254 219.225 914.254 220.545V220.98ZM929.165 215.083H931.08V223.787L937.043 215.083H938.958V226.616H937.043V217.912L931.08 226.616H929.165V215.083ZM942.447 215.083H944.362V219.914H945.885L950.193 215.083H952.457L947.452 220.61L952.674 226.616H950.237L945.885 221.568H944.362V226.616H942.447V215.083Z" fill="black"/>
<path d="M414.655 460.708H420.095C421.009 460.708 421.792 460.81 422.445 461.013C423.098 461.216 423.634 461.499 424.055 461.861C424.49 462.21 424.81 462.638 425.013 463.145C425.216 463.639 425.317 464.183 425.317 464.777C425.317 465.561 425.1 466.235 424.664 466.801C424.229 467.352 423.693 467.751 423.054 467.998C423.954 468.201 424.664 468.614 425.187 469.238C425.709 469.848 425.97 470.645 425.97 471.632C425.97 472.256 425.869 472.829 425.665 473.351C425.462 473.873 425.143 474.33 424.708 474.722C424.273 475.099 423.707 475.396 423.011 475.614C422.329 475.832 421.502 475.94 420.53 475.94H414.655V460.708ZM420.53 474.156C421.183 474.156 421.727 474.098 422.162 473.982C422.597 473.851 422.945 473.677 423.207 473.46C423.468 473.228 423.649 472.952 423.751 472.633C423.867 472.314 423.925 471.958 423.925 471.567C423.925 471.175 423.867 470.819 423.751 470.5C423.649 470.167 423.468 469.891 423.207 469.673C422.945 469.441 422.59 469.267 422.14 469.151C421.705 469.021 421.161 468.955 420.508 468.955H416.7V474.156H420.53ZM420.095 467.258C420.704 467.258 421.212 467.2 421.618 467.084C422.024 466.968 422.351 466.801 422.597 466.583C422.844 466.366 423.018 466.112 423.119 465.822C423.221 465.532 423.272 465.213 423.272 464.864C423.272 464.516 423.221 464.197 423.119 463.907C423.018 463.602 422.844 463.348 422.597 463.145C422.351 462.942 422.024 462.783 421.618 462.667C421.212 462.551 420.704 462.493 420.095 462.493H416.7V467.258H420.095ZM428.797 464.407H430.582V466.583C430.973 465.815 431.517 465.227 432.214 464.821C432.924 464.4 433.744 464.19 434.673 464.19C436.123 464.19 437.284 464.669 438.154 465.626C439.025 466.569 439.46 467.976 439.46 469.848V470.283C439.46 471.269 439.344 472.132 439.112 472.872C438.88 473.598 438.553 474.207 438.132 474.7C437.712 475.179 437.204 475.541 436.609 475.788C436.029 476.035 435.383 476.158 434.673 476.158C433.686 476.158 432.859 475.94 432.192 475.505C431.539 475.07 431.046 474.526 430.712 473.873V480.292H428.797V464.407ZM434.237 474.461C434.702 474.461 435.137 474.374 435.543 474.2C435.949 474.011 436.297 473.743 436.587 473.394C436.892 473.046 437.124 472.611 437.284 472.089C437.458 471.567 437.545 470.965 437.545 470.283V469.848C437.545 469.224 437.458 468.665 437.284 468.172C437.124 467.679 436.892 467.265 436.587 466.932C436.297 466.583 435.949 466.322 435.543 466.148C435.137 465.974 434.702 465.887 434.237 465.887C433.715 465.887 433.236 465.974 432.801 466.148C432.366 466.308 431.996 466.54 431.691 466.845C431.387 467.135 431.147 467.483 430.973 467.889C430.799 468.295 430.712 468.731 430.712 469.195V470.936C430.712 471.458 430.799 471.937 430.973 472.372C431.147 472.807 431.387 473.177 431.691 473.482C431.996 473.786 432.366 474.026 432.801 474.2C433.236 474.374 433.715 474.461 434.237 474.461ZM446.972 476.158C446.232 476.158 445.529 476.042 444.861 475.81C444.194 475.578 443.607 475.222 443.099 474.744C442.591 474.25 442.185 473.634 441.88 472.894C441.576 472.154 441.423 471.284 441.423 470.283V469.848C441.423 468.89 441.568 468.063 441.859 467.367C442.149 466.656 442.533 466.068 443.012 465.604C443.505 465.126 444.071 464.77 444.709 464.538C445.362 464.306 446.044 464.19 446.755 464.19C448.452 464.19 449.765 464.654 450.693 465.583C451.622 466.511 452.086 467.824 452.086 469.521V470.74H443.338C443.338 471.422 443.447 471.995 443.665 472.459C443.882 472.923 444.165 473.3 444.513 473.59C444.861 473.88 445.246 474.091 445.667 474.221C446.102 474.352 446.537 474.417 446.972 474.417C447.843 474.417 448.51 474.272 448.974 473.982C449.453 473.692 449.794 473.293 449.997 472.785H451.868C451.752 473.336 451.542 473.822 451.237 474.243C450.947 474.664 450.584 475.019 450.149 475.309C449.729 475.585 449.243 475.795 448.691 475.94C448.155 476.085 447.582 476.158 446.972 476.158ZM446.863 465.931C446.414 465.931 445.979 465.996 445.558 466.127C445.137 466.243 444.76 466.438 444.426 466.714C444.107 466.975 443.846 467.309 443.643 467.715C443.44 468.121 443.338 468.607 443.338 469.173H450.28C450.265 468.578 450.164 468.078 449.975 467.671C449.801 467.251 449.562 466.917 449.257 466.671C448.952 466.409 448.59 466.221 448.169 466.105C447.763 465.989 447.328 465.931 446.863 465.931ZM454.808 464.407H456.853L460.966 471.588L465.079 464.407H466.993V475.94H465.079V467.563L461.662 473.438H460.139L456.723 467.563V475.94H454.808V464.407ZM472.732 471.371C471.775 471.153 471.086 470.761 470.665 470.196C470.244 469.615 470.034 468.876 470.034 467.976C470.034 466.845 470.375 465.967 471.057 465.343C471.753 464.719 472.863 464.407 474.386 464.407H479.391V475.94H477.476V471.545H474.538L471.731 475.94H469.599L472.732 471.371ZM471.949 467.976C471.949 468.585 472.123 469.05 472.471 469.369C472.834 469.688 473.436 469.848 474.277 469.848H477.476V466.105H474.277C473.436 466.105 472.834 466.264 472.471 466.583C472.123 466.903 471.949 467.367 471.949 467.976Z" fill="black"/>
<path d="M106.155 213.168H100.867V211.384H113.488V213.168H108.2V226.616H106.155V213.168ZM113.712 215.083H115.496V217.259C115.888 216.49 116.432 215.903 117.128 215.497C117.839 215.076 118.658 214.866 119.587 214.866C121.038 214.866 122.198 215.344 123.069 216.302C123.939 217.245 124.374 218.652 124.374 220.523V220.959C124.374 221.945 124.258 222.808 124.026 223.548C123.794 224.273 123.468 224.883 123.047 225.376C122.626 225.855 122.118 226.217 121.524 226.464C120.943 226.711 120.298 226.834 119.587 226.834C118.6 226.834 117.774 226.616 117.106 226.181C116.453 225.746 115.96 225.202 115.627 224.549V230.968H113.712V215.083ZM119.152 225.137C119.616 225.137 120.051 225.049 120.457 224.875C120.864 224.687 121.212 224.418 121.502 224.07C121.806 223.722 122.039 223.287 122.198 222.765C122.372 222.242 122.459 221.64 122.459 220.959V220.523C122.459 219.9 122.372 219.341 122.198 218.848C122.039 218.355 121.806 217.941 121.502 217.607C121.212 217.259 120.864 216.998 120.457 216.824C120.051 216.65 119.616 216.563 119.152 216.563C118.629 216.563 118.151 216.65 117.716 216.824C117.28 216.984 116.91 217.216 116.606 217.52C116.301 217.811 116.062 218.159 115.888 218.565C115.714 218.971 115.627 219.406 115.627 219.871V221.611C115.627 222.134 115.714 222.612 115.888 223.048C116.062 223.483 116.301 223.853 116.606 224.157C116.91 224.462 117.28 224.701 117.716 224.875C118.151 225.049 118.629 225.137 119.152 225.137ZM130.385 226.834C129.747 226.834 129.181 226.747 128.688 226.573C128.209 226.384 127.803 226.13 127.469 225.811C127.136 225.492 126.882 225.115 126.708 224.68C126.534 224.244 126.447 223.766 126.447 223.243C126.447 222.097 126.78 221.27 127.448 220.763C128.129 220.255 129.101 220.001 130.363 220.001H134.106V219.218C134.106 218.231 133.881 217.549 133.432 217.172C132.996 216.795 132.336 216.606 131.451 216.606C130.625 216.606 130.022 216.766 129.645 217.085C129.268 217.39 129.058 217.738 129.014 218.13H127.099C127.128 217.665 127.252 217.237 127.469 216.846C127.701 216.44 128.006 216.091 128.383 215.801C128.775 215.511 129.239 215.286 129.776 215.127C130.313 214.953 130.907 214.866 131.56 214.866C132.924 214.866 134.005 215.192 134.803 215.845C135.615 216.483 136.021 217.535 136.021 219V223.679C136.021 224.288 136.021 224.825 136.021 225.289C136.036 225.739 136.072 226.181 136.13 226.616H134.454C134.411 226.283 134.382 225.971 134.367 225.681C134.353 225.376 134.346 225.035 134.346 224.658C134.041 225.267 133.548 225.782 132.866 226.203C132.184 226.623 131.357 226.834 130.385 226.834ZM130.799 225.093C131.248 225.093 131.669 225.035 132.061 224.919C132.467 224.788 132.822 224.607 133.127 224.375C133.432 224.128 133.671 223.831 133.845 223.483C134.019 223.135 134.106 222.728 134.106 222.264V221.481H130.69C129.979 221.481 129.42 221.626 129.014 221.916C128.608 222.192 128.405 222.634 128.405 223.243C128.405 223.78 128.594 224.223 128.971 224.571C129.362 224.919 129.972 225.093 130.799 225.093ZM144.756 226.834C142.754 226.834 141.231 226.326 140.187 225.311C139.157 224.295 138.642 222.852 138.642 220.98V220.545C138.642 218.761 139.157 217.368 140.187 216.367C141.231 215.366 142.754 214.866 144.756 214.866V211.384H146.671V214.866C148.673 214.866 150.189 215.366 151.219 216.367C152.264 217.368 152.786 218.761 152.786 220.545V220.98C152.786 222.852 152.264 224.295 151.219 225.311C150.189 226.326 148.673 226.834 146.671 226.834V230.968H144.756V226.834ZM150.827 220.545C150.827 219.225 150.487 218.238 149.805 217.586C149.137 216.933 148.086 216.606 146.649 216.606V225.093C148.086 225.093 149.137 224.759 149.805 224.092C150.487 223.425 150.827 222.387 150.827 220.98V220.545ZM140.6 220.98C140.6 222.387 140.934 223.425 141.601 224.092C142.283 224.759 143.342 225.093 144.778 225.093V216.606C143.342 216.606 142.283 216.933 141.601 217.586C140.934 218.238 140.6 219.225 140.6 220.545V220.98ZM155.511 215.083H157.426V223.787L163.388 215.083H165.303V226.616H163.388V217.912L157.426 226.616H155.511V215.083ZM168.793 215.083H170.707V219.914H172.231L176.539 215.083H178.802L173.797 220.61L179.02 226.616H176.583L172.231 221.568H170.707V226.616H168.793V215.083Z" fill="black"/>
<path d="M751.43 394.397C750.313 394.397 749.312 394.238 748.427 393.919C747.542 393.599 746.795 393.15 746.185 392.569C745.576 391.975 745.105 391.271 744.771 390.459C744.452 389.632 744.292 388.718 744.292 387.717V387.282C744.292 386.397 744.452 385.57 744.771 384.801C745.105 384.032 745.576 383.372 746.185 382.821C746.795 382.27 747.542 381.834 748.427 381.515C749.312 381.196 750.313 381.036 751.43 381.036V379.448H753.475V381.036C754.592 381.036 755.593 381.196 756.478 381.515C757.363 381.834 758.11 382.27 758.719 382.821C759.329 383.372 759.793 384.032 760.112 384.801C760.446 385.57 760.612 386.397 760.612 387.282V387.717C760.612 388.718 760.446 389.632 760.112 390.459C759.793 391.271 759.329 391.975 758.719 392.569C758.11 393.15 757.363 393.599 756.478 393.919C755.593 394.238 754.592 394.397 753.475 394.397V395.986H751.43V394.397ZM758.436 387.282C758.436 386.658 758.328 386.078 758.11 385.541C757.892 385.004 757.573 384.54 757.153 384.148C756.732 383.742 756.21 383.43 755.586 383.212C754.976 382.98 754.273 382.864 753.475 382.864V392.569C754.273 392.569 754.976 392.453 755.586 392.221C756.21 391.989 756.732 391.663 757.153 391.242C757.573 390.821 757.892 390.314 758.11 389.719C758.328 389.124 758.436 388.457 758.436 387.717V387.282ZM746.468 387.717C746.468 388.457 746.577 389.124 746.795 389.719C747.012 390.314 747.331 390.821 747.752 391.242C748.173 391.663 748.688 391.989 749.297 392.221C749.921 392.453 750.632 392.569 751.43 392.569V382.864C750.632 382.864 749.921 382.98 749.297 383.212C748.688 383.43 748.173 383.742 747.752 384.148C747.331 384.54 747.012 385.004 746.795 385.541C746.577 386.078 746.468 386.658 746.468 387.282V387.717ZM768.345 395.551C767.605 395.551 766.902 395.435 766.234 395.202C765.567 394.956 764.979 394.593 764.472 394.114C763.964 393.621 763.558 393.005 763.253 392.265C762.948 391.525 762.796 390.662 762.796 389.675V389.24C762.796 388.312 762.948 387.492 763.253 386.781C763.558 386.07 763.964 385.483 764.472 385.019C764.979 384.54 765.567 384.184 766.234 383.952C766.902 383.706 767.605 383.582 768.345 383.582C769.085 383.582 769.788 383.706 770.456 383.952C771.123 384.184 771.711 384.54 772.218 385.019C772.726 385.483 773.132 386.07 773.437 386.781C773.742 387.492 773.894 388.312 773.894 389.24V389.675C773.894 390.662 773.742 391.525 773.437 392.265C773.132 393.005 772.726 393.621 772.218 394.114C771.711 394.593 771.123 394.956 770.456 395.202C769.788 395.435 769.085 395.551 768.345 395.551ZM768.345 393.81C768.78 393.81 769.215 393.737 769.651 393.592C770.086 393.433 770.47 393.193 770.804 392.874C771.138 392.54 771.406 392.112 771.609 391.59C771.827 391.068 771.935 390.43 771.935 389.675V389.24C771.935 388.544 771.827 387.949 771.609 387.456C771.406 386.963 771.138 386.556 770.804 386.237C770.47 385.918 770.086 385.686 769.651 385.541C769.215 385.396 768.78 385.323 768.345 385.323C767.91 385.323 767.475 385.396 767.039 385.541C766.604 385.686 766.22 385.918 765.886 386.237C765.552 386.556 765.277 386.963 765.059 387.456C764.856 387.949 764.755 388.544 764.755 389.24V389.675C764.755 390.43 764.856 391.068 765.059 391.59C765.277 392.112 765.552 392.54 765.886 392.874C766.22 393.193 766.604 393.433 767.039 393.592C767.475 393.737 767.91 393.81 768.345 393.81ZM776.605 383.8H778.39V385.976C778.781 385.207 779.325 384.62 780.022 384.213C780.733 383.793 781.552 383.582 782.481 383.582C783.931 383.582 785.092 384.061 785.962 385.019C786.833 385.962 787.268 387.369 787.268 389.24V389.675C787.268 390.662 787.152 391.525 786.92 392.265C786.688 392.99 786.361 393.599 785.941 394.093C785.52 394.571 785.012 394.934 784.417 395.181C783.837 395.427 783.192 395.551 782.481 395.551C781.494 395.551 780.667 395.333 780 394.898C779.347 394.463 778.854 393.919 778.52 393.266V399.685H776.605V383.8ZM782.045 393.853C782.51 393.853 782.945 393.766 783.351 393.592C783.757 393.404 784.105 393.135 784.396 392.787C784.7 392.439 784.932 392.004 785.092 391.481C785.266 390.959 785.353 390.357 785.353 389.675V389.24C785.353 388.616 785.266 388.058 785.092 387.565C784.932 387.071 784.7 386.658 784.396 386.324C784.105 385.976 783.757 385.715 783.351 385.541C782.945 385.367 782.51 385.28 782.045 385.28C781.523 385.28 781.045 385.367 780.609 385.541C780.174 385.7 779.804 385.933 779.5 386.237C779.195 386.527 778.956 386.875 778.781 387.282C778.607 387.688 778.52 388.123 778.52 388.587V390.328C778.52 390.85 778.607 391.329 778.781 391.764C778.956 392.2 779.195 392.569 779.5 392.874C779.804 393.179 780.174 393.418 780.609 393.592C781.045 393.766 781.523 393.853 782.045 393.853ZM789.993 383.8H792.039L796.151 390.981L800.264 383.8H802.179V395.333H800.264V386.955L796.848 392.831H795.324L791.908 386.955V395.333H789.993V383.8ZM805.655 383.8H807.57V392.504L813.532 383.8H815.447V395.333H813.532V386.629L807.57 395.333H805.655V383.8ZM818.936 383.8H820.72V385.976C821.112 385.207 821.656 384.62 822.352 384.213C823.063 383.793 823.883 383.582 824.811 383.582C826.262 383.582 827.423 384.061 828.293 385.019C829.163 385.962 829.599 387.369 829.599 389.24V389.675C829.599 390.662 829.483 391.525 829.25 392.265C829.018 392.99 828.692 393.599 828.271 394.093C827.851 394.571 827.343 394.934 826.748 395.181C826.168 395.427 825.522 395.551 824.811 395.551C823.825 395.551 822.998 395.333 822.331 394.898C821.678 394.463 821.185 393.919 820.851 393.266V399.685H818.936V383.8ZM824.376 393.853C824.84 393.853 825.276 393.766 825.682 393.592C826.088 393.404 826.436 393.135 826.726 392.787C827.031 392.439 827.263 392.004 827.423 391.481C827.597 390.959 827.684 390.357 827.684 389.675V389.24C827.684 388.616 827.597 388.058 827.423 387.565C827.263 387.071 827.031 386.658 826.726 386.324C826.436 385.976 826.088 385.715 825.682 385.541C825.276 385.367 824.84 385.28 824.376 385.28C823.854 385.28 823.375 385.367 822.94 385.541C822.505 385.7 822.135 385.933 821.83 386.237C821.526 386.527 821.286 386.875 821.112 387.282C820.938 387.688 820.851 388.123 820.851 388.587V390.328C820.851 390.85 820.938 391.329 821.112 391.764C821.286 392.2 821.526 392.569 821.83 392.874C822.135 393.179 822.505 393.418 822.94 393.592C823.375 393.766 823.854 393.853 824.376 393.853ZM837.111 395.551C836.371 395.551 835.668 395.435 835 395.202C834.333 394.956 833.745 394.593 833.238 394.114C832.73 393.621 832.324 393.005 832.019 392.265C831.715 391.525 831.562 390.662 831.562 389.675V389.24C831.562 388.312 831.715 387.492 832.019 386.781C832.324 386.07 832.73 385.483 833.238 385.019C833.745 384.54 834.333 384.184 835 383.952C835.668 383.706 836.371 383.582 837.111 383.582C837.851 383.582 838.555 383.706 839.222 383.952C839.889 384.184 840.477 384.54 840.984 385.019C841.492 385.483 841.898 386.07 842.203 386.781C842.508 387.492 842.66 388.312 842.66 389.24V389.675C842.66 390.662 842.508 391.525 842.203 392.265C841.898 393.005 841.492 393.621 840.984 394.114C840.477 394.593 839.889 394.956 839.222 395.202C838.555 395.435 837.851 395.551 837.111 395.551ZM837.111 393.81C837.546 393.81 837.981 393.737 838.417 393.592C838.852 393.433 839.236 393.193 839.57 392.874C839.904 392.54 840.172 392.112 840.375 391.59C840.593 391.068 840.702 390.43 840.702 389.675V389.24C840.702 388.544 840.593 387.949 840.375 387.456C840.172 386.963 839.904 386.556 839.57 386.237C839.236 385.918 838.852 385.686 838.417 385.541C837.981 385.396 837.546 385.323 837.111 385.323C836.676 385.323 836.241 385.396 835.805 385.541C835.37 385.686 834.986 385.918 834.652 386.237C834.319 386.556 834.043 386.963 833.825 387.456C833.622 387.949 833.521 388.544 833.521 389.24V389.675C833.521 390.43 833.622 391.068 833.825 391.59C834.043 392.112 834.319 392.54 834.652 392.874C834.986 393.193 835.37 393.433 835.805 393.592C836.241 393.737 836.676 393.81 837.111 393.81ZM845.372 383.8H850.376C851.798 383.8 852.843 384.097 853.51 384.692C854.177 385.272 854.511 386.027 854.511 386.955C854.511 387.202 854.467 387.456 854.38 387.717C854.293 387.964 854.17 388.196 854.01 388.413C853.865 388.631 853.684 388.819 853.466 388.979C853.263 389.139 853.031 389.262 852.77 389.349C853.481 389.523 854.018 389.857 854.38 390.35C854.757 390.829 854.946 391.394 854.946 392.047C854.946 393.048 854.612 393.846 853.945 394.441C853.278 395.036 852.233 395.333 850.812 395.333H845.372V383.8ZM850.812 393.636C851.624 393.636 852.197 393.491 852.531 393.2C852.864 392.91 853.031 392.497 853.031 391.96C853.031 391.409 852.864 390.988 852.531 390.698C852.197 390.393 851.624 390.241 850.812 390.241H847.286V393.636H850.812ZM850.376 388.674C851.203 388.674 851.776 388.529 852.095 388.239C852.429 387.949 852.596 387.55 852.596 387.042C852.596 386.564 852.429 386.186 852.095 385.911C851.776 385.635 851.203 385.497 850.376 385.497H847.286V388.674H850.376ZM860.961 395.551C860.323 395.551 859.757 395.464 859.264 395.289C858.785 395.101 858.379 394.847 858.045 394.528C857.712 394.209 857.458 393.832 857.284 393.396C857.11 392.961 857.023 392.482 857.023 391.96C857.023 390.814 857.356 389.987 858.024 389.479C858.705 388.972 859.677 388.718 860.94 388.718H864.682V387.934C864.682 386.948 864.457 386.266 864.008 385.889C863.573 385.512 862.912 385.323 862.028 385.323C861.201 385.323 860.599 385.483 860.221 385.802C859.844 386.107 859.634 386.455 859.59 386.846H857.675C857.704 386.382 857.828 385.954 858.045 385.563C858.277 385.156 858.582 384.808 858.959 384.518C859.351 384.228 859.815 384.003 860.352 383.844C860.889 383.669 861.484 383.582 862.136 383.582C863.5 383.582 864.581 383.909 865.379 384.562C866.191 385.2 866.597 386.252 866.597 387.717V392.395C866.597 393.005 866.597 393.541 866.597 394.006C866.612 394.455 866.648 394.898 866.706 395.333H865.03C864.987 394.999 864.958 394.687 864.943 394.397C864.929 394.093 864.922 393.752 864.922 393.375C864.617 393.984 864.124 394.499 863.442 394.92C862.76 395.34 861.933 395.551 860.961 395.551ZM861.375 393.81C861.824 393.81 862.245 393.752 862.637 393.636C863.043 393.505 863.398 393.324 863.703 393.092C864.008 392.845 864.247 392.548 864.421 392.2C864.595 391.851 864.682 391.445 864.682 390.981V390.198H861.266C860.555 390.198 859.997 390.343 859.59 390.633C859.184 390.908 858.981 391.351 858.981 391.96C858.981 392.497 859.17 392.939 859.547 393.288C859.939 393.636 860.548 393.81 861.375 393.81ZM869.979 383.8H871.894V388.609H877.857V383.8H879.772V395.333H877.857V390.306H871.894V395.333H869.979V383.8ZM883.261 383.8H885.176V392.504L891.138 383.8H893.053V395.333H891.138V386.629L885.176 395.333H883.261V383.8ZM901.33 395.551C900.59 395.551 899.886 395.435 899.219 395.202C898.552 394.97 897.964 394.615 897.456 394.136C896.949 393.643 896.542 393.026 896.238 392.287C895.933 391.547 895.781 390.676 895.781 389.675V389.24C895.781 388.283 895.926 387.456 896.216 386.759C896.506 386.049 896.891 385.461 897.369 384.997C897.862 384.518 898.428 384.163 899.067 383.931C899.719 383.698 900.401 383.582 901.112 383.582C902.809 383.582 904.122 384.047 905.051 384.975C905.979 385.904 906.443 387.216 906.443 388.914V390.132H897.696C897.696 390.814 897.804 391.387 898.022 391.851C898.24 392.316 898.523 392.693 898.871 392.983C899.219 393.273 899.603 393.483 900.024 393.614C900.459 393.745 900.894 393.81 901.33 393.81C902.2 393.81 902.867 393.665 903.332 393.375C903.81 393.084 904.151 392.685 904.354 392.178H906.226C906.11 392.729 905.899 393.215 905.595 393.636C905.305 394.056 904.942 394.412 904.507 394.702C904.086 394.978 903.6 395.188 903.049 395.333C902.512 395.478 901.939 395.551 901.33 395.551ZM901.221 385.323C900.771 385.323 900.336 385.389 899.915 385.519C899.494 385.635 899.117 385.831 898.784 386.107C898.465 386.368 898.203 386.701 898 387.108C897.797 387.514 897.696 388 897.696 388.566H904.637C904.623 387.971 904.521 387.47 904.333 387.064C904.158 386.643 903.919 386.31 903.614 386.063C903.31 385.802 902.947 385.613 902.526 385.497C902.12 385.381 901.685 385.323 901.221 385.323ZM777.344 413.675C777.344 412.254 777.539 410.963 777.931 409.802C778.337 408.641 778.787 407.633 779.28 406.777C779.846 405.791 780.492 404.899 781.217 404.101H783.437C782.653 404.899 781.964 405.791 781.369 406.777C781.108 407.198 780.854 407.662 780.608 408.17C780.361 408.678 780.136 409.222 779.933 409.802C779.745 410.382 779.592 410.999 779.476 411.652C779.36 412.29 779.302 412.964 779.302 413.675V414.111C779.302 414.821 779.36 415.503 779.476 416.156C779.592 416.809 779.745 417.425 779.933 418.006C780.136 418.586 780.361 419.13 780.608 419.638C780.854 420.145 781.108 420.61 781.369 421.03C781.964 422.031 782.653 422.916 783.437 423.685H781.13C780.419 422.916 779.788 422.031 779.237 421.03C778.758 420.189 778.323 419.181 777.931 418.006C777.539 416.831 777.344 415.532 777.344 414.111V413.675ZM789.418 419.551C788.649 419.551 787.982 419.464 787.416 419.289C786.865 419.101 786.393 418.854 786.002 418.55C785.61 418.245 785.305 417.89 785.088 417.483C784.87 417.077 784.718 416.642 784.631 416.178H786.546C786.647 416.642 786.916 417.048 787.351 417.396C787.801 417.73 788.49 417.897 789.418 417.897C789.955 417.897 790.405 417.853 790.767 417.766C791.13 417.665 791.42 417.541 791.638 417.396C791.87 417.237 792.037 417.055 792.138 416.852C792.24 416.635 792.29 416.41 792.29 416.178C792.29 415.931 792.24 415.714 792.138 415.525C792.051 415.336 791.884 415.17 791.638 415.024C791.406 414.865 791.079 414.727 790.658 414.611C790.252 414.48 789.737 414.372 789.113 414.285C788.475 414.198 787.895 414.074 787.373 413.915C786.865 413.741 786.43 413.516 786.067 413.24C785.719 412.964 785.443 412.638 785.24 412.261C785.052 411.869 784.957 411.398 784.957 410.846C784.957 410.411 785.052 409.998 785.24 409.606C785.429 409.214 785.712 408.866 786.089 408.562C786.466 408.257 786.93 408.018 787.481 407.844C788.033 407.669 788.678 407.582 789.418 407.582C790.1 407.582 790.695 407.677 791.202 407.865C791.71 408.039 792.138 408.279 792.486 408.583C792.849 408.888 793.132 409.243 793.335 409.65C793.538 410.056 793.683 410.491 793.77 410.955H791.855C791.739 410.448 791.493 410.034 791.115 409.715C790.738 409.396 790.172 409.236 789.418 409.236C788.475 409.236 787.815 409.396 787.438 409.715C787.061 410.02 786.872 410.397 786.872 410.846C786.872 411.108 786.916 411.332 787.003 411.521C787.104 411.71 787.264 411.876 787.481 412.022C787.714 412.167 788.011 412.29 788.374 412.391C788.751 412.478 789.215 412.558 789.766 412.631C790.477 412.718 791.108 412.848 791.659 413.023C792.211 413.182 792.675 413.407 793.052 413.697C793.429 413.973 793.712 414.314 793.901 414.72C794.104 415.126 794.205 415.612 794.205 416.178C794.205 416.642 794.104 417.077 793.901 417.483C793.712 417.89 793.422 418.245 793.03 418.55C792.639 418.854 792.138 419.101 791.529 419.289C790.934 419.464 790.23 419.551 789.418 419.551ZM796.931 404.101H798.846V409.867C798.991 409.563 799.18 409.272 799.412 408.997C799.644 408.721 799.92 408.482 800.239 408.279C800.558 408.061 800.921 407.894 801.327 407.778C801.733 407.648 802.176 407.582 802.654 407.582C804.105 407.582 805.179 407.974 805.875 408.757C806.586 409.526 806.941 410.658 806.941 412.152V419.333H805.026V412.587C805.026 411.514 804.801 410.701 804.352 410.15C803.902 409.599 803.148 409.323 802.089 409.323C801.523 409.323 801.03 409.418 800.609 409.606C800.203 409.795 799.869 410.041 799.608 410.346C799.347 410.651 799.151 410.999 799.02 411.39C798.904 411.782 798.846 412.181 798.846 412.587V419.333H796.931V404.101ZM813.605 419.551C812.967 419.551 812.401 419.464 811.908 419.289C811.429 419.101 811.023 418.847 810.689 418.528C810.355 418.209 810.101 417.832 809.927 417.396C809.753 416.961 809.666 416.482 809.666 415.96C809.666 414.814 810 413.987 810.667 413.479C811.349 412.972 812.321 412.718 813.583 412.718H817.326V411.934C817.326 410.948 817.101 410.266 816.651 409.889C816.216 409.512 815.556 409.323 814.671 409.323C813.844 409.323 813.242 409.483 812.865 409.802C812.488 410.107 812.278 410.455 812.234 410.846H810.319C810.348 410.382 810.471 409.954 810.689 409.563C810.921 409.156 811.226 408.808 811.603 408.518C811.995 408.228 812.459 408.003 812.996 407.844C813.532 407.669 814.127 407.582 814.78 407.582C816.144 407.582 817.224 407.909 818.022 408.562C818.835 409.2 819.241 410.252 819.241 411.717V416.395C819.241 417.005 819.241 417.541 819.241 418.006C819.255 418.455 819.292 418.898 819.35 419.333H817.674C817.631 418.999 817.602 418.687 817.587 418.397C817.573 418.093 817.565 417.752 817.565 417.375C817.261 417.984 816.767 418.499 816.086 418.92C815.404 419.34 814.577 419.551 813.605 419.551ZM814.018 417.81C814.468 417.81 814.889 417.752 815.28 417.636C815.687 417.505 816.042 417.324 816.347 417.092C816.651 416.845 816.891 416.548 817.065 416.2C817.239 415.851 817.326 415.445 817.326 414.981V414.198H813.91C813.199 414.198 812.64 414.343 812.234 414.633C811.828 414.908 811.625 415.351 811.625 415.96C811.625 416.497 811.813 416.939 812.19 417.288C812.582 417.636 813.191 417.81 814.018 417.81ZM822.623 407.8H824.407V409.976C824.799 409.207 825.343 408.62 826.039 408.213C826.75 407.793 827.57 407.582 828.498 407.582C829.949 407.582 831.11 408.061 831.98 409.019C832.85 409.962 833.286 411.369 833.286 413.24V413.675C833.286 414.662 833.17 415.525 832.937 416.265C832.705 416.99 832.379 417.599 831.958 418.093C831.538 418.571 831.03 418.934 830.435 419.181C829.855 419.427 829.209 419.551 828.498 419.551C827.512 419.551 826.685 419.333 826.018 418.898C825.365 418.463 824.872 417.919 824.538 417.266V423.685H822.623V407.8ZM828.063 417.853C828.527 417.853 828.963 417.766 829.369 417.592C829.775 417.404 830.123 417.135 830.413 416.787C830.718 416.439 830.95 416.004 831.11 415.481C831.284 414.959 831.371 414.357 831.371 413.675V413.24C831.371 412.616 831.284 412.058 831.11 411.565C830.95 411.071 830.718 410.658 830.413 410.324C830.123 409.976 829.775 409.715 829.369 409.541C828.963 409.367 828.527 409.28 828.063 409.28C827.541 409.28 827.062 409.367 826.627 409.541C826.192 409.7 825.822 409.933 825.517 410.237C825.213 410.527 824.973 410.875 824.799 411.282C824.625 411.688 824.538 412.123 824.538 412.587V414.328C824.538 414.85 824.625 415.329 824.799 415.764C824.973 416.2 825.213 416.569 825.517 416.874C825.822 417.179 826.192 417.418 826.627 417.592C827.062 417.766 827.541 417.853 828.063 417.853ZM836.228 407.8H838.143V419.333H836.228V407.8ZM837.186 406.277C836.809 406.277 836.497 406.153 836.25 405.907C836.003 405.66 835.88 405.348 835.88 404.971C835.88 404.594 836.003 404.282 836.25 404.035C836.497 403.789 836.809 403.666 837.186 403.666C837.563 403.666 837.875 403.789 838.121 404.035C838.368 404.282 838.491 404.594 838.491 404.971C838.491 405.348 838.368 405.66 838.121 405.907C837.875 406.153 837.563 406.277 837.186 406.277ZM841.833 407.8H843.618V409.976C843.748 409.657 843.93 409.352 844.162 409.062C844.394 408.772 844.669 408.518 844.989 408.301C845.322 408.083 845.699 407.909 846.12 407.778C846.555 407.648 847.034 407.582 847.556 407.582C849.007 407.582 850.081 407.974 850.777 408.757C851.488 409.526 851.843 410.658 851.843 412.152V419.333H849.928V412.587C849.928 411.514 849.703 410.701 849.254 410.15C848.804 409.599 848.05 409.323 846.991 409.323C846.425 409.323 845.932 409.418 845.511 409.606C845.105 409.795 844.771 410.041 844.51 410.346C844.249 410.651 844.053 410.999 843.922 411.39C843.806 411.782 843.748 412.181 843.748 412.587V419.333H841.833V407.8ZM859.791 423.903C858.949 423.903 858.231 423.816 857.636 423.642C857.042 423.482 856.548 423.257 856.157 422.967C855.78 422.677 855.489 422.329 855.286 421.922C855.083 421.531 854.953 421.103 854.895 420.639H856.897C856.969 420.871 857.071 421.081 857.201 421.27C857.332 421.458 857.506 421.618 857.723 421.748C857.941 421.879 858.217 421.981 858.55 422.053C858.899 422.126 859.312 422.162 859.791 422.162C860.966 422.162 861.829 421.879 862.38 421.313C862.931 420.747 863.207 419.942 863.207 418.898V417.048C862.873 417.817 862.358 418.39 861.662 418.767C860.98 419.144 860.175 419.333 859.247 419.333C858.536 419.333 857.883 419.21 857.288 418.963C856.708 418.716 856.208 418.354 855.787 417.875C855.366 417.396 855.04 416.802 854.808 416.091C854.575 415.365 854.459 414.524 854.459 413.567V413.131C854.459 412.246 854.575 411.463 854.808 410.781C855.054 410.085 855.388 409.505 855.809 409.04C856.229 408.562 856.73 408.199 857.31 407.952C857.905 407.706 858.55 407.582 859.247 407.582C860.233 407.582 861.089 407.807 861.814 408.257C862.54 408.692 863.048 409.265 863.338 409.976V407.8H865.122V418.898C865.122 420.465 864.665 421.69 863.751 422.575C862.837 423.46 861.517 423.903 859.791 423.903ZM859.682 417.636C860.204 417.636 860.683 417.556 861.118 417.396C861.553 417.222 861.923 416.983 862.228 416.678C862.533 416.374 862.772 416.011 862.946 415.59C863.12 415.17 863.207 414.713 863.207 414.219V412.478C863.207 412.043 863.12 411.63 862.946 411.238C862.772 410.846 862.533 410.506 862.228 410.215C861.923 409.925 861.553 409.7 861.118 409.541C860.683 409.367 860.204 409.28 859.682 409.28C859.218 409.28 858.782 409.367 858.376 409.541C857.97 409.715 857.615 409.969 857.31 410.302C857.02 410.636 856.788 411.042 856.614 411.521C856.454 411.985 856.374 412.522 856.374 413.131V413.567C856.374 414.219 856.454 414.8 856.614 415.307C856.788 415.815 857.02 416.243 857.31 416.591C857.615 416.939 857.97 417.2 858.376 417.375C858.782 417.549 859.218 417.636 859.682 417.636ZM873.178 414.111C873.178 415.532 872.975 416.823 872.569 417.984C872.177 419.144 871.735 420.153 871.242 421.009C870.676 421.995 870.03 422.887 869.305 423.685H867.086C867.869 422.887 868.558 421.995 869.153 421.009C869.414 420.588 869.668 420.124 869.914 419.616C870.161 419.108 870.379 418.564 870.567 417.984C870.77 417.404 870.93 416.794 871.046 416.156C871.162 415.503 871.22 414.821 871.22 414.111V413.675C871.22 412.964 871.162 412.283 871.046 411.63C870.93 410.977 870.77 410.36 870.567 409.78C870.379 409.2 870.161 408.656 869.914 408.148C869.668 407.64 869.414 407.176 869.153 406.756C868.558 405.755 867.869 404.87 867.086 404.101H869.392C870.103 404.87 870.734 405.755 871.285 406.756C871.764 407.597 872.199 408.605 872.591 409.78C872.983 410.955 873.178 412.254 873.178 413.675V414.111Z" fill="black"/>
<path d="M1183.34 460.708H1188.78C1189.69 460.708 1190.48 460.81 1191.13 461.013C1191.78 461.216 1192.32 461.499 1192.74 461.861C1193.18 462.21 1193.5 462.638 1193.7 463.145C1193.9 463.639 1194 464.183 1194 464.777C1194 465.561 1193.79 466.235 1193.35 466.801C1192.91 467.352 1192.38 467.751 1191.74 467.998C1192.64 468.201 1193.35 468.614 1193.87 469.238C1194.39 469.848 1194.66 470.645 1194.66 471.632C1194.66 472.256 1194.55 472.829 1194.35 473.351C1194.15 473.873 1193.83 474.33 1193.39 474.722C1192.96 475.099 1192.39 475.396 1191.7 475.614C1191.01 475.832 1190.19 475.94 1189.22 475.94H1183.34V460.708ZM1189.22 474.156C1189.87 474.156 1190.41 474.098 1190.85 473.982C1191.28 473.851 1191.63 473.677 1191.89 473.46C1192.15 473.228 1192.33 472.952 1192.44 472.633C1192.55 472.314 1192.61 471.958 1192.61 471.567C1192.61 471.175 1192.55 470.819 1192.44 470.5C1192.33 470.167 1192.15 469.891 1191.89 469.673C1191.63 469.441 1191.28 469.267 1190.83 469.151C1190.39 469.021 1189.85 468.955 1189.19 468.955H1185.39V474.156H1189.22ZM1188.78 467.258C1189.39 467.258 1189.9 467.2 1190.3 467.084C1190.71 466.968 1191.04 466.801 1191.28 466.583C1191.53 466.366 1191.7 466.112 1191.81 465.822C1191.91 465.532 1191.96 465.213 1191.96 464.864C1191.96 464.516 1191.91 464.197 1191.81 463.907C1191.7 463.602 1191.53 463.348 1191.28 463.145C1191.04 462.942 1190.71 462.783 1190.3 462.667C1189.9 462.551 1189.39 462.493 1188.78 462.493H1185.39V467.258H1188.78ZM1197.48 464.407H1199.27V466.583C1199.66 465.815 1200.2 465.227 1200.9 464.821C1201.61 464.4 1202.43 464.19 1203.36 464.19C1204.81 464.19 1205.97 464.669 1206.84 465.626C1207.71 466.569 1208.15 467.976 1208.15 469.848V470.283C1208.15 471.269 1208.03 472.132 1207.8 472.872C1207.57 473.598 1207.24 474.207 1206.82 474.7C1206.4 475.179 1205.89 475.541 1205.29 475.788C1204.71 476.035 1204.07 476.158 1203.36 476.158C1202.37 476.158 1201.54 475.94 1200.88 475.505C1200.22 475.07 1199.73 474.526 1199.4 473.873V480.292H1197.48V464.407ZM1202.92 474.461C1203.39 474.461 1203.82 474.374 1204.23 474.2C1204.63 474.011 1204.98 473.743 1205.27 473.394C1205.58 473.046 1205.81 472.611 1205.97 472.089C1206.14 471.567 1206.23 470.965 1206.23 470.283V469.848C1206.23 469.224 1206.14 468.665 1205.97 468.172C1205.81 467.679 1205.58 467.265 1205.27 466.932C1204.98 466.583 1204.63 466.322 1204.23 466.148C1203.82 465.974 1203.39 465.887 1202.92 465.887C1202.4 465.887 1201.92 465.974 1201.49 466.148C1201.05 466.308 1200.68 466.54 1200.38 466.845C1200.07 467.135 1199.83 467.483 1199.66 467.889C1199.48 468.295 1199.4 468.731 1199.4 469.195V470.936C1199.4 471.458 1199.48 471.937 1199.66 472.372C1199.83 472.807 1200.07 473.177 1200.38 473.482C1200.68 473.786 1201.05 474.026 1201.49 474.2C1201.92 474.374 1202.4 474.461 1202.92 474.461ZM1215.66 476.158C1214.92 476.158 1214.21 476.042 1213.55 475.81C1212.88 475.578 1212.29 475.222 1211.78 474.744C1211.28 474.25 1210.87 473.634 1210.57 472.894C1210.26 472.154 1210.11 471.284 1210.11 470.283V469.848C1210.11 468.89 1210.25 468.063 1210.54 467.367C1210.83 466.656 1211.22 466.068 1211.7 465.604C1212.19 465.126 1212.76 464.77 1213.39 464.538C1214.05 464.306 1214.73 464.19 1215.44 464.19C1217.14 464.19 1218.45 464.654 1219.38 465.583C1220.31 466.511 1220.77 467.824 1220.77 469.521V470.74H1212.02C1212.02 471.422 1212.13 471.995 1212.35 472.459C1212.57 472.923 1212.85 473.3 1213.2 473.59C1213.55 473.88 1213.93 474.091 1214.35 474.221C1214.79 474.352 1215.22 474.417 1215.66 474.417C1216.53 474.417 1217.2 474.272 1217.66 473.982C1218.14 473.692 1218.48 473.293 1218.68 472.785H1220.55C1220.44 473.336 1220.23 473.822 1219.92 474.243C1219.63 474.664 1219.27 475.019 1218.83 475.309C1218.41 475.585 1217.93 475.795 1217.38 475.94C1216.84 476.085 1216.27 476.158 1215.66 476.158ZM1215.55 465.931C1215.1 465.931 1214.66 465.996 1214.24 466.127C1213.82 466.243 1213.45 466.438 1213.11 466.714C1212.79 466.975 1212.53 467.309 1212.33 467.715C1212.13 468.121 1212.02 468.607 1212.02 469.173H1218.97C1218.95 468.578 1218.85 468.078 1218.66 467.671C1218.49 467.251 1218.25 466.917 1217.94 466.671C1217.64 466.409 1217.28 466.221 1216.85 466.105C1216.45 465.989 1216.01 465.931 1215.55 465.931ZM1223.49 464.407H1225.54L1229.65 471.588L1233.76 464.407H1235.68V475.94H1233.76V467.563L1230.35 473.438H1228.82L1225.41 467.563V475.94H1223.49V464.407ZM1241.42 471.371C1240.46 471.153 1239.77 470.761 1239.35 470.196C1238.93 469.615 1238.72 468.876 1238.72 467.976C1238.72 466.845 1239.06 465.967 1239.74 465.343C1240.44 464.719 1241.55 464.407 1243.07 464.407H1248.08V475.94H1246.16V471.545H1243.22L1240.42 475.94H1238.28L1241.42 471.371ZM1240.63 467.976C1240.63 468.585 1240.81 469.05 1241.16 469.369C1241.52 469.688 1242.12 469.848 1242.96 469.848H1246.16V466.105H1242.96C1242.12 466.105 1241.52 466.264 1241.16 466.583C1240.81 466.903 1240.63 467.367 1240.63 467.976Z" fill="black"/>
<path d="M902.26 358.597H738.26V348.597H902.26V358.597Z" fill="#FFBD6E"/>
<path d="M902.26 342.05L922.26 353.597L902.26 365.144V342.05Z" fill="#FFBD6E"/>
</svg>
