<svg width="940" height="654" viewBox="0 0 940 654" fill="none" xmlns="http://www.w3.org/2000/svg">
<path d="M468.453 284.442L468.453 218.442L478.453 218.442L478.453 284.442L468.453 284.442Z" fill="#FFBD6E"/>
<path d="M485 284.442L473.453 304.442L461.906 284.442L485 284.442Z" fill="#FFBD6E"/>
<path d="M468.453 427.72L468.453 361.72L478.453 361.72L478.453 427.72L468.453 427.72Z" fill="#FFBD6E"/>
<path d="M485 427.72L473.453 447.72L461.906 427.72L485 427.72Z" fill="#FFBD6E"/>
<rect x="265.953" y="309.72" width="415" height="64" fill="#DAEBFB"/>
<path d="M287.629 334.987H297.53V336.75H289.675V341.08H293.069C294.07 341.08 294.941 341.189 295.68 341.407C296.42 341.624 297.03 341.936 297.508 342.342C298.002 342.749 298.364 343.235 298.596 343.8C298.828 344.352 298.945 344.968 298.945 345.65C298.945 346.332 298.828 346.956 298.596 347.521C298.364 348.073 298.002 348.551 297.508 348.958C297.03 349.364 296.42 349.676 295.68 349.893C294.941 350.111 294.07 350.22 293.069 350.22H287.629V334.987ZM292.96 348.435C294.411 348.435 295.427 348.196 296.007 347.717C296.602 347.224 296.899 346.535 296.899 345.65C296.899 344.765 296.602 344.083 296.007 343.605C295.427 343.111 294.411 342.865 292.96 342.865H289.675V348.435H292.96ZM302.53 354.789C302.312 354.789 302.095 354.768 301.877 354.724V352.983C302.095 353.027 302.312 353.049 302.53 353.049C302.748 353.049 302.936 353.012 303.096 352.94C303.255 352.867 303.408 352.729 303.553 352.526C303.698 352.323 303.85 352.033 304.01 351.656C304.184 351.293 304.38 350.815 304.597 350.22L299.701 338.687H301.834L305.576 348.044L308.971 338.687H311.016L306.664 350.22C306.36 351.032 306.07 351.728 305.794 352.309C305.518 352.889 305.221 353.36 304.902 353.723C304.597 354.1 304.256 354.369 303.879 354.528C303.502 354.702 303.052 354.789 302.53 354.789ZM318.111 350.437C316.109 350.437 314.586 349.93 313.541 348.914C312.511 347.899 311.997 346.455 311.997 344.584V344.149C311.997 342.364 312.511 340.972 313.541 339.971C314.586 338.97 316.109 338.469 318.111 338.469V334.987H320.026V338.469C322.028 338.469 323.544 338.97 324.574 339.971C325.618 340.972 326.141 342.364 326.141 344.149V344.584C326.141 346.455 325.618 347.899 324.574 348.914C323.544 349.93 322.028 350.437 320.026 350.437V354.572H318.111V350.437ZM324.182 344.149C324.182 342.828 323.841 341.842 323.16 341.189C322.492 340.536 321.44 340.21 320.004 340.21V348.697C321.44 348.697 322.492 348.363 323.16 347.696C323.841 347.028 324.182 345.991 324.182 344.584V344.149ZM313.955 344.584C313.955 345.991 314.289 347.028 314.956 347.696C315.638 348.363 316.697 348.697 318.133 348.697V340.21C316.697 340.21 315.638 340.536 314.956 341.189C314.289 341.842 313.955 342.828 313.955 344.149V344.584ZM333.653 350.437C332.913 350.437 332.21 350.321 331.542 350.089C330.875 349.857 330.288 349.502 329.78 349.023C329.272 348.53 328.866 347.913 328.561 347.173C328.257 346.433 328.104 345.563 328.104 344.562V344.127C328.104 343.169 328.249 342.342 328.539 341.646C328.83 340.935 329.214 340.348 329.693 339.884C330.186 339.405 330.752 339.049 331.39 338.817C332.043 338.585 332.725 338.469 333.436 338.469C335.133 338.469 336.446 338.933 337.374 339.862C338.303 340.79 338.767 342.103 338.767 343.8V345.019H330.019C330.019 345.701 330.128 346.274 330.346 346.738C330.563 347.202 330.846 347.579 331.194 347.87C331.542 348.16 331.927 348.37 332.348 348.501C332.783 348.631 333.218 348.697 333.653 348.697C334.524 348.697 335.191 348.551 335.655 348.261C336.134 347.971 336.475 347.572 336.678 347.064H338.549C338.433 347.616 338.223 348.102 337.918 348.522C337.628 348.943 337.265 349.299 336.83 349.589C336.409 349.864 335.923 350.075 335.372 350.22C334.835 350.365 334.262 350.437 333.653 350.437ZM333.544 340.21C333.095 340.21 332.659 340.275 332.239 340.406C331.818 340.522 331.441 340.718 331.107 340.993C330.788 341.254 330.527 341.588 330.324 341.994C330.121 342.401 330.019 342.886 330.019 343.452H336.961C336.946 342.857 336.845 342.357 336.656 341.951C336.482 341.53 336.243 341.196 335.938 340.95C335.633 340.689 335.271 340.5 334.85 340.384C334.444 340.268 334.009 340.21 333.544 340.21ZM341.489 338.687H343.273V340.863C343.665 340.094 344.209 339.506 344.905 339.1C345.616 338.679 346.435 338.469 347.364 338.469C348.815 338.469 349.975 338.948 350.846 339.905C351.716 340.848 352.151 342.255 352.151 344.127V344.562C352.151 345.549 352.035 346.412 351.803 347.152C351.571 347.877 351.244 348.486 350.824 348.979C350.403 349.458 349.895 349.821 349.301 350.067C348.72 350.314 348.075 350.437 347.364 350.437C346.377 350.437 345.551 350.22 344.883 349.785C344.23 349.349 343.737 348.805 343.403 348.152V354.572H341.489V338.687ZM346.929 348.74C347.393 348.74 347.828 348.653 348.234 348.479C348.64 348.29 348.989 348.022 349.279 347.674C349.583 347.326 349.816 346.89 349.975 346.368C350.149 345.846 350.236 345.244 350.236 344.562V344.127C350.236 343.503 350.149 342.945 349.975 342.451C349.816 341.958 349.583 341.545 349.279 341.211C348.989 340.863 348.64 340.602 348.234 340.428C347.828 340.253 347.393 340.166 346.929 340.166C346.406 340.166 345.928 340.253 345.492 340.428C345.057 340.587 344.687 340.819 344.383 341.124C344.078 341.414 343.839 341.762 343.665 342.168C343.491 342.575 343.403 343.01 343.403 343.474V345.215C343.403 345.737 343.491 346.216 343.665 346.651C343.839 347.086 344.078 347.456 344.383 347.761C344.687 348.065 345.057 348.305 345.492 348.479C345.928 348.653 346.406 348.74 346.929 348.74ZM364.233 350.437C362.783 350.437 361.644 350.133 360.817 349.523C359.99 348.914 359.533 348.058 359.446 346.956H361.361C361.462 347.521 361.76 347.957 362.253 348.261C362.761 348.551 363.421 348.697 364.233 348.697C365.234 348.697 365.96 348.53 366.409 348.196C366.873 347.848 367.106 347.434 367.106 346.956C367.106 346.39 366.917 345.947 366.54 345.628C366.163 345.295 365.51 345.128 364.581 345.128H362.601V343.561H364.451C365.249 343.561 365.814 343.409 366.148 343.104C366.496 342.799 366.67 342.371 366.67 341.82C366.67 341.385 366.467 341.008 366.061 340.689C365.655 340.37 365.046 340.21 364.233 340.21C363.348 340.21 362.703 340.355 362.297 340.645C361.905 340.921 361.666 341.32 361.578 341.842H359.664C359.707 341.363 359.838 340.921 360.055 340.515C360.287 340.094 360.599 339.731 360.991 339.427C361.383 339.122 361.847 338.89 362.384 338.73C362.935 338.556 363.551 338.469 364.233 338.469C364.973 338.469 365.611 338.556 366.148 338.73C366.699 338.89 367.156 339.122 367.519 339.427C367.882 339.717 368.15 340.065 368.324 340.471C368.498 340.877 368.585 341.327 368.585 341.82C368.585 342.371 368.447 342.857 368.172 343.278C367.896 343.684 367.454 344.004 366.844 344.236C367.657 344.453 368.223 344.801 368.542 345.28C368.861 345.759 369.021 346.317 369.021 346.956C369.021 347.434 368.919 347.884 368.716 348.305C368.513 348.726 368.208 349.095 367.802 349.415C367.41 349.719 366.91 349.966 366.3 350.154C365.706 350.343 365.017 350.437 364.233 350.437ZM375.035 350.437C374.397 350.437 373.831 350.35 373.338 350.176C372.859 349.988 372.453 349.734 372.119 349.415C371.785 349.095 371.531 348.718 371.357 348.283C371.183 347.848 371.096 347.369 371.096 346.847C371.096 345.701 371.43 344.874 372.097 344.366C372.779 343.858 373.751 343.605 375.013 343.605H378.756V342.821C378.756 341.835 378.531 341.153 378.081 340.776C377.646 340.399 376.986 340.21 376.101 340.21C375.274 340.21 374.672 340.37 374.295 340.689C373.918 340.993 373.707 341.342 373.664 341.733H371.749C371.778 341.269 371.901 340.841 372.119 340.449C372.351 340.043 372.656 339.695 373.033 339.405C373.425 339.115 373.889 338.89 374.426 338.73C374.962 338.556 375.557 338.469 376.21 338.469C377.574 338.469 378.654 338.796 379.452 339.448C380.265 340.087 380.671 341.138 380.671 342.604V347.282C380.671 347.891 380.671 348.428 380.671 348.892C380.685 349.342 380.722 349.785 380.78 350.22H379.104C379.061 349.886 379.032 349.574 379.017 349.284C379.003 348.979 378.995 348.638 378.995 348.261C378.691 348.871 378.197 349.386 377.516 349.806C376.834 350.227 376.007 350.437 375.035 350.437ZM375.448 348.697C375.898 348.697 376.319 348.638 376.71 348.522C377.117 348.392 377.472 348.211 377.777 347.978C378.081 347.732 378.321 347.434 378.495 347.086C378.669 346.738 378.756 346.332 378.756 345.868V345.084H375.34C374.629 345.084 374.07 345.229 373.664 345.519C373.258 345.795 373.055 346.238 373.055 346.847C373.055 347.384 373.243 347.826 373.62 348.174C374.012 348.522 374.621 348.697 375.448 348.697ZM382.747 348.522H384.162C384.321 348.305 384.466 347.971 384.597 347.521C384.728 347.072 384.844 346.542 384.945 345.933C385.047 345.324 385.119 344.664 385.163 343.953C385.221 343.227 385.25 342.488 385.25 341.733V338.687H393.301V348.522H394.933V352.94H393.105V350.22H384.575V352.94H382.747V348.522ZM391.386 348.522V340.384H387.121V342.168C387.121 342.778 387.099 343.387 387.056 343.996C387.012 344.591 386.947 345.164 386.86 345.715C386.773 346.252 386.664 346.767 386.534 347.26C386.418 347.739 386.28 348.16 386.12 348.522H391.386ZM402.016 350.437C401.276 350.437 400.572 350.321 399.905 350.089C399.237 349.857 398.65 349.502 398.142 349.023C397.634 348.53 397.228 347.913 396.924 347.173C396.619 346.433 396.467 345.563 396.467 344.562V344.127C396.467 343.169 396.612 342.342 396.902 341.646C397.192 340.935 397.576 340.348 398.055 339.884C398.548 339.405 399.114 339.049 399.752 338.817C400.405 338.585 401.087 338.469 401.798 338.469C403.495 338.469 404.808 338.933 405.737 339.862C406.665 340.79 407.129 342.103 407.129 343.8V345.019H398.382C398.382 345.701 398.49 346.274 398.708 346.738C398.926 347.202 399.208 347.579 399.557 347.87C399.905 348.16 400.289 348.37 400.71 348.501C401.145 348.631 401.58 348.697 402.016 348.697C402.886 348.697 403.553 348.551 404.017 348.261C404.496 347.971 404.837 347.572 405.04 347.064H406.912C406.796 347.616 406.585 348.102 406.281 348.522C405.99 348.943 405.628 349.299 405.193 349.589C404.772 349.864 404.286 350.075 403.735 350.22C403.198 350.365 402.625 350.437 402.016 350.437ZM401.907 340.21C401.457 340.21 401.022 340.275 400.601 340.406C400.18 340.522 399.803 340.718 399.47 340.993C399.15 341.254 398.889 341.588 398.686 341.994C398.483 342.401 398.382 342.886 398.382 343.452H405.323C405.309 342.857 405.207 342.357 405.018 341.951C404.844 341.53 404.605 341.196 404.3 340.95C403.996 340.689 403.633 340.5 403.212 340.384C402.806 340.268 402.371 340.21 401.907 340.21ZM409.851 338.687H411.635V340.863C412.027 340.094 412.571 339.506 413.267 339.1C413.978 338.679 414.798 338.469 415.726 338.469C417.177 338.469 418.337 338.948 419.208 339.905C420.078 340.848 420.513 342.255 420.513 344.127V344.562C420.513 345.549 420.397 346.412 420.165 347.152C419.933 347.877 419.607 348.486 419.186 348.979C418.765 349.458 418.258 349.821 417.663 350.067C417.083 350.314 416.437 350.437 415.726 350.437C414.74 350.437 413.913 350.22 413.246 349.785C412.593 349.349 412.099 348.805 411.766 348.152V354.572H409.851V338.687ZM415.291 348.74C415.755 348.74 416.19 348.653 416.597 348.479C417.003 348.29 417.351 348.022 417.641 347.674C417.946 347.326 418.178 346.89 418.337 346.368C418.512 345.846 418.599 345.244 418.599 344.562V344.127C418.599 343.503 418.512 342.945 418.337 342.451C418.178 341.958 417.946 341.545 417.641 341.211C417.351 340.863 417.003 340.602 416.597 340.428C416.19 340.253 415.755 340.166 415.291 340.166C414.769 340.166 414.29 340.253 413.855 340.428C413.42 340.587 413.05 340.819 412.745 341.124C412.44 341.414 412.201 341.762 412.027 342.168C411.853 342.575 411.766 343.01 411.766 343.474V345.215C411.766 345.737 411.853 346.216 412.027 346.651C412.201 347.086 412.44 347.456 412.745 347.761C413.05 348.065 413.42 348.305 413.855 348.479C414.29 348.653 414.769 348.74 415.291 348.74ZM425.969 344.279L421.834 338.687H423.967L427.492 343.518H428.819V338.687H430.734V343.518H432.04L435.63 338.687H437.719L433.585 344.214L437.937 350.22H435.674L432.04 345.171H430.734V350.22H428.819V345.171H427.492L423.836 350.22H421.617L425.969 344.279ZM440.218 338.687H442.133V343.518H443.656L447.964 338.687H450.227L445.223 344.214L450.445 350.22H448.008L443.656 345.171H442.133V350.22H440.218V338.687ZM452.734 338.687H454.649V347.391L460.611 338.687H462.526V350.22H460.611V341.516L454.649 350.22H452.734V338.687ZM471.456 338.687H476.461C477.882 338.687 478.927 338.984 479.594 339.579C480.261 340.159 480.595 340.914 480.595 341.842C480.595 342.089 480.551 342.342 480.464 342.604C480.377 342.85 480.254 343.082 480.095 343.3C479.949 343.518 479.768 343.706 479.551 343.866C479.347 344.025 479.115 344.149 478.854 344.236C479.565 344.41 480.102 344.743 480.464 345.237C480.842 345.715 481.03 346.281 481.03 346.934C481.03 347.935 480.697 348.733 480.029 349.328C479.362 349.922 478.317 350.22 476.896 350.22H471.456V338.687ZM476.896 348.522C477.708 348.522 478.281 348.377 478.615 348.087C478.948 347.797 479.115 347.384 479.115 346.847C479.115 346.296 478.948 345.875 478.615 345.585C478.281 345.28 477.708 345.128 476.896 345.128H473.371V348.522H476.896ZM476.461 343.561C477.287 343.561 477.86 343.416 478.18 343.126C478.513 342.836 478.68 342.437 478.68 341.929C478.68 341.45 478.513 341.073 478.18 340.797C477.86 340.522 477.287 340.384 476.461 340.384H473.371V343.561H476.461ZM488.547 350.437C487.807 350.437 487.103 350.321 486.436 350.089C485.769 349.843 485.181 349.48 484.674 349.001C484.166 348.508 483.76 347.891 483.455 347.152C483.15 346.412 482.998 345.549 482.998 344.562V344.127C482.998 343.198 483.15 342.379 483.455 341.668C483.76 340.957 484.166 340.37 484.674 339.905C485.181 339.427 485.769 339.071 486.436 338.839C487.103 338.592 487.807 338.469 488.547 338.469C489.287 338.469 489.99 338.592 490.658 338.839C491.325 339.071 491.912 339.427 492.42 339.905C492.928 340.37 493.334 340.957 493.639 341.668C493.943 342.379 494.096 343.198 494.096 344.127V344.562C494.096 345.549 493.943 346.412 493.639 347.152C493.334 347.891 492.928 348.508 492.42 349.001C491.912 349.48 491.325 349.843 490.658 350.089C489.99 350.321 489.287 350.437 488.547 350.437ZM488.547 348.697C488.982 348.697 489.417 348.624 489.853 348.479C490.288 348.319 490.672 348.08 491.006 347.761C491.339 347.427 491.608 346.999 491.811 346.477C492.029 345.955 492.137 345.316 492.137 344.562V344.127C492.137 343.43 492.029 342.836 491.811 342.342C491.608 341.849 491.339 341.443 491.006 341.124C490.672 340.805 490.288 340.573 489.853 340.428C489.417 340.283 488.982 340.21 488.547 340.21C488.112 340.21 487.676 340.283 487.241 340.428C486.806 340.573 486.422 340.805 486.088 341.124C485.754 341.443 485.479 341.849 485.261 342.342C485.058 342.836 484.956 343.43 484.956 344.127V344.562C484.956 345.316 485.058 345.955 485.261 346.477C485.479 346.999 485.754 347.427 486.088 347.761C486.422 348.08 486.806 348.319 487.241 348.479C487.676 348.624 488.112 348.697 488.547 348.697ZM501.268 350.437C500.528 350.437 499.839 350.321 499.201 350.089C498.563 349.843 498.011 349.48 497.547 349.001C497.083 348.508 496.713 347.891 496.437 347.152C496.176 346.412 496.046 345.549 496.046 344.562V344.127C496.046 343.198 496.191 342.379 496.481 341.668C496.771 340.957 497.155 340.37 497.634 339.905C498.113 339.427 498.664 339.071 499.288 338.839C499.926 338.592 500.586 338.469 501.268 338.469C501.95 338.469 502.559 338.563 503.096 338.752C503.647 338.941 504.119 339.202 504.51 339.535C504.917 339.869 505.243 340.261 505.49 340.71C505.751 341.16 505.939 341.646 506.055 342.168H504.097C503.981 341.893 503.843 341.639 503.684 341.407C503.539 341.16 503.35 340.95 503.118 340.776C502.9 340.602 502.639 340.464 502.334 340.362C502.03 340.261 501.674 340.21 501.268 340.21C500.847 340.21 500.441 340.29 500.05 340.449C499.658 340.594 499.31 340.827 499.005 341.146C498.7 341.45 498.454 341.849 498.265 342.342C498.091 342.836 498.004 343.43 498.004 344.127V344.562C498.004 345.302 498.091 345.94 498.265 346.477C498.454 346.999 498.7 347.427 499.005 347.761C499.31 348.08 499.658 348.319 500.05 348.479C500.441 348.624 500.847 348.697 501.268 348.697C501.979 348.697 502.574 348.522 503.053 348.174C503.546 347.826 503.894 347.347 504.097 346.738H506.055C505.78 347.884 505.214 348.791 504.358 349.458C503.502 350.111 502.472 350.437 501.268 350.437ZM508.665 338.687H518.24V350.22H516.325V340.384H510.58V350.22H508.665V338.687ZM521.713 338.687H523.497V340.863C523.889 340.094 524.433 339.506 525.129 339.1C525.84 338.679 526.66 338.469 527.588 338.469C529.039 338.469 530.199 338.948 531.07 339.905C531.94 340.848 532.375 342.255 532.375 344.127V344.562C532.375 345.549 532.259 346.412 532.027 347.152C531.795 347.877 531.469 348.486 531.048 348.979C530.627 349.458 530.119 349.821 529.525 350.067C528.944 350.314 528.299 350.437 527.588 350.437C526.602 350.437 525.775 350.22 525.107 349.785C524.455 349.349 523.961 348.805 523.628 348.152V354.572H521.713V338.687ZM527.153 348.74C527.617 348.74 528.052 348.653 528.458 348.479C528.865 348.29 529.213 348.022 529.503 347.674C529.808 347.326 530.04 346.89 530.199 346.368C530.373 345.846 530.46 345.244 530.46 344.562V344.127C530.46 343.503 530.373 342.945 530.199 342.451C530.04 341.958 529.808 341.545 529.503 341.211C529.213 340.863 528.865 340.602 528.458 340.428C528.052 340.253 527.617 340.166 527.153 340.166C526.631 340.166 526.152 340.253 525.717 340.428C525.281 340.587 524.911 340.819 524.607 341.124C524.302 341.414 524.063 341.762 523.889 342.168C523.715 342.575 523.628 343.01 523.628 343.474V345.215C523.628 345.737 523.715 346.216 523.889 346.651C524.063 347.086 524.302 347.456 524.607 347.761C524.911 348.065 525.281 348.305 525.717 348.479C526.152 348.653 526.631 348.74 527.153 348.74ZM539.888 350.437C539.148 350.437 538.444 350.321 537.777 350.089C537.11 349.843 536.522 349.48 536.014 349.001C535.507 348.508 535.1 347.891 534.796 347.152C534.491 346.412 534.339 345.549 534.339 344.562V344.127C534.339 343.198 534.491 342.379 534.796 341.668C535.1 340.957 535.507 340.37 536.014 339.905C536.522 339.427 537.11 339.071 537.777 338.839C538.444 338.592 539.148 338.469 539.888 338.469C540.628 338.469 541.331 338.592 541.998 338.839C542.666 339.071 543.253 339.427 543.761 339.905C544.269 340.37 544.675 340.957 544.98 341.668C545.284 342.379 545.437 343.198 545.437 344.127V344.562C545.437 345.549 545.284 346.412 544.98 347.152C544.675 347.891 544.269 348.508 543.761 349.001C543.253 349.48 542.666 349.843 541.998 350.089C541.331 350.321 540.628 350.437 539.888 350.437ZM539.888 348.697C540.323 348.697 540.758 348.624 541.193 348.479C541.629 348.319 542.013 348.08 542.347 347.761C542.68 347.427 542.949 346.999 543.152 346.477C543.369 345.955 543.478 345.316 543.478 344.562V344.127C543.478 343.43 543.369 342.836 543.152 342.342C542.949 341.849 542.68 341.443 542.347 341.124C542.013 340.805 541.629 340.573 541.193 340.428C540.758 340.283 540.323 340.21 539.888 340.21C539.453 340.21 539.017 340.283 538.582 340.428C538.147 340.573 537.762 340.805 537.429 341.124C537.095 341.443 536.819 341.849 536.602 342.342C536.399 342.836 536.297 343.43 536.297 344.127V344.562C536.297 345.316 536.399 345.955 536.602 346.477C536.819 346.999 537.095 347.427 537.429 347.761C537.762 348.08 538.147 348.319 538.582 348.479C539.017 348.624 539.453 348.697 539.888 348.697ZM548.148 338.687H550.063V347.391L556.025 338.687H557.94V350.22H556.025V341.516L550.063 350.22H548.148V338.687ZM565.346 350.437C563.896 350.437 562.757 350.133 561.93 349.523C561.103 348.914 560.646 348.058 560.559 346.956H562.474C562.576 347.521 562.873 347.957 563.366 348.261C563.874 348.551 564.534 348.697 565.346 348.697C566.347 348.697 567.073 348.53 567.523 348.196C567.987 347.848 568.219 347.434 568.219 346.956C568.219 346.39 568.03 345.947 567.653 345.628C567.276 345.295 566.623 345.128 565.695 345.128H563.714V343.561H565.564C566.362 343.561 566.928 343.409 567.261 343.104C567.61 342.799 567.784 342.371 567.784 341.82C567.784 341.385 567.581 341.008 567.174 340.689C566.768 340.37 566.159 340.21 565.346 340.21C564.462 340.21 563.816 340.355 563.41 340.645C563.018 340.921 562.779 341.32 562.692 341.842H560.777C560.82 341.363 560.951 340.921 561.168 340.515C561.401 340.094 561.712 339.731 562.104 339.427C562.496 339.122 562.96 338.89 563.497 338.73C564.048 338.556 564.665 338.469 565.346 338.469C566.086 338.469 566.725 338.556 567.261 338.73C567.813 338.89 568.27 339.122 568.632 339.427C568.995 339.717 569.263 340.065 569.437 340.471C569.612 340.877 569.699 341.327 569.699 341.82C569.699 342.371 569.561 342.857 569.285 343.278C569.009 343.684 568.567 344.004 567.958 344.236C568.77 344.453 569.336 344.801 569.655 345.28C569.974 345.759 570.134 346.317 570.134 346.956C570.134 347.434 570.032 347.884 569.829 348.305C569.626 348.726 569.321 349.095 568.915 349.415C568.523 349.719 568.023 349.966 567.414 350.154C566.819 350.343 566.13 350.437 565.346 350.437ZM572.862 338.687H577.867C579.289 338.687 580.333 338.984 581.001 339.579C581.668 340.159 582.002 340.914 582.002 341.842C582.002 342.089 581.958 342.342 581.871 342.604C581.784 342.85 581.661 343.082 581.501 343.3C581.356 343.518 581.175 343.706 580.957 343.866C580.754 344.025 580.522 344.149 580.261 344.236C580.972 344.41 581.508 344.743 581.871 345.237C582.248 345.715 582.437 346.281 582.437 346.934C582.437 347.935 582.103 348.733 581.436 349.328C580.769 349.922 579.724 350.22 578.302 350.22H572.862V338.687ZM578.302 348.522C579.115 348.522 579.688 348.377 580.021 348.087C580.355 347.797 580.522 347.384 580.522 346.847C580.522 346.296 580.355 345.875 580.021 345.585C579.688 345.28 579.115 345.128 578.302 345.128H574.777V348.522H578.302ZM577.867 343.561C578.694 343.561 579.267 343.416 579.586 343.126C579.92 342.836 580.087 342.437 580.087 341.929C580.087 341.45 579.92 341.073 579.586 340.797C579.267 340.522 578.694 340.384 577.867 340.384H574.777V343.561H577.867ZM589.954 350.437C589.214 350.437 588.51 350.321 587.843 350.089C587.175 349.857 586.588 349.502 586.08 349.023C585.572 348.53 585.166 347.913 584.862 347.173C584.557 346.433 584.405 345.563 584.405 344.562V344.127C584.405 343.169 584.55 342.342 584.84 341.646C585.13 340.935 585.514 340.348 585.993 339.884C586.486 339.405 587.052 339.049 587.69 338.817C588.343 338.585 589.025 338.469 589.736 338.469C591.433 338.469 592.746 338.933 593.675 339.862C594.603 340.79 595.067 342.103 595.067 343.8V345.019H586.32C586.32 345.701 586.428 346.274 586.646 346.738C586.864 347.202 587.146 347.579 587.495 347.87C587.843 348.16 588.227 348.37 588.648 348.501C589.083 348.631 589.518 348.697 589.954 348.697C590.824 348.697 591.491 348.551 591.955 348.261C592.434 347.971 592.775 347.572 592.978 347.064H594.85C594.734 347.616 594.523 348.102 594.219 348.522C593.928 348.943 593.566 349.299 593.131 349.589C592.71 349.864 592.224 350.075 591.673 350.22C591.136 350.365 590.563 350.437 589.954 350.437ZM589.845 340.21C589.395 340.21 588.96 340.275 588.539 340.406C588.118 340.522 587.741 340.718 587.408 340.993C587.088 341.254 586.827 341.588 586.624 341.994C586.421 342.401 586.32 342.886 586.32 343.452H593.261C593.247 342.857 593.145 342.357 592.956 341.951C592.782 341.53 592.543 341.196 592.238 340.95C591.934 340.689 591.571 340.5 591.15 340.384C590.744 340.268 590.309 340.21 589.845 340.21ZM596.271 348.522H597.685C597.845 348.305 597.99 347.971 598.12 347.521C598.251 347.072 598.367 346.542 598.469 345.933C598.57 345.324 598.643 344.664 598.686 343.953C598.744 343.227 598.773 342.488 598.773 341.733V338.687H606.825V348.522H608.457V352.94H606.629V350.22H598.099V352.94H596.271V348.522ZM604.91 348.522V340.384H600.645V342.168C600.645 342.778 600.623 343.387 600.579 343.996C600.536 344.591 600.471 345.164 600.384 345.715C600.296 346.252 600.188 346.767 600.057 347.26C599.941 347.739 599.803 348.16 599.644 348.522H604.91ZM615.539 350.437C614.799 350.437 614.096 350.321 613.428 350.089C612.761 349.857 612.173 349.502 611.666 349.023C611.158 348.53 610.752 347.913 610.447 347.173C610.142 346.433 609.99 345.563 609.99 344.562V344.127C609.99 343.169 610.135 342.342 610.425 341.646C610.715 340.935 611.1 340.348 611.579 339.884C612.072 339.405 612.638 339.049 613.276 338.817C613.929 338.585 614.61 338.469 615.321 338.469C617.019 338.469 618.332 338.933 619.26 339.862C620.188 340.79 620.653 342.103 620.653 343.8V345.019H611.905C611.905 345.701 612.014 346.274 612.231 346.738C612.449 347.202 612.732 347.579 613.08 347.87C613.428 348.16 613.813 348.37 614.233 348.501C614.669 348.631 615.104 348.697 615.539 348.697C616.409 348.697 617.077 348.551 617.541 348.261C618.02 347.971 618.361 347.572 618.564 347.064H620.435C620.319 347.616 620.109 348.102 619.804 348.522C619.514 348.943 619.151 349.299 618.716 349.589C618.295 349.864 617.809 350.075 617.258 350.22C616.721 350.365 616.148 350.437 615.539 350.437ZM615.43 340.21C614.98 340.21 614.545 340.275 614.125 340.406C613.704 340.522 613.327 340.718 612.993 340.993C612.674 341.254 612.413 341.588 612.21 341.994C612.007 342.401 611.905 342.886 611.905 343.452H618.847C618.832 342.857 618.73 342.357 618.542 341.951C618.368 341.53 618.128 341.196 617.824 340.95C617.519 340.689 617.156 340.5 616.736 340.384C616.33 340.268 615.894 340.21 615.43 340.21ZM623.374 338.687H625.289V343.496H631.252V338.687H633.167V350.22H631.252V345.193H625.289V350.22H623.374V338.687ZM636.656 338.687H638.571V347.391L644.533 338.687H646.448V350.22H644.533V341.516L638.571 350.22H636.656V338.687ZM652.2 345.65C651.243 345.432 650.554 345.041 650.133 344.475C649.712 343.895 649.502 343.155 649.502 342.255C649.502 341.124 649.843 340.246 650.525 339.622C651.221 338.999 652.331 338.687 653.854 338.687H658.859V350.22H656.944V345.824H654.006L651.199 350.22H649.067L652.2 345.65ZM651.417 342.255C651.417 342.865 651.591 343.329 651.939 343.648C652.302 343.967 652.904 344.127 653.745 344.127H656.944V340.384H653.745C652.904 340.384 652.302 340.544 651.939 340.863C651.591 341.182 651.417 341.646 651.417 342.255Z" fill="black"/>
<rect x="265.953" y="309.72" width="415" height="64" stroke="#63A8E9"/>
<path d="M232.42 117.214H225.979L224.521 121H222.388L228.22 105.768H230.266L236.097 121H233.878L232.42 117.214ZM226.653 115.429H231.745L229.199 108.379L226.653 115.429ZM238.499 125.57C238.281 125.57 238.063 125.548 237.846 125.504V123.764C238.063 123.807 238.281 123.829 238.499 123.829C238.716 123.829 238.905 123.793 239.064 123.72C239.224 123.648 239.376 123.51 239.521 123.307C239.666 123.104 239.819 122.813 239.978 122.436C240.152 122.074 240.348 121.595 240.566 121L235.67 109.467H237.802L241.545 118.824L244.94 109.467H246.985L242.633 121C242.328 121.812 242.038 122.509 241.763 123.089C241.487 123.669 241.19 124.141 240.871 124.503C240.566 124.881 240.225 125.149 239.848 125.309C239.471 125.483 239.021 125.57 238.499 125.57ZM247.187 119.303H248.602C248.761 119.085 248.907 118.751 249.037 118.302C249.168 117.852 249.284 117.323 249.385 116.713C249.487 116.104 249.559 115.444 249.603 114.733C249.661 114.008 249.69 113.268 249.69 112.513V109.467H257.741V119.303H259.373V123.72H257.545V121H249.015V123.72H247.187V119.303ZM255.826 119.303V111.164H251.561V112.949C251.561 113.558 251.54 114.167 251.496 114.777C251.453 115.371 251.387 115.944 251.3 116.496C251.213 117.032 251.104 117.547 250.974 118.041C250.858 118.519 250.72 118.94 250.56 119.303H255.826ZM261.668 109.467H263.583V118.171L269.546 109.467H271.46V121H269.546V112.296L263.583 121H261.668V109.467ZM279.737 121.218C278.997 121.218 278.294 121.102 277.626 120.869C276.959 120.623 276.371 120.26 275.864 119.781C275.356 119.288 274.95 118.672 274.645 117.932C274.34 117.192 274.188 116.329 274.188 115.342V114.907C274.188 113.979 274.34 113.159 274.645 112.448C274.95 111.737 275.356 111.15 275.864 110.686C276.371 110.207 276.959 109.851 277.626 109.619C278.294 109.373 278.997 109.249 279.737 109.249C280.477 109.249 281.18 109.373 281.848 109.619C282.515 109.851 283.103 110.207 283.61 110.686C284.118 111.15 284.524 111.737 284.829 112.448C285.134 113.159 285.286 113.979 285.286 114.907V115.342C285.286 116.329 285.134 117.192 284.829 117.932C284.524 118.672 284.118 119.288 283.61 119.781C283.103 120.26 282.515 120.623 281.848 120.869C281.18 121.102 280.477 121.218 279.737 121.218ZM279.737 119.477C280.172 119.477 280.607 119.404 281.043 119.259C281.478 119.1 281.862 118.86 282.196 118.541C282.53 118.207 282.798 117.779 283.001 117.257C283.219 116.735 283.328 116.097 283.328 115.342V114.907C283.328 114.211 283.219 113.616 283.001 113.123C282.798 112.63 282.53 112.223 282.196 111.904C281.862 111.585 281.478 111.353 281.043 111.208C280.607 111.063 280.172 110.99 279.737 110.99C279.302 110.99 278.867 111.063 278.431 111.208C277.996 111.353 277.612 111.585 277.278 111.904C276.944 112.223 276.669 112.63 276.451 113.123C276.248 113.616 276.147 114.211 276.147 114.907V115.342C276.147 116.097 276.248 116.735 276.451 117.257C276.669 117.779 276.944 118.207 277.278 118.541C277.612 118.86 277.996 119.1 278.431 119.259C278.867 119.404 279.302 119.477 279.737 119.477ZM287.997 109.467H297.572V121H295.657V111.164H289.912V121H287.997V109.467ZM305.832 121.218C305.093 121.218 304.389 121.102 303.722 120.869C303.054 120.623 302.467 120.26 301.959 119.781C301.451 119.288 301.045 118.672 300.741 117.932C300.436 117.192 300.284 116.329 300.284 115.342V114.907C300.284 113.979 300.436 113.159 300.741 112.448C301.045 111.737 301.451 111.15 301.959 110.686C302.467 110.207 303.054 109.851 303.722 109.619C304.389 109.373 305.093 109.249 305.832 109.249C306.572 109.249 307.276 109.373 307.943 109.619C308.611 109.851 309.198 110.207 309.706 110.686C310.214 111.15 310.62 111.737 310.924 112.448C311.229 113.159 311.381 113.979 311.381 114.907V115.342C311.381 116.329 311.229 117.192 310.924 117.932C310.62 118.672 310.214 119.288 309.706 119.781C309.198 120.26 308.611 120.623 307.943 120.869C307.276 121.102 306.572 121.218 305.832 121.218ZM305.832 119.477C306.268 119.477 306.703 119.404 307.138 119.259C307.573 119.1 307.958 118.86 308.291 118.541C308.625 118.207 308.893 117.779 309.097 117.257C309.314 116.735 309.423 116.097 309.423 115.342V114.907C309.423 114.211 309.314 113.616 309.097 113.123C308.893 112.63 308.625 112.223 308.291 111.904C307.958 111.585 307.573 111.353 307.138 111.208C306.703 111.063 306.268 110.99 305.832 110.99C305.397 110.99 304.962 111.063 304.527 111.208C304.092 111.353 303.707 111.585 303.374 111.904C303.04 112.223 302.764 112.63 302.547 113.123C302.344 113.616 302.242 114.211 302.242 114.907V115.342C302.242 116.097 302.344 116.735 302.547 117.257C302.764 117.779 303.04 118.207 303.374 118.541C303.707 118.86 304.092 119.1 304.527 119.259C304.962 119.404 305.397 119.477 305.832 119.477ZM316.513 111.164H312.575V109.467H322.367V111.164H318.428V121H316.513V111.164ZM329.123 121.218C328.383 121.218 327.679 121.102 327.012 120.869C326.345 120.623 325.757 120.26 325.25 119.781C324.742 119.288 324.336 118.672 324.031 117.932C323.726 117.192 323.574 116.329 323.574 115.342V114.907C323.574 113.979 323.726 113.159 324.031 112.448C324.336 111.737 324.742 111.15 325.25 110.686C325.757 110.207 326.345 109.851 327.012 109.619C327.679 109.373 328.383 109.249 329.123 109.249C329.863 109.249 330.566 109.373 331.234 109.619C331.901 109.851 332.488 110.207 332.996 110.686C333.504 111.15 333.91 111.737 334.215 112.448C334.519 113.159 334.672 113.979 334.672 114.907V115.342C334.672 116.329 334.519 117.192 334.215 117.932C333.91 118.672 333.504 119.288 332.996 119.781C332.488 120.26 331.901 120.623 331.234 120.869C330.566 121.102 329.863 121.218 329.123 121.218ZM329.123 119.477C329.558 119.477 329.993 119.404 330.428 119.259C330.864 119.1 331.248 118.86 331.582 118.541C331.915 118.207 332.184 117.779 332.387 117.257C332.605 116.735 332.713 116.097 332.713 115.342V114.907C332.713 114.211 332.605 113.616 332.387 113.123C332.184 112.63 331.915 112.223 331.582 111.904C331.248 111.585 330.864 111.353 330.428 111.208C329.993 111.063 329.558 110.99 329.123 110.99C328.688 110.99 328.252 111.063 327.817 111.208C327.382 111.353 326.998 111.585 326.664 111.904C326.33 112.223 326.055 112.63 325.837 113.123C325.634 113.616 325.532 114.211 325.532 114.907V115.342C325.532 116.097 325.634 116.735 325.837 117.257C326.055 117.779 326.33 118.207 326.664 118.541C326.998 118.86 327.382 119.1 327.817 119.259C328.252 119.404 328.688 119.477 329.123 119.477ZM337.383 109.467H339.298V114.298H340.821L345.13 109.467H347.393L342.388 114.994L347.611 121H345.173L340.821 115.952H339.298V121H337.383V109.467ZM355.34 109.467H364.914V121H362.999V111.164H357.255V121H355.34V109.467ZM371.673 121.218C371.035 121.218 370.469 121.131 369.976 120.956C369.497 120.768 369.091 120.514 368.757 120.195C368.424 119.876 368.17 119.499 367.996 119.063C367.822 118.628 367.735 118.149 367.735 117.627C367.735 116.481 368.068 115.654 368.736 115.146C369.418 114.639 370.389 114.385 371.652 114.385H375.394V113.601C375.394 112.615 375.17 111.933 374.72 111.556C374.285 111.179 373.625 110.99 372.74 110.99C371.913 110.99 371.311 111.15 370.933 111.469C370.556 111.774 370.346 112.122 370.302 112.513H368.388C368.417 112.049 368.54 111.621 368.757 111.23C368.99 110.823 369.294 110.475 369.671 110.185C370.063 109.895 370.527 109.67 371.064 109.511C371.601 109.336 372.196 109.249 372.848 109.249C374.212 109.249 375.293 109.576 376.091 110.229C376.903 110.867 377.309 111.919 377.309 113.384V118.062C377.309 118.672 377.309 119.208 377.309 119.673C377.324 120.122 377.36 120.565 377.418 121H375.743C375.699 120.666 375.67 120.354 375.655 120.064C375.641 119.76 375.634 119.419 375.634 119.042C375.329 119.651 374.836 120.166 374.154 120.587C373.472 121.007 372.645 121.218 371.673 121.218ZM372.087 119.477C372.536 119.477 372.957 119.419 373.349 119.303C373.755 119.172 374.11 118.991 374.415 118.759C374.72 118.512 374.959 118.215 375.133 117.867C375.307 117.518 375.394 117.112 375.394 116.648V115.865H371.978C371.267 115.865 370.709 116.01 370.302 116.3C369.896 116.575 369.693 117.018 369.693 117.627C369.693 118.164 369.882 118.606 370.259 118.955C370.651 119.303 371.26 119.477 372.087 119.477ZM380.691 109.467H382.606V114.298H384.13L388.438 109.467H390.701L385.696 114.994L390.919 121H388.482L384.13 115.952H382.606V121H380.691V109.467ZM397.57 121.218C396.83 121.218 396.127 121.102 395.459 120.869C394.792 120.637 394.205 120.282 393.697 119.803C393.189 119.31 392.783 118.693 392.478 117.954C392.174 117.214 392.021 116.343 392.021 115.342V114.907C392.021 113.95 392.166 113.123 392.457 112.426C392.747 111.716 393.131 111.128 393.61 110.664C394.103 110.185 394.669 109.83 395.307 109.598C395.96 109.365 396.642 109.249 397.353 109.249C399.05 109.249 400.363 109.714 401.291 110.642C402.22 111.571 402.684 112.883 402.684 114.581V115.799H393.936C393.936 116.481 394.045 117.054 394.263 117.518C394.48 117.983 394.763 118.36 395.111 118.65C395.459 118.94 395.844 119.15 396.265 119.281C396.7 119.411 397.135 119.477 397.57 119.477C398.441 119.477 399.108 119.332 399.572 119.042C400.051 118.751 400.392 118.352 400.595 117.845H402.466C402.35 118.396 402.14 118.882 401.835 119.303C401.545 119.723 401.182 120.079 400.747 120.369C400.326 120.645 399.841 120.855 399.289 121C398.753 121.145 398.179 121.218 397.57 121.218ZM397.461 110.99C397.012 110.99 396.576 111.056 396.156 111.186C395.735 111.302 395.358 111.498 395.024 111.774C394.705 112.035 394.444 112.368 394.241 112.775C394.038 113.181 393.936 113.667 393.936 114.233H400.878C400.863 113.638 400.762 113.137 400.573 112.731C400.399 112.31 400.16 111.977 399.855 111.73C399.55 111.469 399.188 111.28 398.767 111.164C398.361 111.048 397.926 110.99 397.461 110.99ZM407.826 111.164H403.887V109.467H413.68V111.164H409.741V121H407.826V111.164ZM420.436 121.218C419.696 121.218 418.992 121.102 418.325 120.869C417.657 120.623 417.07 120.26 416.562 119.781C416.054 119.288 415.648 118.672 415.344 117.932C415.039 117.192 414.887 116.329 414.887 115.342V114.907C414.887 113.979 415.039 113.159 415.344 112.448C415.648 111.737 416.054 111.15 416.562 110.686C417.07 110.207 417.657 109.851 418.325 109.619C418.992 109.373 419.696 109.249 420.436 109.249C421.175 109.249 421.879 109.373 422.546 109.619C423.214 109.851 423.801 110.207 424.309 110.686C424.817 111.15 425.223 111.737 425.527 112.448C425.832 113.159 425.984 113.979 425.984 114.907V115.342C425.984 116.329 425.832 117.192 425.527 117.932C425.223 118.672 424.817 119.288 424.309 119.781C423.801 120.26 423.214 120.623 422.546 120.869C421.879 121.102 421.175 121.218 420.436 121.218ZM420.436 119.477C420.871 119.477 421.306 119.404 421.741 119.259C422.176 119.1 422.561 118.86 422.894 118.541C423.228 118.207 423.497 117.779 423.7 117.257C423.917 116.735 424.026 116.097 424.026 115.342V114.907C424.026 114.211 423.917 113.616 423.7 113.123C423.497 112.63 423.228 112.223 422.894 111.904C422.561 111.585 422.176 111.353 421.741 111.208C421.306 111.063 420.871 110.99 420.436 110.99C420 110.99 419.565 111.063 419.13 111.208C418.695 111.353 418.31 111.585 417.977 111.904C417.643 112.223 417.367 112.63 417.15 113.123C416.947 113.616 416.845 114.211 416.845 114.907V115.342C416.845 116.097 416.947 116.735 417.15 117.257C417.367 117.779 417.643 118.207 417.977 118.541C418.31 118.86 418.695 119.1 419.13 119.259C419.565 119.404 420 119.477 420.436 119.477ZM428.696 109.467H433.701C435.123 109.467 436.167 109.764 436.834 110.359C437.502 110.939 437.835 111.694 437.835 112.622C437.835 112.869 437.792 113.123 437.705 113.384C437.618 113.63 437.494 113.863 437.335 114.08C437.19 114.298 437.008 114.486 436.791 114.646C436.588 114.806 436.356 114.929 436.095 115.016C436.805 115.19 437.342 115.524 437.705 116.017C438.082 116.496 438.271 117.061 438.271 117.714C438.271 118.715 437.937 119.513 437.27 120.108C436.602 120.703 435.558 121 434.136 121H428.696V109.467ZM434.136 119.303C434.948 119.303 435.521 119.158 435.855 118.867C436.189 118.577 436.356 118.164 436.356 117.627C436.356 117.076 436.189 116.655 435.855 116.365C435.521 116.06 434.948 115.908 434.136 115.908H430.611V119.303H434.136ZM433.701 114.341C434.528 114.341 435.101 114.196 435.42 113.906C435.754 113.616 435.92 113.217 435.92 112.709C435.92 112.231 435.754 111.853 435.42 111.578C435.101 111.302 434.528 111.164 433.701 111.164H430.611V114.341H433.701ZM441.114 121V118.606H443.507V121L441.331 124.264H440.243L441.114 121ZM452.751 109.467H462.326V121H460.411V111.164H454.666V121H452.751V109.467ZM470.586 121.218C469.847 121.218 469.143 121.102 468.476 120.869C467.808 120.623 467.221 120.26 466.713 119.781C466.205 119.288 465.799 118.672 465.494 117.932C465.19 117.192 465.037 116.329 465.037 115.342V114.907C465.037 113.979 465.19 113.159 465.494 112.448C465.799 111.737 466.205 111.15 466.713 110.686C467.221 110.207 467.808 109.851 468.476 109.619C469.143 109.373 469.847 109.249 470.586 109.249C471.326 109.249 472.03 109.373 472.697 109.619C473.364 109.851 473.952 110.207 474.46 110.686C474.967 111.15 475.374 111.737 475.678 112.448C475.983 113.159 476.135 113.979 476.135 114.907V115.342C476.135 116.329 475.983 117.192 475.678 117.932C475.374 118.672 474.967 119.288 474.46 119.781C473.952 120.26 473.364 120.623 472.697 120.869C472.03 121.102 471.326 121.218 470.586 121.218ZM470.586 119.477C471.022 119.477 471.457 119.404 471.892 119.259C472.327 119.1 472.712 118.86 473.045 118.541C473.379 118.207 473.647 117.779 473.85 117.257C474.068 116.735 474.177 116.097 474.177 115.342V114.907C474.177 114.211 474.068 113.616 473.85 113.123C473.647 112.63 473.379 112.223 473.045 111.904C472.712 111.585 472.327 111.353 471.892 111.208C471.457 111.063 471.022 110.99 470.586 110.99C470.151 110.99 469.716 111.063 469.281 111.208C468.846 111.353 468.461 111.585 468.127 111.904C467.794 112.223 467.518 112.63 467.301 113.123C467.097 113.616 466.996 114.211 466.996 114.907V115.342C466.996 116.097 467.097 116.735 467.301 117.257C467.518 117.779 467.794 118.207 468.127 118.541C468.461 118.86 468.846 119.1 469.281 119.259C469.716 119.404 470.151 119.477 470.586 119.477ZM478.09 121.218C477.873 121.218 477.655 121.196 477.437 121.152V119.237C477.51 119.252 477.619 119.259 477.764 119.259C478.083 119.259 478.359 119.158 478.591 118.955C478.837 118.751 479.033 118.396 479.178 117.888C479.323 117.381 479.432 116.691 479.505 115.821C479.577 114.951 479.614 113.848 479.614 112.513V109.467H487.882V121H485.968V111.164H481.528V112.949C481.528 114.559 481.456 115.894 481.311 116.953C481.166 118.012 480.948 118.86 480.658 119.499C480.382 120.122 480.027 120.565 479.592 120.826C479.157 121.087 478.656 121.218 478.09 121.218ZM492.886 125.57C492.669 125.57 492.451 125.548 492.234 125.504V123.764C492.451 123.807 492.669 123.829 492.886 123.829C493.104 123.829 493.293 123.793 493.452 123.72C493.612 123.648 493.764 123.51 493.909 123.307C494.054 123.104 494.207 122.813 494.366 122.436C494.54 122.074 494.736 121.595 494.954 121L490.058 109.467H492.19L495.933 118.824L499.328 109.467H501.373L497.021 121C496.716 121.812 496.426 122.509 496.151 123.089C495.875 123.669 495.578 124.141 495.258 124.503C494.954 124.881 494.613 125.149 494.236 125.309C493.858 125.483 493.409 125.57 492.886 125.57ZM510.433 116.409C510.099 116.612 509.693 116.793 509.214 116.953C508.75 117.112 508.162 117.192 507.451 117.192C506.784 117.192 506.182 117.119 505.645 116.974C505.123 116.829 504.681 116.597 504.318 116.278C503.955 115.959 503.68 115.545 503.491 115.038C503.302 114.53 503.208 113.906 503.208 113.166V109.467H505.123V112.84C505.123 113.333 505.167 113.747 505.254 114.08C505.355 114.414 505.515 114.682 505.732 114.885C505.95 115.088 506.226 115.234 506.559 115.321C506.893 115.408 507.299 115.451 507.778 115.451C508.431 115.451 508.989 115.386 509.453 115.255C509.918 115.125 510.244 114.987 510.433 114.842V109.467H512.348V121H510.433V116.409ZM520.61 121.218C519.87 121.218 519.166 121.102 518.499 120.869C517.832 120.637 517.244 120.282 516.736 119.803C516.229 119.31 515.822 118.693 515.518 117.954C515.213 117.214 515.061 116.343 515.061 115.342V114.907C515.061 113.95 515.206 113.123 515.496 112.426C515.786 111.716 516.171 111.128 516.649 110.664C517.143 110.185 517.708 109.83 518.347 109.598C518.999 109.365 519.681 109.249 520.392 109.249C522.089 109.249 523.402 109.714 524.331 110.642C525.259 111.571 525.723 112.883 525.723 114.581V115.799H516.976C516.976 116.481 517.085 117.054 517.302 117.518C517.52 117.983 517.803 118.36 518.151 118.65C518.499 118.94 518.883 119.15 519.304 119.281C519.739 119.411 520.174 119.477 520.61 119.477C521.48 119.477 522.147 119.332 522.612 119.042C523.09 118.751 523.431 118.352 523.634 117.845H525.506C525.39 118.396 525.179 118.882 524.875 119.303C524.585 119.723 524.222 120.079 523.787 120.369C523.366 120.645 522.88 120.855 522.329 121C521.792 121.145 521.219 121.218 520.61 121.218ZM520.501 110.99C520.051 110.99 519.616 111.056 519.195 111.186C518.775 111.302 518.397 111.498 518.064 111.774C517.745 112.035 517.483 112.368 517.28 112.775C517.077 113.181 516.976 113.667 516.976 114.233H523.917C523.903 113.638 523.801 113.137 523.613 112.731C523.439 112.31 523.199 111.977 522.895 111.73C522.59 111.469 522.227 111.28 521.806 111.164C521.4 111.048 520.965 110.99 520.501 110.99ZM528.445 109.467H530.36V114.276H536.322V109.467H538.237V121H536.322V115.973H530.36V121H528.445V109.467ZM541.727 109.467H543.641V114.276H549.604V109.467H551.519V121H549.604V115.973H543.641V121H541.727V109.467ZM555.008 109.467H556.923V113.819H559.251C560.702 113.819 561.768 114.138 562.45 114.777C563.146 115.415 563.495 116.3 563.495 117.431C563.495 118.534 563.146 119.404 562.45 120.043C561.768 120.681 560.702 121 559.251 121H555.008V109.467ZM559.142 119.303C560.042 119.303 560.673 119.143 561.036 118.824C561.398 118.505 561.58 118.033 561.58 117.41C561.58 116.786 561.398 116.314 561.036 115.995C560.673 115.676 560.042 115.516 559.142 115.516H556.923V119.303H559.142ZM565.279 109.467H567.194V121H565.279V109.467ZM573.803 115.146L569.69 109.467H571.91L574.956 113.667L578.003 109.467H580.135L576.023 115.038L580.353 121H578.09L574.869 116.496L571.649 121H569.473L573.803 115.146ZM592.534 121.218C591.795 121.218 591.106 121.102 590.467 120.869C589.829 120.623 589.278 120.26 588.813 119.781C588.349 119.288 587.979 118.672 587.704 117.932C587.443 117.192 587.312 116.329 587.312 115.342V114.907C587.312 113.979 587.457 113.159 587.747 112.448C588.037 111.737 588.422 111.15 588.9 110.686C589.379 110.207 589.93 109.851 590.554 109.619C591.193 109.373 591.853 109.249 592.534 109.249C593.216 109.249 593.826 109.344 594.362 109.532C594.914 109.721 595.385 109.982 595.777 110.316C596.183 110.649 596.509 111.041 596.756 111.491C597.017 111.94 597.206 112.426 597.322 112.949H595.363C595.247 112.673 595.109 112.419 594.95 112.187C594.805 111.94 594.616 111.73 594.384 111.556C594.166 111.382 593.905 111.244 593.601 111.143C593.296 111.041 592.941 110.99 592.534 110.99C592.114 110.99 591.708 111.07 591.316 111.23C590.924 111.375 590.576 111.607 590.271 111.926C589.967 112.231 589.72 112.63 589.532 113.123C589.357 113.616 589.27 114.211 589.27 114.907V115.342C589.27 116.082 589.357 116.72 589.532 117.257C589.72 117.779 589.967 118.207 590.271 118.541C590.576 118.86 590.924 119.1 591.316 119.259C591.708 119.404 592.114 119.477 592.534 119.477C593.245 119.477 593.84 119.303 594.319 118.955C594.812 118.606 595.16 118.128 595.363 117.518H597.322C597.046 118.664 596.48 119.571 595.624 120.238C594.768 120.891 593.739 121.218 592.534 121.218ZM604.066 119.303H605.48C605.64 119.085 605.785 118.751 605.915 118.302C606.046 117.852 606.162 117.323 606.263 116.713C606.365 116.104 606.438 115.444 606.481 114.733C606.539 114.008 606.568 113.268 606.568 112.513V109.467H614.619V119.303H616.251V123.72H614.424V121H605.894V123.72H604.066V119.303ZM612.705 119.303V111.164H608.44V112.949C608.44 113.558 608.418 114.167 608.374 114.777C608.331 115.371 608.265 115.944 608.178 116.496C608.091 117.032 607.983 117.547 607.852 118.041C607.736 118.519 607.598 118.94 607.439 119.303H612.705ZM621.914 115.059L617.78 109.467H619.912L623.438 114.298H624.765V109.467H626.68V114.298H627.985L631.576 109.467H633.665L629.53 114.994L633.882 121H631.619L627.985 115.952H626.68V121H624.765V115.952H623.438L619.782 121H617.562L621.914 115.059ZM636.163 109.467H638.078V118.171L644.04 109.467H645.955V121H644.04V112.296L638.078 121H636.163V109.467ZM652.078 111.164H648.139V109.467H657.931V111.164H653.992V121H652.078V111.164ZM663.404 111.164H659.465V109.467H669.258V111.164H665.319V121H663.404V111.164ZM676.013 121.218C675.274 121.218 674.57 121.102 673.903 120.869C673.235 120.637 672.648 120.282 672.14 119.803C671.632 119.31 671.226 118.693 670.922 117.954C670.617 117.214 670.465 116.343 670.465 115.342V114.907C670.465 113.95 670.61 113.123 670.9 112.426C671.19 111.716 671.574 111.128 672.053 110.664C672.546 110.185 673.112 109.83 673.75 109.598C674.403 109.365 675.085 109.249 675.796 109.249C677.493 109.249 678.806 109.714 679.734 110.642C680.663 111.571 681.127 112.883 681.127 114.581V115.799H672.379C672.379 116.481 672.488 117.054 672.706 117.518C672.923 117.983 673.206 118.36 673.555 118.65C673.903 118.94 674.287 119.15 674.708 119.281C675.143 119.411 675.578 119.477 676.013 119.477C676.884 119.477 677.551 119.332 678.015 119.042C678.494 118.751 678.835 118.352 679.038 117.845H680.91C680.793 118.396 680.583 118.882 680.278 119.303C679.988 119.723 679.626 120.079 679.19 120.369C678.77 120.645 678.284 120.855 677.732 121C677.196 121.145 676.623 121.218 676.013 121.218ZM675.905 110.99C675.455 110.99 675.02 111.056 674.599 111.186C674.178 111.302 673.801 111.498 673.467 111.774C673.148 112.035 672.887 112.368 672.684 112.775C672.481 113.181 672.379 113.667 672.379 114.233H679.321C679.306 113.638 679.205 113.137 679.016 112.731C678.842 112.31 678.603 111.977 678.298 111.73C677.994 111.469 677.631 111.28 677.21 111.164C676.804 111.048 676.369 110.99 675.905 110.99ZM683.849 109.467H685.633V111.643C686.025 110.874 686.569 110.287 687.265 109.88C687.976 109.46 688.796 109.249 689.724 109.249C691.175 109.249 692.335 109.728 693.206 110.686C694.076 111.629 694.511 113.036 694.511 114.907V115.342C694.511 116.329 694.395 117.192 694.163 117.932C693.931 118.657 693.605 119.266 693.184 119.76C692.763 120.238 692.256 120.601 691.661 120.848C691.081 121.094 690.435 121.218 689.724 121.218C688.738 121.218 687.911 121 687.243 120.565C686.591 120.13 686.097 119.586 685.764 118.933V125.352H683.849V109.467ZM689.289 119.52C689.753 119.52 690.188 119.433 690.595 119.259C691.001 119.071 691.349 118.802 691.639 118.454C691.944 118.106 692.176 117.671 692.335 117.148C692.509 116.626 692.596 116.024 692.596 115.342V114.907C692.596 114.283 692.509 113.725 692.335 113.232C692.176 112.738 691.944 112.325 691.639 111.991C691.349 111.643 691.001 111.382 690.595 111.208C690.188 111.034 689.753 110.947 689.289 110.947C688.767 110.947 688.288 111.034 687.853 111.208C687.418 111.367 687.048 111.6 686.743 111.904C686.438 112.194 686.199 112.542 686.025 112.949C685.851 113.355 685.764 113.79 685.764 114.254V115.995C685.764 116.517 685.851 116.996 686.025 117.431C686.199 117.867 686.438 118.236 686.743 118.541C687.048 118.846 687.418 119.085 687.853 119.259C688.288 119.433 688.767 119.52 689.289 119.52ZM702.024 121.218C701.284 121.218 700.58 121.102 699.913 120.869C699.246 120.623 698.658 120.26 698.15 119.781C697.643 119.288 697.237 118.672 696.932 117.932C696.627 117.192 696.475 116.329 696.475 115.342V114.907C696.475 113.979 696.627 113.159 696.932 112.448C697.237 111.737 697.643 111.15 698.15 110.686C698.658 110.207 699.246 109.851 699.913 109.619C700.58 109.373 701.284 109.249 702.024 109.249C702.764 109.249 703.467 109.373 704.135 109.619C704.802 109.851 705.389 110.207 705.897 110.686C706.405 111.15 706.811 111.737 707.116 112.448C707.42 113.159 707.573 113.979 707.573 114.907V115.342C707.573 116.329 707.42 117.192 707.116 117.932C706.811 118.672 706.405 119.288 705.897 119.781C705.389 120.26 704.802 120.623 704.135 120.869C703.467 121.102 702.764 121.218 702.024 121.218ZM702.024 119.477C702.459 119.477 702.894 119.404 703.329 119.259C703.765 119.1 704.149 118.86 704.483 118.541C704.816 118.207 705.085 117.779 705.288 117.257C705.505 116.735 705.614 116.097 705.614 115.342V114.907C705.614 114.211 705.505 113.616 705.288 113.123C705.085 112.63 704.816 112.223 704.483 111.904C704.149 111.585 703.765 111.353 703.329 111.208C702.894 111.063 702.459 110.99 702.024 110.99C701.589 110.99 701.153 111.063 700.718 111.208C700.283 111.353 699.899 111.585 699.565 111.904C699.231 112.223 698.956 112.63 698.738 113.123C698.535 113.616 698.433 114.211 698.433 114.907V115.342C698.433 116.097 698.535 116.735 698.738 117.257C698.956 117.779 699.231 118.207 699.565 118.541C699.899 118.86 700.283 119.1 700.718 119.259C701.153 119.404 701.589 119.477 702.024 119.477ZM710.284 109.467H712.33L716.442 116.648L720.555 109.467H722.47V121H720.555V112.622L717.139 118.498H715.616L712.199 112.622V121H710.284V109.467Z" fill="black"/>
<path d="M107.725 549.658C106.869 549.658 106.057 549.513 105.288 549.223C104.519 548.918 103.837 548.454 103.242 547.83C102.648 547.192 102.176 546.387 101.828 545.415C101.48 544.443 101.306 543.282 101.306 541.933V541.498C101.306 540.192 101.48 539.068 101.828 538.125C102.176 537.182 102.648 536.406 103.242 535.797C103.837 535.187 104.519 534.738 105.288 534.448C106.057 534.143 106.869 533.991 107.725 533.991C108.552 533.991 109.306 534.099 109.988 534.317C110.684 534.535 111.294 534.846 111.816 535.253C112.338 535.659 112.759 536.159 113.078 536.754C113.412 537.349 113.622 538.023 113.709 538.778H111.533C111.33 537.791 110.902 537.052 110.249 536.558C109.596 536.065 108.755 535.818 107.725 535.818C107.188 535.818 106.666 535.92 106.158 536.123C105.65 536.326 105.193 536.653 104.787 537.102C104.396 537.538 104.076 538.118 103.83 538.843C103.598 539.568 103.482 540.453 103.482 541.498V541.933C103.482 543.036 103.612 543.964 103.873 544.718C104.134 545.458 104.468 546.06 104.874 546.525C105.281 546.989 105.737 547.322 106.245 547.526C106.753 547.729 107.246 547.83 107.725 547.83C108.856 547.83 109.741 547.555 110.38 547.003C111.018 546.452 111.402 545.741 111.533 544.871H113.709C113.593 545.712 113.361 546.438 113.013 547.047C112.665 547.642 112.222 548.135 111.685 548.526C111.163 548.918 110.561 549.208 109.879 549.397C109.212 549.571 108.494 549.658 107.725 549.658ZM116.531 537.907H118.446V542.738H119.969L124.278 537.907H126.541L121.536 543.435L126.758 549.44H124.321L119.969 544.392H118.446V549.44H116.531V537.907ZM133.41 549.658C132.67 549.658 131.966 549.542 131.299 549.31C130.632 549.063 130.044 548.701 129.536 548.222C129.029 547.729 128.623 547.112 128.318 546.372C128.013 545.632 127.861 544.769 127.861 543.783V543.348C127.861 542.419 128.013 541.599 128.318 540.889C128.623 540.178 129.029 539.59 129.536 539.126C130.044 538.647 130.632 538.292 131.299 538.06C131.966 537.813 132.67 537.69 133.41 537.69C134.15 537.69 134.853 537.813 135.521 538.06C136.188 538.292 136.775 538.647 137.283 539.126C137.791 539.59 138.197 540.178 138.502 540.889C138.806 541.599 138.959 542.419 138.959 543.348V543.783C138.959 544.769 138.806 545.632 138.502 546.372C138.197 547.112 137.791 547.729 137.283 548.222C136.775 548.701 136.188 549.063 135.521 549.31C134.853 549.542 134.15 549.658 133.41 549.658ZM133.41 547.917C133.845 547.917 134.28 547.845 134.715 547.7C135.151 547.54 135.535 547.301 135.869 546.982C136.202 546.648 136.471 546.22 136.674 545.698C136.891 545.175 137 544.537 137 543.783V543.348C137 542.651 136.891 542.056 136.674 541.563C136.471 541.07 136.202 540.664 135.869 540.345C135.535 540.025 135.151 539.793 134.715 539.648C134.28 539.503 133.845 539.431 133.41 539.431C132.975 539.431 132.539 539.503 132.104 539.648C131.669 539.793 131.285 540.025 130.951 540.345C130.617 540.664 130.342 541.07 130.124 541.563C129.921 542.056 129.819 542.651 129.819 543.348V543.783C129.819 544.537 129.921 545.175 130.124 545.698C130.342 546.22 130.617 546.648 130.951 546.982C131.285 547.301 131.669 547.54 132.104 547.7C132.539 547.845 132.975 547.917 133.41 547.917ZM141.67 537.907H143.716L147.828 545.088L151.941 537.907H153.856V549.44H151.941V541.063L148.525 546.938H147.002L143.585 541.063V549.44H141.67V537.907ZM157.332 537.907H166.906V549.44H164.991V539.605H159.247V549.44H157.332V537.907ZM175.167 549.658C174.427 549.658 173.723 549.542 173.056 549.31C172.389 549.078 171.801 548.722 171.293 548.244C170.786 547.75 170.379 547.134 170.075 546.394C169.77 545.654 169.618 544.784 169.618 543.783V543.348C169.618 542.39 169.763 541.563 170.053 540.867C170.343 540.156 170.728 539.568 171.206 539.104C171.7 538.626 172.265 538.27 172.904 538.038C173.556 537.806 174.238 537.69 174.949 537.69C176.646 537.69 177.959 538.154 178.888 539.083C179.816 540.011 180.28 541.324 180.28 543.021V544.24H171.533C171.533 544.922 171.642 545.495 171.859 545.959C172.077 546.423 172.36 546.8 172.708 547.09C173.056 547.38 173.44 547.591 173.861 547.721C174.296 547.852 174.732 547.917 175.167 547.917C176.037 547.917 176.704 547.772 177.169 547.482C177.647 547.192 177.988 546.793 178.191 546.285H180.063C179.947 546.836 179.736 547.322 179.432 547.743C179.142 548.164 178.779 548.519 178.344 548.809C177.923 549.085 177.437 549.295 176.886 549.44C176.349 549.585 175.776 549.658 175.167 549.658ZM175.058 539.431C174.608 539.431 174.173 539.496 173.752 539.627C173.332 539.743 172.954 539.938 172.621 540.214C172.302 540.475 172.04 540.809 171.837 541.215C171.634 541.621 171.533 542.107 171.533 542.673H178.474C178.46 542.078 178.358 541.578 178.17 541.171C177.996 540.751 177.756 540.417 177.452 540.171C177.147 539.909 176.784 539.721 176.364 539.605C175.957 539.489 175.522 539.431 175.058 539.431ZM183.002 537.907H184.917V542.716H190.879V537.907H192.794V549.44H190.879V544.414H184.917V549.44H183.002V537.907ZM200.744 549.658C200.005 549.658 199.316 549.542 198.677 549.31C198.039 549.063 197.488 548.701 197.023 548.222C196.559 547.729 196.189 547.112 195.914 546.372C195.653 545.632 195.522 544.769 195.522 543.783V543.348C195.522 542.419 195.667 541.599 195.957 540.889C196.247 540.178 196.632 539.59 197.11 539.126C197.589 538.647 198.14 538.292 198.764 538.06C199.403 537.813 200.063 537.69 200.744 537.69C201.426 537.69 202.036 537.784 202.572 537.973C203.124 538.161 203.595 538.422 203.987 538.756C204.393 539.09 204.719 539.481 204.966 539.931C205.227 540.381 205.416 540.867 205.532 541.389H203.573C203.457 541.113 203.319 540.86 203.16 540.627C203.015 540.381 202.826 540.171 202.594 539.996C202.376 539.822 202.115 539.685 201.811 539.583C201.506 539.481 201.151 539.431 200.744 539.431C200.324 539.431 199.918 539.51 199.526 539.67C199.134 539.815 198.786 540.047 198.481 540.366C198.177 540.671 197.93 541.07 197.742 541.563C197.567 542.056 197.48 542.651 197.48 543.348V543.783C197.48 544.523 197.567 545.161 197.742 545.698C197.93 546.22 198.177 546.648 198.481 546.982C198.786 547.301 199.134 547.54 199.526 547.7C199.918 547.845 200.324 547.917 200.744 547.917C201.455 547.917 202.05 547.743 202.529 547.395C203.022 547.047 203.37 546.568 203.573 545.959H205.532C205.256 547.105 204.69 548.012 203.834 548.679C202.979 549.332 201.949 549.658 200.744 549.658ZM208.141 537.907H210.056V546.612L216.019 537.907H217.933V549.44H216.019V540.736L210.056 549.44H208.141V537.907ZM221.423 537.907H223.207V540.083C223.599 539.315 224.143 538.727 224.839 538.321C225.55 537.9 226.37 537.69 227.298 537.69C228.749 537.69 229.909 538.169 230.78 539.126C231.65 540.069 232.085 541.476 232.085 543.348V543.783C232.085 544.769 231.969 545.632 231.737 546.372C231.505 547.098 231.179 547.707 230.758 548.2C230.337 548.679 229.829 549.041 229.235 549.288C228.654 549.535 228.009 549.658 227.298 549.658C226.312 549.658 225.485 549.44 224.817 549.005C224.165 548.57 223.671 548.026 223.338 547.373V553.792H221.423V537.907ZM226.863 547.961C227.327 547.961 227.762 547.874 228.168 547.7C228.575 547.511 228.923 547.243 229.213 546.894C229.518 546.546 229.75 546.111 229.909 545.589C230.083 545.067 230.17 544.465 230.17 543.783V543.348C230.17 542.724 230.083 542.165 229.909 541.672C229.75 541.179 229.518 540.765 229.213 540.432C228.923 540.083 228.575 539.822 228.168 539.648C227.762 539.474 227.327 539.387 226.863 539.387C226.341 539.387 225.862 539.474 225.427 539.648C224.991 539.808 224.622 540.04 224.317 540.345C224.012 540.635 223.773 540.983 223.599 541.389C223.425 541.795 223.338 542.231 223.338 542.695V544.436C223.338 544.958 223.425 545.437 223.599 545.872C223.773 546.307 224.012 546.677 224.317 546.982C224.622 547.286 224.991 547.526 225.427 547.7C225.862 547.874 226.341 547.961 226.863 547.961ZM239.598 549.658C238.858 549.658 238.154 549.542 237.487 549.31C236.82 549.063 236.232 548.701 235.724 548.222C235.217 547.729 234.81 547.112 234.506 546.372C234.201 545.632 234.049 544.769 234.049 543.783V543.348C234.049 542.419 234.201 541.599 234.506 540.889C234.81 540.178 235.217 539.59 235.724 539.126C236.232 538.647 236.82 538.292 237.487 538.06C238.154 537.813 238.858 537.69 239.598 537.69C240.338 537.69 241.041 537.813 241.709 538.06C242.376 538.292 242.963 538.647 243.471 539.126C243.979 539.59 244.385 540.178 244.69 540.889C244.994 541.599 245.147 542.419 245.147 543.348V543.783C245.147 544.769 244.994 545.632 244.69 546.372C244.385 547.112 243.979 547.729 243.471 548.222C242.963 548.701 242.376 549.063 241.709 549.31C241.041 549.542 240.338 549.658 239.598 549.658ZM239.598 547.917C240.033 547.917 240.468 547.845 240.903 547.7C241.339 547.54 241.723 547.301 242.057 546.982C242.39 546.648 242.659 546.22 242.862 545.698C243.079 545.175 243.188 544.537 243.188 543.783V543.348C243.188 542.651 243.079 542.056 242.862 541.563C242.659 541.07 242.39 540.664 242.057 540.345C241.723 540.025 241.339 539.793 240.903 539.648C240.468 539.503 240.033 539.431 239.598 539.431C239.163 539.431 238.727 539.503 238.292 539.648C237.857 539.793 237.472 540.025 237.139 540.345C236.805 540.664 236.53 541.07 236.312 541.563C236.109 542.056 236.007 542.651 236.007 543.348V543.783C236.007 544.537 236.109 545.175 236.312 545.698C236.53 546.22 236.805 546.648 237.139 546.982C237.472 547.301 237.857 547.54 238.292 547.7C238.727 547.845 239.163 547.917 239.598 547.917ZM247.858 537.907H252.863C254.285 537.907 255.329 538.205 255.997 538.8C256.664 539.38 256.998 540.134 256.998 541.063C256.998 541.309 256.954 541.563 256.867 541.824C256.78 542.071 256.657 542.303 256.497 542.521C256.352 542.738 256.171 542.927 255.953 543.086C255.75 543.246 255.518 543.369 255.257 543.456C255.968 543.63 256.504 543.964 256.867 544.457C257.244 544.936 257.433 545.502 257.433 546.155C257.433 547.156 257.099 547.953 256.432 548.548C255.764 549.143 254.72 549.44 253.298 549.44H247.858V537.907ZM253.298 547.743C254.111 547.743 254.684 547.598 255.017 547.308C255.351 547.018 255.518 546.604 255.518 546.068C255.518 545.516 255.351 545.096 255.017 544.805C254.684 544.501 254.111 544.349 253.298 544.349H249.773V547.743H253.298ZM252.863 542.782C253.69 542.782 254.263 542.637 254.582 542.347C254.916 542.056 255.083 541.657 255.083 541.15C255.083 540.671 254.916 540.294 254.582 540.018C254.263 539.743 253.69 539.605 252.863 539.605H249.773V542.782H252.863ZM263.448 549.658C262.81 549.658 262.244 549.571 261.751 549.397C261.272 549.208 260.866 548.954 260.532 548.635C260.198 548.316 259.945 547.939 259.77 547.504C259.596 547.069 259.509 546.59 259.509 546.068C259.509 544.922 259.843 544.095 260.51 543.587C261.192 543.079 262.164 542.825 263.426 542.825H267.169V542.042C267.169 541.055 266.944 540.374 266.494 539.996C266.059 539.619 265.399 539.431 264.514 539.431C263.687 539.431 263.085 539.59 262.708 539.909C262.331 540.214 262.121 540.562 262.077 540.954H260.162C260.191 540.49 260.314 540.062 260.532 539.67C260.764 539.264 261.069 538.916 261.446 538.626C261.838 538.335 262.302 538.111 262.839 537.951C263.375 537.777 263.97 537.69 264.623 537.69C265.987 537.69 267.067 538.016 267.865 538.669C268.678 539.307 269.084 540.359 269.084 541.824V546.503C269.084 547.112 269.084 547.649 269.084 548.113C269.098 548.563 269.135 549.005 269.193 549.44H267.517C267.474 549.107 267.445 548.795 267.43 548.505C267.416 548.2 267.408 547.859 267.408 547.482C267.104 548.091 266.61 548.606 265.929 549.027C265.247 549.448 264.42 549.658 263.448 549.658ZM263.861 547.917C264.311 547.917 264.732 547.859 265.123 547.743C265.53 547.613 265.885 547.431 266.19 547.199C266.494 546.952 266.734 546.655 266.908 546.307C267.082 545.959 267.169 545.553 267.169 545.088V544.305H263.753C263.042 544.305 262.483 544.45 262.077 544.74C261.671 545.016 261.468 545.458 261.468 546.068C261.468 546.604 261.656 547.047 262.034 547.395C262.425 547.743 263.034 547.917 263.861 547.917ZM272.466 537.907H274.381V542.716H280.343V537.907H282.258V549.44H280.343V544.414H274.381V549.44H272.466V537.907ZM285.748 537.907H287.662V542.716H293.625V537.907H295.54V549.44H293.625V544.414H287.662V549.44H285.748V537.907ZM299.029 537.907H300.944V542.26H303.272C304.723 542.26 305.789 542.579 306.471 543.217C307.167 543.855 307.516 544.74 307.516 545.872C307.516 546.974 307.167 547.845 306.471 548.483C305.789 549.121 304.723 549.44 303.272 549.44H299.029V537.907ZM303.163 547.743C304.063 547.743 304.694 547.584 305.057 547.264C305.419 546.945 305.601 546.474 305.601 545.85C305.601 545.226 305.419 544.755 305.057 544.436C304.694 544.116 304.063 543.957 303.163 543.957H300.944V547.743H303.163ZM309.3 537.907H311.215V549.44H309.3V537.907ZM314.691 537.907H316.605V546.612L322.568 537.907H324.483V549.44H322.568V540.736L316.605 549.44H314.691V537.907ZM319.587 536.493C318.455 536.493 317.628 536.254 317.106 535.775C316.584 535.282 316.323 534.578 316.323 533.664H318.194C318.194 534.651 318.658 535.144 319.587 535.144C320.544 535.144 321.023 534.651 321.023 533.664H322.851C322.851 534.578 322.59 535.282 322.067 535.775C321.545 536.254 320.718 536.493 319.587 536.493ZM333.412 537.907H342.987V549.44H341.072V539.605H335.327V549.44H333.412V537.907ZM351.247 549.658C350.507 549.658 349.804 549.542 349.136 549.31C348.469 549.063 347.881 548.701 347.374 548.222C346.866 547.729 346.46 547.112 346.155 546.372C345.85 545.632 345.698 544.769 345.698 543.783V543.348C345.698 542.419 345.85 541.599 346.155 540.889C346.46 540.178 346.866 539.59 347.374 539.126C347.881 538.647 348.469 538.292 349.136 538.06C349.804 537.813 350.507 537.69 351.247 537.69C351.987 537.69 352.69 537.813 353.358 538.06C354.025 538.292 354.613 538.647 355.12 539.126C355.628 539.59 356.034 540.178 356.339 540.889C356.644 541.599 356.796 542.419 356.796 543.348V543.783C356.796 544.769 356.644 545.632 356.339 546.372C356.034 547.112 355.628 547.729 355.12 548.222C354.613 548.701 354.025 549.063 353.358 549.31C352.69 549.542 351.987 549.658 351.247 549.658ZM351.247 547.917C351.682 547.917 352.117 547.845 352.553 547.7C352.988 547.54 353.372 547.301 353.706 546.982C354.04 546.648 354.308 546.22 354.511 545.698C354.729 545.175 354.837 544.537 354.837 543.783V543.348C354.837 542.651 354.729 542.056 354.511 541.563C354.308 541.07 354.04 540.664 353.706 540.345C353.372 540.025 352.988 539.793 352.553 539.648C352.117 539.503 351.682 539.431 351.247 539.431C350.812 539.431 350.377 539.503 349.941 539.648C349.506 539.793 349.122 540.025 348.788 540.345C348.454 540.664 348.179 541.07 347.961 541.563C347.758 542.056 347.657 542.651 347.657 543.348V543.783C347.657 544.537 347.758 545.175 347.961 545.698C348.179 546.22 348.454 546.648 348.788 546.982C349.122 547.301 349.506 547.54 349.941 547.7C350.377 547.845 350.812 547.917 351.247 547.917ZM361.928 539.605H357.989V537.907H367.782V539.605H363.843V549.44H361.928V539.605ZM374.537 549.658C373.798 549.658 373.094 549.542 372.427 549.31C371.759 549.063 371.172 548.701 370.664 548.222C370.156 547.729 369.75 547.112 369.445 546.372C369.141 545.632 368.989 544.769 368.989 543.783V543.348C368.989 542.419 369.141 541.599 369.445 540.889C369.75 540.178 370.156 539.59 370.664 539.126C371.172 538.647 371.759 538.292 372.427 538.06C373.094 537.813 373.798 537.69 374.537 537.69C375.277 537.69 375.981 537.813 376.648 538.06C377.315 538.292 377.903 538.647 378.411 539.126C378.918 539.59 379.325 540.178 379.629 540.889C379.934 541.599 380.086 542.419 380.086 543.348V543.783C380.086 544.769 379.934 545.632 379.629 546.372C379.325 547.112 378.918 547.729 378.411 548.222C377.903 548.701 377.315 549.063 376.648 549.31C375.981 549.542 375.277 549.658 374.537 549.658ZM374.537 547.917C374.973 547.917 375.408 547.845 375.843 547.7C376.278 547.54 376.663 547.301 376.996 546.982C377.33 546.648 377.598 546.22 377.801 545.698C378.019 545.175 378.128 544.537 378.128 543.783V543.348C378.128 542.651 378.019 542.056 377.801 541.563C377.598 541.07 377.33 540.664 376.996 540.345C376.663 540.025 376.278 539.793 375.843 539.648C375.408 539.503 374.973 539.431 374.537 539.431C374.102 539.431 373.667 539.503 373.232 539.648C372.797 539.793 372.412 540.025 372.078 540.345C371.745 540.664 371.469 541.07 371.252 541.563C371.049 542.056 370.947 542.651 370.947 543.348V543.783C370.947 544.537 371.049 545.175 371.252 545.698C371.469 546.22 371.745 546.648 372.078 546.982C372.412 547.301 372.797 547.54 373.232 547.7C373.667 547.845 374.102 547.917 374.537 547.917ZM382.798 537.907H384.713V542.738H386.236L390.545 537.907H392.808L387.803 543.435L393.025 549.44H390.588L386.236 544.392H384.713V549.44H382.798V537.907ZM395.853 549.44V547.047H398.247V549.44L396.071 552.704H394.983L395.853 549.44ZM412.278 549.658C411.538 549.658 410.835 549.542 410.167 549.31C409.5 549.063 408.912 548.701 408.405 548.222C407.897 547.729 407.491 547.112 407.186 546.372C406.881 545.632 406.729 544.769 406.729 543.783V543.348C406.729 542.419 406.881 541.599 407.186 540.889C407.491 540.178 407.897 539.59 408.405 539.126C408.912 538.647 409.5 538.292 410.167 538.06C410.835 537.813 411.538 537.69 412.278 537.69C413.018 537.69 413.721 537.813 414.389 538.06C415.056 538.292 415.644 538.647 416.151 539.126C416.659 539.59 417.065 540.178 417.37 540.889C417.675 541.599 417.827 542.419 417.827 543.348V543.783C417.827 544.769 417.675 545.632 417.37 546.372C417.065 547.112 416.659 547.729 416.151 548.222C415.644 548.701 415.056 549.063 414.389 549.31C413.721 549.542 413.018 549.658 412.278 549.658ZM412.278 547.917C412.713 547.917 413.148 547.845 413.584 547.7C414.019 547.54 414.403 547.301 414.737 546.982C415.071 546.648 415.339 546.22 415.542 545.698C415.76 545.175 415.868 544.537 415.868 543.783V543.348C415.868 542.651 415.76 542.056 415.542 541.563C415.339 541.07 415.071 540.664 414.737 540.345C414.403 540.025 414.019 539.793 413.584 539.648C413.148 539.503 412.713 539.431 412.278 539.431C411.843 539.431 411.408 539.503 410.972 539.648C410.537 539.793 410.153 540.025 409.819 540.345C409.485 540.664 409.21 541.07 408.992 541.563C408.789 542.056 408.688 542.651 408.688 543.348V543.783C408.688 544.537 408.789 545.175 408.992 545.698C409.21 546.22 409.485 546.648 409.819 546.982C410.153 547.301 410.537 547.54 410.972 547.7C411.408 547.845 411.843 547.917 412.278 547.917ZM422.959 539.605H419.02V537.907H428.812V539.605H424.874V549.44H422.959V539.605ZM430.994 537.907H440.568V549.44H438.653V539.605H432.909V549.44H430.994V537.907ZM444.041 537.907H445.826V540.083C446.217 539.315 446.761 538.727 447.458 538.321C448.169 537.9 448.988 537.69 449.917 537.69C451.367 537.69 452.528 538.169 453.398 539.126C454.269 540.069 454.704 541.476 454.704 543.348V543.783C454.704 544.769 454.588 545.632 454.356 546.372C454.124 547.098 453.797 547.707 453.377 548.2C452.956 548.679 452.448 549.041 451.853 549.288C451.273 549.535 450.627 549.658 449.917 549.658C448.93 549.658 448.103 549.44 447.436 549.005C446.783 548.57 446.29 548.026 445.956 547.373V553.792H444.041V537.907ZM449.481 547.961C449.946 547.961 450.381 547.874 450.787 547.7C451.193 547.511 451.541 547.243 451.832 546.894C452.136 546.546 452.368 546.111 452.528 545.589C452.702 545.067 452.789 544.465 452.789 543.783V543.348C452.789 542.724 452.702 542.165 452.528 541.672C452.368 541.179 452.136 540.765 451.832 540.432C451.541 540.083 451.193 539.822 450.787 539.648C450.381 539.474 449.946 539.387 449.481 539.387C448.959 539.387 448.48 539.474 448.045 539.648C447.61 539.808 447.24 540.04 446.935 540.345C446.631 540.635 446.391 540.983 446.217 541.389C446.043 541.795 445.956 542.231 445.956 542.695V544.436C445.956 544.958 446.043 545.437 446.217 545.872C446.391 546.307 446.631 546.677 446.935 546.982C447.24 547.286 447.61 547.526 448.045 547.7C448.48 547.874 448.959 547.961 449.481 547.961ZM460.715 549.658C460.077 549.658 459.511 549.571 459.018 549.397C458.539 549.208 458.133 548.954 457.799 548.635C457.465 548.316 457.211 547.939 457.037 547.504C456.863 547.069 456.776 546.59 456.776 546.068C456.776 544.922 457.11 544.095 457.777 543.587C458.459 543.079 459.431 542.825 460.693 542.825H464.436V542.042C464.436 541.055 464.211 540.374 463.761 539.996C463.326 539.619 462.666 539.431 461.781 539.431C460.954 539.431 460.352 539.59 459.975 539.909C459.598 540.214 459.387 540.562 459.344 540.954H457.429C457.458 540.49 457.581 540.062 457.799 539.67C458.031 539.264 458.336 538.916 458.713 538.626C459.105 538.335 459.569 538.111 460.106 537.951C460.642 537.777 461.237 537.69 461.89 537.69C463.254 537.69 464.334 538.016 465.132 538.669C465.945 539.307 466.351 540.359 466.351 541.824V546.503C466.351 547.112 466.351 547.649 466.351 548.113C466.365 548.563 466.402 549.005 466.46 549.44H464.784C464.741 549.107 464.711 548.795 464.697 548.505C464.682 548.2 464.675 547.859 464.675 547.482C464.371 548.091 463.877 548.606 463.196 549.027C462.514 549.448 461.687 549.658 460.715 549.658ZM461.128 547.917C461.578 547.917 461.999 547.859 462.39 547.743C462.797 547.613 463.152 547.431 463.457 547.199C463.761 546.952 464.001 546.655 464.175 546.307C464.349 545.959 464.436 545.553 464.436 545.088V544.305H461.019C460.309 544.305 459.75 544.45 459.344 544.74C458.938 545.016 458.735 545.458 458.735 546.068C458.735 546.604 458.923 547.047 459.3 547.395C459.692 547.743 460.301 547.917 461.128 547.917ZM469.733 537.907H474.738C476.16 537.907 477.204 538.205 477.871 538.8C478.539 539.38 478.872 540.134 478.872 541.063C478.872 541.309 478.829 541.563 478.742 541.824C478.655 542.071 478.531 542.303 478.372 542.521C478.227 542.738 478.045 542.927 477.828 543.086C477.625 543.246 477.393 543.369 477.132 543.456C477.842 543.63 478.379 543.964 478.742 544.457C479.119 544.936 479.308 545.502 479.308 546.155C479.308 547.156 478.974 547.953 478.307 548.548C477.639 549.143 476.595 549.44 475.173 549.44H469.733V537.907ZM475.173 547.743C475.985 547.743 476.558 547.598 476.892 547.308C477.226 547.018 477.393 546.604 477.393 546.068C477.393 545.516 477.226 545.096 476.892 544.805C476.558 544.501 475.985 544.349 475.173 544.349H471.648V547.743H475.173ZM474.738 542.782C475.565 542.782 476.138 542.637 476.457 542.347C476.791 542.056 476.957 541.657 476.957 541.15C476.957 540.671 476.791 540.294 476.457 540.018C476.138 539.743 475.565 539.605 474.738 539.605H471.648V542.782H474.738ZM481.493 549.658C481.275 549.658 481.058 549.636 480.84 549.593V547.678C480.913 547.692 481.021 547.7 481.167 547.7C481.486 547.7 481.761 547.598 481.993 547.395C482.24 547.192 482.436 546.836 482.581 546.329C482.726 545.821 482.835 545.132 482.907 544.261C482.98 543.391 483.016 542.289 483.016 540.954V537.907H491.285V549.44H489.37V539.605H484.931V541.389C484.931 542.999 484.859 544.334 484.713 545.393C484.568 546.452 484.351 547.301 484.061 547.939C483.785 548.563 483.43 549.005 482.994 549.266C482.559 549.527 482.059 549.658 481.493 549.658ZM499.553 549.658C498.813 549.658 498.11 549.542 497.442 549.31C496.775 549.078 496.188 548.722 495.68 548.244C495.172 547.75 494.766 547.134 494.461 546.394C494.157 545.654 494.004 544.784 494.004 543.783V543.348C494.004 542.39 494.149 541.563 494.439 540.867C494.73 540.156 495.114 539.568 495.593 539.104C496.086 538.626 496.652 538.27 497.29 538.038C497.943 537.806 498.625 537.69 499.336 537.69C501.033 537.69 502.346 538.154 503.274 539.083C504.203 540.011 504.667 541.324 504.667 543.021V544.24H495.919C495.919 544.922 496.028 545.495 496.246 545.959C496.463 546.423 496.746 546.8 497.094 547.09C497.442 547.38 497.827 547.591 498.248 547.721C498.683 547.852 499.118 547.917 499.553 547.917C500.424 547.917 501.091 547.772 501.555 547.482C502.034 547.192 502.375 546.793 502.578 546.285H504.449C504.333 546.836 504.123 547.322 503.818 547.743C503.528 548.164 503.165 548.519 502.73 548.809C502.309 549.085 501.823 549.295 501.272 549.44C500.735 549.585 500.162 549.658 499.553 549.658ZM499.444 539.431C498.995 539.431 498.559 539.496 498.139 539.627C497.718 539.743 497.341 539.938 497.007 540.214C496.688 540.475 496.427 540.809 496.224 541.215C496.021 541.621 495.919 542.107 495.919 542.673H502.861C502.846 542.078 502.745 541.578 502.556 541.171C502.382 540.751 502.143 540.417 501.838 540.171C501.533 539.909 501.171 539.721 500.75 539.605C500.344 539.489 499.909 539.431 499.444 539.431ZM507.389 537.907H509.304V542.716H515.266V537.907H517.181V549.44H515.266V544.414H509.304V549.44H507.389V537.907ZM520.67 537.907H522.585V542.716H528.547V537.907H530.462V549.44H528.547V544.414H522.585V549.44H520.67V537.907ZM533.952 537.907H535.866V542.26H538.195C539.645 542.26 540.712 542.579 541.394 543.217C542.09 543.855 542.438 544.74 542.438 545.872C542.438 546.974 542.09 547.845 541.394 548.483C540.712 549.121 539.645 549.44 538.195 549.44H533.952V537.907ZM538.086 547.743C538.985 547.743 539.616 547.584 539.979 547.264C540.342 546.945 540.523 546.474 540.523 545.85C540.523 545.226 540.342 544.755 539.979 544.436C539.616 544.116 538.985 543.957 538.086 543.957H535.866V547.743H538.086ZM544.222 537.907H546.137V549.44H544.222V537.907ZM549.613 537.907H551.528V546.612L557.49 537.907H559.405V549.44H557.49V540.736L551.528 549.44H549.613V537.907ZM554.509 536.493C553.378 536.493 552.551 536.254 552.028 535.775C551.506 535.282 551.245 534.578 551.245 533.664H553.116C553.116 534.651 553.581 535.144 554.509 535.144C555.467 535.144 555.945 534.651 555.945 533.664H557.773C557.773 534.578 557.512 535.282 556.99 535.775C556.468 536.254 555.641 536.493 554.509 536.493ZM568.335 537.907H570.249V542.716H576.212V537.907H578.127V549.44H576.212V544.414H570.249V549.44H568.335V537.907ZM584.902 549.658C584.264 549.658 583.698 549.571 583.205 549.397C582.726 549.208 582.32 548.954 581.986 548.635C581.652 548.316 581.398 547.939 581.224 547.504C581.05 547.069 580.963 546.59 580.963 546.068C580.963 544.922 581.297 544.095 581.964 543.587C582.646 543.079 583.618 542.825 584.88 542.825H588.623V542.042C588.623 541.055 588.398 540.374 587.948 539.996C587.513 539.619 586.853 539.431 585.968 539.431C585.141 539.431 584.539 539.59 584.162 539.909C583.785 540.214 583.574 540.562 583.531 540.954H581.616C581.645 540.49 581.768 540.062 581.986 539.67C582.218 539.264 582.523 538.916 582.9 538.626C583.292 538.335 583.756 538.111 584.293 537.951C584.829 537.777 585.424 537.69 586.077 537.69C587.441 537.69 588.521 538.016 589.319 538.669C590.132 539.307 590.538 540.359 590.538 541.824V546.503C590.538 547.112 590.538 547.649 590.538 548.113C590.552 548.563 590.589 549.005 590.647 549.44H588.971C588.928 549.107 588.899 548.795 588.884 548.505C588.869 548.2 588.862 547.859 588.862 547.482C588.558 548.091 588.064 548.606 587.383 549.027C586.701 549.448 585.874 549.658 584.902 549.658ZM585.315 547.917C585.765 547.917 586.186 547.859 586.577 547.743C586.984 547.613 587.339 547.431 587.644 547.199C587.948 546.952 588.188 546.655 588.362 546.307C588.536 545.959 588.623 545.553 588.623 545.088V544.305H585.206C584.496 544.305 583.937 544.45 583.531 544.74C583.125 545.016 582.922 545.458 582.922 546.068C582.922 546.604 583.11 547.047 583.487 547.395C583.879 547.743 584.488 547.917 585.315 547.917ZM599.36 537.907H601.275V546.612L607.237 537.907H609.152V549.44H607.237V540.736L601.275 549.44H599.36V537.907ZM617.102 549.658C616.363 549.658 615.673 549.542 615.035 549.31C614.397 549.063 613.846 548.701 613.381 548.222C612.917 547.729 612.547 547.112 612.272 546.372C612.01 545.632 611.88 544.769 611.88 543.783V543.348C611.88 542.419 612.025 541.599 612.315 540.889C612.605 540.178 612.99 539.59 613.468 539.126C613.947 538.647 614.498 538.292 615.122 538.06C615.761 537.813 616.421 537.69 617.102 537.69C617.784 537.69 618.394 537.784 618.93 537.973C619.482 538.161 619.953 538.422 620.345 538.756C620.751 539.09 621.077 539.481 621.324 539.931C621.585 540.381 621.774 540.867 621.89 541.389H619.931C619.815 541.113 619.677 540.86 619.518 540.627C619.373 540.381 619.184 540.171 618.952 539.996C618.734 539.822 618.473 539.685 618.169 539.583C617.864 539.481 617.509 539.431 617.102 539.431C616.682 539.431 616.276 539.51 615.884 539.67C615.492 539.815 615.144 540.047 614.839 540.366C614.535 540.671 614.288 541.07 614.099 541.563C613.925 542.056 613.838 542.651 613.838 543.348V543.783C613.838 544.523 613.925 545.161 614.099 545.698C614.288 546.22 614.535 546.648 614.839 546.982C615.144 547.301 615.492 547.54 615.884 547.7C616.276 547.845 616.682 547.917 617.102 547.917C617.813 547.917 618.408 547.743 618.887 547.395C619.38 547.047 619.728 546.568 619.931 545.959H621.89C621.614 547.105 621.048 548.012 620.192 548.679C619.336 549.332 618.306 549.658 617.102 549.658ZM627.42 543.587L623.308 537.907H625.527L628.574 542.107L631.62 537.907H633.752L629.64 543.478L633.97 549.44H631.707L628.486 544.936L625.266 549.44H623.09L627.42 543.587ZM640.613 549.658C639.873 549.658 639.17 549.542 638.502 549.31C637.835 549.063 637.247 548.701 636.74 548.222C636.232 547.729 635.826 547.112 635.521 546.372C635.216 545.632 635.064 544.769 635.064 543.783V543.348C635.064 542.419 635.216 541.599 635.521 540.889C635.826 540.178 636.232 539.59 636.74 539.126C637.247 538.647 637.835 538.292 638.502 538.06C639.17 537.813 639.873 537.69 640.613 537.69C641.353 537.69 642.056 537.813 642.724 538.06C643.391 538.292 643.979 538.647 644.486 539.126C644.994 539.59 645.4 540.178 645.705 540.889C646.01 541.599 646.162 542.419 646.162 543.348V543.783C646.162 544.769 646.01 545.632 645.705 546.372C645.4 547.112 644.994 547.729 644.486 548.222C643.979 548.701 643.391 549.063 642.724 549.31C642.056 549.542 641.353 549.658 640.613 549.658ZM640.613 547.917C641.048 547.917 641.483 547.845 641.919 547.7C642.354 547.54 642.738 547.301 643.072 546.982C643.406 546.648 643.674 546.22 643.877 545.698C644.095 545.175 644.203 544.537 644.203 543.783V543.348C644.203 542.651 644.095 542.056 643.877 541.563C643.674 541.07 643.406 540.664 643.072 540.345C642.738 540.025 642.354 539.793 641.919 539.648C641.483 539.503 641.048 539.431 640.613 539.431C640.178 539.431 639.743 539.503 639.307 539.648C638.872 539.793 638.488 540.025 638.154 540.345C637.82 540.664 637.545 541.07 637.327 541.563C637.124 542.056 637.022 542.651 637.022 543.348V543.783C637.022 544.537 637.124 545.175 637.327 545.698C637.545 546.22 637.82 546.648 638.154 546.982C638.488 547.301 638.872 547.54 639.307 547.7C639.743 547.845 640.178 547.917 640.613 547.917ZM647.355 547.743H648.77C648.929 547.526 649.074 547.192 649.205 546.742C649.335 546.292 649.451 545.763 649.553 545.154C649.655 544.544 649.727 543.884 649.771 543.173C649.829 542.448 649.858 541.708 649.858 540.954V537.907H657.909V547.743H659.541V552.16H657.713V549.44H649.183V552.16H647.355V547.743ZM655.994 547.743V539.605H651.729V541.389C651.729 541.998 651.707 542.608 651.664 543.217C651.62 543.812 651.555 544.385 651.468 544.936C651.381 545.473 651.272 545.988 651.142 546.481C651.025 546.96 650.888 547.38 650.728 547.743H655.994ZM664.312 544.871C663.354 544.653 662.665 544.261 662.244 543.696C661.824 543.115 661.613 542.376 661.613 541.476C661.613 540.345 661.954 539.467 662.636 538.843C663.332 538.219 664.442 537.907 665.965 537.907H670.97V549.44H669.055V545.045H666.118L663.311 549.44H661.178L664.312 544.871ZM663.528 541.476C663.528 542.085 663.702 542.55 664.051 542.869C664.413 543.188 665.015 543.348 665.857 543.348H669.055V539.605H665.857C665.015 539.605 664.413 539.764 664.051 540.083C663.702 540.403 663.528 540.867 663.528 541.476ZM688.625 549.44H674.459V537.907H676.374V547.743H680.573V537.907H682.488V547.743H686.688V537.907H688.603V547.743H690.453V552.16H688.625V549.44ZM692.734 537.907H694.649V546.612L700.611 537.907H702.526V549.44H700.611V540.736L694.649 549.44H692.734V537.907ZM706.016 537.907H707.93V546.612L713.893 537.907H715.808V549.44H713.893V540.736L707.93 549.44H706.016V537.907ZM710.912 536.493C709.78 536.493 708.953 536.254 708.431 535.775C707.909 535.282 707.648 534.578 707.648 533.664H709.519C709.519 534.651 709.983 535.144 710.912 535.144C711.869 535.144 712.348 534.651 712.348 533.664H714.176C714.176 534.578 713.915 535.282 713.392 535.775C712.87 536.254 712.043 536.493 710.912 536.493ZM724.737 537.907H726.652V546.612L732.614 537.907H734.529V549.44H732.614V540.736L726.652 549.44H724.737V537.907ZM738.019 537.907H739.933V542.716H745.896V537.907H747.811V549.44H745.896V544.414H739.933V549.44H738.019V537.907ZM753.933 539.605H749.994V537.907H759.787V539.605H755.848V549.44H753.933V539.605ZM766.542 549.658C765.803 549.658 765.099 549.542 764.432 549.31C763.764 549.078 763.177 548.722 762.669 548.244C762.161 547.75 761.755 547.134 761.451 546.394C761.146 545.654 760.994 544.784 760.994 543.783V543.348C760.994 542.39 761.139 541.563 761.429 540.867C761.719 540.156 762.103 539.568 762.582 539.104C763.075 538.626 763.641 538.27 764.279 538.038C764.932 537.806 765.614 537.69 766.325 537.69C768.022 537.69 769.335 538.154 770.263 539.083C771.192 540.011 771.656 541.324 771.656 543.021V544.24H762.908C762.908 544.922 763.017 545.495 763.235 545.959C763.452 546.423 763.735 546.8 764.084 547.09C764.432 547.38 764.816 547.591 765.237 547.721C765.672 547.852 766.107 547.917 766.542 547.917C767.413 547.917 768.08 547.772 768.544 547.482C769.023 547.192 769.364 546.793 769.567 546.285H771.439C771.322 546.836 771.112 547.322 770.807 547.743C770.517 548.164 770.155 548.519 769.719 548.809C769.299 549.085 768.813 549.295 768.262 549.44C767.725 549.585 767.152 549.658 766.542 549.658ZM766.434 539.431C765.984 539.431 765.549 539.496 765.128 539.627C764.707 539.743 764.33 539.938 763.996 540.214C763.677 540.475 763.416 540.809 763.213 541.215C763.01 541.621 762.908 542.107 762.908 542.673H769.85C769.836 542.078 769.734 541.578 769.545 541.171C769.371 540.751 769.132 540.417 768.827 540.171C768.523 539.909 768.16 539.721 767.739 539.605C767.333 539.489 766.898 539.431 766.434 539.431ZM774.378 537.907H776.162V540.083C776.554 539.315 777.098 538.727 777.794 538.321C778.505 537.9 779.325 537.69 780.253 537.69C781.704 537.69 782.864 538.169 783.735 539.126C784.605 540.069 785.04 541.476 785.04 543.348V543.783C785.04 544.769 784.924 545.632 784.692 546.372C784.46 547.098 784.134 547.707 783.713 548.2C783.292 548.679 782.785 549.041 782.19 549.288C781.61 549.535 780.964 549.658 780.253 549.658C779.267 549.658 778.44 549.44 777.772 549.005C777.12 548.57 776.626 548.026 776.293 547.373V553.792H774.378V537.907ZM779.818 547.961C780.282 547.961 780.717 547.874 781.124 547.7C781.53 547.511 781.878 547.243 782.168 546.894C782.473 546.546 782.705 546.111 782.864 545.589C783.038 545.067 783.126 544.465 783.126 543.783V543.348C783.126 542.724 783.038 542.165 782.864 541.672C782.705 541.179 782.473 540.765 782.168 540.432C781.878 540.083 781.53 539.822 781.124 539.648C780.717 539.474 780.282 539.387 779.818 539.387C779.296 539.387 778.817 539.474 778.382 539.648C777.947 539.808 777.577 540.04 777.272 540.345C776.967 540.635 776.728 540.983 776.554 541.389C776.38 541.795 776.293 542.231 776.293 542.695V544.436C776.293 544.958 776.38 545.437 776.554 545.872C776.728 546.307 776.967 546.677 777.272 546.982C777.577 547.286 777.947 547.526 778.382 547.7C778.817 547.874 779.296 547.961 779.818 547.961ZM793.119 549.658C791.117 549.658 789.593 549.15 788.549 548.135C787.519 547.119 787.004 545.676 787.004 543.804V543.369C787.004 541.585 787.519 540.192 788.549 539.191C789.593 538.19 791.117 537.69 793.119 537.69V534.208H795.034V537.69C797.036 537.69 798.551 538.19 799.581 539.191C800.626 540.192 801.148 541.585 801.148 543.369V543.804C801.148 545.676 800.626 547.119 799.581 548.135C798.551 549.15 797.036 549.658 795.034 549.658V553.792H793.119V549.658ZM799.19 543.369C799.19 542.049 798.849 541.063 798.167 540.41C797.5 539.757 796.448 539.431 795.012 539.431V547.917C796.448 547.917 797.5 547.584 798.167 546.916C798.849 546.249 799.19 545.212 799.19 543.804V543.369ZM788.962 543.804C788.962 545.212 789.296 546.249 789.963 546.916C790.645 547.584 791.704 547.917 793.14 547.917V539.431C791.704 539.431 790.645 539.757 789.963 540.41C789.296 541.063 788.962 542.049 788.962 543.369V543.804ZM808.661 549.658C807.921 549.658 807.217 549.542 806.55 549.31C805.883 549.078 805.295 548.722 804.787 548.244C804.28 547.75 803.873 547.134 803.569 546.394C803.264 545.654 803.112 544.784 803.112 543.783V543.348C803.112 542.39 803.257 541.563 803.547 540.867C803.837 540.156 804.222 539.568 804.7 539.104C805.193 538.626 805.759 538.27 806.398 538.038C807.05 537.806 807.732 537.69 808.443 537.69C810.14 537.69 811.453 538.154 812.382 539.083C813.31 540.011 813.774 541.324 813.774 543.021V544.24H805.027C805.027 544.922 805.135 545.495 805.353 545.959C805.571 546.423 805.854 546.8 806.202 547.09C806.55 547.38 806.934 547.591 807.355 547.721C807.79 547.852 808.225 547.917 808.661 547.917C809.531 547.917 810.198 547.772 810.663 547.482C811.141 547.192 811.482 546.793 811.685 546.285H813.557C813.441 546.836 813.23 547.322 812.926 547.743C812.636 548.164 812.273 548.519 811.838 548.809C811.417 549.085 810.931 549.295 810.38 549.44C809.843 549.585 809.27 549.658 808.661 549.658ZM808.552 539.431C808.102 539.431 807.667 539.496 807.246 539.627C806.825 539.743 806.448 539.938 806.115 540.214C805.795 540.475 805.534 540.809 805.331 541.215C805.128 541.621 805.027 542.107 805.027 542.673H811.968C811.954 542.078 811.852 541.578 811.664 541.171C811.489 540.751 811.25 540.417 810.945 540.171C810.641 539.909 810.278 539.721 809.857 539.605C809.451 539.489 809.016 539.431 808.552 539.431ZM816.496 537.907H818.411V546.612L824.373 537.907H826.288V549.44H824.373V540.736L818.411 549.44H816.496V537.907ZM821.392 536.493C820.261 536.493 819.434 536.254 818.911 535.775C818.389 535.282 818.128 534.578 818.128 533.664H819.999C819.999 534.651 820.464 535.144 821.392 535.144C822.35 535.144 822.828 534.651 822.828 533.664H824.656C824.656 534.578 824.395 535.282 823.873 535.775C823.351 536.254 822.524 536.493 821.392 536.493ZM834.238 549.658C833.499 549.658 832.809 549.542 832.171 549.31C831.533 549.063 830.982 548.701 830.517 548.222C830.053 547.729 829.683 547.112 829.408 546.372C829.146 545.632 829.016 544.769 829.016 543.783V543.348C829.016 542.419 829.161 541.599 829.451 540.889C829.741 540.178 830.126 539.59 830.604 539.126C831.083 538.647 831.634 538.292 832.258 538.06C832.896 537.813 833.557 537.69 834.238 537.69C834.92 537.69 835.529 537.784 836.066 537.973C836.618 538.161 837.089 538.422 837.481 538.756C837.887 539.09 838.213 539.481 838.46 539.931C838.721 540.381 838.91 540.867 839.026 541.389H837.067C836.951 541.113 836.813 540.86 836.654 540.627C836.509 540.381 836.32 540.171 836.088 539.996C835.87 539.822 835.609 539.685 835.305 539.583C835 539.481 834.645 539.431 834.238 539.431C833.818 539.431 833.411 539.51 833.02 539.67C832.628 539.815 832.28 540.047 831.975 540.366C831.671 540.671 831.424 541.07 831.235 541.563C831.061 542.056 830.974 542.651 830.974 543.348V543.783C830.974 544.523 831.061 545.161 831.235 545.698C831.424 546.22 831.671 546.648 831.975 546.982C832.28 547.301 832.628 547.54 833.02 547.7C833.411 547.845 833.818 547.917 834.238 547.917C834.949 547.917 835.544 547.743 836.023 547.395C836.516 547.047 836.864 546.568 837.067 545.959H839.026C838.75 547.105 838.184 548.012 837.328 548.679C836.472 549.332 835.442 549.658 834.238 549.658Z" fill="black"/>
<g clip-path="url(#clip0_1551_144614)">
<rect width="61.8504" height="45.3848" transform="matrix(-1 0 0 1 250.531 455.519)" fill="#FFDF6E"/>
<path d="M250.531 500.905L222.338 459.53C221.026 457.604 218.186 457.604 216.874 459.53L188.681 500.905" stroke="#E5C243" stroke-width="0.978325"/>
<path d="M250.531 463.572V455.29H219.606H188.681V463.572L217.764 483.09C218.878 483.838 220.334 483.838 221.448 483.09L250.531 463.572Z" fill="#FFDF6E"/>
<path d="M250.531 463.573L221.448 483.092C220.334 483.839 218.878 483.839 217.764 483.092L188.681 463.573" stroke="#E5C243" stroke-width="0.978325"/>
<path d="M250.246 500.516V459.73C250.246 457.539 248.47 455.763 246.279 455.763H186.851" stroke="#FFECA8" stroke-width="1.32228"/>
</g>
<g clip-path="url(#clip1_1551_144614)">
<rect width="61.8504" height="45.3848" transform="matrix(-1 0 0 1 351.531 455.519)" fill="#FFDF6E"/>
<path d="M351.531 500.905L323.338 459.53C322.026 457.604 319.186 457.604 317.874 459.53L289.681 500.905" stroke="#E5C243" stroke-width="0.978325"/>
<path d="M351.531 463.572V455.29H320.606H289.681V463.572L318.764 483.09C319.878 483.838 321.334 483.838 322.448 483.09L351.531 463.572Z" fill="#FFDF6E"/>
<path d="M351.531 463.573L322.448 483.092C321.334 483.839 319.878 483.839 318.764 483.092L289.681 463.573" stroke="#E5C243" stroke-width="0.978325"/>
<path d="M351.246 500.516V459.73C351.246 457.539 349.47 455.763 347.279 455.763H287.851" stroke="#FFECA8" stroke-width="1.32228"/>
</g>
<g clip-path="url(#clip2_1551_144614)">
<rect width="61.8504" height="45.3848" transform="matrix(-1 0 0 1 452.531 455.519)" fill="#FFDF6E"/>
<path d="M452.531 500.905L424.338 459.53C423.026 457.604 420.186 457.604 418.874 459.53L390.681 500.905" stroke="#E5C243" stroke-width="0.978325"/>
<path d="M452.531 463.572V455.29H421.606H390.681V463.572L419.764 483.09C420.878 483.838 422.334 483.838 423.448 483.09L452.531 463.572Z" fill="#FFDF6E"/>
<path d="M452.531 463.573L423.448 483.092C422.334 483.839 420.878 483.839 419.764 483.092L390.681 463.573" stroke="#E5C243" stroke-width="0.978325"/>
<path d="M452.246 500.516V459.73C452.246 457.539 450.47 455.763 448.279 455.763H388.851" stroke="#FFECA8" stroke-width="1.32228"/>
</g>
<g clip-path="url(#clip3_1551_144614)">
<rect width="61.8504" height="45.3848" transform="matrix(-1 0 0 1 559.531 455.519)" fill="#FFDF6E"/>
<path d="M559.531 500.905L531.338 459.53C530.026 457.604 527.186 457.604 525.874 459.53L497.681 500.905" stroke="#E5C243" stroke-width="0.978325"/>
<path d="M559.531 463.572V455.29H528.606H497.681V463.572L526.764 483.09C527.878 483.838 529.334 483.838 530.448 483.09L559.531 463.572Z" fill="#FFDF6E"/>
<path d="M559.531 463.573L530.448 483.092C529.334 483.839 527.878 483.839 526.764 483.092L497.681 463.573" stroke="#E5C243" stroke-width="0.978325"/>
<path d="M559.246 500.516V459.73C559.246 457.539 557.47 455.763 555.279 455.763H495.851" stroke="#FFECA8" stroke-width="1.32228"/>
</g>
<g clip-path="url(#clip4_1551_144614)">
<rect width="61.8504" height="45.3848" transform="matrix(-1 0 0 1 660.531 455.519)" fill="#FFDF6E"/>
<path d="M660.531 500.905L632.338 459.53C631.026 457.604 628.186 457.604 626.874 459.53L598.681 500.905" stroke="#E5C243" stroke-width="0.978325"/>
<path d="M660.531 463.572V455.29H629.606H598.681V463.572L627.764 483.09C628.878 483.838 630.334 483.838 631.448 483.09L660.531 463.572Z" fill="#FFDF6E"/>
<path d="M660.531 463.573L631.448 483.092C630.334 483.839 628.878 483.839 627.764 483.092L598.681 463.573" stroke="#E5C243" stroke-width="0.978325"/>
<path d="M660.246 500.516V459.73C660.246 457.539 658.47 455.763 656.279 455.763H596.851" stroke="#FFECA8" stroke-width="1.32228"/>
</g>
<g clip-path="url(#clip5_1551_144614)">
<rect width="61.8504" height="45.3848" transform="matrix(-1 0 0 1 761.531 455.519)" fill="#FFDF6E"/>
<path d="M761.531 500.905L733.338 459.53C732.026 457.604 729.186 457.604 727.874 459.53L699.681 500.905" stroke="#E5C243" stroke-width="0.978325"/>
<path d="M761.531 463.572V455.29H730.606H699.681V463.572L728.764 483.09C729.878 483.838 731.334 483.838 732.448 483.09L761.531 463.572Z" fill="#FFDF6E"/>
<path d="M761.531 463.573L732.448 483.092C731.334 483.839 729.878 483.839 728.764 483.092L699.681 463.573" stroke="#E5C243" stroke-width="0.978325"/>
<path d="M761.246 500.516V459.73C761.246 457.539 759.47 455.763 757.279 455.763H697.851" stroke="#FFECA8" stroke-width="1.32228"/>
</g>
<g clip-path="url(#clip6_1551_144614)">
<rect width="61.8504" height="45.3848" transform="matrix(-1 0 0 1 217.031 152.633)" fill="#F7C1A6"/>
<path d="M217.031 198.02L188.838 156.644C187.526 154.718 184.686 154.718 183.374 156.644L155.181 198.02" stroke="#D0643B" stroke-width="0.978325"/>
<path d="M217.031 160.686V152.404H186.106H155.181V160.686L184.264 180.204C185.378 180.952 186.834 180.952 187.948 180.204L217.031 160.686Z" fill="#F7C1A6"/>
<path d="M217.031 160.688L187.948 180.206C186.834 180.954 185.378 180.954 184.264 180.206L155.181 160.688" stroke="#D0643B" stroke-width="0.978325"/>
<path d="M216.746 197.631V156.844C216.746 154.653 214.97 152.877 212.779 152.877H153.351" stroke="#FFF6F2" stroke-width="1.32228"/>
</g>
<g clip-path="url(#clip7_1551_144614)">
<rect width="61.8504" height="45.3848" transform="matrix(-1 0 0 1 318.031 152.633)" fill="#F7C1A6"/>
<path d="M318.031 198.02L289.838 156.644C288.526 154.718 285.686 154.718 284.374 156.644L256.181 198.02" stroke="#D0643B" stroke-width="0.978325"/>
<path d="M318.031 160.686V152.404H287.106H256.181V160.686L285.264 180.204C286.378 180.952 287.834 180.952 288.948 180.204L318.031 160.686Z" fill="#F7C1A6"/>
<path d="M318.031 160.688L288.948 180.206C287.834 180.954 286.378 180.954 285.264 180.206L256.181 160.688" stroke="#D0643B" stroke-width="0.978325"/>
<path d="M317.746 197.631V156.844C317.746 154.653 315.97 152.877 313.779 152.877H254.351" stroke="#FFF6F2" stroke-width="1.32228"/>
</g>
<g clip-path="url(#clip8_1551_144614)">
<rect width="61.8504" height="45.3848" transform="matrix(-1 0 0 1 454.031 152.633)" fill="#F7C1A6"/>
<path d="M454.031 198.02L425.838 156.644C424.526 154.718 421.686 154.718 420.374 156.644L392.181 198.02" stroke="#D0643B" stroke-width="0.978325"/>
<path d="M454.031 160.686V152.404H423.106H392.181V160.686L421.264 180.204C422.378 180.952 423.834 180.952 424.948 180.204L454.031 160.686Z" fill="#F7C1A6"/>
<path d="M454.031 160.688L424.948 180.206C423.834 180.954 422.378 180.954 421.264 180.206L392.181 160.688" stroke="#D0643B" stroke-width="0.978325"/>
<path d="M453.746 197.631V156.844C453.746 154.653 451.97 152.877 449.779 152.877H390.351" stroke="#FFF6F2" stroke-width="1.32228"/>
</g>
<g clip-path="url(#clip9_1551_144614)">
<rect width="61.8504" height="45.3848" transform="matrix(-1 0 0 1 555.031 152.633)" fill="#F7C1A6"/>
<path d="M555.031 198.02L526.838 156.644C525.526 154.718 522.686 154.718 521.374 156.644L493.181 198.02" stroke="#D0643B" stroke-width="0.978325"/>
<path d="M555.031 160.686V152.404H524.106H493.181V160.686L522.264 180.204C523.378 180.952 524.834 180.952 525.948 180.204L555.031 160.686Z" fill="#F7C1A6"/>
<path d="M555.031 160.688L525.948 180.206C524.834 180.954 523.378 180.954 522.264 180.206L493.181 160.688" stroke="#D0643B" stroke-width="0.978325"/>
<path d="M554.746 197.631V156.844C554.746 154.653 552.97 152.877 550.779 152.877H491.351" stroke="#FFF6F2" stroke-width="1.32228"/>
</g>
<g clip-path="url(#clip10_1551_144614)">
<rect width="61.8504" height="45.3848" transform="matrix(-1 0 0 1 656.031 152.633)" fill="#F7C1A6"/>
<path d="M656.031 198.02L627.838 156.644C626.526 154.718 623.686 154.718 622.374 156.644L594.181 198.02" stroke="#D0643B" stroke-width="0.978325"/>
<path d="M656.031 160.686V152.404H625.106H594.181V160.686L623.264 180.204C624.378 180.952 625.834 180.952 626.948 180.204L656.031 160.686Z" fill="#F7C1A6"/>
<path d="M656.031 160.688L626.948 180.206C625.834 180.954 624.378 180.954 623.264 180.206L594.181 160.688" stroke="#D0643B" stroke-width="0.978325"/>
<path d="M655.746 197.631V156.844C655.746 154.653 653.97 152.877 651.779 152.877H592.351" stroke="#FFF6F2" stroke-width="1.32228"/>
</g>
<g clip-path="url(#clip11_1551_144614)">
<rect width="61.8504" height="45.3848" transform="matrix(-1 0 0 1 792.031 152.633)" fill="#F7C1A6"/>
<path d="M792.031 198.02L763.838 156.644C762.526 154.718 759.686 154.718 758.374 156.644L730.181 198.02" stroke="#D0643B" stroke-width="0.978325"/>
<path d="M792.031 160.686V152.404H761.106H730.181V160.686L759.264 180.204C760.378 180.952 761.834 180.952 762.948 180.204L792.031 160.686Z" fill="#F7C1A6"/>
<path d="M792.031 160.688L762.948 180.206C761.834 180.954 760.378 180.954 759.264 180.206L730.181 160.688" stroke="#D0643B" stroke-width="0.978325"/>
<path d="M791.746 197.631V156.844C791.746 154.653 789.97 152.877 787.779 152.877H728.351" stroke="#FFF6F2" stroke-width="1.32228"/>
</g>
<defs>
<clipPath id="clip0_1551_144614">
<rect width="62" height="46" rx="4.62797" transform="matrix(-1 0 0 1 250.531 455.519)" fill="white"/>
</clipPath>
<clipPath id="clip1_1551_144614">
<rect width="62" height="46" rx="4.62797" transform="matrix(-1 0 0 1 351.531 455.519)" fill="white"/>
</clipPath>
<clipPath id="clip2_1551_144614">
<rect width="62" height="46" rx="4.62797" transform="matrix(-1 0 0 1 452.531 455.519)" fill="white"/>
</clipPath>
<clipPath id="clip3_1551_144614">
<rect width="62" height="46" rx="4.62797" transform="matrix(-1 0 0 1 559.531 455.519)" fill="white"/>
</clipPath>
<clipPath id="clip4_1551_144614">
<rect width="62" height="46" rx="4.62797" transform="matrix(-1 0 0 1 660.531 455.519)" fill="white"/>
</clipPath>
<clipPath id="clip5_1551_144614">
<rect width="62" height="46" rx="4.62797" transform="matrix(-1 0 0 1 761.531 455.519)" fill="white"/>
</clipPath>
<clipPath id="clip6_1551_144614">
<rect width="62" height="46" rx="4.62797" transform="matrix(-1 0 0 1 217.031 152.633)" fill="white"/>
</clipPath>
<clipPath id="clip7_1551_144614">
<rect width="62" height="46" rx="4.62797" transform="matrix(-1 0 0 1 318.031 152.633)" fill="white"/>
</clipPath>
<clipPath id="clip8_1551_144614">
<rect width="62" height="46" rx="4.62797" transform="matrix(-1 0 0 1 454.031 152.633)" fill="white"/>
</clipPath>
<clipPath id="clip9_1551_144614">
<rect width="62" height="46" rx="4.62797" transform="matrix(-1 0 0 1 555.031 152.633)" fill="white"/>
</clipPath>
<clipPath id="clip10_1551_144614">
<rect width="62" height="46" rx="4.62797" transform="matrix(-1 0 0 1 656.031 152.633)" fill="white"/>
</clipPath>
<clipPath id="clip11_1551_144614">
<rect width="62" height="46" rx="4.62797" transform="matrix(-1 0 0 1 792.031 152.633)" fill="white"/>
</clipPath>
</defs>
</svg>
