<svg width="837" height="654" viewBox="0 0 837 654" fill="none" xmlns="http://www.w3.org/2000/svg">
<path d="M413.5 284.442L413.5 218.442L423.5 218.442L423.5 284.442L413.5 284.442Z" fill="#FFBD6E"/>
<path d="M430.047 284.442L418.5 304.442L406.953 284.442L430.047 284.442Z" fill="#FFBD6E"/>
<path d="M413.5 427.72L413.5 361.72L423.5 361.72L423.5 427.72L413.5 427.72Z" fill="#FFBD6E"/>
<path d="M430.047 427.72L418.5 447.72L406.953 427.72L430.047 427.72Z" fill="#FFBD6E"/>
<rect x="211" y="309.72" width="415" height="64" fill="#DAEBFB"/>
<path d="M232.676 334.987H242.577V336.75H234.722V341.08H238.116C239.117 341.08 239.988 341.189 240.727 341.407C241.467 341.624 242.077 341.936 242.555 342.342C243.048 342.749 243.411 343.235 243.643 343.8C243.875 344.352 243.991 344.968 243.991 345.65C243.991 346.332 243.875 346.956 243.643 347.521C243.411 348.073 243.048 348.551 242.555 348.958C242.077 349.364 241.467 349.676 240.727 349.893C239.988 350.111 239.117 350.22 238.116 350.22H232.676V334.987ZM238.007 348.435C239.458 348.435 240.473 348.196 241.054 347.717C241.649 347.224 241.946 346.535 241.946 345.65C241.946 344.765 241.649 344.083 241.054 343.605C240.473 343.111 239.458 342.865 238.007 342.865H234.722V348.435H238.007ZM247.577 354.789C247.359 354.789 247.142 354.768 246.924 354.724V352.983C247.142 353.027 247.359 353.049 247.577 353.049C247.794 353.049 247.983 353.012 248.143 352.94C248.302 352.867 248.454 352.729 248.6 352.526C248.745 352.323 248.897 352.033 249.056 351.656C249.231 351.293 249.426 350.815 249.644 350.22L244.748 338.687H246.88L250.623 348.044L254.018 338.687H256.063L251.711 350.22C251.407 351.032 251.116 351.728 250.841 352.309C250.565 352.889 250.268 353.36 249.949 353.723C249.644 354.1 249.303 354.369 248.926 354.528C248.549 354.702 248.099 354.789 247.577 354.789ZM263.158 350.437C261.156 350.437 259.633 349.93 258.588 348.914C257.558 347.899 257.043 346.455 257.043 344.584V344.149C257.043 342.364 257.558 340.972 258.588 339.971C259.633 338.97 261.156 338.469 263.158 338.469V334.987H265.073V338.469C267.075 338.469 268.591 338.97 269.621 339.971C270.665 340.972 271.188 342.364 271.188 344.149V344.584C271.188 346.455 270.665 347.899 269.621 348.914C268.591 349.93 267.075 350.437 265.073 350.437V354.572H263.158V350.437ZM269.229 344.149C269.229 342.828 268.888 341.842 268.206 341.189C267.539 340.536 266.487 340.21 265.051 340.21V348.697C266.487 348.697 267.539 348.363 268.206 347.696C268.888 347.028 269.229 345.991 269.229 344.584V344.149ZM259.002 344.584C259.002 345.991 259.335 347.028 260.003 347.696C260.685 348.363 261.744 348.697 263.18 348.697V340.21C261.744 340.21 260.685 340.536 260.003 341.189C259.335 341.842 259.002 342.828 259.002 344.149V344.584ZM278.7 350.437C277.96 350.437 277.257 350.321 276.589 350.089C275.922 349.857 275.334 349.502 274.827 349.023C274.319 348.53 273.913 347.913 273.608 347.173C273.303 346.433 273.151 345.563 273.151 344.562V344.127C273.151 343.169 273.296 342.342 273.586 341.646C273.876 340.935 274.261 340.348 274.74 339.884C275.233 339.405 275.799 339.049 276.437 338.817C277.09 338.585 277.772 338.469 278.482 338.469C280.18 338.469 281.493 338.933 282.421 339.862C283.349 340.79 283.814 342.103 283.814 343.8V345.019H275.066C275.066 345.701 275.175 346.274 275.392 346.738C275.61 347.202 275.893 347.579 276.241 347.87C276.589 348.16 276.974 348.37 277.394 348.501C277.83 348.631 278.265 348.697 278.7 348.697C279.57 348.697 280.238 348.551 280.702 348.261C281.181 347.971 281.522 347.572 281.725 347.064H283.596C283.48 347.616 283.27 348.102 282.965 348.522C282.675 348.943 282.312 349.299 281.877 349.589C281.456 349.864 280.97 350.075 280.419 350.22C279.882 350.365 279.309 350.437 278.7 350.437ZM278.591 340.21C278.142 340.21 277.706 340.275 277.286 340.406C276.865 340.522 276.488 340.718 276.154 340.993C275.835 341.254 275.574 341.588 275.371 341.994C275.168 342.401 275.066 342.886 275.066 343.452H282.008C281.993 342.857 281.892 342.357 281.703 341.951C281.529 341.53 281.29 341.196 280.985 340.95C280.68 340.689 280.318 340.5 279.897 340.384C279.491 340.268 279.055 340.21 278.591 340.21ZM286.535 338.687H288.32V340.863C288.711 340.094 289.255 339.506 289.952 339.1C290.663 338.679 291.482 338.469 292.411 338.469C293.861 338.469 295.022 338.948 295.892 339.905C296.763 340.848 297.198 342.255 297.198 344.127V344.562C297.198 345.549 297.082 346.412 296.85 347.152C296.618 347.877 296.291 348.486 295.871 348.979C295.45 349.458 294.942 349.821 294.347 350.067C293.767 350.314 293.122 350.437 292.411 350.437C291.424 350.437 290.597 350.22 289.93 349.785C289.277 349.349 288.784 348.805 288.45 348.152V354.572H286.535V338.687ZM291.976 348.74C292.44 348.74 292.875 348.653 293.281 348.479C293.687 348.29 294.036 348.022 294.326 347.674C294.63 347.326 294.862 346.89 295.022 346.368C295.196 345.846 295.283 345.244 295.283 344.562V344.127C295.283 343.503 295.196 342.945 295.022 342.451C294.862 341.958 294.63 341.545 294.326 341.211C294.036 340.863 293.687 340.602 293.281 340.428C292.875 340.253 292.44 340.166 291.976 340.166C291.453 340.166 290.975 340.253 290.539 340.428C290.104 340.587 289.734 340.819 289.43 341.124C289.125 341.414 288.886 341.762 288.711 342.168C288.537 342.575 288.45 343.01 288.45 343.474V345.215C288.45 345.737 288.537 346.216 288.711 346.651C288.886 347.086 289.125 347.456 289.43 347.761C289.734 348.065 290.104 348.305 290.539 348.479C290.975 348.653 291.453 348.74 291.976 348.74ZM309.28 350.437C307.829 350.437 306.691 350.133 305.864 349.523C305.037 348.914 304.58 348.058 304.493 346.956H306.408C306.509 347.521 306.807 347.957 307.3 348.261C307.808 348.551 308.468 348.697 309.28 348.697C310.281 348.697 311.006 348.53 311.456 348.196C311.92 347.848 312.152 347.434 312.152 346.956C312.152 346.39 311.964 345.947 311.587 345.628C311.21 345.295 310.557 345.128 309.628 345.128H307.648V343.561H309.498C310.296 343.561 310.861 343.409 311.195 343.104C311.543 342.799 311.717 342.371 311.717 341.82C311.717 341.385 311.514 341.008 311.108 340.689C310.702 340.37 310.092 340.21 309.28 340.21C308.395 340.21 307.75 340.355 307.343 340.645C306.952 340.921 306.712 341.32 306.625 341.842H304.71C304.754 341.363 304.885 340.921 305.102 340.515C305.334 340.094 305.646 339.731 306.038 339.427C306.43 339.122 306.894 338.89 307.43 338.73C307.982 338.556 308.598 338.469 309.28 338.469C310.02 338.469 310.658 338.556 311.195 338.73C311.746 338.89 312.203 339.122 312.566 339.427C312.929 339.717 313.197 340.065 313.371 340.471C313.545 340.877 313.632 341.327 313.632 341.82C313.632 342.371 313.494 342.857 313.219 343.278C312.943 343.684 312.501 344.004 311.891 344.236C312.704 344.453 313.27 344.801 313.589 345.28C313.908 345.759 314.067 346.317 314.067 346.956C314.067 347.434 313.966 347.884 313.763 348.305C313.56 348.726 313.255 349.095 312.849 349.415C312.457 349.719 311.957 349.966 311.347 350.154C310.753 350.343 310.063 350.437 309.28 350.437ZM320.082 350.437C319.443 350.437 318.878 350.35 318.384 350.176C317.906 349.988 317.5 349.734 317.166 349.415C316.832 349.095 316.578 348.718 316.404 348.283C316.23 347.848 316.143 347.369 316.143 346.847C316.143 345.701 316.477 344.874 317.144 344.366C317.826 343.858 318.798 343.605 320.06 343.605H323.803V342.821C323.803 341.835 323.578 341.153 323.128 340.776C322.693 340.399 322.033 340.21 321.148 340.21C320.321 340.21 319.719 340.37 319.342 340.689C318.965 340.993 318.754 341.342 318.711 341.733H316.796C316.825 341.269 316.948 340.841 317.166 340.449C317.398 340.043 317.703 339.695 318.08 339.405C318.471 339.115 318.936 338.89 319.472 338.73C320.009 338.556 320.604 338.469 321.257 338.469C322.62 338.469 323.701 338.796 324.499 339.448C325.311 340.087 325.718 341.138 325.718 342.604V347.282C325.718 347.891 325.718 348.428 325.718 348.892C325.732 349.342 325.768 349.785 325.826 350.22H324.151C324.107 349.886 324.078 349.574 324.064 349.284C324.049 348.979 324.042 348.638 324.042 348.261C323.737 348.871 323.244 349.386 322.562 349.806C321.881 350.227 321.054 350.437 320.082 350.437ZM320.495 348.697C320.945 348.697 321.366 348.638 321.757 348.522C322.163 348.392 322.519 348.211 322.824 347.978C323.128 347.732 323.368 347.434 323.542 347.086C323.716 346.738 323.803 346.332 323.803 345.868V345.084H320.386C319.676 345.084 319.117 345.229 318.711 345.519C318.305 345.795 318.102 346.238 318.102 346.847C318.102 347.384 318.29 347.826 318.667 348.174C319.059 348.522 319.668 348.697 320.495 348.697ZM327.794 348.522H329.209C329.368 348.305 329.513 347.971 329.644 347.521C329.774 347.072 329.891 346.542 329.992 345.933C330.094 345.324 330.166 344.664 330.21 343.953C330.268 343.227 330.297 342.488 330.297 341.733V338.687H338.348V348.522H339.98V352.94H338.152V350.22H329.622V352.94H327.794V348.522ZM336.433 348.522V340.384H332.168V342.168C332.168 342.778 332.146 343.387 332.103 343.996C332.059 344.591 331.994 345.164 331.907 345.715C331.82 346.252 331.711 346.767 331.581 347.26C331.465 347.739 331.327 348.16 331.167 348.522H336.433ZM347.062 350.437C346.323 350.437 345.619 350.321 344.952 350.089C344.284 349.857 343.697 349.502 343.189 349.023C342.681 348.53 342.275 347.913 341.97 347.173C341.666 346.433 341.513 345.563 341.513 344.562V344.127C341.513 343.169 341.659 342.342 341.949 341.646C342.239 340.935 342.623 340.348 343.102 339.884C343.595 339.405 344.161 339.049 344.799 338.817C345.452 338.585 346.134 338.469 346.845 338.469C348.542 338.469 349.855 338.933 350.783 339.862C351.712 340.79 352.176 342.103 352.176 343.8V345.019H343.428C343.428 345.701 343.537 346.274 343.755 346.738C343.972 347.202 344.255 347.579 344.603 347.87C344.952 348.16 345.336 348.37 345.757 348.501C346.192 348.631 346.627 348.697 347.062 348.697C347.933 348.697 348.6 348.551 349.064 348.261C349.543 347.971 349.884 347.572 350.087 347.064H351.958C351.842 347.616 351.632 348.102 351.327 348.522C351.037 348.943 350.675 349.299 350.239 349.589C349.819 349.864 349.333 350.075 348.781 350.22C348.245 350.365 347.672 350.437 347.062 350.437ZM346.954 340.21C346.504 340.21 346.069 340.275 345.648 340.406C345.227 340.522 344.85 340.718 344.516 340.993C344.197 341.254 343.936 341.588 343.733 341.994C343.53 342.401 343.428 342.886 343.428 343.452H350.37C350.355 342.857 350.254 342.357 350.065 341.951C349.891 341.53 349.652 341.196 349.347 340.95C349.043 340.689 348.68 340.5 348.259 340.384C347.853 340.268 347.418 340.21 346.954 340.21ZM354.898 338.687H356.682V340.863C357.074 340.094 357.618 339.506 358.314 339.1C359.025 338.679 359.845 338.469 360.773 338.469C362.224 338.469 363.384 338.948 364.255 339.905C365.125 340.848 365.56 342.255 365.56 344.127V344.562C365.56 345.549 365.444 346.412 365.212 347.152C364.98 347.877 364.654 348.486 364.233 348.979C363.812 349.458 363.305 349.821 362.71 350.067C362.129 350.314 361.484 350.437 360.773 350.437C359.787 350.437 358.96 350.22 358.292 349.785C357.64 349.349 357.146 348.805 356.813 348.152V354.572H354.898V338.687ZM360.338 348.74C360.802 348.74 361.237 348.653 361.644 348.479C362.05 348.29 362.398 348.022 362.688 347.674C362.993 347.326 363.225 346.89 363.384 346.368C363.558 345.846 363.645 345.244 363.645 344.562V344.127C363.645 343.503 363.558 342.945 363.384 342.451C363.225 341.958 362.993 341.545 362.688 341.211C362.398 340.863 362.05 340.602 361.644 340.428C361.237 340.253 360.802 340.166 360.338 340.166C359.816 340.166 359.337 340.253 358.902 340.428C358.466 340.587 358.097 340.819 357.792 341.124C357.487 341.414 357.248 341.762 357.074 342.168C356.9 342.575 356.813 343.01 356.813 343.474V345.215C356.813 345.737 356.9 346.216 357.074 346.651C357.248 347.086 357.487 347.456 357.792 347.761C358.097 348.065 358.466 348.305 358.902 348.479C359.337 348.653 359.816 348.74 360.338 348.74ZM371.016 344.279L366.881 338.687H369.014L372.539 343.518H373.866V338.687H375.781V343.518H377.087L380.677 338.687H382.766L378.632 344.214L382.984 350.22H380.721L377.087 345.171H375.781V350.22H373.866V345.171H372.539L368.883 350.22H366.664L371.016 344.279ZM385.265 338.687H387.179V343.518H388.703L393.011 338.687H395.274L390.269 344.214L395.492 350.22H393.055L388.703 345.171H387.179V350.22H385.265V338.687ZM397.781 338.687H399.696V347.391L405.658 338.687H407.573V350.22H405.658V341.516L399.696 350.22H397.781V338.687ZM416.503 338.687H421.507C422.929 338.687 423.974 338.984 424.641 339.579C425.308 340.159 425.642 340.914 425.642 341.842C425.642 342.089 425.598 342.342 425.511 342.604C425.424 342.85 425.301 343.082 425.141 343.3C424.996 343.518 424.815 343.706 424.597 343.866C424.394 344.025 424.162 344.149 423.901 344.236C424.612 344.41 425.149 344.743 425.511 345.237C425.889 345.715 426.077 346.281 426.077 346.934C426.077 347.935 425.743 348.733 425.076 349.328C424.409 349.922 423.364 350.22 421.943 350.22H416.503V338.687ZM421.943 348.522C422.755 348.522 423.328 348.377 423.662 348.087C423.995 347.797 424.162 347.384 424.162 346.847C424.162 346.296 423.995 345.875 423.662 345.585C423.328 345.28 422.755 345.128 421.943 345.128H418.417V348.522H421.943ZM421.507 343.561C422.334 343.561 422.907 343.416 423.226 343.126C423.56 342.836 423.727 342.437 423.727 341.929C423.727 341.45 423.56 341.073 423.226 340.797C422.907 340.522 422.334 340.384 421.507 340.384H418.417V343.561H421.507ZM433.594 350.437C432.854 350.437 432.15 350.321 431.483 350.089C430.816 349.843 430.228 349.48 429.72 349.001C429.213 348.508 428.806 347.891 428.502 347.152C428.197 346.412 428.045 345.549 428.045 344.562V344.127C428.045 343.198 428.197 342.379 428.502 341.668C428.806 340.957 429.213 340.37 429.72 339.905C430.228 339.427 430.816 339.071 431.483 338.839C432.15 338.592 432.854 338.469 433.594 338.469C434.334 338.469 435.037 338.592 435.705 338.839C436.372 339.071 436.959 339.427 437.467 339.905C437.975 340.37 438.381 340.957 438.686 341.668C438.99 342.379 439.143 343.198 439.143 344.127V344.562C439.143 345.549 438.99 346.412 438.686 347.152C438.381 347.891 437.975 348.508 437.467 349.001C436.959 349.48 436.372 349.843 435.705 350.089C435.037 350.321 434.334 350.437 433.594 350.437ZM433.594 348.697C434.029 348.697 434.464 348.624 434.899 348.479C435.335 348.319 435.719 348.08 436.053 347.761C436.386 347.427 436.655 346.999 436.858 346.477C437.075 345.955 437.184 345.316 437.184 344.562V344.127C437.184 343.43 437.075 342.836 436.858 342.342C436.655 341.849 436.386 341.443 436.053 341.124C435.719 340.805 435.335 340.573 434.899 340.428C434.464 340.283 434.029 340.21 433.594 340.21C433.159 340.21 432.723 340.283 432.288 340.428C431.853 340.573 431.469 340.805 431.135 341.124C430.801 341.443 430.526 341.849 430.308 342.342C430.105 342.836 430.003 343.43 430.003 344.127V344.562C430.003 345.316 430.105 345.955 430.308 346.477C430.526 346.999 430.801 347.427 431.135 347.761C431.469 348.08 431.853 348.319 432.288 348.479C432.723 348.624 433.159 348.697 433.594 348.697ZM446.315 350.437C445.575 350.437 444.886 350.321 444.248 350.089C443.61 349.843 443.058 349.48 442.594 349.001C442.13 348.508 441.76 347.891 441.484 347.152C441.223 346.412 441.093 345.549 441.093 344.562V344.127C441.093 343.198 441.238 342.379 441.528 341.668C441.818 340.957 442.202 340.37 442.681 339.905C443.16 339.427 443.711 339.071 444.335 338.839C444.973 338.592 445.633 338.469 446.315 338.469C446.997 338.469 447.606 338.563 448.143 338.752C448.694 338.941 449.166 339.202 449.557 339.535C449.964 339.869 450.29 340.261 450.537 340.71C450.798 341.16 450.986 341.646 451.102 342.168H449.144C449.028 341.893 448.89 341.639 448.73 341.407C448.585 341.16 448.397 340.95 448.165 340.776C447.947 340.602 447.686 340.464 447.381 340.362C447.077 340.261 446.721 340.21 446.315 340.21C445.894 340.21 445.488 340.29 445.096 340.449C444.705 340.594 444.357 340.827 444.052 341.146C443.747 341.45 443.501 341.849 443.312 342.342C443.138 342.836 443.051 343.43 443.051 344.127V344.562C443.051 345.302 443.138 345.94 443.312 346.477C443.501 346.999 443.747 347.427 444.052 347.761C444.357 348.08 444.705 348.319 445.096 348.479C445.488 348.624 445.894 348.697 446.315 348.697C447.026 348.697 447.621 348.522 448.099 348.174C448.593 347.826 448.941 347.347 449.144 346.738H451.102C450.827 347.884 450.261 348.791 449.405 349.458C448.549 350.111 447.519 350.437 446.315 350.437ZM453.712 338.687H463.286V350.22H461.372V340.384H455.627V350.22H453.712V338.687ZM466.76 338.687H468.544V340.863C468.936 340.094 469.48 339.506 470.176 339.1C470.887 338.679 471.706 338.469 472.635 338.469C474.086 338.469 475.246 338.948 476.117 339.905C476.987 340.848 477.422 342.255 477.422 344.127V344.562C477.422 345.549 477.306 346.412 477.074 347.152C476.842 347.877 476.515 348.486 476.095 348.979C475.674 349.458 475.166 349.821 474.572 350.067C473.991 350.314 473.346 350.437 472.635 350.437C471.648 350.437 470.822 350.22 470.154 349.785C469.501 349.349 469.008 348.805 468.675 348.152V354.572H466.76V338.687ZM472.2 348.74C472.664 348.74 473.099 348.653 473.505 348.479C473.911 348.29 474.26 348.022 474.55 347.674C474.854 347.326 475.087 346.89 475.246 346.368C475.42 345.846 475.507 345.244 475.507 344.562V344.127C475.507 343.503 475.42 342.945 475.246 342.451C475.087 341.958 474.854 341.545 474.55 341.211C474.26 340.863 473.911 340.602 473.505 340.428C473.099 340.253 472.664 340.166 472.2 340.166C471.677 340.166 471.199 340.253 470.764 340.428C470.328 340.587 469.958 340.819 469.654 341.124C469.349 341.414 469.11 341.762 468.936 342.168C468.762 342.575 468.675 343.01 468.675 343.474V345.215C468.675 345.737 468.762 346.216 468.936 346.651C469.11 347.086 469.349 347.456 469.654 347.761C469.958 348.065 470.328 348.305 470.764 348.479C471.199 348.653 471.677 348.74 472.2 348.74ZM484.935 350.437C484.195 350.437 483.491 350.321 482.824 350.089C482.157 349.843 481.569 349.48 481.061 349.001C480.554 348.508 480.147 347.891 479.843 347.152C479.538 346.412 479.386 345.549 479.386 344.562V344.127C479.386 343.198 479.538 342.379 479.843 341.668C480.147 340.957 480.554 340.37 481.061 339.905C481.569 339.427 482.157 339.071 482.824 338.839C483.491 338.592 484.195 338.469 484.935 338.469C485.674 338.469 486.378 338.592 487.045 338.839C487.713 339.071 488.3 339.427 488.808 339.905C489.316 340.37 489.722 340.957 490.027 341.668C490.331 342.379 490.483 343.198 490.483 344.127V344.562C490.483 345.549 490.331 346.412 490.027 347.152C489.722 347.891 489.316 348.508 488.808 349.001C488.3 349.48 487.713 349.843 487.045 350.089C486.378 350.321 485.674 350.437 484.935 350.437ZM484.935 348.697C485.37 348.697 485.805 348.624 486.24 348.479C486.675 348.319 487.06 348.08 487.394 347.761C487.727 347.427 487.996 346.999 488.199 346.477C488.416 345.955 488.525 345.316 488.525 344.562V344.127C488.525 343.43 488.416 342.836 488.199 342.342C487.996 341.849 487.727 341.443 487.394 341.124C487.06 340.805 486.675 340.573 486.24 340.428C485.805 340.283 485.37 340.21 484.935 340.21C484.499 340.21 484.064 340.283 483.629 340.428C483.194 340.573 482.809 340.805 482.476 341.124C482.142 341.443 481.866 341.849 481.649 342.342C481.446 342.836 481.344 343.43 481.344 344.127V344.562C481.344 345.316 481.446 345.955 481.649 346.477C481.866 346.999 482.142 347.427 482.476 347.761C482.809 348.08 483.194 348.319 483.629 348.479C484.064 348.624 484.499 348.697 484.935 348.697ZM493.195 338.687H495.11V347.391L501.072 338.687H502.987V350.22H501.072V341.516L495.11 350.22H493.195V338.687ZM510.393 350.437C508.943 350.437 507.804 350.133 506.977 349.523C506.15 348.914 505.693 348.058 505.606 346.956H507.521C507.623 347.521 507.92 347.957 508.413 348.261C508.921 348.551 509.581 348.697 510.393 348.697C511.394 348.697 512.12 348.53 512.569 348.196C513.034 347.848 513.266 347.434 513.266 346.956C513.266 346.39 513.077 345.947 512.7 345.628C512.323 345.295 511.67 345.128 510.742 345.128H508.761V343.561H510.611C511.409 343.561 511.975 343.409 512.308 343.104C512.656 342.799 512.831 342.371 512.831 341.82C512.831 341.385 512.627 341.008 512.221 340.689C511.815 340.37 511.206 340.21 510.393 340.21C509.508 340.21 508.863 340.355 508.457 340.645C508.065 340.921 507.826 341.32 507.739 341.842H505.824C505.867 341.363 505.998 340.921 506.215 340.515C506.447 340.094 506.759 339.731 507.151 339.427C507.543 339.122 508.007 338.89 508.544 338.73C509.095 338.556 509.712 338.469 510.393 338.469C511.133 338.469 511.772 338.556 512.308 338.73C512.86 338.89 513.316 339.122 513.679 339.427C514.042 339.717 514.31 340.065 514.484 340.471C514.658 340.877 514.745 341.327 514.745 341.82C514.745 342.371 514.608 342.857 514.332 343.278C514.056 343.684 513.614 344.004 513.005 344.236C513.817 344.453 514.383 344.801 514.702 345.28C515.021 345.759 515.181 346.317 515.181 346.956C515.181 347.434 515.079 347.884 514.876 348.305C514.673 348.726 514.368 349.095 513.962 349.415C513.57 349.719 513.07 349.966 512.461 350.154C511.866 350.343 511.177 350.437 510.393 350.437ZM517.909 338.687H522.914C524.336 338.687 525.38 338.984 526.048 339.579C526.715 340.159 527.049 340.914 527.049 341.842C527.049 342.089 527.005 342.342 526.918 342.604C526.831 342.85 526.708 343.082 526.548 343.3C526.403 343.518 526.222 343.706 526.004 343.866C525.801 344.025 525.569 344.149 525.308 344.236C526.019 344.41 526.555 344.743 526.918 345.237C527.295 345.715 527.484 346.281 527.484 346.934C527.484 347.935 527.15 348.733 526.483 349.328C525.815 349.922 524.771 350.22 523.349 350.22H517.909V338.687ZM523.349 348.522C524.162 348.522 524.735 348.377 525.068 348.087C525.402 347.797 525.569 347.384 525.569 346.847C525.569 346.296 525.402 345.875 525.068 345.585C524.735 345.28 524.162 345.128 523.349 345.128H519.824V348.522H523.349ZM522.914 343.561C523.741 343.561 524.314 343.416 524.633 343.126C524.967 342.836 525.134 342.437 525.134 341.929C525.134 341.45 524.967 341.073 524.633 340.797C524.314 340.522 523.741 340.384 522.914 340.384H519.824V343.561H522.914ZM535 350.437C534.261 350.437 533.557 350.321 532.89 350.089C532.222 349.857 531.635 349.502 531.127 349.023C530.619 348.53 530.213 347.913 529.908 347.173C529.604 346.433 529.452 345.563 529.452 344.562V344.127C529.452 343.169 529.597 342.342 529.887 341.646C530.177 340.935 530.561 340.348 531.04 339.884C531.533 339.405 532.099 339.049 532.737 338.817C533.39 338.585 534.072 338.469 534.783 338.469C536.48 338.469 537.793 338.933 538.721 339.862C539.65 340.79 540.114 342.103 540.114 343.8V345.019H531.366C531.366 345.701 531.475 346.274 531.693 346.738C531.91 347.202 532.193 347.579 532.541 347.87C532.89 348.16 533.274 348.37 533.695 348.501C534.13 348.631 534.565 348.697 535 348.697C535.871 348.697 536.538 348.551 537.002 348.261C537.481 347.971 537.822 347.572 538.025 347.064H539.896C539.78 347.616 539.57 348.102 539.265 348.522C538.975 348.943 538.613 349.299 538.177 349.589C537.757 349.864 537.271 350.075 536.719 350.22C536.183 350.365 535.61 350.437 535 350.437ZM534.892 340.21C534.442 340.21 534.007 340.275 533.586 340.406C533.165 340.522 532.788 340.718 532.454 340.993C532.135 341.254 531.874 341.588 531.671 341.994C531.468 342.401 531.366 342.886 531.366 343.452H538.308C538.293 342.857 538.192 342.357 538.003 341.951C537.829 341.53 537.59 341.196 537.285 340.95C536.981 340.689 536.618 340.5 536.197 340.384C535.791 340.268 535.356 340.21 534.892 340.21ZM541.318 348.522H542.732C542.892 348.305 543.037 347.971 543.167 347.521C543.298 347.072 543.414 346.542 543.515 345.933C543.617 345.324 543.69 344.664 543.733 343.953C543.791 343.227 543.82 342.488 543.82 341.733V338.687H551.871V348.522H553.503V352.94H551.676V350.22H543.146V352.94H541.318V348.522ZM549.957 348.522V340.384H545.692V342.168C545.692 342.778 545.67 343.387 545.626 343.996C545.583 344.591 545.517 345.164 545.43 345.715C545.343 346.252 545.235 346.767 545.104 347.26C544.988 347.739 544.85 348.16 544.691 348.522H549.957ZM560.586 350.437C559.846 350.437 559.142 350.321 558.475 350.089C557.808 349.857 557.22 349.502 556.712 349.023C556.205 348.53 555.799 347.913 555.494 347.173C555.189 346.433 555.037 345.563 555.037 344.562V344.127C555.037 343.169 555.182 342.342 555.472 341.646C555.762 340.935 556.147 340.348 556.625 339.884C557.119 339.405 557.684 339.049 558.323 338.817C558.976 338.585 559.657 338.469 560.368 338.469C562.066 338.469 563.378 338.933 564.307 339.862C565.235 340.79 565.699 342.103 565.699 343.8V345.019H556.952C556.952 345.701 557.061 346.274 557.278 346.738C557.496 347.202 557.779 347.579 558.127 347.87C558.475 348.16 558.859 348.37 559.28 348.501C559.715 348.631 560.151 348.697 560.586 348.697C561.456 348.697 562.124 348.551 562.588 348.261C563.066 347.971 563.407 347.572 563.611 347.064H565.482C565.366 347.616 565.155 348.102 564.851 348.522C564.561 348.943 564.198 349.299 563.763 349.589C563.342 349.864 562.856 350.075 562.305 350.22C561.768 350.365 561.195 350.437 560.586 350.437ZM560.477 340.21C560.027 340.21 559.592 340.275 559.171 340.406C558.751 340.522 558.374 340.718 558.04 340.993C557.721 341.254 557.46 341.588 557.256 341.994C557.053 342.401 556.952 342.886 556.952 343.452H563.893C563.879 342.857 563.777 342.357 563.589 341.951C563.415 341.53 563.175 341.196 562.871 340.95C562.566 340.689 562.203 340.5 561.783 340.384C561.376 340.268 560.941 340.21 560.477 340.21ZM568.421 338.687H570.336V343.496H576.298V338.687H578.213V350.22H576.298V345.193H570.336V350.22H568.421V338.687ZM581.703 338.687H583.618V347.391L589.58 338.687H591.495V350.22H589.58V341.516L583.618 350.22H581.703V338.687ZM597.247 345.65C596.29 345.432 595.601 345.041 595.18 344.475C594.759 343.895 594.549 343.155 594.549 342.255C594.549 341.124 594.89 340.246 595.572 339.622C596.268 338.999 597.378 338.687 598.901 338.687H603.906V350.22H601.991V345.824H599.053L596.246 350.22H594.114L597.247 345.65ZM596.464 342.255C596.464 342.865 596.638 343.329 596.986 343.648C597.349 343.967 597.951 344.127 598.792 344.127H601.991V340.384H598.792C597.951 340.384 597.349 340.544 596.986 340.863C596.638 341.182 596.464 341.646 596.464 342.255Z" fill="black"/>
<rect x="211" y="309.72" width="415" height="64" stroke="#63A8E9"/>
<path d="M223.467 117.214H217.026L215.568 121H213.435L219.267 105.768H221.312L227.144 121H224.925L223.467 117.214ZM217.7 115.429H222.792L220.246 108.379L217.7 115.429ZM229.546 125.57C229.328 125.57 229.11 125.548 228.893 125.504V123.764C229.11 123.807 229.328 123.829 229.546 123.829C229.763 123.829 229.952 123.793 230.111 123.72C230.271 123.648 230.423 123.51 230.568 123.307C230.713 123.104 230.866 122.813 231.025 122.436C231.199 122.074 231.395 121.595 231.613 121L226.717 109.467H228.849L232.592 118.824L235.987 109.467H238.032L233.68 121C233.375 121.812 233.085 122.509 232.81 123.089C232.534 123.669 232.237 124.141 231.917 124.503C231.613 124.881 231.272 125.149 230.895 125.309C230.517 125.483 230.068 125.57 229.546 125.57ZM238.234 119.303H239.649C239.808 119.085 239.953 118.751 240.084 118.302C240.215 117.852 240.331 117.323 240.432 116.713C240.534 116.104 240.606 115.444 240.65 114.733C240.708 114.008 240.737 113.268 240.737 112.513V109.467H248.788V119.303H250.42V123.72H248.592V121H240.062V123.72H238.234V119.303ZM246.873 119.303V111.164H242.608V112.949C242.608 113.558 242.586 114.167 242.543 114.777C242.499 115.371 242.434 115.944 242.347 116.496C242.26 117.032 242.151 117.547 242.021 118.041C241.905 118.519 241.767 118.94 241.607 119.303H246.873ZM252.715 109.467H254.63V118.171L260.592 109.467H262.507V121H260.592V112.296L254.63 121H252.715V109.467ZM270.784 121.218C270.044 121.218 269.34 121.102 268.673 120.869C268.006 120.623 267.418 120.26 266.911 119.781C266.403 119.288 265.997 118.672 265.692 117.932C265.387 117.192 265.235 116.329 265.235 115.342V114.907C265.235 113.979 265.387 113.159 265.692 112.448C265.997 111.737 266.403 111.15 266.911 110.686C267.418 110.207 268.006 109.851 268.673 109.619C269.34 109.373 270.044 109.249 270.784 109.249C271.524 109.249 272.227 109.373 272.895 109.619C273.562 109.851 274.15 110.207 274.657 110.686C275.165 111.15 275.571 111.737 275.876 112.448C276.18 113.159 276.333 113.979 276.333 114.907V115.342C276.333 116.329 276.18 117.192 275.876 117.932C275.571 118.672 275.165 119.288 274.657 119.781C274.15 120.26 273.562 120.623 272.895 120.869C272.227 121.102 271.524 121.218 270.784 121.218ZM270.784 119.477C271.219 119.477 271.654 119.404 272.09 119.259C272.525 119.1 272.909 118.86 273.243 118.541C273.577 118.207 273.845 117.779 274.048 117.257C274.266 116.735 274.374 116.097 274.374 115.342V114.907C274.374 114.211 274.266 113.616 274.048 113.123C273.845 112.63 273.577 112.223 273.243 111.904C272.909 111.585 272.525 111.353 272.09 111.208C271.654 111.063 271.219 110.99 270.784 110.99C270.349 110.99 269.914 111.063 269.478 111.208C269.043 111.353 268.659 111.585 268.325 111.904C267.991 112.223 267.716 112.63 267.498 113.123C267.295 113.616 267.193 114.211 267.193 114.907V115.342C267.193 116.097 267.295 116.735 267.498 117.257C267.716 117.779 267.991 118.207 268.325 118.541C268.659 118.86 269.043 119.1 269.478 119.259C269.914 119.404 270.349 119.477 270.784 119.477ZM279.044 109.467H288.619V121H286.704V111.164H280.959V121H279.044V109.467ZM296.879 121.218C296.139 121.218 295.436 121.102 294.769 120.869C294.101 120.623 293.514 120.26 293.006 119.781C292.498 119.288 292.092 118.672 291.787 117.932C291.483 117.192 291.33 116.329 291.33 115.342V114.907C291.33 113.979 291.483 113.159 291.787 112.448C292.092 111.737 292.498 111.15 293.006 110.686C293.514 110.207 294.101 109.851 294.769 109.619C295.436 109.373 296.139 109.249 296.879 109.249C297.619 109.249 298.323 109.373 298.99 109.619C299.657 109.851 300.245 110.207 300.753 110.686C301.26 111.15 301.667 111.737 301.971 112.448C302.276 113.159 302.428 113.979 302.428 114.907V115.342C302.428 116.329 302.276 117.192 301.971 117.932C301.667 118.672 301.26 119.288 300.753 119.781C300.245 120.26 299.657 120.623 298.99 120.869C298.323 121.102 297.619 121.218 296.879 121.218ZM296.879 119.477C297.315 119.477 297.75 119.404 298.185 119.259C298.62 119.1 299.005 118.86 299.338 118.541C299.672 118.207 299.94 117.779 300.143 117.257C300.361 116.735 300.47 116.097 300.47 115.342V114.907C300.47 114.211 300.361 113.616 300.143 113.123C299.94 112.63 299.672 112.223 299.338 111.904C299.005 111.585 298.62 111.353 298.185 111.208C297.75 111.063 297.315 110.99 296.879 110.99C296.444 110.99 296.009 111.063 295.574 111.208C295.139 111.353 294.754 111.585 294.42 111.904C294.087 112.223 293.811 112.63 293.594 113.123C293.39 113.616 293.289 114.211 293.289 114.907V115.342C293.289 116.097 293.39 116.735 293.594 117.257C293.811 117.779 294.087 118.207 294.42 118.541C294.754 118.86 295.139 119.1 295.574 119.259C296.009 119.404 296.444 119.477 296.879 119.477ZM307.56 111.164H303.622V109.467H313.414V111.164H309.475V121H307.56V111.164ZM320.17 121.218C319.43 121.218 318.726 121.102 318.059 120.869C317.392 120.623 316.804 120.26 316.296 119.781C315.789 119.288 315.382 118.672 315.078 117.932C314.773 117.192 314.621 116.329 314.621 115.342V114.907C314.621 113.979 314.773 113.159 315.078 112.448C315.382 111.737 315.789 111.15 316.296 110.686C316.804 110.207 317.392 109.851 318.059 109.619C318.726 109.373 319.43 109.249 320.17 109.249C320.91 109.249 321.613 109.373 322.28 109.619C322.948 109.851 323.535 110.207 324.043 110.686C324.551 111.15 324.957 111.737 325.262 112.448C325.566 113.159 325.719 113.979 325.719 114.907V115.342C325.719 116.329 325.566 117.192 325.262 117.932C324.957 118.672 324.551 119.288 324.043 119.781C323.535 120.26 322.948 120.623 322.28 120.869C321.613 121.102 320.91 121.218 320.17 121.218ZM320.17 119.477C320.605 119.477 321.04 119.404 321.475 119.259C321.911 119.1 322.295 118.86 322.629 118.541C322.962 118.207 323.231 117.779 323.434 117.257C323.651 116.735 323.76 116.097 323.76 115.342V114.907C323.76 114.211 323.651 113.616 323.434 113.123C323.231 112.63 322.962 112.223 322.629 111.904C322.295 111.585 321.911 111.353 321.475 111.208C321.04 111.063 320.605 110.99 320.17 110.99C319.735 110.99 319.299 111.063 318.864 111.208C318.429 111.353 318.044 111.585 317.711 111.904C317.377 112.223 317.102 112.63 316.884 113.123C316.681 113.616 316.579 114.211 316.579 114.907V115.342C316.579 116.097 316.681 116.735 316.884 117.257C317.102 117.779 317.377 118.207 317.711 118.541C318.044 118.86 318.429 119.1 318.864 119.259C319.299 119.404 319.735 119.477 320.17 119.477ZM328.43 109.467H330.345V114.298H331.868L336.177 109.467H338.44L333.435 114.994L338.658 121H336.22L331.868 115.952H330.345V121H328.43V109.467ZM350.848 121.218C350.108 121.218 349.419 121.102 348.78 120.869C348.142 120.623 347.591 120.26 347.127 119.781C346.662 119.288 346.292 118.672 346.017 117.932C345.756 117.192 345.625 116.329 345.625 115.342V114.907C345.625 113.979 345.77 113.159 346.06 112.448C346.35 111.737 346.735 111.15 347.214 110.686C347.692 110.207 348.244 109.851 348.867 109.619C349.506 109.373 350.166 109.249 350.848 109.249C351.529 109.249 352.139 109.344 352.675 109.532C353.227 109.721 353.698 109.982 354.09 110.316C354.496 110.649 354.822 111.041 355.069 111.491C355.33 111.94 355.519 112.426 355.635 112.949H353.676C353.56 112.673 353.423 112.419 353.263 112.187C353.118 111.94 352.929 111.73 352.697 111.556C352.48 111.382 352.218 111.244 351.914 111.143C351.609 111.041 351.254 110.99 350.848 110.99C350.427 110.99 350.021 111.07 349.629 111.23C349.237 111.375 348.889 111.607 348.584 111.926C348.28 112.231 348.033 112.63 347.845 113.123C347.671 113.616 347.584 114.211 347.584 114.907V115.342C347.584 116.082 347.671 116.72 347.845 117.257C348.033 117.779 348.28 118.207 348.584 118.541C348.889 118.86 349.237 119.1 349.629 119.259C350.021 119.404 350.427 119.477 350.848 119.477C351.558 119.477 352.153 119.303 352.632 118.955C353.125 118.606 353.473 118.128 353.676 117.518H355.635C355.359 118.664 354.793 119.571 353.938 120.238C353.082 120.891 352.052 121.218 350.848 121.218ZM370.365 116.409C370.031 116.612 369.625 116.793 369.146 116.953C368.682 117.112 368.095 117.192 367.384 117.192C366.716 117.192 366.114 117.119 365.578 116.974C365.055 116.829 364.613 116.597 364.25 116.278C363.888 115.959 363.612 115.545 363.423 115.038C363.235 114.53 363.14 113.906 363.14 113.166V109.467H365.055V112.84C365.055 113.333 365.099 113.747 365.186 114.08C365.287 114.414 365.447 114.682 365.665 114.885C365.882 115.088 366.158 115.234 366.492 115.321C366.825 115.408 367.231 115.451 367.71 115.451C368.363 115.451 368.921 115.386 369.386 115.255C369.85 115.125 370.176 114.987 370.365 114.842V109.467H372.28V121H370.365V116.409ZM375.755 109.467H377.539V111.643C377.931 110.874 378.475 110.287 379.171 109.88C379.882 109.46 380.702 109.249 381.63 109.249C383.081 109.249 384.241 109.728 385.112 110.686C385.982 111.629 386.417 113.036 386.417 114.907V115.342C386.417 116.329 386.301 117.192 386.069 117.932C385.837 118.657 385.511 119.266 385.09 119.76C384.669 120.238 384.161 120.601 383.567 120.848C382.986 121.094 382.341 121.218 381.63 121.218C380.643 121.218 379.817 121 379.149 120.565C378.496 120.13 378.003 119.586 377.67 118.933V125.352H375.755V109.467ZM381.195 119.52C381.659 119.52 382.094 119.433 382.5 119.259C382.907 119.071 383.255 118.802 383.545 118.454C383.85 118.106 384.082 117.671 384.241 117.148C384.415 116.626 384.502 116.024 384.502 115.342V114.907C384.502 114.283 384.415 113.725 384.241 113.232C384.082 112.738 383.85 112.325 383.545 111.991C383.255 111.643 382.907 111.382 382.5 111.208C382.094 111.034 381.659 110.947 381.195 110.947C380.673 110.947 380.194 111.034 379.759 111.208C379.323 111.367 378.953 111.6 378.649 111.904C378.344 112.194 378.105 112.542 377.931 112.949C377.757 113.355 377.67 113.79 377.67 114.254V115.995C377.67 116.517 377.757 116.996 377.931 117.431C378.105 117.867 378.344 118.236 378.649 118.541C378.953 118.846 379.323 119.085 379.759 119.259C380.194 119.433 380.673 119.52 381.195 119.52ZM393.93 121.218C393.19 121.218 392.486 121.102 391.819 120.869C391.152 120.637 390.564 120.282 390.056 119.803C389.549 119.31 389.142 118.693 388.838 117.954C388.533 117.214 388.381 116.343 388.381 115.342V114.907C388.381 113.95 388.526 113.123 388.816 112.426C389.106 111.716 389.491 111.128 389.969 110.664C390.463 110.185 391.028 109.83 391.667 109.598C392.319 109.365 393.001 109.249 393.712 109.249C395.409 109.249 396.722 109.714 397.651 110.642C398.579 111.571 399.043 112.883 399.043 114.581V115.799H390.296C390.296 116.481 390.404 117.054 390.622 117.518C390.84 117.983 391.123 118.36 391.471 118.65C391.819 118.94 392.203 119.15 392.624 119.281C393.059 119.411 393.494 119.477 393.93 119.477C394.8 119.477 395.467 119.332 395.932 119.042C396.41 118.751 396.751 118.352 396.954 117.845H398.826C398.71 118.396 398.499 118.882 398.195 119.303C397.905 119.723 397.542 120.079 397.107 120.369C396.686 120.645 396.2 120.855 395.649 121C395.112 121.145 394.539 121.218 393.93 121.218ZM393.821 110.99C393.371 110.99 392.936 111.056 392.515 111.186C392.095 111.302 391.717 111.498 391.384 111.774C391.065 112.035 390.803 112.368 390.6 112.775C390.397 113.181 390.296 113.667 390.296 114.233H397.237C397.223 113.638 397.121 113.137 396.933 112.731C396.759 112.31 396.519 111.977 396.214 111.73C395.91 111.469 395.547 111.28 395.126 111.164C394.72 111.048 394.285 110.99 393.821 110.99ZM405.682 121.218C404.231 121.218 403.092 120.913 402.266 120.304C401.439 119.694 400.982 118.838 400.895 117.736H402.81C402.911 118.302 403.209 118.737 403.702 119.042C404.209 119.332 404.87 119.477 405.682 119.477C406.683 119.477 407.408 119.31 407.858 118.976C408.322 118.628 408.554 118.215 408.554 117.736C408.554 117.17 408.366 116.728 407.989 116.409C407.611 116.075 406.959 115.908 406.03 115.908H404.05V114.341H405.9C406.697 114.341 407.263 114.189 407.597 113.884C407.945 113.58 408.119 113.152 408.119 112.601C408.119 112.165 407.916 111.788 407.51 111.469C407.104 111.15 406.494 110.99 405.682 110.99C404.797 110.99 404.151 111.135 403.745 111.425C403.354 111.701 403.114 112.1 403.027 112.622H401.112C401.156 112.144 401.286 111.701 401.504 111.295C401.736 110.874 402.048 110.512 402.44 110.207C402.831 109.902 403.296 109.67 403.832 109.511C404.384 109.336 405 109.249 405.682 109.249C406.422 109.249 407.06 109.336 407.597 109.511C408.148 109.67 408.605 109.902 408.968 110.207C409.33 110.497 409.599 110.845 409.773 111.251C409.947 111.658 410.034 112.107 410.034 112.601C410.034 113.152 409.896 113.638 409.621 114.058C409.345 114.465 408.902 114.784 408.293 115.016C409.106 115.234 409.671 115.582 409.99 116.06C410.31 116.539 410.469 117.098 410.469 117.736C410.469 118.215 410.368 118.664 410.165 119.085C409.961 119.506 409.657 119.876 409.251 120.195C408.859 120.5 408.358 120.746 407.749 120.935C407.154 121.123 406.465 121.218 405.682 121.218ZM413.198 109.467H415.243L419.356 116.648L423.469 109.467H425.384V121H423.469V112.622L420.052 118.498H418.529L415.113 112.622V121H413.198V109.467ZM433.647 121.218C432.907 121.218 432.203 121.102 431.536 120.869C430.868 120.637 430.281 120.282 429.773 119.803C429.265 119.31 428.859 118.693 428.555 117.954C428.25 117.214 428.098 116.343 428.098 115.342V114.907C428.098 113.95 428.243 113.123 428.533 112.426C428.823 111.716 429.207 111.128 429.686 110.664C430.179 110.185 430.745 109.83 431.383 109.598C432.036 109.365 432.718 109.249 433.429 109.249C435.126 109.249 436.439 109.714 437.368 110.642C438.296 111.571 438.76 112.883 438.76 114.581V115.799H430.013C430.013 116.481 430.121 117.054 430.339 117.518C430.557 117.983 430.839 118.36 431.188 118.65C431.536 118.94 431.92 119.15 432.341 119.281C432.776 119.411 433.211 119.477 433.647 119.477C434.517 119.477 435.184 119.332 435.648 119.042C436.127 118.751 436.468 118.352 436.671 117.845H438.543C438.427 118.396 438.216 118.882 437.912 119.303C437.621 119.723 437.259 120.079 436.824 120.369C436.403 120.645 435.917 120.855 435.366 121C434.829 121.145 434.256 121.218 433.647 121.218ZM433.538 110.99C433.088 110.99 432.653 111.056 432.232 111.186C431.811 111.302 431.434 111.498 431.101 111.774C430.781 112.035 430.52 112.368 430.317 112.775C430.114 113.181 430.013 113.667 430.013 114.233H436.954C436.94 113.638 436.838 113.137 436.649 112.731C436.475 112.31 436.236 111.977 435.931 111.73C435.627 111.469 435.264 111.28 434.843 111.164C434.437 111.048 434.002 110.99 433.538 110.99ZM441.482 109.467H443.266V111.643C443.658 110.874 444.202 110.287 444.898 109.88C445.609 109.46 446.429 109.249 447.357 109.249C448.808 109.249 449.968 109.728 450.839 110.686C451.709 111.629 452.145 113.036 452.145 114.907V115.342C452.145 116.329 452.028 117.192 451.796 117.932C451.564 118.657 451.238 119.266 450.817 119.76C450.396 120.238 449.889 120.601 449.294 120.848C448.714 121.094 448.068 121.218 447.357 121.218C446.371 121.218 445.544 121 444.877 120.565C444.224 120.13 443.731 119.586 443.397 118.933V125.352H441.482V109.467ZM446.922 119.52C447.386 119.52 447.821 119.433 448.228 119.259C448.634 119.071 448.982 118.802 449.272 118.454C449.577 118.106 449.809 117.671 449.968 117.148C450.143 116.626 450.23 116.024 450.23 115.342V114.907C450.23 114.283 450.143 113.725 449.968 113.232C449.809 112.738 449.577 112.325 449.272 111.991C448.982 111.643 448.634 111.382 448.228 111.208C447.821 111.034 447.386 110.947 446.922 110.947C446.4 110.947 445.921 111.034 445.486 111.208C445.051 111.367 444.681 111.6 444.376 111.904C444.071 112.194 443.832 112.542 443.658 112.949C443.484 113.355 443.397 113.79 443.397 114.254V115.995C443.397 116.517 443.484 116.996 443.658 117.431C443.832 117.867 444.071 118.236 444.376 118.541C444.681 118.846 445.051 119.085 445.486 119.259C445.921 119.433 446.4 119.52 446.922 119.52ZM454.87 109.467H456.785V114.276H462.747V109.467H464.662V121H462.747V115.973H456.785V121H454.87V109.467ZM468.151 109.467H470.066V113.819H472.394C473.845 113.819 474.911 114.138 475.593 114.777C476.29 115.415 476.638 116.3 476.638 117.431C476.638 118.534 476.29 119.404 475.593 120.043C474.911 120.681 473.845 121 472.394 121H468.151V109.467ZM472.286 119.303C473.185 119.303 473.816 119.143 474.179 118.824C474.541 118.505 474.723 118.033 474.723 117.41C474.723 116.786 474.541 116.314 474.179 115.995C473.816 115.676 473.185 115.516 472.286 115.516H470.066V119.303H472.286ZM478.422 109.467H480.337V121H478.422V109.467ZM483.813 109.467H485.858L489.971 116.648L494.084 109.467H495.998V121H494.084V112.622L490.667 118.498H489.144L485.728 112.622V121H483.813V109.467ZM503.609 119.303H505.023C505.183 119.085 505.328 118.751 505.458 118.302C505.589 117.852 505.705 117.323 505.806 116.713C505.908 116.104 505.98 115.444 506.024 114.733C506.082 114.008 506.111 113.268 506.111 112.513V109.467H514.162V119.303H515.794V123.72H513.967V121H505.436V123.72H503.609V119.303ZM512.247 119.303V111.164H507.982V112.949C507.982 113.558 507.961 114.167 507.917 114.777C507.874 115.371 507.808 115.944 507.721 116.496C507.634 117.032 507.525 117.547 507.395 118.041C507.279 118.519 507.141 118.94 506.981 119.303H512.247ZM521.457 115.059L517.323 109.467H519.455L522.98 114.298H524.308V109.467H526.223V114.298H527.528L531.119 109.467H533.208L529.073 114.994L533.425 121H531.162L527.528 115.952H526.223V121H524.308V115.952H522.98L519.325 121H517.105L521.457 115.059ZM535.706 109.467H537.621V118.171L543.583 109.467H545.498V121H543.583V112.296L537.621 121H535.706V109.467ZM551.62 111.164H547.682V109.467H557.474V111.164H553.535V121H551.62V111.164ZM562.947 111.164H559.008V109.467H568.8V111.164H564.862V121H562.947V111.164ZM575.556 121.218C574.816 121.218 574.113 121.102 573.446 120.869C572.778 120.637 572.191 120.282 571.683 119.803C571.175 119.31 570.769 118.693 570.464 117.954C570.16 117.214 570.007 116.343 570.007 115.342V114.907C570.007 113.95 570.153 113.123 570.443 112.426C570.733 111.716 571.117 111.128 571.596 110.664C572.089 110.185 572.655 109.83 573.293 109.598C573.946 109.365 574.628 109.249 575.339 109.249C577.036 109.249 578.349 109.714 579.277 110.642C580.206 111.571 580.67 112.883 580.67 114.581V115.799H571.922C571.922 116.481 572.031 117.054 572.249 117.518C572.466 117.983 572.749 118.36 573.097 118.65C573.446 118.94 573.83 119.15 574.251 119.281C574.686 119.411 575.121 119.477 575.556 119.477C576.427 119.477 577.094 119.332 577.558 119.042C578.037 118.751 578.378 118.352 578.581 117.845H580.452C580.336 118.396 580.126 118.882 579.821 119.303C579.531 119.723 579.169 120.079 578.733 120.369C578.313 120.645 577.827 120.855 577.275 121C576.739 121.145 576.166 121.218 575.556 121.218ZM575.448 110.99C574.998 110.99 574.563 111.056 574.142 111.186C573.721 111.302 573.344 111.498 573.01 111.774C572.691 112.035 572.43 112.368 572.227 112.775C572.024 113.181 571.922 113.667 571.922 114.233H578.864C578.849 113.638 578.748 113.137 578.559 112.731C578.385 112.31 578.146 111.977 577.841 111.73C577.537 111.469 577.174 111.28 576.753 111.164C576.347 111.048 575.912 110.99 575.448 110.99ZM583.392 109.467H585.176V111.643C585.568 110.874 586.112 110.287 586.808 109.88C587.519 109.46 588.339 109.249 589.267 109.249C590.718 109.249 591.878 109.728 592.749 110.686C593.619 111.629 594.054 113.036 594.054 114.907V115.342C594.054 116.329 593.938 117.192 593.706 117.932C593.474 118.657 593.148 119.266 592.727 119.76C592.306 120.238 591.798 120.601 591.204 120.848C590.623 121.094 589.978 121.218 589.267 121.218C588.281 121.218 587.454 121 586.786 120.565C586.134 120.13 585.64 119.586 585.307 118.933V125.352H583.392V109.467ZM588.832 119.52C589.296 119.52 589.731 119.433 590.137 119.259C590.544 119.071 590.892 118.802 591.182 118.454C591.487 118.106 591.719 117.671 591.878 117.148C592.052 116.626 592.139 116.024 592.139 115.342V114.907C592.139 114.283 592.052 113.725 591.878 113.232C591.719 112.738 591.487 112.325 591.182 111.991C590.892 111.643 590.544 111.382 590.137 111.208C589.731 111.034 589.296 110.947 588.832 110.947C588.31 110.947 587.831 111.034 587.396 111.208C586.96 111.367 586.591 111.6 586.286 111.904C585.981 112.194 585.742 112.542 585.568 112.949C585.394 113.355 585.307 113.79 585.307 114.254V115.995C585.307 116.517 585.394 116.996 585.568 117.431C585.742 117.867 585.981 118.236 586.286 118.541C586.591 118.846 586.96 119.085 587.396 119.259C587.831 119.433 588.31 119.52 588.832 119.52ZM601.567 121.218C600.827 121.218 600.123 121.102 599.456 120.869C598.789 120.623 598.201 120.26 597.693 119.781C597.186 119.288 596.779 118.672 596.475 117.932C596.17 117.192 596.018 116.329 596.018 115.342V114.907C596.018 113.979 596.17 113.159 596.475 112.448C596.779 111.737 597.186 111.15 597.693 110.686C598.201 110.207 598.789 109.851 599.456 109.619C600.123 109.373 600.827 109.249 601.567 109.249C602.307 109.249 603.01 109.373 603.677 109.619C604.345 109.851 604.932 110.207 605.44 110.686C605.948 111.15 606.354 111.737 606.659 112.448C606.963 113.159 607.116 113.979 607.116 114.907V115.342C607.116 116.329 606.963 117.192 606.659 117.932C606.354 118.672 605.948 119.288 605.44 119.781C604.932 120.26 604.345 120.623 603.677 120.869C603.01 121.102 602.307 121.218 601.567 121.218ZM601.567 119.477C602.002 119.477 602.437 119.404 602.872 119.259C603.308 119.1 603.692 118.86 604.026 118.541C604.359 118.207 604.628 117.779 604.831 117.257C605.048 116.735 605.157 116.097 605.157 115.342V114.907C605.157 114.211 605.048 113.616 604.831 113.123C604.628 112.63 604.359 112.223 604.026 111.904C603.692 111.585 603.308 111.353 602.872 111.208C602.437 111.063 602.002 110.99 601.567 110.99C601.132 110.99 600.696 111.063 600.261 111.208C599.826 111.353 599.441 111.585 599.108 111.904C598.774 112.223 598.499 112.63 598.281 113.123C598.078 113.616 597.976 114.211 597.976 114.907V115.342C597.976 116.097 598.078 116.735 598.281 117.257C598.499 117.779 598.774 118.207 599.108 118.541C599.441 118.86 599.826 119.1 600.261 119.259C600.696 119.404 601.132 119.477 601.567 119.477ZM609.827 109.467H611.873L615.985 116.648L620.098 109.467H622.013V121H620.098V112.622L616.682 118.498H615.158L611.742 112.622V121H609.827V109.467Z" fill="black"/>
<path d="M146.676 534.208H158.644V549.44H156.599V535.993H148.722V549.44H146.676V534.208ZM165.847 549.658C165.209 549.658 164.643 549.571 164.15 549.397C163.671 549.208 163.265 548.954 162.931 548.635C162.597 548.316 162.343 547.939 162.169 547.504C161.995 547.069 161.908 546.59 161.908 546.068C161.908 544.922 162.242 544.095 162.909 543.587C163.591 543.079 164.563 542.825 165.825 542.825H169.568V542.042C169.568 541.055 169.343 540.374 168.893 539.996C168.458 539.619 167.798 539.431 166.913 539.431C166.086 539.431 165.484 539.59 165.107 539.909C164.73 540.214 164.52 540.562 164.476 540.954H162.561C162.59 540.49 162.713 540.062 162.931 539.67C163.163 539.264 163.468 538.916 163.845 538.626C164.237 538.335 164.701 538.111 165.238 537.951C165.774 537.777 166.369 537.69 167.022 537.69C168.386 537.69 169.466 538.016 170.264 538.669C171.077 539.307 171.483 540.359 171.483 541.824V546.503C171.483 547.112 171.483 547.649 171.483 548.113C171.497 548.563 171.534 549.005 171.592 549.44H169.916C169.873 549.107 169.844 548.795 169.829 548.505C169.815 548.2 169.807 547.859 169.807 547.482C169.503 548.091 169.009 548.606 168.328 549.027C167.646 549.448 166.819 549.658 165.847 549.658ZM166.26 547.917C166.71 547.917 167.131 547.859 167.522 547.743C167.929 547.613 168.284 547.431 168.589 547.199C168.893 546.952 169.133 546.655 169.307 546.307C169.481 545.959 169.568 545.553 169.568 545.088V544.305H166.152C165.441 544.305 164.882 544.45 164.476 544.74C164.07 545.016 163.867 545.458 163.867 546.068C163.867 546.604 164.055 547.047 164.432 547.395C164.824 547.743 165.433 547.917 166.26 547.917ZM174.865 537.907H176.78V542.738H178.303L182.612 537.907H184.875L179.87 543.435L185.092 549.44H182.655L178.303 544.392H176.78V549.44H174.865V537.907ZM191.744 549.658C191.004 549.658 190.3 549.542 189.633 549.31C188.966 549.078 188.378 548.722 187.87 548.244C187.363 547.75 186.956 547.134 186.652 546.394C186.347 545.654 186.195 544.784 186.195 543.783V543.348C186.195 542.39 186.34 541.563 186.63 540.867C186.92 540.156 187.305 539.568 187.783 539.104C188.277 538.626 188.842 538.27 189.481 538.038C190.133 537.806 190.815 537.69 191.526 537.69C193.223 537.69 194.536 538.154 195.465 539.083C196.393 540.011 196.857 541.324 196.857 543.021V544.24H188.11C188.11 544.922 188.219 545.495 188.436 545.959C188.654 546.423 188.937 546.8 189.285 547.09C189.633 547.38 190.017 547.591 190.438 547.721C190.873 547.852 191.309 547.917 191.744 547.917C192.614 547.917 193.281 547.772 193.746 547.482C194.224 547.192 194.565 546.793 194.768 546.285H196.64C196.524 546.836 196.313 547.322 196.009 547.743C195.719 548.164 195.356 548.519 194.921 548.809C194.5 549.085 194.014 549.295 193.463 549.44C192.926 549.585 192.353 549.658 191.744 549.658ZM191.635 539.431C191.185 539.431 190.75 539.496 190.329 539.627C189.909 539.743 189.531 539.938 189.198 540.214C188.879 540.475 188.618 540.809 188.414 541.215C188.211 541.621 188.11 542.107 188.11 542.673H195.051C195.037 542.078 194.935 541.578 194.747 541.171C194.573 540.751 194.333 540.417 194.029 540.171C193.724 539.909 193.361 539.721 192.941 539.605C192.534 539.489 192.099 539.431 191.635 539.431ZM202 539.605H198.061V537.907H207.853V539.605H203.915V549.44H202V539.605ZM220.262 549.658C219.522 549.658 218.818 549.542 218.151 549.31C217.484 549.063 216.896 548.701 216.388 548.222C215.881 547.729 215.474 547.112 215.17 546.372C214.865 545.632 214.713 544.769 214.713 543.783V543.348C214.713 542.419 214.865 541.599 215.17 540.889C215.474 540.178 215.881 539.59 216.388 539.126C216.896 538.647 217.484 538.292 218.151 538.06C218.818 537.813 219.522 537.69 220.262 537.69C221.002 537.69 221.705 537.813 222.372 538.06C223.04 538.292 223.627 538.647 224.135 539.126C224.643 539.59 225.049 540.178 225.354 540.889C225.658 541.599 225.811 542.419 225.811 543.348V543.783C225.811 544.769 225.658 545.632 225.354 546.372C225.049 547.112 224.643 547.729 224.135 548.222C223.627 548.701 223.04 549.063 222.372 549.31C221.705 549.542 221.002 549.658 220.262 549.658ZM220.262 547.917C220.697 547.917 221.132 547.845 221.567 547.7C222.003 547.54 222.387 547.301 222.721 546.982C223.054 546.648 223.323 546.22 223.526 545.698C223.743 545.175 223.852 544.537 223.852 543.783V543.348C223.852 542.651 223.743 542.056 223.526 541.563C223.323 541.07 223.054 540.664 222.721 540.345C222.387 540.025 222.003 539.793 221.567 539.648C221.132 539.503 220.697 539.431 220.262 539.431C219.827 539.431 219.391 539.503 218.956 539.648C218.521 539.793 218.136 540.025 217.803 540.345C217.469 540.664 217.194 541.07 216.976 541.563C216.773 542.056 216.671 542.651 216.671 543.348V543.783C216.671 544.537 216.773 545.175 216.976 545.698C217.194 546.22 217.469 546.648 217.803 546.982C218.136 547.301 218.521 547.54 218.956 547.7C219.391 547.845 219.827 547.917 220.262 547.917ZM230.943 539.605H227.004V537.907H236.796V539.605H232.858V549.44H230.943V539.605ZM243.765 549.658C242.996 549.658 242.278 549.513 241.61 549.223C240.958 548.933 240.384 548.512 239.891 547.961C239.413 547.395 239.028 546.706 238.738 545.893C238.462 545.081 238.325 544.16 238.325 543.13V542.695C238.325 541.389 238.419 540.229 238.607 539.213C238.796 538.183 239.115 537.313 239.565 536.602C240.029 535.876 240.631 535.311 241.371 534.905C242.125 534.498 243.068 534.266 244.2 534.208C245.114 534.165 245.912 534.128 246.593 534.099C247.275 534.056 247.856 533.911 248.334 533.664V535.514C248.102 535.644 247.674 535.746 247.05 535.818C246.441 535.891 245.6 535.942 244.526 535.971C243.83 535.985 243.213 536.072 242.677 536.232C242.154 536.391 241.705 536.645 241.327 536.994C240.965 537.342 240.675 537.799 240.457 538.364C240.254 538.916 240.123 539.597 240.065 540.41C240.413 539.641 240.95 539.032 241.676 538.582C242.401 538.132 243.242 537.907 244.2 537.907C244.94 537.907 245.614 538.038 246.224 538.299C246.833 538.546 247.355 538.901 247.79 539.365C248.24 539.83 248.588 540.403 248.835 541.084C249.081 541.752 249.205 542.506 249.205 543.348V543.783C249.205 544.682 249.067 545.495 248.791 546.22C248.516 546.931 248.138 547.547 247.66 548.07C247.181 548.577 246.608 548.969 245.941 549.245C245.273 549.52 244.548 549.658 243.765 549.658ZM243.765 547.917C244.78 547.917 245.614 547.569 246.267 546.873C246.92 546.162 247.246 545.132 247.246 543.783V543.348C247.246 542.782 247.159 542.274 246.985 541.824C246.811 541.375 246.572 540.99 246.267 540.671C245.962 540.337 245.592 540.083 245.157 539.909C244.737 539.735 244.272 539.648 243.765 539.648C243.257 539.648 242.785 539.735 242.35 539.909C241.929 540.083 241.567 540.337 241.262 540.671C240.958 540.99 240.718 541.375 240.544 541.824C240.37 542.274 240.283 542.782 240.283 543.348V543.783C240.283 544.421 240.37 545.001 240.544 545.524C240.733 546.031 240.987 546.467 241.306 546.829C241.625 547.177 241.995 547.446 242.415 547.634C242.836 547.823 243.286 547.917 243.765 547.917ZM251.919 537.907H253.703V540.083C254.095 539.315 254.639 538.727 255.335 538.321C256.046 537.9 256.866 537.69 257.794 537.69C259.245 537.69 260.405 538.169 261.276 539.126C262.146 540.069 262.581 541.476 262.581 543.348V543.783C262.581 544.769 262.465 545.632 262.233 546.372C262.001 547.098 261.675 547.707 261.254 548.2C260.833 548.679 260.326 549.041 259.731 549.288C259.15 549.535 258.505 549.658 257.794 549.658C256.808 549.658 255.981 549.44 255.313 549.005C254.661 548.57 254.167 548.026 253.834 547.373V553.792H251.919V537.907ZM257.359 547.961C257.823 547.961 258.258 547.874 258.664 547.7C259.071 547.511 259.419 547.243 259.709 546.894C260.014 546.546 260.246 546.111 260.405 545.589C260.579 545.067 260.666 544.465 260.666 543.783V543.348C260.666 542.724 260.579 542.165 260.405 541.672C260.246 541.179 260.014 540.765 259.709 540.432C259.419 540.083 259.071 539.822 258.664 539.648C258.258 539.474 257.823 539.387 257.359 539.387C256.837 539.387 256.358 539.474 255.923 539.648C255.487 539.808 255.118 540.04 254.813 540.345C254.508 540.635 254.269 540.983 254.095 541.389C253.921 541.795 253.834 542.231 253.834 542.695V544.436C253.834 544.958 253.921 545.437 254.095 545.872C254.269 546.307 254.508 546.677 254.813 546.982C255.118 547.286 255.487 547.526 255.923 547.7C256.358 547.874 256.837 547.961 257.359 547.961ZM268.592 549.658C267.954 549.658 267.388 549.571 266.895 549.397C266.416 549.208 266.01 548.954 265.676 548.635C265.343 548.316 265.089 547.939 264.915 547.504C264.741 547.069 264.654 546.59 264.654 546.068C264.654 544.922 264.987 544.095 265.655 543.587C266.336 543.079 267.308 542.825 268.571 542.825H272.313V542.042C272.313 541.055 272.088 540.374 271.639 539.996C271.204 539.619 270.543 539.431 269.659 539.431C268.832 539.431 268.23 539.59 267.852 539.909C267.475 540.214 267.265 540.562 267.221 540.954H265.306C265.336 540.49 265.459 540.062 265.676 539.67C265.909 539.264 266.213 538.916 266.59 538.626C266.982 538.335 267.446 538.111 267.983 537.951C268.52 537.777 269.115 537.69 269.767 537.69C271.131 537.69 272.212 538.016 273.01 538.669C273.822 539.307 274.228 540.359 274.228 541.824V546.503C274.228 547.112 274.228 547.649 274.228 548.113C274.243 548.563 274.279 549.005 274.337 549.44H272.661C272.618 549.107 272.589 548.795 272.574 548.505C272.56 548.2 272.553 547.859 272.553 547.482C272.248 548.091 271.755 548.606 271.073 549.027C270.391 549.448 269.564 549.658 268.592 549.658ZM269.006 547.917C269.455 547.917 269.876 547.859 270.268 547.743C270.674 547.613 271.029 547.431 271.334 547.199C271.639 546.952 271.878 546.655 272.052 546.307C272.226 545.959 272.313 545.553 272.313 545.088V544.305H268.897C268.186 544.305 267.628 544.45 267.221 544.74C266.815 545.016 266.612 545.458 266.612 546.068C266.612 546.604 266.801 547.047 267.178 547.395C267.57 547.743 268.179 547.917 269.006 547.917ZM282.071 549.658C281.331 549.658 280.642 549.542 280.004 549.31C279.366 549.063 278.815 548.701 278.35 548.222C277.886 547.729 277.516 547.112 277.241 546.372C276.979 545.632 276.849 544.769 276.849 543.783V543.348C276.849 542.419 276.994 541.599 277.284 540.889C277.574 540.178 277.959 539.59 278.437 539.126C278.916 538.647 279.467 538.292 280.091 538.06C280.729 537.813 281.389 537.69 282.071 537.69C282.753 537.69 283.362 537.784 283.899 537.973C284.45 538.161 284.922 538.422 285.314 538.756C285.72 539.09 286.046 539.481 286.293 539.931C286.554 540.381 286.743 540.867 286.859 541.389H284.9C284.784 541.113 284.646 540.86 284.487 540.627C284.342 540.381 284.153 540.171 283.921 539.996C283.703 539.822 283.442 539.685 283.138 539.583C282.833 539.481 282.478 539.431 282.071 539.431C281.651 539.431 281.244 539.51 280.853 539.67C280.461 539.815 280.113 540.047 279.808 540.366C279.504 540.671 279.257 541.07 279.068 541.563C278.894 542.056 278.807 542.651 278.807 543.348V543.783C278.807 544.523 278.894 545.161 279.068 545.698C279.257 546.22 279.504 546.648 279.808 546.982C280.113 547.301 280.461 547.54 280.853 547.7C281.244 547.845 281.651 547.917 282.071 547.917C282.782 547.917 283.377 547.743 283.856 547.395C284.349 547.047 284.697 546.568 284.9 545.959H286.859C286.583 547.105 286.017 548.012 285.161 548.679C284.305 549.332 283.275 549.658 282.071 549.658ZM289.468 537.907H291.383V542.26H293.711C295.162 542.26 296.228 542.579 296.91 543.217C297.606 543.855 297.955 544.74 297.955 545.872C297.955 546.974 297.606 547.845 296.91 548.483C296.228 549.121 295.162 549.44 293.711 549.44H289.468V537.907ZM293.603 547.743C294.502 547.743 295.133 547.584 295.496 547.264C295.858 546.945 296.04 546.474 296.04 545.85C296.04 545.226 295.858 544.755 295.496 544.436C295.133 544.116 294.502 543.957 293.603 543.957H291.383V547.743H293.603ZM299.739 537.907H301.654V549.44H299.739V537.907ZM305.13 537.907H310.135C311.556 537.907 312.601 538.205 313.268 538.8C313.935 539.38 314.269 540.134 314.269 541.063C314.269 541.309 314.225 541.563 314.138 541.824C314.051 542.071 313.928 542.303 313.768 542.521C313.623 542.738 313.442 542.927 313.224 543.086C313.021 543.246 312.789 543.369 312.528 543.456C313.239 543.63 313.776 543.964 314.138 544.457C314.516 544.936 314.704 545.502 314.704 546.155C314.704 547.156 314.371 547.953 313.703 548.548C313.036 549.143 311.991 549.44 310.57 549.44H305.13V537.907ZM310.57 547.743C311.382 547.743 311.955 547.598 312.289 547.308C312.622 547.018 312.789 546.604 312.789 546.068C312.789 545.516 312.622 545.096 312.289 544.805C311.955 544.501 311.382 544.349 310.57 544.349H307.045V547.743H310.57ZM310.135 542.782C310.961 542.782 311.534 542.637 311.854 542.347C312.187 542.056 312.354 541.657 312.354 541.15C312.354 540.671 312.187 540.294 311.854 540.018C311.534 539.743 310.961 539.605 310.135 539.605H307.045V542.782H310.135ZM320.719 549.658C320.081 549.658 319.515 549.571 319.022 549.397C318.543 549.208 318.137 548.954 317.804 548.635C317.47 548.316 317.216 547.939 317.042 547.504C316.868 547.069 316.781 546.59 316.781 546.068C316.781 544.922 317.114 544.095 317.782 543.587C318.464 543.079 319.436 542.825 320.698 542.825H324.44V542.042C324.44 541.055 324.216 540.374 323.766 539.996C323.331 539.619 322.671 539.431 321.786 539.431C320.959 539.431 320.357 539.59 319.98 539.909C319.602 540.214 319.392 540.562 319.348 540.954H317.434C317.463 540.49 317.586 540.062 317.804 539.67C318.036 539.264 318.34 538.916 318.717 538.626C319.109 538.335 319.573 538.111 320.11 537.951C320.647 537.777 321.242 537.69 321.894 537.69C323.258 537.69 324.339 538.016 325.137 538.669C325.949 539.307 326.355 540.359 326.355 541.824V546.503C326.355 547.112 326.355 547.649 326.355 548.113C326.37 548.563 326.406 549.005 326.464 549.44H324.789C324.745 549.107 324.716 548.795 324.702 548.505C324.687 548.2 324.68 547.859 324.68 547.482C324.375 548.091 323.882 548.606 323.2 549.027C322.518 549.448 321.691 549.658 320.719 549.658ZM321.133 547.917C321.583 547.917 322.003 547.859 322.395 547.743C322.801 547.613 323.157 547.431 323.461 547.199C323.766 546.952 324.005 546.655 324.179 546.307C324.353 545.959 324.44 545.553 324.44 545.088V544.305H321.024C320.313 544.305 319.755 544.45 319.348 544.74C318.942 545.016 318.739 545.458 318.739 546.068C318.739 546.604 318.928 547.047 319.305 547.395C319.697 547.743 320.306 547.917 321.133 547.917ZM334.525 549.658C333.785 549.658 333.081 549.542 332.414 549.31C331.747 549.078 331.159 548.722 330.651 548.244C330.144 547.75 329.738 547.134 329.433 546.394C329.128 545.654 328.976 544.784 328.976 543.783V543.348C328.976 542.39 329.121 541.563 329.411 540.867C329.701 540.156 330.086 539.568 330.564 539.104C331.058 538.626 331.623 538.27 332.262 538.038C332.915 537.806 333.596 537.69 334.307 537.69C336.004 537.69 337.317 538.154 338.246 539.083C339.174 540.011 339.638 541.324 339.638 543.021V544.24H330.891C330.891 544.922 331 545.495 331.217 545.959C331.435 546.423 331.718 546.8 332.066 547.09C332.414 547.38 332.798 547.591 333.219 547.721C333.654 547.852 334.09 547.917 334.525 547.917C335.395 547.917 336.063 547.772 336.527 547.482C337.005 547.192 337.346 546.793 337.549 546.285H339.421C339.305 546.836 339.094 547.322 338.79 547.743C338.5 548.164 338.137 548.519 337.702 548.809C337.281 549.085 336.795 549.295 336.244 549.44C335.707 549.585 335.134 549.658 334.525 549.658ZM334.416 539.431C333.966 539.431 333.531 539.496 333.11 539.627C332.69 539.743 332.312 539.938 331.979 540.214C331.66 540.475 331.399 540.809 331.195 541.215C330.992 541.621 330.891 542.107 330.891 542.673H337.832C337.818 542.078 337.716 541.578 337.528 541.171C337.354 540.751 337.114 540.417 336.81 540.171C336.505 539.909 336.142 539.721 335.722 539.605C335.315 539.489 334.88 539.431 334.416 539.431ZM344.781 539.605H340.842V537.907H350.634V539.605H346.696V549.44H344.781V539.605ZM357.064 549.658C356.324 549.658 355.635 549.542 354.997 549.31C354.358 549.063 353.807 548.701 353.343 548.222C352.879 547.729 352.509 547.112 352.233 546.372C351.972 545.632 351.841 544.769 351.841 543.783V543.348C351.841 542.419 351.986 541.599 352.276 540.889C352.567 540.178 352.951 539.59 353.43 539.126C353.909 538.647 354.46 538.292 355.084 538.06C355.722 537.813 356.382 537.69 357.064 537.69C357.746 537.69 358.355 537.784 358.892 537.973C359.443 538.161 359.914 538.422 360.306 538.756C360.712 539.09 361.039 539.481 361.285 539.931C361.546 540.381 361.735 540.867 361.851 541.389H359.893C359.777 541.113 359.639 540.86 359.479 540.627C359.334 540.381 359.146 540.171 358.913 539.996C358.696 539.822 358.435 539.685 358.13 539.583C357.825 539.481 357.47 539.431 357.064 539.431C356.643 539.431 356.237 539.51 355.845 539.67C355.453 539.815 355.105 540.047 354.801 540.366C354.496 540.671 354.249 541.07 354.061 541.563C353.887 542.056 353.8 542.651 353.8 543.348V543.783C353.8 544.523 353.887 545.161 354.061 545.698C354.249 546.22 354.496 546.648 354.801 546.982C355.105 547.301 355.453 547.54 355.845 547.7C356.237 547.845 356.643 547.917 357.064 547.917C357.775 547.917 358.369 547.743 358.848 547.395C359.341 547.047 359.69 546.568 359.893 545.959H361.851C361.575 547.105 361.01 548.012 360.154 548.679C359.298 549.332 358.268 549.658 357.064 549.658ZM366.724 544.871C365.766 544.653 365.077 544.261 364.656 543.696C364.236 543.115 364.025 542.376 364.025 541.476C364.025 540.345 364.366 539.467 365.048 538.843C365.744 538.219 366.854 537.907 368.377 537.907H373.382V549.44H371.467V545.045H368.53L365.723 549.44H363.59L366.724 544.871ZM365.94 541.476C365.94 542.085 366.114 542.55 366.463 542.869C366.825 543.188 367.427 543.348 368.269 543.348H371.467V539.605H368.269C367.427 539.605 366.825 539.764 366.463 540.083C366.114 540.403 365.94 540.867 365.94 541.476ZM382.311 537.907H384.226V546.612L390.188 537.907H392.103V549.44H390.188V540.736L384.226 549.44H382.311V537.907ZM399.509 549.658C398.059 549.658 396.92 549.353 396.093 548.744C395.266 548.135 394.809 547.279 394.722 546.176H396.637C396.738 546.742 397.036 547.177 397.529 547.482C398.037 547.772 398.697 547.917 399.509 547.917C400.51 547.917 401.236 547.75 401.685 547.417C402.149 547.069 402.382 546.655 402.382 546.176C402.382 545.611 402.193 545.168 401.816 544.849C401.439 544.515 400.786 544.349 399.857 544.349H397.877V542.782H399.727C400.525 542.782 401.09 542.629 401.424 542.325C401.772 542.02 401.946 541.592 401.946 541.041C401.946 540.606 401.743 540.229 401.337 539.909C400.931 539.59 400.322 539.431 399.509 539.431C398.624 539.431 397.979 539.576 397.573 539.866C397.181 540.142 396.941 540.54 396.854 541.063H394.94C394.983 540.584 395.114 540.142 395.331 539.735C395.563 539.315 395.875 538.952 396.267 538.647C396.659 538.343 397.123 538.111 397.66 537.951C398.211 537.777 398.827 537.69 399.509 537.69C400.249 537.69 400.887 537.777 401.424 537.951C401.975 538.111 402.432 538.343 402.795 538.647C403.158 538.937 403.426 539.286 403.6 539.692C403.774 540.098 403.861 540.548 403.861 541.041C403.861 541.592 403.723 542.078 403.448 542.499C403.172 542.905 402.73 543.224 402.12 543.456C402.933 543.674 403.499 544.022 403.818 544.501C404.137 544.98 404.296 545.538 404.296 546.176C404.296 546.655 404.195 547.105 403.992 547.526C403.789 547.946 403.484 548.316 403.078 548.635C402.686 548.94 402.186 549.187 401.576 549.375C400.982 549.564 400.293 549.658 399.509 549.658ZM405.942 542.455H412.47V544.24H405.942V542.455ZM418.996 549.658C417.545 549.658 416.406 549.353 415.579 548.744C414.752 548.135 414.296 547.279 414.208 546.176H416.123C416.225 546.742 416.522 547.177 417.016 547.482C417.523 547.772 418.183 547.917 418.996 547.917C419.997 547.917 420.722 547.75 421.172 547.417C421.636 547.069 421.868 546.655 421.868 546.176C421.868 545.611 421.68 545.168 421.302 544.849C420.925 544.515 420.272 544.349 419.344 544.349H417.364V542.782H419.213C420.011 542.782 420.577 542.629 420.911 542.325C421.259 542.02 421.433 541.592 421.433 541.041C421.433 540.606 421.23 540.229 420.824 539.909C420.417 539.59 419.808 539.431 418.996 539.431C418.111 539.431 417.465 539.576 417.059 539.866C416.667 540.142 416.428 540.54 416.341 541.063H414.426C414.47 540.584 414.6 540.142 414.818 539.735C415.05 539.315 415.362 538.952 415.753 538.647C416.145 538.343 416.609 538.111 417.146 537.951C417.697 537.777 418.314 537.69 418.996 537.69C419.736 537.69 420.374 537.777 420.911 537.951C421.462 538.111 421.919 538.343 422.282 538.647C422.644 538.937 422.913 539.286 423.087 539.692C423.261 540.098 423.348 540.548 423.348 541.041C423.348 541.592 423.21 542.078 422.934 542.499C422.659 542.905 422.216 543.224 421.607 543.456C422.419 543.674 422.985 544.022 423.304 544.501C423.623 544.98 423.783 545.538 423.783 546.176C423.783 546.655 423.681 547.105 423.478 547.526C423.275 547.946 422.971 548.316 422.564 548.635C422.173 548.94 421.672 549.187 421.063 549.375C420.468 549.564 419.779 549.658 418.996 549.658ZM429.797 549.658C429.159 549.658 428.593 549.571 428.1 549.397C427.621 549.208 427.215 548.954 426.882 548.635C426.548 548.316 426.294 547.939 426.12 547.504C425.946 547.069 425.859 546.59 425.859 546.068C425.859 544.922 426.192 544.095 426.86 543.587C427.542 543.079 428.514 542.825 429.776 542.825H433.518V542.042C433.518 541.055 433.294 540.374 432.844 539.996C432.409 539.619 431.749 539.431 430.864 539.431C430.037 539.431 429.435 539.59 429.058 539.909C428.68 540.214 428.47 540.562 428.426 540.954H426.512C426.541 540.49 426.664 540.062 426.882 539.67C427.114 539.264 427.418 538.916 427.795 538.626C428.187 538.335 428.651 538.111 429.188 537.951C429.725 537.777 430.32 537.69 430.972 537.69C432.336 537.69 433.417 538.016 434.215 538.669C435.027 539.307 435.433 540.359 435.433 541.824V546.503C435.433 547.112 435.433 547.649 435.433 548.113C435.448 548.563 435.484 549.005 435.542 549.44H433.867C433.823 549.107 433.794 548.795 433.78 548.505C433.765 548.2 433.758 547.859 433.758 547.482C433.453 548.091 432.96 548.606 432.278 549.027C431.596 549.448 430.769 549.658 429.797 549.658ZM430.211 547.917C430.661 547.917 431.081 547.859 431.473 547.743C431.879 547.613 432.235 547.431 432.539 547.199C432.844 546.952 433.083 546.655 433.257 546.307C433.431 545.959 433.518 545.553 433.518 545.088V544.305H430.102C429.391 544.305 428.833 544.45 428.426 544.74C428.02 545.016 427.817 545.458 427.817 546.068C427.817 546.604 428.006 547.047 428.383 547.395C428.775 547.743 429.384 547.917 430.211 547.917ZM450.936 544.849C450.602 545.052 450.196 545.233 449.717 545.393C449.253 545.553 448.666 545.632 447.955 545.632C447.288 545.632 446.686 545.56 446.149 545.415C445.627 545.27 445.184 545.038 444.821 544.718C444.459 544.399 444.183 543.986 443.994 543.478C443.806 542.97 443.712 542.347 443.712 541.607V537.907H445.627V541.28C445.627 541.774 445.67 542.187 445.757 542.521C445.859 542.854 446.018 543.123 446.236 543.326C446.453 543.529 446.729 543.674 447.063 543.761C447.396 543.848 447.803 543.892 448.281 543.892C448.934 543.892 449.493 543.826 449.957 543.696C450.421 543.565 450.747 543.427 450.936 543.282V537.907H452.851V549.44H450.936V544.849ZM456.326 537.907H458.11V540.083C458.502 539.315 459.046 538.727 459.742 538.321C460.453 537.9 461.273 537.69 462.201 537.69C463.652 537.69 464.812 538.169 465.683 539.126C466.553 540.069 466.988 541.476 466.988 543.348V543.783C466.988 544.769 466.872 545.632 466.64 546.372C466.408 547.098 466.082 547.707 465.661 548.2C465.24 548.679 464.733 549.041 464.138 549.288C463.558 549.535 462.912 549.658 462.201 549.658C461.215 549.658 460.388 549.44 459.72 549.005C459.068 548.57 458.574 548.026 458.241 547.373V553.792H456.326V537.907ZM461.766 547.961C462.23 547.961 462.665 547.874 463.072 547.7C463.478 547.511 463.826 547.243 464.116 546.894C464.421 546.546 464.653 546.111 464.812 545.589C464.986 545.067 465.073 544.465 465.073 543.783V543.348C465.073 542.724 464.986 542.165 464.812 541.672C464.653 541.179 464.421 540.765 464.116 540.432C463.826 540.083 463.478 539.822 463.072 539.648C462.665 539.474 462.23 539.387 461.766 539.387C461.244 539.387 460.765 539.474 460.33 539.648C459.895 539.808 459.525 540.04 459.22 540.345C458.915 540.635 458.676 540.983 458.502 541.389C458.328 541.795 458.241 542.231 458.241 542.695V544.436C458.241 544.958 458.328 545.437 458.502 545.872C458.676 546.307 458.915 546.677 459.22 546.982C459.525 547.286 459.895 547.526 460.33 547.7C460.765 547.874 461.244 547.961 461.766 547.961ZM474.501 549.658C473.761 549.658 473.057 549.542 472.39 549.31C471.723 549.078 471.135 548.722 470.627 548.244C470.12 547.75 469.714 547.134 469.409 546.394C469.104 545.654 468.952 544.784 468.952 543.783V543.348C468.952 542.39 469.097 541.563 469.387 540.867C469.677 540.156 470.062 539.568 470.54 539.104C471.034 538.626 471.599 538.27 472.238 538.038C472.891 537.806 473.572 537.69 474.283 537.69C475.98 537.69 477.293 538.154 478.222 539.083C479.15 540.011 479.614 541.324 479.614 543.021V544.24H470.867C470.867 544.922 470.976 545.495 471.193 545.959C471.411 546.423 471.694 546.8 472.042 547.09C472.39 547.38 472.774 547.591 473.195 547.721C473.63 547.852 474.066 547.917 474.501 547.917C475.371 547.917 476.039 547.772 476.503 547.482C476.981 547.192 477.322 546.793 477.525 546.285H479.397C479.281 546.836 479.07 547.322 478.766 547.743C478.476 548.164 478.113 548.519 477.678 548.809C477.257 549.085 476.771 549.295 476.22 549.44C475.683 549.585 475.11 549.658 474.501 549.658ZM474.392 539.431C473.942 539.431 473.507 539.496 473.086 539.627C472.666 539.743 472.288 539.938 471.955 540.214C471.636 540.475 471.375 540.809 471.171 541.215C470.968 541.621 470.867 542.107 470.867 542.673H477.808C477.794 542.078 477.692 541.578 477.504 541.171C477.33 540.751 477.09 540.417 476.786 540.171C476.481 539.909 476.118 539.721 475.698 539.605C475.291 539.489 474.856 539.431 474.392 539.431ZM486.253 549.658C484.802 549.658 483.664 549.353 482.837 548.744C482.01 548.135 481.553 547.279 481.466 546.176H483.381C483.482 546.742 483.78 547.177 484.273 547.482C484.781 547.772 485.441 547.917 486.253 547.917C487.254 547.917 487.979 547.75 488.429 547.417C488.893 547.069 489.125 546.655 489.125 546.176C489.125 545.611 488.937 545.168 488.56 544.849C488.183 544.515 487.53 544.349 486.601 544.349H484.621V542.782H486.471C487.269 542.782 487.834 542.629 488.168 542.325C488.516 542.02 488.69 541.592 488.69 541.041C488.69 540.606 488.487 540.229 488.081 539.909C487.675 539.59 487.065 539.431 486.253 539.431C485.368 539.431 484.723 539.576 484.316 539.866C483.925 540.142 483.685 540.54 483.598 541.063H481.683C481.727 540.584 481.857 540.142 482.075 539.735C482.307 539.315 482.619 538.952 483.011 538.647C483.402 538.343 483.867 538.111 484.403 537.951C484.955 537.777 485.571 537.69 486.253 537.69C486.993 537.69 487.631 537.777 488.168 537.951C488.719 538.111 489.176 538.343 489.539 538.647C489.902 538.937 490.17 539.286 490.344 539.692C490.518 540.098 490.605 540.548 490.605 541.041C490.605 541.592 490.467 542.078 490.192 542.499C489.916 542.905 489.474 543.224 488.864 543.456C489.677 543.674 490.242 544.022 490.562 544.501C490.881 544.98 491.04 545.538 491.04 546.176C491.04 546.655 490.939 547.105 490.736 547.526C490.533 547.946 490.228 548.316 489.822 548.635C489.43 548.94 488.93 549.187 488.32 549.375C487.726 549.564 487.036 549.658 486.253 549.658ZM493.769 537.907H495.814L499.927 545.088L504.04 537.907H505.955V549.44H504.04V541.063L500.623 546.938H499.1L495.684 541.063V549.44H493.769V537.907ZM514.218 549.658C513.478 549.658 512.774 549.542 512.107 549.31C511.44 549.078 510.852 548.722 510.344 548.244C509.837 547.75 509.43 547.134 509.126 546.394C508.821 545.654 508.669 544.784 508.669 543.783V543.348C508.669 542.39 508.814 541.563 509.104 540.867C509.394 540.156 509.779 539.568 510.257 539.104C510.751 538.626 511.316 538.27 511.955 538.038C512.607 537.806 513.289 537.69 514 537.69C515.697 537.69 517.01 538.154 517.939 539.083C518.867 540.011 519.331 541.324 519.331 543.021V544.24H510.584C510.584 544.922 510.693 545.495 510.91 545.959C511.128 546.423 511.411 546.8 511.759 547.09C512.107 547.38 512.491 547.591 512.912 547.721C513.347 547.852 513.782 547.917 514.218 547.917C515.088 547.917 515.755 547.772 516.22 547.482C516.698 547.192 517.039 546.793 517.242 546.285H519.114C518.998 546.836 518.787 547.322 518.483 547.743C518.193 548.164 517.83 548.519 517.395 548.809C516.974 549.085 516.488 549.295 515.937 549.44C515.4 549.585 514.827 549.658 514.218 549.658ZM514.109 539.431C513.659 539.431 513.224 539.496 512.803 539.627C512.383 539.743 512.005 539.938 511.672 540.214C511.353 540.475 511.091 540.809 510.888 541.215C510.685 541.621 510.584 542.107 510.584 542.673H517.525C517.511 542.078 517.409 541.578 517.221 541.171C517.047 540.751 516.807 540.417 516.503 540.171C516.198 539.909 515.835 539.721 515.414 539.605C515.008 539.489 514.573 539.431 514.109 539.431ZM522.053 537.907H523.837V540.083C524.229 539.315 524.773 538.727 525.469 538.321C526.18 537.9 527 537.69 527.928 537.69C529.379 537.69 530.54 538.169 531.41 539.126C532.28 540.069 532.716 541.476 532.716 543.348V543.783C532.716 544.769 532.6 545.632 532.368 546.372C532.135 547.098 531.809 547.707 531.388 548.2C530.968 548.679 530.46 549.041 529.865 549.288C529.285 549.535 528.639 549.658 527.928 549.658C526.942 549.658 526.115 549.44 525.448 549.005C524.795 548.57 524.302 548.026 523.968 547.373V553.792H522.053V537.907ZM527.493 547.961C527.957 547.961 528.393 547.874 528.799 547.7C529.205 547.511 529.553 547.243 529.843 546.894C530.148 546.546 530.38 546.111 530.54 545.589C530.714 545.067 530.801 544.465 530.801 543.783V543.348C530.801 542.724 530.714 542.165 530.54 541.672C530.38 541.179 530.148 540.765 529.843 540.432C529.553 540.083 529.205 539.822 528.799 539.648C528.393 539.474 527.957 539.387 527.493 539.387C526.971 539.387 526.492 539.474 526.057 539.648C525.622 539.808 525.252 540.04 524.947 540.345C524.643 540.635 524.403 540.983 524.229 541.389C524.055 541.795 523.968 542.231 523.968 542.695V544.436C523.968 544.958 524.055 545.437 524.229 545.872C524.403 546.307 524.643 546.677 524.947 546.982C525.252 547.286 525.622 547.526 526.057 547.7C526.492 547.874 526.971 547.961 527.493 547.961ZM535.441 537.907H537.356V542.716H543.318V537.907H545.233V549.44H543.318V544.414H537.356V549.44H535.441V537.907ZM553.51 549.658C552.77 549.658 552.066 549.542 551.399 549.31C550.732 549.063 550.144 548.701 549.636 548.222C549.128 547.729 548.722 547.112 548.418 546.372C548.113 545.632 547.961 544.769 547.961 543.783V543.348C547.961 542.419 548.113 541.599 548.418 540.889C548.722 540.178 549.128 539.59 549.636 539.126C550.144 538.647 550.732 538.292 551.399 538.06C552.066 537.813 552.77 537.69 553.51 537.69C554.249 537.69 554.953 537.813 555.62 538.06C556.288 538.292 556.875 538.647 557.383 539.126C557.891 539.59 558.297 540.178 558.602 540.889C558.906 541.599 559.058 542.419 559.058 543.348V543.783C559.058 544.769 558.906 545.632 558.602 546.372C558.297 547.112 557.891 547.729 557.383 548.222C556.875 548.701 556.288 549.063 555.62 549.31C554.953 549.542 554.249 549.658 553.51 549.658ZM553.51 547.917C553.945 547.917 554.38 547.845 554.815 547.7C555.25 547.54 555.635 547.301 555.969 546.982C556.302 546.648 556.571 546.22 556.774 545.698C556.991 545.175 557.1 544.537 557.1 543.783V543.348C557.1 542.651 556.991 542.056 556.774 541.563C556.571 541.07 556.302 540.664 555.969 540.345C555.635 540.025 555.25 539.793 554.815 539.648C554.38 539.503 553.945 539.431 553.51 539.431C553.074 539.431 552.639 539.503 552.204 539.648C551.769 539.793 551.384 540.025 551.051 540.345C550.717 540.664 550.441 541.07 550.224 541.563C550.021 542.056 549.919 542.651 549.919 543.348V543.783C549.919 544.537 550.021 545.175 550.224 545.698C550.441 546.22 550.717 546.648 551.051 546.982C551.384 547.301 551.769 547.54 552.204 547.7C552.639 547.845 553.074 547.917 553.51 547.917ZM561.77 537.907H569.604V539.605H563.685V549.44H561.77V537.907ZM576.354 549.658C575.614 549.658 574.91 549.542 574.243 549.31C573.576 549.063 572.988 548.701 572.48 548.222C571.973 547.729 571.566 547.112 571.262 546.372C570.957 545.632 570.805 544.769 570.805 543.783V543.348C570.805 542.419 570.957 541.599 571.262 540.889C571.566 540.178 571.973 539.59 572.48 539.126C572.988 538.647 573.576 538.292 574.243 538.06C574.91 537.813 575.614 537.69 576.354 537.69C577.094 537.69 577.797 537.813 578.464 538.06C579.132 538.292 579.719 538.647 580.227 539.126C580.735 539.59 581.141 540.178 581.446 540.889C581.75 541.599 581.903 542.419 581.903 543.348V543.783C581.903 544.769 581.75 545.632 581.446 546.372C581.141 547.112 580.735 547.729 580.227 548.222C579.719 548.701 579.132 549.063 578.464 549.31C577.797 549.542 577.094 549.658 576.354 549.658ZM576.354 547.917C576.789 547.917 577.224 547.845 577.659 547.7C578.095 547.54 578.479 547.301 578.813 546.982C579.146 546.648 579.415 546.22 579.618 545.698C579.835 545.175 579.944 544.537 579.944 543.783V543.348C579.944 542.651 579.835 542.056 579.618 541.563C579.415 541.07 579.146 540.664 578.813 540.345C578.479 540.025 578.095 539.793 577.659 539.648C577.224 539.503 576.789 539.431 576.354 539.431C575.918 539.431 575.483 539.503 575.048 539.648C574.613 539.793 574.228 540.025 573.895 540.345C573.561 540.664 573.285 541.07 573.068 541.563C572.865 542.056 572.763 542.651 572.763 543.348V543.783C572.763 544.537 572.865 545.175 573.068 545.698C573.285 546.22 573.561 546.648 573.895 546.982C574.228 547.301 574.613 547.54 575.048 547.7C575.483 547.845 575.918 547.917 576.354 547.917ZM588.749 547.743H590.163C590.323 547.526 590.468 547.192 590.598 546.742C590.729 546.292 590.845 545.763 590.946 545.154C591.048 544.544 591.12 543.884 591.164 543.173C591.222 542.448 591.251 541.708 591.251 540.954V537.907H599.302V547.743H600.934V552.16H599.107V549.44H590.576V552.16H588.749V547.743ZM597.387 547.743V539.605H593.122V541.389C593.122 541.998 593.101 542.608 593.057 543.217C593.014 543.812 592.948 544.385 592.861 544.936C592.774 545.473 592.665 545.988 592.535 546.481C592.419 546.96 592.281 547.38 592.121 547.743H597.387ZM606.597 543.5L602.463 537.907H604.595L608.12 542.738H609.448V537.907H611.363V542.738H612.668L616.259 537.907H618.348L614.213 543.435L618.565 549.44H616.302L612.668 544.392H611.363V549.44H609.448V544.392H608.12L604.465 549.44H602.245L606.597 543.5ZM620.846 537.907H622.761V546.612L628.723 537.907H630.638V549.44H628.723V540.736L622.761 549.44H620.846V537.907ZM636.76 539.605H632.822V537.907H642.614V539.605H638.675V549.44H636.76V539.605ZM648.087 539.605H644.148V537.907H653.94V539.605H650.002V549.44H648.087V539.605ZM660.696 549.658C659.956 549.658 659.253 549.542 658.586 549.31C657.918 549.078 657.331 548.722 656.823 548.244C656.315 547.75 655.909 547.134 655.604 546.394C655.3 545.654 655.147 544.784 655.147 543.783V543.348C655.147 542.39 655.292 541.563 655.583 540.867C655.873 540.156 656.257 539.568 656.736 539.104C657.229 538.626 657.795 538.27 658.433 538.038C659.086 537.806 659.768 537.69 660.479 537.69C662.176 537.69 663.489 538.154 664.417 539.083C665.346 540.011 665.81 541.324 665.81 543.021V544.24H657.062C657.062 544.922 657.171 545.495 657.389 545.959C657.606 546.423 657.889 546.8 658.237 547.09C658.586 547.38 658.97 547.591 659.391 547.721C659.826 547.852 660.261 547.917 660.696 547.917C661.567 547.917 662.234 547.772 662.698 547.482C663.177 547.192 663.518 546.793 663.721 546.285H665.592C665.476 546.836 665.266 547.322 664.961 547.743C664.671 548.164 664.309 548.519 663.873 548.809C663.453 549.085 662.967 549.295 662.415 549.44C661.879 549.585 661.306 549.658 660.696 549.658ZM660.587 539.431C660.138 539.431 659.703 539.496 659.282 539.627C658.861 539.743 658.484 539.938 658.15 540.214C657.831 540.475 657.57 540.809 657.367 541.215C657.164 541.621 657.062 542.107 657.062 542.673H664.004C663.989 542.078 663.888 541.578 663.699 541.171C663.525 540.751 663.286 540.417 662.981 540.171C662.676 539.909 662.314 539.721 661.893 539.605C661.487 539.489 661.052 539.431 660.587 539.431ZM668.532 537.907H670.316V540.083C670.708 539.315 671.252 538.727 671.948 538.321C672.659 537.9 673.479 537.69 674.407 537.69C675.858 537.69 677.018 538.169 677.889 539.126C678.759 540.069 679.194 541.476 679.194 543.348V543.783C679.194 544.769 679.078 545.632 678.846 546.372C678.614 547.098 678.288 547.707 677.867 548.2C677.446 548.679 676.938 549.041 676.344 549.288C675.763 549.535 675.118 549.658 674.407 549.658C673.421 549.658 672.594 549.44 671.926 549.005C671.274 548.57 670.78 548.026 670.447 547.373V553.792H668.532V537.907ZM673.972 547.961C674.436 547.961 674.871 547.874 675.277 547.7C675.684 547.511 676.032 547.243 676.322 546.894C676.627 546.546 676.859 546.111 677.018 545.589C677.192 545.067 677.279 544.465 677.279 543.783V543.348C677.279 542.724 677.192 542.165 677.018 541.672C676.859 541.179 676.627 540.765 676.322 540.432C676.032 540.083 675.684 539.822 675.277 539.648C674.871 539.474 674.436 539.387 673.972 539.387C673.45 539.387 672.971 539.474 672.536 539.648C672.1 539.808 671.73 540.04 671.426 540.345C671.121 540.635 670.882 540.983 670.708 541.389C670.534 541.795 670.447 542.231 670.447 542.695V544.436C670.447 544.958 670.534 545.437 670.708 545.872C670.882 546.307 671.121 546.677 671.426 546.982C671.73 547.286 672.1 547.526 672.536 547.7C672.971 547.874 673.45 547.961 673.972 547.961ZM685.205 549.658C684.567 549.658 684.001 549.571 683.508 549.397C683.029 549.208 682.623 548.954 682.289 548.635C681.956 548.316 681.702 547.939 681.528 547.504C681.354 547.069 681.267 546.59 681.267 546.068C681.267 544.922 681.6 544.095 682.268 543.587C682.949 543.079 683.921 542.825 685.183 542.825H688.926V542.042C688.926 541.055 688.701 540.374 688.252 539.996C687.816 539.619 687.156 539.431 686.271 539.431C685.445 539.431 684.843 539.59 684.465 539.909C684.088 540.214 683.878 540.562 683.834 540.954H681.919C681.948 540.49 682.072 540.062 682.289 539.67C682.521 539.264 682.826 538.916 683.203 538.626C683.595 538.335 684.059 538.111 684.596 537.951C685.133 537.777 685.727 537.69 686.38 537.69C687.744 537.69 688.825 538.016 689.623 538.669C690.435 539.307 690.841 540.359 690.841 541.824V546.503C690.841 547.112 690.841 547.649 690.841 548.113C690.856 548.563 690.892 549.005 690.95 549.44H689.274C689.231 549.107 689.202 548.795 689.187 548.505C689.173 548.2 689.166 547.859 689.166 547.482C688.861 548.091 688.368 548.606 687.686 549.027C687.004 549.448 686.177 549.658 685.205 549.658ZM685.619 547.917C686.068 547.917 686.489 547.859 686.881 547.743C687.287 547.613 687.642 547.431 687.947 547.199C688.252 546.952 688.491 546.655 688.665 546.307C688.839 545.959 688.926 545.553 688.926 545.088V544.305H685.51C684.799 544.305 684.241 544.45 683.834 544.74C683.428 545.016 683.225 545.458 683.225 546.068C683.225 546.604 683.414 547.047 683.791 547.395C684.182 547.743 684.792 547.917 685.619 547.917Z" fill="black"/>
<g clip-path="url(#clip0_1551_144612)">
<rect width="61.8504" height="45.3848" transform="matrix(-1 0 0 1 177.578 455.519)" fill="#FFDF6E"/>
<path d="M177.578 500.905L149.385 459.53C148.073 457.604 145.233 457.604 143.921 459.53L115.728 500.905" stroke="#E5C243" stroke-width="0.978325"/>
<path d="M177.578 463.572V455.29H146.653H115.728V463.572L144.811 483.09C145.925 483.838 147.381 483.838 148.495 483.09L177.578 463.572Z" fill="#FFDF6E"/>
<path d="M177.578 463.573L148.495 483.092C147.381 483.839 145.925 483.839 144.811 483.092L115.728 463.573" stroke="#E5C243" stroke-width="0.978325"/>
<path d="M177.293 500.516V459.73C177.293 457.539 175.517 455.763 173.326 455.763H113.898" stroke="#FFECA8" stroke-width="1.32228"/>
</g>
<g clip-path="url(#clip1_1551_144612)">
<rect width="61.8504" height="45.3848" transform="matrix(-1 0 0 1 278.578 455.519)" fill="#FFDF6E"/>
<path d="M278.578 500.905L250.385 459.53C249.073 457.604 246.233 457.604 244.921 459.53L216.728 500.905" stroke="#E5C243" stroke-width="0.978325"/>
<path d="M278.578 463.572V455.29H247.653H216.728V463.572L245.811 483.09C246.925 483.838 248.381 483.838 249.495 483.09L278.578 463.572Z" fill="#FFDF6E"/>
<path d="M278.578 463.573L249.495 483.092C248.381 483.839 246.925 483.839 245.811 483.092L216.728 463.573" stroke="#E5C243" stroke-width="0.978325"/>
<path d="M278.293 500.516V459.73C278.293 457.539 276.517 455.763 274.326 455.763H214.898" stroke="#FFECA8" stroke-width="1.32228"/>
</g>
<g clip-path="url(#clip2_1551_144612)">
<rect width="61.8504" height="45.3848" transform="matrix(-1 0 0 1 379.578 455.519)" fill="#FFDF6E"/>
<path d="M379.578 500.905L351.385 459.53C350.073 457.604 347.233 457.604 345.921 459.53L317.728 500.905" stroke="#E5C243" stroke-width="0.978325"/>
<path d="M379.578 463.572V455.29H348.653H317.728V463.572L346.811 483.09C347.925 483.838 349.381 483.838 350.495 483.09L379.578 463.572Z" fill="#FFDF6E"/>
<path d="M379.578 463.573L350.495 483.092C349.381 483.839 347.925 483.839 346.811 483.092L317.728 463.573" stroke="#E5C243" stroke-width="0.978325"/>
<path d="M379.293 500.516V459.73C379.293 457.539 377.517 455.763 375.326 455.763H315.898" stroke="#FFECA8" stroke-width="1.32228"/>
</g>
<g clip-path="url(#clip3_1551_144612)">
<rect width="61.8504" height="45.3848" transform="matrix(-1 0 0 1 519.578 455.519)" fill="#FFDF6E"/>
<path d="M519.578 500.905L491.385 459.53C490.073 457.604 487.233 457.604 485.921 459.53L457.728 500.905" stroke="#E5C243" stroke-width="0.978325"/>
<path d="M519.578 463.572V455.29H488.653H457.728V463.572L486.811 483.09C487.925 483.838 489.381 483.838 490.495 483.09L519.578 463.572Z" fill="#FFDF6E"/>
<path d="M519.578 463.573L490.495 483.092C489.381 483.839 487.925 483.839 486.811 483.092L457.728 463.573" stroke="#E5C243" stroke-width="0.978325"/>
<path d="M519.293 500.516V459.73C519.293 457.539 517.517 455.763 515.326 455.763H455.898" stroke="#FFECA8" stroke-width="1.32228"/>
</g>
<g clip-path="url(#clip4_1551_144612)">
<rect width="61.8504" height="45.3848" transform="matrix(-1 0 0 1 620.578 455.519)" fill="#FFDF6E"/>
<path d="M620.578 500.905L592.385 459.53C591.073 457.604 588.233 457.604 586.921 459.53L558.728 500.905" stroke="#E5C243" stroke-width="0.978325"/>
<path d="M620.578 463.572V455.29H589.653H558.728V463.572L587.811 483.09C588.925 483.838 590.381 483.838 591.495 483.09L620.578 463.572Z" fill="#FFDF6E"/>
<path d="M620.578 463.573L591.495 483.092C590.381 483.839 588.925 483.839 587.811 483.092L558.728 463.573" stroke="#E5C243" stroke-width="0.978325"/>
<path d="M620.293 500.516V459.73C620.293 457.539 618.517 455.763 616.326 455.763H556.898" stroke="#FFECA8" stroke-width="1.32228"/>
</g>
<g clip-path="url(#clip5_1551_144612)">
<rect width="61.8504" height="45.3848" transform="matrix(-1 0 0 1 721.578 455.519)" fill="#FFDF6E"/>
<path d="M721.578 500.905L693.385 459.53C692.073 457.604 689.233 457.604 687.921 459.53L659.728 500.905" stroke="#E5C243" stroke-width="0.978325"/>
<path d="M721.578 463.572V455.29H690.653H659.728V463.572L688.811 483.09C689.925 483.838 691.381 483.838 692.495 483.09L721.578 463.572Z" fill="#FFDF6E"/>
<path d="M721.578 463.573L692.495 483.092C691.381 483.839 689.925 483.839 688.811 483.092L659.728 463.573" stroke="#E5C243" stroke-width="0.978325"/>
<path d="M721.293 500.516V459.73C721.293 457.539 719.517 455.763 717.326 455.763H657.898" stroke="#FFECA8" stroke-width="1.32228"/>
</g>
<g clip-path="url(#clip6_1551_144612)">
<rect width="61.8504" height="45.3848" transform="matrix(-1 0 0 1 162.078 152.633)" fill="#F7C1A6"/>
<path d="M162.078 198.02L133.885 156.644C132.573 154.718 129.733 154.718 128.421 156.644L100.228 198.02" stroke="#D0643B" stroke-width="0.978325"/>
<path d="M162.078 160.686V152.404H131.153H100.228V160.686L129.311 180.204C130.425 180.952 131.881 180.952 132.995 180.204L162.078 160.686Z" fill="#F7C1A6"/>
<path d="M162.078 160.688L132.995 180.206C131.881 180.954 130.425 180.954 129.311 180.206L100.228 160.688" stroke="#D0643B" stroke-width="0.978325"/>
<path d="M161.793 197.631V156.844C161.793 154.653 160.017 152.877 157.826 152.877H98.3977" stroke="#FFF6F2" stroke-width="1.32228"/>
</g>
<g clip-path="url(#clip7_1551_144612)">
<rect width="61.8504" height="45.3848" transform="matrix(-1 0 0 1 263.078 152.633)" fill="#F7C1A6"/>
<path d="M263.078 198.02L234.885 156.644C233.573 154.718 230.733 154.718 229.421 156.644L201.228 198.02" stroke="#D0643B" stroke-width="0.978325"/>
<path d="M263.078 160.686V152.404H232.153H201.228V160.686L230.311 180.204C231.425 180.952 232.881 180.952 233.995 180.204L263.078 160.686Z" fill="#F7C1A6"/>
<path d="M263.078 160.688L233.995 180.206C232.881 180.954 231.425 180.954 230.311 180.206L201.228 160.688" stroke="#D0643B" stroke-width="0.978325"/>
<path d="M262.793 197.631V156.844C262.793 154.653 261.017 152.877 258.826 152.877H199.398" stroke="#FFF6F2" stroke-width="1.32228"/>
</g>
<g clip-path="url(#clip8_1551_144612)">
<rect width="61.8504" height="45.3848" transform="matrix(-1 0 0 1 399.078 152.633)" fill="#F7C1A6"/>
<path d="M399.078 198.02L370.885 156.644C369.573 154.718 366.733 154.718 365.421 156.644L337.228 198.02" stroke="#D0643B" stroke-width="0.978325"/>
<path d="M399.078 160.686V152.404H368.153H337.228V160.686L366.311 180.204C367.425 180.952 368.881 180.952 369.995 180.204L399.078 160.686Z" fill="#F7C1A6"/>
<path d="M399.078 160.688L369.995 180.206C368.881 180.954 367.425 180.954 366.311 180.206L337.228 160.688" stroke="#D0643B" stroke-width="0.978325"/>
<path d="M398.793 197.631V156.844C398.793 154.653 397.017 152.877 394.826 152.877H335.398" stroke="#FFF6F2" stroke-width="1.32228"/>
</g>
<g clip-path="url(#clip9_1551_144612)">
<rect width="61.8504" height="45.3848" transform="matrix(-1 0 0 1 500.078 152.633)" fill="#F7C1A6"/>
<path d="M500.078 198.02L471.885 156.644C470.573 154.718 467.733 154.718 466.421 156.644L438.228 198.02" stroke="#D0643B" stroke-width="0.978325"/>
<path d="M500.078 160.686V152.404H469.153H438.228V160.686L467.311 180.204C468.425 180.952 469.881 180.952 470.995 180.204L500.078 160.686Z" fill="#F7C1A6"/>
<path d="M500.078 160.688L470.995 180.206C469.881 180.954 468.425 180.954 467.311 180.206L438.228 160.688" stroke="#D0643B" stroke-width="0.978325"/>
<path d="M499.793 197.631V156.844C499.793 154.653 498.017 152.877 495.826 152.877H436.398" stroke="#FFF6F2" stroke-width="1.32228"/>
</g>
<g clip-path="url(#clip10_1551_144612)">
<rect width="61.8504" height="45.3848" transform="matrix(-1 0 0 1 601.078 152.633)" fill="#F7C1A6"/>
<path d="M601.078 198.02L572.885 156.644C571.573 154.718 568.733 154.718 567.421 156.644L539.228 198.02" stroke="#D0643B" stroke-width="0.978325"/>
<path d="M601.078 160.686V152.404H570.153H539.228V160.686L568.311 180.204C569.425 180.952 570.881 180.952 571.995 180.204L601.078 160.686Z" fill="#F7C1A6"/>
<path d="M601.078 160.688L571.995 180.206C570.881 180.954 569.425 180.954 568.311 180.206L539.228 160.688" stroke="#D0643B" stroke-width="0.978325"/>
<path d="M600.793 197.631V156.844C600.793 154.653 599.017 152.877 596.826 152.877H537.398" stroke="#FFF6F2" stroke-width="1.32228"/>
</g>
<g clip-path="url(#clip11_1551_144612)">
<rect width="61.8504" height="45.3848" transform="matrix(-1 0 0 1 737.078 152.633)" fill="#F7C1A6"/>
<path d="M737.078 198.02L708.885 156.644C707.573 154.718 704.733 154.718 703.421 156.644L675.228 198.02" stroke="#D0643B" stroke-width="0.978325"/>
<path d="M737.078 160.686V152.404H706.153H675.228V160.686L704.311 180.204C705.425 180.952 706.881 180.952 707.995 180.204L737.078 160.686Z" fill="#F7C1A6"/>
<path d="M737.078 160.688L707.995 180.206C706.881 180.954 705.425 180.954 704.311 180.206L675.228 160.688" stroke="#D0643B" stroke-width="0.978325"/>
<path d="M736.793 197.631V156.844C736.793 154.653 735.017 152.877 732.826 152.877H673.398" stroke="#FFF6F2" stroke-width="1.32228"/>
</g>
<defs>
<clipPath id="clip0_1551_144612">
<rect width="62" height="46" rx="4.62797" transform="matrix(-1 0 0 1 177.578 455.519)" fill="white"/>
</clipPath>
<clipPath id="clip1_1551_144612">
<rect width="62" height="46" rx="4.62797" transform="matrix(-1 0 0 1 278.578 455.519)" fill="white"/>
</clipPath>
<clipPath id="clip2_1551_144612">
<rect width="62" height="46" rx="4.62797" transform="matrix(-1 0 0 1 379.578 455.519)" fill="white"/>
</clipPath>
<clipPath id="clip3_1551_144612">
<rect width="62" height="46" rx="4.62797" transform="matrix(-1 0 0 1 519.578 455.519)" fill="white"/>
</clipPath>
<clipPath id="clip4_1551_144612">
<rect width="62" height="46" rx="4.62797" transform="matrix(-1 0 0 1 620.578 455.519)" fill="white"/>
</clipPath>
<clipPath id="clip5_1551_144612">
<rect width="62" height="46" rx="4.62797" transform="matrix(-1 0 0 1 721.578 455.519)" fill="white"/>
</clipPath>
<clipPath id="clip6_1551_144612">
<rect width="62" height="46" rx="4.62797" transform="matrix(-1 0 0 1 162.078 152.633)" fill="white"/>
</clipPath>
<clipPath id="clip7_1551_144612">
<rect width="62" height="46" rx="4.62797" transform="matrix(-1 0 0 1 263.078 152.633)" fill="white"/>
</clipPath>
<clipPath id="clip8_1551_144612">
<rect width="62" height="46" rx="4.62797" transform="matrix(-1 0 0 1 399.078 152.633)" fill="white"/>
</clipPath>
<clipPath id="clip9_1551_144612">
<rect width="62" height="46" rx="4.62797" transform="matrix(-1 0 0 1 500.078 152.633)" fill="white"/>
</clipPath>
<clipPath id="clip10_1551_144612">
<rect width="62" height="46" rx="4.62797" transform="matrix(-1 0 0 1 601.078 152.633)" fill="white"/>
</clipPath>
<clipPath id="clip11_1551_144612">
<rect width="62" height="46" rx="4.62797" transform="matrix(-1 0 0 1 737.078 152.633)" fill="white"/>
</clipPath>
</defs>
</svg>
