<svg width="629" height="500" viewBox="0 0 629 500" fill="none" xmlns="http://www.w3.org/2000/svg">
<rect width="629" height="499.548" fill="white"/>
<path d="M207.985 227.115C218.157 233.554 232.348 237.549 248.042 237.548C278.985 237.548 304.07 222.016 304.07 202.856C304.07 193.483 298.067 184.979 288.312 178.736C298.622 172.352 305 163.535 305 153.794C305 134.316 279.499 118.526 248.042 118.526C240.961 118.526 234.181 119.326 227.926 120.788C225.069 117.825 221.58 115.03 217.46 112.479C190.589 95.8405 147.023 95.8405 120.153 112.478C94.3504 128.455 93.325 153.964 117.076 170.698L116.974 170.761L207.985 227.115Z" fill="#F3F9FF" stroke="#549EF7" stroke-width="2" stroke-linejoin="round" stroke-dasharray="4 4"/>
<path d="M424.985 227.115C435.157 233.554 449.348 237.549 465.042 237.548C495.985 237.548 521.07 222.016 521.07 202.856C521.07 193.483 515.067 184.979 505.312 178.736C515.622 172.352 522 163.535 522 153.794C522 134.316 496.499 118.526 465.042 118.526C457.961 118.526 451.181 119.326 444.926 120.788C442.069 117.825 438.58 115.03 434.46 112.479C407.589 95.8405 364.023 95.8405 337.153 112.478C311.35 128.455 310.325 153.964 334.076 170.698L333.974 170.761L424.985 227.115Z" fill="#F3F9FF" stroke="#549EF7" stroke-width="2" stroke-linejoin="round" stroke-dasharray="4 4"/>
<path d="M211.985 389.115C222.157 395.554 236.348 399.549 252.042 399.548C282.985 399.548 308.07 384.016 308.07 364.856C308.07 355.483 302.067 346.979 292.312 340.736C302.622 334.352 309 325.535 309 315.794C309 296.316 283.499 280.526 252.042 280.526C244.961 280.526 238.181 281.326 231.926 282.788C229.069 279.825 225.58 277.03 221.46 274.479C194.589 257.841 151.023 257.84 124.153 274.478C98.3504 290.455 97.325 315.964 121.076 332.698L120.974 332.761L211.985 389.115Z" fill="#F3F9FF" stroke="#549EF7" stroke-width="2" stroke-linejoin="round" stroke-dasharray="4 4"/>
<path d="M152.547 145.768H164.515V161H162.47V147.552H154.592V161H152.547V145.768ZM169.955 165.57C169.738 165.57 169.52 165.548 169.302 165.504V163.764C169.52 163.807 169.738 163.829 169.955 163.829C170.173 163.829 170.361 163.793 170.521 163.72C170.681 163.648 170.833 163.51 170.978 163.307C171.123 163.104 171.275 162.813 171.435 162.436C171.609 162.074 171.805 161.595 172.022 161L167.126 149.467H169.259L173.002 158.824L176.396 149.467H178.442L174.09 161C173.785 161.812 173.495 162.509 173.219 163.089C172.944 163.669 172.646 164.141 172.327 164.503C172.022 164.881 171.682 165.149 171.304 165.309C170.927 165.483 170.477 165.57 169.955 165.57ZM185.396 161.218C184.627 161.218 183.909 161.073 183.241 160.782C182.589 160.492 182.016 160.072 181.522 159.52C181.044 158.955 180.659 158.265 180.369 157.453C180.093 156.641 179.956 155.719 179.956 154.689V154.254C179.956 152.949 180.05 151.788 180.239 150.773C180.427 149.743 180.746 148.872 181.196 148.161C181.66 147.436 182.262 146.87 183.002 146.464C183.756 146.058 184.699 145.826 185.831 145.768C186.745 145.724 187.543 145.688 188.225 145.659C188.906 145.615 189.487 145.47 189.965 145.224V147.073C189.733 147.204 189.305 147.305 188.682 147.378C188.072 147.451 187.231 147.501 186.157 147.53C185.461 147.545 184.844 147.632 184.308 147.791C183.785 147.951 183.336 148.205 182.959 148.553C182.596 148.901 182.306 149.358 182.088 149.924C181.885 150.475 181.755 151.157 181.696 151.969C182.045 151.201 182.581 150.591 183.307 150.142C184.032 149.692 184.873 149.467 185.831 149.467C186.571 149.467 187.245 149.598 187.855 149.859C188.464 150.105 188.986 150.461 189.421 150.925C189.871 151.389 190.219 151.962 190.466 152.644C190.713 153.311 190.836 154.066 190.836 154.907V155.342C190.836 156.242 190.698 157.054 190.422 157.779C190.147 158.49 189.77 159.107 189.291 159.629C188.812 160.137 188.239 160.529 187.572 160.804C186.904 161.08 186.179 161.218 185.396 161.218ZM185.396 159.477C186.411 159.477 187.245 159.129 187.898 158.432C188.551 157.721 188.877 156.691 188.877 155.342V154.907C188.877 154.341 188.79 153.834 188.616 153.384C188.442 152.934 188.203 152.55 187.898 152.231C187.594 151.897 187.224 151.643 186.788 151.469C186.368 151.295 185.903 151.208 185.396 151.208C184.888 151.208 184.417 151.295 183.981 151.469C183.561 151.643 183.198 151.897 182.893 152.231C182.589 152.55 182.349 152.934 182.175 153.384C182.001 153.834 181.914 154.341 181.914 154.907V155.342C181.914 155.981 182.001 156.561 182.175 157.083C182.364 157.591 182.618 158.026 182.937 158.389C183.256 158.737 183.626 159.005 184.047 159.194C184.467 159.382 184.917 159.477 185.396 159.477ZM192.793 161.218C192.576 161.218 192.358 161.196 192.141 161.152V159.237C192.213 159.252 192.322 159.259 192.467 159.259C192.786 159.259 193.062 159.158 193.294 158.955C193.541 158.751 193.736 158.396 193.881 157.888C194.026 157.381 194.135 156.691 194.208 155.821C194.28 154.951 194.317 153.848 194.317 152.513V149.467H202.586V161H200.671V151.164H196.232V152.949C196.232 154.559 196.159 155.894 196.014 156.953C195.869 158.012 195.651 158.86 195.361 159.499C195.085 160.122 194.73 160.565 194.295 160.826C193.86 161.087 193.359 161.218 192.793 161.218ZM206.066 149.467H207.981V158.171L213.944 149.467H215.859V161H213.944V152.296L207.981 161H206.066V149.467ZM226.028 156.409C225.695 156.612 225.288 156.793 224.81 156.953C224.345 157.112 223.758 157.192 223.047 157.192C222.38 157.192 221.778 157.119 221.241 156.974C220.719 156.829 220.276 156.597 219.914 156.278C219.551 155.959 219.275 155.545 219.087 155.038C218.898 154.53 218.804 153.906 218.804 153.166V149.467H220.719V152.84C220.719 153.333 220.762 153.747 220.849 154.08C220.951 154.414 221.11 154.682 221.328 154.885C221.546 155.088 221.821 155.234 222.155 155.321C222.489 155.408 222.895 155.451 223.374 155.451C224.026 155.451 224.585 155.386 225.049 155.255C225.513 155.125 225.84 154.987 226.028 154.842V149.467H227.943V161H226.028V156.409ZM231.418 149.467H233.333V154.276H239.295V149.467H241.21V161H239.295V155.973H233.333V161H231.418V149.467ZM249.487 161.218C248.747 161.218 248.043 161.102 247.376 160.869C246.709 160.623 246.121 160.26 245.613 159.781C245.106 159.288 244.699 158.672 244.395 157.932C244.09 157.192 243.938 156.329 243.938 155.342V154.907C243.938 153.979 244.09 153.159 244.395 152.448C244.699 151.737 245.106 151.15 245.613 150.686C246.121 150.207 246.709 149.851 247.376 149.619C248.043 149.373 248.747 149.249 249.487 149.249C250.227 149.249 250.93 149.373 251.598 149.619C252.265 149.851 252.852 150.207 253.36 150.686C253.868 151.15 254.274 151.737 254.579 152.448C254.883 153.159 255.036 153.979 255.036 154.907V155.342C255.036 156.329 254.883 157.192 254.579 157.932C254.274 158.672 253.868 159.288 253.36 159.781C252.852 160.26 252.265 160.623 251.598 160.869C250.93 161.102 250.227 161.218 249.487 161.218ZM249.487 159.477C249.922 159.477 250.357 159.404 250.792 159.259C251.228 159.1 251.612 158.86 251.946 158.541C252.279 158.207 252.548 157.779 252.751 157.257C252.968 156.735 253.077 156.097 253.077 155.342V154.907C253.077 154.211 252.968 153.616 252.751 153.123C252.548 152.63 252.279 152.223 251.946 151.904C251.612 151.585 251.228 151.353 250.792 151.208C250.357 151.063 249.922 150.99 249.487 150.99C249.052 150.99 248.616 151.063 248.181 151.208C247.746 151.353 247.362 151.585 247.028 151.904C246.694 152.223 246.419 152.63 246.201 153.123C245.998 153.616 245.896 154.211 245.896 154.907V155.342C245.896 156.097 245.998 156.735 246.201 157.257C246.419 157.779 246.694 158.207 247.028 158.541C247.362 158.86 247.746 159.1 248.181 159.259C248.616 159.404 249.052 159.477 249.487 159.477ZM262.534 161.218C261.795 161.218 261.091 161.102 260.424 160.869C259.756 160.637 259.169 160.282 258.661 159.803C258.153 159.31 257.747 158.693 257.443 157.954C257.138 157.214 256.986 156.343 256.986 155.342V154.907C256.986 153.95 257.131 153.123 257.421 152.426C257.711 151.716 258.095 151.128 258.574 150.664C259.067 150.185 259.633 149.83 260.271 149.598C260.924 149.365 261.606 149.249 262.317 149.249C264.014 149.249 265.327 149.714 266.255 150.642C267.184 151.571 267.648 152.883 267.648 154.581V155.799H258.9C258.9 156.481 259.009 157.054 259.227 157.518C259.445 157.983 259.727 158.36 260.076 158.65C260.424 158.94 260.808 159.15 261.229 159.281C261.664 159.411 262.099 159.477 262.534 159.477C263.405 159.477 264.072 159.332 264.536 159.042C265.015 158.751 265.356 158.352 265.559 157.845H267.431C267.314 158.396 267.104 158.882 266.8 159.303C266.509 159.723 266.147 160.079 265.711 160.369C265.291 160.645 264.805 160.855 264.254 161C263.717 161.145 263.144 161.218 262.534 161.218ZM262.426 150.99C261.976 150.99 261.541 151.056 261.12 151.186C260.699 151.302 260.322 151.498 259.989 151.774C259.669 152.035 259.408 152.368 259.205 152.775C259.002 153.181 258.9 153.667 258.9 154.233H265.842C265.828 153.638 265.726 153.137 265.537 152.731C265.363 152.31 265.124 151.977 264.819 151.73C264.515 151.469 264.152 151.28 263.731 151.164C263.325 151.048 262.89 150.99 262.426 150.99ZM178.054 185.218C177.314 185.218 176.61 185.102 175.943 184.869C175.276 184.623 174.688 184.26 174.18 183.781C173.673 183.288 173.266 182.672 172.962 181.932C172.657 181.192 172.505 180.329 172.505 179.342V178.907C172.505 177.979 172.657 177.159 172.962 176.448C173.266 175.737 173.673 175.15 174.18 174.686C174.688 174.207 175.276 173.851 175.943 173.619C176.61 173.373 177.314 173.249 178.054 173.249C178.794 173.249 179.497 173.373 180.165 173.619C180.832 173.851 181.419 174.207 181.927 174.686C182.435 175.15 182.841 175.737 183.146 176.448C183.45 177.159 183.603 177.979 183.603 178.907V179.342C183.603 180.329 183.45 181.192 183.146 181.932C182.841 182.672 182.435 183.288 181.927 183.781C181.419 184.26 180.832 184.623 180.165 184.869C179.497 185.102 178.794 185.218 178.054 185.218ZM178.054 183.477C178.489 183.477 178.924 183.404 179.359 183.259C179.795 183.1 180.179 182.86 180.513 182.541C180.846 182.207 181.115 181.779 181.318 181.257C181.535 180.735 181.644 180.097 181.644 179.342V178.907C181.644 178.211 181.535 177.616 181.318 177.123C181.115 176.63 180.846 176.223 180.513 175.904C180.179 175.585 179.795 175.353 179.359 175.208C178.924 175.063 178.489 174.99 178.054 174.99C177.619 174.99 177.183 175.063 176.748 175.208C176.313 175.353 175.928 175.585 175.595 175.904C175.261 176.223 174.986 176.63 174.768 177.123C174.565 177.616 174.463 178.211 174.463 178.907V179.342C174.463 180.097 174.565 180.735 174.768 181.257C174.986 181.779 175.261 182.207 175.595 182.541C175.928 182.86 176.313 183.1 176.748 183.259C177.183 183.404 177.619 183.477 178.054 183.477ZM191.101 185.218C190.333 185.218 189.615 185.073 188.947 184.782C188.294 184.492 187.721 184.072 187.228 183.52C186.749 182.955 186.365 182.265 186.075 181.453C185.799 180.641 185.661 179.719 185.661 178.689V178.254C185.661 176.949 185.756 175.788 185.944 174.773C186.133 173.743 186.452 172.872 186.902 172.161C187.366 171.436 187.968 170.87 188.708 170.464C189.462 170.058 190.405 169.826 191.537 169.768C192.451 169.724 193.248 169.688 193.93 169.659C194.612 169.615 195.192 169.47 195.671 169.224V171.073C195.439 171.204 195.011 171.305 194.387 171.378C193.778 171.451 192.937 171.501 191.863 171.53C191.167 171.545 190.55 171.632 190.013 171.791C189.491 171.951 189.041 172.205 188.664 172.553C188.302 172.901 188.011 173.358 187.794 173.924C187.591 174.475 187.46 175.157 187.402 175.969C187.75 175.201 188.287 174.591 189.012 174.142C189.738 173.692 190.579 173.467 191.537 173.467C192.277 173.467 192.951 173.598 193.56 173.859C194.17 174.105 194.692 174.461 195.127 174.925C195.577 175.389 195.925 175.962 196.172 176.644C196.418 177.311 196.542 178.066 196.542 178.907V179.342C196.542 180.242 196.404 181.054 196.128 181.779C195.852 182.49 195.475 183.107 194.997 183.629C194.518 184.137 193.945 184.529 193.277 184.804C192.61 185.08 191.885 185.218 191.101 185.218ZM191.101 183.477C192.117 183.477 192.951 183.129 193.604 182.432C194.257 181.721 194.583 180.691 194.583 179.342V178.907C194.583 178.341 194.496 177.834 194.322 177.384C194.148 176.934 193.909 176.55 193.604 176.231C193.299 175.897 192.929 175.643 192.494 175.469C192.073 175.295 191.609 175.208 191.101 175.208C190.594 175.208 190.122 175.295 189.687 175.469C189.266 175.643 188.904 175.897 188.599 176.231C188.294 176.55 188.055 176.934 187.881 177.384C187.707 177.834 187.62 178.341 187.62 178.907V179.342C187.62 179.981 187.707 180.561 187.881 181.083C188.07 181.591 188.323 182.026 188.643 182.389C188.962 182.737 189.332 183.005 189.752 183.194C190.173 183.382 190.623 183.477 191.101 183.477ZM198.499 185.218C198.282 185.218 198.064 185.196 197.846 185.152V183.237C197.919 183.252 198.028 183.259 198.173 183.259C198.492 183.259 198.768 183.158 199 182.955C199.246 182.751 199.442 182.396 199.587 181.888C199.732 181.381 199.841 180.691 199.914 179.821C199.986 178.951 200.022 177.848 200.022 176.513V173.467H208.291V185H206.376V175.164H201.937V176.949C201.937 178.559 201.865 179.894 201.72 180.953C201.575 182.012 201.357 182.86 201.067 183.499C200.791 184.122 200.436 184.565 200.001 184.826C199.565 185.087 199.065 185.218 198.499 185.218ZM215.058 185.218C214.42 185.218 213.854 185.131 213.361 184.956C212.882 184.768 212.476 184.514 212.142 184.195C211.808 183.876 211.554 183.499 211.38 183.063C211.206 182.628 211.119 182.149 211.119 181.627C211.119 180.481 211.453 179.654 212.12 179.146C212.802 178.639 213.774 178.385 215.036 178.385H218.779V177.601C218.779 176.615 218.554 175.933 218.104 175.556C217.669 175.179 217.009 174.99 216.124 174.99C215.297 174.99 214.695 175.15 214.318 175.469C213.941 175.774 213.731 176.122 213.687 176.513H211.772C211.801 176.049 211.924 175.621 212.142 175.23C212.374 174.823 212.679 174.475 213.056 174.185C213.448 173.895 213.912 173.67 214.449 173.511C214.985 173.336 215.58 173.249 216.233 173.249C217.597 173.249 218.677 173.576 219.475 174.229C220.288 174.867 220.694 175.919 220.694 177.384V182.062C220.694 182.672 220.694 183.208 220.694 183.673C220.708 184.122 220.745 184.565 220.803 185H219.127C219.084 184.666 219.055 184.354 219.04 184.064C219.026 183.76 219.018 183.419 219.018 183.042C218.714 183.651 218.22 184.166 217.539 184.587C216.857 185.007 216.03 185.218 215.058 185.218ZM215.471 183.477C215.921 183.477 216.342 183.419 216.733 183.303C217.14 183.172 217.495 182.991 217.8 182.759C218.104 182.512 218.344 182.215 218.518 181.867C218.692 181.518 218.779 181.112 218.779 180.648V179.865H215.363C214.652 179.865 214.093 180.01 213.687 180.3C213.281 180.575 213.078 181.018 213.078 181.627C213.078 182.164 213.266 182.606 213.643 182.955C214.035 183.303 214.644 183.477 215.471 183.477ZM224.076 173.467H225.991V178.298H227.514L231.823 173.467H234.086L229.081 178.994L234.303 185H231.866L227.514 179.952H225.991V185H224.076V173.467ZM240.955 185.218C240.215 185.218 239.511 185.102 238.844 184.869C238.177 184.623 237.589 184.26 237.081 183.781C236.574 183.288 236.167 182.672 235.863 181.932C235.558 181.192 235.406 180.329 235.406 179.342V178.907C235.406 177.979 235.558 177.159 235.863 176.448C236.167 175.737 236.574 175.15 237.081 174.686C237.589 174.207 238.177 173.851 238.844 173.619C239.511 173.373 240.215 173.249 240.955 173.249C241.695 173.249 242.398 173.373 243.066 173.619C243.733 173.851 244.32 174.207 244.828 174.686C245.336 175.15 245.742 175.737 246.047 176.448C246.351 177.159 246.504 177.979 246.504 178.907V179.342C246.504 180.329 246.351 181.192 246.047 181.932C245.742 182.672 245.336 183.288 244.828 183.781C244.32 184.26 243.733 184.623 243.066 184.869C242.398 185.102 241.695 185.218 240.955 185.218ZM240.955 183.477C241.39 183.477 241.825 183.404 242.26 183.259C242.696 183.1 243.08 182.86 243.414 182.541C243.747 182.207 244.016 181.779 244.219 181.257C244.436 180.735 244.545 180.097 244.545 179.342V178.907C244.545 178.211 244.436 177.616 244.219 177.123C244.016 176.63 243.747 176.223 243.414 175.904C243.08 175.585 242.696 175.353 242.26 175.208C241.825 175.063 241.39 174.99 240.955 174.99C240.52 174.99 240.084 175.063 239.649 175.208C239.214 175.353 238.829 175.585 238.496 175.904C238.162 176.223 237.887 176.63 237.669 177.123C237.466 177.616 237.364 178.211 237.364 178.907V179.342C237.364 180.097 237.466 180.735 237.669 181.257C237.887 181.779 238.162 182.207 238.496 182.541C238.829 182.86 239.214 183.1 239.649 183.259C240.084 183.404 240.52 183.477 240.955 183.477Z" fill="black"/>
<path d="M397.678 154.298C397.301 154.544 396.772 154.769 396.09 154.972C395.408 155.175 394.625 155.277 393.74 155.277C391.955 155.277 390.657 154.878 389.845 154.08C389.032 153.268 388.626 151.984 388.626 150.229V145.768H390.672V150.229C390.672 151.375 390.926 152.202 391.433 152.709C391.941 153.203 392.782 153.449 393.957 153.449C394.857 153.449 395.604 153.34 396.199 153.123C396.808 152.905 397.301 152.673 397.678 152.426V145.768H399.724V161H397.678V154.298ZM406.925 161.218C406.287 161.218 405.721 161.131 405.228 160.956C404.749 160.768 404.343 160.514 404.009 160.195C403.675 159.876 403.421 159.499 403.247 159.063C403.073 158.628 402.986 158.149 402.986 157.627C402.986 156.481 403.32 155.654 403.987 155.146C404.669 154.639 405.641 154.385 406.903 154.385H410.646V153.601C410.646 152.615 410.421 151.933 409.971 151.556C409.536 151.179 408.876 150.99 407.991 150.99C407.164 150.99 406.562 151.15 406.185 151.469C405.808 151.774 405.598 152.122 405.554 152.513H403.639C403.668 152.049 403.791 151.621 404.009 151.23C404.241 150.823 404.546 150.475 404.923 150.185C405.315 149.895 405.779 149.67 406.316 149.511C406.852 149.336 407.447 149.249 408.1 149.249C409.464 149.249 410.544 149.576 411.342 150.229C412.155 150.867 412.561 151.919 412.561 153.384V158.062C412.561 158.672 412.561 159.208 412.561 159.673C412.575 160.122 412.612 160.565 412.67 161H410.994C410.951 160.666 410.922 160.354 410.907 160.064C410.893 159.76 410.885 159.419 410.885 159.042C410.581 159.651 410.087 160.166 409.406 160.587C408.724 161.007 407.897 161.218 406.925 161.218ZM407.338 159.477C407.788 159.477 408.209 159.419 408.6 159.303C409.007 159.172 409.362 158.991 409.667 158.759C409.971 158.512 410.211 158.215 410.385 157.867C410.559 157.518 410.646 157.112 410.646 156.648V155.865H407.23C406.519 155.865 405.96 156.01 405.554 156.3C405.148 156.575 404.945 157.018 404.945 157.627C404.945 158.164 405.133 158.606 405.51 158.955C405.902 159.303 406.511 159.477 407.338 159.477ZM420.404 161.218C419.664 161.218 418.975 161.102 418.337 160.869C417.698 160.623 417.147 160.26 416.683 159.781C416.219 159.288 415.849 158.672 415.573 157.932C415.312 157.192 415.181 156.329 415.181 155.342V154.907C415.181 153.979 415.327 153.159 415.617 152.448C415.907 151.737 416.291 151.15 416.77 150.686C417.249 150.207 417.8 149.851 418.424 149.619C419.062 149.373 419.722 149.249 420.404 149.249C421.086 149.249 421.695 149.344 422.232 149.532C422.783 149.721 423.255 149.982 423.646 150.316C424.052 150.649 424.379 151.041 424.625 151.491C424.887 151.94 425.075 152.426 425.191 152.949H423.233C423.117 152.673 422.979 152.419 422.819 152.187C422.674 151.94 422.486 151.73 422.254 151.556C422.036 151.382 421.775 151.244 421.47 151.143C421.166 151.041 420.81 150.99 420.404 150.99C419.983 150.99 419.577 151.07 419.185 151.23C418.794 151.375 418.445 151.607 418.141 151.926C417.836 152.231 417.59 152.63 417.401 153.123C417.227 153.616 417.14 154.211 417.14 154.907V155.342C417.14 156.082 417.227 156.72 417.401 157.257C417.59 157.779 417.836 158.207 418.141 158.541C418.445 158.86 418.794 159.1 419.185 159.259C419.577 159.404 419.983 159.477 420.404 159.477C421.115 159.477 421.71 159.303 422.188 158.955C422.682 158.606 423.03 158.128 423.233 157.518H425.191C424.916 158.664 424.35 159.571 423.494 160.238C422.638 160.891 421.608 161.218 420.404 161.218ZM430.434 151.164H426.495V149.467H436.287V151.164H432.349V161H430.434V151.164ZM438.468 149.467H440.383V154.276H446.346V149.467H448.261V161H446.346V155.973H440.383V161H438.468V149.467ZM456.537 161.218C455.797 161.218 455.094 161.102 454.426 160.869C453.759 160.623 453.172 160.26 452.664 159.781C452.156 159.288 451.75 158.672 451.445 157.932C451.141 157.192 450.988 156.329 450.988 155.342V154.907C450.988 153.979 451.141 153.159 451.445 152.448C451.75 151.737 452.156 151.15 452.664 150.686C453.172 150.207 453.759 149.851 454.426 149.619C455.094 149.373 455.797 149.249 456.537 149.249C457.277 149.249 457.981 149.373 458.648 149.619C459.315 149.851 459.903 150.207 460.41 150.686C460.918 151.15 461.324 151.737 461.629 152.448C461.934 153.159 462.086 153.979 462.086 154.907V155.342C462.086 156.329 461.934 157.192 461.629 157.932C461.324 158.672 460.918 159.288 460.41 159.781C459.903 160.26 459.315 160.623 458.648 160.869C457.981 161.102 457.277 161.218 456.537 161.218ZM456.537 159.477C456.972 159.477 457.408 159.404 457.843 159.259C458.278 159.1 458.662 158.86 458.996 158.541C459.33 158.207 459.598 157.779 459.801 157.257C460.019 156.735 460.128 156.097 460.128 155.342V154.907C460.128 154.211 460.019 153.616 459.801 153.123C459.598 152.63 459.33 152.223 458.996 151.904C458.662 151.585 458.278 151.353 457.843 151.208C457.408 151.063 456.972 150.99 456.537 150.99C456.102 150.99 455.667 151.063 455.232 151.208C454.796 151.353 454.412 151.585 454.078 151.904C453.745 152.223 453.469 152.63 453.251 153.123C453.048 153.616 452.947 154.211 452.947 154.907V155.342C452.947 156.097 453.048 156.735 453.251 157.257C453.469 157.779 453.745 158.207 454.078 158.541C454.412 158.86 454.796 159.1 455.232 159.259C455.667 159.404 456.102 159.477 456.537 159.477ZM469.585 161.218C468.845 161.218 468.141 161.102 467.474 160.869C466.807 160.637 466.219 160.282 465.712 159.803C465.204 159.31 464.798 158.693 464.493 157.954C464.188 157.214 464.036 156.343 464.036 155.342V154.907C464.036 153.95 464.181 153.123 464.471 152.426C464.761 151.716 465.146 151.128 465.624 150.664C466.118 150.185 466.683 149.83 467.322 149.598C467.975 149.365 468.656 149.249 469.367 149.249C471.065 149.249 472.377 149.714 473.306 150.642C474.234 151.571 474.699 152.883 474.699 154.581V155.799H465.951C465.951 156.481 466.06 157.054 466.277 157.518C466.495 157.983 466.778 158.36 467.126 158.65C467.474 158.94 467.859 159.15 468.279 159.281C468.714 159.411 469.15 159.477 469.585 159.477C470.455 159.477 471.123 159.332 471.587 159.042C472.066 158.751 472.406 158.352 472.61 157.845H474.481C474.365 158.396 474.155 158.882 473.85 159.303C473.56 159.723 473.197 160.079 472.762 160.369C472.341 160.645 471.855 160.855 471.304 161C470.767 161.145 470.194 161.218 469.585 161.218ZM469.476 150.99C469.026 150.99 468.591 151.056 468.17 151.186C467.75 151.302 467.373 151.498 467.039 151.774C466.72 152.035 466.459 152.368 466.256 152.775C466.052 153.181 465.951 153.667 465.951 154.233H472.892C472.878 153.638 472.776 153.137 472.588 152.731C472.414 152.31 472.174 151.977 471.87 151.73C471.565 151.469 471.202 151.28 470.782 151.164C470.375 151.048 469.94 150.99 469.476 150.99ZM400.054 185.218C399.314 185.218 398.61 185.102 397.943 184.869C397.276 184.623 396.688 184.26 396.18 183.781C395.673 183.288 395.266 182.672 394.962 181.932C394.657 181.192 394.505 180.329 394.505 179.342V178.907C394.505 177.979 394.657 177.159 394.962 176.448C395.266 175.737 395.673 175.15 396.18 174.686C396.688 174.207 397.276 173.851 397.943 173.619C398.61 173.373 399.314 173.249 400.054 173.249C400.794 173.249 401.497 173.373 402.165 173.619C402.832 173.851 403.419 174.207 403.927 174.686C404.435 175.15 404.841 175.737 405.146 176.448C405.45 177.159 405.603 177.979 405.603 178.907V179.342C405.603 180.329 405.45 181.192 405.146 181.932C404.841 182.672 404.435 183.288 403.927 183.781C403.419 184.26 402.832 184.623 402.165 184.869C401.497 185.102 400.794 185.218 400.054 185.218ZM400.054 183.477C400.489 183.477 400.924 183.404 401.359 183.259C401.795 183.1 402.179 182.86 402.513 182.541C402.846 182.207 403.115 181.779 403.318 181.257C403.535 180.735 403.644 180.097 403.644 179.342V178.907C403.644 178.211 403.535 177.616 403.318 177.123C403.115 176.63 402.846 176.223 402.513 175.904C402.179 175.585 401.795 175.353 401.359 175.208C400.924 175.063 400.489 174.99 400.054 174.99C399.619 174.99 399.183 175.063 398.748 175.208C398.313 175.353 397.928 175.585 397.595 175.904C397.261 176.223 396.986 176.63 396.768 177.123C396.565 177.616 396.463 178.211 396.463 178.907V179.342C396.463 180.097 396.565 180.735 396.768 181.257C396.986 181.779 397.261 182.207 397.595 182.541C397.928 182.86 398.313 183.1 398.748 183.259C399.183 183.404 399.619 183.477 400.054 183.477ZM413.101 185.218C412.333 185.218 411.615 185.073 410.947 184.782C410.294 184.492 409.721 184.072 409.228 183.52C408.749 182.955 408.365 182.265 408.075 181.453C407.799 180.641 407.661 179.719 407.661 178.689V178.254C407.661 176.949 407.756 175.788 407.944 174.773C408.133 173.743 408.452 172.872 408.902 172.161C409.366 171.436 409.968 170.87 410.708 170.464C411.462 170.058 412.405 169.826 413.537 169.768C414.451 169.724 415.248 169.688 415.93 169.659C416.612 169.615 417.192 169.47 417.671 169.224V171.073C417.439 171.204 417.011 171.305 416.387 171.378C415.778 171.451 414.937 171.501 413.863 171.53C413.167 171.545 412.55 171.632 412.013 171.791C411.491 171.951 411.041 172.205 410.664 172.553C410.302 172.901 410.011 173.358 409.794 173.924C409.591 174.475 409.46 175.157 409.402 175.969C409.75 175.201 410.287 174.591 411.012 174.142C411.738 173.692 412.579 173.467 413.537 173.467C414.277 173.467 414.951 173.598 415.56 173.859C416.17 174.105 416.692 174.461 417.127 174.925C417.577 175.389 417.925 175.962 418.172 176.644C418.418 177.311 418.542 178.066 418.542 178.907V179.342C418.542 180.242 418.404 181.054 418.128 181.779C417.852 182.49 417.475 183.107 416.997 183.629C416.518 184.137 415.945 184.529 415.277 184.804C414.61 185.08 413.885 185.218 413.101 185.218ZM413.101 183.477C414.117 183.477 414.951 183.129 415.604 182.432C416.257 181.721 416.583 180.691 416.583 179.342V178.907C416.583 178.341 416.496 177.834 416.322 177.384C416.148 176.934 415.909 176.55 415.604 176.231C415.299 175.897 414.929 175.643 414.494 175.469C414.073 175.295 413.609 175.208 413.101 175.208C412.594 175.208 412.122 175.295 411.687 175.469C411.266 175.643 410.904 175.897 410.599 176.231C410.294 176.55 410.055 176.934 409.881 177.384C409.707 177.834 409.62 178.341 409.62 178.907V179.342C409.62 179.981 409.707 180.561 409.881 181.083C410.07 181.591 410.323 182.026 410.643 182.389C410.962 182.737 411.332 183.005 411.752 183.194C412.173 183.382 412.623 183.477 413.101 183.477ZM420.499 185.218C420.282 185.218 420.064 185.196 419.846 185.152V183.237C419.919 183.252 420.028 183.259 420.173 183.259C420.492 183.259 420.768 183.158 421 182.955C421.246 182.751 421.442 182.396 421.587 181.888C421.732 181.381 421.841 180.691 421.914 179.821C421.986 178.951 422.022 177.848 422.022 176.513V173.467H430.291V185H428.376V175.164H423.937V176.949C423.937 178.559 423.865 179.894 423.72 180.953C423.575 182.012 423.357 182.86 423.067 183.499C422.791 184.122 422.436 184.565 422.001 184.826C421.565 185.087 421.065 185.218 420.499 185.218ZM437.058 185.218C436.42 185.218 435.854 185.131 435.361 184.956C434.882 184.768 434.476 184.514 434.142 184.195C433.808 183.876 433.554 183.499 433.38 183.063C433.206 182.628 433.119 182.149 433.119 181.627C433.119 180.481 433.453 179.654 434.12 179.146C434.802 178.639 435.774 178.385 437.036 178.385H440.779V177.601C440.779 176.615 440.554 175.933 440.104 175.556C439.669 175.179 439.009 174.99 438.124 174.99C437.297 174.99 436.695 175.15 436.318 175.469C435.941 175.774 435.731 176.122 435.687 176.513H433.772C433.801 176.049 433.924 175.621 434.142 175.23C434.374 174.823 434.679 174.475 435.056 174.185C435.448 173.895 435.912 173.67 436.449 173.511C436.985 173.336 437.58 173.249 438.233 173.249C439.597 173.249 440.677 173.576 441.475 174.229C442.288 174.867 442.694 175.919 442.694 177.384V182.062C442.694 182.672 442.694 183.208 442.694 183.673C442.708 184.122 442.745 184.565 442.803 185H441.127C441.084 184.666 441.055 184.354 441.04 184.064C441.026 183.76 441.018 183.419 441.018 183.042C440.714 183.651 440.22 184.166 439.539 184.587C438.857 185.007 438.03 185.218 437.058 185.218ZM437.471 183.477C437.921 183.477 438.342 183.419 438.733 183.303C439.14 183.172 439.495 182.991 439.8 182.759C440.104 182.512 440.344 182.215 440.518 181.867C440.692 181.518 440.779 181.112 440.779 180.648V179.865H437.363C436.652 179.865 436.093 180.01 435.687 180.3C435.281 180.575 435.078 181.018 435.078 181.627C435.078 182.164 435.266 182.606 435.643 182.955C436.035 183.303 436.644 183.477 437.471 183.477ZM446.076 173.467H447.991V178.298H449.514L453.823 173.467H456.086L451.081 178.994L456.303 185H453.866L449.514 179.952H447.991V185H446.076V173.467ZM462.955 185.218C462.215 185.218 461.511 185.102 460.844 184.869C460.177 184.623 459.589 184.26 459.081 183.781C458.574 183.288 458.167 182.672 457.863 181.932C457.558 181.192 457.406 180.329 457.406 179.342V178.907C457.406 177.979 457.558 177.159 457.863 176.448C458.167 175.737 458.574 175.15 459.081 174.686C459.589 174.207 460.177 173.851 460.844 173.619C461.511 173.373 462.215 173.249 462.955 173.249C463.695 173.249 464.398 173.373 465.066 173.619C465.733 173.851 466.32 174.207 466.828 174.686C467.336 175.15 467.742 175.737 468.047 176.448C468.351 177.159 468.504 177.979 468.504 178.907V179.342C468.504 180.329 468.351 181.192 468.047 181.932C467.742 182.672 467.336 183.288 466.828 183.781C466.32 184.26 465.733 184.623 465.066 184.869C464.398 185.102 463.695 185.218 462.955 185.218ZM462.955 183.477C463.39 183.477 463.825 183.404 464.26 183.259C464.696 183.1 465.08 182.86 465.414 182.541C465.747 182.207 466.016 181.779 466.219 181.257C466.436 180.735 466.545 180.097 466.545 179.342V178.907C466.545 178.211 466.436 177.616 466.219 177.123C466.016 176.63 465.747 176.223 465.414 175.904C465.08 175.585 464.696 175.353 464.26 175.208C463.825 175.063 463.39 174.99 462.955 174.99C462.52 174.99 462.084 175.063 461.649 175.208C461.214 175.353 460.829 175.585 460.496 175.904C460.162 176.223 459.887 176.63 459.669 177.123C459.466 177.616 459.364 178.211 459.364 178.907V179.342C459.364 180.097 459.466 180.735 459.669 181.257C459.887 181.779 460.162 182.207 460.496 182.541C460.829 182.86 461.214 183.1 461.649 183.259C462.084 183.404 462.52 183.477 462.955 183.477Z" fill="black"/>
<path d="M141.452 307.768H143.497V314.318H145.238L151.2 307.768H153.637L146.979 315.036L153.855 323H151.244L145.238 316.015H143.497V323H141.452V307.768ZM160.615 323.218C159.875 323.218 159.172 323.102 158.504 322.869C157.837 322.623 157.25 322.26 156.742 321.781C156.234 321.288 155.828 320.672 155.523 319.932C155.219 319.192 155.066 318.329 155.066 317.342V316.907C155.066 315.979 155.219 315.159 155.523 314.448C155.828 313.737 156.234 313.15 156.742 312.686C157.25 312.207 157.837 311.851 158.504 311.619C159.172 311.373 159.875 311.249 160.615 311.249C161.355 311.249 162.059 311.373 162.726 311.619C163.393 311.851 163.981 312.207 164.489 312.686C164.996 313.15 165.403 313.737 165.707 314.448C166.012 315.159 166.164 315.979 166.164 316.907V317.342C166.164 318.329 166.012 319.192 165.707 319.932C165.403 320.672 164.996 321.288 164.489 321.781C163.981 322.26 163.393 322.623 162.726 322.869C162.059 323.102 161.355 323.218 160.615 323.218ZM160.615 321.477C161.05 321.477 161.486 321.404 161.921 321.259C162.356 321.1 162.74 320.86 163.074 320.541C163.408 320.207 163.676 319.779 163.879 319.257C164.097 318.735 164.206 318.097 164.206 317.342V316.907C164.206 316.211 164.097 315.616 163.879 315.123C163.676 314.63 163.408 314.223 163.074 313.904C162.74 313.585 162.356 313.353 161.921 313.208C161.486 313.063 161.05 312.99 160.615 312.99C160.18 312.99 159.745 313.063 159.31 313.208C158.874 313.353 158.49 313.585 158.156 313.904C157.823 314.223 157.547 314.63 157.329 315.123C157.126 315.616 157.025 316.211 157.025 316.907V317.342C157.025 318.097 157.126 318.735 157.329 319.257C157.547 319.779 157.823 320.207 158.156 320.541C158.49 320.86 158.874 321.1 159.31 321.259C159.745 321.404 160.18 321.477 160.615 321.477ZM168.119 323.218C167.902 323.218 167.684 323.196 167.466 323.152V321.237C167.539 321.252 167.648 321.259 167.793 321.259C168.112 321.259 168.388 321.158 168.62 320.955C168.866 320.751 169.062 320.396 169.207 319.888C169.352 319.381 169.461 318.691 169.534 317.821C169.606 316.951 169.642 315.848 169.642 314.513V311.467H177.911V323H175.996V313.164H171.557V314.949C171.557 316.559 171.485 317.894 171.34 318.953C171.195 320.012 170.977 320.86 170.687 321.499C170.411 322.122 170.056 322.565 169.621 322.826C169.185 323.087 168.685 323.218 168.119 323.218ZM180.848 323.218C180.631 323.218 180.413 323.196 180.195 323.152V321.237C180.268 321.252 180.377 321.259 180.522 321.259C180.841 321.259 181.116 321.158 181.349 320.955C181.595 320.751 181.791 320.396 181.936 319.888C182.081 319.381 182.19 318.691 182.263 317.821C182.335 316.951 182.371 315.848 182.371 314.513V311.467H190.64V323H188.725V313.164H184.286V314.949C184.286 316.559 184.214 317.894 184.069 318.953C183.924 320.012 183.706 320.86 183.416 321.499C183.14 322.122 182.785 322.565 182.35 322.826C181.914 323.087 181.414 323.218 180.848 323.218ZM198.908 323.218C198.168 323.218 197.465 323.102 196.798 322.869C196.13 322.637 195.543 322.282 195.035 321.803C194.527 321.31 194.121 320.693 193.816 319.954C193.512 319.214 193.359 318.343 193.359 317.342V316.907C193.359 315.95 193.505 315.123 193.795 314.426C194.085 313.716 194.469 313.128 194.948 312.664C195.441 312.185 196.007 311.83 196.645 311.598C197.298 311.365 197.98 311.249 198.691 311.249C200.388 311.249 201.701 311.714 202.629 312.642C203.558 313.571 204.022 314.883 204.022 316.581V317.799H195.274C195.274 318.481 195.383 319.054 195.601 319.518C195.818 319.983 196.101 320.36 196.449 320.65C196.798 320.94 197.182 321.15 197.603 321.281C198.038 321.411 198.473 321.477 198.908 321.477C199.779 321.477 200.446 321.332 200.91 321.042C201.389 320.751 201.73 320.352 201.933 319.845H203.804C203.688 320.396 203.478 320.882 203.173 321.303C202.883 321.723 202.521 322.079 202.085 322.369C201.665 322.645 201.179 322.855 200.627 323C200.091 323.145 199.518 323.218 198.908 323.218ZM198.8 312.99C198.35 312.99 197.915 313.056 197.494 313.186C197.073 313.302 196.696 313.498 196.362 313.774C196.043 314.035 195.782 314.368 195.579 314.775C195.376 315.181 195.274 315.667 195.274 316.233H202.216C202.201 315.638 202.1 315.137 201.911 314.731C201.737 314.31 201.498 313.977 201.193 313.73C200.889 313.469 200.526 313.28 200.105 313.164C199.699 313.048 199.264 312.99 198.8 312.99ZM206.744 311.467H208.659V316.298H210.182L214.49 311.467H216.754L211.749 316.994L216.971 323H214.534L210.182 317.952H208.659V323H206.744V311.467ZM221.893 313.164H217.955V311.467H227.747V313.164H223.808V323H221.893V313.164ZM229.928 311.467H231.843V320.171L237.805 311.467H239.72V323H237.805V314.296L231.843 323H229.928V311.467ZM243.209 311.467H248.214C249.636 311.467 250.68 311.764 251.348 312.359C252.015 312.939 252.349 313.694 252.349 314.622C252.349 314.869 252.305 315.123 252.218 315.384C252.131 315.63 252.008 315.863 251.848 316.08C251.703 316.298 251.522 316.486 251.304 316.646C251.101 316.806 250.869 316.929 250.608 317.016C251.319 317.19 251.855 317.524 252.218 318.017C252.595 318.496 252.784 319.061 252.784 319.714C252.784 320.715 252.45 321.513 251.783 322.108C251.116 322.703 250.071 323 248.649 323H243.209V311.467ZM248.649 321.303C249.462 321.303 250.035 321.158 250.369 320.867C250.702 320.577 250.869 320.164 250.869 319.627C250.869 319.076 250.702 318.655 250.369 318.365C250.035 318.06 249.462 317.908 248.649 317.908H245.124V321.303H248.649ZM248.214 316.341C249.041 316.341 249.614 316.196 249.933 315.906C250.267 315.616 250.434 315.217 250.434 314.709C250.434 314.231 250.267 313.853 249.933 313.578C249.614 313.302 249.041 313.164 248.214 313.164H245.124V316.341H248.214ZM255.513 311.467H257.428V316.276H263.391V311.467H265.305V323H263.391V317.973H257.428V323H255.513V311.467ZM273.582 323.218C272.842 323.218 272.139 323.102 271.471 322.869C270.804 322.623 270.216 322.26 269.709 321.781C269.201 321.288 268.795 320.672 268.49 319.932C268.185 319.192 268.033 318.329 268.033 317.342V316.907C268.033 315.979 268.185 315.159 268.49 314.448C268.795 313.737 269.201 313.15 269.709 312.686C270.216 312.207 270.804 311.851 271.471 311.619C272.139 311.373 272.842 311.249 273.582 311.249C274.322 311.249 275.025 311.373 275.693 311.619C276.36 311.851 276.948 312.207 277.455 312.686C277.963 313.15 278.369 313.737 278.674 314.448C278.979 315.159 279.131 315.979 279.131 316.907V317.342C279.131 318.329 278.979 319.192 278.674 319.932C278.369 320.672 277.963 321.288 277.455 321.781C276.948 322.26 276.36 322.623 275.693 322.869C275.025 323.102 274.322 323.218 273.582 323.218ZM273.582 321.477C274.017 321.477 274.452 321.404 274.888 321.259C275.323 321.1 275.707 320.86 276.041 320.541C276.375 320.207 276.643 319.779 276.846 319.257C277.064 318.735 277.173 318.097 277.173 317.342V316.907C277.173 316.211 277.064 315.616 276.846 315.123C276.643 314.63 276.375 314.223 276.041 313.904C275.707 313.585 275.323 313.353 274.888 313.208C274.452 313.063 274.017 312.99 273.582 312.99C273.147 312.99 272.712 313.063 272.276 313.208C271.841 313.353 271.457 313.585 271.123 313.904C270.789 314.223 270.514 314.63 270.296 315.123C270.093 315.616 269.992 316.211 269.992 316.907V317.342C269.992 318.097 270.093 318.735 270.296 319.257C270.514 319.779 270.789 320.207 271.123 320.541C271.457 320.86 271.841 321.1 272.276 321.259C272.712 321.404 273.147 321.477 273.582 321.477ZM286.63 323.218C285.89 323.218 285.186 323.102 284.519 322.869C283.852 322.637 283.264 322.282 282.756 321.803C282.249 321.31 281.842 320.693 281.538 319.954C281.233 319.214 281.081 318.343 281.081 317.342V316.907C281.081 315.95 281.226 315.123 281.516 314.426C281.806 313.716 282.191 313.128 282.669 312.664C283.163 312.185 283.728 311.83 284.367 311.598C285.019 311.365 285.701 311.249 286.412 311.249C288.109 311.249 289.422 311.714 290.351 312.642C291.279 313.571 291.743 314.883 291.743 316.581V317.799H282.996C282.996 318.481 283.105 319.054 283.322 319.518C283.54 319.983 283.823 320.36 284.171 320.65C284.519 320.94 284.903 321.15 285.324 321.281C285.759 321.411 286.195 321.477 286.63 321.477C287.5 321.477 288.167 321.332 288.632 321.042C289.11 320.751 289.451 320.352 289.654 319.845H291.526C291.41 320.396 291.199 320.882 290.895 321.303C290.605 321.723 290.242 322.079 289.807 322.369C289.386 322.645 288.9 322.855 288.349 323C287.812 323.145 287.239 323.218 286.63 323.218ZM286.521 312.99C286.071 312.99 285.636 313.056 285.215 313.186C284.795 313.302 284.417 313.498 284.084 313.774C283.765 314.035 283.504 314.368 283.3 314.775C283.097 315.181 282.996 315.667 282.996 316.233H289.937C289.923 315.638 289.821 315.137 289.633 314.731C289.459 314.31 289.219 313.977 288.915 313.73C288.61 313.469 288.247 313.28 287.827 313.164C287.42 313.048 286.985 312.99 286.521 312.99ZM184.554 347.218C183.814 347.218 183.11 347.102 182.443 346.869C181.776 346.623 181.188 346.26 180.68 345.781C180.173 345.288 179.766 344.672 179.462 343.932C179.157 343.192 179.005 342.329 179.005 341.342V340.907C179.005 339.979 179.157 339.159 179.462 338.448C179.766 337.737 180.173 337.15 180.68 336.686C181.188 336.207 181.776 335.851 182.443 335.619C183.11 335.373 183.814 335.249 184.554 335.249C185.294 335.249 185.997 335.373 186.665 335.619C187.332 335.851 187.919 336.207 188.427 336.686C188.935 337.15 189.341 337.737 189.646 338.448C189.95 339.159 190.103 339.979 190.103 340.907V341.342C190.103 342.329 189.95 343.192 189.646 343.932C189.341 344.672 188.935 345.288 188.427 345.781C187.919 346.26 187.332 346.623 186.665 346.869C185.997 347.102 185.294 347.218 184.554 347.218ZM184.554 345.477C184.989 345.477 185.424 345.404 185.859 345.259C186.295 345.1 186.679 344.86 187.013 344.541C187.346 344.207 187.615 343.779 187.818 343.257C188.035 342.735 188.144 342.097 188.144 341.342V340.907C188.144 340.211 188.035 339.616 187.818 339.123C187.615 338.63 187.346 338.223 187.013 337.904C186.679 337.585 186.295 337.353 185.859 337.208C185.424 337.063 184.989 336.99 184.554 336.99C184.119 336.99 183.683 337.063 183.248 337.208C182.813 337.353 182.428 337.585 182.095 337.904C181.761 338.223 181.486 338.63 181.268 339.123C181.065 339.616 180.963 340.211 180.963 340.907V341.342C180.963 342.097 181.065 342.735 181.268 343.257C181.486 343.779 181.761 344.207 182.095 344.541C182.428 344.86 182.813 345.1 183.248 345.259C183.683 345.404 184.119 345.477 184.554 345.477ZM197.601 347.218C196.833 347.218 196.115 347.073 195.447 346.782C194.794 346.492 194.221 346.072 193.728 345.52C193.249 344.955 192.865 344.265 192.575 343.453C192.299 342.641 192.161 341.719 192.161 340.689V340.254C192.161 338.949 192.256 337.788 192.444 336.773C192.633 335.743 192.952 334.872 193.402 334.161C193.866 333.436 194.468 332.87 195.208 332.464C195.962 332.058 196.905 331.826 198.037 331.768C198.951 331.724 199.748 331.688 200.43 331.659C201.112 331.615 201.692 331.47 202.171 331.224V333.073C201.939 333.204 201.511 333.305 200.887 333.378C200.278 333.451 199.437 333.501 198.363 333.53C197.667 333.545 197.05 333.632 196.513 333.791C195.991 333.951 195.541 334.205 195.164 334.553C194.802 334.901 194.511 335.358 194.294 335.924C194.091 336.475 193.96 337.157 193.902 337.969C194.25 337.201 194.787 336.591 195.512 336.142C196.238 335.692 197.079 335.467 198.037 335.467C198.777 335.467 199.451 335.598 200.06 335.859C200.67 336.105 201.192 336.461 201.627 336.925C202.077 337.389 202.425 337.962 202.672 338.644C202.918 339.311 203.042 340.066 203.042 340.907V341.342C203.042 342.242 202.904 343.054 202.628 343.779C202.352 344.49 201.975 345.107 201.497 345.629C201.018 346.137 200.445 346.529 199.777 346.804C199.11 347.08 198.385 347.218 197.601 347.218ZM197.601 345.477C198.617 345.477 199.451 345.129 200.104 344.432C200.757 343.721 201.083 342.691 201.083 341.342V340.907C201.083 340.341 200.996 339.834 200.822 339.384C200.648 338.934 200.409 338.55 200.104 338.231C199.799 337.897 199.429 337.643 198.994 337.469C198.573 337.295 198.109 337.208 197.601 337.208C197.094 337.208 196.622 337.295 196.187 337.469C195.766 337.643 195.404 337.897 195.099 338.231C194.794 338.55 194.555 338.934 194.381 339.384C194.207 339.834 194.12 340.341 194.12 340.907V341.342C194.12 341.981 194.207 342.561 194.381 343.083C194.57 343.591 194.823 344.026 195.143 344.389C195.462 344.737 195.832 345.005 196.252 345.194C196.673 345.382 197.123 345.477 197.601 345.477ZM204.999 347.218C204.782 347.218 204.564 347.196 204.346 347.152V345.237C204.419 345.252 204.528 345.259 204.673 345.259C204.992 345.259 205.268 345.158 205.5 344.955C205.746 344.751 205.942 344.396 206.087 343.888C206.232 343.381 206.341 342.691 206.414 341.821C206.486 340.951 206.522 339.848 206.522 338.513V335.467H214.791V347H212.876V337.164H208.437V338.949C208.437 340.559 208.365 341.894 208.22 342.953C208.075 344.012 207.857 344.86 207.567 345.499C207.291 346.122 206.936 346.565 206.501 346.826C206.065 347.087 205.565 347.218 204.999 347.218ZM221.558 347.218C220.92 347.218 220.354 347.131 219.861 346.956C219.382 346.768 218.976 346.514 218.642 346.195C218.308 345.876 218.054 345.499 217.88 345.063C217.706 344.628 217.619 344.149 217.619 343.627C217.619 342.481 217.953 341.654 218.62 341.146C219.302 340.639 220.274 340.385 221.536 340.385H225.279V339.601C225.279 338.615 225.054 337.933 224.604 337.556C224.169 337.179 223.509 336.99 222.624 336.99C221.797 336.99 221.195 337.15 220.818 337.469C220.441 337.774 220.231 338.122 220.187 338.513H218.272C218.301 338.049 218.424 337.621 218.642 337.23C218.874 336.823 219.179 336.475 219.556 336.185C219.948 335.895 220.412 335.67 220.949 335.511C221.485 335.336 222.08 335.249 222.733 335.249C224.097 335.249 225.177 335.576 225.975 336.229C226.788 336.867 227.194 337.919 227.194 339.384V344.062C227.194 344.672 227.194 345.208 227.194 345.673C227.208 346.122 227.245 346.565 227.303 347H225.627C225.584 346.666 225.555 346.354 225.54 346.064C225.526 345.76 225.518 345.419 225.518 345.042C225.214 345.651 224.72 346.166 224.039 346.587C223.357 347.007 222.53 347.218 221.558 347.218ZM221.971 345.477C222.421 345.477 222.842 345.419 223.233 345.303C223.64 345.172 223.995 344.991 224.3 344.759C224.604 344.512 224.844 344.215 225.018 343.867C225.192 343.518 225.279 343.112 225.279 342.648V341.865H221.863C221.152 341.865 220.593 342.01 220.187 342.3C219.781 342.575 219.578 343.018 219.578 343.627C219.578 344.164 219.766 344.606 220.143 344.955C220.535 345.303 221.144 345.477 221.971 345.477ZM230.576 335.467H232.491V340.298H234.014L238.323 335.467H240.586L235.581 340.994L240.803 347H238.366L234.014 341.952H232.491V347H230.576V335.467ZM247.455 347.218C246.715 347.218 246.011 347.102 245.344 346.869C244.677 346.623 244.089 346.26 243.581 345.781C243.074 345.288 242.667 344.672 242.363 343.932C242.058 343.192 241.906 342.329 241.906 341.342V340.907C241.906 339.979 242.058 339.159 242.363 338.448C242.667 337.737 243.074 337.15 243.581 336.686C244.089 336.207 244.677 335.851 245.344 335.619C246.011 335.373 246.715 335.249 247.455 335.249C248.195 335.249 248.898 335.373 249.566 335.619C250.233 335.851 250.82 336.207 251.328 336.686C251.836 337.15 252.242 337.737 252.547 338.448C252.851 339.159 253.004 339.979 253.004 340.907V341.342C253.004 342.329 252.851 343.192 252.547 343.932C252.242 344.672 251.836 345.288 251.328 345.781C250.82 346.26 250.233 346.623 249.566 346.869C248.898 347.102 248.195 347.218 247.455 347.218ZM247.455 345.477C247.89 345.477 248.325 345.404 248.76 345.259C249.196 345.1 249.58 344.86 249.914 344.541C250.247 344.207 250.516 343.779 250.719 343.257C250.936 342.735 251.045 342.097 251.045 341.342V340.907C251.045 340.211 250.936 339.616 250.719 339.123C250.516 338.63 250.247 338.223 249.914 337.904C249.58 337.585 249.196 337.353 248.76 337.208C248.325 337.063 247.89 336.99 247.455 336.99C247.02 336.99 246.584 337.063 246.149 337.208C245.714 337.353 245.329 337.585 244.996 337.904C244.662 338.223 244.387 338.63 244.169 339.123C243.966 339.616 243.864 340.211 243.864 340.907V341.342C243.864 342.097 243.966 342.735 244.169 343.257C244.387 343.779 244.662 344.207 244.996 344.541C245.329 344.86 245.714 345.1 246.149 345.259C246.584 345.404 247.02 345.477 247.455 345.477Z" fill="black"/>
<path d="M431.985 389.115C442.157 395.554 456.348 399.549 472.042 399.548C502.985 399.548 528.07 384.016 528.07 364.856C528.07 355.483 522.067 346.979 512.312 340.736C522.622 334.352 529 325.535 529 315.794C529 296.316 503.499 280.526 472.042 280.526C464.961 280.526 458.181 281.326 451.926 282.788C449.069 279.825 445.58 277.03 441.46 274.479C414.589 257.841 371.023 257.84 344.153 274.478C318.35 290.455 317.325 315.964 341.076 332.698L340.974 332.761L431.985 389.115Z" fill="#F3F9FF" stroke="#549EF7" stroke-width="2" stroke-linejoin="round" stroke-dasharray="4 4"/>
<path d="M381.279 307.768H390.853V309.552H383.324V323H381.279V307.768ZM390.619 311.467H392.534V320.171L398.496 311.467H400.411V323H398.496V314.296L392.534 323H390.619V311.467ZM408.688 323.218C407.919 323.218 407.201 323.073 406.533 322.782C405.88 322.492 405.307 322.072 404.814 321.52C404.335 320.955 403.951 320.265 403.661 319.453C403.385 318.641 403.247 317.719 403.247 316.689V316.254C403.247 314.949 403.342 313.788 403.53 312.773C403.719 311.743 404.038 310.872 404.488 310.161C404.952 309.436 405.554 308.87 406.294 308.464C407.048 308.058 407.991 307.826 409.123 307.768C410.037 307.724 410.835 307.688 411.516 307.659C412.198 307.615 412.779 307.47 413.257 307.224V309.073C413.025 309.204 412.597 309.305 411.973 309.378C411.364 309.451 410.523 309.501 409.449 309.53C408.753 309.545 408.136 309.632 407.6 309.791C407.077 309.951 406.628 310.205 406.25 310.553C405.888 310.901 405.598 311.358 405.38 311.924C405.177 312.475 405.046 313.157 404.988 313.969C405.336 313.201 405.873 312.591 406.599 312.142C407.324 311.692 408.165 311.467 409.123 311.467C409.863 311.467 410.537 311.598 411.146 311.859C411.756 312.105 412.278 312.461 412.713 312.925C413.163 313.389 413.511 313.962 413.758 314.644C414.004 315.311 414.128 316.066 414.128 316.907V317.342C414.128 318.242 413.99 319.054 413.714 319.779C413.439 320.49 413.061 321.107 412.583 321.629C412.104 322.137 411.531 322.529 410.864 322.804C410.196 323.08 409.471 323.218 408.688 323.218ZM408.688 321.477C409.703 321.477 410.537 321.129 411.19 320.432C411.843 319.721 412.169 318.691 412.169 317.342V316.907C412.169 316.341 412.082 315.834 411.908 315.384C411.734 314.934 411.495 314.55 411.19 314.231C410.885 313.897 410.515 313.643 410.08 313.469C409.66 313.295 409.195 313.208 408.688 313.208C408.18 313.208 407.708 313.295 407.273 313.469C406.852 313.643 406.49 313.897 406.185 314.231C405.88 314.55 405.641 314.934 405.467 315.384C405.293 315.834 405.206 316.341 405.206 316.907V317.342C405.206 317.981 405.293 318.561 405.467 319.083C405.656 319.591 405.909 320.026 406.229 320.389C406.548 320.737 406.918 321.005 407.338 321.194C407.759 321.382 408.209 321.477 408.688 321.477ZM416.842 311.467H418.626V313.643C419.018 312.874 419.562 312.287 420.258 311.88C420.969 311.46 421.789 311.249 422.717 311.249C424.168 311.249 425.328 311.728 426.199 312.686C427.069 313.629 427.504 315.036 427.504 316.907V317.342C427.504 318.329 427.388 319.192 427.156 319.932C426.924 320.657 426.598 321.266 426.177 321.76C425.756 322.238 425.248 322.601 424.654 322.848C424.073 323.094 423.428 323.218 422.717 323.218C421.731 323.218 420.904 323 420.236 322.565C419.584 322.13 419.09 321.586 418.757 320.933V327.352H416.842V311.467ZM422.282 321.52C422.746 321.52 423.181 321.433 423.587 321.259C423.994 321.071 424.342 320.802 424.632 320.454C424.937 320.106 425.169 319.671 425.328 319.148C425.502 318.626 425.589 318.024 425.589 317.342V316.907C425.589 316.283 425.502 315.725 425.328 315.232C425.169 314.738 424.937 314.325 424.632 313.991C424.342 313.643 423.994 313.382 423.587 313.208C423.181 313.034 422.746 312.947 422.282 312.947C421.76 312.947 421.281 313.034 420.846 313.208C420.41 313.367 420.041 313.6 419.736 313.904C419.431 314.194 419.192 314.542 419.018 314.949C418.844 315.355 418.757 315.79 418.757 316.254V317.995C418.757 318.517 418.844 318.996 419.018 319.431C419.192 319.867 419.431 320.236 419.736 320.541C420.041 320.846 420.41 321.085 420.846 321.259C421.281 321.433 421.76 321.52 422.282 321.52ZM430.229 311.467H432.144V320.171L438.107 311.467H440.022V323H438.107V314.296L432.144 323H430.229V311.467ZM442.205 321.303H443.62C443.779 321.085 443.924 320.751 444.055 320.302C444.185 319.852 444.302 319.323 444.403 318.713C444.505 318.104 444.577 317.444 444.621 316.733C444.679 316.008 444.708 315.268 444.708 314.513V311.467H452.759V321.303H454.391V325.72H452.563V323H444.033V325.72H442.205V321.303ZM450.844 321.303V313.164H446.579V314.949C446.579 315.558 446.557 316.167 446.514 316.777C446.47 317.371 446.405 317.944 446.318 318.496C446.231 319.032 446.122 319.547 445.992 320.041C445.876 320.519 445.738 320.94 445.578 321.303H450.844ZM456.686 311.467H458.601V316.276H464.563V311.467H466.478V323H464.563V317.973H458.601V323H456.686V311.467ZM474.755 323.218C474.015 323.218 473.311 323.102 472.644 322.869C471.977 322.623 471.389 322.26 470.882 321.781C470.374 321.288 469.968 320.672 469.663 319.932C469.358 319.192 469.206 318.329 469.206 317.342V316.907C469.206 315.979 469.358 315.159 469.663 314.448C469.968 313.737 470.374 313.15 470.882 312.686C471.389 312.207 471.977 311.851 472.644 311.619C473.311 311.373 474.015 311.249 474.755 311.249C475.495 311.249 476.198 311.373 476.866 311.619C477.533 311.851 478.12 312.207 478.628 312.686C479.136 313.15 479.542 313.737 479.847 314.448C480.151 315.159 480.304 315.979 480.304 316.907V317.342C480.304 318.329 480.151 319.192 479.847 319.932C479.542 320.672 479.136 321.288 478.628 321.781C478.12 322.26 477.533 322.623 476.866 322.869C476.198 323.102 475.495 323.218 474.755 323.218ZM474.755 321.477C475.19 321.477 475.625 321.404 476.06 321.259C476.496 321.1 476.88 320.86 477.214 320.541C477.547 320.207 477.816 319.779 478.019 319.257C478.237 318.735 478.345 318.097 478.345 317.342V316.907C478.345 316.211 478.237 315.616 478.019 315.123C477.816 314.63 477.547 314.223 477.214 313.904C476.88 313.585 476.496 313.353 476.06 313.208C475.625 313.063 475.19 312.99 474.755 312.99C474.32 312.99 473.884 313.063 473.449 313.208C473.014 313.353 472.63 313.585 472.296 313.904C471.962 314.223 471.687 314.63 471.469 315.123C471.266 315.616 471.164 316.211 471.164 316.907V317.342C471.164 318.097 471.266 318.735 471.469 319.257C471.687 319.779 471.962 320.207 472.296 320.541C472.63 320.86 473.014 321.1 473.449 321.259C473.884 321.404 474.32 321.477 474.755 321.477ZM487.803 323.218C487.063 323.218 486.359 323.102 485.692 322.869C485.025 322.637 484.437 322.282 483.929 321.803C483.421 321.31 483.015 320.693 482.711 319.954C482.406 319.214 482.254 318.343 482.254 317.342V316.907C482.254 315.95 482.399 315.123 482.689 314.426C482.979 313.716 483.363 313.128 483.842 312.664C484.335 312.185 484.901 311.83 485.54 311.598C486.192 311.365 486.874 311.249 487.585 311.249C489.282 311.249 490.595 311.714 491.524 312.642C492.452 313.571 492.916 314.883 492.916 316.581V317.799H484.169C484.169 318.481 484.277 319.054 484.495 319.518C484.713 319.983 484.995 320.36 485.344 320.65C485.692 320.94 486.076 321.15 486.497 321.281C486.932 321.411 487.367 321.477 487.803 321.477C488.673 321.477 489.34 321.332 489.805 321.042C490.283 320.751 490.624 320.352 490.827 319.845H492.699C492.583 320.396 492.372 320.882 492.068 321.303C491.777 321.723 491.415 322.079 490.98 322.369C490.559 322.645 490.073 322.855 489.522 323C488.985 323.145 488.412 323.218 487.803 323.218ZM487.694 312.99C487.244 312.99 486.809 313.056 486.388 313.186C485.967 313.302 485.59 313.498 485.257 313.774C484.937 314.035 484.676 314.368 484.473 314.775C484.27 315.181 484.169 315.667 484.169 316.233H491.11C491.096 315.638 490.994 315.137 490.806 314.731C490.631 314.31 490.392 313.977 490.087 313.73C489.783 313.469 489.42 313.28 488.999 313.164C488.593 313.048 488.158 312.99 487.694 312.99ZM405.054 347.218C404.314 347.218 403.61 347.102 402.943 346.869C402.276 346.623 401.688 346.26 401.18 345.781C400.673 345.288 400.266 344.672 399.962 343.932C399.657 343.192 399.505 342.329 399.505 341.342V340.907C399.505 339.979 399.657 339.159 399.962 338.448C400.266 337.737 400.673 337.15 401.18 336.686C401.688 336.207 402.276 335.851 402.943 335.619C403.61 335.373 404.314 335.249 405.054 335.249C405.794 335.249 406.497 335.373 407.165 335.619C407.832 335.851 408.419 336.207 408.927 336.686C409.435 337.15 409.841 337.737 410.146 338.448C410.45 339.159 410.603 339.979 410.603 340.907V341.342C410.603 342.329 410.45 343.192 410.146 343.932C409.841 344.672 409.435 345.288 408.927 345.781C408.419 346.26 407.832 346.623 407.165 346.869C406.497 347.102 405.794 347.218 405.054 347.218ZM405.054 345.477C405.489 345.477 405.924 345.404 406.359 345.259C406.795 345.1 407.179 344.86 407.513 344.541C407.846 344.207 408.115 343.779 408.318 343.257C408.535 342.735 408.644 342.097 408.644 341.342V340.907C408.644 340.211 408.535 339.616 408.318 339.123C408.115 338.63 407.846 338.223 407.513 337.904C407.179 337.585 406.795 337.353 406.359 337.208C405.924 337.063 405.489 336.99 405.054 336.99C404.619 336.99 404.183 337.063 403.748 337.208C403.313 337.353 402.928 337.585 402.595 337.904C402.261 338.223 401.986 338.63 401.768 339.123C401.565 339.616 401.463 340.211 401.463 340.907V341.342C401.463 342.097 401.565 342.735 401.768 343.257C401.986 343.779 402.261 344.207 402.595 344.541C402.928 344.86 403.313 345.1 403.748 345.259C404.183 345.404 404.619 345.477 405.054 345.477ZM418.101 347.218C417.333 347.218 416.615 347.073 415.947 346.782C415.294 346.492 414.721 346.072 414.228 345.52C413.749 344.955 413.365 344.265 413.075 343.453C412.799 342.641 412.661 341.719 412.661 340.689V340.254C412.661 338.949 412.756 337.788 412.944 336.773C413.133 335.743 413.452 334.872 413.902 334.161C414.366 333.436 414.968 332.87 415.708 332.464C416.462 332.058 417.405 331.826 418.537 331.768C419.451 331.724 420.248 331.688 420.93 331.659C421.612 331.615 422.192 331.47 422.671 331.224V333.073C422.439 333.204 422.011 333.305 421.387 333.378C420.778 333.451 419.937 333.501 418.863 333.53C418.167 333.545 417.55 333.632 417.013 333.791C416.491 333.951 416.041 334.205 415.664 334.553C415.302 334.901 415.011 335.358 414.794 335.924C414.591 336.475 414.46 337.157 414.402 337.969C414.75 337.201 415.287 336.591 416.012 336.142C416.738 335.692 417.579 335.467 418.537 335.467C419.277 335.467 419.951 335.598 420.56 335.859C421.17 336.105 421.692 336.461 422.127 336.925C422.577 337.389 422.925 337.962 423.172 338.644C423.418 339.311 423.542 340.066 423.542 340.907V341.342C423.542 342.242 423.404 343.054 423.128 343.779C422.852 344.49 422.475 345.107 421.997 345.629C421.518 346.137 420.945 346.529 420.277 346.804C419.61 347.08 418.885 347.218 418.101 347.218ZM418.101 345.477C419.117 345.477 419.951 345.129 420.604 344.432C421.257 343.721 421.583 342.691 421.583 341.342V340.907C421.583 340.341 421.496 339.834 421.322 339.384C421.148 338.934 420.909 338.55 420.604 338.231C420.299 337.897 419.929 337.643 419.494 337.469C419.073 337.295 418.609 337.208 418.101 337.208C417.594 337.208 417.122 337.295 416.687 337.469C416.266 337.643 415.904 337.897 415.599 338.231C415.294 338.55 415.055 338.934 414.881 339.384C414.707 339.834 414.62 340.341 414.62 340.907V341.342C414.62 341.981 414.707 342.561 414.881 343.083C415.07 343.591 415.323 344.026 415.643 344.389C415.962 344.737 416.332 345.005 416.752 345.194C417.173 345.382 417.623 345.477 418.101 345.477ZM425.499 347.218C425.282 347.218 425.064 347.196 424.846 347.152V345.237C424.919 345.252 425.028 345.259 425.173 345.259C425.492 345.259 425.768 345.158 426 344.955C426.246 344.751 426.442 344.396 426.587 343.888C426.732 343.381 426.841 342.691 426.914 341.821C426.986 340.951 427.022 339.848 427.022 338.513V335.467H435.291V347H433.376V337.164H428.937V338.949C428.937 340.559 428.865 341.894 428.72 342.953C428.575 344.012 428.357 344.86 428.067 345.499C427.791 346.122 427.436 346.565 427.001 346.826C426.565 347.087 426.065 347.218 425.499 347.218ZM442.058 347.218C441.42 347.218 440.854 347.131 440.361 346.956C439.882 346.768 439.476 346.514 439.142 346.195C438.808 345.876 438.554 345.499 438.38 345.063C438.206 344.628 438.119 344.149 438.119 343.627C438.119 342.481 438.453 341.654 439.12 341.146C439.802 340.639 440.774 340.385 442.036 340.385H445.779V339.601C445.779 338.615 445.554 337.933 445.104 337.556C444.669 337.179 444.009 336.99 443.124 336.99C442.297 336.99 441.695 337.15 441.318 337.469C440.941 337.774 440.731 338.122 440.687 338.513H438.772C438.801 338.049 438.924 337.621 439.142 337.23C439.374 336.823 439.679 336.475 440.056 336.185C440.448 335.895 440.912 335.67 441.449 335.511C441.985 335.336 442.58 335.249 443.233 335.249C444.597 335.249 445.677 335.576 446.475 336.229C447.288 336.867 447.694 337.919 447.694 339.384V344.062C447.694 344.672 447.694 345.208 447.694 345.673C447.708 346.122 447.745 346.565 447.803 347H446.127C446.084 346.666 446.055 346.354 446.04 346.064C446.026 345.76 446.018 345.419 446.018 345.042C445.714 345.651 445.22 346.166 444.539 346.587C443.857 347.007 443.03 347.218 442.058 347.218ZM442.471 345.477C442.921 345.477 443.342 345.419 443.733 345.303C444.14 345.172 444.495 344.991 444.8 344.759C445.104 344.512 445.344 344.215 445.518 343.867C445.692 343.518 445.779 343.112 445.779 342.648V341.865H442.363C441.652 341.865 441.093 342.01 440.687 342.3C440.281 342.575 440.078 343.018 440.078 343.627C440.078 344.164 440.266 344.606 440.643 344.955C441.035 345.303 441.644 345.477 442.471 345.477ZM451.076 335.467H452.991V340.298H454.514L458.823 335.467H461.086L456.081 340.994L461.303 347H458.866L454.514 341.952H452.991V347H451.076V335.467ZM467.955 347.218C467.215 347.218 466.511 347.102 465.844 346.869C465.177 346.623 464.589 346.26 464.081 345.781C463.574 345.288 463.167 344.672 462.863 343.932C462.558 343.192 462.406 342.329 462.406 341.342V340.907C462.406 339.979 462.558 339.159 462.863 338.448C463.167 337.737 463.574 337.15 464.081 336.686C464.589 336.207 465.177 335.851 465.844 335.619C466.511 335.373 467.215 335.249 467.955 335.249C468.695 335.249 469.398 335.373 470.066 335.619C470.733 335.851 471.32 336.207 471.828 336.686C472.336 337.15 472.742 337.737 473.047 338.448C473.351 339.159 473.504 339.979 473.504 340.907V341.342C473.504 342.329 473.351 343.192 473.047 343.932C472.742 344.672 472.336 345.288 471.828 345.781C471.32 346.26 470.733 346.623 470.066 346.869C469.398 347.102 468.695 347.218 467.955 347.218ZM467.955 345.477C468.39 345.477 468.825 345.404 469.26 345.259C469.696 345.1 470.08 344.86 470.414 344.541C470.747 344.207 471.016 343.779 471.219 343.257C471.436 342.735 471.545 342.097 471.545 341.342V340.907C471.545 340.211 471.436 339.616 471.219 339.123C471.016 338.63 470.747 338.223 470.414 337.904C470.08 337.585 469.696 337.353 469.26 337.208C468.825 337.063 468.39 336.99 467.955 336.99C467.52 336.99 467.084 337.063 466.649 337.208C466.214 337.353 465.829 337.585 465.496 337.904C465.162 338.223 464.887 338.63 464.669 339.123C464.466 339.616 464.364 340.211 464.364 340.907V341.342C464.364 342.097 464.466 342.735 464.669 343.257C464.887 343.779 465.162 344.207 465.496 344.541C465.829 344.86 466.214 345.1 466.649 345.259C467.084 345.404 467.52 345.477 467.955 345.477Z" fill="black"/>
</svg>
