<svg width="817" height="844" viewBox="0 0 817 844" fill="none" xmlns="http://www.w3.org/2000/svg">
<rect x="202.961" y="576.029" width="10.9478" height="100" fill="#58A982" stroke="#508C6D" stroke-width="0.5"/>
<rect x="367.178" y="576.029" width="10.9478" height="100" fill="#58A982" stroke="#508C6D" stroke-width="0.5"/>
<rect x="531.395" y="576.029" width="10.9478" height="100" fill="#58A982" stroke="#508C6D" stroke-width="0.5"/>
<rect x="684.664" y="576.029" width="10.9478" height="100" fill="#58A982" stroke="#508C6D" stroke-width="0.5"/>
<path d="M368.846 690.586V676.029" stroke="black" stroke-width="2"/>
<path d="M202.961 690.586V676.029" stroke="black" stroke-width="2"/>
<path d="M162.947 676.029H175.846" stroke="black" stroke-width="2"/>
<path d="M162.947 605.905H175.846" stroke="black" stroke-width="2"/>
<path d="M162.947 535.781H175.846" stroke="black" stroke-width="2"/>
<path d="M162.947 465.657H175.846" stroke="black" stroke-width="2"/>
<path d="M162.947 395.532H175.846" stroke="black" stroke-width="2"/>
<path d="M162.947 325.408H175.846" stroke="black" stroke-width="2"/>
<path d="M162.947 255.284H175.846" stroke="black" stroke-width="2"/>
<path d="M162.947 185.16H175.846" stroke="black" stroke-width="2"/>
<path d="M684.664 690.586V676.029" stroke="black" stroke-width="2"/>
<path d="M716.752 676.029L706.752 670.256V681.803L716.752 676.029ZM169.396 677.029H707.752V675.029H169.396V677.029Z" fill="black"/>
<path d="M169.397 676.029L169.396 185.16" stroke="black" stroke-width="2"/>
<path d="M531.395 690.586V676.029" stroke="black" stroke-width="2"/>
<path d="M325.563 105.768H337.531V121H335.485V107.552H327.608V121H325.563V105.768ZM344.734 121.218C344.095 121.218 343.53 121.131 343.036 120.956C342.558 120.768 342.151 120.514 341.818 120.195C341.484 119.876 341.23 119.499 341.056 119.063C340.882 118.628 340.795 118.149 340.795 117.627C340.795 116.481 341.129 115.654 341.796 115.146C342.478 114.639 343.45 114.385 344.712 114.385H348.455V113.601C348.455 112.615 348.23 111.933 347.78 111.556C347.345 111.179 346.685 110.99 345.8 110.99C344.973 110.99 344.371 111.15 343.994 111.469C343.617 111.774 343.406 112.122 343.363 112.513H341.448C341.477 112.049 341.6 111.621 341.818 111.23C342.05 110.823 342.354 110.475 342.732 110.185C343.123 109.895 343.588 109.67 344.124 109.511C344.661 109.336 345.256 109.249 345.909 109.249C347.272 109.249 348.353 109.576 349.151 110.229C349.963 110.867 350.37 111.919 350.37 113.384V118.062C350.37 118.672 350.37 119.208 350.37 119.673C350.384 120.122 350.42 120.565 350.478 121H348.803C348.759 120.666 348.73 120.354 348.716 120.064C348.701 119.76 348.694 119.419 348.694 119.042C348.389 119.651 347.896 120.166 347.214 120.587C346.532 121.007 345.706 121.218 344.734 121.218ZM345.147 119.477C345.597 119.477 346.017 119.419 346.409 119.303C346.815 119.172 347.171 118.991 347.475 118.759C347.78 118.512 348.019 118.215 348.194 117.867C348.368 117.518 348.455 117.112 348.455 116.648V115.865H345.038C344.327 115.865 343.769 116.01 343.363 116.3C342.957 116.575 342.753 117.018 342.753 117.627C342.753 118.164 342.942 118.606 343.319 118.955C343.711 119.303 344.32 119.477 345.147 119.477ZM353.752 109.467H355.667V114.298H357.19L361.498 109.467H363.762L358.757 114.994L363.979 121H361.542L357.19 115.952H355.667V121H353.752V109.467ZM370.63 121.218C369.891 121.218 369.187 121.102 368.52 120.869C367.852 120.637 367.265 120.282 366.757 119.803C366.249 119.31 365.843 118.693 365.539 117.954C365.234 117.214 365.082 116.343 365.082 115.342V114.907C365.082 113.95 365.227 113.123 365.517 112.426C365.807 111.716 366.191 111.128 366.67 110.664C367.163 110.185 367.729 109.83 368.367 109.598C369.02 109.365 369.702 109.249 370.413 109.249C372.11 109.249 373.423 109.714 374.351 110.642C375.28 111.571 375.744 112.883 375.744 114.581V115.799H366.996C366.996 116.481 367.105 117.054 367.323 117.518C367.541 117.983 367.823 118.36 368.172 118.65C368.52 118.94 368.904 119.15 369.325 119.281C369.76 119.411 370.195 119.477 370.63 119.477C371.501 119.477 372.168 119.332 372.632 119.042C373.111 118.751 373.452 118.352 373.655 117.845H375.527C375.41 118.396 375.2 118.882 374.896 119.303C374.605 119.723 374.243 120.079 373.807 120.369C373.387 120.645 372.901 120.855 372.35 121C371.813 121.145 371.24 121.218 370.63 121.218ZM370.522 110.99C370.072 110.99 369.637 111.056 369.216 111.186C368.795 111.302 368.418 111.498 368.085 111.774C367.765 112.035 367.504 112.368 367.301 112.775C367.098 113.181 366.996 113.667 366.996 114.233H373.938C373.924 113.638 373.822 113.137 373.633 112.731C373.459 112.31 373.22 111.977 372.915 111.73C372.611 111.469 372.248 111.28 371.827 111.164C371.421 111.048 370.986 110.99 370.522 110.99ZM380.886 111.164H376.948V109.467H386.74V111.164H382.801V121H380.886V111.164ZM388.921 109.467H390.836V113.819H393.164C394.615 113.819 395.681 114.138 396.363 114.777C397.059 115.415 397.408 116.3 397.408 117.431C397.408 118.534 397.059 119.404 396.363 120.043C395.681 120.681 394.615 121 393.164 121H388.921V109.467ZM393.056 119.303C393.955 119.303 394.586 119.143 394.949 118.824C395.311 118.505 395.493 118.033 395.493 117.41C395.493 116.786 395.311 116.314 394.949 115.995C394.586 115.676 393.955 115.516 393.056 115.516H390.836V119.303H393.056ZM399.192 109.467H401.107V121H399.192V109.467ZM410.023 109.467H417.856V111.164H411.938V121H410.023V109.467ZM424.606 121.218C423.866 121.218 423.163 121.102 422.496 120.869C421.828 120.623 421.241 120.26 420.733 119.781C420.225 119.288 419.819 118.672 419.514 117.932C419.21 117.192 419.057 116.329 419.057 115.342V114.907C419.057 113.979 419.21 113.159 419.514 112.448C419.819 111.737 420.225 111.15 420.733 110.686C421.241 110.207 421.828 109.851 422.496 109.619C423.163 109.373 423.866 109.249 424.606 109.249C425.346 109.249 426.05 109.373 426.717 109.619C427.384 109.851 427.972 110.207 428.48 110.686C428.987 111.15 429.394 111.737 429.698 112.448C430.003 113.159 430.155 113.979 430.155 114.907V115.342C430.155 116.329 430.003 117.192 429.698 117.932C429.394 118.672 428.987 119.288 428.48 119.781C427.972 120.26 427.384 120.623 426.717 120.869C426.05 121.102 425.346 121.218 424.606 121.218ZM424.606 119.477C425.042 119.477 425.477 119.404 425.912 119.259C426.347 119.1 426.732 118.86 427.065 118.541C427.399 118.207 427.667 117.779 427.87 117.257C428.088 116.735 428.197 116.097 428.197 115.342V114.907C428.197 114.211 428.088 113.616 427.87 113.123C427.667 112.63 427.399 112.223 427.065 111.904C426.732 111.585 426.347 111.353 425.912 111.208C425.477 111.063 425.042 110.99 424.606 110.99C424.171 110.99 423.736 111.063 423.301 111.208C422.866 111.353 422.481 111.585 422.147 111.904C421.814 112.223 421.538 112.63 421.321 113.123C421.117 113.616 421.016 114.211 421.016 114.907V115.342C421.016 116.097 421.117 116.735 421.321 117.257C421.538 117.779 421.814 118.207 422.147 118.541C422.481 118.86 422.866 119.1 423.301 119.259C423.736 119.404 424.171 119.477 424.606 119.477ZM432.11 121.218C431.893 121.218 431.675 121.196 431.457 121.152V119.237C431.53 119.252 431.639 119.259 431.784 119.259C432.103 119.259 432.379 119.158 432.611 118.955C432.857 118.751 433.053 118.396 433.198 117.888C433.343 117.381 433.452 116.691 433.525 115.821C433.597 114.951 433.633 113.848 433.633 112.513V109.467H441.902V121H439.988V111.164H435.548V112.949C435.548 114.559 435.476 115.894 435.331 116.953C435.186 118.012 434.968 118.86 434.678 119.499C434.402 120.122 434.047 120.565 433.612 120.826C433.177 121.087 432.676 121.218 432.11 121.218ZM450.171 121.218C449.431 121.218 448.727 121.102 448.06 120.869C447.392 120.623 446.805 120.26 446.297 119.781C445.789 119.288 445.383 118.672 445.079 117.932C444.774 117.192 444.622 116.329 444.622 115.342V114.907C444.622 113.979 444.774 113.159 445.079 112.448C445.383 111.737 445.789 111.15 446.297 110.686C446.805 110.207 447.392 109.851 448.06 109.619C448.727 109.373 449.431 109.249 450.171 109.249C450.91 109.249 451.614 109.373 452.281 109.619C452.949 109.851 453.536 110.207 454.044 110.686C454.552 111.15 454.958 111.737 455.262 112.448C455.567 113.159 455.719 113.979 455.719 114.907V115.342C455.719 116.329 455.567 117.192 455.262 117.932C454.958 118.672 454.552 119.288 454.044 119.781C453.536 120.26 452.949 120.623 452.281 120.869C451.614 121.102 450.91 121.218 450.171 121.218ZM450.171 119.477C450.606 119.477 451.041 119.404 451.476 119.259C451.911 119.1 452.296 118.86 452.629 118.541C452.963 118.207 453.231 117.779 453.435 117.257C453.652 116.735 453.761 116.097 453.761 115.342V114.907C453.761 114.211 453.652 113.616 453.435 113.123C453.231 112.63 452.963 112.223 452.629 111.904C452.296 111.585 451.911 111.353 451.476 111.208C451.041 111.063 450.606 110.99 450.171 110.99C449.735 110.99 449.3 111.063 448.865 111.208C448.43 111.353 448.045 111.585 447.712 111.904C447.378 112.223 447.102 112.63 446.885 113.123C446.682 113.616 446.58 114.211 446.58 114.907V115.342C446.58 116.097 446.682 116.735 446.885 117.257C447.102 117.779 447.378 118.207 447.712 118.541C448.045 118.86 448.43 119.1 448.865 119.259C449.3 119.404 449.735 119.477 450.171 119.477ZM462.892 121.218C462.152 121.218 461.463 121.102 460.825 120.869C460.186 120.623 459.635 120.26 459.171 119.781C458.707 119.288 458.337 118.672 458.061 117.932C457.8 117.192 457.669 116.329 457.669 115.342V114.907C457.669 113.979 457.814 113.159 458.105 112.448C458.395 111.737 458.779 111.15 459.258 110.686C459.737 110.207 460.288 109.851 460.912 109.619C461.55 109.373 462.21 109.249 462.892 109.249C463.574 109.249 464.183 109.344 464.72 109.532C465.271 109.721 465.742 109.982 466.134 110.316C466.54 110.649 466.867 111.041 467.113 111.491C467.374 111.94 467.563 112.426 467.679 112.949H465.721C465.605 112.673 465.467 112.419 465.307 112.187C465.162 111.94 464.974 111.73 464.741 111.556C464.524 111.382 464.263 111.244 463.958 111.143C463.653 111.041 463.298 110.99 462.892 110.99C462.471 110.99 462.065 111.07 461.673 111.23C461.282 111.375 460.933 111.607 460.629 111.926C460.324 112.231 460.077 112.63 459.889 113.123C459.715 113.616 459.628 114.211 459.628 114.907V115.342C459.628 116.082 459.715 116.72 459.889 117.257C460.077 117.779 460.324 118.207 460.629 118.541C460.933 118.86 461.282 119.1 461.673 119.259C462.065 119.404 462.471 119.477 462.892 119.477C463.603 119.477 464.197 119.303 464.676 118.955C465.169 118.606 465.518 118.128 465.721 117.518H467.679C467.403 118.664 466.838 119.571 465.982 120.238C465.126 120.891 464.096 121.218 462.892 121.218ZM475.076 121.218C474.336 121.218 473.632 121.102 472.965 120.869C472.298 120.623 471.71 120.26 471.203 119.781C470.695 119.288 470.289 118.672 469.984 117.932C469.679 117.192 469.527 116.329 469.527 115.342V114.907C469.527 113.979 469.679 113.159 469.984 112.448C470.289 111.737 470.695 111.15 471.203 110.686C471.71 110.207 472.298 109.851 472.965 109.619C473.632 109.373 474.336 109.249 475.076 109.249C475.816 109.249 476.519 109.373 477.187 109.619C477.854 109.851 478.442 110.207 478.949 110.686C479.457 111.15 479.863 111.737 480.168 112.448C480.472 113.159 480.625 113.979 480.625 114.907V115.342C480.625 116.329 480.472 117.192 480.168 117.932C479.863 118.672 479.457 119.288 478.949 119.781C478.442 120.26 477.854 120.623 477.187 120.869C476.519 121.102 475.816 121.218 475.076 121.218ZM475.076 119.477C475.511 119.477 475.946 119.404 476.382 119.259C476.817 119.1 477.201 118.86 477.535 118.541C477.868 118.207 478.137 117.779 478.34 117.257C478.558 116.735 478.666 116.097 478.666 115.342V114.907C478.666 114.211 478.558 113.616 478.34 113.123C478.137 112.63 477.868 112.223 477.535 111.904C477.201 111.585 476.817 111.353 476.382 111.208C475.946 111.063 475.511 110.99 475.076 110.99C474.641 110.99 474.205 111.063 473.77 111.208C473.335 111.353 472.951 111.585 472.617 111.904C472.283 112.223 472.008 112.63 471.79 113.123C471.587 113.616 471.485 114.211 471.485 114.907V115.342C471.485 116.097 471.587 116.735 471.79 117.257C472.008 117.779 472.283 118.207 472.617 118.541C472.951 118.86 473.335 119.1 473.77 119.259C474.205 119.404 474.641 119.477 475.076 119.477ZM483.336 109.467H488.341C489.763 109.467 490.807 109.764 491.475 110.359C492.142 110.939 492.476 111.694 492.476 112.622C492.476 112.869 492.432 113.123 492.345 113.384C492.258 113.63 492.135 113.863 491.975 114.08C491.83 114.298 491.649 114.486 491.431 114.646C491.228 114.806 490.996 114.929 490.735 115.016C491.446 115.19 491.982 115.524 492.345 116.017C492.722 116.496 492.911 117.061 492.911 117.714C492.911 118.715 492.577 119.513 491.91 120.108C491.243 120.703 490.198 121 488.776 121H483.336V109.467ZM488.776 119.303C489.589 119.303 490.162 119.158 490.495 118.867C490.829 118.577 490.996 118.164 490.996 117.627C490.996 117.076 490.829 116.655 490.495 116.365C490.162 116.06 489.589 115.908 488.776 115.908H485.251V119.303H488.776ZM488.341 114.341C489.168 114.341 489.741 114.196 490.06 113.906C490.394 113.616 490.561 113.217 490.561 112.709C490.561 112.231 490.394 111.853 490.06 111.578C489.741 111.302 489.168 111.164 488.341 111.164H485.251V114.341H488.341ZM495.64 109.467H497.555V113.819H499.884C501.334 113.819 502.401 114.138 503.082 114.777C503.779 115.415 504.127 116.3 504.127 117.431C504.127 118.534 503.779 119.404 503.082 120.043C502.401 120.681 501.334 121 499.884 121H495.64V109.467ZM499.775 119.303C500.674 119.303 501.305 119.143 501.668 118.824C502.031 118.505 502.212 118.033 502.212 117.41C502.212 116.786 502.031 116.314 501.668 115.995C501.305 115.676 500.674 115.516 499.775 115.516H497.555V119.303H499.775ZM505.911 109.467H507.826V121H505.911V109.467ZM514.435 115.146L510.323 109.467H512.542L515.589 113.667L518.635 109.467H520.768L516.655 115.038L520.985 121H518.722L515.502 116.496L512.281 121H510.105L514.435 115.146ZM527.4 119.303H528.815C528.974 119.085 529.119 118.751 529.25 118.302C529.38 117.852 529.496 117.323 529.598 116.713C529.7 116.104 529.772 115.444 529.816 114.733C529.874 114.008 529.903 113.268 529.903 112.513V109.467H537.954V119.303H539.586V123.72H537.758V121H529.228V123.72H527.4V119.303ZM536.039 119.303V111.164H531.774V112.949C531.774 113.558 531.752 114.167 531.709 114.777C531.665 115.371 531.6 115.944 531.513 116.496C531.426 117.032 531.317 117.547 531.186 118.041C531.07 118.519 530.933 118.94 530.773 119.303H536.039ZM545.379 121.218C544.741 121.218 544.175 121.131 543.682 120.956C543.203 120.768 542.797 120.514 542.463 120.195C542.13 119.876 541.876 119.499 541.702 119.063C541.528 118.628 541.441 118.149 541.441 117.627C541.441 116.481 541.774 115.654 542.442 115.146C543.124 114.639 544.095 114.385 545.358 114.385H549.1V113.601C549.1 112.615 548.876 111.933 548.426 111.556C547.991 111.179 547.331 110.99 546.446 110.99C545.619 110.99 545.017 111.15 544.639 111.469C544.262 111.774 544.052 112.122 544.008 112.513H542.094C542.123 112.049 542.246 111.621 542.463 111.23C542.696 110.823 543 110.475 543.377 110.185C543.769 109.895 544.233 109.67 544.77 109.511C545.307 109.336 545.902 109.249 546.554 109.249C547.918 109.249 548.999 109.576 549.797 110.229C550.609 110.867 551.015 111.919 551.015 113.384V118.062C551.015 118.672 551.015 119.208 551.015 119.673C551.03 120.122 551.066 120.565 551.124 121H549.449C549.405 120.666 549.376 120.354 549.361 120.064C549.347 119.76 549.34 119.419 549.34 119.042C549.035 119.651 548.542 120.166 547.86 120.587C547.178 121.007 546.351 121.218 545.379 121.218ZM545.793 119.477C546.243 119.477 546.663 119.419 547.055 119.303C547.461 119.172 547.817 118.991 548.121 118.759C548.426 118.512 548.665 118.215 548.839 117.867C549.013 117.518 549.1 117.112 549.1 116.648V115.865H545.684C544.973 115.865 544.415 116.01 544.008 116.3C543.602 116.575 543.399 117.018 543.399 117.627C543.399 118.164 543.588 118.606 543.965 118.955C544.357 119.303 544.966 119.477 545.793 119.477ZM554.397 109.467H556.312V114.276H562.275V109.467H564.19V121H562.275V115.973H556.312V121H554.397V109.467ZM567.679 109.467H569.594V114.276H575.556V109.467H577.471V121H575.556V115.973H569.594V121H567.679V109.467ZM580.96 109.467H582.875V113.819H585.204C586.654 113.819 587.721 114.138 588.402 114.777C589.099 115.415 589.447 116.3 589.447 117.431C589.447 118.534 589.099 119.404 588.402 120.043C587.721 120.681 586.654 121 585.204 121H580.96V109.467ZM585.095 119.303C585.994 119.303 586.625 119.143 586.988 118.824C587.351 118.505 587.532 118.033 587.532 117.41C587.532 116.786 587.351 116.314 586.988 115.995C586.625 115.676 585.994 115.516 585.095 115.516H582.875V119.303H585.095ZM591.231 109.467H593.146V121H591.231V109.467ZM599.755 115.146L595.643 109.467H597.862L600.909 113.667L603.955 109.467H606.088L601.975 115.038L606.305 121H604.042L600.822 116.496L597.601 121H595.425L599.755 115.146Z" fill="black"/>
<path d="M101.197 189.126H104.831V177.919L101.197 180.509V178.289L104.874 175.678H106.92V189.126H109.901V190.91H101.197V189.126ZM118.743 187.233H110.997V185.666L118.526 175.678H120.789V185.448H122.747V187.233H120.789V190.91H118.743V187.233ZM118.743 185.448V178.072L113.173 185.448H118.743ZM130.589 191.128C129.849 191.128 129.145 191.004 128.478 190.758C127.825 190.511 127.252 190.091 126.759 189.496C126.266 188.886 125.874 188.081 125.584 187.08C125.294 186.065 125.149 184.803 125.149 183.294V182.859C125.149 181.452 125.294 180.277 125.584 179.334C125.874 178.391 126.266 177.636 126.759 177.071C127.252 176.49 127.825 176.077 128.478 175.83C129.145 175.584 129.849 175.46 130.589 175.46C131.328 175.46 132.025 175.584 132.678 175.83C133.345 176.077 133.925 176.49 134.418 177.071C134.912 177.636 135.303 178.391 135.593 179.334C135.884 180.277 136.029 181.452 136.029 182.859V183.294C136.029 184.803 135.884 186.065 135.593 187.08C135.303 188.081 134.912 188.886 134.418 189.496C133.925 190.091 133.345 190.511 132.678 190.758C132.025 191.004 131.328 191.128 130.589 191.128ZM130.589 189.343C131.038 189.343 131.466 189.264 131.872 189.104C132.293 188.93 132.656 188.625 132.96 188.19C133.28 187.74 133.526 187.124 133.7 186.34C133.889 185.557 133.983 184.542 133.983 183.294V182.859C133.983 181.727 133.889 180.799 133.7 180.074C133.526 179.348 133.28 178.775 132.96 178.354C132.656 177.934 132.293 177.644 131.872 177.484C131.466 177.324 131.038 177.245 130.589 177.245C130.124 177.245 129.689 177.324 129.283 177.484C128.877 177.644 128.514 177.934 128.195 178.354C127.89 178.775 127.644 179.348 127.455 180.074C127.281 180.799 127.194 181.727 127.194 182.859V183.294C127.194 184.542 127.281 185.557 127.455 186.34C127.644 187.124 127.89 187.74 128.195 188.19C128.514 188.625 128.877 188.93 129.283 189.104C129.689 189.264 130.124 189.343 130.589 189.343ZM144.083 191.128C143.343 191.128 142.639 191.004 141.972 190.758C141.319 190.511 140.746 190.091 140.253 189.496C139.76 188.886 139.368 188.081 139.078 187.08C138.788 186.065 138.642 184.803 138.642 183.294V182.859C138.642 181.452 138.788 180.277 139.078 179.334C139.368 178.391 139.76 177.636 140.253 177.071C140.746 176.49 141.319 176.077 141.972 175.83C142.639 175.584 143.343 175.46 144.083 175.46C144.822 175.46 145.519 175.584 146.172 175.83C146.839 176.077 147.419 176.49 147.912 177.071C148.406 177.636 148.797 178.391 149.087 179.334C149.378 180.277 149.523 181.452 149.523 182.859V183.294C149.523 184.803 149.378 186.065 149.087 187.08C148.797 188.081 148.406 188.886 147.912 189.496C147.419 190.091 146.839 190.511 146.172 190.758C145.519 191.004 144.822 191.128 144.083 191.128ZM144.083 189.343C144.532 189.343 144.96 189.264 145.366 189.104C145.787 188.93 146.15 188.625 146.454 188.19C146.774 187.74 147.02 187.124 147.194 186.34C147.383 185.557 147.477 184.542 147.477 183.294V182.859C147.477 181.727 147.383 180.799 147.194 180.074C147.02 179.348 146.774 178.775 146.454 178.354C146.15 177.934 145.787 177.644 145.366 177.484C144.96 177.324 144.532 177.245 144.083 177.245C143.618 177.245 143.183 177.324 142.777 177.484C142.371 177.644 142.008 177.934 141.689 178.354C141.384 178.775 141.138 179.348 140.949 180.074C140.775 180.799 140.688 181.727 140.688 182.859V183.294C140.688 184.542 140.775 185.557 140.949 186.34C141.138 187.124 141.384 187.74 141.689 188.19C142.008 188.625 142.371 188.93 142.777 189.104C143.183 189.264 143.618 189.343 144.083 189.343Z" fill="black"/>
<path d="M101.197 330.617H104.831V319.41L101.197 322V319.78L104.874 317.169H106.92V330.617H109.901V332.401H101.197V330.617ZM117.307 332.619C116.567 332.619 115.864 332.496 115.196 332.249C114.544 332.002 113.971 331.582 113.477 330.987C112.984 330.378 112.592 329.573 112.302 328.572C112.012 327.556 111.867 326.294 111.867 324.785V324.35C111.867 322.943 112.012 321.768 112.302 320.825C112.592 319.882 112.984 319.128 113.477 318.562C113.971 317.982 114.544 317.568 115.196 317.321C115.864 317.075 116.567 316.952 117.307 316.952C118.047 316.952 118.743 317.075 119.396 317.321C120.063 317.568 120.644 317.982 121.137 318.562C121.63 319.128 122.022 319.882 122.312 320.825C122.602 321.768 122.747 322.943 122.747 324.35V324.785C122.747 326.294 122.602 327.556 122.312 328.572C122.022 329.573 121.63 330.378 121.137 330.987C120.644 331.582 120.063 332.002 119.396 332.249C118.743 332.496 118.047 332.619 117.307 332.619ZM117.307 330.835C117.757 330.835 118.185 330.755 118.591 330.595C119.012 330.421 119.374 330.117 119.679 329.681C119.998 329.232 120.245 328.615 120.419 327.832C120.607 327.048 120.702 326.033 120.702 324.785V324.35C120.702 323.218 120.607 322.29 120.419 321.565C120.245 320.839 119.998 320.266 119.679 319.846C119.374 319.425 119.012 319.135 118.591 318.975C118.185 318.816 117.757 318.736 117.307 318.736C116.843 318.736 116.408 318.816 116.002 318.975C115.595 319.135 115.233 319.425 114.913 319.846C114.609 320.266 114.362 320.839 114.174 321.565C114 322.29 113.913 323.218 113.913 324.35V324.785C113.913 326.033 114 327.048 114.174 327.832C114.362 328.615 114.609 329.232 114.913 329.681C115.233 330.117 115.595 330.421 116.002 330.595C116.408 330.755 116.843 330.835 117.307 330.835ZM130.801 332.619C130.061 332.619 129.358 332.496 128.69 332.249C128.038 332.002 127.465 331.582 126.971 330.987C126.478 330.378 126.086 329.573 125.796 328.572C125.506 327.556 125.361 326.294 125.361 324.785V324.35C125.361 322.943 125.506 321.768 125.796 320.825C126.086 319.882 126.478 319.128 126.971 318.562C127.465 317.982 128.038 317.568 128.69 317.321C129.358 317.075 130.061 316.952 130.801 316.952C131.541 316.952 132.237 317.075 132.89 317.321C133.557 317.568 134.138 317.982 134.631 318.562C135.124 319.128 135.516 319.882 135.806 320.825C136.096 321.768 136.241 322.943 136.241 324.35V324.785C136.241 326.294 136.096 327.556 135.806 328.572C135.516 329.573 135.124 330.378 134.631 330.987C134.138 331.582 133.557 332.002 132.89 332.249C132.237 332.496 131.541 332.619 130.801 332.619ZM130.801 330.835C131.251 330.835 131.679 330.755 132.085 330.595C132.506 330.421 132.868 330.117 133.173 329.681C133.492 329.232 133.739 328.615 133.913 327.832C134.101 327.048 134.196 326.033 134.196 324.785V324.35C134.196 323.218 134.101 322.29 133.913 321.565C133.739 320.839 133.492 320.266 133.173 319.846C132.868 319.425 132.506 319.135 132.085 318.975C131.679 318.816 131.251 318.736 130.801 318.736C130.337 318.736 129.902 318.816 129.495 318.975C129.089 319.135 128.727 319.425 128.407 319.846C128.103 320.266 127.856 320.839 127.668 321.565C127.494 322.29 127.406 323.218 127.406 324.35V324.785C127.406 326.033 127.494 327.048 127.668 327.832C127.856 328.615 128.103 329.232 128.407 329.681C128.727 330.117 129.089 330.421 129.495 330.595C129.902 330.755 130.337 330.835 130.801 330.835ZM144.295 332.619C143.555 332.619 142.852 332.496 142.184 332.249C141.531 332.002 140.958 331.582 140.465 330.987C139.972 330.378 139.58 329.573 139.29 328.572C139 327.556 138.855 326.294 138.855 324.785V324.35C138.855 322.943 139 321.768 139.29 320.825C139.58 319.882 139.972 319.128 140.465 318.562C140.958 317.982 141.531 317.568 142.184 317.321C142.852 317.075 143.555 316.952 144.295 316.952C145.035 316.952 145.731 317.075 146.384 317.321C147.051 317.568 147.632 317.982 148.125 318.562C148.618 319.128 149.01 319.882 149.3 320.825C149.59 321.768 149.735 322.943 149.735 324.35V324.785C149.735 326.294 149.59 327.556 149.3 328.572C149.01 329.573 148.618 330.378 148.125 330.987C147.632 331.582 147.051 332.002 146.384 332.249C145.731 332.496 145.035 332.619 144.295 332.619ZM144.295 330.835C144.745 330.835 145.173 330.755 145.579 330.595C146 330.421 146.362 330.117 146.667 329.681C146.986 329.232 147.233 328.615 147.407 327.832C147.595 327.048 147.69 326.033 147.69 324.785V324.35C147.69 323.218 147.595 322.29 147.407 321.565C147.233 320.839 146.986 320.266 146.667 319.846C146.362 319.425 146 319.135 145.579 318.975C145.173 318.816 144.745 318.736 144.295 318.736C143.831 318.736 143.396 318.816 142.989 318.975C142.583 319.135 142.221 319.425 141.901 319.846C141.597 320.266 141.35 320.839 141.162 321.565C140.987 322.29 140.9 323.218 140.9 324.35V324.785C140.9 326.033 140.987 327.048 141.162 327.832C141.35 328.615 141.597 329.232 141.901 329.681C142.221 330.117 142.583 330.421 142.989 330.595C143.396 330.755 143.831 330.835 144.295 330.835Z" fill="black"/>
<path d="M106.855 474.11C106.013 474.11 105.251 473.972 104.57 473.697C103.888 473.421 103.3 473 102.807 472.435C102.328 471.854 101.958 471.129 101.697 470.259C101.436 469.388 101.306 468.351 101.306 467.147V466.712C101.306 465.217 101.458 463.948 101.763 462.904C102.067 461.845 102.481 460.989 103.003 460.336C103.525 459.669 104.134 459.19 104.831 458.9C105.527 458.595 106.274 458.443 107.072 458.443C108.247 458.443 109.234 458.726 110.032 459.291C110.844 459.843 111.381 460.684 111.642 461.816H109.596C109.19 460.786 108.349 460.271 107.072 460.271C106.521 460.271 106.013 460.365 105.549 460.553C105.085 460.742 104.678 461.054 104.33 461.489C103.997 461.924 103.728 462.505 103.525 463.23C103.322 463.955 103.206 464.862 103.177 465.95C103.38 465.602 103.627 465.304 103.917 465.058C104.207 464.797 104.519 464.594 104.853 464.449C105.201 464.289 105.556 464.173 105.919 464.1C106.281 464.028 106.63 463.992 106.963 463.992C108.487 463.992 109.698 464.42 110.597 465.275C111.511 466.117 111.968 467.328 111.968 468.909V469.127C111.968 469.852 111.83 470.52 111.555 471.129C111.294 471.738 110.931 472.268 110.467 472.718C110.003 473.153 109.458 473.494 108.835 473.74C108.211 473.987 107.551 474.11 106.855 474.11ZM106.68 472.282C107.739 472.282 108.545 472.014 109.096 471.477C109.647 470.94 109.923 470.164 109.923 469.149V468.931C109.923 467.93 109.647 467.161 109.096 466.625C108.545 466.088 107.739 465.819 106.68 465.819C105.621 465.819 104.816 466.088 104.265 466.625C103.714 467.161 103.438 467.93 103.438 468.931V469.149C103.438 470.15 103.714 470.926 104.265 471.477C104.816 472.014 105.621 472.282 106.68 472.282ZM119.921 474.11C119.181 474.11 118.477 473.987 117.81 473.74C117.157 473.494 116.584 473.073 116.091 472.478C115.598 471.869 115.206 471.064 114.916 470.063C114.626 469.047 114.481 467.785 114.481 466.276V465.841C114.481 464.434 114.626 463.259 114.916 462.316C115.206 461.373 115.598 460.619 116.091 460.053C116.584 459.473 117.157 459.059 117.81 458.813C118.477 458.566 119.181 458.443 119.921 458.443C120.661 458.443 121.357 458.566 122.01 458.813C122.677 459.059 123.258 459.473 123.751 460.053C124.244 460.619 124.636 461.373 124.926 462.316C125.216 463.259 125.361 464.434 125.361 465.841V466.276C125.361 467.785 125.216 469.047 124.926 470.063C124.636 471.064 124.244 471.869 123.751 472.478C123.258 473.073 122.677 473.494 122.01 473.74C121.357 473.987 120.661 474.11 119.921 474.11ZM119.921 472.326C120.371 472.326 120.799 472.246 121.205 472.086C121.625 471.912 121.988 471.608 122.293 471.173C122.612 470.723 122.859 470.106 123.033 469.323C123.221 468.54 123.316 467.524 123.316 466.276V465.841C123.316 464.71 123.221 463.781 123.033 463.056C122.859 462.331 122.612 461.758 122.293 461.337C121.988 460.916 121.625 460.626 121.205 460.466C120.799 460.307 120.371 460.227 119.921 460.227C119.457 460.227 119.021 460.307 118.615 460.466C118.209 460.626 117.846 460.916 117.527 461.337C117.223 461.758 116.976 462.331 116.787 463.056C116.613 463.781 116.526 464.71 116.526 465.841V466.276C116.526 467.524 116.613 468.54 116.787 469.323C116.976 470.106 117.223 470.723 117.527 471.173C117.846 471.608 118.209 471.912 118.615 472.086C119.021 472.246 119.457 472.326 119.921 472.326ZM133.415 474.11C132.675 474.11 131.971 473.987 131.304 473.74C130.651 473.494 130.078 473.073 129.585 472.478C129.092 471.869 128.7 471.064 128.41 470.063C128.12 469.047 127.975 467.785 127.975 466.276V465.841C127.975 464.434 128.12 463.259 128.41 462.316C128.7 461.373 129.092 460.619 129.585 460.053C130.078 459.473 130.651 459.059 131.304 458.813C131.971 458.566 132.675 458.443 133.415 458.443C134.155 458.443 134.851 458.566 135.504 458.813C136.171 459.059 136.751 459.473 137.245 460.053C137.738 460.619 138.13 461.373 138.42 462.316C138.71 463.259 138.855 464.434 138.855 465.841V466.276C138.855 467.785 138.71 469.047 138.42 470.063C138.13 471.064 137.738 471.869 137.245 472.478C136.751 473.073 136.171 473.494 135.504 473.74C134.851 473.987 134.155 474.11 133.415 474.11ZM133.415 472.326C133.865 472.326 134.293 472.246 134.699 472.086C135.119 471.912 135.482 471.608 135.787 471.173C136.106 470.723 136.353 470.106 136.527 469.323C136.715 468.54 136.81 467.524 136.81 466.276V465.841C136.81 464.71 136.715 463.781 136.527 463.056C136.353 462.331 136.106 461.758 135.787 461.337C135.482 460.916 135.119 460.626 134.699 460.466C134.293 460.307 133.865 460.227 133.415 460.227C132.951 460.227 132.515 460.307 132.109 460.466C131.703 460.626 131.34 460.916 131.021 461.337C130.717 461.758 130.47 462.331 130.281 463.056C130.107 463.781 130.02 464.71 130.02 465.841V466.276C130.02 467.524 130.107 468.54 130.281 469.323C130.47 470.106 130.717 470.723 131.021 471.173C131.34 471.608 131.703 471.912 132.109 472.086C132.515 472.246 132.951 472.326 133.415 472.326Z" fill="black"/>
<path d="M100.87 613.708L106.963 608.42C107.428 608.029 107.805 607.673 108.095 607.354C108.399 607.035 108.639 606.738 108.813 606.462C108.987 606.172 109.103 605.889 109.161 605.613C109.234 605.338 109.27 605.04 109.27 604.721C109.27 603.865 109.016 603.162 108.508 602.61C108.001 602.045 107.304 601.762 106.419 601.762C105.36 601.762 104.548 602.052 103.982 602.632C103.416 603.198 103.133 604.003 103.133 605.048H101.088C101.088 604.308 101.211 603.626 101.458 603.002C101.719 602.364 102.082 601.82 102.546 601.37C103.025 600.92 103.59 600.572 104.243 600.326C104.896 600.065 105.621 599.934 106.419 599.934C107.188 599.934 107.877 600.057 108.487 600.304C109.096 600.536 109.611 600.87 110.032 601.305C110.452 601.726 110.771 602.226 110.989 602.806C111.207 603.387 111.315 604.025 111.315 604.721C111.315 605.243 111.236 605.729 111.076 606.179C110.916 606.629 110.692 607.057 110.401 607.463C110.126 607.869 109.785 608.268 109.379 608.66C108.987 609.037 108.552 609.429 108.073 609.835L103.525 613.599H111.533V615.384H100.87V613.708ZM119.368 615.601C118.629 615.601 117.925 615.478 117.258 615.231C116.605 614.985 116.032 614.564 115.539 613.969C115.045 613.36 114.654 612.555 114.364 611.554C114.073 610.538 113.928 609.276 113.928 607.768V607.332C113.928 605.925 114.073 604.75 114.364 603.807C114.654 602.864 115.045 602.11 115.539 601.544C116.032 600.964 116.605 600.55 117.258 600.304C117.925 600.057 118.629 599.934 119.368 599.934C120.108 599.934 120.805 600.057 121.457 600.304C122.125 600.55 122.705 600.964 123.198 601.544C123.691 602.11 124.083 602.864 124.373 603.807C124.663 604.75 124.808 605.925 124.808 607.332V607.768C124.808 609.276 124.663 610.538 124.373 611.554C124.083 612.555 123.691 613.36 123.198 613.969C122.705 614.564 122.125 614.985 121.457 615.231C120.805 615.478 120.108 615.601 119.368 615.601ZM119.368 613.817C119.818 613.817 120.246 613.737 120.652 613.578C121.073 613.404 121.436 613.099 121.74 612.664C122.059 612.214 122.306 611.597 122.48 610.814C122.669 610.031 122.763 609.015 122.763 607.768V607.332C122.763 606.201 122.669 605.272 122.48 604.547C122.306 603.822 122.059 603.249 121.74 602.828C121.436 602.407 121.073 602.117 120.652 601.958C120.246 601.798 119.818 601.718 119.368 601.718C118.904 601.718 118.469 601.798 118.063 601.958C117.657 602.117 117.294 602.407 116.975 602.828C116.67 603.249 116.424 603.822 116.235 604.547C116.061 605.272 115.974 606.201 115.974 607.332V607.768C115.974 609.015 116.061 610.031 116.235 610.814C116.424 611.597 116.67 612.214 116.975 612.664C117.294 613.099 117.657 613.404 118.063 613.578C118.469 613.737 118.904 613.817 119.368 613.817ZM132.862 615.601C132.123 615.601 131.419 615.478 130.752 615.231C130.099 614.985 129.526 614.564 129.033 613.969C128.539 613.36 128.148 612.555 127.857 611.554C127.567 610.538 127.422 609.276 127.422 607.768V607.332C127.422 605.925 127.567 604.75 127.857 603.807C128.148 602.864 128.539 602.11 129.033 601.544C129.526 600.964 130.099 600.55 130.752 600.304C131.419 600.057 132.123 599.934 132.862 599.934C133.602 599.934 134.299 600.057 134.951 600.304C135.619 600.55 136.199 600.964 136.692 601.544C137.185 602.11 137.577 602.864 137.867 603.807C138.157 604.75 138.302 605.925 138.302 607.332V607.768C138.302 609.276 138.157 610.538 137.867 611.554C137.577 612.555 137.185 613.36 136.692 613.969C136.199 614.564 135.619 614.985 134.951 615.231C134.299 615.478 133.602 615.601 132.862 615.601ZM132.862 613.817C133.312 613.817 133.74 613.737 134.146 613.578C134.567 613.404 134.93 613.099 135.234 612.664C135.553 612.214 135.8 611.597 135.974 610.814C136.163 610.031 136.257 609.015 136.257 607.768V607.332C136.257 606.201 136.163 605.272 135.974 604.547C135.8 603.822 135.553 603.249 135.234 602.828C134.93 602.407 134.567 602.117 134.146 601.958C133.74 601.798 133.312 601.718 132.862 601.718C132.398 601.718 131.963 601.798 131.557 601.958C131.151 602.117 130.788 602.407 130.469 602.828C130.164 603.249 129.917 603.822 129.729 604.547C129.555 605.272 129.468 606.201 129.468 607.332V607.768C129.468 609.015 129.555 610.031 129.729 610.814C129.917 611.597 130.164 612.214 130.469 612.664C130.788 613.099 131.151 613.404 131.557 613.578C131.963 613.737 132.398 613.817 132.862 613.817Z" fill="black"/>
<path d="M254.374 737.553L260.467 732.265C260.931 731.874 261.309 731.518 261.599 731.199C261.903 730.88 262.143 730.582 262.317 730.307C262.491 730.017 262.607 729.734 262.665 729.458C262.738 729.182 262.774 728.885 262.774 728.566C262.774 727.71 262.52 727.006 262.012 726.455C261.504 725.889 260.808 725.607 259.923 725.607C258.864 725.607 258.052 725.897 257.486 726.477C256.92 727.043 256.637 727.848 256.637 728.892H254.592C254.592 728.152 254.715 727.471 254.962 726.847C255.223 726.209 255.586 725.665 256.05 725.215C256.529 724.765 257.094 724.417 257.747 724.17C258.4 723.909 259.125 723.779 259.923 723.779C260.692 723.779 261.381 723.902 261.99 724.149C262.6 724.381 263.115 724.714 263.535 725.15C263.956 725.57 264.275 726.071 264.493 726.651C264.71 727.231 264.819 727.87 264.819 728.566C264.819 729.088 264.74 729.574 264.58 730.024C264.42 730.474 264.195 730.902 263.905 731.308C263.63 731.714 263.289 732.113 262.883 732.505C262.491 732.882 262.056 733.273 261.577 733.68L257.029 737.444H265.037V739.229H254.374V737.553ZM272.872 739.446C272.132 739.446 271.429 739.323 270.762 739.076C270.109 738.83 269.536 738.409 269.042 737.814C268.549 737.205 268.158 736.4 267.867 735.399C267.577 734.383 267.432 733.121 267.432 731.612V731.177C267.432 729.77 267.577 728.595 267.867 727.652C268.158 726.709 268.549 725.955 269.042 725.389C269.536 724.809 270.109 724.395 270.762 724.149C271.429 723.902 272.132 723.779 272.872 723.779C273.612 723.779 274.309 723.902 274.961 724.149C275.629 724.395 276.209 724.809 276.702 725.389C277.195 725.955 277.587 726.709 277.877 727.652C278.167 728.595 278.312 729.77 278.312 731.177V731.612C278.312 733.121 278.167 734.383 277.877 735.399C277.587 736.4 277.195 737.205 276.702 737.814C276.209 738.409 275.629 738.83 274.961 739.076C274.309 739.323 273.612 739.446 272.872 739.446ZM272.872 737.662C273.322 737.662 273.75 737.582 274.156 737.422C274.577 737.248 274.94 736.944 275.244 736.508C275.563 736.059 275.81 735.442 275.984 734.659C276.173 733.875 276.267 732.86 276.267 731.612V731.177C276.267 730.046 276.173 729.117 275.984 728.392C275.81 727.667 275.563 727.093 275.244 726.673C274.94 726.252 274.577 725.962 274.156 725.802C273.75 725.643 273.322 725.563 272.872 725.563C272.408 725.563 271.973 725.643 271.567 725.802C271.161 725.962 270.798 726.252 270.479 726.673C270.174 727.093 269.927 727.667 269.739 728.392C269.565 729.117 269.478 730.046 269.478 731.177V731.612C269.478 732.86 269.565 733.875 269.739 734.659C269.927 735.442 270.174 736.059 270.479 736.508C270.798 736.944 271.161 737.248 271.567 737.422C271.973 737.582 272.408 737.662 272.872 737.662ZM287.237 723.996H289.369L294.461 733.68L299.553 723.996H301.599V739.229H299.553V727.696L295.179 735.964H293.656L289.282 727.696V739.229H287.237V723.996ZM311.507 739.446C310.651 739.446 309.839 739.301 309.07 739.011C308.301 738.706 307.619 738.242 307.025 737.618C306.43 736.98 305.958 736.175 305.61 735.203C305.262 734.231 305.088 733.07 305.088 731.721V731.286C305.088 729.98 305.262 728.856 305.61 727.913C305.958 726.97 306.43 726.194 307.025 725.585C307.619 724.975 308.301 724.526 309.07 724.236C309.839 723.931 310.651 723.779 311.507 723.779C312.334 723.779 313.088 723.887 313.77 724.105C314.467 724.323 315.076 724.635 315.598 725.041C316.12 725.447 316.541 725.947 316.86 726.542C317.194 727.137 317.404 727.812 317.491 728.566H315.315C315.112 727.579 314.684 726.84 314.031 726.346C313.379 725.853 312.537 725.607 311.507 725.607C310.97 725.607 310.448 725.708 309.94 725.911C309.433 726.114 308.976 726.441 308.569 726.89C308.178 727.326 307.859 727.906 307.612 728.631C307.38 729.357 307.264 730.241 307.264 731.286V731.721C307.264 732.824 307.394 733.752 307.656 734.507C307.917 735.246 308.25 735.848 308.657 736.313C309.063 736.777 309.52 737.111 310.027 737.314C310.535 737.517 311.028 737.618 311.507 737.618C312.639 737.618 313.524 737.343 314.162 736.791C314.8 736.24 315.185 735.529 315.315 734.659H317.491C317.375 735.5 317.143 736.226 316.795 736.835C316.447 737.43 316.004 737.923 315.468 738.315C314.945 738.706 314.343 738.996 313.661 739.185C312.994 739.359 312.276 739.446 311.507 739.446Z" fill="black"/>
<path d="M233 695L213 706.547L233 718.094V695Z" fill="#FFBD6E"/>
<path d="M339 711.547H233V701.547H339V711.547Z" fill="#FFBD6E"/>
<path d="M339 695L359 706.547L339 718.094V695Z" fill="#FFBD6E"/>
<path d="M419.617 723.996H425.058C425.971 723.996 426.755 724.098 427.408 724.301C428.06 724.504 428.597 724.787 429.018 725.15C429.453 725.498 429.772 725.926 429.975 726.433C430.178 726.927 430.28 727.471 430.28 728.065C430.28 728.849 430.062 729.523 429.627 730.089C429.192 730.64 428.655 731.039 428.017 731.286C428.916 731.489 429.627 731.903 430.149 732.526C430.672 733.136 430.933 733.933 430.933 734.92C430.933 735.544 430.831 736.117 430.628 736.639C430.425 737.161 430.106 737.618 429.671 738.01C429.236 738.387 428.67 738.685 427.973 738.902C427.292 739.12 426.465 739.229 425.493 739.229H419.617V723.996ZM425.493 737.444C426.146 737.444 426.69 737.386 427.125 737.27C427.56 737.14 427.908 736.965 428.169 736.748C428.43 736.516 428.612 736.24 428.713 735.921C428.829 735.602 428.887 735.246 428.887 734.855C428.887 734.463 428.829 734.108 428.713 733.788C428.612 733.455 428.43 733.179 428.169 732.962C427.908 732.729 427.553 732.555 427.103 732.439C426.668 732.309 426.124 732.243 425.471 732.243H421.663V737.444H425.493ZM425.058 730.546C425.667 730.546 426.175 730.488 426.581 730.372C426.987 730.256 427.313 730.089 427.56 729.872C427.807 729.654 427.981 729.4 428.082 729.11C428.184 728.82 428.235 728.501 428.235 728.152C428.235 727.804 428.184 727.485 428.082 727.195C427.981 726.89 427.807 726.637 427.56 726.433C427.313 726.23 426.987 726.071 426.581 725.955C426.175 725.839 425.667 725.781 425.058 725.781H421.663V730.546H425.058ZM433.76 727.696H435.544V729.872C435.936 729.103 436.48 728.515 437.176 728.109C437.887 727.688 438.707 727.478 439.635 727.478C441.086 727.478 442.247 727.957 443.117 728.914C443.987 729.857 444.423 731.264 444.423 733.136V733.571C444.423 734.557 444.306 735.42 444.074 736.16C443.842 736.886 443.516 737.495 443.095 737.988C442.674 738.467 442.167 738.83 441.572 739.076C440.992 739.323 440.346 739.446 439.635 739.446C438.649 739.446 437.822 739.229 437.155 738.793C436.502 738.358 436.009 737.814 435.675 737.161V743.581H433.76V727.696ZM439.2 737.749C439.664 737.749 440.099 737.662 440.506 737.488C440.912 737.299 441.26 737.031 441.55 736.683C441.855 736.334 442.087 735.899 442.247 735.377C442.421 734.855 442.508 734.253 442.508 733.571V733.136C442.508 732.512 442.421 731.953 442.247 731.46C442.087 730.967 441.855 730.553 441.55 730.22C441.26 729.872 440.912 729.61 440.506 729.436C440.099 729.262 439.664 729.175 439.2 729.175C438.678 729.175 438.199 729.262 437.764 729.436C437.329 729.596 436.959 729.828 436.654 730.133C436.349 730.423 436.11 730.771 435.936 731.177C435.762 731.583 435.675 732.019 435.675 732.483V734.224C435.675 734.746 435.762 735.225 435.936 735.66C436.11 736.095 436.349 736.465 436.654 736.77C436.959 737.074 437.329 737.314 437.764 737.488C438.199 737.662 438.678 737.749 439.2 737.749ZM451.935 739.446C451.195 739.446 450.492 739.33 449.824 739.098C449.157 738.866 448.569 738.51 448.062 738.032C447.554 737.538 447.148 736.922 446.843 736.182C446.538 735.442 446.386 734.572 446.386 733.571V733.136C446.386 732.178 446.531 731.351 446.821 730.655C447.111 729.944 447.496 729.357 447.975 728.892C448.468 728.414 449.034 728.058 449.672 727.826C450.325 727.594 451.007 727.478 451.717 727.478C453.415 727.478 454.728 727.942 455.656 728.871C456.584 729.799 457.049 731.112 457.049 732.809V734.028H448.301C448.301 734.71 448.41 735.283 448.627 735.747C448.845 736.211 449.128 736.588 449.476 736.878C449.824 737.169 450.209 737.379 450.629 737.509C451.065 737.64 451.5 737.705 451.935 737.705C452.805 737.705 453.473 737.56 453.937 737.27C454.416 736.98 454.757 736.581 454.96 736.073H456.831C456.715 736.625 456.505 737.111 456.2 737.531C455.91 737.952 455.547 738.307 455.112 738.597C454.691 738.873 454.205 739.083 453.654 739.229C453.117 739.374 452.544 739.446 451.935 739.446ZM451.826 729.219C451.376 729.219 450.941 729.284 450.521 729.415C450.1 729.531 449.723 729.726 449.389 730.002C449.07 730.263 448.809 730.597 448.606 731.003C448.403 731.409 448.301 731.895 448.301 732.461H455.243C455.228 731.866 455.126 731.366 454.938 730.96C454.764 730.539 454.524 730.205 454.22 729.959C453.915 729.697 453.552 729.509 453.132 729.393C452.726 729.277 452.29 729.219 451.826 729.219ZM459.77 727.696H461.816L465.929 734.876L470.041 727.696H471.956V739.229H470.041V730.851L466.625 736.726H465.102L461.685 730.851V739.229H459.77V727.696ZM477.695 734.659C476.738 734.441 476.048 734.05 475.628 733.484C475.207 732.904 474.997 732.164 474.997 731.264C474.997 730.133 475.338 729.255 476.019 728.631C476.716 728.007 477.826 727.696 479.349 727.696H484.354V739.229H482.439V734.833H479.501L476.694 739.229H474.561L477.695 734.659ZM476.912 731.264C476.912 731.874 477.086 732.338 477.434 732.657C477.797 732.976 478.399 733.136 479.24 733.136H482.439V729.393H479.24C478.399 729.393 477.797 729.552 477.434 729.872C477.086 730.191 476.912 730.655 476.912 731.264Z" fill="black"/>
<path d="M202.77 534.123L202.77 468.123L212.77 468.123L212.77 534.123L202.77 534.123Z" fill="#FFBD6E"/>
<path d="M219.317 534.123L207.77 554.123L196.223 534.123L219.317 534.123Z" fill="#FFBD6E"/>
<path d="M367.652 534.123L367.652 468.123L377.652 468.123L377.652 534.123L367.652 534.123Z" fill="#FFBD6E"/>
<path d="M384.199 534.123L372.652 554.123L361.105 534.123L384.199 534.123Z" fill="#FFBD6E"/>
<rect x="191.77" y="409.393" width="197" height="64" fill="#FFF5EA"/>
<path d="M221.736 446.106H215.295L213.837 449.893H211.705L217.537 434.66H219.582L225.414 449.893H223.194L221.736 446.106ZM215.97 444.322H221.062L218.516 437.272L215.97 444.322ZM227.815 454.462C227.597 454.462 227.38 454.44 227.162 454.397V452.656C227.38 452.7 227.597 452.721 227.815 452.721C228.033 452.721 228.221 452.685 228.381 452.613C228.54 452.54 228.693 452.402 228.838 452.199C228.983 451.996 229.135 451.706 229.295 451.329C229.469 450.966 229.665 450.487 229.882 449.893L224.986 438.36H227.119L230.861 447.717L234.256 438.36H236.302L231.95 449.893C231.645 450.705 231.355 451.401 231.079 451.982C230.803 452.562 230.506 453.033 230.187 453.396C229.882 453.773 229.541 454.042 229.164 454.201C228.787 454.375 228.337 454.462 227.815 454.462ZM236.504 448.195H237.918C238.078 447.978 238.223 447.644 238.354 447.194C238.484 446.745 238.6 446.215 238.702 445.606C238.803 444.996 238.876 444.336 238.919 443.626C238.977 442.9 239.006 442.16 239.006 441.406V438.36H247.058V448.195H248.69V452.613H246.862V449.893H238.332V452.613H236.504V448.195ZM245.143 448.195V440.057H240.878V441.841C240.878 442.451 240.856 443.06 240.812 443.669C240.769 444.264 240.704 444.837 240.617 445.388C240.53 445.925 240.421 446.44 240.29 446.933C240.174 447.412 240.036 447.833 239.877 448.195H245.143ZM250.985 438.36H252.9V447.064L258.862 438.36H260.777V449.893H258.862V441.188L252.9 449.893H250.985V438.36ZM269.053 450.11C268.314 450.11 267.61 449.994 266.943 449.762C266.275 449.515 265.688 449.153 265.18 448.674C264.672 448.181 264.266 447.564 263.962 446.824C263.657 446.085 263.505 445.221 263.505 444.235V443.8C263.505 442.871 263.657 442.052 263.962 441.341C264.266 440.63 264.672 440.042 265.18 439.578C265.688 439.099 266.275 438.744 266.943 438.512C267.61 438.265 268.314 438.142 269.053 438.142C269.793 438.142 270.497 438.265 271.164 438.512C271.832 438.744 272.419 439.099 272.927 439.578C273.435 440.042 273.841 440.63 274.145 441.341C274.45 442.052 274.602 442.871 274.602 443.8V444.235C274.602 445.221 274.45 446.085 274.145 446.824C273.841 447.564 273.435 448.181 272.927 448.674C272.419 449.153 271.832 449.515 271.164 449.762C270.497 449.994 269.793 450.11 269.053 450.11ZM269.053 448.369C269.489 448.369 269.924 448.297 270.359 448.152C270.794 447.992 271.179 447.753 271.512 447.434C271.846 447.1 272.114 446.672 272.318 446.15C272.535 445.628 272.644 444.989 272.644 444.235V443.8C272.644 443.103 272.535 442.509 272.318 442.015C272.114 441.522 271.846 441.116 271.512 440.797C271.179 440.478 270.794 440.245 270.359 440.1C269.924 439.955 269.489 439.883 269.053 439.883C268.618 439.883 268.183 439.955 267.748 440.1C267.313 440.245 266.928 440.478 266.595 440.797C266.261 441.116 265.985 441.522 265.768 442.015C265.565 442.509 265.463 443.103 265.463 443.8V444.235C265.463 444.989 265.565 445.628 265.768 446.15C265.985 446.672 266.261 447.1 266.595 447.434C266.928 447.753 267.313 447.992 267.748 448.152C268.183 448.297 268.618 448.369 269.053 448.369ZM277.314 438.36H282.319C283.74 438.36 284.785 438.657 285.452 439.252C286.12 439.832 286.453 440.586 286.453 441.515C286.453 441.761 286.41 442.015 286.323 442.276C286.236 442.523 286.112 442.755 285.953 442.973C285.808 443.19 285.626 443.379 285.409 443.539C285.206 443.698 284.974 443.821 284.712 443.908C285.423 444.083 285.96 444.416 286.323 444.909C286.7 445.388 286.888 445.954 286.888 446.607C286.888 447.608 286.555 448.406 285.887 449C285.22 449.595 284.176 449.893 282.754 449.893H277.314V438.36ZM282.754 448.195C283.566 448.195 284.139 448.05 284.473 447.76C284.807 447.47 284.974 447.056 284.974 446.52C284.974 445.968 284.807 445.548 284.473 445.258C284.139 444.953 283.566 444.801 282.754 444.801H279.229V448.195H282.754ZM282.319 443.234C283.146 443.234 283.719 443.089 284.038 442.799C284.372 442.509 284.538 442.11 284.538 441.602C284.538 441.123 284.372 440.746 284.038 440.47C283.719 440.195 283.146 440.057 282.319 440.057H279.229V443.234H282.319ZM289.618 438.36H291.533V442.712H293.861C295.312 442.712 296.378 443.031 297.06 443.669C297.756 444.307 298.104 445.192 298.104 446.324C298.104 447.426 297.756 448.297 297.06 448.935C296.378 449.573 295.312 449.893 293.861 449.893H289.618V438.36ZM293.752 448.195C294.652 448.195 295.283 448.036 295.645 447.717C296.008 447.397 296.189 446.926 296.189 446.302C296.189 445.678 296.008 445.207 295.645 444.888C295.283 444.569 294.652 444.409 293.752 444.409H291.533V448.195H293.752ZM299.889 438.36H301.804V449.893H299.889V438.36ZM310.067 450.11C309.298 450.11 308.58 449.965 307.912 449.675C307.26 449.385 306.687 448.964 306.193 448.413C305.715 447.847 305.33 447.158 305.04 446.346C304.764 445.533 304.627 444.612 304.627 443.582V443.147C304.627 441.841 304.721 440.681 304.909 439.665C305.098 438.635 305.417 437.765 305.867 437.054C306.331 436.329 306.933 435.763 307.673 435.357C308.427 434.95 309.37 434.718 310.502 434.66C311.416 434.617 312.214 434.581 312.895 434.552C313.577 434.508 314.158 434.363 314.636 434.116V435.966C314.404 436.097 313.976 436.198 313.352 436.271C312.743 436.343 311.902 436.394 310.828 436.423C310.132 436.437 309.515 436.524 308.979 436.684C308.456 436.844 308.007 437.097 307.629 437.446C307.267 437.794 306.977 438.251 306.759 438.817C306.556 439.368 306.425 440.05 306.367 440.862C306.716 440.093 307.252 439.484 307.978 439.034C308.703 438.584 309.544 438.36 310.502 438.36C311.242 438.36 311.916 438.49 312.526 438.751C313.135 438.998 313.657 439.353 314.092 439.818C314.542 440.282 314.89 440.855 315.137 441.537C315.383 442.204 315.507 442.958 315.507 443.8V444.235C315.507 445.134 315.369 445.947 315.093 446.672C314.818 447.383 314.44 447.999 313.962 448.522C313.483 449.029 312.91 449.421 312.243 449.697C311.575 449.972 310.85 450.11 310.067 450.11ZM310.067 448.369C311.082 448.369 311.916 448.021 312.569 447.325C313.222 446.614 313.548 445.584 313.548 444.235V443.8C313.548 443.234 313.461 442.726 313.287 442.276C313.113 441.827 312.874 441.442 312.569 441.123C312.264 440.789 311.894 440.536 311.459 440.362C311.039 440.187 310.574 440.1 310.067 440.1C309.559 440.1 309.087 440.187 308.652 440.362C308.231 440.536 307.869 440.789 307.564 441.123C307.26 441.442 307.02 441.827 306.846 442.276C306.672 442.726 306.585 443.234 306.585 443.8V444.235C306.585 444.873 306.672 445.453 306.846 445.976C307.035 446.483 307.289 446.919 307.608 447.281C307.927 447.63 308.297 447.898 308.717 448.086C309.138 448.275 309.588 448.369 310.067 448.369ZM323.008 450.11C322.268 450.11 321.565 449.994 320.897 449.762C320.23 449.515 319.642 449.153 319.135 448.674C318.627 448.181 318.221 447.564 317.916 446.824C317.612 446.085 317.459 445.221 317.459 444.235V443.8C317.459 442.871 317.612 442.052 317.916 441.341C318.221 440.63 318.627 440.042 319.135 439.578C319.642 439.099 320.23 438.744 320.897 438.512C321.565 438.265 322.268 438.142 323.008 438.142C323.748 438.142 324.452 438.265 325.119 438.512C325.786 438.744 326.374 439.099 326.881 439.578C327.389 440.042 327.795 440.63 328.1 441.341C328.405 442.052 328.557 442.871 328.557 443.8V444.235C328.557 445.221 328.405 446.085 328.1 446.824C327.795 447.564 327.389 448.181 326.881 448.674C326.374 449.153 325.786 449.515 325.119 449.762C324.452 449.994 323.748 450.11 323.008 450.11ZM323.008 448.369C323.443 448.369 323.878 448.297 324.314 448.152C324.749 447.992 325.133 447.753 325.467 447.434C325.801 447.1 326.069 446.672 326.272 446.15C326.49 445.628 326.599 444.989 326.599 444.235V443.8C326.599 443.103 326.49 442.509 326.272 442.015C326.069 441.522 325.801 441.116 325.467 440.797C325.133 440.478 324.749 440.245 324.314 440.1C323.878 439.955 323.443 439.883 323.008 439.883C322.573 439.883 322.138 439.955 321.702 440.1C321.267 440.245 320.883 440.478 320.549 440.797C320.215 441.116 319.94 441.522 319.722 442.015C319.519 442.509 319.418 443.103 319.418 443.8V444.235C319.418 444.989 319.519 445.628 319.722 446.15C319.94 446.672 320.215 447.1 320.549 447.434C320.883 447.753 321.267 447.992 321.702 448.152C322.138 448.297 322.573 448.369 323.008 448.369ZM331.269 438.36H333.053V440.536C333.445 439.767 333.989 439.179 334.685 438.773C335.396 438.352 336.215 438.142 337.144 438.142C338.594 438.142 339.755 438.621 340.625 439.578C341.496 440.521 341.931 441.928 341.931 443.8V444.235C341.931 445.221 341.815 446.085 341.583 446.824C341.351 447.55 341.024 448.159 340.604 448.652C340.183 449.131 339.675 449.494 339.08 449.74C338.5 449.987 337.855 450.11 337.144 450.11C336.157 450.11 335.33 449.893 334.663 449.457C334.01 449.022 333.517 448.478 333.183 447.825V454.245H331.269V438.36ZM336.709 448.413C337.173 448.413 337.608 448.326 338.014 448.152C338.42 447.963 338.769 447.695 339.059 447.347C339.363 446.998 339.595 446.563 339.755 446.041C339.929 445.519 340.016 444.917 340.016 444.235V443.8C340.016 443.176 339.929 442.617 339.755 442.124C339.595 441.631 339.363 441.217 339.059 440.884C338.769 440.536 338.42 440.275 338.014 440.1C337.608 439.926 337.173 439.839 336.709 439.839C336.186 439.839 335.708 439.926 335.272 440.1C334.837 440.26 334.467 440.492 334.163 440.797C333.858 441.087 333.619 441.435 333.445 441.841C333.27 442.247 333.183 442.683 333.183 443.147V444.888C333.183 445.41 333.27 445.889 333.445 446.324C333.619 446.759 333.858 447.129 334.163 447.434C334.467 447.738 334.837 447.978 335.272 448.152C335.708 448.326 336.186 448.413 336.709 448.413ZM344.656 438.36H346.571V443.19H348.094L352.403 438.36H354.666L349.661 443.887L354.884 449.893H352.446L348.094 444.844H346.571V449.893H344.656V438.36ZM357.173 438.36H359.088V447.064L365.05 438.36H366.965V449.893H365.05V441.188L359.088 449.893H357.173V438.36Z" fill="black"/>
<rect x="191.77" y="409.393" width="197" height="64" stroke="#FFBD6E"/>
</svg>
