<svg width="817" height="844" viewBox="0 0 817 844" fill="none" xmlns="http://www.w3.org/2000/svg">
<rect x="202.961" y="300.107" width="10.9478" height="375.922" fill="#58A982" stroke="#508C6D" stroke-width="0.5"/>
<rect x="213.908" y="263.521" width="10.9478" height="412.508" fill="#58A982" stroke="#508C6D" stroke-width="0.5"/>
<rect x="246.752" y="285.884" width="10.9478" height="390.146" fill="#58A982" stroke="#508C6D" stroke-width="0.5"/>
<rect x="257.699" y="250.521" width="10.9478" height="425.509" fill="#58A982" stroke="#508C6D" stroke-width="0.5"/>
<rect x="290.543" y="285.884" width="10.9478" height="390.146" fill="#58A982" stroke="#508C6D" stroke-width="0.5"/>
<rect x="301.492" y="314.487" width="10.9478" height="361.542" fill="#58A982" stroke="#508C6D" stroke-width="0.5"/>
<rect x="334.334" y="258.321" width="10.9478" height="417.708" fill="#58A982" stroke="#508C6D" stroke-width="0.5"/>
<rect x="356.23" y="460.621" width="10.9478" height="215.408" fill="#58A982" stroke="#508C6D" stroke-width="0.5"/>
<rect x="367.178" y="314.487" width="10.9478" height="361.542" fill="#58A982" stroke="#508C6D" stroke-width="0.5"/>
<rect x="378.127" y="327.488" width="10.9478" height="348.541" fill="#58A982" stroke="#508C6D" stroke-width="0.5"/>
<rect x="389.074" y="272.363" width="10.9478" height="403.666" fill="#58A982" stroke="#508C6D" stroke-width="0.5"/>
<rect x="400.021" y="245.32" width="10.9478" height="430.709" fill="#58A982" stroke="#508C6D" stroke-width="0.5"/>
<rect x="410.969" y="314.487" width="10.9478" height="361.542" fill="#58A982" stroke="#508C6D" stroke-width="0.5"/>
<rect x="421.918" y="327.488" width="10.9478" height="348.541" fill="#58A982" stroke="#508C6D" stroke-width="0.5"/>
<rect x="432.865" y="285.884" width="10.9478" height="390.146" fill="#58A982" stroke="#508C6D" stroke-width="0.5"/>
<rect x="443.812" y="300.107" width="10.9478" height="375.922" fill="#58A982" stroke="#508C6D" stroke-width="0.5"/>
<rect x="454.76" y="245.32" width="10.9478" height="430.709" fill="#58A982" stroke="#508C6D" stroke-width="0.5"/>
<rect x="465.709" y="422.657" width="10.9478" height="253.372" fill="#58A982" stroke="#508C6D" stroke-width="0.5"/>
<rect x="476.656" y="353.491" width="10.9478" height="322.538" fill="#58A982" stroke="#508C6D" stroke-width="0.5"/>
<rect x="487.604" y="422.657" width="10.9478" height="253.372" fill="#58A982" stroke="#508C6D" stroke-width="0.5"/>
<rect x="498.553" y="398.735" width="10.9478" height="277.294" fill="#58A982" stroke="#508C6D" stroke-width="0.5"/>
<rect x="509.5" y="319.688" width="10.9478" height="356.342" fill="#58A982" stroke="#508C6D" stroke-width="0.5"/>
<rect x="520.447" y="460.621" width="10.9478" height="215.408" fill="#58A982" stroke="#508C6D" stroke-width="0.5"/>
<rect x="531.395" y="300.107" width="10.9478" height="375.922" fill="#58A982" stroke="#508C6D" stroke-width="0.5"/>
<rect x="553.291" y="317.097" width="10.9478" height="358.933" fill="#58A982" stroke="#508C6D" stroke-width="0.5"/>
<rect x="564.238" y="272.363" width="10.9478" height="403.666" fill="#58A982" stroke="#508C6D" stroke-width="0.5"/>
<rect x="597.082" y="274.947" width="10.9478" height="401.082" fill="#58A982" stroke="#508C6D" stroke-width="0.5"/>
<rect x="608.029" y="306.438" width="10.9478" height="369.592" fill="#58A982" stroke="#508C6D" stroke-width="0.5"/>
<rect x="618.979" y="327.488" width="10.9478" height="348.541" fill="#58A982" stroke="#508C6D" stroke-width="0.5"/>
<rect x="640.873" y="317.097" width="10.9478" height="358.933" fill="#58A982" stroke="#508C6D" stroke-width="0.5"/>
<rect x="651.822" y="422.657" width="10.9478" height="253.372" fill="#58A982" stroke="#508C6D" stroke-width="0.5"/>
<rect x="673.717" y="494.415" width="10.9478" height="181.614" fill="#58A982" stroke="#508C6D" stroke-width="0.5"/>
<path d="M368.846 676.029V185.16" stroke="black" stroke-dasharray="6 6"/>
<path d="M202.961 676.029V185.16" stroke="black" stroke-dasharray="6 6"/>
<path d="M684.664 676.029V185.16" stroke="black" stroke-dasharray="6 6"/>
<path d="M368.846 690.586V676.029" stroke="black" stroke-width="2"/>
<path d="M202.961 690.586V676.029" stroke="black" stroke-width="2"/>
<path d="M162.947 676.029H175.846" stroke="black" stroke-width="2"/>
<path d="M162.947 605.905H175.846" stroke="black" stroke-width="2"/>
<path d="M162.947 535.781H175.846" stroke="black" stroke-width="2"/>
<path d="M162.947 465.657H175.846" stroke="black" stroke-width="2"/>
<path d="M162.947 395.532H175.846" stroke="black" stroke-width="2"/>
<path d="M162.947 325.408H175.846" stroke="black" stroke-width="2"/>
<path d="M162.947 255.284H175.846" stroke="black" stroke-width="2"/>
<path d="M162.947 185.16H175.846" stroke="black" stroke-width="2"/>
<path d="M531.395 676.029V185.16" stroke="black" stroke-dasharray="6 6"/>
<path d="M684.664 690.586V676.029" stroke="black" stroke-width="2"/>
<path d="M202.961 185.16L684.664 185.16" stroke="black" stroke-dasharray="6 6"/>
<path d="M716.752 676.029L706.752 670.256V681.803L716.752 676.029ZM169.396 677.029H707.752V675.029H169.396V677.029Z" fill="black"/>
<path d="M169.397 676.029L169.396 185.16" stroke="black" stroke-width="2"/>
<path d="M531.395 690.586V676.029" stroke="black" stroke-width="2"/>
<path d="M325.563 105.768H337.531V121H335.485V107.552H327.608V121H325.563V105.768ZM344.734 121.218C344.095 121.218 343.53 121.131 343.036 120.956C342.558 120.768 342.151 120.514 341.818 120.195C341.484 119.876 341.23 119.499 341.056 119.063C340.882 118.628 340.795 118.149 340.795 117.627C340.795 116.481 341.129 115.654 341.796 115.146C342.478 114.639 343.45 114.385 344.712 114.385H348.455V113.601C348.455 112.615 348.23 111.933 347.78 111.556C347.345 111.179 346.685 110.99 345.8 110.99C344.973 110.99 344.371 111.15 343.994 111.469C343.617 111.774 343.406 112.122 343.363 112.513H341.448C341.477 112.049 341.6 111.621 341.818 111.23C342.05 110.823 342.354 110.475 342.732 110.185C343.123 109.895 343.588 109.67 344.124 109.511C344.661 109.336 345.256 109.249 345.909 109.249C347.272 109.249 348.353 109.576 349.151 110.229C349.963 110.867 350.37 111.919 350.37 113.384V118.062C350.37 118.672 350.37 119.208 350.37 119.673C350.384 120.122 350.42 120.565 350.478 121H348.803C348.759 120.666 348.73 120.354 348.716 120.064C348.701 119.76 348.694 119.419 348.694 119.042C348.389 119.651 347.896 120.166 347.214 120.587C346.532 121.007 345.706 121.218 344.734 121.218ZM345.147 119.477C345.597 119.477 346.017 119.419 346.409 119.303C346.815 119.172 347.171 118.991 347.475 118.759C347.78 118.512 348.019 118.215 348.194 117.867C348.368 117.518 348.455 117.112 348.455 116.648V115.865H345.038C344.327 115.865 343.769 116.01 343.363 116.3C342.957 116.575 342.753 117.018 342.753 117.627C342.753 118.164 342.942 118.606 343.319 118.955C343.711 119.303 344.32 119.477 345.147 119.477ZM353.752 109.467H355.667V114.298H357.19L361.498 109.467H363.762L358.757 114.994L363.979 121H361.542L357.19 115.952H355.667V121H353.752V109.467ZM370.63 121.218C369.891 121.218 369.187 121.102 368.52 120.869C367.852 120.637 367.265 120.282 366.757 119.803C366.249 119.31 365.843 118.693 365.539 117.954C365.234 117.214 365.082 116.343 365.082 115.342V114.907C365.082 113.95 365.227 113.123 365.517 112.426C365.807 111.716 366.191 111.128 366.67 110.664C367.163 110.185 367.729 109.83 368.367 109.598C369.02 109.365 369.702 109.249 370.413 109.249C372.11 109.249 373.423 109.714 374.351 110.642C375.28 111.571 375.744 112.883 375.744 114.581V115.799H366.996C366.996 116.481 367.105 117.054 367.323 117.518C367.541 117.983 367.823 118.36 368.172 118.65C368.52 118.94 368.904 119.15 369.325 119.281C369.76 119.411 370.195 119.477 370.63 119.477C371.501 119.477 372.168 119.332 372.632 119.042C373.111 118.751 373.452 118.352 373.655 117.845H375.527C375.41 118.396 375.2 118.882 374.896 119.303C374.605 119.723 374.243 120.079 373.807 120.369C373.387 120.645 372.901 120.855 372.35 121C371.813 121.145 371.24 121.218 370.63 121.218ZM370.522 110.99C370.072 110.99 369.637 111.056 369.216 111.186C368.795 111.302 368.418 111.498 368.085 111.774C367.765 112.035 367.504 112.368 367.301 112.775C367.098 113.181 366.996 113.667 366.996 114.233H373.938C373.924 113.638 373.822 113.137 373.633 112.731C373.459 112.31 373.22 111.977 372.915 111.73C372.611 111.469 372.248 111.28 371.827 111.164C371.421 111.048 370.986 110.99 370.522 110.99ZM380.886 111.164H376.948V109.467H386.74V111.164H382.801V121H380.886V111.164ZM388.921 109.467H390.836V113.819H393.164C394.615 113.819 395.681 114.138 396.363 114.777C397.059 115.415 397.408 116.3 397.408 117.431C397.408 118.534 397.059 119.404 396.363 120.043C395.681 120.681 394.615 121 393.164 121H388.921V109.467ZM393.056 119.303C393.955 119.303 394.586 119.143 394.949 118.824C395.311 118.505 395.493 118.033 395.493 117.41C395.493 116.786 395.311 116.314 394.949 115.995C394.586 115.676 393.955 115.516 393.056 115.516H390.836V119.303H393.056ZM399.192 109.467H401.107V121H399.192V109.467ZM410.023 109.467H415.028C416.449 109.467 417.494 109.764 418.161 110.359C418.828 110.939 419.162 111.694 419.162 112.622C419.162 112.869 419.118 113.123 419.031 113.384C418.944 113.63 418.821 113.863 418.662 114.08C418.516 114.298 418.335 114.486 418.118 114.646C417.914 114.806 417.682 114.929 417.421 115.016C418.132 115.19 418.669 115.524 419.031 116.017C419.409 116.496 419.597 117.061 419.597 117.714C419.597 118.715 419.264 119.513 418.596 120.108C417.929 120.703 416.884 121 415.463 121H410.023V109.467ZM415.463 119.303C416.275 119.303 416.848 119.158 417.182 118.867C417.515 118.577 417.682 118.164 417.682 117.627C417.682 117.076 417.515 116.655 417.182 116.365C416.848 116.06 416.275 115.908 415.463 115.908H411.938V119.303H415.463ZM415.028 114.341C415.854 114.341 416.427 114.196 416.747 113.906C417.08 113.616 417.247 113.217 417.247 112.709C417.247 112.231 417.08 111.853 416.747 111.578C416.427 111.302 415.854 111.164 415.028 111.164H411.938V114.341H415.028ZM422.327 109.467H424.242V118.171L430.204 109.467H432.119V121H430.204V112.296L424.242 121H422.327V109.467ZM434.302 119.303H435.717C435.876 119.085 436.022 118.751 436.152 118.302C436.283 117.852 436.399 117.323 436.5 116.713C436.602 116.104 436.674 115.444 436.718 114.733C436.776 114.008 436.805 113.268 436.805 112.513V109.467H444.856V119.303H446.488V123.72H444.66V121H436.13V123.72H434.302V119.303ZM442.941 119.303V111.164H438.676V112.949C438.676 113.558 438.655 114.167 438.611 114.777C438.567 115.371 438.502 115.944 438.415 116.496C438.328 117.032 438.219 117.547 438.089 118.041C437.973 118.519 437.835 118.94 437.675 119.303H442.941ZM453.571 121.218C452.831 121.218 452.127 121.102 451.46 120.869C450.792 120.637 450.205 120.282 449.697 119.803C449.189 119.31 448.783 118.693 448.479 117.954C448.174 117.214 448.022 116.343 448.022 115.342V114.907C448.022 113.95 448.167 113.123 448.457 112.426C448.747 111.716 449.131 111.128 449.61 110.664C450.103 110.185 450.669 109.83 451.307 109.598C451.96 109.365 452.642 109.249 453.353 109.249C455.05 109.249 456.363 109.714 457.292 110.642C458.22 111.571 458.684 112.883 458.684 114.581V115.799H449.937C449.937 116.481 450.045 117.054 450.263 117.518C450.481 117.983 450.763 118.36 451.112 118.65C451.46 118.94 451.844 119.15 452.265 119.281C452.7 119.411 453.135 119.477 453.571 119.477C454.441 119.477 455.108 119.332 455.573 119.042C456.051 118.751 456.392 118.352 456.595 117.845H458.467C458.351 118.396 458.14 118.882 457.836 119.303C457.545 119.723 457.183 120.079 456.748 120.369C456.327 120.645 455.841 120.855 455.29 121C454.753 121.145 454.18 121.218 453.571 121.218ZM453.462 110.99C453.012 110.99 452.577 111.056 452.156 111.186C451.735 111.302 451.358 111.498 451.025 111.774C450.705 112.035 450.444 112.368 450.241 112.775C450.038 113.181 449.937 113.667 449.937 114.233H456.878C456.864 113.638 456.762 113.137 456.573 112.731C456.399 112.31 456.16 111.977 455.855 111.73C455.551 111.469 455.188 111.28 454.767 111.164C454.361 111.048 453.926 110.99 453.462 110.99ZM466.193 121.218C465.453 121.218 464.75 121.102 464.083 120.869C463.415 120.623 462.828 120.26 462.32 119.781C461.812 119.288 461.406 118.672 461.101 117.932C460.797 117.192 460.644 116.329 460.644 115.342V114.907C460.644 113.979 460.797 113.159 461.101 112.448C461.406 111.737 461.812 111.15 462.32 110.686C462.828 110.207 463.415 109.851 464.083 109.619C464.75 109.373 465.453 109.249 466.193 109.249C466.933 109.249 467.637 109.373 468.304 109.619C468.971 109.851 469.559 110.207 470.067 110.686C470.574 111.15 470.981 111.737 471.285 112.448C471.59 113.159 471.742 113.979 471.742 114.907V115.342C471.742 116.329 471.59 117.192 471.285 117.932C470.981 118.672 470.574 119.288 470.067 119.781C469.559 120.26 468.971 120.623 468.304 120.869C467.637 121.102 466.933 121.218 466.193 121.218ZM466.193 119.477C466.628 119.477 467.064 119.404 467.499 119.259C467.934 119.1 468.319 118.86 468.652 118.541C468.986 118.207 469.254 117.779 469.457 117.257C469.675 116.735 469.784 116.097 469.784 115.342V114.907C469.784 114.211 469.675 113.616 469.457 113.123C469.254 112.63 468.986 112.223 468.652 111.904C468.319 111.585 467.934 111.353 467.499 111.208C467.064 111.063 466.628 110.99 466.193 110.99C465.758 110.99 465.323 111.063 464.888 111.208C464.452 111.353 464.068 111.585 463.734 111.904C463.401 112.223 463.125 112.63 462.907 113.123C462.704 113.616 462.603 114.211 462.603 114.907V115.342C462.603 116.097 462.704 116.735 462.907 117.257C463.125 117.779 463.401 118.207 463.734 118.541C464.068 118.86 464.452 119.1 464.888 119.259C465.323 119.404 465.758 119.477 466.193 119.477ZM472.936 119.303H474.35C474.51 119.085 474.655 118.751 474.785 118.302C474.916 117.852 475.032 117.323 475.133 116.713C475.235 116.104 475.307 115.444 475.351 114.733C475.409 114.008 475.438 113.268 475.438 112.513V109.467H483.489V119.303H485.121V123.72H483.293V121H474.763V123.72H472.936V119.303ZM481.574 119.303V111.164H477.309V112.949C477.309 113.558 477.288 114.167 477.244 114.777C477.201 115.371 477.135 115.944 477.048 116.496C476.961 117.032 476.852 117.547 476.722 118.041C476.606 118.519 476.468 118.94 476.308 119.303H481.574ZM490.915 121.218C490.276 121.218 489.711 121.131 489.217 120.956C488.739 120.768 488.332 120.514 487.999 120.195C487.665 119.876 487.411 119.499 487.237 119.063C487.063 118.628 486.976 118.149 486.976 117.627C486.976 116.481 487.31 115.654 487.977 115.146C488.659 114.639 489.631 114.385 490.893 114.385H494.636V113.601C494.636 112.615 494.411 111.933 493.961 111.556C493.526 111.179 492.866 110.99 491.981 110.99C491.154 110.99 490.552 111.15 490.175 111.469C489.798 111.774 489.587 112.122 489.544 112.513H487.629C487.658 112.049 487.781 111.621 487.999 111.23C488.231 110.823 488.536 110.475 488.913 110.185C489.304 109.895 489.769 109.67 490.305 109.511C490.842 109.336 491.437 109.249 492.09 109.249C493.453 109.249 494.534 109.576 495.332 110.229C496.144 110.867 496.551 111.919 496.551 113.384V118.062C496.551 118.672 496.551 119.208 496.551 119.673C496.565 120.122 496.601 120.565 496.659 121H494.984C494.94 120.666 494.911 120.354 494.897 120.064C494.882 119.76 494.875 119.419 494.875 119.042C494.57 119.651 494.077 120.166 493.395 120.587C492.714 121.007 491.887 121.218 490.915 121.218ZM491.328 119.477C491.778 119.477 492.199 119.419 492.59 119.303C492.996 119.172 493.352 118.991 493.657 118.759C493.961 118.512 494.201 118.215 494.375 117.867C494.549 117.518 494.636 117.112 494.636 116.648V115.865H491.219C490.509 115.865 489.95 116.01 489.544 116.3C489.138 116.575 488.935 117.018 488.935 117.627C488.935 118.164 489.123 118.606 489.5 118.955C489.892 119.303 490.501 119.477 491.328 119.477ZM499.933 109.467H501.848V114.276H507.81V109.467H509.725V121H507.81V115.973H501.848V121H499.933V109.467ZM513.214 109.467H515.129V114.276H521.092V109.467H523.006V121H521.092V115.973H515.129V121H513.214V109.467ZM526.496 109.467H528.411V113.819H530.739C532.19 113.819 533.256 114.138 533.938 114.777C534.634 115.415 534.982 116.3 534.982 117.431C534.982 118.534 534.634 119.404 533.938 120.043C533.256 120.681 532.19 121 530.739 121H526.496V109.467ZM530.63 119.303C531.53 119.303 532.161 119.143 532.523 118.824C532.886 118.505 533.067 118.033 533.067 117.41C533.067 116.786 532.886 116.314 532.523 115.995C532.161 115.676 531.53 115.516 530.63 115.516H528.411V119.303H530.63ZM536.767 109.467H538.682V121H536.767V109.467ZM545.291 115.146L541.178 109.467H543.398L546.444 113.667L549.491 109.467H551.623L547.51 115.038L551.841 121H549.578L546.357 116.496L543.137 121H540.96L545.291 115.146Z" fill="black"/>
<path d="M225.588 154.678H231.029C231.943 154.678 232.726 154.779 233.379 154.983C234.031 155.186 234.568 155.469 234.989 155.831C235.424 156.179 235.743 156.607 235.946 157.115C236.15 157.608 236.251 158.152 236.251 158.747C236.251 159.53 236.033 160.205 235.598 160.771C235.163 161.322 234.626 161.721 233.988 161.968C234.887 162.171 235.598 162.584 236.12 163.208C236.643 163.817 236.904 164.615 236.904 165.602C236.904 166.225 236.802 166.798 236.599 167.321C236.396 167.843 236.077 168.3 235.642 168.692C235.207 169.069 234.641 169.366 233.944 169.584C233.263 169.801 232.436 169.91 231.464 169.91H225.588V154.678ZM231.464 168.126C232.117 168.126 232.661 168.068 233.096 167.952C233.531 167.821 233.879 167.647 234.14 167.429C234.401 167.197 234.583 166.922 234.684 166.603C234.8 166.283 234.858 165.928 234.858 165.536C234.858 165.145 234.8 164.789 234.684 164.47C234.583 164.136 234.401 163.861 234.14 163.643C233.879 163.411 233.524 163.237 233.074 163.121C232.639 162.99 232.095 162.925 231.442 162.925H227.634V168.126H231.464ZM231.029 161.228C231.638 161.228 232.146 161.17 232.552 161.054C232.958 160.938 233.284 160.771 233.531 160.553C233.778 160.336 233.952 160.082 234.053 159.792C234.155 159.501 234.206 159.182 234.206 158.834C234.206 158.486 234.155 158.167 234.053 157.877C233.952 157.572 233.778 157.318 233.531 157.115C233.284 156.912 232.958 156.752 232.552 156.636C232.146 156.52 231.638 156.462 231.029 156.462H227.634V161.228H231.029ZM239.731 158.377H241.646V167.081L247.608 158.377H249.523V169.91H247.608V161.206L241.646 169.91H239.731V158.377ZM251.707 168.213H253.121C253.281 167.995 253.426 167.662 253.556 167.212C253.687 166.762 253.803 166.233 253.905 165.623C254.006 165.014 254.079 164.354 254.122 163.643C254.18 162.918 254.209 162.178 254.209 161.424V158.377H262.261V168.213H263.893V172.63H262.065V169.91H253.535V172.63H251.707V168.213ZM260.346 168.213V160.074H256.081V161.859C256.081 162.468 256.059 163.077 256.015 163.687C255.972 164.281 255.907 164.855 255.82 165.406C255.733 165.943 255.624 166.458 255.493 166.951C255.377 167.429 255.239 167.85 255.08 168.213H260.346ZM270.975 170.128C270.235 170.128 269.532 170.012 268.864 169.78C268.197 169.547 267.609 169.192 267.102 168.713C266.594 168.22 266.188 167.604 265.883 166.864C265.578 166.124 265.426 165.253 265.426 164.252V163.817C265.426 162.86 265.571 162.033 265.861 161.337C266.151 160.626 266.536 160.038 267.015 159.574C267.508 159.095 268.074 158.74 268.712 158.508C269.365 158.276 270.047 158.16 270.757 158.16C272.455 158.16 273.768 158.624 274.696 159.552C275.624 160.481 276.089 161.794 276.089 163.491V164.709H267.341C267.341 165.391 267.45 165.964 267.667 166.429C267.885 166.893 268.168 167.27 268.516 167.56C268.864 167.85 269.249 168.061 269.669 168.191C270.105 168.322 270.54 168.387 270.975 168.387C271.845 168.387 272.513 168.242 272.977 167.952C273.456 167.662 273.797 167.263 274 166.755H275.871C275.755 167.306 275.545 167.792 275.24 168.213C274.95 168.634 274.587 168.989 274.152 169.279C273.731 169.555 273.245 169.765 272.694 169.91C272.157 170.055 271.584 170.128 270.975 170.128ZM270.866 159.9C270.416 159.9 269.981 159.966 269.561 160.096C269.14 160.212 268.763 160.408 268.429 160.684C268.11 160.945 267.849 161.279 267.646 161.685C267.443 162.091 267.341 162.577 267.341 163.143H274.283C274.268 162.548 274.166 162.047 273.978 161.641C273.804 161.221 273.564 160.887 273.26 160.64C272.955 160.379 272.592 160.191 272.172 160.074C271.766 159.958 271.33 159.9 270.866 159.9ZM283.598 170.128C282.858 170.128 282.154 170.012 281.487 169.78C280.82 169.533 280.232 169.17 279.724 168.692C279.217 168.198 278.81 167.582 278.506 166.842C278.201 166.102 278.049 165.239 278.049 164.252V163.817C278.049 162.889 278.201 162.069 278.506 161.358C278.81 160.648 279.217 160.06 279.724 159.596C280.232 159.117 280.82 158.762 281.487 158.529C282.154 158.283 282.858 158.16 283.598 158.16C284.338 158.16 285.041 158.283 285.708 158.529C286.376 158.762 286.963 159.117 287.471 159.596C287.979 160.06 288.385 160.648 288.69 161.358C288.994 162.069 289.147 162.889 289.147 163.817V164.252C289.147 165.239 288.994 166.102 288.69 166.842C288.385 167.582 287.979 168.198 287.471 168.692C286.963 169.17 286.376 169.533 285.708 169.78C285.041 170.012 284.338 170.128 283.598 170.128ZM283.598 168.387C284.033 168.387 284.468 168.314 284.903 168.169C285.338 168.01 285.723 167.77 286.057 167.451C286.39 167.118 286.659 166.69 286.862 166.167C287.079 165.645 287.188 165.007 287.188 164.252V163.817C287.188 163.121 287.079 162.526 286.862 162.033C286.659 161.54 286.39 161.133 286.057 160.814C285.723 160.495 285.338 160.263 284.903 160.118C284.468 159.973 284.033 159.9 283.598 159.9C283.162 159.9 282.727 159.973 282.292 160.118C281.857 160.263 281.472 160.495 281.139 160.814C280.805 161.133 280.529 161.54 280.312 162.033C280.109 162.526 280.007 163.121 280.007 163.817V164.252C280.007 165.007 280.109 165.645 280.312 166.167C280.529 166.69 280.805 167.118 281.139 167.451C281.472 167.77 281.857 168.01 282.292 168.169C282.727 168.314 283.162 168.387 283.598 168.387ZM297.298 158.377H299.213V163.208H300.736L305.045 158.377H307.308L302.303 163.904L307.526 169.91H305.088L300.736 164.862H299.213V169.91H297.298V158.377ZM312.888 170.128C312.25 170.128 311.684 170.041 311.191 169.867C310.712 169.678 310.306 169.424 309.972 169.105C309.638 168.786 309.385 168.409 309.21 167.973C309.036 167.538 308.949 167.06 308.949 166.537C308.949 165.391 309.283 164.564 309.95 164.057C310.632 163.549 311.604 163.295 312.866 163.295H316.609V162.512C316.609 161.525 316.384 160.843 315.934 160.466C315.499 160.089 314.839 159.9 313.954 159.9C313.127 159.9 312.525 160.06 312.148 160.379C311.771 160.684 311.561 161.032 311.517 161.424H309.602C309.631 160.959 309.754 160.531 309.972 160.14C310.204 159.734 310.509 159.385 310.886 159.095C311.278 158.805 311.742 158.58 312.279 158.421C312.815 158.247 313.41 158.16 314.063 158.16C315.427 158.16 316.507 158.486 317.305 159.139C318.118 159.777 318.524 160.829 318.524 162.294V166.973C318.524 167.582 318.524 168.119 318.524 168.583C318.538 169.032 318.575 169.475 318.633 169.91H316.957C316.914 169.576 316.885 169.265 316.87 168.974C316.856 168.67 316.848 168.329 316.848 167.952C316.544 168.561 316.05 169.076 315.369 169.497C314.687 169.917 313.86 170.128 312.888 170.128ZM313.301 168.387C313.751 168.387 314.172 168.329 314.563 168.213C314.97 168.082 315.325 167.901 315.63 167.669C315.934 167.422 316.174 167.125 316.348 166.777C316.522 166.429 316.609 166.022 316.609 165.558V164.775H313.193C312.482 164.775 311.923 164.92 311.517 165.21C311.111 165.486 310.908 165.928 310.908 166.537C310.908 167.074 311.096 167.517 311.474 167.865C311.865 168.213 312.474 168.387 313.301 168.387ZM320.6 168.213H322.015C322.174 167.995 322.32 167.662 322.45 167.212C322.581 166.762 322.697 166.233 322.798 165.623C322.9 165.014 322.972 164.354 323.016 163.643C323.074 162.918 323.103 162.178 323.103 161.424V158.377H331.154V168.213H332.786V172.63H330.958V169.91H322.428V172.63H320.6V168.213ZM329.239 168.213V160.074H324.974V161.859C324.974 162.468 324.953 163.077 324.909 163.687C324.865 164.281 324.8 164.855 324.713 165.406C324.626 165.943 324.517 166.458 324.387 166.951C324.271 167.429 324.133 167.85 323.973 168.213H329.239ZM335.081 158.377H336.866V160.553C337.257 159.784 337.801 159.197 338.498 158.791C339.209 158.37 340.028 158.16 340.957 158.16C342.407 158.16 343.568 158.638 344.438 159.596C345.309 160.539 345.744 161.946 345.744 163.817V164.252C345.744 165.239 345.628 166.102 345.396 166.842C345.164 167.567 344.837 168.177 344.416 168.67C343.996 169.149 343.488 169.511 342.893 169.758C342.313 170.004 341.667 170.128 340.957 170.128C339.97 170.128 339.143 169.91 338.476 169.475C337.823 169.04 337.33 168.496 336.996 167.843V174.262H335.081V158.377ZM340.521 168.43C340.986 168.43 341.421 168.343 341.827 168.169C342.233 167.981 342.581 167.712 342.871 167.364C343.176 167.016 343.408 166.581 343.568 166.059C343.742 165.536 343.829 164.934 343.829 164.252V163.817C343.829 163.193 343.742 162.635 343.568 162.142C343.408 161.648 343.176 161.235 342.871 160.901C342.581 160.553 342.233 160.292 341.827 160.118C341.421 159.944 340.986 159.857 340.521 159.857C339.999 159.857 339.52 159.944 339.085 160.118C338.65 160.278 338.28 160.51 337.975 160.814C337.671 161.104 337.431 161.453 337.257 161.859C337.083 162.265 336.996 162.7 336.996 163.164V164.905C336.996 165.428 337.083 165.906 337.257 166.341C337.431 166.777 337.671 167.147 337.975 167.451C338.28 167.756 338.65 167.995 339.085 168.169C339.52 168.343 339.999 168.43 340.521 168.43Z" fill="black"/>
<path d="M388.018 154.678H393.458C394.372 154.678 395.156 154.779 395.808 154.983C396.461 155.186 396.998 155.469 397.419 155.831C397.854 156.179 398.173 156.607 398.376 157.115C398.579 157.608 398.681 158.152 398.681 158.747C398.681 159.53 398.463 160.205 398.028 160.771C397.593 161.322 397.056 161.721 396.418 161.968C397.317 162.171 398.028 162.584 398.55 163.208C399.072 163.817 399.334 164.615 399.334 165.602C399.334 166.225 399.232 166.798 399.029 167.321C398.826 167.843 398.507 168.3 398.071 168.692C397.636 169.069 397.07 169.366 396.374 169.584C395.692 169.801 394.865 169.91 393.893 169.91H388.018V154.678ZM393.893 168.126C394.546 168.126 395.09 168.068 395.525 167.952C395.961 167.821 396.309 167.647 396.57 167.429C396.831 167.197 397.012 166.922 397.114 166.603C397.23 166.283 397.288 165.928 397.288 165.536C397.288 165.145 397.23 164.789 397.114 164.47C397.012 164.136 396.831 163.861 396.57 163.643C396.309 163.411 395.953 163.237 395.504 163.121C395.069 162.99 394.525 162.925 393.872 162.925H390.064V168.126H393.893ZM393.458 161.228C394.068 161.228 394.575 161.17 394.981 161.054C395.388 160.938 395.714 160.771 395.961 160.553C396.207 160.336 396.381 160.082 396.483 159.792C396.584 159.501 396.635 159.182 396.635 158.834C396.635 158.486 396.584 158.167 396.483 157.877C396.381 157.572 396.207 157.318 395.961 157.115C395.714 156.912 395.388 156.752 394.981 156.636C394.575 156.52 394.068 156.462 393.458 156.462H390.064V161.228H393.458ZM402.161 158.377H404.076V167.081L410.038 158.377H411.953V169.91H410.038V161.206L404.076 169.91H402.161V158.377ZM414.137 168.213H415.551C415.711 167.995 415.856 167.662 415.986 167.212C416.117 166.762 416.233 166.233 416.334 165.623C416.436 165.014 416.508 164.354 416.552 163.643C416.61 162.918 416.639 162.178 416.639 161.424V158.377H424.69V168.213H426.322V172.63H424.494V169.91H415.964V172.63H414.137V168.213ZM422.775 168.213V160.074H418.51V161.859C418.51 162.468 418.489 163.077 418.445 163.687C418.402 164.281 418.336 164.855 418.249 165.406C418.162 165.943 418.053 166.458 417.923 166.951C417.807 167.429 417.669 167.85 417.509 168.213H422.775ZM433.405 170.128C432.665 170.128 431.961 170.012 431.294 169.78C430.627 169.547 430.039 169.192 429.531 168.713C429.024 168.22 428.617 167.604 428.313 166.864C428.008 166.124 427.856 165.253 427.856 164.252V163.817C427.856 162.86 428.001 162.033 428.291 161.337C428.581 160.626 428.966 160.038 429.444 159.574C429.937 159.095 430.503 158.74 431.142 158.508C431.794 158.276 432.476 158.16 433.187 158.16C434.884 158.16 436.197 158.624 437.126 159.552C438.054 160.481 438.518 161.794 438.518 163.491V164.709H429.771C429.771 165.391 429.879 165.964 430.097 166.429C430.315 166.893 430.598 167.27 430.946 167.56C431.294 167.85 431.678 168.061 432.099 168.191C432.534 168.322 432.969 168.387 433.405 168.387C434.275 168.387 434.942 168.242 435.407 167.952C435.885 167.662 436.226 167.263 436.429 166.755H438.301C438.185 167.306 437.974 167.792 437.67 168.213C437.38 168.634 437.017 168.989 436.582 169.279C436.161 169.555 435.675 169.765 435.124 169.91C434.587 170.055 434.014 170.128 433.405 170.128ZM433.296 159.9C432.846 159.9 432.411 159.966 431.99 160.096C431.57 160.212 431.192 160.408 430.859 160.684C430.54 160.945 430.278 161.279 430.075 161.685C429.872 162.091 429.771 162.577 429.771 163.143H436.712C436.698 162.548 436.596 162.047 436.408 161.641C436.233 161.221 435.994 160.887 435.689 160.64C435.385 160.379 435.022 160.191 434.601 160.074C434.195 159.958 433.76 159.9 433.296 159.9ZM446.027 170.128C445.287 170.128 444.584 170.012 443.917 169.78C443.249 169.533 442.662 169.17 442.154 168.692C441.646 168.198 441.24 167.582 440.935 166.842C440.631 166.102 440.478 165.239 440.478 164.252V163.817C440.478 162.889 440.631 162.069 440.935 161.358C441.24 160.648 441.646 160.06 442.154 159.596C442.662 159.117 443.249 158.762 443.917 158.529C444.584 158.283 445.287 158.16 446.027 158.16C446.767 158.16 447.471 158.283 448.138 158.529C448.805 158.762 449.393 159.117 449.901 159.596C450.408 160.06 450.815 160.648 451.119 161.358C451.424 162.069 451.576 162.889 451.576 163.817V164.252C451.576 165.239 451.424 166.102 451.119 166.842C450.815 167.582 450.408 168.198 449.901 168.692C449.393 169.17 448.805 169.533 448.138 169.78C447.471 170.012 446.767 170.128 446.027 170.128ZM446.027 168.387C446.463 168.387 446.898 168.314 447.333 168.169C447.768 168.01 448.153 167.77 448.486 167.451C448.82 167.118 449.088 166.69 449.291 166.167C449.509 165.645 449.618 165.007 449.618 164.252V163.817C449.618 163.121 449.509 162.526 449.291 162.033C449.088 161.54 448.82 161.133 448.486 160.814C448.153 160.495 447.768 160.263 447.333 160.118C446.898 159.973 446.463 159.9 446.027 159.9C445.592 159.9 445.157 159.973 444.722 160.118C444.287 160.263 443.902 160.495 443.568 160.814C443.235 161.133 442.959 161.54 442.742 162.033C442.538 162.526 442.437 163.121 442.437 163.817V164.252C442.437 165.007 442.538 165.645 442.742 166.167C442.959 166.69 443.235 167.118 443.568 167.451C443.902 167.77 444.287 168.01 444.722 168.169C445.157 168.314 445.592 168.387 446.027 168.387ZM459.728 158.377H461.643V163.208H463.166L467.475 158.377H469.738L464.733 163.904L469.955 169.91H467.518L463.166 164.862H461.643V169.91H459.728V158.377ZM475.318 170.128C474.679 170.128 474.114 170.041 473.62 169.867C473.142 169.678 472.735 169.424 472.402 169.105C472.068 168.786 471.814 168.409 471.64 167.973C471.466 167.538 471.379 167.06 471.379 166.537C471.379 165.391 471.713 164.564 472.38 164.057C473.062 163.549 474.034 163.295 475.296 163.295H479.039V162.512C479.039 161.525 478.814 160.843 478.364 160.466C477.929 160.089 477.269 159.9 476.384 159.9C475.557 159.9 474.955 160.06 474.578 160.379C474.201 160.684 473.99 161.032 473.947 161.424H472.032C472.061 160.959 472.184 160.531 472.402 160.14C472.634 159.734 472.938 159.385 473.316 159.095C473.707 158.805 474.172 158.58 474.708 158.421C475.245 158.247 475.84 158.16 476.493 158.16C477.856 158.16 478.937 158.486 479.735 159.139C480.547 159.777 480.954 160.829 480.954 162.294V166.973C480.954 167.582 480.954 168.119 480.954 168.583C480.968 169.032 481.004 169.475 481.062 169.91H479.387C479.343 169.576 479.314 169.265 479.3 168.974C479.285 168.67 479.278 168.329 479.278 167.952C478.973 168.561 478.48 169.076 477.798 169.497C477.116 169.917 476.29 170.128 475.318 170.128ZM475.731 168.387C476.181 168.387 476.601 168.329 476.993 168.213C477.399 168.082 477.755 167.901 478.059 167.669C478.364 167.422 478.603 167.125 478.778 166.777C478.952 166.429 479.039 166.022 479.039 165.558V164.775H475.622C474.911 164.775 474.353 164.92 473.947 165.21C473.541 165.486 473.337 165.928 473.337 166.537C473.337 167.074 473.526 167.517 473.903 167.865C474.295 168.213 474.904 168.387 475.731 168.387ZM483.03 168.213H484.445C484.604 167.995 484.749 167.662 484.88 167.212C485.01 166.762 485.126 166.233 485.228 165.623C485.329 165.014 485.402 164.354 485.446 163.643C485.504 162.918 485.533 162.178 485.533 161.424V158.377H493.584V168.213H495.216V172.63H493.388V169.91H484.858V172.63H483.03V168.213ZM491.669 168.213V160.074H487.404V161.859C487.404 162.468 487.382 163.077 487.339 163.687C487.295 164.281 487.23 164.855 487.143 165.406C487.056 165.943 486.947 166.458 486.816 166.951C486.7 167.429 486.563 167.85 486.403 168.213H491.669ZM497.511 158.377H499.295V160.553C499.687 159.784 500.231 159.197 500.927 158.791C501.638 158.37 502.458 158.16 503.386 158.16C504.837 158.16 505.998 158.638 506.868 159.596C507.738 160.539 508.174 161.946 508.174 163.817V164.252C508.174 165.239 508.057 166.102 507.825 166.842C507.593 167.567 507.267 168.177 506.846 168.67C506.425 169.149 505.918 169.511 505.323 169.758C504.743 170.004 504.097 170.128 503.386 170.128C502.4 170.128 501.573 169.91 500.906 169.475C500.253 169.04 499.76 168.496 499.426 167.843V174.262H497.511V158.377ZM502.951 168.43C503.415 168.43 503.85 168.343 504.257 168.169C504.663 167.981 505.011 167.712 505.301 167.364C505.606 167.016 505.838 166.581 505.998 166.059C506.172 165.536 506.259 164.934 506.259 164.252V163.817C506.259 163.193 506.172 162.635 505.998 162.142C505.838 161.648 505.606 161.235 505.301 160.901C505.011 160.553 504.663 160.292 504.257 160.118C503.85 159.944 503.415 159.857 502.951 159.857C502.429 159.857 501.95 159.944 501.515 160.118C501.08 160.278 500.71 160.51 500.405 160.814C500.1 161.104 499.861 161.453 499.687 161.859C499.513 162.265 499.426 162.7 499.426 163.164V164.905C499.426 165.428 499.513 165.906 499.687 166.341C499.861 166.777 500.1 167.147 500.405 167.451C500.71 167.756 501.08 167.995 501.515 168.169C501.95 168.343 502.429 168.43 502.951 168.43Z" fill="black"/>
<path d="M546.879 154.678H552.32C553.234 154.678 554.017 154.779 554.67 154.983C555.323 155.186 555.859 155.469 556.28 155.831C556.715 156.179 557.034 156.607 557.237 157.115C557.441 157.608 557.542 158.152 557.542 158.747C557.542 159.53 557.324 160.205 556.889 160.771C556.454 161.322 555.917 161.721 555.279 161.968C556.178 162.171 556.889 162.584 557.412 163.208C557.934 163.817 558.195 164.615 558.195 165.602C558.195 166.225 558.093 166.798 557.89 167.321C557.687 167.843 557.368 168.3 556.933 168.692C556.498 169.069 555.932 169.366 555.235 169.584C554.554 169.801 553.727 169.91 552.755 169.91H546.879V154.678ZM552.755 168.126C553.408 168.126 553.952 168.068 554.387 167.952C554.822 167.821 555.17 167.647 555.431 167.429C555.692 167.197 555.874 166.922 555.975 166.603C556.091 166.283 556.149 165.928 556.149 165.536C556.149 165.145 556.091 164.789 555.975 164.47C555.874 164.136 555.692 163.861 555.431 163.643C555.17 163.411 554.815 163.237 554.365 163.121C553.93 162.99 553.386 162.925 552.733 162.925H548.925V168.126H552.755ZM552.32 161.228C552.929 161.228 553.437 161.17 553.843 161.054C554.249 160.938 554.575 160.771 554.822 160.553C555.069 160.336 555.243 160.082 555.344 159.792C555.446 159.501 555.497 159.182 555.497 158.834C555.497 158.486 555.446 158.167 555.344 157.877C555.243 157.572 555.069 157.318 554.822 157.115C554.575 156.912 554.249 156.752 553.843 156.636C553.437 156.52 552.929 156.462 552.32 156.462H548.925V161.228H552.32ZM561.022 158.377H562.937V167.081L568.899 158.377H570.814V169.91H568.899V161.206L562.937 169.91H561.022V158.377ZM572.998 168.213H574.412C574.572 167.995 574.717 167.662 574.847 167.212C574.978 166.762 575.094 166.233 575.196 165.623C575.297 165.014 575.37 164.354 575.413 163.643C575.471 162.918 575.5 162.178 575.5 161.424V158.377H583.552V168.213H585.184V172.63H583.356V169.91H574.826V172.63H572.998V168.213ZM581.637 168.213V160.074H577.372V161.859C577.372 162.468 577.35 163.077 577.306 163.687C577.263 164.281 577.198 164.855 577.111 165.406C577.024 165.943 576.915 166.458 576.784 166.951C576.668 167.429 576.53 167.85 576.371 168.213H581.637ZM592.266 170.128C591.526 170.128 590.823 170.012 590.155 169.78C589.488 169.547 588.9 169.192 588.393 168.713C587.885 168.22 587.479 167.604 587.174 166.864C586.869 166.124 586.717 165.253 586.717 164.252V163.817C586.717 162.86 586.862 162.033 587.152 161.337C587.442 160.626 587.827 160.038 588.306 159.574C588.799 159.095 589.365 158.74 590.003 158.508C590.656 158.276 591.338 158.16 592.048 158.16C593.746 158.16 595.059 158.624 595.987 159.552C596.915 160.481 597.38 161.794 597.38 163.491V164.709H588.632C588.632 165.391 588.741 165.964 588.958 166.429C589.176 166.893 589.459 167.27 589.807 167.56C590.155 167.85 590.54 168.061 590.96 168.191C591.396 168.322 591.831 168.387 592.266 168.387C593.136 168.387 593.804 168.242 594.268 167.952C594.747 167.662 595.088 167.263 595.291 166.755H597.162C597.046 167.306 596.836 167.792 596.531 168.213C596.241 168.634 595.878 168.989 595.443 169.279C595.022 169.555 594.536 169.765 593.985 169.91C593.448 170.055 592.875 170.128 592.266 170.128ZM592.157 159.9C591.707 159.9 591.272 159.966 590.852 160.096C590.431 160.212 590.054 160.408 589.72 160.684C589.401 160.945 589.14 161.279 588.937 161.685C588.734 162.091 588.632 162.577 588.632 163.143H595.574C595.559 162.548 595.457 162.047 595.269 161.641C595.095 161.221 594.855 160.887 594.551 160.64C594.246 160.379 593.883 160.191 593.463 160.074C593.057 159.958 592.621 159.9 592.157 159.9ZM604.889 170.128C604.149 170.128 603.445 170.012 602.778 169.78C602.111 169.533 601.523 169.17 601.015 168.692C600.508 168.198 600.101 167.582 599.797 166.842C599.492 166.102 599.34 165.239 599.34 164.252V163.817C599.34 162.889 599.492 162.069 599.797 161.358C600.101 160.648 600.508 160.06 601.015 159.596C601.523 159.117 602.111 158.762 602.778 158.529C603.445 158.283 604.149 158.16 604.889 158.16C605.629 158.16 606.332 158.283 606.999 158.529C607.667 158.762 608.254 159.117 608.762 159.596C609.27 160.06 609.676 160.648 609.981 161.358C610.285 162.069 610.438 162.889 610.438 163.817V164.252C610.438 165.239 610.285 166.102 609.981 166.842C609.676 167.582 609.27 168.198 608.762 168.692C608.254 169.17 607.667 169.533 606.999 169.78C606.332 170.012 605.629 170.128 604.889 170.128ZM604.889 168.387C605.324 168.387 605.759 168.314 606.194 168.169C606.63 168.01 607.014 167.77 607.348 167.451C607.681 167.118 607.95 166.69 608.153 166.167C608.37 165.645 608.479 165.007 608.479 164.252V163.817C608.479 163.121 608.37 162.526 608.153 162.033C607.95 161.54 607.681 161.133 607.348 160.814C607.014 160.495 606.63 160.263 606.194 160.118C605.759 159.973 605.324 159.9 604.889 159.9C604.453 159.9 604.018 159.973 603.583 160.118C603.148 160.263 602.763 160.495 602.43 160.814C602.096 161.133 601.82 161.54 601.603 162.033C601.4 162.526 601.298 163.121 601.298 163.817V164.252C601.298 165.007 601.4 165.645 601.603 166.167C601.82 166.69 602.096 167.118 602.43 167.451C602.763 167.77 603.148 168.01 603.583 168.169C604.018 168.314 604.453 168.387 604.889 168.387ZM618.589 158.377H620.504V163.208H622.027L626.336 158.377H628.599L623.594 163.904L628.817 169.91H626.379L622.027 164.862H620.504V169.91H618.589V158.377ZM634.179 170.128C633.541 170.128 632.975 170.041 632.482 169.867C632.003 169.678 631.597 169.424 631.263 169.105C630.929 168.786 630.676 168.409 630.501 167.973C630.327 167.538 630.24 167.06 630.24 166.537C630.24 165.391 630.574 164.564 631.241 164.057C631.923 163.549 632.895 163.295 634.157 163.295H637.9V162.512C637.9 161.525 637.675 160.843 637.225 160.466C636.79 160.089 636.13 159.9 635.245 159.9C634.418 159.9 633.816 160.06 633.439 160.379C633.062 160.684 632.852 161.032 632.808 161.424H630.893C630.922 160.959 631.045 160.531 631.263 160.14C631.495 159.734 631.8 159.385 632.177 159.095C632.569 158.805 633.033 158.58 633.57 158.421C634.106 158.247 634.701 158.16 635.354 158.16C636.718 158.16 637.798 158.486 638.596 159.139C639.409 159.777 639.815 160.829 639.815 162.294V166.973C639.815 167.582 639.815 168.119 639.815 168.583C639.829 169.032 639.866 169.475 639.924 169.91H638.248C638.205 169.576 638.176 169.265 638.161 168.974C638.147 168.67 638.139 168.329 638.139 167.952C637.835 168.561 637.341 169.076 636.66 169.497C635.978 169.917 635.151 170.128 634.179 170.128ZM634.592 168.387C635.042 168.387 635.463 168.329 635.855 168.213C636.261 168.082 636.616 167.901 636.921 167.669C637.225 167.422 637.465 167.125 637.639 166.777C637.813 166.429 637.9 166.022 637.9 165.558V164.775H634.484C633.773 164.775 633.214 164.92 632.808 165.21C632.402 165.486 632.199 165.928 632.199 166.537C632.199 167.074 632.387 167.517 632.765 167.865C633.156 168.213 633.766 168.387 634.592 168.387ZM641.891 168.213H643.306C643.465 167.995 643.611 167.662 643.741 167.212C643.872 166.762 643.988 166.233 644.089 165.623C644.191 165.014 644.263 164.354 644.307 163.643C644.365 162.918 644.394 162.178 644.394 161.424V158.377H652.445V168.213H654.077V172.63H652.249V169.91H643.719V172.63H641.891V168.213ZM650.53 168.213V160.074H646.265V161.859C646.265 162.468 646.244 163.077 646.2 163.687C646.157 164.281 646.091 164.855 646.004 165.406C645.917 165.943 645.808 166.458 645.678 166.951C645.562 167.429 645.424 167.85 645.264 168.213H650.53ZM656.372 158.377H658.157V160.553C658.548 159.784 659.092 159.197 659.789 158.791C660.5 158.37 661.319 158.16 662.248 158.16C663.698 158.16 664.859 158.638 665.729 159.596C666.6 160.539 667.035 161.946 667.035 163.817V164.252C667.035 165.239 666.919 166.102 666.687 166.842C666.455 167.567 666.128 168.177 665.707 168.67C665.287 169.149 664.779 169.511 664.184 169.758C663.604 170.004 662.958 170.128 662.248 170.128C661.261 170.128 660.434 169.91 659.767 169.475C659.114 169.04 658.621 168.496 658.287 167.843V174.262H656.372V158.377ZM661.812 168.43C662.277 168.43 662.712 168.343 663.118 168.169C663.524 167.981 663.872 167.712 664.163 167.364C664.467 167.016 664.699 166.581 664.859 166.059C665.033 165.536 665.12 164.934 665.12 164.252V163.817C665.12 163.193 665.033 162.635 664.859 162.142C664.699 161.648 664.467 161.235 664.163 160.901C663.872 160.553 663.524 160.292 663.118 160.118C662.712 159.944 662.277 159.857 661.812 159.857C661.29 159.857 660.811 159.944 660.376 160.118C659.941 160.278 659.571 160.51 659.266 160.814C658.962 161.104 658.722 161.453 658.548 161.859C658.374 162.265 658.287 162.7 658.287 163.164V164.905C658.287 165.428 658.374 165.906 658.548 166.341C658.722 166.777 658.962 167.147 659.266 167.451C659.571 167.756 659.941 167.995 660.376 168.169C660.811 168.343 661.29 168.43 661.812 168.43Z" fill="black"/>
<path d="M101.197 189.126H104.831V177.919L101.197 180.509V178.289L104.874 175.678H106.92V189.126H109.901V190.91H101.197V189.126ZM118.743 187.233H110.997V185.666L118.526 175.678H120.789V185.448H122.747V187.233H120.789V190.91H118.743V187.233ZM118.743 185.448V178.072L113.173 185.448H118.743ZM130.589 191.128C129.849 191.128 129.145 191.004 128.478 190.758C127.825 190.511 127.252 190.091 126.759 189.496C126.266 188.886 125.874 188.081 125.584 187.08C125.294 186.065 125.149 184.803 125.149 183.294V182.859C125.149 181.452 125.294 180.277 125.584 179.334C125.874 178.391 126.266 177.636 126.759 177.071C127.252 176.49 127.825 176.077 128.478 175.83C129.145 175.584 129.849 175.46 130.589 175.46C131.328 175.46 132.025 175.584 132.678 175.83C133.345 176.077 133.925 176.49 134.418 177.071C134.912 177.636 135.303 178.391 135.593 179.334C135.884 180.277 136.029 181.452 136.029 182.859V183.294C136.029 184.803 135.884 186.065 135.593 187.08C135.303 188.081 134.912 188.886 134.418 189.496C133.925 190.091 133.345 190.511 132.678 190.758C132.025 191.004 131.328 191.128 130.589 191.128ZM130.589 189.343C131.038 189.343 131.466 189.264 131.872 189.104C132.293 188.93 132.656 188.625 132.96 188.19C133.28 187.74 133.526 187.124 133.7 186.34C133.889 185.557 133.983 184.542 133.983 183.294V182.859C133.983 181.727 133.889 180.799 133.7 180.074C133.526 179.348 133.28 178.775 132.96 178.354C132.656 177.934 132.293 177.644 131.872 177.484C131.466 177.324 131.038 177.245 130.589 177.245C130.124 177.245 129.689 177.324 129.283 177.484C128.877 177.644 128.514 177.934 128.195 178.354C127.89 178.775 127.644 179.348 127.455 180.074C127.281 180.799 127.194 181.727 127.194 182.859V183.294C127.194 184.542 127.281 185.557 127.455 186.34C127.644 187.124 127.89 187.74 128.195 188.19C128.514 188.625 128.877 188.93 129.283 189.104C129.689 189.264 130.124 189.343 130.589 189.343ZM144.083 191.128C143.343 191.128 142.639 191.004 141.972 190.758C141.319 190.511 140.746 190.091 140.253 189.496C139.76 188.886 139.368 188.081 139.078 187.08C138.788 186.065 138.642 184.803 138.642 183.294V182.859C138.642 181.452 138.788 180.277 139.078 179.334C139.368 178.391 139.76 177.636 140.253 177.071C140.746 176.49 141.319 176.077 141.972 175.83C142.639 175.584 143.343 175.46 144.083 175.46C144.822 175.46 145.519 175.584 146.172 175.83C146.839 176.077 147.419 176.49 147.912 177.071C148.406 177.636 148.797 178.391 149.087 179.334C149.378 180.277 149.523 181.452 149.523 182.859V183.294C149.523 184.803 149.378 186.065 149.087 187.08C148.797 188.081 148.406 188.886 147.912 189.496C147.419 190.091 146.839 190.511 146.172 190.758C145.519 191.004 144.822 191.128 144.083 191.128ZM144.083 189.343C144.532 189.343 144.96 189.264 145.366 189.104C145.787 188.93 146.15 188.625 146.454 188.19C146.774 187.74 147.02 187.124 147.194 186.34C147.383 185.557 147.477 184.542 147.477 183.294V182.859C147.477 181.727 147.383 180.799 147.194 180.074C147.02 179.348 146.774 178.775 146.454 178.354C146.15 177.934 145.787 177.644 145.366 177.484C144.96 177.324 144.532 177.245 144.083 177.245C143.618 177.245 143.183 177.324 142.777 177.484C142.371 177.644 142.008 177.934 141.689 178.354C141.384 178.775 141.138 179.348 140.949 180.074C140.775 180.799 140.688 181.727 140.688 182.859V183.294C140.688 184.542 140.775 185.557 140.949 186.34C141.138 187.124 141.384 187.74 141.689 188.19C142.008 188.625 142.371 188.93 142.777 189.104C143.183 189.264 143.618 189.343 144.083 189.343Z" fill="black"/>
<path d="M101.197 330.617H104.831V319.41L101.197 322V319.78L104.874 317.169H106.92V330.617H109.901V332.401H101.197V330.617ZM117.307 332.619C116.567 332.619 115.864 332.496 115.196 332.249C114.544 332.002 113.971 331.582 113.477 330.987C112.984 330.378 112.592 329.573 112.302 328.572C112.012 327.556 111.867 326.294 111.867 324.785V324.35C111.867 322.943 112.012 321.768 112.302 320.825C112.592 319.882 112.984 319.128 113.477 318.562C113.971 317.982 114.544 317.568 115.196 317.321C115.864 317.075 116.567 316.952 117.307 316.952C118.047 316.952 118.743 317.075 119.396 317.321C120.063 317.568 120.644 317.982 121.137 318.562C121.63 319.128 122.022 319.882 122.312 320.825C122.602 321.768 122.747 322.943 122.747 324.35V324.785C122.747 326.294 122.602 327.556 122.312 328.572C122.022 329.573 121.63 330.378 121.137 330.987C120.644 331.582 120.063 332.002 119.396 332.249C118.743 332.496 118.047 332.619 117.307 332.619ZM117.307 330.835C117.757 330.835 118.185 330.755 118.591 330.595C119.012 330.421 119.374 330.117 119.679 329.681C119.998 329.232 120.245 328.615 120.419 327.832C120.607 327.048 120.702 326.033 120.702 324.785V324.35C120.702 323.218 120.607 322.29 120.419 321.565C120.245 320.839 119.998 320.266 119.679 319.846C119.374 319.425 119.012 319.135 118.591 318.975C118.185 318.816 117.757 318.736 117.307 318.736C116.843 318.736 116.408 318.816 116.002 318.975C115.595 319.135 115.233 319.425 114.913 319.846C114.609 320.266 114.362 320.839 114.174 321.565C114 322.29 113.913 323.218 113.913 324.35V324.785C113.913 326.033 114 327.048 114.174 327.832C114.362 328.615 114.609 329.232 114.913 329.681C115.233 330.117 115.595 330.421 116.002 330.595C116.408 330.755 116.843 330.835 117.307 330.835ZM130.801 332.619C130.061 332.619 129.358 332.496 128.69 332.249C128.038 332.002 127.465 331.582 126.971 330.987C126.478 330.378 126.086 329.573 125.796 328.572C125.506 327.556 125.361 326.294 125.361 324.785V324.35C125.361 322.943 125.506 321.768 125.796 320.825C126.086 319.882 126.478 319.128 126.971 318.562C127.465 317.982 128.038 317.568 128.69 317.321C129.358 317.075 130.061 316.952 130.801 316.952C131.541 316.952 132.237 317.075 132.89 317.321C133.557 317.568 134.138 317.982 134.631 318.562C135.124 319.128 135.516 319.882 135.806 320.825C136.096 321.768 136.241 322.943 136.241 324.35V324.785C136.241 326.294 136.096 327.556 135.806 328.572C135.516 329.573 135.124 330.378 134.631 330.987C134.138 331.582 133.557 332.002 132.89 332.249C132.237 332.496 131.541 332.619 130.801 332.619ZM130.801 330.835C131.251 330.835 131.679 330.755 132.085 330.595C132.506 330.421 132.868 330.117 133.173 329.681C133.492 329.232 133.739 328.615 133.913 327.832C134.101 327.048 134.196 326.033 134.196 324.785V324.35C134.196 323.218 134.101 322.29 133.913 321.565C133.739 320.839 133.492 320.266 133.173 319.846C132.868 319.425 132.506 319.135 132.085 318.975C131.679 318.816 131.251 318.736 130.801 318.736C130.337 318.736 129.902 318.816 129.495 318.975C129.089 319.135 128.727 319.425 128.407 319.846C128.103 320.266 127.856 320.839 127.668 321.565C127.494 322.29 127.406 323.218 127.406 324.35V324.785C127.406 326.033 127.494 327.048 127.668 327.832C127.856 328.615 128.103 329.232 128.407 329.681C128.727 330.117 129.089 330.421 129.495 330.595C129.902 330.755 130.337 330.835 130.801 330.835ZM144.295 332.619C143.555 332.619 142.852 332.496 142.184 332.249C141.531 332.002 140.958 331.582 140.465 330.987C139.972 330.378 139.58 329.573 139.29 328.572C139 327.556 138.855 326.294 138.855 324.785V324.35C138.855 322.943 139 321.768 139.29 320.825C139.58 319.882 139.972 319.128 140.465 318.562C140.958 317.982 141.531 317.568 142.184 317.321C142.852 317.075 143.555 316.952 144.295 316.952C145.035 316.952 145.731 317.075 146.384 317.321C147.051 317.568 147.632 317.982 148.125 318.562C148.618 319.128 149.01 319.882 149.3 320.825C149.59 321.768 149.735 322.943 149.735 324.35V324.785C149.735 326.294 149.59 327.556 149.3 328.572C149.01 329.573 148.618 330.378 148.125 330.987C147.632 331.582 147.051 332.002 146.384 332.249C145.731 332.496 145.035 332.619 144.295 332.619ZM144.295 330.835C144.745 330.835 145.173 330.755 145.579 330.595C146 330.421 146.362 330.117 146.667 329.681C146.986 329.232 147.233 328.615 147.407 327.832C147.595 327.048 147.69 326.033 147.69 324.785V324.35C147.69 323.218 147.595 322.29 147.407 321.565C147.233 320.839 146.986 320.266 146.667 319.846C146.362 319.425 146 319.135 145.579 318.975C145.173 318.816 144.745 318.736 144.295 318.736C143.831 318.736 143.396 318.816 142.989 318.975C142.583 319.135 142.221 319.425 141.901 319.846C141.597 320.266 141.35 320.839 141.162 321.565C140.987 322.29 140.9 323.218 140.9 324.35V324.785C140.9 326.033 140.987 327.048 141.162 327.832C141.35 328.615 141.597 329.232 141.901 329.681C142.221 330.117 142.583 330.421 142.989 330.595C143.396 330.755 143.831 330.835 144.295 330.835Z" fill="black"/>
<path d="M106.855 474.11C106.013 474.11 105.251 473.972 104.57 473.697C103.888 473.421 103.3 473 102.807 472.435C102.328 471.854 101.958 471.129 101.697 470.259C101.436 469.388 101.306 468.351 101.306 467.147V466.712C101.306 465.217 101.458 463.948 101.763 462.904C102.067 461.845 102.481 460.989 103.003 460.336C103.525 459.669 104.134 459.19 104.831 458.9C105.527 458.595 106.274 458.443 107.072 458.443C108.247 458.443 109.234 458.726 110.032 459.291C110.844 459.843 111.381 460.684 111.642 461.816H109.596C109.19 460.786 108.349 460.271 107.072 460.271C106.521 460.271 106.013 460.365 105.549 460.553C105.085 460.742 104.678 461.054 104.33 461.489C103.997 461.924 103.728 462.505 103.525 463.23C103.322 463.955 103.206 464.862 103.177 465.95C103.38 465.602 103.627 465.304 103.917 465.058C104.207 464.797 104.519 464.594 104.853 464.449C105.201 464.289 105.556 464.173 105.919 464.1C106.281 464.028 106.63 463.992 106.963 463.992C108.487 463.992 109.698 464.42 110.597 465.275C111.511 466.117 111.968 467.328 111.968 468.909V469.127C111.968 469.852 111.83 470.52 111.555 471.129C111.294 471.738 110.931 472.268 110.467 472.718C110.003 473.153 109.458 473.494 108.835 473.74C108.211 473.987 107.551 474.11 106.855 474.11ZM106.68 472.282C107.739 472.282 108.545 472.014 109.096 471.477C109.647 470.94 109.923 470.164 109.923 469.149V468.931C109.923 467.93 109.647 467.161 109.096 466.625C108.545 466.088 107.739 465.819 106.68 465.819C105.621 465.819 104.816 466.088 104.265 466.625C103.714 467.161 103.438 467.93 103.438 468.931V469.149C103.438 470.15 103.714 470.926 104.265 471.477C104.816 472.014 105.621 472.282 106.68 472.282ZM119.921 474.11C119.181 474.11 118.477 473.987 117.81 473.74C117.157 473.494 116.584 473.073 116.091 472.478C115.598 471.869 115.206 471.064 114.916 470.063C114.626 469.047 114.481 467.785 114.481 466.276V465.841C114.481 464.434 114.626 463.259 114.916 462.316C115.206 461.373 115.598 460.619 116.091 460.053C116.584 459.473 117.157 459.059 117.81 458.813C118.477 458.566 119.181 458.443 119.921 458.443C120.661 458.443 121.357 458.566 122.01 458.813C122.677 459.059 123.258 459.473 123.751 460.053C124.244 460.619 124.636 461.373 124.926 462.316C125.216 463.259 125.361 464.434 125.361 465.841V466.276C125.361 467.785 125.216 469.047 124.926 470.063C124.636 471.064 124.244 471.869 123.751 472.478C123.258 473.073 122.677 473.494 122.01 473.74C121.357 473.987 120.661 474.11 119.921 474.11ZM119.921 472.326C120.371 472.326 120.799 472.246 121.205 472.086C121.625 471.912 121.988 471.608 122.293 471.173C122.612 470.723 122.859 470.106 123.033 469.323C123.221 468.54 123.316 467.524 123.316 466.276V465.841C123.316 464.71 123.221 463.781 123.033 463.056C122.859 462.331 122.612 461.758 122.293 461.337C121.988 460.916 121.625 460.626 121.205 460.466C120.799 460.307 120.371 460.227 119.921 460.227C119.457 460.227 119.021 460.307 118.615 460.466C118.209 460.626 117.846 460.916 117.527 461.337C117.223 461.758 116.976 462.331 116.787 463.056C116.613 463.781 116.526 464.71 116.526 465.841V466.276C116.526 467.524 116.613 468.54 116.787 469.323C116.976 470.106 117.223 470.723 117.527 471.173C117.846 471.608 118.209 471.912 118.615 472.086C119.021 472.246 119.457 472.326 119.921 472.326ZM133.415 474.11C132.675 474.11 131.971 473.987 131.304 473.74C130.651 473.494 130.078 473.073 129.585 472.478C129.092 471.869 128.7 471.064 128.41 470.063C128.12 469.047 127.975 467.785 127.975 466.276V465.841C127.975 464.434 128.12 463.259 128.41 462.316C128.7 461.373 129.092 460.619 129.585 460.053C130.078 459.473 130.651 459.059 131.304 458.813C131.971 458.566 132.675 458.443 133.415 458.443C134.155 458.443 134.851 458.566 135.504 458.813C136.171 459.059 136.751 459.473 137.245 460.053C137.738 460.619 138.13 461.373 138.42 462.316C138.71 463.259 138.855 464.434 138.855 465.841V466.276C138.855 467.785 138.71 469.047 138.42 470.063C138.13 471.064 137.738 471.869 137.245 472.478C136.751 473.073 136.171 473.494 135.504 473.74C134.851 473.987 134.155 474.11 133.415 474.11ZM133.415 472.326C133.865 472.326 134.293 472.246 134.699 472.086C135.119 471.912 135.482 471.608 135.787 471.173C136.106 470.723 136.353 470.106 136.527 469.323C136.715 468.54 136.81 467.524 136.81 466.276V465.841C136.81 464.71 136.715 463.781 136.527 463.056C136.353 462.331 136.106 461.758 135.787 461.337C135.482 460.916 135.119 460.626 134.699 460.466C134.293 460.307 133.865 460.227 133.415 460.227C132.951 460.227 132.515 460.307 132.109 460.466C131.703 460.626 131.34 460.916 131.021 461.337C130.717 461.758 130.47 462.331 130.281 463.056C130.107 463.781 130.02 464.71 130.02 465.841V466.276C130.02 467.524 130.107 468.54 130.281 469.323C130.47 470.106 130.717 470.723 131.021 471.173C131.34 471.608 131.703 471.912 132.109 472.086C132.515 472.246 132.951 472.326 133.415 472.326Z" fill="black"/>
<path d="M100.87 613.708L106.963 608.42C107.428 608.029 107.805 607.673 108.095 607.354C108.399 607.035 108.639 606.738 108.813 606.462C108.987 606.172 109.103 605.889 109.161 605.613C109.234 605.338 109.27 605.04 109.27 604.721C109.27 603.865 109.016 603.162 108.508 602.61C108.001 602.045 107.304 601.762 106.419 601.762C105.36 601.762 104.548 602.052 103.982 602.632C103.416 603.198 103.133 604.003 103.133 605.048H101.088C101.088 604.308 101.211 603.626 101.458 603.002C101.719 602.364 102.082 601.82 102.546 601.37C103.025 600.92 103.59 600.572 104.243 600.326C104.896 600.065 105.621 599.934 106.419 599.934C107.188 599.934 107.877 600.057 108.487 600.304C109.096 600.536 109.611 600.87 110.032 601.305C110.452 601.726 110.771 602.226 110.989 602.806C111.207 603.387 111.315 604.025 111.315 604.721C111.315 605.243 111.236 605.729 111.076 606.179C110.916 606.629 110.692 607.057 110.401 607.463C110.126 607.869 109.785 608.268 109.379 608.66C108.987 609.037 108.552 609.429 108.073 609.835L103.525 613.599H111.533V615.384H100.87V613.708ZM119.368 615.601C118.629 615.601 117.925 615.478 117.258 615.231C116.605 614.985 116.032 614.564 115.539 613.969C115.045 613.36 114.654 612.555 114.364 611.554C114.073 610.538 113.928 609.276 113.928 607.768V607.332C113.928 605.925 114.073 604.75 114.364 603.807C114.654 602.864 115.045 602.11 115.539 601.544C116.032 600.964 116.605 600.55 117.258 600.304C117.925 600.057 118.629 599.934 119.368 599.934C120.108 599.934 120.805 600.057 121.457 600.304C122.125 600.55 122.705 600.964 123.198 601.544C123.691 602.11 124.083 602.864 124.373 603.807C124.663 604.75 124.808 605.925 124.808 607.332V607.768C124.808 609.276 124.663 610.538 124.373 611.554C124.083 612.555 123.691 613.36 123.198 613.969C122.705 614.564 122.125 614.985 121.457 615.231C120.805 615.478 120.108 615.601 119.368 615.601ZM119.368 613.817C119.818 613.817 120.246 613.737 120.652 613.578C121.073 613.404 121.436 613.099 121.74 612.664C122.059 612.214 122.306 611.597 122.48 610.814C122.669 610.031 122.763 609.015 122.763 607.768V607.332C122.763 606.201 122.669 605.272 122.48 604.547C122.306 603.822 122.059 603.249 121.74 602.828C121.436 602.407 121.073 602.117 120.652 601.958C120.246 601.798 119.818 601.718 119.368 601.718C118.904 601.718 118.469 601.798 118.063 601.958C117.657 602.117 117.294 602.407 116.975 602.828C116.67 603.249 116.424 603.822 116.235 604.547C116.061 605.272 115.974 606.201 115.974 607.332V607.768C115.974 609.015 116.061 610.031 116.235 610.814C116.424 611.597 116.67 612.214 116.975 612.664C117.294 613.099 117.657 613.404 118.063 613.578C118.469 613.737 118.904 613.817 119.368 613.817ZM132.862 615.601C132.123 615.601 131.419 615.478 130.752 615.231C130.099 614.985 129.526 614.564 129.033 613.969C128.539 613.36 128.148 612.555 127.857 611.554C127.567 610.538 127.422 609.276 127.422 607.768V607.332C127.422 605.925 127.567 604.75 127.857 603.807C128.148 602.864 128.539 602.11 129.033 601.544C129.526 600.964 130.099 600.55 130.752 600.304C131.419 600.057 132.123 599.934 132.862 599.934C133.602 599.934 134.299 600.057 134.951 600.304C135.619 600.55 136.199 600.964 136.692 601.544C137.185 602.11 137.577 602.864 137.867 603.807C138.157 604.75 138.302 605.925 138.302 607.332V607.768C138.302 609.276 138.157 610.538 137.867 611.554C137.577 612.555 137.185 613.36 136.692 613.969C136.199 614.564 135.619 614.985 134.951 615.231C134.299 615.478 133.602 615.601 132.862 615.601ZM132.862 613.817C133.312 613.817 133.74 613.737 134.146 613.578C134.567 613.404 134.93 613.099 135.234 612.664C135.553 612.214 135.8 611.597 135.974 610.814C136.163 610.031 136.257 609.015 136.257 607.768V607.332C136.257 606.201 136.163 605.272 135.974 604.547C135.8 603.822 135.553 603.249 135.234 602.828C134.93 602.407 134.567 602.117 134.146 601.958C133.74 601.798 133.312 601.718 132.862 601.718C132.398 601.718 131.963 601.798 131.557 601.958C131.151 602.117 130.788 602.407 130.469 602.828C130.164 603.249 129.917 603.822 129.729 604.547C129.555 605.272 129.468 606.201 129.468 607.332V607.768C129.468 609.015 129.555 610.031 129.729 610.814C129.917 611.597 130.164 612.214 130.469 612.664C130.788 613.099 131.151 613.404 131.557 613.578C131.963 613.737 132.398 613.817 132.862 613.817Z" fill="black"/>
<path d="M259.706 739.446C258.879 739.446 258.139 739.337 257.486 739.12C256.848 738.888 256.304 738.576 255.854 738.184C255.404 737.792 255.063 737.335 254.831 736.813C254.599 736.276 254.483 735.703 254.483 735.094H256.529C256.529 735.834 256.782 736.443 257.29 736.922C257.798 737.386 258.603 737.618 259.706 737.618C260.808 737.618 261.613 737.379 262.121 736.9C262.629 736.407 262.883 735.769 262.883 734.985C262.883 734.173 262.621 733.52 262.099 733.027C261.592 732.519 260.794 732.265 259.706 732.265H258.074V730.524H259.706C260.75 730.524 261.504 730.307 261.969 729.872C262.433 729.422 262.665 728.805 262.665 728.022C262.665 727.268 262.44 726.68 261.99 726.259C261.541 725.824 260.779 725.607 259.706 725.607C258.676 725.607 257.921 725.831 257.443 726.281C256.978 726.716 256.746 727.26 256.746 727.913H254.701C254.701 727.347 254.81 726.811 255.027 726.303C255.259 725.795 255.586 725.36 256.006 724.997C256.442 724.62 256.964 724.323 257.573 724.105C258.197 723.887 258.908 723.779 259.706 723.779C260.503 723.779 261.214 723.887 261.838 724.105C262.462 724.323 262.984 724.613 263.405 724.975C263.84 725.338 264.166 725.766 264.384 726.259C264.602 726.753 264.71 727.268 264.71 727.804C264.71 728.675 264.478 729.415 264.014 730.024C263.564 730.619 262.926 731.039 262.099 731.286C262.97 731.562 263.659 732.011 264.166 732.635C264.674 733.259 264.928 734.115 264.928 735.203C264.928 735.783 264.812 736.334 264.58 736.857C264.348 737.364 264.007 737.814 263.557 738.206C263.122 738.583 262.578 738.888 261.925 739.12C261.272 739.337 260.532 739.446 259.706 739.446ZM272.435 739.446C271.608 739.446 270.868 739.337 270.215 739.12C269.577 738.888 269.033 738.576 268.583 738.184C268.133 737.792 267.792 737.335 267.56 736.813C267.328 736.276 267.212 735.703 267.212 735.094H269.258C269.258 735.834 269.511 736.443 270.019 736.922C270.527 737.386 271.332 737.618 272.435 737.618C273.537 737.618 274.342 737.379 274.85 736.9C275.358 736.407 275.612 735.769 275.612 734.985C275.612 734.173 275.35 733.52 274.828 733.027C274.32 732.519 273.523 732.265 272.435 732.265H270.803V730.524H272.435C273.479 730.524 274.233 730.307 274.698 729.872C275.162 729.422 275.394 728.805 275.394 728.022C275.394 727.268 275.169 726.68 274.719 726.259C274.27 725.824 273.508 725.607 272.435 725.607C271.405 725.607 270.65 725.831 270.171 726.281C269.707 726.716 269.475 727.26 269.475 727.913H267.43C267.43 727.347 267.538 726.811 267.756 726.303C267.988 725.795 268.315 725.36 268.735 724.997C269.171 724.62 269.693 724.323 270.302 724.105C270.926 723.887 271.637 723.779 272.435 723.779C273.232 723.779 273.943 723.887 274.567 724.105C275.191 724.323 275.713 724.613 276.134 724.975C276.569 725.338 276.895 725.766 277.113 726.259C277.331 726.753 277.439 727.268 277.439 727.804C277.439 728.675 277.207 729.415 276.743 730.024C276.293 730.619 275.655 731.039 274.828 731.286C275.699 731.562 276.388 732.011 276.895 732.635C277.403 733.259 277.657 734.115 277.657 735.203C277.657 735.783 277.541 736.334 277.309 736.857C277.077 737.364 276.736 737.814 276.286 738.206C275.851 738.583 275.307 738.888 274.654 739.12C274.001 739.337 273.261 739.446 272.435 739.446ZM286.578 723.996H288.71L293.802 733.68L298.894 723.996H300.94V739.229H298.894V727.696L294.52 735.964H292.997L288.623 727.696V739.229H286.578V723.996ZM310.848 739.446C309.992 739.446 309.18 739.301 308.411 739.011C307.642 738.706 306.961 738.242 306.366 737.618C305.771 736.98 305.299 736.175 304.951 735.203C304.603 734.231 304.429 733.07 304.429 731.721V731.286C304.429 729.98 304.603 728.856 304.951 727.913C305.299 726.97 305.771 726.194 306.366 725.585C306.961 724.975 307.642 724.526 308.411 724.236C309.18 723.931 309.992 723.779 310.848 723.779C311.675 723.779 312.43 723.887 313.111 724.105C313.808 724.323 314.417 724.635 314.939 725.041C315.462 725.447 315.882 725.947 316.201 726.542C316.535 727.137 316.745 727.812 316.832 728.566H314.656C314.453 727.579 314.025 726.84 313.373 726.346C312.72 725.853 311.878 725.607 310.848 725.607C310.312 725.607 309.789 725.708 309.282 725.911C308.774 726.114 308.317 726.441 307.911 726.89C307.519 727.326 307.2 727.906 306.953 728.631C306.721 729.357 306.605 730.241 306.605 731.286V731.721C306.605 732.824 306.736 733.752 306.997 734.507C307.258 735.246 307.592 735.848 307.998 736.313C308.404 736.777 308.861 737.111 309.369 737.314C309.876 737.517 310.37 737.618 310.848 737.618C311.98 737.618 312.865 737.343 313.503 736.791C314.141 736.24 314.526 735.529 314.656 734.659H316.832C316.716 735.5 316.484 736.226 316.136 736.835C315.788 737.43 315.346 737.923 314.809 738.315C314.287 738.706 313.684 738.996 313.003 739.185C312.335 739.359 311.617 739.446 310.848 739.446Z" fill="black"/>
<path d="M232.961 695.107L212.961 706.654L232.961 718.201V695.107Z" fill="#FFBD6E"/>
<path d="M338.961 711.654H232.961V701.654H338.961V711.654Z" fill="#FFBD6E"/>
<path d="M338.961 695.107L358.961 706.654L338.961 718.201V695.107Z" fill="#FFBD6E"/>
</svg>
