<svg width="1126" height="614" viewBox="0 0 1126 614" fill="none" xmlns="http://www.w3.org/2000/svg">
<rect x="308.845" y="100.5" width="184" height="413" fill="#ABCFF4"/>
<path d="M319.521 125.768H321.653L326.745 135.451L331.837 125.768H333.883V141H331.837V129.467L327.463 137.736H325.94L321.566 129.467V141H319.521V125.768ZM339.33 145.57C339.113 145.57 338.895 145.548 338.678 145.504V143.764C338.895 143.807 339.113 143.829 339.33 143.829C339.548 143.829 339.737 143.793 339.896 143.72C340.056 143.648 340.208 143.51 340.353 143.307C340.498 143.104 340.65 142.813 340.81 142.436C340.984 142.074 341.18 141.595 341.398 141L336.501 129.467H338.634L342.377 138.824L345.771 129.467H347.817L343.465 141C343.16 141.812 342.87 142.509 342.594 143.089C342.319 143.669 342.021 144.141 341.702 144.503C341.398 144.881 341.057 145.149 340.679 145.309C340.302 145.483 339.853 145.57 339.33 145.57ZM349.015 141.218C348.797 141.218 348.579 141.196 348.362 141.152V139.237C348.434 139.252 348.543 139.259 348.688 139.259C349.007 139.259 349.283 139.158 349.515 138.955C349.762 138.751 349.957 138.396 350.103 137.888C350.248 137.381 350.356 136.691 350.429 135.821C350.501 134.951 350.538 133.848 350.538 132.513V129.467H358.807V141H356.892V131.164H352.453V132.949C352.453 134.559 352.38 135.894 352.235 136.953C352.09 138.012 351.872 138.86 351.582 139.499C351.307 140.122 350.951 140.565 350.516 140.826C350.081 141.087 349.58 141.218 349.015 141.218ZM362.287 129.467H364.202V133.819H366.966C368.417 133.819 369.483 134.138 370.165 134.777C370.861 135.415 371.209 136.3 371.209 137.431C371.209 138.534 370.861 139.404 370.165 140.043C369.483 140.681 368.417 141 366.966 141H362.287V129.467ZM366.857 139.303C367.757 139.303 368.388 139.143 368.75 138.824C369.113 138.505 369.294 138.033 369.294 137.41C369.294 136.786 369.113 136.314 368.75 135.995C368.388 135.676 367.757 135.516 366.857 135.516H364.202V139.303H366.857ZM375.269 131.164H371.331V129.467H381.123V131.164H377.184V141H375.269V131.164ZM383.304 129.467H385.219V138.171L391.181 129.467H393.096V141H391.181V132.296L385.219 141H383.304V129.467ZM396.586 129.467H406.16V141H404.245V131.164H398.5V141H396.586V129.467ZM409.089 141.218C408.872 141.218 408.654 141.196 408.436 141.152V139.237C408.509 139.252 408.618 139.259 408.763 139.259C409.082 139.259 409.358 139.158 409.59 138.955C409.836 138.751 410.032 138.396 410.177 137.888C410.322 137.381 410.431 136.691 410.504 135.821C410.576 134.951 410.612 133.848 410.612 132.513V129.467H418.881V141H416.966V131.164H412.527V132.949C412.527 134.559 412.455 135.894 412.31 136.953C412.165 138.012 411.947 138.86 411.657 139.499C411.381 140.122 411.026 140.565 410.591 140.826C410.156 141.087 409.655 141.218 409.089 141.218ZM427.149 141.218C426.41 141.218 425.706 141.102 425.039 140.869C424.371 140.637 423.784 140.282 423.276 139.803C422.768 139.31 422.362 138.693 422.058 137.954C421.753 137.214 421.601 136.343 421.601 135.342V134.907C421.601 133.95 421.746 133.123 422.036 132.426C422.326 131.716 422.71 131.128 423.189 130.664C423.682 130.185 424.248 129.83 424.886 129.598C425.539 129.365 426.221 129.249 426.932 129.249C428.629 129.249 429.942 129.714 430.871 130.642C431.799 131.571 432.263 132.883 432.263 134.581V135.799H423.516C423.516 136.481 423.624 137.054 423.842 137.518C424.06 137.983 424.342 138.36 424.691 138.65C425.039 138.94 425.423 139.15 425.844 139.281C426.279 139.411 426.714 139.477 427.149 139.477C428.02 139.477 428.687 139.332 429.151 139.042C429.63 138.751 429.971 138.352 430.174 137.845H432.046C431.93 138.396 431.719 138.882 431.415 139.303C431.124 139.723 430.762 140.079 430.326 140.369C429.906 140.645 429.42 140.855 428.869 141C428.332 141.145 427.759 141.218 427.149 141.218ZM427.041 130.99C426.591 130.99 426.156 131.056 425.735 131.186C425.314 131.302 424.937 131.498 424.604 131.774C424.284 132.035 424.023 132.368 423.82 132.775C423.617 133.181 423.516 133.667 423.516 134.233H430.457C430.443 133.638 430.341 133.137 430.152 132.731C429.978 132.31 429.739 131.977 429.434 131.73C429.13 131.469 428.767 131.28 428.346 131.164C427.94 131.048 427.505 130.99 427.041 130.99ZM434.985 129.467H436.9V134.298H438.423L442.732 129.467H444.995L439.99 134.994L445.212 141H442.775L438.423 135.952H436.9V141H434.985V129.467ZM451.537 141.218C450.797 141.218 450.108 141.102 449.47 140.869C448.832 140.623 448.28 140.26 447.816 139.781C447.352 139.288 446.982 138.672 446.706 137.932C446.445 137.192 446.315 136.329 446.315 135.342V134.907C446.315 133.979 446.46 133.159 446.75 132.448C447.04 131.737 447.425 131.15 447.903 130.686C448.382 130.207 448.933 129.851 449.557 129.619C450.195 129.373 450.855 129.249 451.537 129.249C452.219 129.249 452.828 129.344 453.365 129.532C453.916 129.721 454.388 129.982 454.78 130.316C455.186 130.649 455.512 131.041 455.759 131.491C456.02 131.94 456.208 132.426 456.325 132.949H454.366C454.25 132.673 454.112 132.419 453.953 132.187C453.808 131.94 453.619 131.73 453.387 131.556C453.169 131.382 452.908 131.244 452.603 131.143C452.299 131.041 451.943 130.99 451.537 130.99C451.117 130.99 450.71 131.07 450.319 131.23C449.927 131.375 449.579 131.607 449.274 131.926C448.97 132.231 448.723 132.63 448.534 133.123C448.36 133.616 448.273 134.211 448.273 134.907V135.342C448.273 136.082 448.36 136.72 448.534 137.257C448.723 137.779 448.97 138.207 449.274 138.541C449.579 138.86 449.927 139.1 450.319 139.259C450.71 139.404 451.117 139.477 451.537 139.477C452.248 139.477 452.843 139.303 453.322 138.955C453.815 138.606 454.163 138.128 454.366 137.518H456.325C456.049 138.664 455.483 139.571 454.627 140.238C453.771 140.891 452.741 141.218 451.537 141.218ZM463.721 141.218C462.981 141.218 462.278 141.102 461.611 140.869C460.943 140.623 460.356 140.26 459.848 139.781C459.34 139.288 458.934 138.672 458.629 137.932C458.325 137.192 458.172 136.329 458.172 135.342V134.907C458.172 133.979 458.325 133.159 458.629 132.448C458.934 131.737 459.34 131.15 459.848 130.686C460.356 130.207 460.943 129.851 461.611 129.619C462.278 129.373 462.981 129.249 463.721 129.249C464.461 129.249 465.165 129.373 465.832 129.619C466.499 129.851 467.087 130.207 467.595 130.686C468.102 131.15 468.509 131.737 468.813 132.448C469.118 133.159 469.27 133.979 469.27 134.907V135.342C469.27 136.329 469.118 137.192 468.813 137.932C468.509 138.672 468.102 139.288 467.595 139.781C467.087 140.26 466.499 140.623 465.832 140.869C465.165 141.102 464.461 141.218 463.721 141.218ZM463.721 139.477C464.157 139.477 464.592 139.404 465.027 139.259C465.462 139.1 465.847 138.86 466.18 138.541C466.514 138.207 466.782 137.779 466.985 137.257C467.203 136.735 467.312 136.097 467.312 135.342V134.907C467.312 134.211 467.203 133.616 466.985 133.123C466.782 132.63 466.514 132.223 466.18 131.904C465.847 131.585 465.462 131.353 465.027 131.208C464.592 131.063 464.157 130.99 463.721 130.99C463.286 130.99 462.851 131.063 462.416 131.208C461.98 131.353 461.596 131.585 461.262 131.904C460.929 132.223 460.653 132.63 460.436 133.123C460.232 133.616 460.131 134.211 460.131 134.907V135.342C460.131 136.097 460.232 136.735 460.436 137.257C460.653 137.779 460.929 138.207 461.262 138.541C461.596 138.86 461.98 139.1 462.416 139.259C462.851 139.404 463.286 139.477 463.721 139.477ZM471.982 129.467H473.766V131.643C474.158 130.874 474.702 130.287 475.398 129.88C476.109 129.46 476.929 129.249 477.857 129.249C479.308 129.249 480.468 129.728 481.339 130.686C482.209 131.629 482.644 133.036 482.644 134.907V135.342C482.644 136.329 482.528 137.192 482.296 137.932C482.064 138.657 481.738 139.266 481.317 139.76C480.896 140.238 480.389 140.601 479.794 140.848C479.213 141.094 478.568 141.218 477.857 141.218C476.871 141.218 476.044 141 475.376 140.565C474.724 140.13 474.23 139.586 473.897 138.933V145.352H471.982V129.467ZM477.422 139.52C477.886 139.52 478.321 139.433 478.727 139.259C479.134 139.071 479.482 138.802 479.772 138.454C480.077 138.106 480.309 137.671 480.468 137.148C480.642 136.626 480.729 136.024 480.729 135.342V134.907C480.729 134.283 480.642 133.725 480.468 133.232C480.309 132.738 480.077 132.325 479.772 131.991C479.482 131.643 479.134 131.382 478.727 131.208C478.321 131.034 477.886 130.947 477.422 130.947C476.9 130.947 476.421 131.034 475.986 131.208C475.55 131.367 475.181 131.6 474.876 131.904C474.571 132.194 474.332 132.542 474.158 132.949C473.984 133.355 473.897 133.79 473.897 134.254V135.995C473.897 136.517 473.984 136.996 474.158 137.431C474.332 137.867 474.571 138.236 474.876 138.541C475.181 138.846 475.55 139.085 475.986 139.259C476.421 139.433 476.9 139.52 477.422 139.52Z" fill="black"/>
<path d="M332.521 150.768H336.982C338.128 150.768 339.15 150.927 340.05 151.246C340.949 151.551 341.711 152.008 342.335 152.617C342.958 153.227 343.437 153.988 343.771 154.902C344.105 155.816 344.271 156.868 344.271 158.057V158.493C344.271 159.711 344.097 160.792 343.749 161.735C343.415 162.663 342.922 163.447 342.269 164.085C341.631 164.709 340.848 165.188 339.919 165.521C338.991 165.84 337.939 166 336.764 166H332.521V150.768ZM336.546 164.216C337.402 164.216 338.171 164.107 338.853 163.889C339.549 163.672 340.137 163.338 340.616 162.888C341.094 162.424 341.457 161.829 341.704 161.104C341.965 160.379 342.095 159.508 342.095 158.493V158.057C342.095 157.086 341.972 156.251 341.725 155.555C341.479 154.859 341.123 154.293 340.659 153.858C340.195 153.408 339.629 153.082 338.962 152.879C338.309 152.661 337.576 152.552 336.764 152.552H334.566V164.216H336.546ZM346.022 150.768H348.198L351.331 162.736L354.9 150.768H356.728L360.362 162.736L363.517 150.768H365.606L361.515 166H359.469L355.77 154.032L352.158 166H350.112L346.022 150.768ZM368.434 150.768H372.895C374.041 150.768 375.063 150.927 375.963 151.246C376.862 151.551 377.624 152.008 378.248 152.617C378.872 153.227 379.35 153.988 379.684 154.902C380.018 155.816 380.184 156.868 380.184 158.057V158.493C380.184 159.711 380.01 160.792 379.662 161.735C379.329 162.663 378.835 163.447 378.182 164.085C377.544 164.709 376.761 165.188 375.832 165.521C374.904 165.84 373.852 166 372.677 166H368.434V150.768ZM372.46 164.216C373.315 164.216 374.084 164.107 374.766 163.889C375.462 163.672 376.05 163.338 376.529 162.888C377.007 162.424 377.37 161.829 377.617 161.104C377.878 160.379 378.008 159.508 378.008 158.493V158.057C378.008 157.086 377.885 156.251 377.638 155.555C377.392 154.859 377.036 154.293 376.572 153.858C376.108 153.408 375.542 153.082 374.875 152.879C374.222 152.661 373.489 152.552 372.677 152.552H370.479V164.216H372.46ZM383.67 150.768H385.803L390.895 160.451L395.987 150.768H398.032V166H395.987V154.467L391.613 162.736H390.09L385.716 154.467V166H383.67V150.768ZM407.614 160.342C407.614 158.921 407.81 157.63 408.202 156.469C408.608 155.308 409.058 154.3 409.551 153.444C410.117 152.458 410.762 151.566 411.488 150.768H413.707C412.924 151.566 412.235 152.458 411.64 153.444C411.379 153.865 411.125 154.329 410.878 154.837C410.632 155.345 410.407 155.889 410.204 156.469C410.015 157.049 409.863 157.666 409.747 158.319C409.631 158.957 409.573 159.631 409.573 160.342V160.778C409.573 161.488 409.631 162.17 409.747 162.823C409.863 163.476 410.015 164.092 410.204 164.673C410.407 165.253 410.632 165.797 410.878 166.305C411.125 166.812 411.379 167.277 411.64 167.697C412.235 168.698 412.924 169.583 413.707 170.352H411.401C410.69 169.583 410.059 168.698 409.508 167.697C409.029 166.856 408.594 165.848 408.202 164.673C407.81 163.498 407.614 162.199 407.614 160.778V160.342ZM416.098 150.768H418.231L423.323 160.451L428.415 150.768H430.46V166H428.415V154.467L424.041 162.736H422.518L418.144 154.467V166H416.098V150.768ZM440.586 166.218C439.672 166.218 438.846 166.087 438.106 165.826C437.38 165.565 436.757 165.166 436.234 164.629C435.712 164.092 435.306 163.418 435.016 162.605C434.74 161.778 434.602 160.807 434.602 159.689V150.768H436.648V159.689C436.648 161.343 436.996 162.54 437.692 163.28C438.389 164.02 439.353 164.39 440.586 164.39C441.819 164.39 442.784 164.02 443.481 163.28C444.177 162.54 444.525 161.343 444.525 159.689V150.768H446.57V159.689C446.57 160.807 446.425 161.778 446.135 162.605C445.86 163.418 445.461 164.092 444.938 164.629C444.416 165.166 443.785 165.565 443.045 165.826C442.32 166.087 441.5 166.218 440.586 166.218ZM454.567 158.232L449.41 150.768H451.673L455.742 156.665L459.855 150.768H462.031L456.895 158.188L462.248 166H459.942L455.698 159.733L451.411 166H449.192L454.567 158.232ZM469.193 160.778C469.193 162.199 468.99 163.49 468.584 164.651C468.192 165.811 467.75 166.82 467.256 167.676C466.691 168.662 466.045 169.554 465.32 170.352H463.1C463.884 169.554 464.573 168.662 465.167 167.676C465.429 167.255 465.682 166.791 465.929 166.283C466.176 165.775 466.393 165.231 466.582 164.651C466.785 164.071 466.945 163.461 467.061 162.823C467.177 162.17 467.235 161.488 467.235 160.778V160.342C467.235 159.631 467.177 158.95 467.061 158.297C466.945 157.644 466.785 157.027 466.582 156.447C466.393 155.867 466.176 155.323 465.929 154.815C465.682 154.307 465.429 153.843 465.167 153.423C464.573 152.422 463.884 151.537 463.1 150.768H465.407C466.118 151.537 466.749 152.422 467.3 153.423C467.779 154.264 468.214 155.272 468.606 156.447C468.997 157.622 469.193 158.921 469.193 160.342V160.778Z" fill="black"/>
<rect x="308.845" y="100.5" width="184" height="413" stroke="#4C89BE"/>
<rect x="627.715" y="100.5" width="184" height="413" fill="#ABCFF4"/>
<path d="M638.391 125.768H640.523L645.615 135.451L650.707 125.768H652.753V141H650.707V129.467L646.333 137.736H644.81L640.436 129.467V141H638.391V125.768ZM658.2 145.57C657.983 145.57 657.765 145.548 657.548 145.504V143.764C657.765 143.807 657.983 143.829 658.2 143.829C658.418 143.829 658.607 143.793 658.766 143.72C658.926 143.648 659.078 143.51 659.223 143.307C659.368 143.104 659.521 142.813 659.68 142.436C659.854 142.074 660.05 141.595 660.268 141L655.372 129.467H657.504L661.247 138.824L664.642 129.467H666.687L662.335 141C662.03 141.812 661.74 142.509 661.464 143.089C661.189 143.669 660.891 144.141 660.572 144.503C660.268 144.881 659.927 145.149 659.55 145.309C659.172 145.483 658.723 145.57 658.2 145.57ZM667.885 141.218C667.667 141.218 667.449 141.196 667.232 141.152V139.237C667.304 139.252 667.413 139.259 667.558 139.259C667.877 139.259 668.153 139.158 668.385 138.955C668.632 138.751 668.828 138.396 668.973 137.888C669.118 137.381 669.227 136.691 669.299 135.821C669.372 134.951 669.408 133.848 669.408 132.513V129.467H677.677V141H675.762V131.164H671.323V132.949C671.323 134.559 671.25 135.894 671.105 136.953C670.96 138.012 670.743 138.86 670.452 139.499C670.177 140.122 669.821 140.565 669.386 140.826C668.951 141.087 668.45 141.218 667.885 141.218ZM681.158 129.467H683.073V133.819H685.836C687.287 133.819 688.353 134.138 689.035 134.777C689.731 135.415 690.079 136.3 690.079 137.431C690.079 138.534 689.731 139.404 689.035 140.043C688.353 140.681 687.287 141 685.836 141H681.158V129.467ZM685.727 139.303C686.627 139.303 687.258 139.143 687.62 138.824C687.983 138.505 688.164 138.033 688.164 137.41C688.164 136.786 687.983 136.314 687.62 135.995C687.258 135.676 686.627 135.516 685.727 135.516H683.073V139.303H685.727ZM694.14 131.164H690.201V129.467H699.993V131.164H696.054V141H694.14V131.164ZM702.174 129.467H704.089V138.171L710.051 129.467H711.966V141H710.051V132.296L704.089 141H702.174V129.467ZM715.456 129.467H725.03V141H723.115V131.164H717.371V141H715.456V129.467ZM727.959 141.218C727.742 141.218 727.524 141.196 727.307 141.152V139.237C727.379 139.252 727.488 139.259 727.633 139.259C727.952 139.259 728.228 139.158 728.46 138.955C728.706 138.751 728.902 138.396 729.047 137.888C729.192 137.381 729.301 136.691 729.374 135.821C729.446 134.951 729.483 133.848 729.483 132.513V129.467H737.752V141H735.837V131.164H731.398V132.949C731.398 134.559 731.325 135.894 731.18 136.953C731.035 138.012 730.817 138.86 730.527 139.499C730.251 140.122 729.896 140.565 729.461 140.826C729.026 141.087 728.525 141.218 727.959 141.218ZM746.02 141.218C745.28 141.218 744.576 141.102 743.909 140.869C743.242 140.637 742.654 140.282 742.146 139.803C741.639 139.31 741.232 138.693 740.928 137.954C740.623 137.214 740.471 136.343 740.471 135.342V134.907C740.471 133.95 740.616 133.123 740.906 132.426C741.196 131.716 741.58 131.128 742.059 130.664C742.552 130.185 743.118 129.83 743.757 129.598C744.409 129.365 745.091 129.249 745.802 129.249C747.499 129.249 748.812 129.714 749.741 130.642C750.669 131.571 751.133 132.883 751.133 134.581V135.799H742.386C742.386 136.481 742.494 137.054 742.712 137.518C742.93 137.983 743.213 138.36 743.561 138.65C743.909 138.94 744.293 139.15 744.714 139.281C745.149 139.411 745.584 139.477 746.02 139.477C746.89 139.477 747.557 139.332 748.022 139.042C748.5 138.751 748.841 138.352 749.044 137.845H750.916C750.8 138.396 750.589 138.882 750.285 139.303C749.994 139.723 749.632 140.079 749.197 140.369C748.776 140.645 748.29 140.855 747.739 141C747.202 141.145 746.629 141.218 746.02 141.218ZM745.911 130.99C745.461 130.99 745.026 131.056 744.605 131.186C744.184 131.302 743.807 131.498 743.474 131.774C743.154 132.035 742.893 132.368 742.69 132.775C742.487 133.181 742.386 133.667 742.386 134.233H749.327C749.313 133.638 749.211 133.137 749.023 132.731C748.848 132.31 748.609 131.977 748.304 131.73C748 131.469 747.637 131.28 747.216 131.164C746.81 131.048 746.375 130.99 745.911 130.99ZM753.855 129.467H755.77V134.298H757.293L761.602 129.467H763.865L758.86 134.994L764.082 141H761.645L757.293 135.952H755.77V141H753.855V129.467ZM770.407 141.218C769.667 141.218 768.978 141.102 768.34 140.869C767.702 140.623 767.151 140.26 766.686 139.781C766.222 139.288 765.852 138.672 765.577 137.932C765.315 137.192 765.185 136.329 765.185 135.342V134.907C765.185 133.979 765.33 133.159 765.62 132.448C765.91 131.737 766.295 131.15 766.773 130.686C767.252 130.207 767.803 129.851 768.427 129.619C769.065 129.373 769.726 129.249 770.407 129.249C771.089 129.249 771.698 129.344 772.235 129.532C772.786 129.721 773.258 129.982 773.65 130.316C774.056 130.649 774.382 131.041 774.629 131.491C774.89 131.94 775.079 132.426 775.195 132.949H773.236C773.12 132.673 772.982 132.419 772.823 132.187C772.678 131.94 772.489 131.73 772.257 131.556C772.039 131.382 771.778 131.244 771.474 131.143C771.169 131.041 770.814 130.99 770.407 130.99C769.987 130.99 769.58 131.07 769.189 131.23C768.797 131.375 768.449 131.607 768.144 131.926C767.84 132.231 767.593 132.63 767.404 133.123C767.23 133.616 767.143 134.211 767.143 134.907V135.342C767.143 136.082 767.23 136.72 767.404 137.257C767.593 137.779 767.84 138.207 768.144 138.541C768.449 138.86 768.797 139.1 769.189 139.259C769.58 139.404 769.987 139.477 770.407 139.477C771.118 139.477 771.713 139.303 772.192 138.955C772.685 138.606 773.033 138.128 773.236 137.518H775.195C774.919 138.664 774.353 139.571 773.497 140.238C772.641 140.891 771.611 141.218 770.407 141.218ZM782.591 141.218C781.852 141.218 781.148 141.102 780.481 140.869C779.813 140.623 779.226 140.26 778.718 139.781C778.21 139.288 777.804 138.672 777.5 137.932C777.195 137.192 777.043 136.329 777.043 135.342V134.907C777.043 133.979 777.195 133.159 777.5 132.448C777.804 131.737 778.21 131.15 778.718 130.686C779.226 130.207 779.813 129.851 780.481 129.619C781.148 129.373 781.852 129.249 782.591 129.249C783.331 129.249 784.035 129.373 784.702 129.619C785.37 129.851 785.957 130.207 786.465 130.686C786.973 131.15 787.379 131.737 787.683 132.448C787.988 133.159 788.14 133.979 788.14 134.907V135.342C788.14 136.329 787.988 137.192 787.683 137.932C787.379 138.672 786.973 139.288 786.465 139.781C785.957 140.26 785.37 140.623 784.702 140.869C784.035 141.102 783.331 141.218 782.591 141.218ZM782.591 139.477C783.027 139.477 783.462 139.404 783.897 139.259C784.332 139.1 784.717 138.86 785.05 138.541C785.384 138.207 785.652 137.779 785.855 137.257C786.073 136.735 786.182 136.097 786.182 135.342V134.907C786.182 134.211 786.073 133.616 785.855 133.123C785.652 132.63 785.384 132.223 785.05 131.904C784.717 131.585 784.332 131.353 783.897 131.208C783.462 131.063 783.027 130.99 782.591 130.99C782.156 130.99 781.721 131.063 781.286 131.208C780.851 131.353 780.466 131.585 780.133 131.904C779.799 132.223 779.523 132.63 779.306 133.123C779.103 133.616 779.001 134.211 779.001 134.907V135.342C779.001 136.097 779.103 136.735 779.306 137.257C779.523 137.779 779.799 138.207 780.133 138.541C780.466 138.86 780.851 139.1 781.286 139.259C781.721 139.404 782.156 139.477 782.591 139.477ZM790.852 129.467H792.636V131.643C793.028 130.874 793.572 130.287 794.268 129.88C794.979 129.46 795.799 129.249 796.727 129.249C798.178 129.249 799.338 129.728 800.209 130.686C801.079 131.629 801.514 133.036 801.514 134.907V135.342C801.514 136.329 801.398 137.192 801.166 137.932C800.934 138.657 800.608 139.266 800.187 139.76C799.766 140.238 799.259 140.601 798.664 140.848C798.084 141.094 797.438 141.218 796.727 141.218C795.741 141.218 794.914 141 794.246 140.565C793.594 140.13 793.1 139.586 792.767 138.933V145.352H790.852V129.467ZM796.292 139.52C796.756 139.52 797.191 139.433 797.598 139.259C798.004 139.071 798.352 138.802 798.642 138.454C798.947 138.106 799.179 137.671 799.338 137.148C799.513 136.626 799.6 136.024 799.6 135.342V134.907C799.6 134.283 799.513 133.725 799.338 133.232C799.179 132.738 798.947 132.325 798.642 131.991C798.352 131.643 798.004 131.382 797.598 131.208C797.191 131.034 796.756 130.947 796.292 130.947C795.77 130.947 795.291 131.034 794.856 131.208C794.421 131.367 794.051 131.6 793.746 131.904C793.441 132.194 793.202 132.542 793.028 132.949C792.854 133.355 792.767 133.79 792.767 134.254V135.995C792.767 136.517 792.854 136.996 793.028 137.431C793.202 137.867 793.441 138.236 793.746 138.541C794.051 138.846 794.421 139.085 794.856 139.259C795.291 139.433 795.77 139.52 796.292 139.52Z" fill="black"/>
<path d="M651.391 150.768H655.852C656.998 150.768 658.021 150.927 658.92 151.246C659.819 151.551 660.581 152.008 661.205 152.617C661.829 153.227 662.307 153.988 662.641 154.902C662.975 155.816 663.141 156.868 663.141 158.057V158.493C663.141 159.711 662.967 160.792 662.619 161.735C662.286 162.663 661.792 163.447 661.14 164.085C660.501 164.709 659.718 165.188 658.789 165.521C657.861 165.84 656.809 166 655.634 166H651.391V150.768ZM655.417 164.216C656.272 164.216 657.041 164.107 657.723 163.889C658.419 163.672 659.007 163.338 659.486 162.888C659.964 162.424 660.327 161.829 660.574 161.104C660.835 160.379 660.965 159.508 660.965 158.493V158.057C660.965 157.086 660.842 156.251 660.596 155.555C660.349 154.859 659.993 154.293 659.529 153.858C659.065 153.408 658.499 153.082 657.832 152.879C657.179 152.661 656.447 152.552 655.634 152.552H653.436V164.216H655.417ZM664.892 150.768H667.068L670.201 162.736L673.77 150.768H675.598L679.232 162.736L682.387 150.768H684.476L680.385 166H678.34L674.64 154.032L671.028 166H668.983L664.892 150.768ZM687.304 150.768H691.765C692.911 150.768 693.934 150.927 694.833 151.246C695.732 151.551 696.494 152.008 697.118 152.617C697.742 153.227 698.22 153.988 698.554 154.902C698.888 155.816 699.055 156.868 699.055 158.057V158.493C699.055 159.711 698.88 160.792 698.532 161.735C698.199 162.663 697.705 163.447 697.053 164.085C696.414 164.709 695.631 165.188 694.702 165.521C693.774 165.84 692.722 166 691.547 166H687.304V150.768ZM691.33 164.216C692.186 164.216 692.954 164.107 693.636 163.889C694.333 163.672 694.92 163.338 695.399 162.888C695.878 162.424 696.24 161.829 696.487 161.104C696.748 160.379 696.879 159.508 696.879 158.493V158.057C696.879 157.086 696.755 156.251 696.509 155.555C696.262 154.859 695.907 154.293 695.442 153.858C694.978 153.408 694.412 153.082 693.745 152.879C693.092 152.661 692.36 152.552 691.547 152.552H689.349V164.216H691.33ZM702.54 150.768H704.673L709.765 160.451L714.857 150.768H716.902V166H714.857V154.467L710.483 162.736H708.96L704.586 154.467V166H702.54V150.768ZM726.484 160.342C726.484 158.921 726.68 157.63 727.072 156.469C727.478 155.308 727.928 154.3 728.421 153.444C728.987 152.458 729.632 151.566 730.358 150.768H732.577C731.794 151.566 731.105 152.458 730.51 153.444C730.249 153.865 729.995 154.329 729.749 154.837C729.502 155.345 729.277 155.889 729.074 156.469C728.885 157.049 728.733 157.666 728.617 158.319C728.501 158.957 728.443 159.631 728.443 160.342V160.778C728.443 161.488 728.501 162.17 728.617 162.823C728.733 163.476 728.885 164.092 729.074 164.673C729.277 165.253 729.502 165.797 729.749 166.305C729.995 166.812 730.249 167.277 730.51 167.697C731.105 168.698 731.794 169.583 732.577 170.352H730.271C729.56 169.583 728.929 168.698 728.378 167.697C727.899 166.856 727.464 165.848 727.072 164.673C726.68 163.498 726.484 162.199 726.484 160.778V160.342ZM734.968 150.768H737.101L742.193 160.451L747.285 150.768H749.33V166H747.285V154.467L742.911 162.736H741.388L737.014 154.467V166H734.968V150.768ZM759.457 166.218C758.543 166.218 757.716 166.087 756.976 165.826C756.25 165.565 755.627 165.166 755.104 164.629C754.582 164.092 754.176 163.418 753.886 162.605C753.61 161.778 753.472 160.807 753.472 159.689V150.768H755.518V159.689C755.518 161.343 755.866 162.54 756.562 163.28C757.259 164.02 758.223 164.39 759.457 164.39C760.69 164.39 761.654 164.02 762.351 163.28C763.047 162.54 763.395 161.343 763.395 159.689V150.768H765.441V159.689C765.441 160.807 765.296 161.778 765.005 162.605C764.73 163.418 764.331 164.092 763.809 164.629C763.286 165.166 762.655 165.565 761.915 165.826C761.19 166.087 760.37 166.218 759.457 166.218ZM773.437 158.232L768.28 150.768H770.543L774.612 156.665L778.725 150.768H780.901L775.765 158.188L781.118 166H778.812L774.568 159.733L770.282 166H768.062L773.437 158.232ZM788.063 160.778C788.063 162.199 787.86 163.49 787.454 164.651C787.062 165.811 786.62 166.82 786.127 167.676C785.561 168.662 784.915 169.554 784.19 170.352H781.97C782.754 169.554 783.443 168.662 784.038 167.676C784.299 167.255 784.553 166.791 784.799 166.283C785.046 165.775 785.263 165.231 785.452 164.651C785.655 164.071 785.815 163.461 785.931 162.823C786.047 162.17 786.105 161.488 786.105 160.778V160.342C786.105 159.631 786.047 158.95 785.931 158.297C785.815 157.644 785.655 157.027 785.452 156.447C785.263 155.867 785.046 155.323 784.799 154.815C784.553 154.307 784.299 153.843 784.038 153.423C783.443 152.422 782.754 151.537 781.97 150.768H784.277C784.988 151.537 785.619 152.422 786.17 153.423C786.649 154.264 787.084 155.272 787.476 156.447C787.867 157.622 788.063 158.921 788.063 160.342V160.778Z" fill="black"/>
<rect x="627.715" y="100.5" width="184" height="413" stroke="#4C89BE"/>
<path d="M293.975 174.632L273.975 163.085V186.179L293.975 174.632ZM100 176.632H275.975V172.632H100V176.632Z" fill="#D94747"/>
<path d="M1025.96 174.632L1005.96 163.085V186.179L1025.96 174.632ZM812.213 176.632H1007.96V172.632H812.213V176.632Z" fill="#D94747"/>
<path d="M308.085 174.632H100" stroke="#D94747" stroke-width="7" stroke-linecap="round"/>
<path d="M812.213 174.632H1010.86" stroke="#D94747" stroke-width="7" stroke-linecap="round"/>
<path d="M493.193 259.348H627.101" stroke="#D94747" stroke-width="7" stroke-linecap="round"/>
<path d="M308.085 174.632L493.191 259.348" stroke="#D94747" stroke-width="7" stroke-linecap="round"/>
<path d="M812.211 174.632L627.105 259.348" stroke="#D94747" stroke-width="7" stroke-linecap="round"/>
<path d="M293.975 212.737L273.975 201.19V224.284L293.975 212.737ZM100 214.737H275.975V210.737H100V214.737Z" fill="#EC8D36"/>
<path d="M1025.96 212.737L1005.96 201.19V224.284L1025.96 212.737ZM812.213 214.737H1007.96V210.737H812.213V214.737Z" fill="#EC8D36"/>
<path d="M308.085 212.737H100" stroke="#EC8D36" stroke-width="7" stroke-linecap="round"/>
<path d="M812.213 212.737H1010.86" stroke="#EC8D36" stroke-width="7" stroke-linecap="round"/>
<path d="M493.193 273.249H627.101" stroke="#EC8D36" stroke-width="7" stroke-linecap="round"/>
<path d="M308.087 212.737L493.192 273.249" stroke="#EC8D36" stroke-width="7" stroke-linecap="round"/>
<path d="M812.209 212.737L627.104 273.249" stroke="#EC8D36" stroke-width="7" stroke-linecap="round"/>
<path d="M293.975 250.842L273.975 239.295V262.389L293.975 250.842ZM100 252.842H275.975V248.842H100V252.842Z" fill="#E4BC2F"/>
<path d="M1025.96 250.842L1005.96 239.295V262.389L1025.96 250.842ZM812.213 252.842H1007.96V248.842H812.213V252.842Z" fill="#E4BC2F"/>
<path d="M308.085 250.842H100" stroke="#E4BC2F" stroke-width="7" stroke-linecap="round"/>
<path d="M812.213 250.842H1010.86" stroke="#E4BC2F" stroke-width="7" stroke-linecap="round"/>
<path d="M493.193 287.149H627.101" stroke="#E4BC2F" stroke-width="7" stroke-linecap="round"/>
<path d="M308.087 250.842L493.192 287.149" stroke="#E4BC2F" stroke-width="7" stroke-linecap="round"/>
<path d="M812.209 250.842L627.104 287.149" stroke="#E4BC2F" stroke-width="7" stroke-linecap="round"/>
<path d="M293.975 288.948L273.975 277.401V300.495L293.975 288.948ZM100 290.948H275.975V286.948H100V290.948Z" fill="#E1E42F"/>
<path d="M1025.96 288.948L1005.96 277.401V300.495L1025.96 288.948ZM812.213 290.948H1007.96V286.948H812.213V290.948Z" fill="#E1E42F"/>
<path d="M308.085 288.948H100" stroke="#E1E42F" stroke-width="7" stroke-linecap="round"/>
<path d="M812.213 288.948H1010.86" stroke="#E1E42F" stroke-width="7" stroke-linecap="round"/>
<path d="M493.193 301.05H627.101" stroke="#E1E42F" stroke-width="7" stroke-linecap="round"/>
<path d="M308.087 288.948L493.192 301.05" stroke="#E1E42F" stroke-width="7" stroke-linecap="round"/>
<path d="M812.209 288.948L627.104 301.05" stroke="#E1E42F" stroke-width="7" stroke-linecap="round"/>
<path d="M293.975 327.052L273.975 315.505V338.599L293.975 327.052ZM100 329.052H275.975V325.052H100V329.052Z" fill="#90D947"/>
<path d="M1025.96 327.052L1005.96 315.505V338.599L1025.96 327.052ZM812.213 329.052H1007.96V325.052H812.213V329.052Z" fill="#90D947"/>
<path d="M308.085 327.052H100" stroke="#90D947" stroke-width="7" stroke-linecap="round"/>
<path d="M812.213 327.052H1010.86" stroke="#90D947" stroke-width="7" stroke-linecap="round"/>
<path d="M493.193 314.95H627.101" stroke="#90D947" stroke-width="7" stroke-linecap="round"/>
<path d="M308.087 327.053L493.192 314.95" stroke="#90D947" stroke-width="7" stroke-linecap="round"/>
<path d="M812.209 327.053L627.104 314.95" stroke="#90D947" stroke-width="7" stroke-linecap="round"/>
<path d="M293.975 365.158L273.975 353.611V376.705L293.975 365.158ZM100 367.158H275.975V363.158H100V367.158Z" fill="#5AC365"/>
<path d="M1025.96 365.158L1005.96 353.611V376.705L1025.96 365.158ZM812.213 367.158H1007.96V363.158H812.213V367.158Z" fill="#5AC365"/>
<path d="M308.085 365.158H100" stroke="#5AC365" stroke-width="7" stroke-linecap="round"/>
<path d="M812.213 365.158H1010.86" stroke="#5AC365" stroke-width="7" stroke-linecap="round"/>
<path d="M493.193 328.851H627.101" stroke="#5AC365" stroke-width="7" stroke-linecap="round"/>
<path d="M308.087 365.158L493.192 328.85" stroke="#5AC365" stroke-width="7" stroke-linecap="round"/>
<path d="M812.209 365.158L627.104 328.85" stroke="#5AC365" stroke-width="7" stroke-linecap="round"/>
<path d="M293.975 441.368L273.975 429.821V452.915L293.975 441.368ZM100 443.368H275.975V439.368H100V443.368Z" fill="#4781D9"/>
<path d="M1025.96 441.368L1005.96 429.821V452.915L1025.96 441.368ZM812.213 443.368H1007.96V439.368H812.213V443.368Z" fill="#4781D9"/>
<path d="M308.085 441.368H100" stroke="#4781D9" stroke-width="7" stroke-linecap="round"/>
<path d="M812.213 441.368H1010.86" stroke="#4781D9" stroke-width="7" stroke-linecap="round"/>
<path d="M493.193 356.652H627.101" stroke="#4781D9" stroke-width="7" stroke-linecap="round"/>
<path d="M308.085 441.368L493.193 356.652" stroke="#4781D9" stroke-width="7" stroke-linecap="round"/>
<path d="M812.211 441.368L627.103 356.652" stroke="#4781D9" stroke-width="7" stroke-linecap="round"/>
<path d="M293.975 403.263L273.975 391.716V414.81L293.975 403.263ZM100 405.263H275.975V401.263H100V405.263Z" fill="#47BED9"/>
<path d="M1025.96 403.263L1005.96 391.716V414.81L1025.96 403.263ZM812.213 405.263H1007.96V401.263H812.213V405.263Z" fill="#47BED9"/>
<path d="M308.085 403.263H100" stroke="#47BED9" stroke-width="7" stroke-linecap="round"/>
<path d="M812.213 403.263H1010.86" stroke="#47BED9" stroke-width="7" stroke-linecap="round"/>
<path d="M493.193 342.751H627.101" stroke="#47BED9" stroke-width="7" stroke-linecap="round"/>
<path d="M308.085 403.263L493.193 342.751" stroke="#47BED9" stroke-width="7" stroke-linecap="round"/>
<path d="M812.211 403.263L627.103 342.751" stroke="#47BED9" stroke-width="7" stroke-linecap="round"/>
<path d="M871.895 139.838H873.94V146.388H875.681L881.643 139.838H884.081L877.422 147.106L884.298 155.07H881.687L875.681 148.085H873.94V155.07H871.895V139.838ZM889.769 155.288C889.131 155.288 888.565 155.201 888.072 155.027C887.593 154.838 887.187 154.584 886.853 154.265C886.52 153.946 886.266 153.569 886.092 153.133C885.918 152.698 885.831 152.219 885.831 151.697C885.831 150.551 886.164 149.724 886.832 149.217C887.514 148.709 888.486 148.455 889.748 148.455H893.49V147.672C893.49 146.685 893.266 146.003 892.816 145.626C892.381 145.249 891.721 145.06 890.836 145.06C890.009 145.06 889.407 145.22 889.03 145.539C888.652 145.844 888.442 146.192 888.398 146.584H886.484C886.513 146.119 886.636 145.691 886.853 145.3C887.086 144.893 887.39 144.545 887.767 144.255C888.159 143.965 888.623 143.74 889.16 143.581C889.697 143.407 890.292 143.319 890.944 143.319C892.308 143.319 893.389 143.646 894.187 144.299C894.999 144.937 895.405 145.989 895.405 147.454V152.132C895.405 152.742 895.405 153.278 895.405 153.743C895.42 154.192 895.456 154.635 895.514 155.07H893.839C893.795 154.736 893.766 154.425 893.752 154.134C893.737 153.83 893.73 153.489 893.73 153.112C893.425 153.721 892.932 154.236 892.25 154.657C891.568 155.077 890.741 155.288 889.769 155.288ZM890.183 153.547C890.633 153.547 891.053 153.489 891.445 153.373C891.851 153.242 892.207 153.061 892.511 152.829C892.816 152.582 893.055 152.285 893.229 151.937C893.403 151.588 893.49 151.182 893.49 150.718V149.935H890.074C889.363 149.935 888.805 150.08 888.398 150.37C887.992 150.645 887.789 151.088 887.789 151.697C887.789 152.234 887.978 152.676 888.355 153.025C888.747 153.373 889.356 153.547 890.183 153.547ZM898.788 143.537H900.702V148.346H906.665V143.537H908.58V155.07H906.665V150.043H900.702V155.07H898.788V143.537ZM915.355 155.288C914.716 155.288 914.151 155.201 913.657 155.027C913.179 154.838 912.773 154.584 912.439 154.265C912.105 153.946 911.851 153.569 911.677 153.133C911.503 152.698 911.416 152.219 911.416 151.697C911.416 150.551 911.75 149.724 912.417 149.217C913.099 148.709 914.071 148.455 915.333 148.455H919.076V147.672C919.076 146.685 918.851 146.003 918.401 145.626C917.966 145.249 917.306 145.06 916.421 145.06C915.594 145.06 914.992 145.22 914.615 145.539C914.238 145.844 914.027 146.192 913.984 146.584H912.069C912.098 146.119 912.221 145.691 912.439 145.3C912.671 144.893 912.976 144.545 913.353 144.255C913.745 143.965 914.209 143.74 914.746 143.581C915.282 143.407 915.877 143.319 916.53 143.319C917.894 143.319 918.974 143.646 919.772 144.299C920.585 144.937 920.991 145.989 920.991 147.454V152.132C920.991 152.742 920.991 153.278 920.991 153.743C921.005 154.192 921.041 154.635 921.1 155.07H919.424C919.38 154.736 919.351 154.425 919.337 154.134C919.322 153.83 919.315 153.489 919.315 153.112C919.011 153.721 918.517 154.236 917.835 154.657C917.154 155.077 916.327 155.288 915.355 155.288ZM915.768 153.547C916.218 153.547 916.639 153.489 917.03 153.373C917.437 153.242 917.792 153.061 918.097 152.829C918.401 152.582 918.641 152.285 918.815 151.937C918.989 151.588 919.076 151.182 919.076 150.718V149.935H915.659C914.949 149.935 914.39 150.08 913.984 150.37C913.578 150.645 913.375 151.088 913.375 151.697C913.375 152.234 913.563 152.676 913.94 153.025C914.332 153.373 914.941 153.547 915.768 153.547ZM923.829 155.288C923.611 155.288 923.394 155.266 923.176 155.222V153.307C923.249 153.322 923.357 153.329 923.503 153.329C923.822 153.329 924.097 153.228 924.329 153.025C924.576 152.821 924.772 152.466 924.917 151.958C925.062 151.451 925.171 150.762 925.243 149.891C925.316 149.021 925.352 147.918 925.352 146.584V143.537H933.621V155.07H931.706V145.234H927.267V147.019C927.267 148.629 927.195 149.964 927.049 151.023C926.904 152.082 926.687 152.93 926.397 153.569C926.121 154.192 925.766 154.635 925.33 154.896C924.895 155.157 924.395 155.288 923.829 155.288ZM937.102 143.537H939.017V147.889H941.345C942.796 147.889 943.862 148.208 944.544 148.847C945.24 149.485 945.588 150.37 945.588 151.501C945.588 152.604 945.24 153.474 944.544 154.113C943.862 154.751 942.796 155.07 941.345 155.07H937.102V143.537ZM941.236 153.373C942.136 153.373 942.767 153.213 943.129 152.894C943.492 152.575 943.674 152.103 943.674 151.48C943.674 150.856 943.492 150.384 943.129 150.065C942.767 149.746 942.136 149.586 941.236 149.586H939.017V153.373H941.236ZM947.373 143.537H949.288V155.07H947.373V143.537Z" fill="black"/>
<path d="M158.163 139.838H160.209V146.388H161.95L167.912 139.838H170.349L163.69 147.106L170.567 155.07H167.955L161.95 148.085H160.209V155.07H158.163V139.838ZM176.038 155.288C175.4 155.288 174.834 155.201 174.341 155.027C173.862 154.838 173.456 154.584 173.122 154.265C172.788 153.946 172.535 153.569 172.36 153.133C172.186 152.698 172.099 152.219 172.099 151.697C172.099 150.551 172.433 149.724 173.1 149.217C173.782 148.709 174.754 148.455 176.016 148.455H179.759V147.672C179.759 146.685 179.534 146.003 179.084 145.626C178.649 145.249 177.989 145.06 177.104 145.06C176.277 145.06 175.675 145.22 175.298 145.539C174.921 145.844 174.711 146.192 174.667 146.584H172.752C172.781 146.119 172.904 145.691 173.122 145.3C173.354 144.893 173.659 144.545 174.036 144.255C174.428 143.965 174.892 143.74 175.429 143.581C175.965 143.407 176.56 143.319 177.213 143.319C178.577 143.319 179.657 143.646 180.455 144.299C181.268 144.937 181.674 145.989 181.674 147.454V152.132C181.674 152.742 181.674 153.278 181.674 153.743C181.688 154.192 181.725 154.635 181.783 155.07H180.107C180.064 154.736 180.035 154.425 180.02 154.134C180.006 153.83 179.998 153.489 179.998 153.112C179.694 153.721 179.2 154.236 178.519 154.657C177.837 155.077 177.01 155.288 176.038 155.288ZM176.451 153.547C176.901 153.547 177.322 153.489 177.713 153.373C178.12 153.242 178.475 153.061 178.78 152.829C179.084 152.582 179.324 152.285 179.498 151.937C179.672 151.588 179.759 151.182 179.759 150.718V149.935H176.343C175.632 149.935 175.073 150.08 174.667 150.37C174.261 150.645 174.058 151.088 174.058 151.697C174.058 152.234 174.246 152.676 174.624 153.025C175.015 153.373 175.624 153.547 176.451 153.547ZM185.056 143.537H186.971V148.346H192.933V143.537H194.848V155.07H192.933V150.043H186.971V155.07H185.056V143.537ZM201.623 155.288C200.985 155.288 200.419 155.201 199.926 155.027C199.447 154.838 199.041 154.584 198.707 154.265C198.374 153.946 198.12 153.569 197.946 153.133C197.772 152.698 197.685 152.219 197.685 151.697C197.685 150.551 198.018 149.724 198.686 149.217C199.368 148.709 200.339 148.455 201.602 148.455H205.344V147.672C205.344 146.685 205.12 146.003 204.67 145.626C204.235 145.249 203.575 145.06 202.69 145.06C201.863 145.06 201.261 145.22 200.883 145.539C200.506 145.844 200.296 146.192 200.252 146.584H198.338C198.367 146.119 198.49 145.691 198.707 145.3C198.94 144.893 199.244 144.545 199.621 144.255C200.013 143.965 200.477 143.74 201.014 143.581C201.551 143.407 202.146 143.319 202.798 143.319C204.162 143.319 205.243 143.646 206.041 144.299C206.853 144.937 207.259 145.989 207.259 147.454V152.132C207.259 152.742 207.259 153.278 207.259 153.743C207.274 154.192 207.31 154.635 207.368 155.07H205.693C205.649 154.736 205.62 154.425 205.605 154.134C205.591 153.83 205.584 153.489 205.584 153.112C205.279 153.721 204.786 154.236 204.104 154.657C203.422 155.077 202.595 155.288 201.623 155.288ZM202.037 153.547C202.487 153.547 202.907 153.489 203.299 153.373C203.705 153.242 204.061 153.061 204.365 152.829C204.67 152.582 204.909 152.285 205.083 151.937C205.257 151.588 205.344 151.182 205.344 150.718V149.935H201.928C201.217 149.935 200.659 150.08 200.252 150.37C199.846 150.645 199.643 151.088 199.643 151.697C199.643 152.234 199.832 152.676 200.209 153.025C200.601 153.373 201.21 153.547 202.037 153.547ZM210.097 155.288C209.88 155.288 209.662 155.266 209.445 155.222V153.307C209.517 153.322 209.626 153.329 209.771 153.329C210.09 153.329 210.366 153.228 210.598 153.025C210.845 152.821 211.04 152.466 211.185 151.958C211.331 151.451 211.439 150.762 211.512 149.891C211.584 149.021 211.621 147.918 211.621 146.584V143.537H219.89V155.07H217.975V145.234H213.536V147.019C213.536 148.629 213.463 149.964 213.318 151.023C213.173 152.082 212.955 152.93 212.665 153.569C212.39 154.192 212.034 154.635 211.599 154.896C211.164 155.157 210.663 155.288 210.097 155.288ZM223.37 143.537H225.285V147.889H227.614C229.064 147.889 230.131 148.208 230.812 148.847C231.509 149.485 231.857 150.37 231.857 151.501C231.857 152.604 231.509 153.474 230.812 154.113C230.131 154.751 229.064 155.07 227.614 155.07H223.37V143.537ZM227.505 153.373C228.404 153.373 229.035 153.213 229.398 152.894C229.761 152.575 229.942 152.103 229.942 151.48C229.942 150.856 229.761 150.384 229.398 150.065C229.035 149.746 228.404 149.586 227.505 149.586H225.285V153.373H227.505ZM233.641 143.537H235.556V155.07H233.641V143.537Z" fill="black"/>
</svg>
