<svg width="1367" height="723" viewBox="0 0 1367 723" fill="none" xmlns="http://www.w3.org/2000/svg">
<path d="M803.029 613.989H806.663V602.782L803.029 605.372V603.152L806.706 600.541H808.752V613.989H811.733V615.773H803.029V613.989ZM818.595 615.991C817.768 615.991 817.028 615.882 816.376 615.664C815.737 615.432 815.193 615.12 814.744 614.729C814.294 614.337 813.953 613.88 813.721 613.358C813.489 612.821 813.373 612.248 813.373 611.639H815.418C815.418 612.379 815.672 612.988 816.18 613.467C816.687 613.931 817.493 614.163 818.595 614.163C819.698 614.163 820.503 613.924 821.011 613.445C821.518 612.952 821.772 612.313 821.772 611.53C821.772 610.718 821.511 610.065 820.989 609.571C820.481 609.064 819.683 608.81 818.595 608.81H816.963V607.069H818.595C819.64 607.069 820.394 606.851 820.858 606.416C821.322 605.967 821.555 605.35 821.555 604.567C821.555 603.812 821.33 603.225 820.88 602.804C820.43 602.369 819.669 602.151 818.595 602.151C817.565 602.151 816.811 602.376 816.332 602.826C815.868 603.261 815.636 603.805 815.636 604.458H813.59C813.59 603.892 813.699 603.355 813.917 602.848C814.149 602.34 814.475 601.905 814.896 601.542C815.331 601.165 815.853 600.867 816.463 600.65C817.086 600.432 817.797 600.323 818.595 600.323C819.393 600.323 820.104 600.432 820.728 600.65C821.351 600.867 821.874 601.157 822.294 601.52C822.73 601.883 823.056 602.311 823.274 602.804C823.491 603.297 823.6 603.812 823.6 604.349C823.6 605.219 823.368 605.959 822.904 606.569C822.454 607.163 821.816 607.584 820.989 607.831C821.859 608.106 822.548 608.556 823.056 609.18C823.564 609.804 823.818 610.66 823.818 611.748C823.818 612.328 823.702 612.879 823.469 613.401C823.237 613.909 822.896 614.359 822.447 614.75C822.012 615.128 821.468 615.432 820.815 615.664C820.162 615.882 819.422 615.991 818.595 615.991ZM831.759 615.991C830.86 615.991 830.069 615.882 829.387 615.664C828.706 615.447 828.133 615.149 827.668 614.772C827.219 614.395 826.878 613.953 826.646 613.445C826.428 612.923 826.319 612.357 826.319 611.748C826.319 610.877 826.595 610.101 827.146 609.419C827.697 608.723 828.51 608.23 829.583 607.939C829.192 607.809 828.822 607.635 828.474 607.417C828.14 607.185 827.842 606.917 827.581 606.612C827.32 606.307 827.117 605.967 826.972 605.589C826.827 605.198 826.754 604.784 826.754 604.349C826.754 603.783 826.863 603.254 827.081 602.761C827.298 602.267 827.618 601.847 828.038 601.498C828.459 601.136 828.981 600.853 829.605 600.65C830.229 600.432 830.947 600.323 831.759 600.323C832.572 600.323 833.29 600.432 833.914 600.65C834.537 600.853 835.06 601.136 835.48 601.498C835.901 601.847 836.22 602.267 836.438 602.761C836.655 603.254 836.764 603.783 836.764 604.349C836.764 605.219 836.489 605.959 835.937 606.569C835.401 607.178 834.733 607.635 833.935 607.939C835.023 608.302 835.836 608.781 836.373 609.376C836.924 609.97 837.199 610.761 837.199 611.748C837.199 612.357 837.083 612.923 836.851 613.445C836.634 613.953 836.293 614.395 835.828 614.772C835.379 615.149 834.813 615.447 834.131 615.664C833.449 615.882 832.659 615.991 831.759 615.991ZM831.759 614.163C832.383 614.163 832.913 614.098 833.348 613.967C833.783 613.822 834.131 613.641 834.392 613.423C834.668 613.191 834.864 612.923 834.98 612.618C835.096 612.299 835.154 611.965 835.154 611.617C835.154 611.211 835.067 610.841 834.893 610.507C834.733 610.174 834.501 609.883 834.196 609.637C833.892 609.376 833.529 609.173 833.108 609.027C832.702 608.868 832.253 608.759 831.759 608.701C831.266 608.759 830.809 608.868 830.388 609.027C829.982 609.173 829.627 609.368 829.322 609.615C829.018 609.862 828.778 610.159 828.604 610.507C828.444 610.841 828.365 611.211 828.365 611.617C828.365 611.965 828.423 612.299 828.539 612.618C828.655 612.923 828.843 613.191 829.105 613.423C829.38 613.641 829.736 613.822 830.171 613.967C830.606 614.098 831.136 614.163 831.759 614.163ZM831.759 607.178C832.63 607.062 833.341 606.786 833.892 606.351C834.443 605.901 834.719 605.27 834.719 604.458C834.719 603.718 834.472 603.152 833.979 602.761C833.5 602.354 832.76 602.151 831.759 602.151C830.744 602.151 829.997 602.354 829.518 602.761C829.039 603.152 828.8 603.718 828.8 604.458C828.8 605.27 829.076 605.901 829.627 606.351C830.178 606.786 830.889 607.062 831.759 607.178ZM851.895 609.68C851.431 609.68 851.01 609.593 850.633 609.419C850.256 609.245 849.901 609.056 849.567 608.853C849.233 608.65 848.907 608.462 848.588 608.288C848.283 608.114 847.971 608.027 847.652 608.027C847.362 608.027 847.115 608.099 846.912 608.244C846.709 608.389 846.535 608.542 846.39 608.701C846.23 608.89 846.093 609.107 845.976 609.354L844.606 608.483C844.794 608.063 845.034 607.686 845.324 607.352C845.57 607.062 845.889 606.801 846.281 606.569C846.687 606.322 847.181 606.199 847.761 606.199C848.225 606.199 848.646 606.286 849.023 606.46C849.4 606.634 849.756 606.822 850.089 607.026C850.423 607.229 850.742 607.417 851.047 607.591C851.351 607.765 851.67 607.852 852.004 607.852C852.294 607.852 852.541 607.787 852.744 607.657C852.947 607.512 853.121 607.359 853.266 607.2C853.426 607.011 853.564 606.786 853.68 606.525L855.051 607.395C854.862 607.831 854.623 608.215 854.332 608.549C854.086 608.839 853.759 609.1 853.353 609.332C852.947 609.564 852.461 609.68 851.895 609.68ZM862.445 613.989H866.079V602.782L862.445 605.372V603.152L866.122 600.541H868.168V613.989H871.149V615.773H862.445V613.989ZM873.006 613.989H876.64V602.782L873.006 605.372V603.152L876.684 600.541H878.729V613.989H881.71V615.773H873.006V613.989ZM889.117 615.991C888.377 615.991 887.673 615.867 887.006 615.621C886.353 615.374 885.78 614.954 885.287 614.359C884.793 613.749 884.402 612.944 884.112 611.943C883.822 610.928 883.676 609.666 883.676 608.157V607.722C883.676 606.315 883.822 605.14 884.112 604.197C884.402 603.254 884.793 602.499 885.287 601.934C885.78 601.353 886.353 600.94 887.006 600.693C887.673 600.447 888.377 600.323 889.117 600.323C889.856 600.323 890.553 600.447 891.206 600.693C891.873 600.94 892.453 601.353 892.946 601.934C893.44 602.499 893.831 603.254 894.121 604.197C894.412 605.14 894.557 606.315 894.557 607.722V608.157C894.557 609.666 894.412 610.928 894.121 611.943C893.831 612.944 893.44 613.749 892.946 614.359C892.453 614.954 891.873 615.374 891.206 615.621C890.553 615.867 889.856 615.991 889.117 615.991ZM889.117 614.206C889.566 614.206 889.994 614.127 890.4 613.967C890.821 613.793 891.184 613.488 891.488 613.053C891.808 612.603 892.054 611.987 892.228 611.204C892.417 610.42 892.511 609.405 892.511 608.157V607.722C892.511 606.59 892.417 605.662 892.228 604.937C892.054 604.211 891.808 603.638 891.488 603.217C891.184 602.797 890.821 602.507 890.4 602.347C889.994 602.187 889.566 602.108 889.117 602.108C888.652 602.108 888.217 602.187 887.811 602.347C887.405 602.507 887.042 602.797 886.723 603.217C886.418 603.638 886.172 604.211 885.983 604.937C885.809 605.662 885.722 606.59 885.722 607.722V608.157C885.722 609.405 885.809 610.42 885.983 611.204C886.172 611.987 886.418 612.603 886.723 613.053C887.042 613.488 887.405 613.793 887.811 613.967C888.217 614.127 888.652 614.206 889.117 614.206ZM902.611 615.991C901.871 615.991 901.167 615.867 900.5 615.621C899.847 615.374 899.274 614.954 898.781 614.359C898.287 613.749 897.896 612.944 897.606 611.943C897.315 610.928 897.17 609.666 897.17 608.157V607.722C897.17 606.315 897.315 605.14 897.606 604.197C897.896 603.254 898.287 602.499 898.781 601.934C899.274 601.353 899.847 600.94 900.5 600.693C901.167 600.447 901.871 600.323 902.611 600.323C903.35 600.323 904.047 600.447 904.699 600.693C905.367 600.94 905.947 601.353 906.44 601.934C906.934 602.499 907.325 603.254 907.615 604.197C907.906 605.14 908.051 606.315 908.051 607.722V608.157C908.051 609.666 907.906 610.928 907.615 611.943C907.325 612.944 906.934 613.749 906.44 614.359C905.947 614.954 905.367 615.374 904.699 615.621C904.047 615.867 903.35 615.991 902.611 615.991ZM902.611 614.206C903.06 614.206 903.488 614.127 903.894 613.967C904.315 613.793 904.678 613.488 904.982 613.053C905.302 612.603 905.548 611.987 905.722 611.204C905.911 610.42 906.005 609.405 906.005 608.157V607.722C906.005 606.59 905.911 605.662 905.722 604.937C905.548 604.211 905.302 603.638 904.982 603.217C904.678 602.797 904.315 602.507 903.894 602.347C903.488 602.187 903.06 602.108 902.611 602.108C902.146 602.108 901.711 602.187 901.305 602.347C900.899 602.507 900.536 602.797 900.217 603.217C899.912 603.638 899.666 604.211 899.477 604.937C899.303 605.662 899.216 606.59 899.216 607.722V608.157C899.216 609.405 899.303 610.42 899.477 611.204C899.666 611.987 899.912 612.603 900.217 613.053C900.536 613.488 900.899 613.793 901.305 613.967C901.711 614.127 902.146 614.206 902.611 614.206ZM916.54 604.24H918.455V609.071H919.978L924.286 604.24H926.549L921.545 609.767L926.767 615.773H924.33L919.978 610.725H918.455V615.773H916.54V604.24ZM929.491 600.541H939.066V602.325H931.537V615.773H929.491V600.541ZM948.21 615.773H938.831V604.24H940.746V614.076H946.273V604.24H948.188V614.076H950.038V618.493H948.21V615.773Z" fill="black"/>
<path d="M106.746 615.991C106.006 615.991 105.302 615.867 104.635 615.621C103.982 615.374 103.409 614.954 102.916 614.359C102.423 613.749 102.031 612.944 101.741 611.943C101.451 610.928 101.306 609.666 101.306 608.157V607.722C101.306 606.315 101.451 605.14 101.741 604.197C102.031 603.254 102.423 602.499 102.916 601.934C103.409 601.353 103.982 600.94 104.635 600.693C105.302 600.447 106.006 600.323 106.746 600.323C107.486 600.323 108.182 600.447 108.835 600.693C109.502 600.94 110.082 601.353 110.576 601.934C111.069 602.499 111.46 603.254 111.751 604.197C112.041 605.14 112.186 606.315 112.186 607.722V608.157C112.186 609.666 112.041 610.928 111.751 611.943C111.46 612.944 111.069 613.749 110.576 614.359C110.082 614.954 109.502 615.374 108.835 615.621C108.182 615.867 107.486 615.991 106.746 615.991ZM106.746 614.206C107.195 614.206 107.623 614.127 108.03 613.967C108.45 613.793 108.813 613.488 109.118 613.053C109.437 612.603 109.683 611.987 109.857 611.204C110.046 610.42 110.14 609.405 110.14 608.157V607.722C110.14 606.59 110.046 605.662 109.857 604.937C109.683 604.211 109.437 603.638 109.118 603.217C108.813 602.797 108.45 602.507 108.03 602.347C107.623 602.187 107.195 602.108 106.746 602.108C106.281 602.108 105.846 602.187 105.44 602.347C105.034 602.507 104.671 602.797 104.352 603.217C104.047 603.638 103.801 604.211 103.612 604.937C103.438 605.662 103.351 606.59 103.351 607.722V608.157C103.351 609.405 103.438 610.42 103.612 611.204C103.801 611.987 104.047 612.603 104.352 613.053C104.671 613.488 105.034 613.793 105.44 613.967C105.846 614.127 106.281 614.206 106.746 614.206ZM121.545 609.68C121.081 609.68 120.66 609.593 120.283 609.419C119.906 609.245 119.551 609.056 119.217 608.853C118.883 608.65 118.557 608.462 118.238 608.288C117.933 608.114 117.621 608.027 117.302 608.027C117.012 608.027 116.765 608.099 116.562 608.244C116.359 608.389 116.185 608.542 116.04 608.701C115.88 608.89 115.743 609.107 115.626 609.354L114.256 608.483C114.444 608.063 114.684 607.686 114.974 607.352C115.22 607.062 115.539 606.801 115.931 606.569C116.337 606.322 116.831 606.199 117.411 606.199C117.875 606.199 118.296 606.286 118.673 606.46C119.05 606.634 119.406 606.822 119.739 607.026C120.073 607.229 120.392 607.417 120.697 607.591C121.001 607.765 121.32 607.852 121.654 607.852C121.944 607.852 122.191 607.787 122.394 607.657C122.597 607.512 122.771 607.359 122.916 607.2C123.076 607.011 123.214 606.786 123.33 606.525L124.701 607.395C124.512 607.831 124.273 608.215 123.982 608.549C123.736 608.839 123.409 609.1 123.003 609.332C122.597 609.564 122.111 609.68 121.545 609.68ZM133.64 612.096H125.893V610.529L133.422 600.541H135.685V610.311H137.644V612.096H135.685V615.773H133.64V612.096ZM133.64 610.311V602.935L128.069 610.311H133.64ZM145.92 604.24H147.835V609.071H149.358L153.667 604.24H155.93L150.925 609.767L156.148 615.773H153.71L149.358 610.725H147.835V615.773H145.92V604.24ZM158.872 600.541H168.447V602.325H160.917V615.773H158.872V600.541ZM177.591 615.773H168.212V604.24H170.127V614.076H175.654V604.24H177.569V614.076H179.418V618.493H177.591V615.773Z" fill="black"/>
<path d="M327.398 616.849L333.491 611.562C333.955 611.17 334.332 610.814 334.622 610.495C334.927 610.176 335.166 609.879 335.34 609.603C335.514 609.313 335.63 609.03 335.688 608.755C335.761 608.479 335.797 608.181 335.797 607.862C335.797 607.006 335.543 606.303 335.036 605.752C334.528 605.186 333.832 604.903 332.947 604.903C331.888 604.903 331.075 605.193 330.509 605.773C329.944 606.339 329.661 607.144 329.661 608.189H327.615C327.615 607.449 327.739 606.767 327.985 606.143C328.246 605.505 328.609 604.961 329.073 604.511C329.552 604.062 330.118 603.713 330.771 603.467C331.423 603.206 332.149 603.075 332.947 603.075C333.716 603.075 334.405 603.198 335.014 603.445C335.623 603.677 336.138 604.011 336.559 604.446C336.98 604.867 337.299 605.367 337.516 605.947C337.734 606.528 337.843 607.166 337.843 607.862C337.843 608.385 337.763 608.871 337.603 609.32C337.444 609.77 337.219 610.198 336.929 610.604C336.653 611.01 336.312 611.409 335.906 611.801C335.514 612.178 335.079 612.57 334.6 612.976L330.053 616.741H338.06V618.525H327.398V616.849ZM346.005 618.743C345.163 618.743 344.402 618.605 343.72 618.329C343.038 618.053 342.45 617.633 341.957 617.067C341.478 616.487 341.108 615.761 340.847 614.891C340.586 614.021 340.456 612.983 340.456 611.779V611.344C340.456 609.85 340.608 608.58 340.913 607.536C341.217 606.477 341.631 605.621 342.153 604.968C342.675 604.301 343.285 603.822 343.981 603.532C344.677 603.227 345.424 603.075 346.222 603.075C347.397 603.075 348.384 603.358 349.182 603.924C349.994 604.475 350.531 605.316 350.792 606.448H348.746C348.34 605.418 347.499 604.903 346.222 604.903C345.671 604.903 345.163 604.997 344.699 605.186C344.235 605.374 343.829 605.686 343.48 606.122C343.147 606.557 342.878 607.137 342.675 607.862C342.472 608.588 342.356 609.494 342.327 610.582C342.53 610.234 342.777 609.937 343.067 609.69C343.357 609.429 343.669 609.226 344.003 609.081C344.351 608.921 344.706 608.805 345.069 608.733C345.432 608.66 345.78 608.624 346.113 608.624C347.637 608.624 348.848 609.052 349.747 609.908C350.661 610.749 351.118 611.961 351.118 613.542V613.759C351.118 614.485 350.98 615.152 350.705 615.761C350.444 616.371 350.081 616.9 349.617 617.35C349.153 617.785 348.609 618.126 347.985 618.373C347.361 618.619 346.701 618.743 346.005 618.743ZM345.83 616.915C346.889 616.915 347.695 616.646 348.246 616.11C348.797 615.573 349.073 614.797 349.073 613.781V613.564C349.073 612.563 348.797 611.794 348.246 611.257C347.695 610.72 346.889 610.452 345.83 610.452C344.771 610.452 343.966 610.72 343.415 611.257C342.864 611.794 342.588 612.563 342.588 613.564V613.781C342.588 614.782 342.864 615.558 343.415 616.11C343.966 616.646 344.771 616.915 345.83 616.915ZM360.377 612.432C359.912 612.432 359.492 612.345 359.114 612.171C358.737 611.997 358.382 611.808 358.048 611.605C357.715 611.402 357.388 611.213 357.069 611.039C356.764 610.865 356.452 610.778 356.133 610.778C355.843 610.778 355.597 610.851 355.393 610.996C355.19 611.141 355.016 611.293 354.871 611.453C354.712 611.641 354.574 611.859 354.458 612.106L353.087 611.235C353.275 610.814 353.515 610.437 353.805 610.104C354.052 609.814 354.371 609.552 354.762 609.32C355.169 609.074 355.662 608.95 356.242 608.95C356.706 608.95 357.127 609.037 357.504 609.211C357.881 609.386 358.237 609.574 358.57 609.777C358.904 609.98 359.223 610.169 359.528 610.343C359.833 610.517 360.152 610.604 360.485 610.604C360.776 610.604 361.022 610.539 361.225 610.408C361.428 610.263 361.602 610.111 361.747 609.951C361.907 609.763 362.045 609.538 362.161 609.277L363.532 610.147C363.343 610.582 363.104 610.967 362.814 611.3C362.567 611.591 362.241 611.852 361.835 612.084C361.428 612.316 360.942 612.432 360.377 612.432ZM370.926 616.741H374.56V605.534L370.926 608.123V605.904L374.604 603.293H376.649V616.741H379.63V618.525H370.926V616.741ZM386.492 618.743C385.666 618.743 384.926 618.634 384.273 618.416C383.635 618.184 383.091 617.872 382.641 617.48C382.191 617.089 381.85 616.632 381.618 616.11C381.386 615.573 381.27 615 381.27 614.39H383.315C383.315 615.13 383.569 615.74 384.077 616.218C384.585 616.683 385.39 616.915 386.492 616.915C387.595 616.915 388.4 616.675 388.908 616.197C389.416 615.703 389.669 615.065 389.669 614.282C389.669 613.469 389.408 612.816 388.886 612.323C388.378 611.815 387.58 611.562 386.492 611.562H384.86V609.821H386.492C387.537 609.821 388.291 609.603 388.755 609.168C389.22 608.718 389.452 608.102 389.452 607.318C389.452 606.564 389.227 605.976 388.777 605.556C388.328 605.121 387.566 604.903 386.492 604.903C385.462 604.903 384.708 605.128 384.229 605.577C383.765 606.013 383.533 606.557 383.533 607.21H381.488C381.488 606.644 381.596 606.107 381.814 605.599C382.046 605.092 382.372 604.656 382.793 604.294C383.228 603.916 383.751 603.619 384.36 603.401C384.984 603.184 385.695 603.075 386.492 603.075C387.29 603.075 388.001 603.184 388.625 603.401C389.249 603.619 389.771 603.909 390.192 604.272C390.627 604.635 390.953 605.062 391.171 605.556C391.388 606.049 391.497 606.564 391.497 607.101C391.497 607.971 391.265 608.711 390.801 609.32C390.351 609.915 389.713 610.336 388.886 610.582C389.756 610.858 390.446 611.308 390.953 611.932C391.461 612.555 391.715 613.411 391.715 614.499C391.715 615.08 391.599 615.631 391.367 616.153C391.135 616.661 390.794 617.11 390.344 617.502C389.909 617.879 389.365 618.184 388.712 618.416C388.059 618.634 387.319 618.743 386.492 618.743ZM399.657 618.743C398.757 618.743 397.967 618.634 397.285 618.416C396.603 618.198 396.03 617.901 395.566 617.524C395.116 617.147 394.775 616.704 394.543 616.197C394.325 615.674 394.216 615.109 394.216 614.499C394.216 613.629 394.492 612.853 395.043 612.171C395.595 611.475 396.407 610.981 397.481 610.691C397.089 610.561 396.719 610.387 396.371 610.169C396.037 609.937 395.74 609.668 395.479 609.364C395.217 609.059 395.014 608.718 394.869 608.341C394.724 607.949 394.652 607.536 394.652 607.101C394.652 606.535 394.76 606.005 394.978 605.512C395.196 605.019 395.515 604.598 395.936 604.25C396.356 603.887 396.878 603.605 397.502 603.401C398.126 603.184 398.844 603.075 399.657 603.075C400.469 603.075 401.187 603.184 401.811 603.401C402.435 603.605 402.957 603.887 403.378 604.25C403.798 604.598 404.117 605.019 404.335 605.512C404.553 606.005 404.661 606.535 404.661 607.101C404.661 607.971 404.386 608.711 403.835 609.32C403.298 609.93 402.63 610.387 401.833 610.691C402.921 611.054 403.733 611.533 404.27 612.127C404.821 612.722 405.097 613.513 405.097 614.499C405.097 615.109 404.981 615.674 404.748 616.197C404.531 616.704 404.19 617.147 403.726 617.524C403.276 617.901 402.71 618.198 402.028 618.416C401.347 618.634 400.556 618.743 399.657 618.743ZM399.657 616.915C400.28 616.915 400.81 616.849 401.245 616.719C401.68 616.574 402.028 616.392 402.29 616.175C402.565 615.943 402.761 615.674 402.877 615.37C402.993 615.05 403.051 614.717 403.051 614.369C403.051 613.962 402.964 613.593 402.79 613.259C402.63 612.925 402.398 612.635 402.094 612.388C401.789 612.127 401.426 611.924 401.006 611.779C400.6 611.62 400.15 611.511 399.657 611.453C399.163 611.511 398.706 611.62 398.286 611.779C397.879 611.924 397.524 612.12 397.219 612.367C396.915 612.613 396.675 612.911 396.501 613.259C396.342 613.593 396.262 613.962 396.262 614.369C396.262 614.717 396.32 615.05 396.436 615.37C396.552 615.674 396.741 615.943 397.002 616.175C397.277 616.392 397.633 616.574 398.068 616.719C398.503 616.849 399.033 616.915 399.657 616.915ZM399.657 609.93C400.527 609.814 401.238 609.538 401.789 609.103C402.34 608.653 402.616 608.022 402.616 607.21C402.616 606.47 402.369 605.904 401.876 605.512C401.397 605.106 400.658 604.903 399.657 604.903C398.641 604.903 397.894 605.106 397.415 605.512C396.937 605.904 396.697 606.47 396.697 607.21C396.697 608.022 396.973 608.653 397.524 609.103C398.075 609.538 398.786 609.814 399.657 609.93ZM413.482 606.992H415.397V611.823H416.92L421.229 606.992H423.492L418.487 612.519L423.709 618.525H421.272L416.92 613.477H415.397V618.525H413.482V606.992ZM426.434 603.293H436.008V605.077H428.479V618.525H426.434V603.293ZM445.152 618.525H435.774V606.992H437.689V616.828H443.216V606.992H445.131V616.828H446.98V621.245H445.152V618.525Z" fill="black"/>
<path d="M709.676 226.266H711.722V232.772H719.816V226.266H721.862V241.498H719.816V234.556H711.722V241.498H709.676V226.266ZM725.774 229.965H727.689V238.669L733.651 229.965H735.566V241.498H733.651V232.794L727.689 241.498H725.774V229.965ZM743.516 241.715C742.776 241.715 742.087 241.599 741.449 241.367C740.81 241.121 740.259 240.758 739.795 240.279C739.331 239.786 738.961 239.169 738.685 238.43C738.424 237.69 738.293 236.827 738.293 235.84V235.405C738.293 234.476 738.439 233.657 738.729 232.946C739.019 232.235 739.403 231.648 739.882 231.183C740.361 230.705 740.912 230.349 741.536 230.117C742.174 229.871 742.834 229.747 743.516 229.747C744.198 229.747 744.807 229.842 745.344 230.03C745.895 230.219 746.367 230.48 746.758 230.813C747.164 231.147 747.491 231.539 747.737 231.989C747.999 232.438 748.187 232.924 748.303 233.446H746.345C746.229 233.171 746.091 232.917 745.931 232.685C745.786 232.438 745.598 232.228 745.366 232.054C745.148 231.88 744.887 231.742 744.582 231.64C744.278 231.539 743.922 231.488 743.516 231.488C743.095 231.488 742.689 231.568 742.297 231.727C741.906 231.872 741.557 232.105 741.253 232.424C740.948 232.728 740.702 233.127 740.513 233.621C740.339 234.114 740.252 234.709 740.252 235.405V235.84C740.252 236.58 740.339 237.218 740.513 237.755C740.702 238.277 740.948 238.705 741.253 239.039C741.557 239.358 741.906 239.597 742.297 239.757C742.689 239.902 743.095 239.975 743.516 239.975C744.227 239.975 744.822 239.8 745.3 239.452C745.794 239.104 746.142 238.625 746.345 238.016H748.303C748.028 239.162 747.462 240.069 746.606 240.736C745.75 241.389 744.72 241.715 743.516 241.715ZM753.834 235.644L749.721 229.965H751.941L754.987 234.165L758.033 229.965H760.166L756.053 235.535L760.384 241.498H758.121L754.9 236.993L751.679 241.498H749.503L753.834 235.644ZM767.026 241.715C766.287 241.715 765.583 241.599 764.916 241.367C764.248 241.121 763.661 240.758 763.153 240.279C762.645 239.786 762.239 239.169 761.935 238.43C761.63 237.69 761.478 236.827 761.478 235.84V235.405C761.478 234.476 761.63 233.657 761.935 232.946C762.239 232.235 762.645 231.648 763.153 231.183C763.661 230.705 764.248 230.349 764.916 230.117C765.583 229.871 766.287 229.747 767.026 229.747C767.766 229.747 768.47 229.871 769.137 230.117C769.805 230.349 770.392 230.705 770.9 231.183C771.408 231.648 771.814 232.235 772.118 232.946C772.423 233.657 772.575 234.476 772.575 235.405V235.84C772.575 236.827 772.423 237.69 772.118 238.43C771.814 239.169 771.408 239.786 770.9 240.279C770.392 240.758 769.805 241.121 769.137 241.367C768.47 241.599 767.766 241.715 767.026 241.715ZM767.026 239.975C767.462 239.975 767.897 239.902 768.332 239.757C768.767 239.597 769.152 239.358 769.485 239.039C769.819 238.705 770.087 238.277 770.291 237.755C770.508 237.233 770.617 236.594 770.617 235.84V235.405C770.617 234.709 770.508 234.114 770.291 233.621C770.087 233.127 769.819 232.721 769.485 232.402C769.152 232.083 768.767 231.851 768.332 231.706C767.897 231.561 767.462 231.488 767.026 231.488C766.591 231.488 766.156 231.561 765.721 231.706C765.286 231.851 764.901 232.083 764.568 232.402C764.234 232.721 763.958 233.127 763.741 233.621C763.538 234.114 763.436 234.709 763.436 235.405V235.84C763.436 236.594 763.538 237.233 763.741 237.755C763.958 238.277 764.234 238.705 764.568 239.039C764.901 239.358 765.286 239.597 765.721 239.757C766.156 239.902 766.591 239.975 767.026 239.975ZM773.769 239.8H775.183C775.343 239.583 775.488 239.249 775.618 238.8C775.749 238.35 775.865 237.82 775.967 237.211C776.068 236.602 776.141 235.942 776.184 235.231C776.242 234.505 776.271 233.766 776.271 233.011V229.965H784.323V239.8H785.955V244.218H784.127V241.498H775.597V244.218H773.769V239.8ZM782.408 239.8V231.662H778.143V233.446C778.143 234.056 778.121 234.665 778.077 235.274C778.034 235.869 777.969 236.442 777.881 236.993C777.794 237.53 777.686 238.045 777.555 238.538C777.439 239.017 777.301 239.438 777.142 239.8H782.408ZM790.725 236.928C789.768 236.711 789.079 236.319 788.658 235.753C788.237 235.173 788.027 234.433 788.027 233.534C788.027 232.402 788.368 231.524 789.05 230.901C789.746 230.277 790.856 229.965 792.379 229.965H797.384V241.498H795.469V237.102H792.531L789.724 241.498H787.592L790.725 236.928ZM789.942 233.534C789.942 234.143 790.116 234.607 790.464 234.926C790.827 235.245 791.429 235.405 792.27 235.405H795.469V231.662H792.27C791.429 231.662 790.827 231.822 790.464 232.141C790.116 232.46 789.942 232.924 789.942 233.534ZM815.038 241.498H800.872V229.965H802.787V239.8H806.987V229.965H808.902V239.8H813.102V229.965H815.017V239.8H816.866V244.218H815.038V241.498ZM819.148 229.965H821.063V238.669L827.025 229.965H828.94V241.498H827.025V232.794L821.063 241.498H819.148V229.965ZM832.429 229.965H834.344V238.669L840.306 229.965H842.221V241.498H840.306V232.794L834.344 241.498H832.429V229.965ZM837.325 228.55C836.194 228.55 835.367 228.311 834.844 227.832C834.322 227.339 834.061 226.635 834.061 225.722H835.932C835.932 226.708 836.397 227.201 837.325 227.201C838.283 227.201 838.761 226.708 838.761 225.722H840.589C840.589 226.635 840.328 227.339 839.806 227.832C839.284 228.311 838.457 228.55 837.325 228.55ZM851.151 229.965H853.066V234.796H854.589L858.897 229.965H861.16L856.155 235.492L861.378 241.498H858.941L854.589 236.449H853.066V241.498H851.151V229.965ZM866.74 241.715C866.102 241.715 865.536 241.628 865.043 241.454C864.564 241.266 864.158 241.012 863.824 240.693C863.491 240.374 863.237 239.996 863.063 239.561C862.889 239.126 862.802 238.647 862.802 238.125C862.802 236.979 863.135 236.152 863.803 235.644C864.485 235.137 865.457 234.883 866.719 234.883H870.461V234.099C870.461 233.113 870.237 232.431 869.787 232.054C869.352 231.677 868.692 231.488 867.807 231.488C866.98 231.488 866.378 231.648 866.001 231.967C865.623 232.271 865.413 232.62 865.369 233.011H863.455C863.484 232.547 863.607 232.119 863.824 231.727C864.057 231.321 864.361 230.973 864.738 230.683C865.13 230.393 865.594 230.168 866.131 230.008C866.668 229.834 867.263 229.747 867.915 229.747C869.279 229.747 870.36 230.074 871.158 230.726C871.97 231.365 872.376 232.416 872.376 233.882V238.56C872.376 239.169 872.376 239.706 872.376 240.17C872.391 240.62 872.427 241.063 872.485 241.498H870.81C870.766 241.164 870.737 240.852 870.723 240.562C870.708 240.257 870.701 239.917 870.701 239.539C870.396 240.149 869.903 240.664 869.221 241.084C868.539 241.505 867.712 241.715 866.74 241.715ZM867.154 239.975C867.604 239.975 868.024 239.917 868.416 239.8C868.822 239.67 869.178 239.489 869.482 239.256C869.787 239.01 870.026 238.712 870.2 238.364C870.374 238.016 870.461 237.61 870.461 237.146V236.362H867.045C866.334 236.362 865.776 236.507 865.369 236.798C864.963 237.073 864.76 237.516 864.76 238.125C864.76 238.662 864.949 239.104 865.326 239.452C865.718 239.8 866.327 239.975 867.154 239.975ZM875.758 229.965H877.673V234.774H883.636V229.965H885.551V241.498H883.636V236.471H877.673V241.498H875.758V229.965ZM892.326 241.715C891.687 241.715 891.122 241.628 890.628 241.454C890.15 241.266 889.744 241.012 889.41 240.693C889.076 240.374 888.822 239.996 888.648 239.561C888.474 239.126 888.387 238.647 888.387 238.125C888.387 236.979 888.721 236.152 889.388 235.644C890.07 235.137 891.042 234.883 892.304 234.883H896.047V234.099C896.047 233.113 895.822 232.431 895.372 232.054C894.937 231.677 894.277 231.488 893.392 231.488C892.565 231.488 891.963 231.648 891.586 231.967C891.209 232.271 890.998 232.62 890.955 233.011H889.04C889.069 232.547 889.192 232.119 889.41 231.727C889.642 231.321 889.947 230.973 890.324 230.683C890.716 230.393 891.18 230.168 891.716 230.008C892.253 229.834 892.848 229.747 893.501 229.747C894.864 229.747 895.945 230.074 896.743 230.726C897.556 231.365 897.962 232.416 897.962 233.882V238.56C897.962 239.169 897.962 239.706 897.962 240.17C897.976 240.62 898.012 241.063 898.071 241.498H896.395C896.351 241.164 896.322 240.852 896.308 240.562C896.293 240.257 896.286 239.917 896.286 239.539C895.982 240.149 895.488 240.664 894.806 241.084C894.125 241.505 893.298 241.715 892.326 241.715ZM892.739 239.975C893.189 239.975 893.61 239.917 894.001 239.8C894.408 239.67 894.763 239.489 895.068 239.256C895.372 239.01 895.612 238.712 895.786 238.364C895.96 238.016 896.047 237.61 896.047 237.146V236.362H892.63C891.92 236.362 891.361 236.507 890.955 236.798C890.549 237.073 890.346 237.516 890.346 238.125C890.346 238.662 890.534 239.104 890.911 239.452C891.303 239.8 891.912 239.975 892.739 239.975ZM900.8 241.715C900.582 241.715 900.365 241.694 900.147 241.65V239.735C900.22 239.75 900.328 239.757 900.474 239.757C900.793 239.757 901.068 239.655 901.3 239.452C901.547 239.249 901.743 238.894 901.888 238.386C902.033 237.878 902.142 237.189 902.214 236.319C902.287 235.448 902.323 234.346 902.323 233.011V229.965H910.592V241.498H908.677V231.662H904.238V233.446C904.238 235.057 904.166 236.391 904.02 237.45C903.875 238.509 903.658 239.358 903.368 239.996C903.092 240.62 902.737 241.063 902.301 241.324C901.866 241.585 901.366 241.715 900.8 241.715Z" fill="black"/>
<path d="M316.542 226.266H321.982C322.896 226.266 323.68 226.367 324.332 226.57C324.985 226.773 325.522 227.056 325.943 227.419C326.378 227.767 326.697 228.195 326.9 228.703C327.103 229.196 327.205 229.74 327.205 230.335C327.205 231.118 326.987 231.793 326.552 232.358C326.117 232.91 325.58 233.309 324.942 233.555C325.841 233.758 326.552 234.172 327.074 234.796C327.597 235.405 327.858 236.203 327.858 237.189C327.858 237.813 327.756 238.386 327.553 238.908C327.35 239.431 327.031 239.888 326.596 240.279C326.16 240.656 325.595 240.954 324.898 241.171C324.216 241.389 323.39 241.498 322.418 241.498H316.542V226.266ZM322.418 239.713C323.07 239.713 323.614 239.655 324.05 239.539C324.485 239.409 324.833 239.235 325.094 239.017C325.355 238.785 325.537 238.509 325.638 238.19C325.754 237.871 325.812 237.516 325.812 237.124C325.812 236.732 325.754 236.377 325.638 236.058C325.537 235.724 325.355 235.448 325.094 235.231C324.833 234.999 324.478 234.825 324.028 234.709C323.593 234.578 323.049 234.513 322.396 234.513H318.588V239.713H322.418ZM321.982 232.815C322.592 232.815 323.099 232.757 323.506 232.641C323.912 232.525 324.238 232.358 324.485 232.141C324.731 231.923 324.905 231.669 325.007 231.379C325.109 231.089 325.159 230.77 325.159 230.422C325.159 230.074 325.109 229.754 325.007 229.464C324.905 229.16 324.731 228.906 324.485 228.703C324.238 228.5 323.912 228.34 323.506 228.224C323.099 228.108 322.592 228.05 321.982 228.05H318.588V232.815H321.982ZM335.472 241.715C334.732 241.715 334.029 241.599 333.361 241.367C332.694 241.121 332.106 240.758 331.599 240.279C331.091 239.786 330.685 239.169 330.38 238.43C330.075 237.69 329.923 236.827 329.923 235.84V235.405C329.923 234.476 330.075 233.657 330.38 232.946C330.685 232.235 331.091 231.648 331.599 231.183C332.106 230.705 332.694 230.349 333.361 230.117C334.029 229.871 334.732 229.747 335.472 229.747C336.212 229.747 336.915 229.871 337.583 230.117C338.25 230.349 338.838 230.705 339.345 231.183C339.853 231.648 340.259 232.235 340.564 232.946C340.869 233.657 341.021 234.476 341.021 235.405V235.84C341.021 236.827 340.869 237.69 340.564 238.43C340.259 239.169 339.853 239.786 339.345 240.279C338.838 240.758 338.25 241.121 337.583 241.367C336.915 241.599 336.212 241.715 335.472 241.715ZM335.472 239.975C335.907 239.975 336.342 239.902 336.778 239.757C337.213 239.597 337.597 239.358 337.931 239.039C338.265 238.705 338.533 238.277 338.736 237.755C338.954 237.233 339.063 236.594 339.063 235.84V235.405C339.063 234.709 338.954 234.114 338.736 233.621C338.533 233.127 338.265 232.721 337.931 232.402C337.597 232.083 337.213 231.851 336.778 231.706C336.342 231.561 335.907 231.488 335.472 231.488C335.037 231.488 334.602 231.561 334.166 231.706C333.731 231.851 333.347 232.083 333.013 232.402C332.679 232.721 332.404 233.127 332.186 233.621C331.983 234.114 331.882 234.709 331.882 235.405V235.84C331.882 236.594 331.983 237.233 332.186 237.755C332.404 238.277 332.679 238.705 333.013 239.039C333.347 239.358 333.731 239.597 334.166 239.757C334.602 239.902 335.037 239.975 335.472 239.975ZM348.193 241.715C347.454 241.715 346.764 241.599 346.126 241.367C345.488 241.121 344.937 240.758 344.472 240.279C344.008 239.786 343.638 239.169 343.363 238.43C343.101 237.69 342.971 236.827 342.971 235.84V235.405C342.971 234.476 343.116 233.657 343.406 232.946C343.696 232.235 344.081 231.648 344.559 231.183C345.038 230.705 345.589 230.349 346.213 230.117C346.851 229.871 347.512 229.747 348.193 229.747C348.875 229.747 349.484 229.842 350.021 230.03C350.572 230.219 351.044 230.48 351.436 230.813C351.842 231.147 352.168 231.539 352.415 231.989C352.676 232.438 352.865 232.924 352.981 233.446H351.022C350.906 233.171 350.768 232.917 350.609 232.685C350.464 232.438 350.275 232.228 350.043 232.054C349.825 231.88 349.564 231.742 349.26 231.64C348.955 231.539 348.6 231.488 348.193 231.488C347.773 231.488 347.366 231.568 346.975 231.727C346.583 231.872 346.235 232.105 345.93 232.424C345.626 232.728 345.379 233.127 345.19 233.621C345.016 234.114 344.929 234.709 344.929 235.405V235.84C344.929 236.58 345.016 237.218 345.19 237.755C345.379 238.277 345.626 238.705 345.93 239.039C346.235 239.358 346.583 239.597 346.975 239.757C347.366 239.902 347.773 239.975 348.193 239.975C348.904 239.975 349.499 239.8 349.978 239.452C350.471 239.104 350.819 238.625 351.022 238.016H352.981C352.705 239.162 352.139 240.069 351.283 240.736C350.427 241.389 349.397 241.715 348.193 241.715ZM358.511 235.644L354.398 229.965H356.618L359.664 234.165L362.711 229.965H364.843L360.731 235.535L365.061 241.498H362.798L359.577 236.993L356.357 241.498H354.181L358.511 235.644ZM371.704 241.715C370.964 241.715 370.26 241.599 369.593 241.367C368.926 241.121 368.338 240.758 367.831 240.279C367.323 239.786 366.917 239.169 366.612 238.43C366.307 237.69 366.155 236.827 366.155 235.84V235.405C366.155 234.476 366.307 233.657 366.612 232.946C366.917 232.235 367.323 231.648 367.831 231.183C368.338 230.705 368.926 230.349 369.593 230.117C370.26 229.871 370.964 229.747 371.704 229.747C372.444 229.747 373.147 229.871 373.815 230.117C374.482 230.349 375.069 230.705 375.577 231.183C376.085 231.648 376.491 232.235 376.796 232.946C377.1 233.657 377.253 234.476 377.253 235.405V235.84C377.253 236.827 377.1 237.69 376.796 238.43C376.491 239.169 376.085 239.786 375.577 240.279C375.069 240.758 374.482 241.121 373.815 241.367C373.147 241.599 372.444 241.715 371.704 241.715ZM371.704 239.975C372.139 239.975 372.574 239.902 373.01 239.757C373.445 239.597 373.829 239.358 374.163 239.039C374.496 238.705 374.765 238.277 374.968 237.755C375.186 237.233 375.294 236.594 375.294 235.84V235.405C375.294 234.709 375.186 234.114 374.968 233.621C374.765 233.127 374.496 232.721 374.163 232.402C373.829 232.083 373.445 231.851 373.01 231.706C372.574 231.561 372.139 231.488 371.704 231.488C371.269 231.488 370.833 231.561 370.398 231.706C369.963 231.851 369.579 232.083 369.245 232.402C368.911 232.721 368.636 233.127 368.418 233.621C368.215 234.114 368.113 234.709 368.113 235.405V235.84C368.113 236.594 368.215 237.233 368.418 237.755C368.636 238.277 368.911 238.705 369.245 239.039C369.579 239.358 369.963 239.597 370.398 239.757C370.833 239.902 371.269 239.975 371.704 239.975ZM378.446 239.8H379.861C380.02 239.583 380.165 239.249 380.296 238.8C380.426 238.35 380.542 237.82 380.644 237.211C380.746 236.602 380.818 235.942 380.862 235.231C380.92 234.505 380.949 233.766 380.949 233.011V229.965H389V239.8H390.632V244.218H388.804V241.498H380.274V244.218H378.446V239.8ZM387.085 239.8V231.662H382.82V233.446C382.82 234.056 382.798 234.665 382.755 235.274C382.711 235.869 382.646 236.442 382.559 236.993C382.472 237.53 382.363 238.045 382.232 238.538C382.116 239.017 381.979 239.438 381.819 239.8H387.085ZM395.403 236.928C394.445 236.711 393.756 236.319 393.335 235.753C392.915 235.173 392.704 234.433 392.704 233.534C392.704 232.402 393.045 231.524 393.727 230.901C394.423 230.277 395.533 229.965 397.056 229.965H402.061V241.498H400.146V237.102H397.209L394.402 241.498H392.269L395.403 236.928ZM394.619 233.534C394.619 234.143 394.793 234.607 395.141 234.926C395.504 235.245 396.106 235.405 396.948 235.405H400.146V231.662H396.948C396.106 231.662 395.504 231.822 395.141 232.141C394.793 232.46 394.619 232.924 394.619 233.534ZM419.716 241.498H405.55V229.965H407.465V239.8H411.664V229.965H413.579V239.8H417.779V229.965H419.694V239.8H421.544V244.218H419.716V241.498ZM423.825 229.965H425.74V238.669L431.702 229.965H433.617V241.498H431.702V232.794L425.74 241.498H423.825V229.965ZM437.106 229.965H439.021V238.669L444.984 229.965H446.899V241.498H444.984V232.794L439.021 241.498H437.106V229.965ZM442.003 228.55C440.871 228.55 440.044 228.311 439.522 227.832C439 227.339 438.739 226.635 438.739 225.722H440.61C440.61 226.708 441.074 227.201 442.003 227.201C442.96 227.201 443.439 226.708 443.439 225.722H445.267C445.267 226.635 445.005 227.339 444.483 227.832C443.961 228.311 443.134 228.55 442.003 228.55ZM455.828 229.965H457.743V234.796H459.266L463.575 229.965H465.838L460.833 235.492L466.055 241.498H463.618L459.266 236.449H457.743V241.498H455.828V229.965ZM471.418 241.715C470.779 241.715 470.214 241.628 469.72 241.454C469.242 241.266 468.836 241.012 468.502 240.693C468.168 240.374 467.914 239.996 467.74 239.561C467.566 239.126 467.479 238.647 467.479 238.125C467.479 236.979 467.813 236.152 468.48 235.644C469.162 235.137 470.134 234.883 471.396 234.883H475.139V234.099C475.139 233.113 474.914 232.431 474.464 232.054C474.029 231.677 473.369 231.488 472.484 231.488C471.657 231.488 471.055 231.648 470.678 231.967C470.301 232.271 470.09 232.62 470.047 233.011H468.132C468.161 232.547 468.284 232.119 468.502 231.727C468.734 231.321 469.039 230.973 469.416 230.683C469.808 230.393 470.272 230.168 470.809 230.008C471.345 229.834 471.94 229.747 472.593 229.747C473.957 229.747 475.037 230.074 475.835 230.726C476.648 231.365 477.054 232.416 477.054 233.882V238.56C477.054 239.169 477.054 239.706 477.054 240.17C477.068 240.62 477.105 241.063 477.163 241.498H475.487C475.443 241.164 475.414 240.852 475.4 240.562C475.385 240.257 475.378 239.917 475.378 239.539C475.074 240.149 474.58 240.664 473.898 241.084C473.217 241.505 472.39 241.715 471.418 241.715ZM471.831 239.975C472.281 239.975 472.702 239.917 473.093 239.8C473.5 239.67 473.855 239.489 474.16 239.256C474.464 239.01 474.704 238.712 474.878 238.364C475.052 238.016 475.139 237.61 475.139 237.146V236.362H471.722C471.012 236.362 470.453 236.507 470.047 236.798C469.641 237.073 469.438 237.516 469.438 238.125C469.438 238.662 469.626 239.104 470.003 239.452C470.395 239.8 471.004 239.975 471.831 239.975ZM480.436 229.965H482.351V234.774H488.313V229.965H490.228V241.498H488.313V236.471H482.351V241.498H480.436V229.965ZM497.003 241.715C496.365 241.715 495.799 241.628 495.306 241.454C494.827 241.266 494.421 241.012 494.087 240.693C493.754 240.374 493.5 239.996 493.326 239.561C493.152 239.126 493.065 238.647 493.065 238.125C493.065 236.979 493.398 236.152 494.066 235.644C494.747 235.137 495.719 234.883 496.981 234.883H500.724V234.099C500.724 233.113 500.499 232.431 500.05 232.054C499.614 231.677 498.954 231.488 498.069 231.488C497.243 231.488 496.641 231.648 496.263 231.967C495.886 232.271 495.676 232.62 495.632 233.011H493.717C493.746 232.547 493.87 232.119 494.087 231.727C494.319 231.321 494.624 230.973 495.001 230.683C495.393 230.393 495.857 230.168 496.394 230.008C496.931 229.834 497.525 229.747 498.178 229.747C499.542 229.747 500.623 230.074 501.421 230.726C502.233 231.365 502.639 232.416 502.639 233.882V238.56C502.639 239.169 502.639 239.706 502.639 240.17C502.654 240.62 502.69 241.063 502.748 241.498H501.072C501.029 241.164 501 240.852 500.985 240.562C500.971 240.257 500.964 239.917 500.964 239.539C500.659 240.149 500.166 240.664 499.484 241.084C498.802 241.505 497.975 241.715 497.003 241.715ZM497.417 239.975C497.866 239.975 498.287 239.917 498.679 239.8C499.085 239.67 499.44 239.489 499.745 239.256C500.05 239.01 500.289 238.712 500.463 238.364C500.637 238.016 500.724 237.61 500.724 237.146V236.362H497.308C496.597 236.362 496.038 236.507 495.632 236.798C495.226 237.073 495.023 237.516 495.023 238.125C495.023 238.662 495.212 239.104 495.589 239.452C495.98 239.8 496.59 239.975 497.417 239.975ZM505.477 241.715C505.26 241.715 505.042 241.694 504.825 241.65V239.735C504.897 239.75 505.006 239.757 505.151 239.757C505.47 239.757 505.746 239.655 505.978 239.452C506.224 239.249 506.42 238.894 506.565 238.386C506.71 237.878 506.819 237.189 506.892 236.319C506.964 235.448 507.001 234.346 507.001 233.011V229.965H515.269V241.498H513.355V231.662H508.915V233.446C508.915 235.057 508.843 236.391 508.698 237.45C508.553 238.509 508.335 239.358 508.045 239.996C507.769 240.62 507.414 241.063 506.979 241.324C506.544 241.585 506.043 241.715 505.477 241.715Z" fill="black"/>
<path d="M116.116 239.256C116.116 237.834 116.312 236.543 116.703 235.383C117.109 234.222 117.559 233.214 118.052 232.358C118.618 231.371 119.264 230.479 119.989 229.681H122.209C121.425 230.479 120.736 231.371 120.141 232.358C119.88 232.779 119.626 233.243 119.38 233.751C119.133 234.258 118.908 234.802 118.705 235.383C118.517 235.963 118.364 236.579 118.248 237.232C118.132 237.87 118.074 238.545 118.074 239.256V239.691C118.074 240.402 118.132 241.084 118.248 241.737C118.364 242.389 118.517 243.006 118.705 243.586C118.908 244.166 119.133 244.71 119.38 245.218C119.626 245.726 119.88 246.19 120.141 246.611C120.736 247.612 121.425 248.497 122.209 249.266H119.902C119.191 248.497 118.56 247.612 118.009 246.611C117.53 245.769 117.095 244.761 116.703 243.586C116.312 242.411 116.116 241.113 116.116 239.691V239.256ZM128.147 231.466H122.859V229.681H135.48V231.466H130.192V244.914H128.147V231.466ZM143.217 245.131C142.362 245.131 141.549 244.986 140.78 244.696C140.011 244.391 139.33 243.927 138.735 243.303C138.14 242.665 137.669 241.86 137.32 240.888C136.972 239.916 136.798 238.755 136.798 237.406V236.971C136.798 235.665 136.972 234.541 137.32 233.598C137.669 232.655 138.14 231.879 138.735 231.27C139.33 230.661 140.011 230.211 140.78 229.921C141.549 229.616 142.362 229.464 143.217 229.464C144.044 229.464 144.799 229.573 145.481 229.79C146.177 230.008 146.786 230.32 147.308 230.726C147.831 231.132 148.251 231.633 148.571 232.227C148.904 232.822 149.115 233.497 149.202 234.251H147.026C146.822 233.265 146.395 232.525 145.742 232.031C145.089 231.538 144.247 231.292 143.217 231.292C142.681 231.292 142.158 231.393 141.651 231.596C141.143 231.799 140.686 232.126 140.28 232.575C139.888 233.011 139.569 233.591 139.322 234.316C139.09 235.042 138.974 235.927 138.974 236.971V237.406C138.974 238.509 139.105 239.437 139.366 240.192C139.627 240.931 139.961 241.533 140.367 241.998C140.773 242.462 141.23 242.796 141.738 242.999C142.246 243.202 142.739 243.303 143.217 243.303C144.349 243.303 145.234 243.028 145.872 242.476C146.511 241.925 146.895 241.214 147.026 240.344H149.202C149.086 241.185 148.853 241.911 148.505 242.52C148.157 243.115 147.715 243.608 147.178 244C146.656 244.391 146.054 244.681 145.372 244.87C144.704 245.044 143.986 245.131 143.217 245.131ZM158.334 245.131C157.464 245.131 156.622 244.986 155.81 244.696C154.998 244.391 154.279 243.927 153.656 243.303C153.032 242.68 152.531 241.882 152.154 240.91C151.777 239.938 151.588 238.77 151.588 237.406V236.971C151.588 235.665 151.777 234.541 152.154 233.598C152.531 232.655 153.032 231.879 153.656 231.27C154.279 230.646 154.998 230.189 155.81 229.899C156.622 229.609 157.464 229.464 158.334 229.464C159.205 229.464 160.046 229.609 160.858 229.899C161.671 230.189 162.389 230.646 163.013 231.27C163.636 231.879 164.137 232.655 164.514 233.598C164.891 234.541 165.08 235.665 165.08 236.971V237.406C165.08 238.77 164.891 239.938 164.514 240.91C164.137 241.882 163.636 242.68 163.013 243.303C162.389 243.927 161.671 244.391 160.858 244.696C160.046 244.986 159.205 245.131 158.334 245.131ZM158.334 243.303C158.929 243.303 159.502 243.195 160.053 242.977C160.604 242.759 161.09 242.418 161.511 241.954C161.932 241.475 162.266 240.866 162.512 240.126C162.773 239.372 162.904 238.465 162.904 237.406V236.971C162.904 235.97 162.773 235.114 162.512 234.403C162.266 233.678 161.932 233.09 161.511 232.641C161.09 232.177 160.604 231.836 160.053 231.618C159.502 231.4 158.929 231.292 158.334 231.292C157.739 231.292 157.166 231.4 156.615 231.618C156.064 231.836 155.578 232.177 155.157 232.641C154.736 233.09 154.396 233.678 154.134 234.403C153.888 235.114 153.764 235.97 153.764 236.971V237.406C153.764 238.465 153.888 239.372 154.134 240.126C154.396 240.866 154.736 241.475 155.157 241.954C155.578 242.418 156.064 242.759 156.615 242.977C157.166 243.195 157.739 243.303 158.334 243.303ZM168.567 229.681H180.535V244.914H178.489V231.466H170.612V244.914H168.567V229.681ZM189 239.691C189 241.113 188.796 242.404 188.39 243.564C187.999 244.725 187.556 245.733 187.063 246.589C186.497 247.576 185.852 248.468 185.126 249.266H182.907C183.69 248.468 184.379 247.576 184.974 246.589C185.235 246.168 185.489 245.704 185.736 245.196C185.982 244.689 186.2 244.145 186.388 243.564C186.591 242.984 186.751 242.375 186.867 241.737C186.983 241.084 187.041 240.402 187.041 239.691V239.256C187.041 238.545 186.983 237.863 186.867 237.21C186.751 236.558 186.591 235.941 186.388 235.361C186.2 234.781 185.982 234.236 185.736 233.729C185.489 233.221 185.235 232.757 184.974 232.336C184.379 231.335 183.69 230.45 182.907 229.681H185.213C185.924 230.45 186.555 231.335 187.106 232.336C187.585 233.177 188.02 234.186 188.412 235.361C188.804 236.536 189 237.834 189 239.256V239.691Z" fill="black"/>
<path d="M122.172 155.115H116.884V153.33H129.505V155.115H124.218V168.562H122.172V155.115ZM134.516 168.78C133.776 168.78 133.073 168.664 132.406 168.432C131.738 168.2 131.151 167.844 130.643 167.366C130.135 166.872 129.729 166.256 129.424 165.516C129.12 164.776 128.967 163.906 128.967 162.905V162.47C128.967 161.512 129.112 160.685 129.403 159.989C129.693 159.278 130.077 158.691 130.556 158.226C131.049 157.748 131.615 157.392 132.253 157.16C132.906 156.928 133.588 156.812 134.299 156.812C135.996 156.812 137.309 157.276 138.237 158.205C139.166 159.133 139.63 160.446 139.63 162.143V163.362H130.882C130.882 164.044 130.991 164.617 131.209 165.081C131.426 165.545 131.709 165.922 132.057 166.212C132.406 166.503 132.79 166.713 133.211 166.843C133.646 166.974 134.081 167.039 134.516 167.039C135.387 167.039 136.054 166.894 136.518 166.604C136.997 166.314 137.338 165.915 137.541 165.407H139.412C139.296 165.959 139.086 166.444 138.781 166.865C138.491 167.286 138.128 167.641 137.693 167.931C137.273 168.207 136.787 168.417 136.235 168.562C135.699 168.708 135.126 168.78 134.516 168.78ZM134.407 158.553C133.958 158.553 133.523 158.618 133.102 158.749C132.681 158.865 132.304 159.06 131.97 159.336C131.651 159.597 131.39 159.931 131.187 160.337C130.984 160.743 130.882 161.229 130.882 161.795H137.824C137.809 161.2 137.708 160.7 137.519 160.294C137.345 159.873 137.106 159.539 136.801 159.293C136.496 159.031 136.134 158.843 135.713 158.727C135.307 158.611 134.872 158.553 134.407 158.553ZM141.595 168.78C141.378 168.78 141.16 168.758 140.942 168.715V166.8C141.015 166.814 141.124 166.822 141.269 166.822C141.588 166.822 141.864 166.72 142.096 166.517C142.342 166.314 142.538 165.959 142.683 165.451C142.828 164.943 142.937 164.254 143.01 163.384C143.082 162.513 143.118 161.411 143.118 160.076V157.03H151.387V168.562H149.472V158.727H145.033V160.511C145.033 162.121 144.961 163.456 144.816 164.515C144.671 165.574 144.453 166.423 144.163 167.061C143.887 167.685 143.532 168.127 143.097 168.388C142.661 168.65 142.161 168.78 141.595 168.78ZM159.655 168.78C158.916 168.78 158.212 168.664 157.545 168.432C156.877 168.2 156.29 167.844 155.782 167.366C155.274 166.872 154.868 166.256 154.563 165.516C154.259 164.776 154.107 163.906 154.107 162.905V162.47C154.107 161.512 154.252 160.685 154.542 159.989C154.832 159.278 155.216 158.691 155.695 158.226C156.188 157.748 156.754 157.392 157.392 157.16C158.045 156.928 158.727 156.812 159.438 156.812C161.135 156.812 162.448 157.276 163.376 158.205C164.305 159.133 164.769 160.446 164.769 162.143V163.362H156.021C156.021 164.044 156.13 164.617 156.348 165.081C156.565 165.545 156.848 165.922 157.196 166.212C157.545 166.503 157.929 166.713 158.35 166.843C158.785 166.974 159.22 167.039 159.655 167.039C160.526 167.039 161.193 166.894 161.657 166.604C162.136 166.314 162.477 165.915 162.68 165.407H164.551C164.435 165.959 164.225 166.444 163.92 166.865C163.63 167.286 163.268 167.641 162.832 167.931C162.412 168.207 161.926 168.417 161.374 168.562C160.838 168.708 160.265 168.78 159.655 168.78ZM159.547 158.553C159.097 158.553 158.662 158.618 158.241 158.749C157.82 158.865 157.443 159.06 157.109 159.336C156.79 159.597 156.529 159.931 156.326 160.337C156.123 160.743 156.021 161.229 156.021 161.795H162.963C162.948 161.2 162.847 160.7 162.658 160.294C162.484 159.873 162.245 159.539 161.94 159.293C161.636 159.031 161.273 158.843 160.852 158.727C160.446 158.611 160.011 158.553 159.547 158.553ZM172.844 168.78C170.842 168.78 169.319 168.272 168.274 167.257C167.244 166.241 166.729 164.798 166.729 162.927V162.491C166.729 160.707 167.244 159.314 168.274 158.313C169.319 157.312 170.842 156.812 172.844 156.812V153.33H174.759V156.812C176.761 156.812 178.277 157.312 179.307 158.313C180.351 159.314 180.873 160.707 180.873 162.491V162.927C180.873 164.798 180.351 166.241 179.307 167.257C178.277 168.272 176.761 168.78 174.759 168.78V172.915H172.844V168.78ZM178.915 162.491C178.915 161.171 178.574 160.185 177.892 159.532C177.225 158.879 176.173 158.553 174.737 158.553V167.039C176.173 167.039 177.225 166.706 177.892 166.038C178.574 165.371 178.915 164.334 178.915 162.927V162.491ZM168.688 162.927C168.688 164.334 169.021 165.371 169.689 166.038C170.37 166.706 171.429 167.039 172.866 167.039V158.553C171.429 158.553 170.37 158.879 169.689 159.532C169.021 160.185 168.688 161.171 168.688 162.491V162.927ZM188.386 168.78C187.646 168.78 186.942 168.664 186.275 168.432C185.608 168.185 185.02 167.823 184.513 167.344C184.005 166.851 183.599 166.234 183.294 165.494C182.989 164.754 182.837 163.891 182.837 162.905V162.47C182.837 161.541 182.989 160.722 183.294 160.011C183.599 159.3 184.005 158.712 184.513 158.248C185.02 157.769 185.608 157.414 186.275 157.182C186.942 156.935 187.646 156.812 188.386 156.812C189.126 156.812 189.829 156.935 190.497 157.182C191.164 157.414 191.751 157.769 192.259 158.248C192.767 158.712 193.173 159.3 193.478 160.011C193.782 160.722 193.935 161.541 193.935 162.47V162.905C193.935 163.891 193.782 164.754 193.478 165.494C193.173 166.234 192.767 166.851 192.259 167.344C191.751 167.823 191.164 168.185 190.497 168.432C189.829 168.664 189.126 168.78 188.386 168.78ZM188.386 167.039C188.821 167.039 189.256 166.967 189.691 166.822C190.127 166.662 190.511 166.423 190.845 166.104C191.178 165.77 191.447 165.342 191.65 164.82C191.868 164.297 191.976 163.659 191.976 162.905V162.47C191.976 161.773 191.868 161.178 191.65 160.685C191.447 160.192 191.178 159.786 190.845 159.467C190.511 159.148 190.127 158.915 189.691 158.77C189.256 158.625 188.821 158.553 188.386 158.553C187.951 158.553 187.515 158.625 187.08 158.77C186.645 158.915 186.261 159.148 185.927 159.467C185.593 159.786 185.318 160.192 185.1 160.685C184.897 161.178 184.795 161.773 184.795 162.47V162.905C184.795 163.659 184.897 164.297 185.1 164.82C185.318 165.342 185.593 165.77 185.927 166.104C186.261 166.423 186.645 166.662 187.08 166.822C187.515 166.967 187.951 167.039 188.386 167.039ZM196.646 157.03H198.561V161.839H204.524V157.03H206.438V168.562H204.524V163.536H198.561V168.562H196.646V157.03ZM209.928 157.03H211.843V161.839H217.805V157.03H219.72V168.562H217.805V163.536H211.843V168.562H209.928V157.03ZM226.495 168.78C225.857 168.78 225.291 168.693 224.798 168.519C224.319 168.33 223.913 168.077 223.579 167.757C223.246 167.438 222.992 167.061 222.818 166.626C222.643 166.191 222.556 165.712 222.556 165.19C222.556 164.044 222.89 163.217 223.557 162.709C224.239 162.201 225.211 161.947 226.473 161.947H230.216V161.164C230.216 160.178 229.991 159.496 229.541 159.119C229.106 158.741 228.446 158.553 227.561 158.553C226.734 158.553 226.132 158.712 225.755 159.031C225.378 159.336 225.168 159.684 225.124 160.076H223.209C223.238 159.612 223.362 159.184 223.579 158.792C223.811 158.386 224.116 158.038 224.493 157.748C224.885 157.457 225.349 157.233 225.886 157.073C226.423 156.899 227.017 156.812 227.67 156.812C229.034 156.812 230.115 157.138 230.912 157.791C231.725 158.429 232.131 159.481 232.131 160.946V165.625C232.131 166.234 232.131 166.771 232.131 167.235C232.145 167.685 232.182 168.127 232.24 168.562H230.564C230.521 168.229 230.492 167.917 230.477 167.627C230.463 167.322 230.455 166.981 230.455 166.604C230.151 167.213 229.658 167.728 228.976 168.149C228.294 168.57 227.467 168.78 226.495 168.78ZM226.908 167.039C227.358 167.039 227.779 166.981 228.171 166.865C228.577 166.735 228.932 166.553 229.237 166.321C229.541 166.075 229.781 165.777 229.955 165.429C230.129 165.081 230.216 164.675 230.216 164.21V163.427H226.8C226.089 163.427 225.53 163.572 225.124 163.862C224.718 164.138 224.515 164.58 224.515 165.19C224.515 165.726 224.703 166.169 225.081 166.517C225.472 166.865 226.082 167.039 226.908 167.039ZM237.776 163.993C236.819 163.775 236.13 163.384 235.709 162.818C235.288 162.237 235.078 161.498 235.078 160.598C235.078 159.467 235.419 158.589 236.101 157.965C236.797 157.341 237.907 157.03 239.43 157.03H244.435V168.562H242.52V164.167H239.582L236.775 168.562H234.643L237.776 163.993ZM236.993 160.598C236.993 161.208 237.167 161.672 237.515 161.991C237.878 162.31 238.48 162.47 239.321 162.47H242.52V158.727H239.321C238.48 158.727 237.878 158.886 237.515 159.206C237.167 159.525 236.993 159.989 236.993 160.598ZM122.651 192.78C121.911 192.78 121.222 192.664 120.584 192.432C119.945 192.185 119.394 191.823 118.93 191.344C118.466 190.851 118.096 190.234 117.82 189.494C117.559 188.754 117.428 187.891 117.428 186.905V186.47C117.428 185.541 117.574 184.722 117.864 184.011C118.154 183.3 118.538 182.712 119.017 182.248C119.496 181.769 120.047 181.414 120.671 181.182C121.309 180.935 121.969 180.812 122.651 180.812C123.333 180.812 123.942 180.906 124.479 181.095C125.03 181.283 125.502 181.545 125.893 181.878C126.299 182.212 126.626 182.604 126.872 183.053C127.134 183.503 127.322 183.989 127.438 184.511H125.48C125.364 184.236 125.226 183.982 125.066 183.75C124.921 183.503 124.733 183.293 124.501 183.119C124.283 182.944 124.022 182.807 123.717 182.705C123.413 182.604 123.057 182.553 122.651 182.553C122.23 182.553 121.824 182.633 121.432 182.792C121.041 182.937 120.692 183.169 120.388 183.488C120.083 183.793 119.837 184.192 119.648 184.685C119.474 185.178 119.387 185.773 119.387 186.47V186.905C119.387 187.645 119.474 188.283 119.648 188.82C119.837 189.342 120.083 189.77 120.388 190.104C120.692 190.423 121.041 190.662 121.432 190.822C121.824 190.967 122.23 191.039 122.651 191.039C123.362 191.039 123.957 190.865 124.435 190.517C124.929 190.169 125.277 189.69 125.48 189.081H127.438C127.163 190.227 126.597 191.134 125.741 191.801C124.885 192.454 123.855 192.78 122.651 192.78ZM134.835 192.78C134.095 192.78 133.392 192.664 132.724 192.432C132.057 192.2 131.469 191.844 130.962 191.366C130.454 190.872 130.048 190.256 129.743 189.516C129.438 188.776 129.286 187.906 129.286 186.905V186.47C129.286 185.512 129.431 184.685 129.721 183.989C130.011 183.278 130.396 182.691 130.875 182.226C131.368 181.748 131.934 181.392 132.572 181.16C133.225 180.928 133.907 180.812 134.617 180.812C136.315 180.812 137.628 181.276 138.556 182.205C139.484 183.133 139.949 184.446 139.949 186.143V187.362H131.201C131.201 188.044 131.31 188.617 131.527 189.081C131.745 189.545 132.028 189.922 132.376 190.212C132.724 190.503 133.109 190.713 133.529 190.843C133.965 190.974 134.4 191.039 134.835 191.039C135.705 191.039 136.373 190.894 136.837 190.604C137.316 190.314 137.657 189.915 137.86 189.407H139.731C139.615 189.959 139.405 190.444 139.1 190.865C138.81 191.286 138.447 191.641 138.012 191.931C137.591 192.207 137.105 192.417 136.554 192.562C136.017 192.708 135.444 192.78 134.835 192.78ZM134.726 182.553C134.276 182.553 133.841 182.618 133.421 182.749C133 182.865 132.623 183.06 132.289 183.336C131.97 183.597 131.709 183.931 131.506 184.337C131.303 184.743 131.201 185.229 131.201 185.795H138.143C138.128 185.2 138.027 184.7 137.838 184.294C137.664 183.873 137.424 183.539 137.12 183.293C136.815 183.031 136.453 182.843 136.032 182.727C135.626 182.611 135.19 182.553 134.726 182.553ZM145.091 182.727H141.152V181.03H150.944V182.727H147.006V192.562H145.091V182.727ZM153.126 181.03H155.041V185.382H157.804C159.255 185.382 160.321 185.701 161.003 186.339C161.699 186.977 162.047 187.862 162.047 188.994C162.047 190.096 161.699 190.967 161.003 191.605C160.321 192.243 159.255 192.562 157.804 192.562H153.126V181.03ZM157.695 190.865C158.595 190.865 159.226 190.706 159.588 190.386C159.951 190.067 160.132 189.596 160.132 188.972C160.132 188.348 159.951 187.877 159.588 187.558C159.226 187.238 158.595 187.079 157.695 187.079H155.041V190.865H157.695ZM174.786 192.78C174.046 192.78 173.342 192.664 172.675 192.432C172.008 192.185 171.42 191.823 170.912 191.344C170.405 190.851 169.998 190.234 169.694 189.494C169.389 188.754 169.237 187.891 169.237 186.905V186.47C169.237 185.541 169.389 184.722 169.694 184.011C169.998 183.3 170.405 182.712 170.912 182.248C171.42 181.769 172.008 181.414 172.675 181.182C173.342 180.935 174.046 180.812 174.786 180.812C175.526 180.812 176.229 180.935 176.896 181.182C177.564 181.414 178.151 181.769 178.659 182.248C179.167 182.712 179.573 183.3 179.878 184.011C180.182 184.722 180.335 185.541 180.335 186.47V186.905C180.335 187.891 180.182 188.754 179.878 189.494C179.573 190.234 179.167 190.851 178.659 191.344C178.151 191.823 177.564 192.185 176.896 192.432C176.229 192.664 175.526 192.78 174.786 192.78ZM174.786 191.039C175.221 191.039 175.656 190.967 176.091 190.822C176.526 190.662 176.911 190.423 177.245 190.104C177.578 189.77 177.847 189.342 178.05 188.82C178.267 188.297 178.376 187.659 178.376 186.905V186.47C178.376 185.773 178.267 185.178 178.05 184.685C177.847 184.192 177.578 183.786 177.245 183.467C176.911 183.148 176.526 182.915 176.091 182.77C175.656 182.625 175.221 182.553 174.786 182.553C174.35 182.553 173.915 182.625 173.48 182.77C173.045 182.915 172.66 183.148 172.327 183.467C171.993 183.786 171.717 184.192 171.5 184.685C171.297 185.178 171.195 185.773 171.195 186.47V186.905C171.195 187.659 171.297 188.297 171.5 188.82C171.717 189.342 171.993 189.77 172.327 190.104C172.66 190.423 173.045 190.662 173.48 190.822C173.915 190.967 174.35 191.039 174.786 191.039ZM187.833 192.78C187.064 192.78 186.346 192.635 185.679 192.345C185.026 192.055 184.453 191.634 183.96 191.083C183.481 190.517 183.097 189.828 182.807 189.016C182.531 188.203 182.393 187.282 182.393 186.252V185.817C182.393 184.511 182.488 183.351 182.676 182.335C182.865 181.305 183.184 180.435 183.634 179.724C184.098 178.999 184.7 178.433 185.44 178.027C186.194 177.62 187.137 177.388 188.269 177.33C189.183 177.287 189.98 177.25 190.662 177.221C191.344 177.178 191.924 177.033 192.403 176.786V178.636C192.171 178.766 191.743 178.868 191.119 178.941C190.51 179.013 189.668 179.064 188.595 179.093C187.899 179.107 187.282 179.194 186.745 179.354C186.223 179.514 185.773 179.767 185.396 180.116C185.034 180.464 184.743 180.921 184.526 181.486C184.323 182.038 184.192 182.72 184.134 183.532C184.482 182.763 185.019 182.154 185.744 181.704C186.47 181.254 187.311 181.03 188.269 181.03C189.008 181.03 189.683 181.16 190.292 181.421C190.902 181.668 191.424 182.023 191.859 182.487C192.309 182.952 192.657 183.525 192.904 184.207C193.15 184.874 193.273 185.628 193.273 186.47V186.905C193.273 187.804 193.136 188.617 192.86 189.342C192.584 190.053 192.207 190.669 191.728 191.192C191.25 191.699 190.677 192.091 190.009 192.367C189.342 192.642 188.617 192.78 187.833 192.78ZM187.833 191.039C188.849 191.039 189.683 190.691 190.336 189.995C190.989 189.284 191.315 188.254 191.315 186.905V186.47C191.315 185.904 191.228 185.396 191.054 184.946C190.88 184.497 190.64 184.112 190.336 183.793C190.031 183.459 189.661 183.206 189.226 183.031C188.805 182.857 188.341 182.77 187.833 182.77C187.326 182.77 186.854 182.857 186.419 183.031C185.998 183.206 185.636 183.459 185.331 183.793C185.026 184.112 184.787 184.497 184.613 184.946C184.439 185.396 184.352 185.904 184.352 186.47V186.905C184.352 187.543 184.439 188.123 184.613 188.646C184.801 189.153 185.055 189.589 185.374 189.951C185.694 190.299 186.064 190.568 186.484 190.756C186.905 190.945 187.355 191.039 187.833 191.039ZM195.988 181.03H197.902V190.865H202.102V181.03H204.017V190.865H208.217V181.03H210.132V192.562H195.988V181.03ZM218.391 192.78C217.652 192.78 216.948 192.664 216.281 192.432C215.613 192.2 215.026 191.844 214.518 191.366C214.01 190.872 213.604 190.256 213.299 189.516C212.995 188.776 212.842 187.906 212.842 186.905V186.47C212.842 185.512 212.988 184.685 213.278 183.989C213.568 183.278 213.952 182.691 214.431 182.226C214.924 181.748 215.49 181.392 216.128 181.16C216.781 180.928 217.463 180.812 218.174 180.812C219.871 180.812 221.184 181.276 222.112 182.205C223.041 183.133 223.505 184.446 223.505 186.143V187.362H214.757C214.757 188.044 214.866 188.617 215.084 189.081C215.301 189.545 215.584 189.922 215.932 190.212C216.281 190.503 216.665 190.713 217.086 190.843C217.521 190.974 217.956 191.039 218.391 191.039C219.262 191.039 219.929 190.894 220.393 190.604C220.872 190.314 221.213 189.915 221.416 189.407H223.287C223.171 189.959 222.961 190.444 222.656 190.865C222.366 191.286 222.004 191.641 221.568 191.931C221.148 192.207 220.662 192.417 220.11 192.562C219.574 192.708 219.001 192.78 218.391 192.78ZM218.283 182.553C217.833 182.553 217.398 182.618 216.977 182.749C216.556 182.865 216.179 183.06 215.845 183.336C215.526 183.597 215.265 183.931 215.062 184.337C214.859 184.743 214.757 185.229 214.757 185.795H221.699C221.684 185.2 221.583 184.7 221.394 184.294C221.22 183.873 220.981 183.539 220.676 183.293C220.372 183.031 220.009 182.843 219.588 182.727C219.182 182.611 218.747 182.553 218.283 182.553ZM226.227 181.03H234.061V182.727H228.142V192.562H226.227V181.03ZM240.81 192.78C240.071 192.78 239.367 192.664 238.7 192.432C238.032 192.185 237.445 191.823 236.937 191.344C236.429 190.851 236.023 190.234 235.719 189.494C235.414 188.754 235.262 187.891 235.262 186.905V186.47C235.262 185.541 235.414 184.722 235.719 184.011C236.023 183.3 236.429 182.712 236.937 182.248C237.445 181.769 238.032 181.414 238.7 181.182C239.367 180.935 240.071 180.812 240.81 180.812C241.55 180.812 242.254 180.935 242.921 181.182C243.589 181.414 244.176 181.769 244.684 182.248C245.192 182.712 245.598 183.3 245.902 184.011C246.207 184.722 246.359 185.541 246.359 186.47V186.905C246.359 187.891 246.207 188.754 245.902 189.494C245.598 190.234 245.192 190.851 244.684 191.344C244.176 191.823 243.589 192.185 242.921 192.432C242.254 192.664 241.55 192.78 240.81 192.78ZM240.81 191.039C241.246 191.039 241.681 190.967 242.116 190.822C242.551 190.662 242.936 190.423 243.269 190.104C243.603 189.77 243.871 189.342 244.075 188.82C244.292 188.297 244.401 187.659 244.401 186.905V186.47C244.401 185.773 244.292 185.178 244.075 184.685C243.871 184.192 243.603 183.786 243.269 183.467C242.936 183.148 242.551 182.915 242.116 182.77C241.681 182.625 241.246 182.553 240.81 182.553C240.375 182.553 239.94 182.625 239.505 182.77C239.07 182.915 238.685 183.148 238.352 183.467C238.018 183.786 237.742 184.192 237.525 184.685C237.322 185.178 237.22 185.773 237.22 186.47V186.905C237.22 187.659 237.322 188.297 237.525 188.82C237.742 189.342 238.018 189.77 238.352 190.104C238.685 190.423 239.07 190.662 239.505 190.822C239.94 190.967 240.375 191.039 240.81 191.039ZM118.19 205.03H127.765V216.562H125.85V206.727H120.105V216.562H118.19V205.03ZM136.025 216.78C135.285 216.78 134.582 216.664 133.914 216.432C133.247 216.185 132.659 215.823 132.152 215.344C131.644 214.851 131.238 214.234 130.933 213.494C130.628 212.754 130.476 211.891 130.476 210.905V210.47C130.476 209.541 130.628 208.722 130.933 208.011C131.238 207.3 131.644 206.712 132.152 206.248C132.659 205.769 133.247 205.414 133.914 205.182C134.582 204.935 135.285 204.812 136.025 204.812C136.765 204.812 137.468 204.935 138.136 205.182C138.803 205.414 139.391 205.769 139.898 206.248C140.406 206.712 140.812 207.3 141.117 208.011C141.422 208.722 141.574 209.541 141.574 210.47V210.905C141.574 211.891 141.422 212.754 141.117 213.494C140.812 214.234 140.406 214.851 139.898 215.344C139.391 215.823 138.803 216.185 138.136 216.432C137.468 216.664 136.765 216.78 136.025 216.78ZM136.025 215.039C136.46 215.039 136.895 214.967 137.331 214.822C137.766 214.662 138.15 214.423 138.484 214.104C138.818 213.77 139.086 213.342 139.289 212.82C139.507 212.297 139.615 211.659 139.615 210.905V210.47C139.615 209.773 139.507 209.178 139.289 208.685C139.086 208.192 138.818 207.786 138.484 207.467C138.15 207.148 137.766 206.915 137.331 206.77C136.895 206.625 136.46 206.553 136.025 206.553C135.59 206.553 135.155 206.625 134.719 206.77C134.284 206.915 133.9 207.148 133.566 207.467C133.232 207.786 132.957 208.192 132.739 208.685C132.536 209.178 132.435 209.773 132.435 210.47V210.905C132.435 211.659 132.536 212.297 132.739 212.82C132.957 213.342 133.232 213.77 133.566 214.104C133.9 214.423 134.284 214.662 134.719 214.822C135.155 214.967 135.59 215.039 136.025 215.039ZM143.529 216.78C143.311 216.78 143.094 216.758 142.876 216.715V214.8C142.949 214.814 143.057 214.822 143.203 214.822C143.522 214.822 143.797 214.72 144.029 214.517C144.276 214.314 144.472 213.959 144.617 213.451C144.762 212.943 144.871 212.254 144.943 211.384C145.016 210.513 145.052 209.411 145.052 208.076V205.03H153.321V216.562H151.406V206.727H146.967V208.511C146.967 210.121 146.895 211.456 146.749 212.515C146.604 213.574 146.387 214.423 146.097 215.061C145.821 215.685 145.466 216.127 145.03 216.388C144.595 216.65 144.095 216.78 143.529 216.78ZM156.802 205.03H158.717V209.382H161.48C162.931 209.382 163.997 209.701 164.679 210.339C165.375 210.977 165.724 211.862 165.724 212.994C165.724 214.096 165.375 214.967 164.679 215.605C163.997 216.243 162.931 216.562 161.48 216.562H156.802V205.03ZM161.372 214.865C162.271 214.865 162.902 214.706 163.265 214.386C163.627 214.067 163.809 213.596 163.809 212.972C163.809 212.348 163.627 211.877 163.265 211.558C162.902 211.238 162.271 211.079 161.372 211.079H158.717V214.865H161.372ZM172.364 216.78C170.913 216.78 169.774 216.475 168.948 215.866C168.121 215.257 167.664 214.401 167.577 213.298H169.492C169.593 213.864 169.891 214.299 170.384 214.604C170.892 214.894 171.552 215.039 172.364 215.039C173.365 215.039 174.09 214.872 174.54 214.539C175.004 214.191 175.236 213.777 175.236 213.298C175.236 212.733 175.048 212.29 174.671 211.971C174.293 211.637 173.641 211.471 172.712 211.471H170.732V209.904H172.582C173.379 209.904 173.945 209.752 174.279 209.447C174.627 209.142 174.801 208.714 174.801 208.163C174.801 207.728 174.598 207.351 174.192 207.031C173.786 206.712 173.176 206.553 172.364 206.553C171.479 206.553 170.833 206.698 170.427 206.988C170.036 207.264 169.796 207.663 169.709 208.185H167.794C167.838 207.706 167.968 207.264 168.186 206.857C168.418 206.437 168.73 206.074 169.122 205.769C169.513 205.465 169.978 205.233 170.514 205.073C171.066 204.899 171.682 204.812 172.364 204.812C173.104 204.812 173.742 204.899 174.279 205.073C174.83 205.233 175.287 205.465 175.65 205.769C176.012 206.06 176.281 206.408 176.455 206.814C176.629 207.22 176.716 207.67 176.716 208.163C176.716 208.714 176.578 209.2 176.303 209.621C176.027 210.027 175.584 210.346 174.975 210.578C175.788 210.796 176.353 211.144 176.673 211.623C176.992 212.102 177.151 212.66 177.151 213.298C177.151 213.777 177.05 214.227 176.847 214.648C176.644 215.068 176.339 215.438 175.933 215.757C175.541 216.062 175.04 216.309 174.431 216.497C173.836 216.686 173.147 216.78 172.364 216.78ZM184.667 216.78C183.927 216.78 183.224 216.664 182.556 216.432C181.889 216.185 181.301 215.823 180.794 215.344C180.286 214.851 179.88 214.234 179.575 213.494C179.27 212.754 179.118 211.891 179.118 210.905V210.47C179.118 209.541 179.27 208.722 179.575 208.011C179.88 207.3 180.286 206.712 180.794 206.248C181.301 205.769 181.889 205.414 182.556 205.182C183.224 204.935 183.927 204.812 184.667 204.812C185.407 204.812 186.111 204.935 186.778 205.182C187.445 205.414 188.033 205.769 188.54 206.248C189.048 206.712 189.454 207.3 189.759 208.011C190.064 208.722 190.216 209.541 190.216 210.47V210.905C190.216 211.891 190.064 212.754 189.759 213.494C189.454 214.234 189.048 214.851 188.54 215.344C188.033 215.823 187.445 216.185 186.778 216.432C186.111 216.664 185.407 216.78 184.667 216.78ZM184.667 215.039C185.102 215.039 185.537 214.967 185.973 214.822C186.408 214.662 186.792 214.423 187.126 214.104C187.46 213.77 187.728 213.342 187.931 212.82C188.149 212.297 188.258 211.659 188.258 210.905V210.47C188.258 209.773 188.149 209.178 187.931 208.685C187.728 208.192 187.46 207.786 187.126 207.467C186.792 207.148 186.408 206.915 185.973 206.77C185.537 206.625 185.102 206.553 184.667 206.553C184.232 206.553 183.797 206.625 183.361 206.77C182.926 206.915 182.542 207.148 182.208 207.467C181.874 207.786 181.599 208.192 181.381 208.685C181.178 209.178 181.077 209.773 181.077 210.47V210.905C181.077 211.659 181.178 212.297 181.381 212.82C181.599 213.342 181.874 213.77 182.208 214.104C182.542 214.423 182.926 214.662 183.361 214.822C183.797 214.967 184.232 215.039 184.667 215.039ZM192.927 205.03H197.932C199.354 205.03 200.399 205.327 201.066 205.922C201.733 206.502 202.067 207.256 202.067 208.185C202.067 208.431 202.023 208.685 201.936 208.946C201.849 209.193 201.726 209.425 201.566 209.643C201.421 209.86 201.24 210.049 201.022 210.208C200.819 210.368 200.587 210.491 200.326 210.578C201.037 210.752 201.574 211.086 201.936 211.579C202.313 212.058 202.502 212.624 202.502 213.277C202.502 214.278 202.168 215.076 201.501 215.67C200.834 216.265 199.789 216.562 198.368 216.562H192.927V205.03ZM198.368 214.865C199.18 214.865 199.753 214.72 200.087 214.43C200.42 214.14 200.587 213.726 200.587 213.19C200.587 212.638 200.42 212.218 200.087 211.928C199.753 211.623 199.18 211.471 198.368 211.471H194.842V214.865H198.368ZM197.932 209.904C198.759 209.904 199.332 209.759 199.651 209.469C199.985 209.178 200.152 208.78 200.152 208.272C200.152 207.793 199.985 207.416 199.651 207.14C199.332 206.865 198.759 206.727 197.932 206.727H194.842V209.904H197.932ZM208.517 216.78C207.879 216.78 207.313 216.693 206.82 216.519C206.341 216.33 205.935 216.077 205.601 215.757C205.268 215.438 205.014 215.061 204.84 214.626C204.666 214.191 204.579 213.712 204.579 213.19C204.579 212.044 204.912 211.217 205.58 210.709C206.261 210.201 207.233 209.947 208.495 209.947H212.238V209.164C212.238 208.178 212.013 207.496 211.564 207.119C211.128 206.741 210.468 206.553 209.584 206.553C208.757 206.553 208.155 206.712 207.777 207.031C207.4 207.336 207.19 207.684 207.146 208.076H205.231C205.26 207.612 205.384 207.184 205.601 206.792C205.833 206.386 206.138 206.038 206.515 205.748C206.907 205.457 207.371 205.233 207.908 205.073C208.445 204.899 209.04 204.812 209.692 204.812C211.056 204.812 212.137 205.138 212.935 205.791C213.747 206.429 214.153 207.481 214.153 208.946V213.625C214.153 214.234 214.153 214.771 214.153 215.235C214.168 215.685 214.204 216.127 214.262 216.562H212.586C212.543 216.229 212.514 215.917 212.499 215.627C212.485 215.322 212.478 214.981 212.478 214.604C212.173 215.213 211.68 215.728 210.998 216.149C210.316 216.57 209.489 216.78 208.517 216.78ZM208.931 215.039C209.38 215.039 209.801 214.981 210.193 214.865C210.599 214.735 210.954 214.553 211.259 214.321C211.564 214.075 211.803 213.777 211.977 213.429C212.151 213.081 212.238 212.675 212.238 212.21V211.427H208.822C208.111 211.427 207.553 211.572 207.146 211.862C206.74 212.138 206.537 212.58 206.537 213.19C206.537 213.726 206.726 214.169 207.103 214.517C207.495 214.865 208.104 215.039 208.931 215.039ZM217.535 205.03H219.45V209.839H225.413V205.03H227.328V216.562H225.413V211.536H219.45V216.562H217.535V205.03ZM230.817 205.03H232.732V213.734L238.694 205.03H240.609V216.562H238.694V207.858L232.732 216.562H230.817V205.03ZM246.361 211.993C245.404 211.775 244.715 211.384 244.294 210.818C243.873 210.237 243.663 209.498 243.663 208.598C243.663 207.467 244.004 206.589 244.686 205.965C245.382 205.341 246.492 205.03 248.015 205.03H253.02V216.562H251.105V212.167H248.168L245.36 216.562H243.228L246.361 211.993ZM245.578 208.598C245.578 209.208 245.752 209.672 246.1 209.991C246.463 210.31 247.065 210.47 247.906 210.47H251.105V206.727H247.906C247.065 206.727 246.463 206.886 246.1 207.206C245.752 207.525 245.578 207.989 245.578 208.598Z" fill="black"/>
<path d="M332.905 277.998C345.321 277.998 355.387 412.202 355.387 577.752H310.424C310.424 412.202 320.489 277.998 332.905 277.998Z" fill="#ABD4C1"/>
<path d="M390.715 277.998C403.131 277.998 413.196 412.202 413.196 577.752H368.233C368.233 412.202 378.299 277.998 390.715 277.998Z" fill="#ABD4C1"/>
<path d="M448.524 277.998C460.94 277.998 471.006 412.202 471.006 577.752H426.043C426.043 412.202 436.108 277.998 448.524 277.998Z" fill="#ABD4C1"/>
<path d="M506.332 277.998C518.75 277.998 528.814 412.202 528.814 577.752H483.852C483.852 412.202 493.916 277.998 506.332 277.998Z" fill="#ABD4C1"/>
<path d="M621.949 277.998C634.367 277.998 644.432 412.202 644.432 577.752H599.469C599.469 412.202 609.533 277.998 621.949 277.998Z" fill="#ABD4C1"/>
<path d="M679.758 277.998C692.176 277.998 702.24 412.202 702.24 577.752H657.277C657.277 412.202 667.342 277.998 679.758 277.998Z" fill="#ABD4C1"/>
<path d="M737.566 277.998C749.984 277.998 760.049 412.202 760.049 577.752H715.086C715.086 412.202 725.15 277.998 737.566 277.998Z" fill="#ABD4C1"/>
<path d="M795.375 277.998C807.793 277.998 817.857 412.202 817.857 577.752H772.895C772.895 412.202 782.959 277.998 795.375 277.998Z" fill="#ABD4C1"/>
<path d="M853.184 277.998C865.602 277.998 875.666 412.202 875.666 577.752H830.703C830.703 412.202 840.768 277.998 853.184 277.998Z" fill="#ABD4C1"/>
<path d="M910.992 277.998C923.41 277.998 933.475 412.202 933.475 577.752H888.512C888.512 412.202 898.576 277.998 910.992 277.998Z" fill="#ABD4C1"/>
<path d="M968.801 277.998C981.219 277.998 991.283 412.202 991.283 577.752H946.32C946.32 412.202 956.385 277.998 968.801 277.998Z" fill="#ABD4C1"/>
<path d="M1026.61 277.998C1039.03 277.998 1049.09 412.202 1049.09 577.752H1004.13C1004.13 412.202 1014.19 277.998 1026.61 277.998Z" fill="#ABD4C1"/>
<path d="M1142.23 277.998C1154.64 277.998 1164.71 412.202 1164.71 577.752H1119.75C1119.75 412.202 1129.81 277.998 1142.23 277.998Z" fill="#ABD4C1"/>
<path d="M332.905 277.998C345.321 277.998 355.387 412.202 355.387 577.752H310.424C310.424 412.202 320.489 277.998 332.905 277.998Z" stroke="#58A982" stroke-width="2"/>
<path d="M390.715 277.998C403.131 277.998 413.196 412.202 413.196 577.752H368.233C368.233 412.202 378.299 277.998 390.715 277.998Z" stroke="#58A982" stroke-width="2"/>
<path d="M448.524 277.998C460.94 277.998 471.006 412.202 471.006 577.752H426.043C426.043 412.202 436.108 277.998 448.524 277.998Z" stroke="#58A982" stroke-width="2"/>
<path d="M506.332 277.998C518.75 277.998 528.814 412.202 528.814 577.752H483.852C483.852 412.202 493.916 277.998 506.332 277.998Z" stroke="#58A982" stroke-width="2"/>
<path d="M621.949 277.998C634.367 277.998 644.432 412.202 644.432 577.752H599.469C599.469 412.202 609.533 277.998 621.949 277.998Z" stroke="#58A982" stroke-width="2"/>
<path d="M679.758 277.998C692.176 277.998 702.24 412.202 702.24 577.752H657.277C657.277 412.202 667.342 277.998 679.758 277.998Z" stroke="#58A982" stroke-width="2"/>
<path d="M737.566 277.998C749.984 277.998 760.049 412.202 760.049 577.752H715.086C715.086 412.202 725.15 277.998 737.566 277.998Z" stroke="#58A982" stroke-width="2"/>
<path d="M795.375 277.998C807.793 277.998 817.857 412.202 817.857 577.752H772.895C772.895 412.202 782.959 277.998 795.375 277.998Z" stroke="#58A982" stroke-width="2"/>
<path d="M853.184 277.998C865.602 277.998 875.666 412.202 875.666 577.752H830.703C830.703 412.202 840.768 277.998 853.184 277.998Z" stroke="#58A982" stroke-width="2"/>
<path d="M910.992 277.998C923.41 277.998 933.475 412.202 933.475 577.752H888.512C888.512 412.202 898.576 277.998 910.992 277.998Z" stroke="#58A982" stroke-width="2"/>
<path d="M968.801 277.998C981.219 277.998 991.283 412.202 991.283 577.752H946.32C946.32 412.202 956.385 277.998 968.801 277.998Z" stroke="#58A982" stroke-width="2"/>
<path d="M1026.61 277.998C1039.03 277.998 1049.09 412.202 1049.09 577.752H1004.13C1004.13 412.202 1014.19 277.998 1026.61 277.998Z" stroke="#58A982" stroke-width="2"/>
<path d="M1142.23 277.998C1154.64 277.998 1164.71 412.202 1164.71 577.752H1119.75C1119.75 412.202 1129.81 277.998 1142.23 277.998Z" stroke="#58A982" stroke-width="2"/>
<path d="M101.654 577.752H237.626C237.626 412.202 176.749 277.998 101.654 277.998V577.752Z" fill="#FFECB3" stroke="#EAC053" stroke-width="2"/>
<path d="M1266.73 577.449L1256.73 571.675L1256.73 583.222L1266.73 577.449ZM101.654 578.449L1257.73 578.449L1257.73 576.449L101.654 576.449L101.654 578.449Z" fill="black"/>
<path d="M101.654 100L95.8808 110L107.428 110L101.654 100ZM102.654 577.448L102.654 109L100.654 109L100.654 577.448L102.654 577.448Z" fill="black"/>
<path d="M299.571 577.448L299.571 100" stroke="black"/>
<path d="M1176.19 577.448L1176.19 100" stroke="black"/>
<path d="M665.806 154.278H667.438C667.714 153.727 667.946 153.045 668.135 152.233C668.323 151.42 668.468 150.55 668.57 149.621C668.671 148.678 668.744 147.714 668.787 146.727C668.831 145.726 668.853 144.776 668.853 143.877V140.83H678.754V154.278H680.603V158.891H678.645V156.062H667.765V158.891H665.806V154.278ZM676.708 154.278V142.615H670.855V144.312C670.855 146.517 670.753 148.425 670.55 150.035C670.361 151.645 670.05 153.06 669.614 154.278H676.708ZM686.293 156.28C685.655 156.28 685.089 156.193 684.596 156.019C684.117 155.83 683.711 155.577 683.377 155.257C683.043 154.938 682.79 154.561 682.615 154.126C682.441 153.691 682.354 153.212 682.354 152.69C682.354 151.544 682.688 150.717 683.355 150.209C684.037 149.701 685.009 149.447 686.271 149.447H690.014V148.664C690.014 147.678 689.789 146.996 689.339 146.619C688.904 146.241 688.244 146.053 687.359 146.053C686.532 146.053 685.93 146.212 685.553 146.531C685.176 146.836 684.966 147.184 684.922 147.576H683.007C683.036 147.112 683.159 146.684 683.377 146.292C683.609 145.886 683.914 145.538 684.291 145.248C684.683 144.957 685.147 144.733 685.684 144.573C686.22 144.399 686.815 144.312 687.468 144.312C688.832 144.312 689.912 144.638 690.71 145.291C691.523 145.929 691.929 146.981 691.929 148.446V153.125C691.929 153.734 691.929 154.271 691.929 154.735C691.943 155.185 691.98 155.627 692.038 156.062H690.362C690.319 155.729 690.29 155.417 690.275 155.127C690.261 154.822 690.253 154.481 690.253 154.104C689.949 154.713 689.455 155.228 688.774 155.649C688.092 156.07 687.265 156.28 686.293 156.28ZM686.706 154.539C687.156 154.539 687.577 154.481 687.969 154.365C688.375 154.235 688.73 154.053 689.035 153.821C689.339 153.575 689.579 153.277 689.753 152.929C689.927 152.581 690.014 152.175 690.014 151.71V150.927H686.598C685.887 150.927 685.328 151.072 684.922 151.362C684.516 151.638 684.313 152.08 684.313 152.69C684.313 153.226 684.501 153.669 684.879 154.017C685.27 154.365 685.88 154.539 686.706 154.539ZM695.311 144.53H697.226V149.339H703.188V144.53H705.103V156.062H703.188V151.036H697.226V156.062H695.311V144.53ZM708.593 144.53H710.507V149.339H716.47V144.53H718.385V156.062H716.47V151.036H710.507V156.062H708.593V144.53ZM721.874 144.53H723.789V148.882H726.117C727.568 148.882 728.634 149.201 729.316 149.839C730.012 150.477 730.361 151.362 730.361 152.494C730.361 153.596 730.012 154.467 729.316 155.105C728.634 155.743 727.568 156.062 726.117 156.062H721.874V144.53ZM726.009 154.365C726.908 154.365 727.539 154.206 727.902 153.886C728.264 153.567 728.446 153.096 728.446 152.472C728.446 151.848 728.264 151.377 727.902 151.058C727.539 150.738 726.908 150.579 726.009 150.579H723.789V154.365H726.009ZM732.145 144.53H734.06V156.062H732.145V144.53ZM742.323 156.28C741.583 156.28 740.879 156.164 740.212 155.932C739.545 155.7 738.957 155.344 738.449 154.866C737.942 154.372 737.536 153.756 737.231 153.016C736.926 152.276 736.774 151.406 736.774 150.405V149.97C736.774 149.012 736.919 148.185 737.209 147.489C737.499 146.778 737.884 146.191 738.362 145.726C738.856 145.248 739.421 144.892 740.06 144.66C740.713 144.428 741.394 144.312 742.105 144.312C743.803 144.312 745.115 144.776 746.044 145.705C746.972 146.633 747.437 147.946 747.437 149.643V150.862H738.689C738.689 151.544 738.798 152.117 739.015 152.581C739.233 153.045 739.516 153.422 739.864 153.712C740.212 154.003 740.597 154.213 741.017 154.343C741.452 154.474 741.888 154.539 742.323 154.539C743.193 154.539 743.861 154.394 744.325 154.104C744.804 153.814 745.144 153.415 745.348 152.907H747.219C747.103 153.459 746.893 153.944 746.588 154.365C746.298 154.786 745.935 155.141 745.5 155.431C745.079 155.707 744.593 155.917 744.042 156.062C743.505 156.208 742.932 156.28 742.323 156.28ZM742.214 146.053C741.764 146.053 741.329 146.118 740.908 146.249C740.488 146.365 740.111 146.56 739.777 146.836C739.458 147.097 739.197 147.431 738.993 147.837C738.79 148.243 738.689 148.729 738.689 149.295H745.63C745.616 148.7 745.514 148.2 745.326 147.794C745.152 147.373 744.912 147.039 744.608 146.793C744.303 146.531 743.94 146.343 743.52 146.227C743.113 146.111 742.678 146.053 742.214 146.053ZM764.324 152.276H757.883L756.425 156.062H754.293L760.124 140.83H762.17L768.002 156.062H765.782L764.324 152.276ZM758.558 150.492H763.65L761.104 143.441L758.558 150.492ZM770.611 140.83H775.072C776.218 140.83 777.241 140.99 778.14 141.309C779.04 141.614 779.801 142.071 780.425 142.68C781.049 143.289 781.528 144.051 781.861 144.965C782.195 145.879 782.362 146.93 782.362 148.12V148.555C782.362 149.774 782.188 150.855 781.84 151.797C781.506 152.726 781.013 153.509 780.36 154.148C779.722 154.771 778.938 155.25 778.01 155.584C777.081 155.903 776.03 156.062 774.855 156.062H770.611V140.83ZM774.637 154.278C775.493 154.278 776.262 154.169 776.944 153.952C777.64 153.734 778.227 153.4 778.706 152.951C779.185 152.487 779.548 151.892 779.794 151.166C780.055 150.441 780.186 149.571 780.186 148.555V148.12C780.186 147.148 780.063 146.314 779.816 145.618C779.569 144.921 779.214 144.355 778.75 143.92C778.285 143.471 777.72 143.144 777.052 142.941C776.4 142.723 775.667 142.615 774.855 142.615H772.657V154.278H774.637ZM790.635 156.28C789.721 156.28 788.923 156.171 788.241 155.954C787.56 155.736 786.987 155.439 786.522 155.062C786.058 154.67 785.688 154.22 785.413 153.712C785.151 153.19 784.97 152.632 784.869 152.037H786.914C786.987 152.37 787.11 152.69 787.284 152.994C787.458 153.284 787.69 153.538 787.98 153.756C788.285 153.974 788.655 154.148 789.09 154.278C789.525 154.394 790.04 154.452 790.635 154.452C791.854 154.452 792.775 154.22 793.399 153.756C794.037 153.292 794.356 152.719 794.356 152.037C794.356 151.616 794.284 151.261 794.138 150.971C794.008 150.68 793.776 150.427 793.442 150.209C793.123 149.991 792.695 149.796 792.158 149.621C791.636 149.447 790.99 149.273 790.222 149.099C789.366 148.911 788.626 148.708 788.002 148.49C787.393 148.258 786.885 147.975 786.479 147.641C786.087 147.293 785.79 146.88 785.587 146.401C785.398 145.922 785.304 145.335 785.304 144.638C785.304 144.073 785.427 143.55 785.674 143.072C785.92 142.578 786.268 142.15 786.718 141.788C787.182 141.425 787.741 141.142 788.394 140.939C789.061 140.721 789.808 140.613 790.635 140.613C791.447 140.613 792.158 140.721 792.768 140.939C793.377 141.142 793.892 141.425 794.313 141.788C794.748 142.15 795.089 142.578 795.335 143.072C795.582 143.55 795.756 144.073 795.858 144.638H793.812C793.74 144.334 793.631 144.051 793.486 143.79C793.341 143.514 793.137 143.282 792.876 143.093C792.63 142.89 792.318 142.731 791.941 142.615C791.578 142.499 791.143 142.441 790.635 142.441C789.591 142.441 788.778 142.658 788.198 143.093C787.632 143.514 787.349 144.029 787.349 144.638C787.349 145.03 787.422 145.371 787.567 145.661C787.712 145.937 787.937 146.183 788.241 146.401C788.546 146.604 788.93 146.785 789.395 146.945C789.873 147.09 790.439 147.235 791.092 147.38C792.035 147.583 792.84 147.815 793.507 148.076C794.189 148.323 794.741 148.628 795.161 148.99C795.596 149.353 795.908 149.781 796.097 150.274C796.3 150.767 796.402 151.355 796.402 152.037C796.402 152.632 796.271 153.19 796.01 153.712C795.749 154.22 795.372 154.67 794.878 155.062C794.385 155.439 793.783 155.736 793.072 155.954C792.361 156.171 791.549 156.28 790.635 156.28ZM799.767 140.83H801.812V154.278H809.559V156.062H799.767V140.83Z" fill="black"/>
<path d="M329.871 170.062L309.871 181.609L329.871 193.156V170.062Z" fill="#FFBD6E"/>
<path d="M1145.87 186.61L329.871 186.61V176.61L1145.87 176.61V186.61Z" fill="#FFBD6E"/>
<path d="M1145.87 170.062L1165.87 181.609L1145.87 193.156V170.062Z" fill="#FFBD6E"/>
</svg>
