<svg width="1170" height="649" viewBox="0 0 1170 649" fill="none" xmlns="http://www.w3.org/2000/svg">
<rect width="1169.39" height="648.832" fill="white"/>
<path d="M295.586 143.085H1030.52" stroke="#E9E9E9" stroke-width="2"/>
<path d="M293.52 143.085L293.52 359.189" stroke="#E9E9E9" stroke-width="2"/>
<path d="M324.227 143.085L324.227 359.189" stroke="#E9E9E9" stroke-width="2"/>
<path d="M354.938 143.085L354.938 359.189" stroke="#E9E9E9" stroke-width="2"/>
<path d="M385.645 143.085L385.645 359.189" stroke="#E9E9E9" stroke-width="2"/>
<path d="M416.352 143.085L416.352 359.189" stroke="#E9E9E9" stroke-width="2"/>
<path d="M447.062 143.085L447.063 359.189" stroke="#E9E9E9" stroke-width="2"/>
<path d="M477.77 143.085L477.77 359.189" stroke="#E9E9E9" stroke-width="2"/>
<path d="M508.477 143.085L508.477 359.189" stroke="#E9E9E9" stroke-width="2"/>
<path d="M539.188 143.085L539.188 359.189" stroke="#E9E9E9" stroke-width="2"/>
<path d="M569.895 143.085L569.895 359.189" stroke="#E9E9E9" stroke-width="2"/>
<path d="M600.602 143.085L600.602 359.189" stroke="#E9E9E9" stroke-width="2"/>
<path d="M631.312 143.085L631.313 359.189" stroke="#E9E9E9" stroke-width="2"/>
<path d="M662.02 143.085L662.02 359.189" stroke="#E9E9E9" stroke-width="2"/>
<path d="M692.727 143.085L692.727 359.189" stroke="#E9E9E9" stroke-width="2"/>
<path d="M723.438 143.085L723.438 359.189" stroke="#E9E9E9" stroke-width="2"/>
<path d="M754.145 143.085L754.145 359.189" stroke="#E9E9E9" stroke-width="2"/>
<path d="M784.852 143.085L784.852 359.189" stroke="#E9E9E9" stroke-width="2"/>
<path d="M815.562 143.085L815.563 359.189" stroke="#E9E9E9" stroke-width="2"/>
<path d="M846.27 143.085L846.27 359.189" stroke="#E9E9E9" stroke-width="2"/>
<path d="M876.977 143.085L876.977 359.189" stroke="#E9E9E9" stroke-width="2"/>
<path d="M907.688 143.085L907.688 359.189" stroke="#E9E9E9" stroke-width="2"/>
<path d="M938.395 143.085L938.395 359.189" stroke="#E9E9E9" stroke-width="2"/>
<path d="M969.102 143.085L969.102 359.189" stroke="#E9E9E9" stroke-width="2"/>
<path d="M999.812 143.085L999.813 359.189" stroke="#E9E9E9" stroke-width="2"/>
<path d="M1030.52 143.085L1030.52 359.189" stroke="#E9E9E9" stroke-width="2"/>
<path d="M295.586 191.085H1030.52" stroke="#E9E9E9" stroke-width="2"/>
<path d="M295.586 239.085H1030.52" stroke="#E9E9E9" stroke-width="2"/>
<path d="M295.586 287.085H1030.52" stroke="#E9E9E9" stroke-width="2"/>
<path d="M295.586 335.085H1030.52" stroke="#E9E9E9" stroke-width="2"/>
<path d="M102.435 223.739H114.403V238.971H112.357V225.524H104.48V238.971H102.435V223.739ZM118.32 227.438H120.104V229.614C120.496 228.846 121.04 228.258 121.736 227.852C122.447 227.431 123.266 227.221 124.195 227.221C125.646 227.221 126.806 227.7 127.677 228.657C128.547 229.6 128.982 231.007 128.982 232.879V233.314C128.982 234.3 128.866 235.163 128.634 235.903C128.402 236.629 128.075 237.238 127.655 237.731C127.234 238.21 126.726 238.572 126.132 238.819C125.551 239.066 124.906 239.189 124.195 239.189C123.208 239.189 122.382 238.971 121.714 238.536C121.061 238.101 120.568 237.557 120.235 236.904V243.324H118.32V227.438ZM123.76 237.492C124.224 237.492 124.659 237.405 125.065 237.231C125.471 237.042 125.82 236.774 126.11 236.425C126.414 236.077 126.647 235.642 126.806 235.12C126.98 234.598 127.067 233.996 127.067 233.314V232.879C127.067 232.255 126.98 231.696 126.806 231.203C126.647 230.71 126.414 230.296 126.11 229.963C125.82 229.614 125.471 229.353 125.065 229.179C124.659 229.005 124.224 228.918 123.76 228.918C123.237 228.918 122.759 229.005 122.323 229.179C121.888 229.339 121.518 229.571 121.214 229.876C120.909 230.166 120.67 230.514 120.496 230.92C120.322 231.326 120.235 231.762 120.235 232.226V233.967C120.235 234.489 120.322 234.968 120.496 235.403C120.67 235.838 120.909 236.208 121.214 236.513C121.518 236.817 121.888 237.057 122.323 237.231C122.759 237.405 123.237 237.492 123.76 237.492ZM136.495 239.189C135.755 239.189 135.051 239.073 134.384 238.841C133.717 238.594 133.129 238.232 132.621 237.753C132.114 237.26 131.707 236.643 131.403 235.903C131.098 235.163 130.946 234.3 130.946 233.314V232.879C130.946 231.95 131.098 231.13 131.403 230.42C131.707 229.709 132.114 229.121 132.621 228.657C133.129 228.178 133.717 227.823 134.384 227.591C135.051 227.344 135.755 227.221 136.495 227.221C137.234 227.221 137.938 227.344 138.605 227.591C139.273 227.823 139.86 228.178 140.368 228.657C140.876 229.121 141.282 229.709 141.587 230.42C141.891 231.13 142.043 231.95 142.043 232.879V233.314C142.043 234.3 141.891 235.163 141.587 235.903C141.282 236.643 140.876 237.26 140.368 237.753C139.86 238.232 139.273 238.594 138.605 238.841C137.938 239.073 137.234 239.189 136.495 239.189ZM136.495 237.448C136.93 237.448 137.365 237.376 137.8 237.231C138.235 237.071 138.62 236.832 138.954 236.513C139.287 236.179 139.556 235.751 139.759 235.229C139.976 234.706 140.085 234.068 140.085 233.314V232.879C140.085 232.182 139.976 231.587 139.759 231.094C139.556 230.601 139.287 230.195 138.954 229.876C138.62 229.556 138.235 229.324 137.8 229.179C137.365 229.034 136.93 228.962 136.495 228.962C136.059 228.962 135.624 229.034 135.189 229.179C134.754 229.324 134.369 229.556 134.036 229.876C133.702 230.195 133.426 230.601 133.209 231.094C133.006 231.587 132.904 232.182 132.904 232.879V233.314C132.904 234.068 133.006 234.706 133.209 235.229C133.426 235.751 133.702 236.179 134.036 236.513C134.369 236.832 134.754 237.071 135.189 237.231C135.624 237.376 136.059 237.448 136.495 237.448ZM154.134 238.971H144.755V227.438H146.67V237.274H152.197V227.438H154.112V237.274H155.962V241.691H154.134V238.971ZM163.036 239.189C162.296 239.189 161.593 239.073 160.926 238.841C160.258 238.609 159.671 238.253 159.163 237.775C158.655 237.281 158.249 236.665 157.944 235.925C157.64 235.185 157.487 234.315 157.487 233.314V232.879C157.487 231.921 157.632 231.094 157.923 230.398C158.213 229.687 158.597 229.099 159.076 228.635C159.569 228.157 160.135 227.801 160.773 227.569C161.426 227.337 162.108 227.221 162.819 227.221C164.516 227.221 165.829 227.685 166.757 228.614C167.686 229.542 168.15 230.855 168.15 232.552V233.771H159.402C159.402 234.453 159.511 235.026 159.729 235.49C159.946 235.954 160.229 236.331 160.577 236.621C160.926 236.911 161.31 237.122 161.731 237.252C162.166 237.383 162.601 237.448 163.036 237.448C163.907 237.448 164.574 237.303 165.038 237.013C165.517 236.723 165.858 236.324 166.061 235.816H167.932C167.816 236.367 167.606 236.853 167.301 237.274C167.011 237.695 166.648 238.05 166.213 238.34C165.793 238.616 165.307 238.826 164.755 238.971C164.219 239.117 163.646 239.189 163.036 239.189ZM162.927 228.962C162.478 228.962 162.043 229.027 161.622 229.158C161.201 229.274 160.824 229.469 160.49 229.745C160.171 230.006 159.91 230.34 159.707 230.746C159.504 231.152 159.402 231.638 159.402 232.204H166.344C166.329 231.609 166.228 231.109 166.039 230.703C165.865 230.282 165.626 229.948 165.321 229.702C165.016 229.44 164.654 229.252 164.233 229.136C163.827 229.02 163.392 228.962 162.927 228.962ZM170.872 227.438H172.787V232.247H178.749V227.438H180.664V238.971H178.749V233.945H172.787V238.971H170.872V227.438ZM186.786 229.136H182.848V227.438H192.64V229.136H188.701V238.971H186.786V229.136ZM194.821 227.438H196.736V231.791H199.064C200.515 231.791 201.581 232.11 202.263 232.748C202.959 233.386 203.307 234.271 203.307 235.403C203.307 236.505 202.959 237.376 202.263 238.014C201.581 238.652 200.515 238.971 199.064 238.971H194.821V227.438ZM198.955 237.274C199.855 237.274 200.486 237.115 200.848 236.795C201.211 236.476 201.392 236.005 201.392 235.381C201.392 234.757 201.211 234.286 200.848 233.967C200.486 233.647 199.855 233.488 198.955 233.488H196.736V237.274H198.955ZM205.092 227.438H207.007V238.971H205.092V227.438Z" fill="black"/>
<path d="M247.003 149.709H250.637V138.502L247.003 141.091V138.872L250.68 136.261H252.726V149.709H255.707V151.493H247.003V149.709ZM263.113 151.711C262.373 151.711 261.67 151.587 261.002 151.341C260.35 151.094 259.777 150.673 259.283 150.078C258.79 149.469 258.398 148.664 258.108 147.663C257.818 146.648 257.673 145.386 257.673 143.877V143.442C257.673 142.034 257.818 140.859 258.108 139.916C258.398 138.973 258.79 138.219 259.283 137.653C259.777 137.073 260.35 136.66 261.002 136.413C261.67 136.166 262.373 136.043 263.113 136.043C263.853 136.043 264.549 136.166 265.202 136.413C265.87 136.66 266.45 137.073 266.943 137.653C267.436 138.219 267.828 138.973 268.118 139.916C268.408 140.859 268.553 142.034 268.553 143.442V143.877C268.553 145.386 268.408 146.648 268.118 147.663C267.828 148.664 267.436 149.469 266.943 150.078C266.45 150.673 265.87 151.094 265.202 151.341C264.549 151.587 263.853 151.711 263.113 151.711ZM263.113 149.926C263.563 149.926 263.991 149.846 264.397 149.687C264.818 149.513 265.18 149.208 265.485 148.773C265.804 148.323 266.051 147.707 266.225 146.923C266.414 146.14 266.508 145.124 266.508 143.877V143.442C266.508 142.31 266.414 141.382 266.225 140.656C266.051 139.931 265.804 139.358 265.485 138.937C265.18 138.516 264.818 138.226 264.397 138.067C263.991 137.907 263.563 137.827 263.113 137.827C262.649 137.827 262.214 137.907 261.808 138.067C261.401 138.226 261.039 138.516 260.72 138.937C260.415 139.358 260.168 139.931 259.98 140.656C259.806 141.382 259.719 142.31 259.719 143.442V143.877C259.719 145.124 259.806 146.14 259.98 146.923C260.168 147.707 260.415 148.323 260.72 148.773C261.039 149.208 261.401 149.513 261.808 149.687C262.214 149.846 262.649 149.926 263.113 149.926ZM276.607 151.711C275.867 151.711 275.164 151.587 274.496 151.341C273.844 151.094 273.271 150.673 272.777 150.078C272.284 149.469 271.892 148.664 271.602 147.663C271.312 146.648 271.167 145.386 271.167 143.877V143.442C271.167 142.034 271.312 140.859 271.602 139.916C271.892 138.973 272.284 138.219 272.777 137.653C273.271 137.073 273.844 136.66 274.496 136.413C275.164 136.166 275.867 136.043 276.607 136.043C277.347 136.043 278.043 136.166 278.696 136.413C279.364 136.66 279.944 137.073 280.437 137.653C280.93 138.219 281.322 138.973 281.612 139.916C281.902 140.859 282.047 142.034 282.047 143.442V143.877C282.047 145.386 281.902 146.648 281.612 147.663C281.322 148.664 280.93 149.469 280.437 150.078C279.944 150.673 279.364 151.094 278.696 151.341C278.043 151.587 277.347 151.711 276.607 151.711ZM276.607 149.926C277.057 149.926 277.485 149.846 277.891 149.687C278.312 149.513 278.674 149.208 278.979 148.773C279.298 148.323 279.545 147.707 279.719 146.923C279.908 146.14 280.002 145.124 280.002 143.877V143.442C280.002 142.31 279.908 141.382 279.719 140.656C279.545 139.931 279.298 139.358 278.979 138.937C278.674 138.516 278.312 138.226 277.891 138.067C277.485 137.907 277.057 137.827 276.607 137.827C276.143 137.827 275.708 137.907 275.302 138.067C274.895 138.226 274.533 138.516 274.214 138.937C273.909 139.358 273.662 139.931 273.474 140.656C273.3 141.382 273.213 142.31 273.213 143.442V143.877C273.213 145.124 273.3 146.14 273.474 146.923C273.662 147.707 273.909 148.323 274.214 148.773C274.533 149.208 274.895 149.513 275.302 149.687C275.708 149.846 276.143 149.926 276.607 149.926Z" fill="black"/>
<path d="M263.217 197.45C262.318 197.45 261.527 197.341 260.845 197.123C260.163 196.906 259.59 196.608 259.126 196.231C258.676 195.854 258.335 195.412 258.103 194.904C257.886 194.382 257.777 193.816 257.777 193.207C257.777 192.336 258.052 191.56 258.604 190.878C259.155 190.182 259.967 189.689 261.041 189.398C260.649 189.268 260.279 189.094 259.931 188.876C259.597 188.644 259.3 188.376 259.039 188.071C258.778 187.766 258.575 187.426 258.43 187.048C258.285 186.657 258.212 186.243 258.212 185.808C258.212 185.242 258.321 184.713 258.538 184.219C258.756 183.726 259.075 183.306 259.496 182.957C259.917 182.595 260.439 182.312 261.063 182.109C261.686 181.891 262.405 181.782 263.217 181.782C264.029 181.782 264.747 181.891 265.371 182.109C265.995 182.312 266.517 182.595 266.938 182.957C267.359 183.306 267.678 183.726 267.895 184.219C268.113 184.713 268.222 185.242 268.222 185.808C268.222 186.678 267.946 187.418 267.395 188.028C266.858 188.637 266.191 189.094 265.393 189.398C266.481 189.761 267.293 190.24 267.83 190.835C268.381 191.429 268.657 192.22 268.657 193.207C268.657 193.816 268.541 194.382 268.309 194.904C268.091 195.412 267.75 195.854 267.286 196.231C266.836 196.608 266.271 196.906 265.589 197.123C264.907 197.341 264.116 197.45 263.217 197.45ZM263.217 195.622C263.841 195.622 264.37 195.557 264.805 195.426C265.241 195.281 265.589 195.1 265.85 194.882C266.126 194.65 266.321 194.382 266.437 194.077C266.554 193.758 266.612 193.424 266.612 193.076C266.612 192.67 266.525 192.3 266.35 191.966C266.191 191.633 265.959 191.342 265.654 191.096C265.349 190.835 264.987 190.632 264.566 190.486C264.16 190.327 263.71 190.218 263.217 190.16C262.724 190.218 262.267 190.327 261.846 190.486C261.44 190.632 261.084 190.827 260.78 191.074C260.475 191.321 260.236 191.618 260.062 191.966C259.902 192.3 259.822 192.67 259.822 193.076C259.822 193.424 259.88 193.758 259.996 194.077C260.112 194.382 260.301 194.65 260.562 194.882C260.838 195.1 261.193 195.281 261.628 195.426C262.064 195.557 262.593 195.622 263.217 195.622ZM263.217 188.637C264.087 188.521 264.798 188.245 265.349 187.81C265.901 187.36 266.176 186.729 266.176 185.917C266.176 185.177 265.93 184.611 265.437 184.219C264.958 183.813 264.218 183.61 263.217 183.61C262.201 183.61 261.454 183.813 260.976 184.219C260.497 184.611 260.258 185.177 260.258 185.917C260.258 186.729 260.533 187.36 261.084 187.81C261.636 188.245 262.347 188.521 263.217 188.637ZM276.607 197.45C275.867 197.45 275.164 197.326 274.496 197.08C273.844 196.833 273.271 196.413 272.777 195.818C272.284 195.208 271.892 194.403 271.602 193.402C271.312 192.387 271.167 191.125 271.167 189.616V189.181C271.167 187.774 271.312 186.599 271.602 185.656C271.892 184.713 272.284 183.958 272.777 183.393C273.271 182.812 273.844 182.399 274.496 182.152C275.164 181.906 275.867 181.782 276.607 181.782C277.347 181.782 278.043 181.906 278.696 182.152C279.364 182.399 279.944 182.812 280.437 183.393C280.93 183.958 281.322 184.713 281.612 185.656C281.902 186.599 282.047 187.774 282.047 189.181V189.616C282.047 191.125 281.902 192.387 281.612 193.402C281.322 194.403 280.93 195.208 280.437 195.818C279.944 196.413 279.364 196.833 278.696 197.08C278.043 197.326 277.347 197.45 276.607 197.45ZM276.607 195.665C277.057 195.665 277.485 195.586 277.891 195.426C278.312 195.252 278.674 194.947 278.979 194.512C279.298 194.062 279.545 193.446 279.719 192.663C279.908 191.879 280.002 190.864 280.002 189.616V189.181C280.002 188.049 279.908 187.121 279.719 186.396C279.545 185.67 279.298 185.097 278.979 184.676C278.674 184.256 278.312 183.966 277.891 183.806C277.485 183.646 277.057 183.567 276.607 183.567C276.143 183.567 275.708 183.646 275.302 183.806C274.895 183.966 274.533 184.256 274.214 184.676C273.909 185.097 273.662 185.67 273.474 186.396C273.3 187.121 273.213 188.049 273.213 189.181V189.616C273.213 190.864 273.3 191.879 273.474 192.663C273.662 193.446 273.909 194.062 274.214 194.512C274.533 194.947 274.895 195.252 275.302 195.426C275.708 195.586 276.143 195.665 276.607 195.665Z" fill="black"/>
<path d="M263.541 243.189C262.699 243.189 261.938 243.051 261.256 242.776C260.574 242.5 259.987 242.079 259.493 241.513C259.015 240.933 258.645 240.208 258.384 239.337C258.122 238.467 257.992 237.43 257.992 236.226V235.791C257.992 234.296 258.144 233.027 258.449 231.982C258.754 230.923 259.167 230.068 259.689 229.415C260.211 228.747 260.821 228.269 261.517 227.979C262.213 227.674 262.961 227.522 263.758 227.522C264.933 227.522 265.92 227.804 266.718 228.37C267.53 228.922 268.067 229.763 268.328 230.894H266.283C265.876 229.864 265.035 229.349 263.758 229.349C263.207 229.349 262.699 229.444 262.235 229.632C261.771 229.821 261.365 230.133 261.017 230.568C260.683 231.003 260.415 231.584 260.211 232.309C260.008 233.034 259.892 233.941 259.863 235.029C260.066 234.681 260.313 234.383 260.603 234.137C260.893 233.876 261.205 233.673 261.539 233.527C261.887 233.368 262.242 233.252 262.605 233.179C262.968 233.107 263.316 233.07 263.65 233.07C265.173 233.07 266.384 233.498 267.284 234.354C268.198 235.196 268.654 236.407 268.654 237.988V238.206C268.654 238.931 268.517 239.599 268.241 240.208C267.98 240.817 267.617 241.347 267.153 241.796C266.689 242.232 266.145 242.572 265.521 242.819C264.897 243.066 264.237 243.189 263.541 243.189ZM263.367 241.361C264.426 241.361 265.231 241.093 265.782 240.556C266.333 240.019 266.609 239.243 266.609 238.228V238.01C266.609 237.009 266.333 236.24 265.782 235.703C265.231 235.167 264.426 234.898 263.367 234.898C262.308 234.898 261.503 235.167 260.951 235.703C260.4 236.24 260.124 237.009 260.124 238.01V238.228C260.124 239.229 260.4 240.005 260.951 240.556C261.503 241.093 262.308 241.361 263.367 241.361ZM276.607 243.189C275.867 243.189 275.164 243.066 274.496 242.819C273.844 242.572 273.271 242.152 272.777 241.557C272.284 240.948 271.892 240.143 271.602 239.142C271.312 238.126 271.167 236.864 271.167 235.355V234.92C271.167 233.513 271.312 232.338 271.602 231.395C271.892 230.452 272.284 229.698 272.777 229.132C273.271 228.552 273.844 228.138 274.496 227.892C275.164 227.645 275.867 227.522 276.607 227.522C277.347 227.522 278.043 227.645 278.696 227.892C279.364 228.138 279.944 228.552 280.437 229.132C280.93 229.698 281.322 230.452 281.612 231.395C281.902 232.338 282.047 233.513 282.047 234.92V235.355C282.047 236.864 281.902 238.126 281.612 239.142C281.322 240.143 280.93 240.948 280.437 241.557C279.944 242.152 279.364 242.572 278.696 242.819C278.043 243.066 277.347 243.189 276.607 243.189ZM276.607 241.405C277.057 241.405 277.485 241.325 277.891 241.165C278.312 240.991 278.674 240.687 278.979 240.251C279.298 239.802 279.545 239.185 279.719 238.402C279.908 237.618 280.002 236.603 280.002 235.355V234.92C280.002 233.789 279.908 232.86 279.719 232.135C279.545 231.409 279.298 230.836 278.979 230.416C278.674 229.995 278.312 229.705 277.891 229.545C277.485 229.386 277.057 229.306 276.607 229.306C276.143 229.306 275.708 229.386 275.302 229.545C274.895 229.705 274.533 229.995 274.214 230.416C273.909 230.836 273.662 231.409 273.474 232.135C273.3 232.86 273.213 233.789 273.213 234.92V235.355C273.213 236.603 273.3 237.618 273.474 238.402C273.662 239.185 273.909 239.802 274.214 240.251C274.533 240.687 274.895 240.991 275.302 241.165C275.708 241.325 276.143 241.405 276.607 241.405Z" fill="black"/>
<path d="M264.762 285.033H257.015V283.466L264.544 273.478H266.807V283.249H268.766V285.033H266.807V288.711H264.762V285.033ZM264.762 283.249V275.872L259.191 283.249H264.762ZM276.607 288.928C275.867 288.928 275.164 288.805 274.496 288.558C273.844 288.312 273.271 287.891 272.777 287.296C272.284 286.687 271.892 285.882 271.602 284.881C271.312 283.865 271.167 282.603 271.167 281.095V280.659C271.167 279.252 271.312 278.077 271.602 277.134C271.892 276.191 272.284 275.437 272.777 274.871C273.271 274.291 273.844 273.877 274.496 273.631C275.164 273.384 275.867 273.261 276.607 273.261C277.347 273.261 278.043 273.384 278.696 273.631C279.364 273.877 279.944 274.291 280.437 274.871C280.93 275.437 281.322 276.191 281.612 277.134C281.902 278.077 282.047 279.252 282.047 280.659V281.095C282.047 282.603 281.902 283.865 281.612 284.881C281.322 285.882 280.93 286.687 280.437 287.296C279.944 287.891 279.364 288.312 278.696 288.558C278.043 288.805 277.347 288.928 276.607 288.928ZM276.607 287.144C277.057 287.144 277.485 287.064 277.891 286.905C278.312 286.731 278.674 286.426 278.979 285.991C279.298 285.541 279.545 284.924 279.719 284.141C279.908 283.358 280.002 282.342 280.002 281.095V280.659C280.002 279.528 279.908 278.599 279.719 277.874C279.545 277.149 279.298 276.576 278.979 276.155C278.674 275.734 278.312 275.444 277.891 275.285C277.485 275.125 277.057 275.045 276.607 275.045C276.143 275.045 275.708 275.125 275.302 275.285C274.895 275.444 274.533 275.734 274.214 276.155C273.909 276.576 273.662 277.149 273.474 277.874C273.3 278.599 273.213 279.528 273.213 280.659V281.095C273.213 282.342 273.3 283.358 273.474 284.141C273.662 284.924 273.909 285.541 274.214 285.991C274.533 286.426 274.895 286.731 275.302 286.905C275.708 287.064 276.143 287.144 276.607 287.144Z" fill="black"/>
<path d="M258.109 332.774L264.202 327.487C264.666 327.095 265.044 326.74 265.334 326.42C265.638 326.101 265.878 325.804 266.052 325.528C266.226 325.238 266.342 324.955 266.4 324.68C266.472 324.404 266.509 324.107 266.509 323.787C266.509 322.931 266.255 322.228 265.747 321.677C265.239 321.111 264.543 320.828 263.658 320.828C262.599 320.828 261.787 321.118 261.221 321.698C260.655 322.264 260.372 323.069 260.372 324.114H258.327C258.327 323.374 258.45 322.692 258.697 322.068C258.958 321.43 259.321 320.886 259.785 320.436C260.263 319.987 260.829 319.638 261.482 319.392C262.135 319.131 262.86 319 263.658 319C264.427 319 265.116 319.123 265.725 319.37C266.335 319.602 266.85 319.936 267.27 320.371C267.691 320.792 268.01 321.292 268.228 321.872C268.445 322.453 268.554 323.091 268.554 323.787C268.554 324.31 268.474 324.796 268.315 325.245C268.155 325.695 267.93 326.123 267.64 326.529C267.365 326.935 267.024 327.334 266.618 327.726C266.226 328.103 265.791 328.495 265.312 328.901L260.764 332.666H268.772V334.45H258.109V332.774ZM276.607 334.668C275.867 334.668 275.164 334.544 274.496 334.298C273.844 334.051 273.271 333.63 272.777 333.036C272.284 332.426 271.892 331.621 271.602 330.62C271.312 329.605 271.167 328.343 271.167 326.834V326.399C271.167 324.991 271.312 323.816 271.602 322.873C271.892 321.93 272.284 321.176 272.777 320.61C273.271 320.03 273.844 319.617 274.496 319.37C275.164 319.123 275.867 319 276.607 319C277.347 319 278.043 319.123 278.696 319.37C279.364 319.617 279.944 320.03 280.437 320.61C280.93 321.176 281.322 321.93 281.612 322.873C281.902 323.816 282.047 324.991 282.047 326.399V326.834C282.047 328.343 281.902 329.605 281.612 330.62C281.322 331.621 280.93 332.426 280.437 333.036C279.944 333.63 279.364 334.051 278.696 334.298C278.043 334.544 277.347 334.668 276.607 334.668ZM276.607 332.883C277.057 332.883 277.485 332.803 277.891 332.644C278.312 332.47 278.674 332.165 278.979 331.73C279.298 331.28 279.545 330.664 279.719 329.88C279.908 329.097 280.002 328.081 280.002 326.834V326.399C280.002 325.267 279.908 324.339 279.719 323.613C279.545 322.888 279.298 322.315 278.979 321.894C278.674 321.474 278.312 321.183 277.891 321.024C277.485 320.864 277.057 320.784 276.607 320.784C276.143 320.784 275.708 320.864 275.302 321.024C274.895 321.183 274.533 321.474 274.214 321.894C273.909 322.315 273.662 322.888 273.474 323.613C273.3 324.339 273.213 325.267 273.213 326.399V326.834C273.213 328.081 273.3 329.097 273.474 329.88C273.662 330.664 273.909 331.28 274.214 331.73C274.533 332.165 274.895 332.47 275.302 332.644C275.708 332.803 276.143 332.883 276.607 332.883Z" fill="black"/>
<path d="M325.796 379.218H327.841V385.725H335.936V379.218H337.981V394.451H335.936V387.509H327.841V394.451H325.796V379.218ZM346.68 394.668C345.941 394.668 345.237 394.552 344.57 394.32C343.902 394.088 343.315 393.733 342.807 393.254C342.299 392.761 341.893 392.144 341.589 391.404C341.284 390.664 341.132 389.794 341.132 388.793V388.358C341.132 387.4 341.277 386.573 341.567 385.877C341.857 385.166 342.241 384.579 342.72 384.115C343.213 383.636 343.779 383.28 344.417 383.048C345.07 382.816 345.752 382.7 346.463 382.7C348.16 382.7 349.473 383.164 350.401 384.093C351.33 385.021 351.794 386.334 351.794 388.031V389.25H343.046C343.046 389.932 343.155 390.505 343.373 390.969C343.59 391.433 343.873 391.81 344.222 392.101C344.57 392.391 344.954 392.601 345.375 392.732C345.81 392.862 346.245 392.927 346.68 392.927C347.551 392.927 348.218 392.782 348.682 392.492C349.161 392.202 349.502 391.803 349.705 391.295H351.577C351.46 391.847 351.25 392.333 350.945 392.753C350.655 393.174 350.293 393.529 349.857 393.82C349.437 394.095 348.951 394.306 348.4 394.451C347.863 394.596 347.29 394.668 346.68 394.668ZM346.572 384.441C346.122 384.441 345.687 384.506 345.266 384.637C344.845 384.753 344.468 384.949 344.134 385.224C343.815 385.485 343.554 385.819 343.351 386.225C343.148 386.631 343.046 387.117 343.046 387.683H349.988C349.974 387.088 349.872 386.588 349.683 386.182C349.509 385.761 349.27 385.427 348.965 385.181C348.661 384.92 348.298 384.731 347.877 384.615C347.471 384.499 347.036 384.441 346.572 384.441ZM352.998 392.753H354.412C354.572 392.536 354.717 392.202 354.847 391.752C354.978 391.303 355.094 390.773 355.196 390.164C355.297 389.555 355.37 388.895 355.413 388.184C355.471 387.458 355.5 386.719 355.5 385.964V382.918H363.552V392.753H365.184V397.171H363.356V394.451H354.826V397.171H352.998V392.753ZM361.637 392.753V384.615H357.372V386.399C357.372 387.009 357.35 387.618 357.306 388.227C357.263 388.822 357.198 389.395 357.11 389.946C357.023 390.483 356.915 390.998 356.784 391.491C356.668 391.97 356.53 392.391 356.371 392.753H361.637ZM372.266 394.668C371.526 394.668 370.822 394.552 370.155 394.32C369.488 394.088 368.9 393.733 368.393 393.254C367.885 392.761 367.479 392.144 367.174 391.404C366.869 390.664 366.717 389.794 366.717 388.793V388.358C366.717 387.4 366.862 386.573 367.152 385.877C367.442 385.166 367.827 384.579 368.305 384.115C368.799 383.636 369.364 383.28 370.003 383.048C370.656 382.816 371.337 382.7 372.048 382.7C373.746 382.7 375.058 383.164 375.987 384.093C376.915 385.021 377.38 386.334 377.38 388.031V389.25H368.632C368.632 389.932 368.741 390.505 368.958 390.969C369.176 391.433 369.459 391.81 369.807 392.101C370.155 392.391 370.54 392.601 370.96 392.732C371.395 392.862 371.831 392.927 372.266 392.927C373.136 392.927 373.804 392.782 374.268 392.492C374.747 392.202 375.087 391.803 375.291 391.295H377.162C377.046 391.847 376.836 392.333 376.531 392.753C376.241 393.174 375.878 393.529 375.443 393.82C375.022 394.095 374.536 394.306 373.985 394.451C373.448 394.596 372.875 394.668 372.266 394.668ZM372.157 384.441C371.707 384.441 371.272 384.506 370.851 384.637C370.431 384.753 370.054 384.949 369.72 385.224C369.401 385.485 369.14 385.819 368.937 386.225C368.733 386.631 368.632 387.117 368.632 387.683H375.573C375.559 387.088 375.457 386.588 375.269 386.182C375.095 385.761 374.855 385.427 374.551 385.181C374.246 384.92 373.883 384.731 373.463 384.615C373.056 384.499 372.621 384.441 372.157 384.441ZM379.345 394.668C379.127 394.668 378.91 394.647 378.692 394.603V392.688C378.765 392.703 378.873 392.71 379.018 392.71C379.338 392.71 379.613 392.608 379.845 392.405C380.092 392.202 380.288 391.847 380.433 391.339C380.578 390.831 380.687 390.142 380.759 389.272C380.832 388.401 380.868 387.299 380.868 385.964V382.918H389.137V394.451H387.222V384.615H382.783V386.399C382.783 388.01 382.71 389.344 382.565 390.403C382.42 391.462 382.203 392.311 381.912 392.949C381.637 393.573 381.281 394.015 380.846 394.277C380.411 394.538 379.911 394.668 379.345 394.668ZM394.881 389.881C393.923 389.663 393.234 389.272 392.814 388.706C392.393 388.126 392.183 387.386 392.183 386.486C392.183 385.355 392.523 384.477 393.205 383.853C393.902 383.23 395.011 382.918 396.535 382.918H401.539V394.451H399.625V390.055H396.687L393.88 394.451H391.747L394.881 389.881ZM394.097 386.486C394.097 387.096 394.272 387.56 394.62 387.879C394.982 388.198 395.584 388.358 396.426 388.358H399.625V384.615H396.426C395.584 384.615 394.982 384.775 394.62 385.094C394.272 385.413 394.097 385.877 394.097 386.486ZM414.929 394.668C414.102 394.668 413.362 394.559 412.709 394.342C412.071 394.11 411.527 393.798 411.077 393.406C410.628 393.015 410.287 392.558 410.055 392.035C409.822 391.499 409.706 390.926 409.706 390.316H411.752C411.752 391.056 412.006 391.665 412.513 392.144C413.021 392.608 413.826 392.84 414.929 392.84C416.031 392.84 416.837 392.601 417.344 392.122C417.852 391.629 418.106 390.991 418.106 390.207C418.106 389.395 417.845 388.742 417.323 388.249C416.815 387.741 416.017 387.487 414.929 387.487H413.297V385.747H414.929C415.973 385.747 416.728 385.529 417.192 385.094C417.656 384.644 417.888 384.027 417.888 383.244C417.888 382.49 417.663 381.902 417.214 381.482C416.764 381.046 416.002 380.829 414.929 380.829C413.899 380.829 413.145 381.054 412.666 381.503C412.202 381.938 411.969 382.482 411.969 383.135H409.924C409.924 382.57 410.033 382.033 410.25 381.525C410.483 381.017 410.809 380.582 411.23 380.219C411.665 379.842 412.187 379.545 412.796 379.327C413.42 379.11 414.131 379.001 414.929 379.001C415.727 379.001 416.438 379.11 417.061 379.327C417.685 379.545 418.207 379.835 418.628 380.198C419.063 380.56 419.39 380.988 419.607 381.482C419.825 381.975 419.934 382.49 419.934 383.026C419.934 383.897 419.702 384.637 419.237 385.246C418.788 385.841 418.149 386.262 417.323 386.508C418.193 386.784 418.882 387.234 419.39 387.857C419.898 388.481 420.151 389.337 420.151 390.425C420.151 391.005 420.035 391.557 419.803 392.079C419.571 392.587 419.23 393.036 418.78 393.428C418.345 393.805 417.801 394.11 417.148 394.342C416.496 394.559 415.756 394.668 414.929 394.668ZM427.658 394.668C426.831 394.668 426.091 394.559 425.438 394.342C424.8 394.11 424.256 393.798 423.806 393.406C423.357 393.015 423.016 392.558 422.784 392.035C422.551 391.499 422.435 390.926 422.435 390.316H424.481C424.481 391.056 424.735 391.665 425.242 392.144C425.75 392.608 426.555 392.84 427.658 392.84C428.76 392.84 429.566 392.601 430.073 392.122C430.581 391.629 430.835 390.991 430.835 390.207C430.835 389.395 430.574 388.742 430.051 388.249C429.544 387.741 428.746 387.487 427.658 387.487H426.026V385.747H427.658C428.702 385.747 429.457 385.529 429.921 385.094C430.385 384.644 430.617 384.027 430.617 383.244C430.617 382.49 430.392 381.902 429.943 381.482C429.493 381.046 428.731 380.829 427.658 380.829C426.628 380.829 425.874 381.054 425.395 381.503C424.931 381.938 424.698 382.482 424.698 383.135H422.653C422.653 382.57 422.762 382.033 422.979 381.525C423.211 381.017 423.538 380.582 423.959 380.219C424.394 379.842 424.916 379.545 425.525 379.327C426.149 379.11 426.86 379.001 427.658 379.001C428.456 379.001 429.167 379.11 429.79 379.327C430.414 379.545 430.936 379.835 431.357 380.198C431.792 380.56 432.119 380.988 432.336 381.482C432.554 381.975 432.663 382.49 432.663 383.026C432.663 383.897 432.431 384.637 431.966 385.246C431.517 385.841 430.878 386.262 430.051 386.508C430.922 386.784 431.611 387.234 432.119 387.857C432.626 388.481 432.88 389.337 432.88 390.425C432.88 391.005 432.764 391.557 432.532 392.079C432.3 392.587 431.959 393.036 431.509 393.428C431.074 393.805 430.53 394.11 429.877 394.342C429.225 394.559 428.485 394.668 427.658 394.668Z" fill="black"/>
<path d="M492.019 379.218H494.065V385.725H502.16V379.218H504.205V394.451H502.16V387.509H494.065V394.451H492.019V379.218ZM512.904 394.668C512.164 394.668 511.461 394.552 510.793 394.32C510.126 394.088 509.539 393.733 509.031 393.254C508.523 392.761 508.117 392.144 507.812 391.404C507.508 390.664 507.355 389.794 507.355 388.793V388.358C507.355 387.4 507.5 386.573 507.791 385.877C508.081 385.166 508.465 384.579 508.944 384.115C509.437 383.636 510.003 383.28 510.641 383.048C511.294 382.816 511.976 382.7 512.687 382.7C514.384 382.7 515.697 383.164 516.625 384.093C517.554 385.021 518.018 386.334 518.018 388.031V389.25H509.27C509.27 389.932 509.379 390.505 509.597 390.969C509.814 391.433 510.097 391.81 510.445 392.101C510.793 392.391 511.178 392.601 511.599 392.732C512.034 392.862 512.469 392.927 512.904 392.927C513.775 392.927 514.442 392.782 514.906 392.492C515.385 392.202 515.726 391.803 515.929 391.295H517.8C517.684 391.847 517.474 392.333 517.169 392.753C516.879 393.174 516.516 393.529 516.081 393.82C515.661 394.095 515.175 394.306 514.623 394.451C514.087 394.596 513.513 394.668 512.904 394.668ZM512.795 384.441C512.346 384.441 511.91 384.506 511.49 384.637C511.069 384.753 510.692 384.949 510.358 385.224C510.039 385.485 509.778 385.819 509.575 386.225C509.372 386.631 509.27 387.117 509.27 387.683H516.212C516.197 387.088 516.096 386.588 515.907 386.182C515.733 385.761 515.494 385.427 515.189 385.181C514.884 384.92 514.522 384.731 514.101 384.615C513.695 384.499 513.26 384.441 512.795 384.441ZM519.221 392.753H520.636C520.795 392.536 520.941 392.202 521.071 391.752C521.202 391.303 521.318 390.773 521.419 390.164C521.521 389.555 521.593 388.895 521.637 388.184C521.695 387.458 521.724 386.719 521.724 385.964V382.918H529.775V392.753H531.407V397.171H529.579V394.451H521.049V397.171H519.221V392.753ZM527.86 392.753V384.615H523.595V386.399C523.595 387.009 523.574 387.618 523.53 388.227C523.487 388.822 523.421 389.395 523.334 389.946C523.247 390.483 523.138 390.998 523.008 391.491C522.892 391.97 522.754 392.391 522.594 392.753H527.86ZM538.49 394.668C537.75 394.668 537.046 394.552 536.379 394.32C535.712 394.088 535.124 393.733 534.616 393.254C534.109 392.761 533.702 392.144 533.398 391.404C533.093 390.664 532.941 389.794 532.941 388.793V388.358C532.941 387.4 533.086 386.573 533.376 385.877C533.666 385.166 534.05 384.579 534.529 384.115C535.022 383.636 535.588 383.28 536.227 383.048C536.879 382.816 537.561 382.7 538.272 382.7C539.969 382.7 541.282 383.164 542.211 384.093C543.139 385.021 543.603 386.334 543.603 388.031V389.25H534.856C534.856 389.932 534.964 390.505 535.182 390.969C535.4 391.433 535.683 391.81 536.031 392.101C536.379 392.391 536.763 392.601 537.184 392.732C537.619 392.862 538.054 392.927 538.49 392.927C539.36 392.927 540.027 392.782 540.492 392.492C540.97 392.202 541.311 391.803 541.514 391.295H543.386C543.27 391.847 543.059 392.333 542.755 392.753C542.464 393.174 542.102 393.529 541.667 393.82C541.246 394.095 540.76 394.306 540.209 394.451C539.672 394.596 539.099 394.668 538.49 394.668ZM538.381 384.441C537.931 384.441 537.496 384.506 537.075 384.637C536.654 384.753 536.277 384.949 535.944 385.224C535.624 385.485 535.363 385.819 535.16 386.225C534.957 386.631 534.856 387.117 534.856 387.683H541.797C541.783 387.088 541.681 386.588 541.493 386.182C541.318 385.761 541.079 385.427 540.774 385.181C540.47 384.92 540.107 384.731 539.686 384.615C539.28 384.499 538.845 384.441 538.381 384.441ZM545.569 394.668C545.351 394.668 545.133 394.647 544.916 394.603V392.688C544.988 392.703 545.097 392.71 545.242 392.71C545.561 392.71 545.837 392.608 546.069 392.405C546.316 392.202 546.511 391.847 546.657 391.339C546.802 390.831 546.91 390.142 546.983 389.272C547.055 388.401 547.092 387.299 547.092 385.964V382.918H555.361V394.451H553.446V384.615H549.007V386.399C549.007 388.01 548.934 389.344 548.789 390.403C548.644 391.462 548.426 392.311 548.136 392.949C547.861 393.573 547.505 394.015 547.07 394.277C546.635 394.538 546.134 394.668 545.569 394.668ZM561.105 389.881C560.147 389.663 559.458 389.272 559.037 388.706C558.617 388.126 558.406 387.386 558.406 386.486C558.406 385.355 558.747 384.477 559.429 383.853C560.125 383.23 561.235 382.918 562.758 382.918H567.763V394.451H565.848V390.055H562.911L560.104 394.451H557.971L561.105 389.881ZM560.321 386.486C560.321 387.096 560.495 387.56 560.843 387.879C561.206 388.198 561.808 388.358 562.65 388.358H565.848V384.615H562.65C561.808 384.615 561.206 384.775 560.843 385.094C560.495 385.413 560.321 385.877 560.321 386.486ZM581.153 394.668C580.326 394.668 579.586 394.559 578.933 394.342C578.295 394.11 577.751 393.798 577.301 393.406C576.851 393.015 576.51 392.558 576.278 392.035C576.046 391.499 575.93 390.926 575.93 390.316H577.976C577.976 391.056 578.23 391.665 578.737 392.144C579.245 392.608 580.05 392.84 581.153 392.84C582.255 392.84 583.06 392.601 583.568 392.122C584.076 391.629 584.33 390.991 584.33 390.207C584.33 389.395 584.069 388.742 583.546 388.249C583.039 387.741 582.241 387.487 581.153 387.487H579.521V385.747H581.153C582.197 385.747 582.951 385.529 583.416 385.094C583.88 384.644 584.112 384.027 584.112 383.244C584.112 382.49 583.887 381.902 583.437 381.482C582.988 381.046 582.226 380.829 581.153 380.829C580.123 380.829 579.368 381.054 578.89 381.503C578.425 381.938 578.193 382.482 578.193 383.135H576.148C576.148 382.57 576.257 382.033 576.474 381.525C576.706 381.017 577.033 380.582 577.453 380.219C577.889 379.842 578.411 379.545 579.02 379.327C579.644 379.11 580.355 379.001 581.153 379.001C581.951 379.001 582.661 379.11 583.285 379.327C583.909 379.545 584.431 379.835 584.852 380.198C585.287 380.56 585.614 380.988 585.831 381.482C586.049 381.975 586.158 382.49 586.158 383.026C586.158 383.897 585.925 384.637 585.461 385.246C585.011 385.841 584.373 386.262 583.546 386.508C584.417 386.784 585.106 387.234 585.614 387.857C586.121 388.481 586.375 389.337 586.375 390.425C586.375 391.005 586.259 391.557 586.027 392.079C585.795 392.587 585.454 393.036 585.004 393.428C584.569 393.805 584.025 394.11 583.372 394.342C582.719 394.559 581.98 394.668 581.153 394.668ZM595.862 390.773H588.115V389.206L595.644 379.218H597.907V388.989H599.866V390.773H597.907V394.451H595.862V390.773ZM595.862 388.989V381.612L590.291 388.989H595.862Z" fill="black"/>
<path d="M658.849 379.218H660.894V385.725H668.989V379.218H671.035V394.451H668.989V387.509H660.894V394.451H658.849V379.218ZM679.734 394.668C678.994 394.668 678.29 394.552 677.623 394.32C676.956 394.088 676.368 393.733 675.86 393.254C675.352 392.761 674.946 392.144 674.642 391.404C674.337 390.664 674.185 389.794 674.185 388.793V388.358C674.185 387.4 674.33 386.573 674.62 385.877C674.91 385.166 675.294 384.579 675.773 384.115C676.266 383.636 676.832 383.28 677.47 383.048C678.123 382.816 678.805 382.7 679.516 382.7C681.213 382.7 682.526 383.164 683.455 384.093C684.383 385.021 684.847 386.334 684.847 388.031V389.25H676.1C676.1 389.932 676.208 390.505 676.426 390.969C676.644 391.433 676.926 391.81 677.275 392.101C677.623 392.391 678.007 392.601 678.428 392.732C678.863 392.862 679.298 392.927 679.734 392.927C680.604 392.927 681.271 392.782 681.736 392.492C682.214 392.202 682.555 391.803 682.758 391.295H684.63C684.514 391.847 684.303 392.333 683.999 392.753C683.708 393.174 683.346 393.529 682.911 393.82C682.49 394.095 682.004 394.306 681.453 394.451C680.916 394.596 680.343 394.668 679.734 394.668ZM679.625 384.441C679.175 384.441 678.74 384.506 678.319 384.637C677.898 384.753 677.521 384.949 677.188 385.224C676.868 385.485 676.607 385.819 676.404 386.225C676.201 386.631 676.1 387.117 676.1 387.683H683.041C683.027 387.088 682.925 386.588 682.737 386.182C682.562 385.761 682.323 385.427 682.018 385.181C681.714 384.92 681.351 384.731 680.93 384.615C680.524 384.499 680.089 384.441 679.625 384.441ZM686.051 392.753H687.465C687.625 392.536 687.77 392.202 687.901 391.752C688.031 391.303 688.147 390.773 688.249 390.164C688.35 389.555 688.423 388.895 688.466 388.184C688.524 387.458 688.553 386.719 688.553 385.964V382.918H696.605V392.753H698.237V397.171H696.409V394.451H687.879V397.171H686.051V392.753ZM694.69 392.753V384.615H690.425V386.399C690.425 387.009 690.403 387.618 690.359 388.227C690.316 388.822 690.251 389.395 690.164 389.946C690.077 390.483 689.968 390.998 689.837 391.491C689.721 391.97 689.583 392.391 689.424 392.753H694.69ZM705.319 394.668C704.579 394.668 703.876 394.552 703.208 394.32C702.541 394.088 701.953 393.733 701.446 393.254C700.938 392.761 700.532 392.144 700.227 391.404C699.922 390.664 699.77 389.794 699.77 388.793V388.358C699.77 387.4 699.915 386.573 700.205 385.877C700.495 385.166 700.88 384.579 701.359 384.115C701.852 383.636 702.418 383.28 703.056 383.048C703.709 382.816 704.391 382.7 705.101 382.7C706.799 382.7 708.112 383.164 709.04 384.093C709.968 385.021 710.433 386.334 710.433 388.031V389.25H701.685C701.685 389.932 701.794 390.505 702.011 390.969C702.229 391.433 702.512 391.81 702.86 392.101C703.208 392.391 703.593 392.601 704.013 392.732C704.449 392.862 704.884 392.927 705.319 392.927C706.189 392.927 706.857 392.782 707.321 392.492C707.8 392.202 708.141 391.803 708.344 391.295H710.215C710.099 391.847 709.889 392.333 709.584 392.753C709.294 393.174 708.931 393.529 708.496 393.82C708.075 394.095 707.589 394.306 707.038 394.451C706.501 394.596 705.928 394.668 705.319 394.668ZM705.21 384.441C704.76 384.441 704.325 384.506 703.905 384.637C703.484 384.753 703.107 384.949 702.773 385.224C702.454 385.485 702.193 385.819 701.99 386.225C701.787 386.631 701.685 387.117 701.685 387.683H708.627C708.612 387.088 708.511 386.588 708.322 386.182C708.148 385.761 707.908 385.427 707.604 385.181C707.299 384.92 706.937 384.731 706.516 384.615C706.11 384.499 705.674 384.441 705.21 384.441ZM712.398 394.668C712.18 394.668 711.963 394.647 711.745 394.603V392.688C711.818 392.703 711.926 392.71 712.071 392.71C712.391 392.71 712.666 392.608 712.898 392.405C713.145 392.202 713.341 391.847 713.486 391.339C713.631 390.831 713.74 390.142 713.812 389.272C713.885 388.401 713.921 387.299 713.921 385.964V382.918H722.19V394.451H720.275V384.615H715.836V386.399C715.836 388.01 715.764 389.344 715.618 390.403C715.473 391.462 715.256 392.311 714.966 392.949C714.69 393.573 714.335 394.015 713.899 394.277C713.464 394.538 712.964 394.668 712.398 394.668ZM727.934 389.881C726.976 389.663 726.287 389.272 725.867 388.706C725.446 388.126 725.236 387.386 725.236 386.486C725.236 385.355 725.577 384.477 726.258 383.853C726.955 383.23 728.065 382.918 729.588 382.918H734.593V394.451H732.678V390.055H729.74L726.933 394.451H724.8L727.934 389.881ZM727.151 386.486C727.151 387.096 727.325 387.56 727.673 387.879C728.035 388.198 728.638 388.358 729.479 388.358H732.678V384.615H729.479C728.638 384.615 728.035 384.775 727.673 385.094C727.325 385.413 727.151 385.877 727.151 386.486ZM747.982 394.668C747.155 394.668 746.415 394.559 745.762 394.342C745.124 394.11 744.58 393.798 744.13 393.406C743.681 393.015 743.34 392.558 743.108 392.035C742.876 391.499 742.76 390.926 742.76 390.316H744.805C744.805 391.056 745.059 391.665 745.567 392.144C746.074 392.608 746.879 392.84 747.982 392.84C749.085 392.84 749.89 392.601 750.397 392.122C750.905 391.629 751.159 390.991 751.159 390.207C751.159 389.395 750.898 388.742 750.376 388.249C749.868 387.741 749.07 387.487 747.982 387.487H746.35V385.747H747.982C749.027 385.747 749.781 385.529 750.245 385.094C750.709 384.644 750.941 384.027 750.941 383.244C750.941 382.49 750.717 381.902 750.267 381.482C749.817 381.046 749.056 380.829 747.982 380.829C746.952 380.829 746.198 381.054 745.719 381.503C745.255 381.938 745.023 382.482 745.023 383.135H742.977C742.977 382.57 743.086 382.033 743.304 381.525C743.536 381.017 743.862 380.582 744.283 380.219C744.718 379.842 745.24 379.545 745.85 379.327C746.473 379.11 747.184 379.001 747.982 379.001C748.78 379.001 749.491 379.11 750.115 379.327C750.738 379.545 751.261 379.835 751.681 380.198C752.116 380.56 752.443 380.988 752.66 381.482C752.878 381.975 752.987 382.49 752.987 383.026C752.987 383.897 752.755 384.637 752.291 385.246C751.841 385.841 751.203 386.262 750.376 386.508C751.246 386.784 751.935 387.234 752.443 387.857C752.951 388.481 753.205 389.337 753.205 390.425C753.205 391.005 753.088 391.557 752.856 392.079C752.624 392.587 752.283 393.036 751.834 393.428C751.398 393.805 750.854 394.11 750.202 394.342C749.549 394.559 748.809 394.668 747.982 394.668ZM760.82 394.668C759.993 394.668 759.275 394.559 758.666 394.342C758.056 394.11 757.541 393.812 757.121 393.45C756.714 393.073 756.402 392.652 756.185 392.188C755.967 391.723 755.844 391.245 755.815 390.751H757.86C757.933 391.303 758.223 391.789 758.731 392.209C759.253 392.63 759.949 392.84 760.82 392.84C761.806 392.84 762.582 392.536 763.148 391.926C763.714 391.303 763.997 390.44 763.997 389.337C763.997 388.713 763.902 388.176 763.714 387.727C763.54 387.277 763.3 386.914 762.996 386.639C762.706 386.363 762.372 386.16 761.995 386.029C761.618 385.899 761.226 385.834 760.82 385.834C760.036 385.834 759.42 385.979 758.97 386.269C758.535 386.559 758.201 386.893 757.969 387.27H756.141V379.218H765.172V381.003H758.187V385.246C758.941 384.419 759.928 384.006 761.146 384.006C762.655 384.006 763.844 384.463 764.715 385.377C765.6 386.291 766.042 387.611 766.042 389.337C766.042 390.149 765.912 390.889 765.651 391.557C765.404 392.209 765.049 392.768 764.584 393.232C764.135 393.696 763.583 394.052 762.931 394.298C762.292 394.545 761.589 394.668 760.82 394.668Z" fill="black"/>
<path d="M825.072 379.218H827.118V385.725H835.213V379.218H837.258V394.451H835.213V387.509H827.118V394.451H825.072V379.218ZM845.957 394.668C845.217 394.668 844.514 394.552 843.847 394.32C843.179 394.088 842.592 393.733 842.084 393.254C841.576 392.761 841.17 392.144 840.865 391.404C840.561 390.664 840.408 389.794 840.408 388.793V388.358C840.408 387.4 840.554 386.573 840.844 385.877C841.134 385.166 841.518 384.579 841.997 384.115C842.49 383.636 843.056 383.28 843.694 383.048C844.347 382.816 845.029 382.7 845.74 382.7C847.437 382.7 848.75 383.164 849.678 384.093C850.607 385.021 851.071 386.334 851.071 388.031V389.25H842.323C842.323 389.932 842.432 390.505 842.65 390.969C842.867 391.433 843.15 391.81 843.498 392.101C843.847 392.391 844.231 392.601 844.652 392.732C845.087 392.862 845.522 392.927 845.957 392.927C846.828 392.927 847.495 392.782 847.959 392.492C848.438 392.202 848.779 391.803 848.982 391.295H850.853C850.737 391.847 850.527 392.333 850.222 392.753C849.932 393.174 849.57 393.529 849.134 393.82C848.714 394.095 848.228 394.306 847.676 394.451C847.14 394.596 846.567 394.668 845.957 394.668ZM845.849 384.441C845.399 384.441 844.964 384.506 844.543 384.637C844.122 384.753 843.745 384.949 843.411 385.224C843.092 385.485 842.831 385.819 842.628 386.225C842.425 386.631 842.323 387.117 842.323 387.683H849.265C849.25 387.088 849.149 386.588 848.96 386.182C848.786 385.761 848.547 385.427 848.242 385.181C847.938 384.92 847.575 384.731 847.154 384.615C846.748 384.499 846.313 384.441 845.849 384.441ZM852.275 392.753H853.689C853.849 392.536 853.994 392.202 854.124 391.752C854.255 391.303 854.371 390.773 854.472 390.164C854.574 389.555 854.647 388.895 854.69 388.184C854.748 387.458 854.777 386.719 854.777 385.964V382.918H862.828V392.753H864.46V397.171H862.633V394.451H854.102V397.171H852.275V392.753ZM860.913 392.753V384.615H856.648V386.399C856.648 387.009 856.627 387.618 856.583 388.227C856.54 388.822 856.474 389.395 856.387 389.946C856.3 390.483 856.191 390.998 856.061 391.491C855.945 391.97 855.807 392.391 855.647 392.753H860.913ZM871.543 394.668C870.803 394.668 870.099 394.552 869.432 394.32C868.765 394.088 868.177 393.733 867.669 393.254C867.162 392.761 866.755 392.144 866.451 391.404C866.146 390.664 865.994 389.794 865.994 388.793V388.358C865.994 387.4 866.139 386.573 866.429 385.877C866.719 385.166 867.104 384.579 867.582 384.115C868.076 383.636 868.641 383.28 869.28 383.048C869.932 382.816 870.614 382.7 871.325 382.7C873.022 382.7 874.335 383.164 875.264 384.093C876.192 385.021 876.656 386.334 876.656 388.031V389.25H867.909C867.909 389.932 868.018 390.505 868.235 390.969C868.453 391.433 868.736 391.81 869.084 392.101C869.432 392.391 869.816 392.601 870.237 392.732C870.672 392.862 871.108 392.927 871.543 392.927C872.413 392.927 873.08 392.782 873.545 392.492C874.023 392.202 874.364 391.803 874.567 391.295H876.439C876.323 391.847 876.112 392.333 875.808 392.753C875.518 393.174 875.155 393.529 874.72 393.82C874.299 394.095 873.813 394.306 873.262 394.451C872.725 394.596 872.152 394.668 871.543 394.668ZM871.434 384.441C870.984 384.441 870.549 384.506 870.128 384.637C869.708 384.753 869.33 384.949 868.997 385.224C868.678 385.485 868.416 385.819 868.213 386.225C868.01 386.631 867.909 387.117 867.909 387.683H874.85C874.836 387.088 874.734 386.588 874.546 386.182C874.372 385.761 874.132 385.427 873.828 385.181C873.523 384.92 873.16 384.731 872.74 384.615C872.333 384.499 871.898 384.441 871.434 384.441ZM878.622 394.668C878.404 394.668 878.186 394.647 877.969 394.603V392.688C878.041 392.703 878.15 392.71 878.295 392.71C878.614 392.71 878.89 392.608 879.122 392.405C879.369 392.202 879.565 391.847 879.71 391.339C879.855 390.831 879.964 390.142 880.036 389.272C880.109 388.401 880.145 387.299 880.145 385.964V382.918H888.414V394.451H886.499V384.615H882.06V386.399C882.06 388.01 881.987 389.344 881.842 390.403C881.697 391.462 881.48 392.311 881.189 392.949C880.914 393.573 880.558 394.015 880.123 394.277C879.688 394.538 879.187 394.668 878.622 394.668ZM894.158 389.881C893.2 389.663 892.511 389.272 892.09 388.706C891.67 388.126 891.459 387.386 891.459 386.486C891.459 385.355 891.8 384.477 892.482 383.853C893.178 383.23 894.288 382.918 895.811 382.918H900.816V394.451H898.901V390.055H895.964L893.157 394.451H891.024L894.158 389.881ZM893.374 386.486C893.374 387.096 893.548 387.56 893.897 387.879C894.259 388.198 894.861 388.358 895.703 388.358H898.901V384.615H895.703C894.861 384.615 894.259 384.775 893.897 385.094C893.548 385.413 893.374 385.877 893.374 386.486ZM914.206 394.668C913.379 394.668 912.639 394.559 911.986 394.342C911.348 394.11 910.804 393.798 910.354 393.406C909.904 393.015 909.564 392.558 909.331 392.035C909.099 391.499 908.983 390.926 908.983 390.316H911.029C911.029 391.056 911.283 391.665 911.79 392.144C912.298 392.608 913.103 392.84 914.206 392.84C915.308 392.84 916.113 392.601 916.621 392.122C917.129 391.629 917.383 390.991 917.383 390.207C917.383 389.395 917.122 388.742 916.599 388.249C916.092 387.741 915.294 387.487 914.206 387.487H912.574V385.747H914.206C915.25 385.747 916.005 385.529 916.469 385.094C916.933 384.644 917.165 384.027 917.165 383.244C917.165 382.49 916.94 381.902 916.491 381.482C916.041 381.046 915.279 380.829 914.206 380.829C913.176 380.829 912.421 381.054 911.943 381.503C911.478 381.938 911.246 382.482 911.246 383.135H909.201C909.201 382.57 909.31 382.033 909.527 381.525C909.759 381.017 910.086 380.582 910.507 380.219C910.942 379.842 911.464 379.545 912.073 379.327C912.697 379.11 913.408 379.001 914.206 379.001C915.004 379.001 915.714 379.11 916.338 379.327C916.962 379.545 917.484 379.835 917.905 380.198C918.34 380.56 918.667 380.988 918.884 381.482C919.102 381.975 919.211 382.49 919.211 383.026C919.211 383.897 918.979 384.637 918.514 385.246C918.065 385.841 917.426 386.262 916.599 386.508C917.47 386.784 918.159 387.234 918.667 387.857C919.174 388.481 919.428 389.337 919.428 390.425C919.428 391.005 919.312 391.557 919.08 392.079C918.848 392.587 918.507 393.036 918.057 393.428C917.622 393.805 917.078 394.11 916.425 394.342C915.773 394.559 915.033 394.668 914.206 394.668ZM927.588 394.668C926.746 394.668 925.985 394.53 925.303 394.255C924.621 393.979 924.033 393.559 923.54 392.993C923.061 392.412 922.691 391.687 922.43 390.817C922.169 389.946 922.039 388.909 922.039 387.705V387.27C922.039 385.776 922.191 384.506 922.496 383.462C922.8 382.403 923.214 381.547 923.736 380.894C924.258 380.227 924.867 379.748 925.564 379.458C926.26 379.153 927.007 379.001 927.805 379.001C928.98 379.001 929.967 379.284 930.765 379.849C931.577 380.401 932.114 381.242 932.375 382.374H930.329C929.923 381.344 929.082 380.829 927.805 380.829C927.254 380.829 926.746 380.923 926.282 381.112C925.818 381.3 925.411 381.612 925.063 382.047C924.73 382.482 924.461 383.063 924.258 383.788C924.055 384.513 923.939 385.42 923.91 386.508C924.113 386.16 924.36 385.863 924.65 385.616C924.94 385.355 925.252 385.152 925.586 385.007C925.934 384.847 926.289 384.731 926.652 384.659C927.015 384.586 927.363 384.55 927.696 384.55C929.22 384.55 930.431 384.978 931.33 385.834C932.244 386.675 932.701 387.886 932.701 389.468V389.685C932.701 390.411 932.563 391.078 932.288 391.687C932.027 392.296 931.664 392.826 931.2 393.276C930.736 393.711 930.192 394.052 929.568 394.298C928.944 394.545 928.284 394.668 927.588 394.668ZM927.413 392.84C928.472 392.84 929.278 392.572 929.829 392.035C930.38 391.499 930.656 390.722 930.656 389.707V389.489C930.656 388.488 930.38 387.719 929.829 387.183C929.278 386.646 928.472 386.378 927.413 386.378C926.354 386.378 925.549 386.646 924.998 387.183C924.447 387.719 924.171 388.488 924.171 389.489V389.707C924.171 390.708 924.447 391.484 924.998 392.035C925.549 392.572 926.354 392.84 927.413 392.84Z" fill="black"/>
<path d="M331.654 453.552H326.367V451.768H338.988V453.552H333.7V467H331.654V453.552ZM343.998 467.218C343.259 467.218 342.555 467.102 341.888 466.869C341.22 466.637 340.633 466.282 340.125 465.803C339.617 465.31 339.211 464.693 338.907 463.954C338.602 463.214 338.45 462.343 338.45 461.342V460.907C338.45 459.95 338.595 459.123 338.885 458.426C339.175 457.716 339.559 457.128 340.038 456.664C340.531 456.185 341.097 455.83 341.735 455.598C342.388 455.365 343.07 455.249 343.781 455.249C345.478 455.249 346.791 455.714 347.72 456.642C348.648 457.571 349.112 458.883 349.112 460.581V461.799H340.365C340.365 462.481 340.473 463.054 340.691 463.518C340.909 463.983 341.191 464.36 341.54 464.65C341.888 464.94 342.272 465.15 342.693 465.281C343.128 465.411 343.563 465.477 343.998 465.477C344.869 465.477 345.536 465.332 346 465.042C346.479 464.751 346.82 464.352 347.023 463.845H348.895C348.779 464.396 348.568 464.882 348.264 465.303C347.973 465.723 347.611 466.079 347.176 466.369C346.755 466.645 346.269 466.855 345.718 467C345.181 467.145 344.608 467.218 343.998 467.218ZM343.89 456.99C343.44 456.99 343.005 457.056 342.584 457.186C342.163 457.302 341.786 457.498 341.453 457.774C341.133 458.035 340.872 458.368 340.669 458.775C340.466 459.181 340.365 459.667 340.365 460.233H347.306C347.292 459.638 347.19 459.137 347.001 458.731C346.827 458.31 346.588 457.977 346.283 457.73C345.979 457.469 345.616 457.28 345.195 457.164C344.789 457.048 344.354 456.99 343.89 456.99ZM351.834 455.467H353.749V460.298H355.272L359.581 455.467H361.844L356.839 460.994L362.061 467H359.624L355.272 461.952H353.749V467H351.834V455.467ZM366.086 471.57C365.869 471.57 365.651 471.548 365.433 471.504V469.764C365.651 469.807 365.869 469.829 366.086 469.829C366.304 469.829 366.492 469.793 366.652 469.72C366.811 469.648 366.964 469.51 367.109 469.307C367.254 469.104 367.406 468.813 367.566 468.436C367.74 468.074 367.936 467.595 368.153 467L363.257 455.467H365.39L369.133 464.824L372.527 455.467H374.573L370.221 467C369.916 467.812 369.626 468.509 369.35 469.089C369.075 469.669 368.777 470.141 368.458 470.503C368.153 470.881 367.812 471.149 367.435 471.309C367.058 471.483 366.608 471.57 366.086 471.57ZM390.905 467H376.739V455.467H378.654V465.303H382.854V455.467H384.769V465.303H388.969V455.467H390.884V465.303H392.733V469.72H390.905V467ZM398.513 467.218C397.875 467.218 397.309 467.131 396.816 466.956C396.337 466.768 395.931 466.514 395.597 466.195C395.263 465.876 395.01 465.499 394.835 465.063C394.661 464.628 394.574 464.149 394.574 463.627C394.574 462.481 394.908 461.654 395.575 461.146C396.257 460.639 397.229 460.385 398.491 460.385H402.234V459.601C402.234 458.615 402.009 457.933 401.559 457.556C401.124 457.179 400.464 456.99 399.579 456.99C398.752 456.99 398.15 457.15 397.773 457.469C397.396 457.774 397.186 458.122 397.142 458.513H395.227C395.256 458.049 395.379 457.621 395.597 457.23C395.829 456.823 396.134 456.475 396.511 456.185C396.903 455.895 397.367 455.67 397.904 455.511C398.44 455.336 399.035 455.249 399.688 455.249C401.052 455.249 402.132 455.576 402.93 456.229C403.743 456.867 404.149 457.919 404.149 459.384V464.062C404.149 464.672 404.149 465.208 404.149 465.673C404.163 466.122 404.2 466.565 404.258 467H402.582C402.539 466.666 402.51 466.354 402.495 466.064C402.481 465.76 402.473 465.419 402.473 465.042C402.169 465.651 401.675 466.166 400.994 466.587C400.312 467.007 399.485 467.218 398.513 467.218ZM398.926 465.477C399.376 465.477 399.797 465.419 400.188 465.303C400.595 465.172 400.95 464.991 401.255 464.759C401.559 464.512 401.799 464.215 401.973 463.867C402.147 463.518 402.234 463.112 402.234 462.648V461.865H398.818C398.107 461.865 397.548 462.01 397.142 462.3C396.736 462.575 396.533 463.018 396.533 463.627C396.533 464.164 396.721 464.606 397.099 464.955C397.49 465.303 398.099 465.477 398.926 465.477ZM409.794 462.43C408.837 462.213 408.148 461.821 407.727 461.255C407.306 460.675 407.096 459.935 407.096 459.036C407.096 457.904 407.437 457.027 408.119 456.403C408.815 455.779 409.925 455.467 411.448 455.467H416.453V467H414.538V462.604H411.6L408.793 467H406.661L409.794 462.43ZM409.011 459.036C409.011 459.645 409.185 460.109 409.533 460.428C409.896 460.748 410.498 460.907 411.339 460.907H414.538V457.164H411.339C410.498 457.164 409.896 457.324 409.533 457.643C409.185 457.962 409.011 458.426 409.011 459.036ZM421.464 467.218C421.044 467.218 420.681 467.073 420.376 466.782C420.086 466.478 419.941 466.115 419.941 465.694C419.941 465.259 420.086 464.896 420.376 464.606C420.681 464.316 421.044 464.171 421.464 464.171C421.885 464.171 422.241 464.316 422.531 464.606C422.835 464.896 422.988 465.259 422.988 465.694C422.988 466.115 422.835 466.478 422.531 466.782C422.241 467.073 421.885 467.218 421.464 467.218ZM421.464 458.296C421.044 458.296 420.681 458.151 420.376 457.861C420.086 457.556 419.941 457.193 419.941 456.773C419.941 456.337 420.086 455.975 420.376 455.685C420.681 455.394 421.044 455.249 421.464 455.249C421.885 455.249 422.241 455.394 422.531 455.685C422.835 455.975 422.988 456.337 422.988 456.773C422.988 457.193 422.835 457.556 422.531 457.861C422.241 458.151 421.885 458.296 421.464 458.296ZM436.366 467.218C435.539 467.218 434.799 467.109 434.147 466.891C433.508 466.659 432.964 466.347 432.515 465.956C432.065 465.564 431.724 465.107 431.492 464.585C431.26 464.048 431.144 463.475 431.144 462.866H433.189C433.189 463.605 433.443 464.215 433.951 464.693C434.458 465.158 435.264 465.39 436.366 465.39C437.469 465.39 438.274 465.15 438.781 464.672C439.289 464.178 439.543 463.54 439.543 462.757C439.543 461.944 439.282 461.292 438.76 460.798C438.252 460.291 437.454 460.037 436.366 460.037H434.734V458.296H436.366C437.411 458.296 438.165 458.078 438.629 457.643C439.093 457.193 439.325 456.577 439.325 455.793C439.325 455.039 439.101 454.452 438.651 454.031C438.201 453.596 437.44 453.378 436.366 453.378C435.336 453.378 434.582 453.603 434.103 454.053C433.639 454.488 433.407 455.032 433.407 455.685H431.361C431.361 455.119 431.47 454.582 431.688 454.074C431.92 453.567 432.246 453.131 432.667 452.769C433.102 452.392 433.624 452.094 434.234 451.877C434.857 451.659 435.568 451.55 436.366 451.55C437.164 451.55 437.875 451.659 438.499 451.877C439.122 452.094 439.645 452.384 440.065 452.747C440.501 453.11 440.827 453.538 441.045 454.031C441.262 454.524 441.371 455.039 441.371 455.576C441.371 456.446 441.139 457.186 440.675 457.795C440.225 458.39 439.587 458.811 438.76 459.057C439.63 459.333 440.319 459.783 440.827 460.407C441.335 461.03 441.589 461.886 441.589 462.974C441.589 463.555 441.473 464.106 441.24 464.628C441.008 465.136 440.667 465.586 440.218 465.977C439.782 466.354 439.238 466.659 438.586 466.891C437.933 467.109 437.193 467.218 436.366 467.218ZM449.748 467.218C448.906 467.218 448.145 467.08 447.463 466.804C446.781 466.529 446.194 466.108 445.7 465.542C445.222 464.962 444.852 464.236 444.591 463.366C444.33 462.496 444.199 461.458 444.199 460.254V459.819C444.199 458.325 444.351 457.056 444.656 456.011C444.961 454.952 445.374 454.096 445.896 453.443C446.419 452.776 447.028 452.297 447.724 452.007C448.42 451.702 449.168 451.55 449.965 451.55C451.141 451.55 452.127 451.833 452.925 452.399C453.737 452.95 454.274 453.791 454.535 454.923H452.49C452.083 453.893 451.242 453.378 449.965 453.378C449.414 453.378 448.906 453.472 448.442 453.661C447.978 453.849 447.572 454.161 447.224 454.597C446.89 455.032 446.622 455.612 446.419 456.337C446.215 457.063 446.099 457.969 446.07 459.057C446.273 458.709 446.52 458.412 446.81 458.165C447.1 457.904 447.412 457.701 447.746 457.556C448.094 457.396 448.449 457.28 448.812 457.208C449.175 457.135 449.523 457.099 449.857 457.099C451.38 457.099 452.591 457.527 453.491 458.383C454.405 459.224 454.862 460.436 454.862 462.017V462.234C454.862 462.96 454.724 463.627 454.448 464.236C454.187 464.846 453.824 465.375 453.36 465.825C452.896 466.26 452.352 466.601 451.728 466.848C451.104 467.094 450.444 467.218 449.748 467.218ZM449.574 465.39C450.633 465.39 451.438 465.121 451.989 464.585C452.54 464.048 452.816 463.272 452.816 462.256V462.039C452.816 461.038 452.54 460.269 451.989 459.732C451.438 459.195 450.633 458.927 449.574 458.927C448.515 458.927 447.71 459.195 447.158 459.732C446.607 460.269 446.331 461.038 446.331 462.039V462.256C446.331 463.257 446.607 464.033 447.158 464.585C447.71 465.121 448.515 465.39 449.574 465.39Z" fill="black"/>
<path d="M586.752 467.218C585.896 467.218 585.084 467.073 584.315 466.782C583.546 466.478 582.864 466.014 582.269 465.39C581.675 464.751 581.203 463.946 580.855 462.974C580.507 462.002 580.333 460.842 580.333 459.493V459.057C580.333 457.752 580.507 456.628 580.855 455.685C581.203 454.742 581.675 453.966 582.269 453.356C582.864 452.747 583.546 452.297 584.315 452.007C585.084 451.702 585.896 451.55 586.752 451.55C587.579 451.55 588.333 451.659 589.015 451.877C589.711 452.094 590.321 452.406 590.843 452.812C591.365 453.218 591.786 453.719 592.105 454.314C592.439 454.908 592.649 455.583 592.736 456.337H590.56C590.357 455.351 589.929 454.611 589.276 454.118C588.623 453.625 587.782 453.378 586.752 453.378C586.215 453.378 585.693 453.48 585.185 453.683C584.678 453.886 584.221 454.212 583.814 454.662C583.423 455.097 583.104 455.677 582.857 456.403C582.625 457.128 582.509 458.013 582.509 459.057V459.493C582.509 460.595 582.639 461.524 582.9 462.278C583.162 463.018 583.495 463.62 583.901 464.084C584.308 464.548 584.765 464.882 585.272 465.085C585.78 465.288 586.273 465.39 586.752 465.39C587.884 465.39 588.768 465.114 589.407 464.563C590.045 464.012 590.43 463.301 590.56 462.43H592.736C592.62 463.272 592.388 463.997 592.04 464.606C591.692 465.201 591.249 465.694 590.712 466.086C590.19 466.478 589.588 466.768 588.906 466.956C588.239 467.131 587.521 467.218 586.752 467.218ZM595.558 455.467H597.342V457.643C597.734 456.874 598.278 456.287 598.975 455.88C599.685 455.46 600.505 455.249 601.433 455.249C602.884 455.249 604.045 455.728 604.915 456.686C605.786 457.629 606.221 459.036 606.221 460.907V461.342C606.221 462.329 606.105 463.192 605.873 463.932C605.64 464.657 605.314 465.266 604.893 465.76C604.473 466.238 603.965 466.601 603.37 466.848C602.79 467.094 602.144 467.218 601.433 467.218C600.447 467.218 599.62 467 598.953 466.565C598.3 466.13 597.807 465.586 597.473 464.933V471.352H595.558V455.467ZM600.998 465.52C601.462 465.52 601.898 465.433 602.304 465.259C602.71 465.071 603.058 464.802 603.348 464.454C603.653 464.106 603.885 463.671 604.045 463.148C604.219 462.626 604.306 462.024 604.306 461.342V460.907C604.306 460.283 604.219 459.725 604.045 459.232C603.885 458.738 603.653 458.325 603.348 457.991C603.058 457.643 602.71 457.382 602.304 457.208C601.898 457.034 601.462 456.947 600.998 456.947C600.476 456.947 599.997 457.034 599.562 457.208C599.127 457.367 598.757 457.6 598.452 457.904C598.148 458.194 597.908 458.542 597.734 458.949C597.56 459.355 597.473 459.79 597.473 460.254V461.995C597.473 462.517 597.56 462.996 597.734 463.431C597.908 463.867 598.148 464.236 598.452 464.541C598.757 464.846 599.127 465.085 599.562 465.259C599.997 465.433 600.476 465.52 600.998 465.52ZM613.733 467.218C612.993 467.218 612.29 467.102 611.622 466.869C610.955 466.637 610.368 466.282 609.86 465.803C609.352 465.31 608.946 464.693 608.641 463.954C608.337 463.214 608.184 462.343 608.184 461.342V460.907C608.184 459.95 608.329 459.123 608.619 458.426C608.91 457.716 609.294 457.128 609.773 456.664C610.266 456.185 610.832 455.83 611.47 455.598C612.123 455.365 612.805 455.249 613.516 455.249C615.213 455.249 616.526 455.714 617.454 456.642C618.383 457.571 618.847 458.883 618.847 460.581V461.799H610.099C610.099 462.481 610.208 463.054 610.426 463.518C610.643 463.983 610.926 464.36 611.274 464.65C611.622 464.94 612.007 465.15 612.428 465.281C612.863 465.411 613.298 465.477 613.733 465.477C614.604 465.477 615.271 465.332 615.735 465.042C616.214 464.751 616.555 464.352 616.758 463.845H618.629C618.513 464.396 618.303 464.882 617.998 465.303C617.708 465.723 617.345 466.079 616.91 466.369C616.489 466.645 616.003 466.855 615.452 467C614.915 467.145 614.342 467.218 613.733 467.218ZM613.624 456.99C613.175 456.99 612.739 457.056 612.319 457.186C611.898 457.302 611.521 457.498 611.187 457.774C610.868 458.035 610.607 458.368 610.404 458.775C610.201 459.181 610.099 459.667 610.099 460.233H617.041C617.026 459.638 616.925 459.137 616.736 458.731C616.562 458.31 616.323 457.977 616.018 457.73C615.713 457.469 615.351 457.28 614.93 457.164C614.524 457.048 614.089 456.99 613.624 456.99ZM620.05 465.303H621.465C621.624 465.085 621.77 464.751 621.9 464.302C622.031 463.852 622.147 463.323 622.248 462.713C622.35 462.104 622.422 461.444 622.466 460.733C622.524 460.008 622.553 459.268 622.553 458.513V455.467H630.604V465.303H632.236V469.72H630.408V467H621.878V469.72H620.05V465.303ZM628.689 465.303V457.164H624.424V458.949C624.424 459.558 624.403 460.167 624.359 460.777C624.315 461.371 624.25 461.944 624.163 462.496C624.076 463.032 623.967 463.547 623.837 464.041C623.721 464.519 623.583 464.94 623.423 465.303H628.689ZM634.531 455.467H636.446V460.276H642.409V455.467H644.323V467H642.409V461.973H636.446V467H634.531V455.467ZM650.076 462.43C649.118 462.213 648.429 461.821 648.009 461.255C647.588 460.675 647.378 459.935 647.378 459.036C647.378 457.904 647.718 457.027 648.4 456.403C649.097 455.779 650.206 455.467 651.73 455.467H656.734V467H654.82V462.604H651.882L649.075 467H646.942L650.076 462.43ZM649.292 459.036C649.292 459.645 649.467 460.109 649.815 460.428C650.177 460.748 650.779 460.907 651.621 460.907H654.82V457.164H651.621C650.779 457.164 650.177 457.324 649.815 457.643C649.467 457.962 649.292 458.426 649.292 459.036ZM662.486 462.43C661.529 462.213 660.839 461.821 660.419 461.255C659.998 460.675 659.788 459.935 659.788 459.036C659.788 457.904 660.129 457.027 660.81 456.403C661.507 455.779 662.617 455.467 664.14 455.467H669.145V467H667.23V462.604H664.292L661.485 467H659.353L662.486 462.43ZM661.703 459.036C661.703 459.645 661.877 460.109 662.225 460.428C662.588 460.748 663.19 460.907 664.031 460.907H667.23V457.164H664.031C663.19 457.164 662.588 457.324 662.225 457.643C661.877 457.962 661.703 458.426 661.703 459.036ZM674.156 467.218C673.736 467.218 673.373 467.073 673.068 466.782C672.778 466.478 672.633 466.115 672.633 465.694C672.633 465.259 672.778 464.896 673.068 464.606C673.373 464.316 673.736 464.171 674.156 464.171C674.577 464.171 674.932 464.316 675.223 464.606C675.527 464.896 675.68 465.259 675.68 465.694C675.68 466.115 675.527 466.478 675.223 466.782C674.932 467.073 674.577 467.218 674.156 467.218ZM674.156 458.296C673.736 458.296 673.373 458.151 673.068 457.861C672.778 457.556 672.633 457.193 672.633 456.773C672.633 456.337 672.778 455.975 673.068 455.685C673.373 455.394 673.736 455.249 674.156 455.249C674.577 455.249 674.932 455.394 675.223 455.685C675.527 455.975 675.68 456.337 675.68 456.773C675.68 457.193 675.527 457.556 675.223 457.861C674.932 458.151 674.577 458.296 674.156 458.296ZM683.727 465.324L689.82 460.037C690.284 459.645 690.661 459.29 690.951 458.97C691.256 458.651 691.495 458.354 691.669 458.078C691.843 457.788 691.959 457.505 692.017 457.23C692.09 456.954 692.126 456.657 692.126 456.337C692.126 455.482 691.872 454.778 691.365 454.227C690.857 453.661 690.16 453.378 689.276 453.378C688.217 453.378 687.404 453.668 686.838 454.248C686.273 454.814 685.99 455.619 685.99 456.664H683.944C683.944 455.924 684.068 455.242 684.314 454.618C684.575 453.98 684.938 453.436 685.402 452.986C685.881 452.537 686.447 452.188 687.1 451.942C687.752 451.681 688.478 451.55 689.276 451.55C690.044 451.55 690.734 451.673 691.343 451.92C691.952 452.152 692.467 452.486 692.888 452.921C693.308 453.342 693.628 453.842 693.845 454.423C694.063 455.003 694.172 455.641 694.172 456.337C694.172 456.86 694.092 457.346 693.932 457.795C693.773 458.245 693.548 458.673 693.258 459.079C692.982 459.485 692.641 459.884 692.235 460.276C691.843 460.653 691.408 461.045 690.929 461.451L686.381 465.216H694.389V467H683.727V465.324ZM702.225 467.218C701.485 467.218 700.781 467.094 700.114 466.848C699.461 466.601 698.888 466.18 698.395 465.586C697.902 464.976 697.51 464.171 697.22 463.17C696.93 462.155 696.785 460.893 696.785 459.384V458.949C696.785 457.542 696.93 456.366 697.22 455.423C697.51 454.481 697.902 453.726 698.395 453.16C698.888 452.58 699.461 452.167 700.114 451.92C700.781 451.673 701.485 451.55 702.225 451.55C702.965 451.55 703.661 451.673 704.314 451.92C704.981 452.167 705.561 452.58 706.054 453.16C706.548 453.726 706.939 454.481 707.23 455.423C707.52 456.366 707.665 457.542 707.665 458.949V459.384C707.665 460.893 707.52 462.155 707.23 463.17C706.939 464.171 706.548 464.976 706.054 465.586C705.561 466.18 704.981 466.601 704.314 466.848C703.661 467.094 702.965 467.218 702.225 467.218ZM702.225 465.433C702.674 465.433 703.102 465.353 703.509 465.194C703.929 465.02 704.292 464.715 704.597 464.28C704.916 463.83 705.162 463.214 705.336 462.43C705.525 461.647 705.619 460.631 705.619 459.384V458.949C705.619 457.817 705.525 456.889 705.336 456.163C705.162 455.438 704.916 454.865 704.597 454.444C704.292 454.024 703.929 453.733 703.509 453.574C703.102 453.414 702.674 453.335 702.225 453.335C701.76 453.335 701.325 453.414 700.919 453.574C700.513 453.733 700.15 454.024 699.831 454.444C699.526 454.865 699.28 455.438 699.091 456.163C698.917 456.889 698.83 457.817 698.83 458.949V459.384C698.83 460.631 698.917 461.647 699.091 462.43C699.28 463.214 699.526 463.83 699.831 464.28C700.15 464.715 700.513 465.02 700.919 465.194C701.325 465.353 701.76 465.433 702.225 465.433Z" fill="black"/>
<path d="M826.117 451.768H828.249L833.341 461.451L838.433 451.768H840.479V467H838.433V455.467L834.059 463.736H832.536L828.162 455.467V467H826.117V451.768ZM847.689 467.218C847.051 467.218 846.485 467.131 845.992 466.956C845.513 466.768 845.107 466.514 844.773 466.195C844.44 465.876 844.186 465.499 844.012 465.063C843.838 464.628 843.75 464.149 843.75 463.627C843.75 462.481 844.084 461.654 844.751 461.146C845.433 460.639 846.405 460.385 847.667 460.385H851.41V459.601C851.41 458.615 851.185 457.933 850.736 457.556C850.3 457.179 849.64 456.99 848.755 456.99C847.928 456.99 847.326 457.15 846.949 457.469C846.572 457.774 846.362 458.122 846.318 458.513H844.403C844.432 458.049 844.556 457.621 844.773 457.23C845.005 456.823 845.31 456.475 845.687 456.185C846.079 455.895 846.543 455.67 847.08 455.511C847.617 455.336 848.211 455.249 848.864 455.249C850.228 455.249 851.309 455.576 852.106 456.229C852.919 456.867 853.325 457.919 853.325 459.384V464.062C853.325 464.672 853.325 465.208 853.325 465.673C853.34 466.122 853.376 466.565 853.434 467H851.758C851.715 466.666 851.686 466.354 851.671 466.064C851.657 465.76 851.649 465.419 851.649 465.042C851.345 465.651 850.852 466.166 850.17 466.587C849.488 467.007 848.661 467.218 847.689 467.218ZM848.103 465.477C848.552 465.477 848.973 465.419 849.365 465.303C849.771 465.172 850.126 464.991 850.431 464.759C850.736 464.512 850.975 464.215 851.149 463.867C851.323 463.518 851.41 463.112 851.41 462.648V461.865H847.994C847.283 461.865 846.724 462.01 846.318 462.3C845.912 462.575 845.709 463.018 845.709 463.627C845.709 464.164 845.898 464.606 846.275 464.955C846.666 465.303 847.276 465.477 848.103 465.477ZM856.707 455.467H858.622V460.298H860.145L864.454 455.467H866.717L861.712 460.994L866.935 467H864.497L860.145 461.952H858.622V467H856.707V455.467ZM873.26 467.218C872.52 467.218 871.831 467.102 871.192 466.869C870.554 466.623 870.003 466.26 869.539 465.781C869.074 465.288 868.704 464.672 868.429 463.932C868.168 463.192 868.037 462.329 868.037 461.342V460.907C868.037 459.979 868.182 459.159 868.472 458.448C868.762 457.737 869.147 457.15 869.626 456.686C870.104 456.207 870.656 455.851 871.279 455.619C871.918 455.373 872.578 455.249 873.26 455.249C873.941 455.249 874.551 455.344 875.087 455.532C875.639 455.721 876.11 455.982 876.502 456.316C876.908 456.649 877.234 457.041 877.481 457.491C877.742 457.94 877.931 458.426 878.047 458.949H876.088C875.972 458.673 875.835 458.419 875.675 458.187C875.53 457.94 875.341 457.73 875.109 457.556C874.892 457.382 874.63 457.244 874.326 457.143C874.021 457.041 873.666 456.99 873.26 456.99C872.839 456.99 872.433 457.07 872.041 457.23C871.649 457.375 871.301 457.607 870.996 457.926C870.692 458.231 870.445 458.63 870.257 459.123C870.083 459.616 869.996 460.211 869.996 460.907V461.342C869.996 462.082 870.083 462.72 870.257 463.257C870.445 463.779 870.692 464.207 870.996 464.541C871.301 464.86 871.649 465.1 872.041 465.259C872.433 465.404 872.839 465.477 873.26 465.477C873.97 465.477 874.565 465.303 875.044 464.955C875.537 464.606 875.885 464.128 876.088 463.518H878.047C877.771 464.664 877.205 465.571 876.35 466.238C875.494 466.891 874.464 467.218 873.26 467.218ZM880.656 455.467H882.571V464.171L888.534 455.467H890.449V467H888.534V458.296L882.571 467H880.656V455.467ZM893.938 455.467H895.983L900.096 462.648L904.209 455.467H906.124V467H904.209V458.622L900.792 464.498H899.269L895.853 458.622V467H893.938V455.467ZM912.885 467.218C912.247 467.218 911.681 467.131 911.188 466.956C910.709 466.768 910.303 466.514 909.969 466.195C909.636 465.876 909.382 465.499 909.208 465.063C909.034 464.628 908.947 464.149 908.947 463.627C908.947 462.481 909.28 461.654 909.948 461.146C910.629 460.639 911.601 460.385 912.863 460.385H916.606V459.601C916.606 458.615 916.381 457.933 915.932 457.556C915.496 457.179 914.836 456.99 913.951 456.99C913.125 456.99 912.522 457.15 912.145 457.469C911.768 457.774 911.558 458.122 911.514 458.513H909.599C909.628 458.049 909.752 457.621 909.969 457.23C910.201 456.823 910.506 456.475 910.883 456.185C911.275 455.895 911.739 455.67 912.276 455.511C912.813 455.336 913.407 455.249 914.06 455.249C915.424 455.249 916.505 455.576 917.303 456.229C918.115 456.867 918.521 457.919 918.521 459.384V464.062C918.521 464.672 918.521 465.208 918.521 465.673C918.536 466.122 918.572 466.565 918.63 467H916.954C916.911 466.666 916.882 466.354 916.867 466.064C916.853 465.76 916.846 465.419 916.846 465.042C916.541 465.651 916.048 466.166 915.366 466.587C914.684 467.007 913.857 467.218 912.885 467.218ZM913.299 465.477C913.748 465.477 914.169 465.419 914.561 465.303C914.967 465.172 915.322 464.991 915.627 464.759C915.932 464.512 916.171 464.215 916.345 463.867C916.519 463.518 916.606 463.112 916.606 462.648V461.865H913.19C912.479 461.865 911.92 462.01 911.514 462.3C911.108 462.575 910.905 463.018 910.905 463.627C910.905 464.164 911.094 464.606 911.471 464.955C911.862 465.303 912.472 465.477 913.299 465.477ZM921.359 467.218C921.142 467.218 920.924 467.196 920.706 467.152V465.237C920.779 465.252 920.888 465.259 921.033 465.259C921.352 465.259 921.628 465.158 921.86 464.955C922.106 464.751 922.302 464.396 922.447 463.888C922.592 463.381 922.701 462.691 922.774 461.821C922.846 460.951 922.883 459.848 922.883 458.513V455.467H931.151V467H929.237V457.164H924.797V458.949C924.797 460.559 924.725 461.894 924.58 462.953C924.435 464.012 924.217 464.86 923.927 465.499C923.651 466.122 923.296 466.565 922.861 466.826C922.426 467.087 921.925 467.218 921.359 467.218ZM934.632 455.467H936.547V459.819H939.311C940.761 459.819 941.828 460.138 942.509 460.777C943.206 461.415 943.554 462.3 943.554 463.431C943.554 464.534 943.206 465.404 942.509 466.043C941.828 466.681 940.761 467 939.311 467H934.632V455.467ZM939.202 465.303C940.101 465.303 940.732 465.143 941.095 464.824C941.458 464.505 941.639 464.033 941.639 463.41C941.639 462.786 941.458 462.314 941.095 461.995C940.732 461.676 940.101 461.516 939.202 461.516H936.547V465.303H939.202ZM946.065 455.467H947.98V460.276H953.942V455.467H955.857V467H953.942V461.973H947.98V467H946.065V455.467ZM962.632 467.218C961.994 467.218 961.428 467.131 960.935 466.956C960.456 466.768 960.05 466.514 959.716 466.195C959.383 465.876 959.129 465.499 958.955 465.063C958.781 464.628 958.694 464.149 958.694 463.627C958.694 462.481 959.027 461.654 959.695 461.146C960.376 460.639 961.348 460.385 962.61 460.385H966.353V459.601C966.353 458.615 966.128 457.933 965.679 457.556C965.243 457.179 964.583 456.99 963.698 456.99C962.872 456.99 962.27 457.15 961.892 457.469C961.515 457.774 961.305 458.122 961.261 458.513H959.346C959.375 458.049 959.499 457.621 959.716 457.23C959.948 456.823 960.253 456.475 960.63 456.185C961.022 455.895 961.486 455.67 962.023 455.511C962.56 455.336 963.154 455.249 963.807 455.249C965.171 455.249 966.252 455.576 967.05 456.229C967.862 456.867 968.268 457.919 968.268 459.384V464.062C968.268 464.672 968.268 465.208 968.268 465.673C968.283 466.122 968.319 466.565 968.377 467H966.701C966.658 466.666 966.629 466.354 966.614 466.064C966.6 465.76 966.593 465.419 966.593 465.042C966.288 465.651 965.795 466.166 965.113 466.587C964.431 467.007 963.604 467.218 962.632 467.218ZM963.046 465.477C963.495 465.477 963.916 465.419 964.308 465.303C964.714 465.172 965.069 464.991 965.374 464.759C965.679 464.512 965.918 464.215 966.092 463.867C966.266 463.518 966.353 463.112 966.353 462.648V461.865H962.937C962.226 461.865 961.667 462.01 961.261 462.3C960.855 462.575 960.652 463.018 960.652 463.627C960.652 464.164 960.841 464.606 961.218 464.955C961.609 465.303 962.219 465.477 963.046 465.477ZM973.913 462.43C972.956 462.213 972.267 461.821 971.846 461.255C971.425 460.675 971.215 459.935 971.215 459.036C971.215 457.904 971.556 457.027 972.238 456.403C972.934 455.779 974.044 455.467 975.567 455.467H980.572V467H978.657V462.604H975.72L972.912 467H970.78L973.913 462.43ZM973.13 459.036C973.13 459.645 973.304 460.109 973.652 460.428C974.015 460.748 974.617 460.907 975.458 460.907H978.657V457.164H975.458C974.617 457.164 974.015 457.324 973.652 457.643C973.304 457.962 973.13 458.426 973.13 459.036ZM985.584 467.218C985.163 467.218 984.8 467.073 984.496 466.782C984.206 466.478 984.061 466.115 984.061 465.694C984.061 465.259 984.206 464.896 984.496 464.606C984.8 464.316 985.163 464.171 985.584 464.171C986.004 464.171 986.36 464.316 986.65 464.606C986.955 464.896 987.107 465.259 987.107 465.694C987.107 466.115 986.955 466.478 986.65 466.782C986.36 467.073 986.004 467.218 985.584 467.218ZM985.584 458.296C985.163 458.296 984.8 458.151 984.496 457.861C984.206 457.556 984.061 457.193 984.061 456.773C984.061 456.337 984.206 455.975 984.496 455.685C984.8 455.394 985.163 455.249 985.584 455.249C986.004 455.249 986.36 455.394 986.65 455.685C986.955 455.975 987.107 456.337 987.107 456.773C987.107 457.193 986.955 457.556 986.65 457.861C986.36 458.151 986.004 458.296 985.584 458.296ZM1002.47 463.323H994.719V461.756L1002.25 451.768H1004.51V461.538H1006.47V463.323H1004.51V467H1002.47V463.323ZM1002.47 461.538V454.161L996.895 461.538H1002.47ZM1014.31 467.218C1013.57 467.218 1012.87 467.094 1012.2 466.848C1011.55 466.601 1010.97 466.18 1010.48 465.586C1009.99 464.976 1009.6 464.171 1009.31 463.17C1009.02 462.155 1008.87 460.893 1008.87 459.384V458.949C1008.87 457.542 1009.02 456.366 1009.31 455.423C1009.6 454.481 1009.99 453.726 1010.48 453.16C1010.97 452.58 1011.55 452.167 1012.2 451.92C1012.87 451.673 1013.57 451.55 1014.31 451.55C1015.05 451.55 1015.75 451.673 1016.4 451.92C1017.07 452.167 1017.65 452.58 1018.14 453.16C1018.63 453.726 1019.03 454.481 1019.32 455.423C1019.61 456.366 1019.75 457.542 1019.75 458.949V459.384C1019.75 460.893 1019.61 462.155 1019.32 463.17C1019.03 464.171 1018.63 464.976 1018.14 465.586C1017.65 466.18 1017.07 466.601 1016.4 466.848C1015.75 467.094 1015.05 467.218 1014.31 467.218ZM1014.31 465.433C1014.76 465.433 1015.19 465.353 1015.59 465.194C1016.02 465.02 1016.38 464.715 1016.68 464.28C1017 463.83 1017.25 463.214 1017.42 462.43C1017.61 461.647 1017.71 460.631 1017.71 459.384V458.949C1017.71 457.817 1017.61 456.889 1017.42 456.163C1017.25 455.438 1017 454.865 1016.68 454.444C1016.38 454.024 1016.02 453.733 1015.59 453.574C1015.19 453.414 1014.76 453.335 1014.31 453.335C1013.85 453.335 1013.41 453.414 1013.01 453.574C1012.6 453.733 1012.24 454.024 1011.92 454.444C1011.61 454.865 1011.37 455.438 1011.18 456.163C1011 456.889 1010.92 457.817 1010.92 458.949V459.384C1010.92 460.631 1011 461.647 1011.18 462.43C1011.37 463.214 1011.61 463.83 1011.92 464.28C1012.24 464.715 1012.6 465.02 1013.01 465.194C1013.41 465.353 1013.85 465.433 1014.31 465.433Z" fill="black"/>
<path d="M1069.39 359.189L1059.39 353.416V364.963L1069.39 359.189ZM293.52 360.189H1060.39V358.189H293.52V360.189Z" fill="black"/>
<path d="M293.52 100L287.746 110L299.293 110L293.52 100ZM294.52 359.189L294.52 109L292.52 109L292.52 359.189L294.52 359.189Z" fill="black"/>
<path d="M293.52 359.189C293.52 328.689 293.52 365.089 293.52 335.089C294.32 335.089 295.22 335.089 296.02 335.089C296.02 356.089 296.02 313.789 296.02 335.089C301.72 335.089 306.92 335.089 312.22 335.089C313.42 327.489 314.62 319.989 315.82 312.589C316.92 312.189 318.02 311.789 319.12 311.389C321.82 318.689 324.52 326.089 327.52 334.489C329.12 334.389 332.82 334.189 335.72 333.989C337.82 327.389 339.72 321.289 343.02 310.789C345.82 319.089 347.02 322.689 348.52 326.989C350.22 323.789 351.72 320.989 354.02 316.589C354.92 324.289 355.72 330.389 357.02 340.789C361.72 330.689 364.42 324.789 367.42 318.489C369.52 319.989 370.92 320.989 371.22 321.189C372.72 325.889 373.82 329.389 374.92 332.789C378.62 333.089 381.62 333.389 384.82 333.589C386.12 329.889 387.32 326.489 389.52 320.189C392.92 324.889 395.32 328.189 399.12 333.389C401.32 333.889 405.92 334.989 409.52 335.789C412.12 327.489 414.12 320.989 416.12 314.689C419.22 323.089 422.12 330.989 424.72 338.089C444.92 338.089 462.32 338.089 479.52 338.089C482.22 330.689 485.02 323.189 489.02 312.289C491.92 323.189 493.72 329.889 495.62 336.889C497.92 336.789 500.02 336.589 501.22 336.589C504.52 326.289 507.62 316.589 510.72 306.889C511.82 307.289 512.92 307.689 514.02 307.989C514.82 316.289 515.62 324.489 516.52 332.789C519.82 334.489 522.82 336.089 528.32 338.989C530.72 328.489 532.92 318.889 535.02 309.389C535.82 309.389 536.62 309.289 537.42 309.289C538.82 316.689 540.22 324.089 541.62 331.389C542.22 331.289 542.82 331.089 543.42 330.989C543.62 332.389 543.82 333.689 544.12 335.389C547.22 335.589 550.32 335.789 553.12 335.889C555.12 327.089 557.12 318.389 559.12 309.789C560.12 309.989 561.22 310.089 562.22 310.289C563.72 318.689 565.12 327.089 566.62 335.589C571.02 336.389 574.52 336.989 577.72 337.589C579.52 327.489 581.32 317.789 583.02 308.089C584.32 308.189 585.72 308.289 587.02 308.289C587.82 315.489 587.82 322.889 589.72 329.789C590.62 332.889 595.22 336.989 598.32 337.189C613.72 338.289 629.22 338.189 644.72 338.489C646.22 338.489 647.72 338.589 650.72 338.789C652.92 329.789 655.12 320.789 657.82 309.289C660.42 319.989 662.32 328.189 664.32 336.589C679.32 339.489 679.92 336.489 679.92 336.489C682.22 328.389 681.32 301.989 681.92 293.389C682.02 292.489 682.62 291.589 684.02 288.089C685.92 306.389 687.62 321.889 689.22 337.589C692.42 337.989 695.42 338.389 698.32 338.689C700.92 328.689 703.32 319.089 706.12 308.289C707.92 315.089 709.22 320.389 710.62 325.789C711.42 325.589 712.12 325.489 712.92 325.289C712.92 328.389 712.92 331.489 712.92 334.989C715.92 336.189 718.92 337.389 722.52 338.889C724.82 329.889 727.02 321.489 729.22 313.089C730.22 313.089 731.12 313.089 732.12 313.089C733.92 321.689 735.82 330.289 737.72 339.289C740.42 339.089 743.32 338.889 745.62 338.689C747.82 328.989 749.82 319.889 751.82 310.789C753.72 310.789 754.72 310.789 755.32 310.789C757.12 319.789 758.82 328.689 760.62 337.789C764.52 338.089 767.92 338.389 771.62 338.689C773.32 335.589 775.02 332.589 777.52 328.089C779.62 332.189 781.22 335.289 782.92 338.689C794.92 338.689 807.22 338.689 819.92 338.689C820.72 332.189 821.52 325.689 822.32 319.189C824.32 318.089 826.22 316.889 828.22 315.789C831.22 323.389 834.22 331.089 837.42 339.089C840.62 336.889 842.62 335.489 844.62 334.089C845.12 326.589 845.62 319.189 846.12 311.389C848.12 311.589 849.72 311.789 851.42 311.989C853.42 320.889 855.32 329.489 857.32 338.289C860.62 338.489 863.72 338.589 866.82 338.789C868.72 326.789 870.62 314.789 872.52 302.689C873.22 302.689 873.92 302.789 874.52 302.789C876.32 311.289 879.12 319.689 879.72 328.289C880.52 341.489 886.32 337.289 893.02 332.889C893.42 326.889 893.82 320.789 894.22 314.589C894.72 314.789 895.32 314.889 895.82 315.089C897.02 311.689 898.22 308.289 900.22 302.889C901.62 314.889 902.82 325.089 904.02 335.689C906.92 336.789 909.62 337.789 914.92 339.789C916.92 330.089 918.72 321.189 920.92 310.489C920.02 311.189 920.82 310.589 922.52 309.189C924.02 318.689 925.52 327.589 926.92 336.489C931.62 337.589 935.82 338.489 940.02 339.489C941.52 338.289 943.02 337.089 942.02 337.889C955.42 338.789 966.32 339.489 977.12 340.089C978.22 338.589 978.92 337.689 979.62 336.789C980.82 337.589 982.12 338.389 983.32 339.189C987.82 331.589 992.32 323.889 997.32 315.189C999.22 321.289 1000.82 326.589 1002.62 332.389C1005.42 333.389 1008.72 334.589 1012.62 335.989C1016.02 322.989 1019.32 310.289 1022.42 298.289C1023.02 300.489 1024.02 303.589 1025.02 306.989C1026.72 306.689 1028.32 306.389 1030.52 305.989C1030.52 323.689 1030.52 341.189 1030.52 358.889" fill="#E87F53"/>
<rect x="553" y="519" width="29.832" height="29.832" fill="#E87F53"/>
<path d="M606.124 540.218C605.225 540.218 604.427 540.109 603.731 539.891C603.034 539.659 602.439 539.34 601.946 538.934C601.453 538.528 601.061 538.049 600.771 537.498C600.481 536.932 600.307 536.315 600.249 535.648H602.294C602.41 536.475 602.802 537.142 603.469 537.65C604.137 538.143 605.022 538.39 606.124 538.39C607.473 538.39 608.445 538.15 609.04 537.672C609.649 537.193 609.954 536.547 609.954 535.735C609.954 534.952 609.664 534.306 609.084 533.798C608.503 533.276 607.553 533.015 606.233 533.015H604.166V531.318H606.233C607.321 531.318 608.119 531.086 608.627 530.621C609.149 530.143 609.41 529.541 609.41 528.815C609.41 528.09 609.134 527.502 608.583 527.053C608.032 526.603 607.212 526.378 606.124 526.378C604.964 526.378 604.108 526.603 603.556 527.053C603.02 527.488 602.708 528.068 602.621 528.793H600.575C600.633 528.184 600.786 527.618 601.032 527.096C601.293 526.574 601.656 526.124 602.12 525.747C602.584 525.37 603.15 525.08 603.818 524.877C604.485 524.659 605.254 524.55 606.124 524.55C607.879 524.55 609.207 524.942 610.106 525.725C611.006 526.509 611.455 527.539 611.455 528.815C611.455 529.613 611.223 530.295 610.759 530.861C610.309 531.412 609.707 531.811 608.953 532.057C609.867 532.275 610.6 532.696 611.151 533.32C611.717 533.943 611.999 534.749 611.999 535.735C611.999 536.388 611.869 536.99 611.608 537.541C611.361 538.078 610.984 538.549 610.476 538.956C609.983 539.347 609.374 539.659 608.648 539.891C607.923 540.109 607.082 540.218 606.124 540.218ZM618.085 540.218C617.446 540.218 616.881 540.131 616.387 539.956C615.909 539.768 615.502 539.514 615.169 539.195C614.835 538.876 614.581 538.499 614.407 538.063C614.233 537.628 614.146 537.149 614.146 536.627C614.146 535.481 614.48 534.654 615.147 534.146C615.829 533.639 616.801 533.385 618.063 533.385H621.806V532.601C621.806 531.615 621.581 530.933 621.131 530.556C620.696 530.179 620.036 529.99 619.151 529.99C618.324 529.99 617.722 530.15 617.345 530.469C616.968 530.774 616.757 531.122 616.714 531.513H614.799C614.828 531.049 614.951 530.621 615.169 530.23C615.401 529.823 615.706 529.475 616.083 529.185C616.474 528.895 616.939 528.67 617.475 528.511C618.012 528.336 618.607 528.249 619.26 528.249C620.623 528.249 621.704 528.576 622.502 529.229C623.314 529.867 623.721 530.919 623.721 532.384V537.062C623.721 537.672 623.721 538.208 623.721 538.673C623.735 539.122 623.771 539.565 623.829 540H622.154C622.11 539.666 622.081 539.354 622.067 539.064C622.052 538.76 622.045 538.419 622.045 538.042C621.74 538.651 621.247 539.166 620.565 539.587C619.884 540.007 619.057 540.218 618.085 540.218ZM618.498 538.477C618.948 538.477 619.369 538.419 619.76 538.303C620.166 538.172 620.522 537.991 620.826 537.759C621.131 537.512 621.37 537.215 621.545 536.867C621.719 536.518 621.806 536.112 621.806 535.648V534.865H618.389C617.678 534.865 617.12 535.01 616.714 535.3C616.308 535.575 616.104 536.018 616.104 536.627C616.104 537.164 616.293 537.606 616.67 537.955C617.062 538.303 617.671 538.477 618.498 538.477ZM627.103 528.467H634.937V530.164H629.018V540H627.103V528.467ZM637.112 528.467H638.896V530.643C639.288 529.874 639.832 529.287 640.528 528.88C641.239 528.46 642.059 528.249 642.987 528.249C644.438 528.249 645.598 528.728 646.469 529.686C647.339 530.629 647.774 532.036 647.774 533.907V534.342C647.774 535.329 647.658 536.192 647.426 536.932C647.194 537.657 646.868 538.266 646.447 538.76C646.026 539.238 645.518 539.601 644.924 539.848C644.343 540.094 643.698 540.218 642.987 540.218C642.001 540.218 641.174 540 640.506 539.565C639.854 539.13 639.36 538.586 639.027 537.933V544.352H637.112V528.467ZM642.552 538.52C643.016 538.52 643.451 538.433 643.857 538.259C644.264 538.071 644.612 537.802 644.902 537.454C645.207 537.106 645.439 536.671 645.598 536.148C645.772 535.626 645.859 535.024 645.859 534.342V533.907C645.859 533.283 645.772 532.725 645.598 532.232C645.439 531.738 645.207 531.325 644.902 530.991C644.612 530.643 644.264 530.382 643.857 530.208C643.451 530.034 643.016 529.947 642.552 529.947C642.03 529.947 641.551 530.034 641.116 530.208C640.68 530.367 640.31 530.6 640.006 530.904C639.701 531.194 639.462 531.542 639.288 531.949C639.114 532.355 639.027 532.79 639.027 533.254V534.995C639.027 535.517 639.114 535.996 639.288 536.431C639.462 536.867 639.701 537.236 640.006 537.541C640.31 537.846 640.68 538.085 641.116 538.259C641.551 538.433 642.03 538.52 642.552 538.52ZM651.598 544.57C651.38 544.57 651.162 544.548 650.945 544.504V542.764C651.162 542.807 651.38 542.829 651.598 542.829C651.815 542.829 652.004 542.793 652.163 542.72C652.323 542.648 652.475 542.51 652.62 542.307C652.765 542.104 652.918 541.813 653.077 541.436C653.251 541.074 653.447 540.595 653.665 540L648.769 528.467H650.901L654.644 537.824L658.039 528.467H660.084L655.732 540C655.427 540.812 655.137 541.509 654.862 542.089C654.586 542.669 654.289 543.141 653.97 543.503C653.665 543.881 653.324 544.149 652.947 544.309C652.57 544.483 652.12 544.57 651.598 544.57ZM665.743 540.218C664.292 540.218 663.153 539.913 662.326 539.304C661.499 538.694 661.043 537.838 660.955 536.736H662.87C662.972 537.302 663.269 537.737 663.763 538.042C664.27 538.332 664.93 538.477 665.743 538.477C666.744 538.477 667.469 538.31 667.919 537.976C668.383 537.628 668.615 537.215 668.615 536.736C668.615 536.17 668.427 535.728 668.049 535.409C667.672 535.075 667.019 534.908 666.091 534.908H664.111V533.341H665.96C666.758 533.341 667.324 533.189 667.658 532.884C668.006 532.58 668.18 532.152 668.18 531.601C668.18 531.165 667.977 530.788 667.571 530.469C667.164 530.15 666.555 529.99 665.743 529.99C664.858 529.99 664.212 530.135 663.806 530.425C663.414 530.701 663.175 531.1 663.088 531.622H661.173C661.217 531.144 661.347 530.701 661.565 530.295C661.797 529.874 662.109 529.512 662.5 529.207C662.892 528.902 663.356 528.67 663.893 528.511C664.444 528.336 665.061 528.249 665.743 528.249C666.483 528.249 667.121 528.336 667.658 528.511C668.209 528.67 668.666 528.902 669.029 529.207C669.391 529.497 669.66 529.845 669.834 530.251C670.008 530.658 670.095 531.107 670.095 531.601C670.095 532.152 669.957 532.638 669.681 533.058C669.406 533.465 668.963 533.784 668.354 534.016C669.166 534.234 669.732 534.582 670.051 535.06C670.37 535.539 670.53 536.098 670.53 536.736C670.53 537.215 670.428 537.664 670.225 538.085C670.022 538.506 669.718 538.876 669.311 539.195C668.92 539.5 668.419 539.746 667.81 539.935C667.215 540.123 666.526 540.218 665.743 540.218ZM673.259 528.467H675.173V533.298H676.697L681.005 528.467H683.268L678.263 533.994L683.486 540H681.049L676.697 534.952H675.173V540H673.259V528.467ZM688.848 540.218C688.21 540.218 687.644 540.131 687.151 539.956C686.672 539.768 686.266 539.514 685.932 539.195C685.599 538.876 685.345 538.499 685.171 538.063C684.997 537.628 684.91 537.149 684.91 536.627C684.91 535.481 685.243 534.654 685.911 534.146C686.592 533.639 687.564 533.385 688.827 533.385H692.569V532.601C692.569 531.615 692.344 530.933 691.895 530.556C691.46 530.179 690.799 529.99 689.915 529.99C689.088 529.99 688.486 530.15 688.108 530.469C687.731 530.774 687.521 531.122 687.477 531.513H685.563C685.592 531.049 685.715 530.621 685.932 530.23C686.165 529.823 686.469 529.475 686.846 529.185C687.238 528.895 687.702 528.67 688.239 528.511C688.776 528.336 689.371 528.249 690.023 528.249C691.387 528.249 692.468 528.576 693.266 529.229C694.078 529.867 694.484 530.919 694.484 532.384V537.062C694.484 537.672 694.484 538.208 694.484 538.673C694.499 539.122 694.535 539.565 694.593 540H692.918C692.874 539.666 692.845 539.354 692.83 539.064C692.816 538.76 692.809 538.419 692.809 538.042C692.504 538.651 692.011 539.166 691.329 539.587C690.647 540.007 689.82 540.218 688.848 540.218ZM689.262 538.477C689.711 538.477 690.132 538.419 690.524 538.303C690.93 538.172 691.285 537.991 691.59 537.759C691.895 537.512 692.134 537.215 692.308 536.867C692.482 536.518 692.569 536.112 692.569 535.648V534.865H689.153C688.442 534.865 687.884 535.01 687.477 535.3C687.071 535.575 686.868 536.018 686.868 536.627C686.868 537.164 687.057 537.606 687.434 537.955C687.826 538.303 688.435 538.477 689.262 538.477ZM715.601 540H703.742V524.768H705.787V538.216H713.447V524.768H715.492V538.216H717.56V542.829H715.601V540ZM720.381 524.768H732.349V540H730.303V526.552H722.426V540H720.381V524.768Z" fill="black"/>
</svg>
