<svg width="782" height="782" viewBox="0 0 782 782" fill="none" xmlns="http://www.w3.org/2000/svg">
<path d="M642.684 536.236C617.159 580.446 580.446 617.159 536.235 642.684C492.025 668.209 441.874 681.647 390.824 681.647C339.773 681.647 289.623 668.209 245.412 642.684C201.201 617.159 164.488 580.446 138.963 536.236L390.824 390.824L642.684 536.236Z" fill="#DBEEE5" stroke="#508C6D" stroke-width="2"/>
<path d="M276.431 529.503H278.476V536.053H280.217L286.18 529.503H288.617L281.958 536.771L288.834 544.735H286.223L280.217 537.75H278.476V544.735H276.431V529.503ZM295.594 544.953C294.855 544.953 294.151 544.837 293.484 544.605C292.816 544.358 292.229 543.995 291.721 543.517C291.213 543.024 290.807 542.407 290.503 541.667C290.198 540.927 290.046 540.064 290.046 539.078V538.642C290.046 537.714 290.198 536.894 290.503 536.184C290.807 535.473 291.213 534.885 291.721 534.421C292.229 533.942 292.816 533.587 293.484 533.355C294.151 533.108 294.855 532.985 295.594 532.985C296.334 532.985 297.038 533.108 297.705 533.355C298.373 533.587 298.96 533.942 299.468 534.421C299.976 534.885 300.382 535.473 300.686 536.184C300.991 536.894 301.143 537.714 301.143 538.642V539.078C301.143 540.064 300.991 540.927 300.686 541.667C300.382 542.407 299.976 543.024 299.468 543.517C298.96 543.995 298.373 544.358 297.705 544.605C297.038 544.837 296.334 544.953 295.594 544.953ZM295.594 543.212C296.03 543.212 296.465 543.14 296.9 542.995C297.335 542.835 297.72 542.596 298.053 542.276C298.387 541.943 298.655 541.515 298.859 540.993C299.076 540.47 299.185 539.832 299.185 539.078V538.642C299.185 537.946 299.076 537.351 298.859 536.858C298.655 536.365 298.387 535.959 298.053 535.64C297.72 535.32 297.335 535.088 296.9 534.943C296.465 534.798 296.03 534.726 295.594 534.726C295.159 534.726 294.724 534.798 294.289 534.943C293.854 535.088 293.469 535.32 293.136 535.64C292.802 535.959 292.526 536.365 292.309 536.858C292.106 537.351 292.004 537.946 292.004 538.642V539.078C292.004 539.832 292.106 540.47 292.309 540.993C292.526 541.515 292.802 541.943 293.136 542.276C293.469 542.596 293.854 542.835 294.289 542.995C294.724 543.14 295.159 543.212 295.594 543.212ZM303.855 533.202H305.77V538.011H311.732V533.202H313.647V544.735H311.732V539.709H305.77V544.735H303.855V533.202ZM322.489 544.953C320.487 544.953 318.964 544.445 317.92 543.43C316.89 542.414 316.375 540.971 316.375 539.099V538.664C316.375 536.88 316.89 535.487 317.92 534.486C318.964 533.485 320.487 532.985 322.489 532.985V529.503H324.404V532.985C326.406 532.985 327.922 533.485 328.952 534.486C329.997 535.487 330.519 536.88 330.519 538.664V539.099C330.519 540.971 329.997 542.414 328.952 543.43C327.922 544.445 326.406 544.953 324.404 544.953V549.087H322.489V544.953ZM328.561 538.664C328.561 537.344 328.22 536.358 327.538 535.705C326.87 535.052 325.819 534.726 324.383 534.726V543.212C325.819 543.212 326.87 542.878 327.538 542.211C328.22 541.544 328.561 540.507 328.561 539.099V538.664ZM318.333 539.099C318.333 540.507 318.667 541.544 319.334 542.211C320.016 542.878 321.075 543.212 322.511 543.212V534.726C321.075 534.726 320.016 535.052 319.334 535.705C318.667 536.358 318.333 537.344 318.333 538.664V539.099ZM333.244 533.202H335.159V541.907L341.121 533.202H343.036V544.735H341.121V536.031L335.159 544.735H333.244V533.202ZM345.22 543.038H346.634C346.794 542.82 346.939 542.487 347.07 542.037C347.2 541.587 347.316 541.058 347.418 540.449C347.519 539.839 347.592 539.179 347.635 538.468C347.693 537.743 347.722 537.003 347.722 536.249V533.202H355.774V543.038H357.406V547.455H355.578V544.735H347.048V547.455H345.22V543.038ZM353.859 543.038V534.9H349.594V536.684C349.594 537.293 349.572 537.903 349.529 538.512C349.485 539.107 349.42 539.68 349.333 540.231C349.246 540.768 349.137 541.283 349.006 541.776C348.89 542.255 348.752 542.675 348.593 543.038H353.859ZM364.488 544.953C363.748 544.953 363.045 544.837 362.377 544.605C361.71 544.373 361.122 544.017 360.615 543.539C360.107 543.045 359.701 542.429 359.396 541.689C359.091 540.949 358.939 540.079 358.939 539.078V538.642C358.939 537.685 359.084 536.858 359.374 536.162C359.665 535.451 360.049 534.863 360.528 534.399C361.021 533.92 361.587 533.565 362.225 533.333C362.878 533.101 363.56 532.985 364.27 532.985C365.968 532.985 367.281 533.449 368.209 534.377C369.138 535.306 369.602 536.619 369.602 538.316V539.535H360.854C360.854 540.216 360.963 540.789 361.18 541.254C361.398 541.718 361.681 542.095 362.029 542.385C362.377 542.675 362.762 542.886 363.182 543.016C363.618 543.147 364.053 543.212 364.488 543.212C365.358 543.212 366.026 543.067 366.49 542.777C366.969 542.487 367.31 542.088 367.513 541.58H369.384C369.268 542.131 369.058 542.617 368.753 543.038C368.463 543.459 368.1 543.814 367.665 544.104C367.244 544.38 366.758 544.59 366.207 544.735C365.67 544.88 365.097 544.953 364.488 544.953ZM364.379 534.726C363.93 534.726 363.494 534.791 363.074 534.921C362.653 535.037 362.276 535.233 361.942 535.509C361.623 535.77 361.362 536.104 361.159 536.51C360.956 536.916 360.854 537.402 360.854 537.968H367.796C367.781 537.373 367.68 536.873 367.491 536.466C367.317 536.046 367.078 535.712 366.773 535.465C366.468 535.204 366.106 535.016 365.685 534.9C365.279 534.784 364.843 534.726 364.379 534.726ZM372.323 533.202H374.238V538.011H380.201V533.202H382.116V544.735H380.201V539.709H374.238V544.735H372.323V533.202ZM394.984 544.735H385.605V533.202H387.52V543.038H393.047V533.202H394.962V543.038H396.812V547.455H394.984V544.735ZM399.099 533.202H401.014V541.907L406.976 533.202H408.891V544.735H406.976V536.031L401.014 544.735H399.099V533.202ZM415.666 544.953C415.028 544.953 414.462 544.866 413.969 544.692C413.49 544.503 413.084 544.249 412.75 543.93C412.417 543.611 412.163 543.234 411.989 542.799C411.815 542.363 411.728 541.885 411.728 541.362C411.728 540.216 412.061 539.39 412.729 538.882C413.41 538.374 414.382 538.12 415.644 538.12H419.387V537.337C419.387 536.35 419.162 535.669 418.713 535.291C418.277 534.914 417.617 534.726 416.732 534.726C415.906 534.726 415.304 534.885 414.926 535.204C414.549 535.509 414.339 535.857 414.295 536.249H412.38C412.409 535.785 412.533 535.357 412.75 534.965C412.982 534.559 413.287 534.211 413.664 533.92C414.056 533.63 414.52 533.405 415.057 533.246C415.594 533.072 416.188 532.985 416.841 532.985C418.205 532.985 419.286 533.311 420.084 533.964C420.896 534.602 421.302 535.654 421.302 537.119V541.798C421.302 542.407 421.302 542.944 421.302 543.408C421.317 543.858 421.353 544.3 421.411 544.735H419.735C419.692 544.402 419.663 544.09 419.648 543.8C419.634 543.495 419.627 543.154 419.627 542.777C419.322 543.386 418.829 543.901 418.147 544.322C417.465 544.743 416.638 544.953 415.666 544.953ZM416.08 543.212C416.529 543.212 416.95 543.154 417.342 543.038C417.748 542.907 418.103 542.726 418.408 542.494C418.713 542.247 418.952 541.95 419.126 541.602C419.3 541.254 419.387 540.848 419.387 540.383V539.6H415.971C415.26 539.6 414.701 539.745 414.295 540.035C413.889 540.311 413.686 540.753 413.686 541.362C413.686 541.899 413.875 542.342 414.252 542.69C414.643 543.038 415.253 543.212 416.08 543.212ZM424.14 544.953C423.923 544.953 423.705 544.931 423.488 544.888V542.973C423.56 542.987 423.669 542.995 423.814 542.995C424.133 542.995 424.409 542.893 424.641 542.69C424.887 542.487 425.083 542.131 425.228 541.624C425.373 541.116 425.482 540.427 425.555 539.556C425.627 538.686 425.664 537.583 425.664 536.249V533.202H433.932V544.735H432.018V534.9H427.578V536.684C427.578 538.294 427.506 539.629 427.361 540.688C427.216 541.747 426.998 542.596 426.708 543.234C426.432 543.858 426.077 544.3 425.642 544.561C425.207 544.822 424.706 544.953 424.14 544.953ZM437.413 533.202H439.328V537.554H442.092C443.542 537.554 444.609 537.874 445.291 538.512C445.987 539.15 446.335 540.035 446.335 541.167C446.335 542.269 445.987 543.14 445.291 543.778C444.609 544.416 443.542 544.735 442.092 544.735H437.413V533.202ZM441.983 543.038C442.882 543.038 443.513 542.878 443.876 542.559C444.239 542.24 444.42 541.769 444.42 541.145C444.42 540.521 444.239 540.05 443.876 539.73C443.513 539.411 442.882 539.252 441.983 539.252H439.328V543.038H441.983ZM448.846 533.202H450.761V538.011H456.723V533.202H458.638V544.735H456.723V539.709H450.761V544.735H448.846V533.202ZM466.915 544.953C466.175 544.953 465.471 544.837 464.804 544.605C464.137 544.358 463.549 543.995 463.041 543.517C462.534 543.024 462.127 542.407 461.823 541.667C461.518 540.927 461.366 540.064 461.366 539.078V538.642C461.366 537.714 461.518 536.894 461.823 536.184C462.127 535.473 462.534 534.885 463.041 534.421C463.549 533.942 464.137 533.587 464.804 533.355C465.471 533.108 466.175 532.985 466.915 532.985C467.655 532.985 468.358 533.108 469.025 533.355C469.693 533.587 470.28 533.942 470.788 534.421C471.296 534.885 471.702 535.473 472.007 536.184C472.311 536.894 472.464 537.714 472.464 538.642V539.078C472.464 540.064 472.311 540.927 472.007 541.667C471.702 542.407 471.296 543.024 470.788 543.517C470.28 543.995 469.693 544.358 469.025 544.605C468.358 544.837 467.655 544.953 466.915 544.953ZM466.915 543.212C467.35 543.212 467.785 543.14 468.22 542.995C468.656 542.835 469.04 542.596 469.374 542.276C469.707 541.943 469.976 541.515 470.179 540.993C470.396 540.47 470.505 539.832 470.505 539.078V538.642C470.505 537.946 470.396 537.351 470.179 536.858C469.976 536.365 469.707 535.959 469.374 535.64C469.04 535.32 468.656 535.088 468.22 534.943C467.785 534.798 467.35 534.726 466.915 534.726C466.479 534.726 466.044 534.798 465.609 534.943C465.174 535.088 464.789 535.32 464.456 535.64C464.122 535.959 463.846 536.365 463.629 536.858C463.426 537.351 463.324 537.946 463.324 538.642V539.078C463.324 539.832 463.426 540.47 463.629 540.993C463.846 541.515 464.122 541.943 464.456 542.276C464.789 542.596 465.174 542.835 465.609 542.995C466.044 543.14 466.479 543.212 466.915 543.212ZM479.636 544.953C478.896 544.953 478.207 544.837 477.569 544.605C476.93 544.358 476.379 543.995 475.915 543.517C475.451 543.024 475.081 542.407 474.805 541.667C474.544 540.927 474.414 540.064 474.414 539.078V538.642C474.414 537.714 474.559 536.894 474.849 536.184C475.139 535.473 475.523 534.885 476.002 534.421C476.481 533.942 477.032 533.587 477.656 533.355C478.294 533.108 478.954 532.985 479.636 532.985C480.318 532.985 480.927 533.079 481.464 533.268C482.015 533.456 482.487 533.717 482.878 534.051C483.285 534.385 483.611 534.776 483.858 535.226C484.119 535.676 484.307 536.162 484.423 536.684H482.465C482.349 536.408 482.211 536.155 482.051 535.922C481.906 535.676 481.718 535.465 481.486 535.291C481.268 535.117 481.007 534.979 480.702 534.878C480.398 534.776 480.042 534.726 479.636 534.726C479.215 534.726 478.809 534.805 478.417 534.965C478.026 535.11 477.678 535.342 477.373 535.661C477.068 535.966 476.822 536.365 476.633 536.858C476.459 537.351 476.372 537.946 476.372 538.642V539.078C476.372 539.818 476.459 540.456 476.633 540.993C476.822 541.515 477.068 541.943 477.373 542.276C477.678 542.596 478.026 542.835 478.417 542.995C478.809 543.14 479.215 543.212 479.636 543.212C480.347 543.212 480.942 543.038 481.42 542.69C481.914 542.342 482.262 541.863 482.465 541.254H484.423C484.148 542.4 483.582 543.306 482.726 543.974C481.87 544.627 480.84 544.953 479.636 544.953ZM489.666 534.9H485.727V533.202H495.519V534.9H491.581V544.735H489.666V534.9ZM497.701 533.202H499.615V537.554H502.379C503.83 537.554 504.896 537.874 505.578 538.512C506.274 539.15 506.622 540.035 506.622 541.167C506.622 542.269 506.274 543.14 505.578 543.778C504.896 544.416 503.83 544.735 502.379 544.735H497.701V533.202ZM502.27 543.038C503.17 543.038 503.801 542.878 504.163 542.559C504.526 542.24 504.707 541.769 504.707 541.145C504.707 540.521 504.526 540.05 504.163 539.73C503.801 539.411 503.17 539.252 502.27 539.252H499.615V543.038H502.27Z" fill="black"/>
<path d="M390.824 100C441.874 100 492.025 113.438 536.235 138.963C580.446 164.488 617.159 201.201 642.684 245.412C668.209 289.623 681.647 339.773 681.647 390.824C681.647 441.874 668.209 492.025 642.684 536.235L390.824 390.824L390.824 100Z" fill="#ABD4C1" stroke="#508C6D" stroke-width="2"/>
<path d="M481.558 326.618H469.699V311.385H471.744V324.833H479.404V311.385H481.449V324.833H483.516V329.447H481.558V326.618ZM490.477 326.835C489.737 326.835 489.034 326.719 488.366 326.487C487.699 326.255 487.111 325.9 486.604 325.421C486.096 324.928 485.69 324.311 485.385 323.571C485.081 322.831 484.928 321.961 484.928 320.96V320.525C484.928 319.567 485.073 318.74 485.363 318.044C485.654 317.333 486.038 316.746 486.517 316.282C487.01 315.803 487.576 315.447 488.214 315.215C488.867 314.983 489.549 314.867 490.259 314.867C491.957 314.867 493.27 315.331 494.198 316.26C495.127 317.188 495.591 318.501 495.591 320.198V321.417H486.843C486.843 322.099 486.952 322.672 487.17 323.136C487.387 323.6 487.67 323.977 488.018 324.268C488.366 324.558 488.751 324.768 489.171 324.899C489.607 325.029 490.042 325.094 490.477 325.094C491.348 325.094 492.015 324.949 492.479 324.659C492.958 324.369 493.299 323.97 493.502 323.462H495.373C495.257 324.014 495.047 324.5 494.742 324.92C494.452 325.341 494.089 325.696 493.654 325.987C493.233 326.262 492.747 326.473 492.196 326.618C491.659 326.763 491.086 326.835 490.477 326.835ZM490.368 316.608C489.919 316.608 489.483 316.673 489.063 316.804C488.642 316.92 488.265 317.116 487.931 317.391C487.612 317.652 487.351 317.986 487.148 318.392C486.945 318.798 486.843 319.284 486.843 319.85H493.785C493.77 319.255 493.669 318.755 493.48 318.349C493.306 317.928 493.067 317.594 492.762 317.348C492.457 317.087 492.095 316.898 491.674 316.782C491.268 316.666 490.833 316.608 490.368 316.608ZM497.556 326.835C497.338 326.835 497.121 326.814 496.903 326.77V324.855C496.976 324.87 497.085 324.877 497.23 324.877C497.549 324.877 497.824 324.775 498.056 324.572C498.303 324.369 498.499 324.014 498.644 323.506C498.789 322.998 498.898 322.309 498.97 321.439C499.043 320.568 499.079 319.466 499.079 318.131V315.085H507.348V326.618H505.433V316.782H500.994V318.566C500.994 320.177 500.922 321.511 500.777 322.57C500.631 323.629 500.414 324.478 500.124 325.116C499.848 325.74 499.493 326.182 499.057 326.444C498.622 326.705 498.122 326.835 497.556 326.835ZM515.616 326.835C514.876 326.835 514.173 326.719 513.505 326.487C512.838 326.24 512.251 325.878 511.743 325.399C511.235 324.906 510.829 324.289 510.524 323.549C510.22 322.81 510.067 321.946 510.067 320.96V320.525C510.067 319.596 510.22 318.777 510.524 318.066C510.829 317.355 511.235 316.767 511.743 316.303C512.251 315.825 512.838 315.469 513.505 315.237C514.173 314.99 514.876 314.867 515.616 314.867C516.356 314.867 517.06 314.99 517.727 315.237C518.394 315.469 518.982 315.825 519.49 316.303C519.997 316.767 520.404 317.355 520.708 318.066C521.013 318.777 521.165 319.596 521.165 320.525V320.96C521.165 321.946 521.013 322.81 520.708 323.549C520.404 324.289 519.997 324.906 519.49 325.399C518.982 325.878 518.394 326.24 517.727 326.487C517.06 326.719 516.356 326.835 515.616 326.835ZM515.616 325.094C516.051 325.094 516.487 325.022 516.922 324.877C517.357 324.717 517.742 324.478 518.075 324.159C518.409 323.825 518.677 323.397 518.88 322.875C519.098 322.353 519.207 321.714 519.207 320.96V320.525C519.207 319.828 519.098 319.234 518.88 318.74C518.677 318.247 518.409 317.841 518.075 317.522C517.742 317.203 517.357 316.971 516.922 316.826C516.487 316.68 516.051 316.608 515.616 316.608C515.181 316.608 514.746 316.68 514.311 316.826C513.875 316.971 513.491 317.203 513.157 317.522C512.824 317.841 512.548 318.247 512.33 318.74C512.127 319.234 512.026 319.828 512.026 320.525V320.96C512.026 321.714 512.127 322.353 512.33 322.875C512.548 323.397 512.824 323.825 513.157 324.159C513.491 324.478 513.875 324.717 514.311 324.877C514.746 325.022 515.181 325.094 515.616 325.094ZM528.338 326.835C527.598 326.835 526.909 326.719 526.27 326.487C525.632 326.24 525.081 325.878 524.617 325.399C524.152 324.906 523.782 324.289 523.507 323.549C523.246 322.81 523.115 321.946 523.115 320.96V320.525C523.115 319.596 523.26 318.777 523.55 318.066C523.84 317.355 524.225 316.767 524.704 316.303C525.182 315.825 525.734 315.469 526.357 315.237C526.996 314.99 527.656 314.867 528.338 314.867C529.019 314.867 529.629 314.961 530.165 315.15C530.717 315.339 531.188 315.6 531.58 315.933C531.986 316.267 532.312 316.659 532.559 317.108C532.82 317.558 533.009 318.044 533.125 318.566H531.166C531.05 318.291 530.913 318.037 530.753 317.805C530.608 317.558 530.419 317.348 530.187 317.174C529.97 317 529.708 316.862 529.404 316.76C529.099 316.659 528.744 316.608 528.338 316.608C527.917 316.608 527.511 316.688 527.119 316.847C526.727 316.992 526.379 317.224 526.074 317.544C525.77 317.848 525.523 318.247 525.335 318.74C525.161 319.234 525.073 319.828 525.073 320.525V320.96C525.073 321.7 525.161 322.338 525.335 322.875C525.523 323.397 525.77 323.825 526.074 324.159C526.379 324.478 526.727 324.717 527.119 324.877C527.511 325.022 527.917 325.094 528.338 325.094C529.048 325.094 529.643 324.92 530.122 324.572C530.615 324.224 530.963 323.745 531.166 323.136H533.125C532.849 324.282 532.283 325.189 531.428 325.856C530.572 326.509 529.542 326.835 528.338 326.835ZM538.367 316.782H534.429V315.085H544.221V316.782H540.282V326.618H538.367V316.782ZM546.402 315.085H548.317V319.894H554.279V315.085H556.194V326.618H554.279V321.591H548.317V326.618H546.402V315.085ZM564.471 326.835C563.731 326.835 563.027 326.719 562.36 326.487C561.693 326.24 561.105 325.878 560.597 325.399C560.09 324.906 559.684 324.289 559.379 323.549C559.074 322.81 558.922 321.946 558.922 320.96V320.525C558.922 319.596 559.074 318.777 559.379 318.066C559.684 317.355 560.09 316.767 560.597 316.303C561.105 315.825 561.693 315.469 562.36 315.237C563.027 314.99 563.731 314.867 564.471 314.867C565.211 314.867 565.914 314.99 566.582 315.237C567.249 315.469 567.836 315.825 568.344 316.303C568.852 316.767 569.258 317.355 569.563 318.066C569.867 318.777 570.02 319.596 570.02 320.525V320.96C570.02 321.946 569.867 322.81 569.563 323.549C569.258 324.289 568.852 324.906 568.344 325.399C567.836 325.878 567.249 326.24 566.582 326.487C565.914 326.719 565.211 326.835 564.471 326.835ZM564.471 325.094C564.906 325.094 565.341 325.022 565.776 324.877C566.212 324.717 566.596 324.478 566.93 324.159C567.263 323.825 567.532 323.397 567.735 322.875C567.952 322.353 568.061 321.714 568.061 320.96V320.525C568.061 319.828 567.952 319.234 567.735 318.74C567.532 318.247 567.263 317.841 566.93 317.522C566.596 317.203 566.212 316.971 565.776 316.826C565.341 316.68 564.906 316.608 564.471 316.608C564.036 316.608 563.6 316.68 563.165 316.826C562.73 316.971 562.346 317.203 562.012 317.522C561.678 317.841 561.403 318.247 561.185 318.74C560.982 319.234 560.88 319.828 560.88 320.525V320.96C560.88 321.714 560.982 322.353 561.185 322.875C561.403 323.397 561.678 323.825 562.012 324.159C562.346 324.478 562.73 324.717 563.165 324.877C563.6 325.022 564.036 325.094 564.471 325.094ZM577.192 326.835C576.452 326.835 575.763 326.719 575.125 326.487C574.487 326.24 573.935 325.878 573.471 325.399C573.007 324.906 572.637 324.289 572.361 323.549C572.1 322.81 571.97 321.946 571.97 320.96V320.525C571.97 319.596 572.115 318.777 572.405 318.066C572.695 317.355 573.079 316.767 573.558 316.303C574.037 315.825 574.588 315.469 575.212 315.237C575.85 314.99 576.51 314.867 577.192 314.867C577.874 314.867 578.483 314.961 579.02 315.15C579.571 315.339 580.043 315.6 580.434 315.933C580.841 316.267 581.167 316.659 581.414 317.108C581.675 317.558 581.863 318.044 581.979 318.566H580.021C579.905 318.291 579.767 318.037 579.607 317.805C579.462 317.558 579.274 317.348 579.042 317.174C578.824 317 578.563 316.862 578.258 316.76C577.954 316.659 577.598 316.608 577.192 316.608C576.771 316.608 576.365 316.688 575.973 316.847C575.582 316.992 575.234 317.224 574.929 317.544C574.624 317.848 574.378 318.247 574.189 318.74C574.015 319.234 573.928 319.828 573.928 320.525V320.96C573.928 321.7 574.015 322.338 574.189 322.875C574.378 323.397 574.624 323.825 574.929 324.159C575.234 324.478 575.582 324.717 575.973 324.877C576.365 325.022 576.771 325.094 577.192 325.094C577.903 325.094 578.498 324.92 578.976 324.572C579.47 324.224 579.818 323.745 580.021 323.136H581.979C581.704 324.282 581.138 325.189 580.282 325.856C579.426 326.509 578.396 326.835 577.192 326.835ZM587.222 316.782H583.283V315.085H593.075V316.782H589.137V326.618H587.222V316.782ZM595.257 315.085H597.171V319.437H599.935C601.386 319.437 602.452 319.756 603.134 320.394C603.83 321.033 604.178 321.917 604.178 323.049C604.178 324.152 603.83 325.022 603.134 325.66C602.452 326.299 601.386 326.618 599.935 326.618H595.257V315.085ZM599.826 324.92C600.726 324.92 601.357 324.761 601.719 324.442C602.082 324.122 602.263 323.651 602.263 323.027C602.263 322.403 602.082 321.932 601.719 321.613C601.357 321.294 600.726 321.134 599.826 321.134H597.171V324.92H599.826Z" fill="black"/>
<path d="M138.963 536.235C113.438 492.025 100 441.874 100 390.824C100 339.773 113.438 289.623 138.963 245.412C164.488 201.201 201.201 164.488 245.412 138.963C289.623 113.438 339.773 100 390.824 100L390.824 390.824L138.963 536.235Z" fill="#58A982" stroke="#508C6D" stroke-width="2"/>
<path d="M177.251 324.833H178.883C179.159 324.282 179.391 323.6 179.579 322.788C179.768 321.975 179.913 321.105 180.015 320.177C180.116 319.234 180.189 318.269 180.232 317.282C180.276 316.282 180.297 315.331 180.297 314.432V311.385H190.198V324.833H192.048V329.447H190.09V326.618H179.209V329.447H177.251V324.833ZM188.153 324.833V313.17H182.299V314.867C182.299 317.072 182.198 318.98 181.995 320.59C181.806 322.2 181.494 323.615 181.059 324.833H188.153ZM199.027 326.835C198.287 326.835 197.583 326.719 196.916 326.487C196.249 326.24 195.661 325.878 195.153 325.399C194.646 324.906 194.239 324.289 193.935 323.549C193.63 322.81 193.478 321.946 193.478 320.96V320.525C193.478 319.596 193.63 318.777 193.935 318.066C194.239 317.355 194.646 316.767 195.153 316.303C195.661 315.825 196.249 315.469 196.916 315.237C197.583 314.99 198.287 314.867 199.027 314.867C199.766 314.867 200.47 314.99 201.137 315.237C201.805 315.469 202.392 315.825 202.9 316.303C203.408 316.767 203.814 317.355 204.119 318.066C204.423 318.777 204.575 319.596 204.575 320.525V320.96C204.575 321.946 204.423 322.81 204.119 323.549C203.814 324.289 203.408 324.906 202.9 325.399C202.392 325.878 201.805 326.24 201.137 326.487C200.47 326.719 199.766 326.835 199.027 326.835ZM199.027 325.094C199.462 325.094 199.897 325.022 200.332 324.877C200.767 324.717 201.152 324.478 201.486 324.159C201.819 323.825 202.088 323.397 202.291 322.875C202.508 322.353 202.617 321.714 202.617 320.96V320.525C202.617 319.828 202.508 319.234 202.291 318.74C202.088 318.247 201.819 317.841 201.486 317.522C201.152 317.203 200.767 316.971 200.332 316.826C199.897 316.68 199.462 316.608 199.027 316.608C198.591 316.608 198.156 316.68 197.721 316.826C197.286 316.971 196.901 317.203 196.568 317.522C196.234 317.841 195.958 318.247 195.741 318.74C195.538 319.234 195.436 319.828 195.436 320.525V320.96C195.436 321.714 195.538 322.353 195.741 322.875C195.958 323.397 196.234 323.825 196.568 324.159C196.901 324.478 197.286 324.717 197.721 324.877C198.156 325.022 198.591 325.094 199.027 325.094ZM211.748 326.835C211.008 326.835 210.319 326.719 209.681 326.487C209.042 326.24 208.491 325.878 208.027 325.399C207.563 324.906 207.193 324.289 206.917 323.549C206.656 322.81 206.525 321.946 206.525 320.96V320.525C206.525 319.596 206.67 318.777 206.961 318.066C207.251 317.355 207.635 316.767 208.114 316.303C208.593 315.825 209.144 315.469 209.768 315.237C210.406 314.99 211.066 314.867 211.748 314.867C212.43 314.867 213.039 314.961 213.576 315.15C214.127 315.339 214.599 315.6 214.99 315.933C215.396 316.267 215.723 316.659 215.969 317.108C216.231 317.558 216.419 318.044 216.535 318.566H214.577C214.461 318.291 214.323 318.037 214.163 317.805C214.018 317.558 213.83 317.348 213.598 317.174C213.38 317 213.119 316.862 212.814 316.76C212.51 316.659 212.154 316.608 211.748 316.608C211.327 316.608 210.921 316.688 210.529 316.847C210.138 316.992 209.789 317.224 209.485 317.544C209.18 317.848 208.934 318.247 208.745 318.74C208.571 319.234 208.484 319.828 208.484 320.525V320.96C208.484 321.7 208.571 322.338 208.745 322.875C208.934 323.397 209.18 323.825 209.485 324.159C209.789 324.478 210.138 324.717 210.529 324.877C210.921 325.022 211.327 325.094 211.748 325.094C212.459 325.094 213.054 324.92 213.532 324.572C214.025 324.224 214.374 323.745 214.577 323.136H216.535C216.26 324.282 215.694 325.189 214.838 325.856C213.982 326.509 212.952 326.835 211.748 326.835ZM221.778 316.782H217.839V315.085H227.631V316.782H223.693V326.618H221.778V316.782ZM231.761 331.187C231.543 331.187 231.325 331.166 231.108 331.122V329.381C231.325 329.425 231.543 329.447 231.761 329.447C231.978 329.447 232.167 329.41 232.326 329.338C232.486 329.265 232.638 329.127 232.783 328.924C232.928 328.721 233.081 328.431 233.24 328.054C233.414 327.691 233.61 327.212 233.828 326.618L228.932 315.085H231.064L234.807 324.442L238.202 315.085H240.247L235.895 326.618C235.59 327.43 235.3 328.126 235.025 328.707C234.749 329.287 234.452 329.758 234.132 330.121C233.828 330.498 233.487 330.767 233.11 330.926C232.733 331.1 232.283 331.187 231.761 331.187ZM242.414 315.085H251.988V326.618H250.073V316.782H244.329V326.618H242.414V315.085ZM255.462 315.085H257.376V319.894H263.339V315.085H265.254V326.618H263.339V321.591H257.376V326.618H255.462V315.085ZM273.53 326.835C272.79 326.835 272.087 326.719 271.42 326.487C270.752 326.24 270.165 325.878 269.657 325.399C269.149 324.906 268.743 324.289 268.438 323.549C268.134 322.81 267.981 321.946 267.981 320.96V320.525C267.981 319.596 268.134 318.777 268.438 318.066C268.743 317.355 269.149 316.767 269.657 316.303C270.165 315.825 270.752 315.469 271.42 315.237C272.087 314.99 272.79 314.867 273.53 314.867C274.27 314.867 274.974 314.99 275.641 315.237C276.308 315.469 276.896 315.825 277.404 316.303C277.911 316.767 278.318 317.355 278.622 318.066C278.927 318.777 279.079 319.596 279.079 320.525V320.96C279.079 321.946 278.927 322.81 278.622 323.549C278.318 324.289 277.911 324.906 277.404 325.399C276.896 325.878 276.308 326.24 275.641 326.487C274.974 326.719 274.27 326.835 273.53 326.835ZM273.53 325.094C273.965 325.094 274.401 325.022 274.836 324.877C275.271 324.717 275.656 324.478 275.989 324.159C276.323 323.825 276.591 323.397 276.794 322.875C277.012 322.353 277.121 321.714 277.121 320.96V320.525C277.121 319.828 277.012 319.234 276.794 318.74C276.591 318.247 276.323 317.841 275.989 317.522C275.656 317.203 275.271 316.971 274.836 316.826C274.401 316.68 273.965 316.608 273.53 316.608C273.095 316.608 272.66 316.68 272.225 316.826C271.789 316.971 271.405 317.203 271.071 317.522C270.738 317.841 270.462 318.247 270.244 318.74C270.041 319.234 269.94 319.828 269.94 320.525V320.96C269.94 321.714 270.041 322.353 270.244 322.875C270.462 323.397 270.738 323.825 271.071 324.159C271.405 324.478 271.789 324.717 272.225 324.877C272.66 325.022 273.095 325.094 273.53 325.094ZM286.252 326.835C285.512 326.835 284.823 326.719 284.184 326.487C283.546 326.24 282.995 325.878 282.531 325.399C282.066 324.906 281.696 324.289 281.421 323.549C281.16 322.81 281.029 321.946 281.029 320.96V320.525C281.029 319.596 281.174 318.777 281.464 318.066C281.754 317.355 282.139 316.767 282.618 316.303C283.096 315.825 283.648 315.469 284.271 315.237C284.91 314.99 285.57 314.867 286.252 314.867C286.933 314.867 287.543 314.961 288.079 315.15C288.631 315.339 289.102 315.6 289.494 315.933C289.9 316.267 290.226 316.659 290.473 317.108C290.734 317.558 290.923 318.044 291.039 318.566H289.08C288.964 318.291 288.827 318.037 288.667 317.805C288.522 317.558 288.333 317.348 288.101 317.174C287.884 317 287.622 316.862 287.318 316.76C287.013 316.659 286.658 316.608 286.252 316.608C285.831 316.608 285.425 316.688 285.033 316.847C284.641 316.992 284.293 317.224 283.989 317.544C283.684 317.848 283.437 318.247 283.249 318.74C283.075 319.234 282.988 319.828 282.988 320.525V320.96C282.988 321.7 283.075 322.338 283.249 322.875C283.437 323.397 283.684 323.825 283.989 324.159C284.293 324.478 284.641 324.717 285.033 324.877C285.425 325.022 285.831 325.094 286.252 325.094C286.962 325.094 287.557 324.92 288.036 324.572C288.529 324.224 288.877 323.745 289.08 323.136H291.039C290.763 324.282 290.197 325.189 289.342 325.856C288.486 326.509 287.456 326.835 286.252 326.835ZM296.281 316.782H292.343V315.085H302.135V316.782H298.196V326.618H296.281V316.782ZM304.316 315.085H306.231V319.437H308.995C310.445 319.437 311.512 319.756 312.193 320.394C312.89 321.033 313.238 321.917 313.238 323.049C313.238 324.152 312.89 325.022 312.193 325.66C311.512 326.299 310.445 326.618 308.995 326.618H304.316V315.085ZM308.886 324.92C309.785 324.92 310.416 324.761 310.779 324.442C311.142 324.122 311.323 323.651 311.323 323.027C311.323 322.403 311.142 321.932 310.779 321.613C310.416 321.294 309.785 321.134 308.886 321.134H306.231V324.92H308.886Z" fill="black"/>
</svg>
