<svg width="705" height="565" viewBox="0 0 705 565" fill="none" xmlns="http://www.w3.org/2000/svg">
<rect x="100.5" y="100.5" width="504" height="364" fill="#F1F7F5"/>
<path d="M326.893 122.598L330.946 129.337H331.089L335.16 122.598H338.96L333.291 131.799L339.05 141H335.187L331.089 134.306H330.946L326.848 141H323.003L328.816 131.799L323.075 122.598H326.893ZM346.737 141.27C345.389 141.27 344.221 140.973 343.233 140.38C342.245 139.787 341.478 138.957 340.933 137.891C340.394 136.825 340.124 135.579 340.124 134.153C340.124 132.728 340.394 131.479 340.933 130.406C341.478 129.334 342.245 128.502 343.233 127.909C344.221 127.316 345.389 127.019 346.737 127.019C348.085 127.019 349.253 127.316 350.241 127.909C351.23 128.502 351.993 129.334 352.533 130.406C353.078 131.479 353.35 132.728 353.35 134.153C353.35 135.579 353.078 136.825 352.533 137.891C351.993 138.957 351.23 139.787 350.241 140.38C349.253 140.973 348.085 141.27 346.737 141.27ZM346.755 138.664C347.486 138.664 348.097 138.463 348.588 138.062C349.079 137.655 349.445 137.109 349.684 136.427C349.93 135.744 350.053 134.983 350.053 134.144C350.053 133.3 349.93 132.536 349.684 131.853C349.445 131.164 349.079 130.616 348.588 130.209C348.097 129.801 347.486 129.598 346.755 129.598C346.006 129.598 345.383 129.801 344.886 130.209C344.395 130.616 344.027 131.164 343.781 131.853C343.541 132.536 343.422 133.3 343.422 134.144C343.422 134.983 343.541 135.744 343.781 136.427C344.027 137.109 344.395 137.655 344.886 138.062C345.383 138.463 346.006 138.664 346.755 138.664ZM362.131 141.27C360.753 141.27 359.57 140.967 358.582 140.362C357.599 139.757 356.842 138.921 356.309 137.855C355.781 136.783 355.518 135.549 355.518 134.153C355.518 132.752 355.787 131.515 356.327 130.442C356.866 129.364 357.626 128.526 358.609 127.927C359.597 127.322 360.765 127.019 362.113 127.019C363.233 127.019 364.225 127.226 365.087 127.639C365.956 128.046 366.648 128.624 367.163 129.373C367.678 130.116 367.971 130.984 368.043 131.979H364.934C364.809 131.314 364.509 130.76 364.036 130.317C363.569 129.867 362.943 129.643 362.158 129.643C361.493 129.643 360.909 129.822 360.406 130.182C359.903 130.535 359.51 131.044 359.229 131.709C358.953 132.374 358.815 133.171 358.815 134.099C358.815 135.04 358.953 135.848 359.229 136.525C359.504 137.196 359.891 137.714 360.388 138.08C360.891 138.439 361.481 138.619 362.158 138.619C362.637 138.619 363.065 138.529 363.443 138.349C363.826 138.164 364.147 137.897 364.404 137.55C364.662 137.202 364.839 136.78 364.934 136.283H368.043C367.965 137.259 367.678 138.125 367.181 138.879C366.684 139.628 366.007 140.215 365.15 140.641C364.293 141.06 363.287 141.27 362.131 141.27ZM369.712 129.867V127.199H381.788V129.867H377.323V141H374.178V129.867H369.712Z" fill="black"/>
<rect x="120" y="155" width="177" height="65" fill="#DBEEE5"/>
<path d="M156.19 187.087C156.19 188.792 155.871 190.253 155.232 191.469C154.599 192.679 153.733 193.606 152.636 194.25C151.544 194.894 150.305 195.216 148.919 195.216C147.533 195.216 146.292 194.894 145.194 194.25C144.102 193.601 143.237 192.671 142.598 191.461C141.964 190.245 141.647 188.787 141.647 187.087C141.647 185.382 141.964 183.924 142.598 182.713C143.237 181.498 144.102 180.568 145.194 179.924C146.292 179.28 147.533 178.958 148.919 178.958C150.305 178.958 151.544 179.28 152.636 179.924C153.733 180.568 154.599 181.498 155.232 182.713C155.871 183.924 156.19 185.382 156.19 187.087ZM153.308 187.087C153.308 185.887 153.12 184.875 152.744 184.05C152.373 183.221 151.858 182.595 151.198 182.173C150.539 181.745 149.779 181.531 148.919 181.531C148.059 181.531 147.299 181.745 146.639 182.173C145.98 182.595 145.462 183.221 145.086 184.05C144.715 184.875 144.53 185.887 144.53 187.087C144.53 188.287 144.715 189.302 145.086 190.132C145.462 190.956 145.98 191.582 146.639 192.009C147.299 192.432 148.059 192.643 148.919 192.643C149.779 192.643 150.539 192.432 151.198 192.009C151.858 191.582 152.373 190.956 152.744 190.132C153.12 189.302 153.308 188.287 153.308 187.087ZM172.447 184.514H169.557C169.474 184.04 169.322 183.62 169.101 183.254C168.879 182.883 168.604 182.569 168.274 182.312C167.944 182.054 167.568 181.861 167.146 181.732C166.729 181.598 166.278 181.531 165.794 181.531C164.933 181.531 164.171 181.748 163.506 182.18C162.842 182.608 162.321 183.236 161.945 184.066C161.569 184.89 161.381 185.897 161.381 187.087C161.381 188.298 161.569 189.318 161.945 190.147C162.327 190.971 162.847 191.595 163.506 192.017C164.171 192.435 164.931 192.643 165.786 192.643C166.26 192.643 166.703 192.581 167.115 192.458C167.532 192.329 167.906 192.141 168.235 191.894C168.57 191.646 168.851 191.342 169.078 190.982C169.31 190.621 169.469 190.209 169.557 189.745L172.447 189.761C172.339 190.513 172.104 191.219 171.744 191.878C171.388 192.538 170.922 193.12 170.345 193.625C169.768 194.124 169.093 194.516 168.32 194.799C167.548 195.077 166.69 195.216 165.747 195.216C164.356 195.216 163.115 194.894 162.023 194.25C160.93 193.606 160.07 192.677 159.442 191.461C158.813 190.245 158.499 188.787 158.499 187.087C158.499 185.382 158.816 183.924 159.449 182.713C160.083 181.498 160.946 180.568 162.038 179.924C163.13 179.28 164.367 178.958 165.747 178.958C166.628 178.958 167.447 179.082 168.205 179.329C168.962 179.576 169.637 179.939 170.229 180.418C170.822 180.892 171.308 181.474 171.69 182.165C172.076 182.85 172.328 183.633 172.447 184.514ZM183.8 195L179.334 179.174H182.417L185.269 190.804H185.415L188.46 179.174H191.265L194.317 190.812H194.456L197.308 179.174H200.391L195.925 195H193.096L189.928 183.896H189.805L186.629 195H183.8ZM202.255 195V183.131H205.053V195H202.255ZM203.662 181.446C203.219 181.446 202.837 181.299 202.518 181.006C202.199 180.707 202.039 180.349 202.039 179.932C202.039 179.509 202.199 179.151 202.518 178.857C202.837 178.559 203.219 178.409 203.662 178.409C204.11 178.409 204.491 178.559 204.805 178.857C205.125 179.151 205.284 179.509 205.284 179.932C205.284 180.349 205.125 180.707 204.805 181.006C204.491 181.299 204.11 181.446 203.662 181.446ZM210.726 188.045V195H207.929V183.131H210.603V185.148H210.742C211.015 184.483 211.45 183.955 212.048 183.563C212.651 183.172 213.395 182.976 214.281 182.976C215.1 182.976 215.814 183.151 216.422 183.502C217.035 183.852 217.509 184.359 217.843 185.024C218.183 185.688 218.351 186.495 218.346 187.443V195H215.548V187.875C215.548 187.082 215.342 186.461 214.93 186.013C214.523 185.565 213.959 185.341 213.238 185.341C212.748 185.341 212.313 185.449 211.932 185.665C211.556 185.877 211.26 186.183 211.043 186.585C210.832 186.987 210.726 187.474 210.726 188.045ZM225.594 195.209C224.662 195.209 223.827 194.969 223.09 194.49C222.354 194.011 221.771 193.315 221.344 192.404C220.916 191.492 220.703 190.384 220.703 189.081C220.703 187.762 220.919 186.649 221.352 185.743C221.79 184.831 222.379 184.143 223.121 183.679C223.863 183.211 224.69 182.976 225.602 182.976C226.297 182.976 226.869 183.095 227.317 183.332C227.765 183.563 228.121 183.844 228.384 184.174C228.646 184.498 228.85 184.805 228.994 185.093H229.11V179.174H231.915V195H229.164V193.13H228.994C228.85 193.418 228.641 193.725 228.368 194.05C228.095 194.369 227.734 194.642 227.286 194.869C226.838 195.095 226.274 195.209 225.594 195.209ZM226.374 192.914C226.967 192.914 227.472 192.754 227.889 192.435C228.306 192.11 228.623 191.659 228.839 191.082C229.056 190.505 229.164 189.833 229.164 189.065C229.164 188.298 229.056 187.631 228.839 187.064C228.628 186.497 228.314 186.057 227.897 185.743C227.485 185.428 226.977 185.271 226.374 185.271C225.751 185.271 225.231 185.433 224.813 185.758C224.396 186.083 224.082 186.531 223.871 187.103C223.66 187.674 223.554 188.329 223.554 189.065C223.554 189.807 223.66 190.469 223.871 191.051C224.087 191.628 224.404 192.084 224.821 192.419C225.244 192.749 225.761 192.914 226.374 192.914ZM240.073 195.232C238.914 195.232 237.909 194.977 237.059 194.467C236.209 193.957 235.55 193.243 235.081 192.326C234.618 191.409 234.386 190.338 234.386 189.112C234.386 187.886 234.618 186.812 235.081 185.889C235.55 184.967 236.209 184.251 237.059 183.741C237.909 183.231 238.914 182.976 240.073 182.976C241.232 182.976 242.237 183.231 243.087 183.741C243.937 184.251 244.594 184.967 245.057 185.889C245.526 186.812 245.761 187.886 245.761 189.112C245.761 190.338 245.526 191.409 245.057 192.326C244.594 193.243 243.937 193.957 243.087 194.467C242.237 194.977 241.232 195.232 240.073 195.232ZM240.089 192.991C240.717 192.991 241.243 192.818 241.665 192.473C242.087 192.123 242.402 191.654 242.608 191.067C242.819 190.479 242.925 189.825 242.925 189.104C242.925 188.378 242.819 187.721 242.608 187.134C242.402 186.541 242.087 186.07 241.665 185.719C241.243 185.369 240.717 185.194 240.089 185.194C239.445 185.194 238.909 185.369 238.481 185.719C238.059 186.07 237.742 186.541 237.531 187.134C237.325 187.721 237.222 188.378 237.222 189.104C237.222 189.825 237.325 190.479 237.531 191.067C237.742 191.654 238.059 192.123 238.481 192.473C238.909 192.818 239.445 192.991 240.089 192.991ZM250.244 195L246.891 183.131H249.742L251.828 191.476H251.937L254.069 183.131H256.89L259.023 191.43H259.139L261.194 183.131H264.053L260.692 195H257.779L255.553 186.979H255.391L253.165 195H250.244ZM275.387 186.268L272.837 186.546C272.765 186.289 272.639 186.047 272.459 185.82C272.284 185.593 272.047 185.41 271.748 185.271C271.449 185.132 271.083 185.063 270.65 185.063C270.068 185.063 269.579 185.189 269.182 185.441C268.791 185.694 268.598 186.021 268.603 186.423C268.598 186.768 268.724 187.049 268.981 187.265C269.244 187.481 269.677 187.659 270.28 187.798L272.304 188.231C273.427 188.473 274.262 188.857 274.808 189.382C275.359 189.908 275.637 190.595 275.642 191.445C275.637 192.192 275.418 192.852 274.986 193.424C274.558 193.99 273.963 194.433 273.201 194.753C272.438 195.072 271.562 195.232 270.573 195.232C269.12 195.232 267.951 194.928 267.065 194.32C266.179 193.707 265.651 192.854 265.481 191.762L268.209 191.499C268.332 192.035 268.595 192.44 268.997 192.713C269.399 192.986 269.922 193.122 270.565 193.122C271.23 193.122 271.763 192.986 272.165 192.713C272.572 192.44 272.776 192.102 272.776 191.7C272.776 191.36 272.644 191.08 272.381 190.858C272.124 190.637 271.722 190.467 271.176 190.348L269.151 189.923C268.013 189.686 267.171 189.287 266.625 188.725C266.078 188.159 265.808 187.443 265.813 186.577C265.808 185.846 266.006 185.212 266.408 184.676C266.815 184.135 267.379 183.718 268.1 183.424C268.827 183.126 269.664 182.976 270.612 182.976C272.003 182.976 273.097 183.272 273.896 183.865C274.7 184.457 275.197 185.258 275.387 186.268Z" fill="black"/>
<rect x="120" y="155" width="177" height="65" stroke="#58A982" stroke-width="2"/>
<rect x="307" y="155" width="136" height="65" fill="#DBEEE5"/>
<path d="M343.123 187.087C343.123 188.792 342.803 190.253 342.164 191.469C341.531 192.679 340.665 193.606 339.568 194.25C338.476 194.894 337.237 195.216 335.851 195.216C334.465 195.216 333.224 194.894 332.126 194.25C331.034 193.601 330.169 192.671 329.53 191.461C328.896 190.245 328.58 188.787 328.58 187.087C328.58 185.382 328.896 183.924 329.53 182.713C330.169 181.498 331.034 180.568 332.126 179.924C333.224 179.28 334.465 178.958 335.851 178.958C337.237 178.958 338.476 179.28 339.568 179.924C340.665 180.568 341.531 181.498 342.164 182.713C342.803 183.924 343.123 185.382 343.123 187.087ZM340.24 187.087C340.24 185.887 340.052 184.875 339.676 184.05C339.305 183.221 338.79 182.595 338.131 182.173C337.471 181.745 336.711 181.531 335.851 181.531C334.991 181.531 334.231 181.745 333.571 182.173C332.912 182.595 332.394 183.221 332.018 184.05C331.647 184.875 331.462 185.887 331.462 187.087C331.462 188.287 331.647 189.302 332.018 190.132C332.394 190.956 332.912 191.582 333.571 192.009C334.231 192.432 334.991 192.643 335.851 192.643C336.711 192.643 337.471 192.432 338.131 192.009C338.79 191.582 339.305 190.956 339.676 190.132C340.052 189.302 340.24 188.287 340.24 187.087ZM359.379 184.514H356.489C356.407 184.04 356.255 183.62 356.033 183.254C355.812 182.883 355.536 182.569 355.206 182.312C354.877 182.054 354.501 181.861 354.078 181.732C353.661 181.598 353.21 181.531 352.726 181.531C351.865 181.531 351.103 181.748 350.438 182.18C349.774 182.608 349.254 183.236 348.878 184.066C348.501 184.89 348.313 185.897 348.313 187.087C348.313 188.298 348.501 189.318 348.878 190.147C349.259 190.971 349.779 191.595 350.438 192.017C351.103 192.435 351.863 192.643 352.718 192.643C353.192 192.643 353.635 192.581 354.047 192.458C354.464 192.329 354.838 192.141 355.168 191.894C355.502 191.646 355.783 191.342 356.01 190.982C356.242 190.621 356.401 190.209 356.489 189.745L359.379 189.761C359.271 190.513 359.036 191.219 358.676 191.878C358.32 192.538 357.854 193.12 357.277 193.625C356.7 194.124 356.025 194.516 355.253 194.799C354.48 195.077 353.622 195.216 352.679 195.216C351.288 195.216 350.047 194.894 348.955 194.25C347.863 193.606 347.002 192.677 346.374 191.461C345.745 190.245 345.431 188.787 345.431 187.087C345.431 185.382 345.748 183.924 346.382 182.713C347.015 181.498 347.878 180.568 348.97 179.924C350.062 179.28 351.299 178.958 352.679 178.958C353.56 178.958 354.379 179.082 355.137 179.329C355.894 179.576 356.569 179.939 357.161 180.418C357.754 180.892 358.241 181.474 358.622 182.165C359.008 182.85 359.261 183.633 359.379 184.514ZM367.402 195V179.174H370.269V192.597H377.239V195H367.402ZM379.604 195V183.131H382.401V195H379.604ZM381.01 181.446C380.567 181.446 380.186 181.299 379.866 181.006C379.547 180.707 379.387 180.349 379.387 179.932C379.387 179.509 379.547 179.151 379.866 178.857C380.186 178.559 380.567 178.409 381.01 178.409C381.458 178.409 381.839 178.559 382.154 178.857C382.473 179.151 382.633 179.509 382.633 179.932C382.633 180.349 382.473 180.707 382.154 181.006C381.839 181.299 381.458 181.446 381.01 181.446ZM388.075 188.045V195H385.277V183.131H387.951V185.148H388.09C388.363 184.483 388.799 183.955 389.396 183.563C389.999 183.172 390.743 182.976 391.629 182.976C392.448 182.976 393.162 183.151 393.77 183.502C394.383 183.852 394.857 184.359 395.192 185.024C395.532 185.688 395.699 186.495 395.694 187.443V195H392.897V187.875C392.897 187.082 392.691 186.461 392.278 186.013C391.871 185.565 391.307 185.341 390.586 185.341C390.097 185.341 389.661 185.449 389.28 185.665C388.904 185.877 388.608 186.183 388.392 186.585C388.18 186.987 388.075 187.474 388.075 188.045ZM406.103 190.008V183.131H408.9V195H406.188V192.89H406.064C405.796 193.555 405.356 194.098 404.743 194.521C404.135 194.943 403.385 195.155 402.494 195.155C401.716 195.155 401.028 194.982 400.431 194.637C399.838 194.287 399.375 193.779 399.04 193.115C398.705 192.445 398.538 191.636 398.538 190.688V183.131H401.335V190.255C401.335 191.008 401.541 191.605 401.953 192.048C402.365 192.491 402.906 192.713 403.576 192.713C403.988 192.713 404.387 192.612 404.774 192.411C405.16 192.21 405.477 191.912 405.724 191.515C405.977 191.113 406.103 190.611 406.103 190.008ZM414.064 183.131L416.459 187.512L418.894 183.131H421.853L418.275 189.065L421.915 195H418.971L416.459 190.727L413.971 195H411.004L414.62 189.065L411.097 183.131H414.064Z" fill="black"/>
<rect x="307" y="155" width="136" height="65" stroke="#58A982" stroke-width="2"/>
<rect x="453" y="155" width="132" height="65" fill="#DBEEE5"/>
<path d="M488.95 187.087C488.95 188.792 488.631 190.253 487.992 191.469C487.358 192.679 486.493 193.606 485.395 194.25C484.303 194.894 483.064 195.216 481.679 195.216C480.293 195.216 479.051 194.894 477.954 194.25C476.862 193.601 475.996 192.671 475.358 191.461C474.724 190.245 474.407 188.787 474.407 187.087C474.407 185.382 474.724 183.924 475.358 182.713C475.996 181.498 476.862 180.568 477.954 179.924C479.051 179.28 480.293 178.958 481.679 178.958C483.064 178.958 484.303 179.28 485.395 179.924C486.493 180.568 487.358 181.498 487.992 182.713C488.631 183.924 488.95 185.382 488.95 187.087ZM486.068 187.087C486.068 185.887 485.88 184.875 485.504 184.05C485.133 183.221 484.618 182.595 483.958 182.173C483.299 181.745 482.539 181.531 481.679 181.531C480.818 181.531 480.058 181.745 479.399 182.173C478.74 182.595 478.222 183.221 477.846 184.05C477.475 184.875 477.289 185.887 477.289 187.087C477.289 188.287 477.475 189.302 477.846 190.132C478.222 190.956 478.74 191.582 479.399 192.009C480.058 192.432 480.818 192.643 481.679 192.643C482.539 192.643 483.299 192.432 483.958 192.009C484.618 191.582 485.133 190.956 485.504 190.132C485.88 189.302 486.068 188.287 486.068 187.087ZM505.207 184.514H502.317C502.234 184.04 502.082 183.62 501.861 183.254C501.639 182.883 501.364 182.569 501.034 182.312C500.704 182.054 500.328 181.861 499.906 181.732C499.488 181.598 499.038 181.531 498.553 181.531C497.693 181.531 496.931 181.748 496.266 182.18C495.601 182.608 495.081 183.236 494.705 184.066C494.329 184.89 494.141 185.897 494.141 187.087C494.141 188.298 494.329 189.318 494.705 190.147C495.086 190.971 495.607 191.595 496.266 192.017C496.931 192.435 497.69 192.643 498.546 192.643C499.02 192.643 499.463 192.581 499.875 192.458C500.292 192.329 500.665 192.141 500.995 191.894C501.33 191.646 501.611 191.342 501.837 190.982C502.069 190.621 502.229 190.209 502.317 189.745L505.207 189.761C505.098 190.513 504.864 191.219 504.503 191.878C504.148 192.538 503.682 193.12 503.105 193.625C502.528 194.124 501.853 194.516 501.08 194.799C500.307 195.077 499.45 195.216 498.507 195.216C497.116 195.216 495.874 194.894 494.782 194.25C493.69 193.606 492.83 192.677 492.201 191.461C491.573 190.245 491.259 188.787 491.259 187.087C491.259 185.382 491.575 183.924 492.209 182.713C492.843 181.498 493.706 180.568 494.798 179.924C495.89 179.28 497.126 178.958 498.507 178.958C499.388 178.958 500.207 179.082 500.964 179.329C501.722 179.576 502.396 179.939 502.989 180.418C503.581 180.892 504.068 181.474 504.449 182.165C504.836 182.85 505.088 183.633 505.207 184.514ZM523.206 179.174H526.072V189.514C526.072 190.647 525.805 191.644 525.269 192.504C524.738 193.364 523.991 194.037 523.028 194.521C522.065 195 520.939 195.24 519.651 195.24C518.358 195.24 517.23 195 516.266 194.521C515.303 194.037 514.556 193.364 514.025 192.504C513.495 191.644 513.23 190.647 513.23 189.514V179.174H516.096V189.274C516.096 189.933 516.241 190.521 516.529 191.036C516.823 191.551 517.235 191.955 517.766 192.249C518.296 192.538 518.925 192.682 519.651 192.682C520.377 192.682 521.006 192.538 521.537 192.249C522.072 191.955 522.484 191.551 522.773 191.036C523.061 190.521 523.206 189.933 523.206 189.274V179.174ZM542.194 179.174V195H539.644L532.187 184.22H532.055V195H529.189V179.174H531.754L539.203 189.962H539.342V179.174H542.194ZM548.184 179.174V195H545.318V179.174H548.184ZM553.684 179.174L557.169 184.97H557.293L560.794 179.174H564.062L559.186 187.087L564.14 195H560.817L557.293 189.243H557.169L553.646 195H550.338L555.338 187.087L550.4 179.174H553.684Z" fill="black"/>
<rect x="453" y="155" width="132" height="65" stroke="#58A982" stroke-width="2"/>
<rect x="120" y="230" width="465" height="65" fill="#DBEEE5"/>
<path d="M300.413 254.174V256.578H293.102V270H290.236V254.174H300.413ZM304.178 266.214L308.93 258.131H311.805V270H309.1V261.909L304.363 270H301.481V258.131H304.178V266.214ZM314.677 270V258.131H324.7V270H322.003V260.426H317.351V270H314.677ZM332.831 270.232C331.641 270.232 330.613 269.985 329.748 269.49C328.887 268.99 328.225 268.285 327.762 267.373C327.298 266.456 327.066 265.376 327.066 264.135C327.066 262.914 327.298 261.842 327.762 260.92C328.23 259.993 328.885 259.272 329.724 258.757C330.564 258.236 331.551 257.976 332.684 257.976C333.416 257.976 334.106 258.095 334.755 258.332C335.409 258.563 335.986 258.924 336.486 259.413C336.991 259.903 337.387 260.526 337.676 261.283C337.964 262.036 338.109 262.932 338.109 263.973V264.83H328.38V262.945H335.427C335.422 262.409 335.306 261.933 335.08 261.515C334.853 261.093 334.536 260.761 334.129 260.518C333.727 260.276 333.258 260.155 332.723 260.155C332.151 260.155 331.649 260.294 331.216 260.573C330.783 260.846 330.446 261.206 330.204 261.654C329.967 262.097 329.846 262.584 329.84 263.115V264.761C329.84 265.451 329.967 266.044 330.219 266.538C330.471 267.028 330.824 267.404 331.278 267.666C331.731 267.924 332.262 268.053 332.87 268.053C333.276 268.053 333.645 267.996 333.975 267.883C334.304 267.764 334.59 267.592 334.832 267.365C335.074 267.138 335.257 266.858 335.381 266.523L337.993 266.816C337.828 267.507 337.514 268.109 337.05 268.625C336.592 269.135 336.004 269.531 335.288 269.815C334.572 270.093 333.753 270.232 332.831 270.232ZM340.475 274.451V258.131H343.226V260.093H343.388C343.533 259.805 343.736 259.498 343.999 259.174C344.262 258.844 344.617 258.563 345.065 258.332C345.513 258.095 346.085 257.976 346.781 257.976C347.698 257.976 348.525 258.211 349.261 258.679C350.003 259.143 350.59 259.831 351.023 260.743C351.461 261.649 351.68 262.762 351.68 264.081C351.68 265.384 351.466 266.492 351.039 267.404C350.611 268.315 350.029 269.011 349.292 269.49C348.555 269.969 347.721 270.209 346.788 270.209C346.108 270.209 345.544 270.095 345.096 269.869C344.648 269.642 344.287 269.369 344.014 269.05C343.746 268.725 343.538 268.418 343.388 268.13H343.273V274.451H340.475ZM343.218 264.065C343.218 264.833 343.327 265.505 343.543 266.082C343.764 266.659 344.081 267.11 344.493 267.435C344.911 267.754 345.416 267.914 346.008 267.914C346.626 267.914 347.144 267.749 347.561 267.419C347.979 267.084 348.293 266.628 348.504 266.051C348.72 265.469 348.829 264.807 348.829 264.065C348.829 263.329 348.723 262.674 348.512 262.103C348.3 261.531 347.986 261.083 347.569 260.758C347.152 260.433 346.631 260.271 346.008 260.271C345.41 260.271 344.903 260.428 344.486 260.743C344.068 261.057 343.752 261.497 343.535 262.064C343.324 262.631 343.218 263.298 343.218 264.065ZM354.075 270V258.131H359.06C360.466 258.131 361.576 258.411 362.39 258.973C363.209 259.535 363.619 260.318 363.619 261.322C363.619 261.987 363.387 262.53 362.923 262.953C362.465 263.37 361.839 263.651 361.046 263.795C361.669 263.846 362.215 264.004 362.684 264.266C363.158 264.529 363.529 264.874 363.796 265.302C364.064 265.729 364.198 266.221 364.198 266.778C364.198 267.432 364.026 268.001 363.681 268.485C363.341 268.965 362.843 269.338 362.189 269.606C361.54 269.869 360.752 270 359.825 270H354.075ZM356.695 267.798H359.825C360.34 267.798 360.744 267.677 361.038 267.435C361.331 267.187 361.478 266.852 361.478 266.43C361.478 265.941 361.331 265.557 361.038 265.279C360.744 264.995 360.34 264.854 359.825 264.854H356.695V267.798ZM356.695 263.045H359.114C359.495 263.045 359.822 262.991 360.095 262.883C360.368 262.77 360.577 262.613 360.721 262.412C360.865 262.206 360.937 261.961 360.937 261.678C360.937 261.271 360.77 260.951 360.435 260.719C360.105 260.488 359.647 260.372 359.06 260.372H356.695V263.045ZM369.204 266.214L373.956 258.131H376.831V270H374.126V261.909L369.389 270H366.507V258.131H369.204V266.214ZM379.047 266.747H381.821C381.846 267.19 382.045 267.532 382.416 267.775C382.787 268.017 383.268 268.138 383.861 268.138C384.463 268.138 384.971 268.006 385.383 267.744C385.8 267.476 386.009 267.071 386.009 266.53C386.009 266.211 385.929 265.93 385.769 265.688C385.61 265.441 385.386 265.25 385.097 265.116C384.809 264.982 384.469 264.915 384.077 264.915H382.261V262.929H384.077C384.659 262.929 385.1 262.795 385.398 262.528C385.702 262.26 385.854 261.922 385.854 261.515C385.854 261.077 385.695 260.722 385.375 260.449C385.061 260.176 384.626 260.039 384.069 260.039C383.513 260.039 383.049 260.166 382.678 260.418C382.313 260.67 382.122 260.995 382.107 261.392H379.348C379.358 260.701 379.564 260.101 379.966 259.591C380.373 259.081 380.919 258.685 381.604 258.401C382.295 258.118 383.072 257.976 383.938 257.976C384.865 257.976 385.666 258.115 386.341 258.393C387.016 258.672 387.536 259.061 387.902 259.56C388.268 260.055 388.451 260.637 388.451 261.307C388.451 261.951 388.25 262.484 387.848 262.906C387.446 263.324 386.905 263.622 386.225 263.803V263.926C386.694 263.952 387.116 264.086 387.493 264.328C387.869 264.565 388.167 264.887 388.389 265.294C388.61 265.701 388.721 266.172 388.721 266.708C388.721 267.435 388.513 268.063 388.095 268.594C387.678 269.119 387.104 269.523 386.372 269.807C385.646 270.09 384.814 270.232 383.876 270.232C382.964 270.232 382.148 270.095 381.427 269.822C380.71 269.544 380.141 269.145 379.719 268.625C379.296 268.104 379.072 267.478 379.047 266.747ZM396.101 270.232C394.942 270.232 393.937 269.977 393.087 269.467C392.237 268.957 391.578 268.243 391.109 267.326C390.645 266.409 390.414 265.338 390.414 264.112C390.414 262.886 390.645 261.812 391.109 260.889C391.578 259.967 392.237 259.251 393.087 258.741C393.937 258.231 394.942 257.976 396.101 257.976C397.26 257.976 398.265 258.231 399.115 258.741C399.965 259.251 400.621 259.967 401.085 260.889C401.554 261.812 401.788 262.886 401.788 264.112C401.788 265.338 401.554 266.409 401.085 267.326C400.621 268.243 399.965 268.957 399.115 269.467C398.265 269.977 397.26 270.232 396.101 270.232ZM396.116 267.991C396.745 267.991 397.27 267.818 397.693 267.473C398.115 267.123 398.429 266.654 398.635 266.067C398.847 265.479 398.952 264.825 398.952 264.104C398.952 263.378 398.847 262.721 398.635 262.134C398.429 261.541 398.115 261.07 397.693 260.719C397.27 260.369 396.745 260.194 396.116 260.194C395.472 260.194 394.937 260.369 394.509 260.719C394.087 261.07 393.77 261.541 393.559 262.134C393.352 262.721 393.249 263.378 393.249 264.104C393.249 264.825 393.352 265.479 393.559 266.067C393.77 266.654 394.087 267.123 394.509 267.473C394.937 267.818 395.472 267.991 396.116 267.991ZM404.162 274.451V258.131H406.913V260.093H407.076C407.22 259.805 407.423 259.498 407.686 259.174C407.949 258.844 408.304 258.563 408.753 258.332C409.201 258.095 409.773 257.976 410.468 257.976C411.385 257.976 412.212 258.211 412.949 258.679C413.69 259.143 414.278 259.831 414.71 260.743C415.148 261.649 415.367 262.762 415.367 264.081C415.367 265.384 415.153 266.492 414.726 267.404C414.298 268.315 413.716 269.011 412.979 269.49C412.243 269.969 411.408 270.209 410.476 270.209C409.796 270.209 409.232 270.095 408.783 269.869C408.335 269.642 407.975 269.369 407.702 269.05C407.434 268.725 407.225 268.418 407.076 268.13H406.96V274.451H404.162ZM406.906 264.065C406.906 264.833 407.014 265.505 407.23 266.082C407.452 266.659 407.769 267.11 408.181 267.435C408.598 267.754 409.103 267.914 409.695 267.914C410.313 267.914 410.831 267.749 411.249 267.419C411.666 267.084 411.98 266.628 412.191 266.051C412.408 265.469 412.516 264.807 412.516 264.065C412.516 263.329 412.41 262.674 412.199 262.103C411.988 261.531 411.674 261.083 411.256 260.758C410.839 260.433 410.319 260.271 409.695 260.271C409.098 260.271 408.59 260.428 408.173 260.743C407.756 261.057 407.439 261.497 407.223 262.064C407.011 262.631 406.906 263.298 406.906 264.065Z" fill="black"/>
<rect x="120" y="230" width="465" height="65" stroke="#58A982" stroke-width="2"/>
<rect x="120" y="305" width="465" height="65" fill="#DBEEE5"/>
<path d="M239.786 337.087C239.786 338.792 239.467 340.253 238.828 341.469C238.194 342.679 237.329 343.606 236.232 344.25C235.14 344.894 233.901 345.216 232.515 345.216C231.129 345.216 229.887 344.894 228.79 344.25C227.698 343.601 226.833 342.671 226.194 341.461C225.56 340.245 225.243 338.787 225.243 337.087C225.243 335.382 225.56 333.924 226.194 332.713C226.833 331.498 227.698 330.568 228.79 329.924C229.887 329.28 231.129 328.958 232.515 328.958C233.901 328.958 235.14 329.28 236.232 329.924C237.329 330.568 238.194 331.498 238.828 332.713C239.467 333.924 239.786 335.382 239.786 337.087ZM236.904 337.087C236.904 335.887 236.716 334.875 236.34 334.05C235.969 333.221 235.454 332.595 234.794 332.173C234.135 331.745 233.375 331.531 232.515 331.531C231.654 331.531 230.895 331.745 230.235 332.173C229.576 332.595 229.058 333.221 228.682 334.05C228.311 334.875 228.126 335.887 228.126 337.087C228.126 338.287 228.311 339.302 228.682 340.132C229.058 340.956 229.576 341.582 230.235 342.009C230.895 342.432 231.654 342.643 232.515 342.643C233.375 342.643 234.135 342.432 234.794 342.009C235.454 341.582 235.969 340.956 236.34 340.132C236.716 339.302 236.904 338.287 236.904 337.087ZM242.373 345V333.131H252.395V345H249.699V335.426H245.047V345H242.373ZM260.527 345.232C259.337 345.232 258.309 344.985 257.443 344.49C256.583 343.99 255.921 343.285 255.457 342.373C254.994 341.456 254.762 340.376 254.762 339.135C254.762 337.914 254.994 336.842 255.457 335.92C255.926 334.993 256.58 334.272 257.42 333.757C258.26 333.236 259.246 332.976 260.38 332.976C261.111 332.976 261.802 333.095 262.451 333.332C263.105 333.563 263.682 333.924 264.182 334.413C264.687 334.903 265.083 335.526 265.372 336.283C265.66 337.036 265.804 337.932 265.804 338.973V339.83H256.076V337.945H263.123C263.118 337.409 263.002 336.933 262.775 336.515C262.549 336.093 262.232 335.761 261.825 335.518C261.423 335.276 260.954 335.155 260.418 335.155C259.847 335.155 259.344 335.294 258.912 335.573C258.479 335.846 258.141 336.206 257.899 336.654C257.662 337.097 257.541 337.584 257.536 338.115V339.761C257.536 340.451 257.662 341.044 257.915 341.538C258.167 342.028 258.52 342.404 258.973 342.666C259.427 342.924 259.957 343.053 260.565 343.053C260.972 343.053 261.341 342.996 261.67 342.883C262 342.764 262.286 342.592 262.528 342.365C262.77 342.138 262.953 341.858 263.077 341.523L265.689 341.816C265.524 342.507 265.209 343.109 264.746 343.625C264.287 344.135 263.7 344.531 262.984 344.815C262.268 345.093 261.449 345.232 260.527 345.232ZM268.171 349.451V333.131H270.922V335.093H271.084C271.228 334.805 271.432 334.498 271.695 334.174C271.957 333.844 272.313 333.563 272.761 333.332C273.209 333.095 273.781 332.976 274.476 332.976C275.393 332.976 276.22 333.211 276.957 333.679C277.699 334.143 278.286 334.831 278.719 335.743C279.157 336.649 279.376 337.762 279.376 339.081C279.376 340.384 279.162 341.492 278.734 342.404C278.307 343.315 277.725 344.011 276.988 344.49C276.251 344.969 275.417 345.209 274.484 345.209C273.804 345.209 273.24 345.095 272.792 344.869C272.344 344.642 271.983 344.369 271.71 344.05C271.442 343.725 271.234 343.418 271.084 343.13H270.968V349.451H268.171ZM270.914 339.065C270.914 339.833 271.022 340.505 271.239 341.082C271.46 341.659 271.777 342.11 272.189 342.435C272.606 342.754 273.111 342.914 273.704 342.914C274.322 342.914 274.84 342.749 275.257 342.419C275.674 342.084 275.988 341.628 276.2 341.051C276.416 340.469 276.524 339.807 276.524 339.065C276.524 338.329 276.419 337.674 276.207 337.103C275.996 336.531 275.682 336.083 275.265 335.758C274.847 335.433 274.327 335.271 273.704 335.271C273.106 335.271 272.599 335.428 272.181 335.743C271.764 336.057 271.447 336.497 271.231 337.064C271.02 337.631 270.914 338.298 270.914 339.065ZM285.187 345.24C284.435 345.24 283.757 345.106 283.154 344.838C282.557 344.565 282.083 344.163 281.733 343.632C281.387 343.102 281.215 342.447 281.215 341.669C281.215 341 281.338 340.446 281.586 340.008C281.833 339.57 282.17 339.22 282.598 338.957C283.026 338.694 283.507 338.496 284.043 338.362C284.584 338.223 285.143 338.123 285.72 338.061C286.415 337.989 286.979 337.924 287.412 337.868C287.845 337.806 288.159 337.713 288.355 337.589C288.556 337.461 288.656 337.262 288.656 336.994V336.948C288.656 336.366 288.484 335.915 288.139 335.596C287.793 335.276 287.296 335.117 286.647 335.117C285.962 335.117 285.418 335.266 285.017 335.565C284.62 335.864 284.352 336.217 284.213 336.624L281.601 336.253C281.807 335.531 282.147 334.929 282.621 334.444C283.095 333.955 283.675 333.589 284.36 333.347C285.045 333.1 285.802 332.976 286.632 332.976C287.204 332.976 287.773 333.043 288.339 333.177C288.906 333.311 289.424 333.533 289.893 333.842C290.361 334.146 290.738 334.56 291.021 335.086C291.309 335.611 291.454 336.268 291.454 337.056V345H288.764V343.37H288.672C288.502 343.699 288.262 344.008 287.953 344.297C287.649 344.58 287.265 344.809 286.802 344.985C286.343 345.155 285.805 345.24 285.187 345.24ZM285.913 343.184C286.475 343.184 286.961 343.073 287.374 342.852C287.786 342.625 288.102 342.326 288.324 341.955C288.551 341.584 288.664 341.18 288.664 340.742V339.344C288.576 339.416 288.427 339.483 288.216 339.544C288.01 339.606 287.778 339.66 287.52 339.707C287.263 339.753 287.008 339.794 286.755 339.83C286.503 339.866 286.284 339.897 286.098 339.923C285.681 339.98 285.308 340.072 284.978 340.201C284.648 340.33 284.388 340.51 284.198 340.742C284.007 340.969 283.912 341.263 283.912 341.623C283.912 342.138 284.1 342.527 284.476 342.79C284.852 343.053 285.331 343.184 285.913 343.184ZM304.289 333.131V342.914H306.105V348.817H303.369V345H294.266V333.131H296.963V342.705H301.615V333.131H304.289ZM311.095 341.214L315.847 333.131H318.722V345H316.017V336.909L311.28 345H308.398V333.131H311.095V341.214ZM326.772 345.232C325.613 345.232 324.608 344.977 323.758 344.467C322.908 343.957 322.249 343.243 321.78 342.326C321.316 341.409 321.084 340.338 321.084 339.112C321.084 337.886 321.316 336.812 321.78 335.889C322.249 334.967 322.908 334.251 323.758 333.741C324.608 333.231 325.613 332.976 326.772 332.976C327.931 332.976 328.935 333.231 329.785 333.741C330.635 334.251 331.292 334.967 331.756 335.889C332.225 336.812 332.459 337.886 332.459 339.112C332.459 340.338 332.225 341.409 331.756 342.326C331.292 343.243 330.635 343.957 329.785 344.467C328.935 344.977 327.931 345.232 326.772 345.232ZM326.787 342.991C327.416 342.991 327.941 342.818 328.363 342.473C328.786 342.123 329.1 341.654 329.306 341.067C329.517 340.479 329.623 339.825 329.623 339.104C329.623 338.378 329.517 337.721 329.306 337.134C329.1 336.541 328.786 336.07 328.363 335.719C327.941 335.369 327.416 335.194 326.787 335.194C326.143 335.194 325.607 335.369 325.18 335.719C324.757 336.07 324.441 336.541 324.229 337.134C324.023 337.721 323.92 338.378 323.92 339.104C323.92 339.825 324.023 340.479 324.229 341.067C324.441 341.654 324.757 342.123 325.18 342.473C325.607 342.818 326.143 342.991 326.787 342.991ZM342.986 337.906V340.201H336.665V337.906H342.986ZM337.53 333.131V345H334.833V333.131H337.53ZM344.817 333.131V345H342.128V333.131H344.817ZM355.8 337.906V340.201H349.479V337.906H355.8ZM350.344 333.131V345H347.647V333.131H350.344ZM357.631 333.131V345H354.942V333.131H357.631ZM363.877 345.24C363.125 345.24 362.447 345.106 361.844 344.838C361.247 344.565 360.773 344.163 360.423 343.632C360.077 343.102 359.905 342.447 359.905 341.669C359.905 341 360.028 340.446 360.276 340.008C360.523 339.57 360.86 339.22 361.288 338.957C361.716 338.694 362.197 338.496 362.733 338.362C363.274 338.223 363.833 338.123 364.41 338.061C365.105 337.989 365.669 337.924 366.102 337.868C366.535 337.806 366.849 337.713 367.045 337.589C367.246 337.461 367.346 337.262 367.346 336.994V336.948C367.346 336.366 367.174 335.915 366.829 335.596C366.483 335.276 365.986 335.117 365.337 335.117C364.652 335.117 364.108 335.266 363.707 335.565C363.31 335.864 363.042 336.217 362.903 336.624L360.291 336.253C360.497 335.531 360.837 334.929 361.311 334.444C361.785 333.955 362.365 333.589 363.05 333.347C363.735 333.1 364.492 332.976 365.322 332.976C365.894 332.976 366.463 333.043 367.029 333.177C367.596 333.311 368.114 333.533 368.583 333.842C369.051 334.146 369.428 334.56 369.711 335.086C369.999 335.611 370.144 336.268 370.144 337.056V345H367.454V343.37H367.362C367.192 343.699 366.952 344.008 366.643 344.297C366.339 344.58 365.955 344.809 365.492 344.985C365.033 345.155 364.495 345.24 363.877 345.24ZM364.603 343.184C365.165 343.184 365.651 343.073 366.064 342.852C366.476 342.625 366.792 342.326 367.014 341.955C367.241 341.584 367.354 341.18 367.354 340.742V339.344C367.266 339.416 367.117 339.483 366.906 339.544C366.7 339.606 366.468 339.66 366.21 339.707C365.953 339.753 365.698 339.794 365.445 339.83C365.193 339.866 364.974 339.897 364.789 339.923C364.371 339.98 363.998 340.072 363.668 340.201C363.338 340.33 363.078 340.51 362.888 340.742C362.697 340.969 362.602 341.263 362.602 341.623C362.602 342.138 362.79 342.527 363.166 342.79C363.542 343.053 364.021 343.184 364.603 343.184ZM379.973 345V335.403H377.438C376.794 335.403 376.3 335.552 375.955 335.851C375.609 336.15 375.439 336.52 375.445 336.964C375.439 337.407 375.602 337.772 375.931 338.061C376.261 338.349 376.732 338.494 377.346 338.494H380.854V340.534H377.346C376.398 340.534 375.579 340.384 374.888 340.085C374.198 339.787 373.667 339.364 373.296 338.818C372.925 338.272 372.74 337.633 372.74 336.902C372.74 336.139 372.928 335.477 373.304 334.916C373.685 334.349 374.226 333.911 374.927 333.602C375.633 333.288 376.47 333.131 377.438 333.131H382.592V345H379.973ZM372.307 345L375.622 338.911H378.381L375.058 345H372.307ZM395.984 345.232C394.799 345.232 393.782 344.972 392.932 344.451C392.087 343.931 391.435 343.212 390.977 342.295C390.523 341.373 390.297 340.312 390.297 339.112C390.297 337.906 390.528 336.842 390.992 335.92C391.456 334.993 392.11 334.272 392.955 333.757C393.805 333.236 394.809 332.976 395.969 332.976C396.932 332.976 397.784 333.154 398.526 333.509C399.273 333.86 399.868 334.357 400.311 335.001C400.754 335.64 401.007 336.387 401.069 337.242H398.395C398.287 336.67 398.029 336.193 397.622 335.812C397.22 335.426 396.682 335.233 396.007 335.233C395.435 335.233 394.933 335.387 394.5 335.696C394.068 336 393.73 336.438 393.488 337.01C393.251 337.582 393.133 338.267 393.133 339.065C393.133 339.874 393.251 340.57 393.488 341.152C393.725 341.729 394.057 342.174 394.485 342.489C394.918 342.798 395.425 342.952 396.007 342.952C396.419 342.952 396.788 342.875 397.112 342.72C397.442 342.561 397.718 342.331 397.939 342.033C398.161 341.734 398.313 341.371 398.395 340.943H401.069C401.002 341.783 400.754 342.527 400.327 343.176C399.899 343.82 399.317 344.325 398.58 344.691C397.844 345.052 396.978 345.232 395.984 345.232ZM406.062 341.214L410.815 333.131H413.689V345H410.985V336.909L406.248 345H403.366V333.131H406.062V341.214ZM421.739 345.232C420.555 345.232 419.537 344.972 418.687 344.451C417.842 343.931 417.191 343.212 416.732 342.295C416.279 341.373 416.052 340.312 416.052 339.112C416.052 337.906 416.284 336.842 416.748 335.92C417.211 334.993 417.865 334.272 418.71 333.757C419.56 333.236 420.565 332.976 421.724 332.976C422.687 332.976 423.54 333.154 424.282 333.509C425.029 333.86 425.624 334.357 426.067 335.001C426.51 335.64 426.762 336.387 426.824 337.242H424.15C424.042 336.67 423.785 336.193 423.378 335.812C422.976 335.426 422.437 335.233 421.763 335.233C421.191 335.233 420.688 335.387 420.256 335.696C419.823 336 419.486 336.438 419.243 337.01C419.006 337.582 418.888 338.267 418.888 339.065C418.888 339.874 419.006 340.57 419.243 341.152C419.48 341.729 419.813 342.174 420.24 342.489C420.673 342.798 421.18 342.952 421.763 342.952C422.175 342.952 422.543 342.875 422.868 342.72C423.197 342.561 423.473 342.331 423.694 342.033C423.916 341.734 424.068 341.371 424.15 340.943H426.824C426.757 341.783 426.51 342.527 426.082 343.176C425.655 343.82 425.072 344.325 424.336 344.691C423.599 345.052 422.734 345.232 421.739 345.232ZM428.259 335.426V333.131H438.645V335.426H434.805V345H432.1V335.426H428.259ZM445.638 345.232C444.448 345.232 443.421 344.985 442.555 344.49C441.695 343.99 441.033 343.285 440.569 342.373C440.106 341.456 439.874 340.376 439.874 339.135C439.874 337.914 440.106 336.842 440.569 335.92C441.038 334.993 441.692 334.272 442.532 333.757C443.372 333.236 444.358 332.976 445.492 332.976C446.223 332.976 446.913 333.095 447.562 333.332C448.217 333.563 448.794 333.924 449.293 334.413C449.798 334.903 450.195 335.526 450.483 336.283C450.772 337.036 450.916 337.932 450.916 338.973V339.83H441.187V337.945H448.235C448.23 337.409 448.114 336.933 447.887 336.515C447.66 336.093 447.344 335.761 446.937 335.518C446.535 335.276 446.066 335.155 445.53 335.155C444.958 335.155 444.456 335.294 444.023 335.573C443.591 335.846 443.253 336.206 443.011 336.654C442.774 337.097 442.653 337.584 442.648 338.115V339.761C442.648 340.451 442.774 341.044 443.026 341.538C443.279 342.028 443.632 342.404 444.085 342.666C444.538 342.924 445.069 343.053 445.677 343.053C446.084 343.053 446.452 342.996 446.782 342.883C447.112 342.764 447.398 342.592 447.64 342.365C447.882 342.138 448.065 341.858 448.188 341.523L450.8 341.816C450.635 342.507 450.321 343.109 449.857 343.625C449.399 344.135 448.812 344.531 448.096 344.815C447.38 345.093 446.56 345.232 445.638 345.232ZM460.114 341.747L463.637 333.131H465.894L461.095 345H459.14L454.449 333.131H456.683L460.114 341.747ZM455.98 333.131V345H453.283V333.131H455.98ZM464.364 345V333.131H467.037V345H464.364ZM473.273 345.24C472.521 345.24 471.844 345.106 471.241 344.838C470.644 344.565 470.17 344.163 469.819 343.632C469.474 343.102 469.302 342.447 469.302 341.669C469.302 341 469.425 340.446 469.672 340.008C469.92 339.57 470.257 339.22 470.685 338.957C471.112 338.694 471.594 338.496 472.13 338.362C472.671 338.223 473.23 338.123 473.807 338.061C474.502 337.989 475.066 337.924 475.499 337.868C475.932 337.806 476.246 337.713 476.442 337.589C476.643 337.461 476.743 337.262 476.743 336.994V336.948C476.743 336.366 476.57 335.915 476.225 335.596C475.88 335.276 475.383 335.117 474.734 335.117C474.049 335.117 473.505 335.266 473.103 335.565C472.707 335.864 472.439 336.217 472.3 336.624L469.688 336.253C469.894 335.531 470.234 334.929 470.708 334.444C471.182 333.955 471.761 333.589 472.447 333.347C473.132 333.1 473.889 332.976 474.718 332.976C475.29 332.976 475.86 333.043 476.426 333.177C476.993 333.311 477.511 333.533 477.979 333.842C478.448 334.146 478.824 334.56 479.108 335.086C479.396 335.611 479.54 336.268 479.54 337.056V345H476.851V343.37H476.758C476.588 343.699 476.349 344.008 476.04 344.297C475.736 344.58 475.352 344.809 474.888 344.985C474.43 345.155 473.892 345.24 473.273 345.24ZM474 343.184C474.561 343.184 475.048 343.073 475.46 342.852C475.872 342.625 476.189 342.326 476.411 341.955C476.637 341.584 476.751 341.18 476.751 340.742V339.344C476.663 339.416 476.514 339.483 476.303 339.544C476.097 339.606 475.865 339.66 475.607 339.707C475.35 339.753 475.095 339.794 474.842 339.83C474.59 339.866 474.371 339.897 474.185 339.923C473.768 339.98 473.394 340.072 473.065 340.201C472.735 340.33 472.475 340.51 472.284 340.742C472.094 340.969 471.998 341.263 471.998 341.623C471.998 342.138 472.186 342.527 472.563 342.79C472.939 343.053 473.418 343.184 474 343.184Z" fill="black"/>
<rect x="120" y="305" width="465" height="65" stroke="#58A982" stroke-width="2"/>
<rect x="120" y="380" width="465" height="65" fill="#DBEEE5"/>
<path d="M217.105 420H214.045L219.617 404.174H223.156L228.735 420H225.675L221.448 407.42H221.325L217.105 420ZM217.206 413.795H225.551V416.098H217.206V413.795ZM230.696 420V408.131H240.718V420H238.022V410.426H233.37V420H230.696ZM243.595 420V408.131H253.617V420H250.92V410.426H246.269V420H243.595ZM259.909 420.24C259.157 420.24 258.48 420.106 257.877 419.838C257.279 419.565 256.806 419.163 256.455 418.632C256.11 418.102 255.937 417.447 255.937 416.669C255.937 416 256.061 415.446 256.308 415.008C256.556 414.57 256.893 414.22 257.321 413.957C257.748 413.694 258.23 413.496 258.766 413.362C259.307 413.223 259.866 413.123 260.443 413.061C261.138 412.989 261.702 412.924 262.135 412.868C262.568 412.806 262.882 412.713 263.078 412.589C263.279 412.461 263.379 412.262 263.379 411.994V411.948C263.379 411.366 263.206 410.915 262.861 410.596C262.516 410.276 262.019 410.117 261.37 410.117C260.685 410.117 260.141 410.266 259.739 410.565C259.343 410.864 259.075 411.217 258.936 411.624L256.324 411.253C256.53 410.531 256.87 409.929 257.344 409.444C257.818 408.955 258.397 408.589 259.083 408.347C259.768 408.1 260.525 407.976 261.354 407.976C261.926 407.976 262.495 408.043 263.062 408.177C263.629 408.311 264.147 408.533 264.615 408.842C265.084 409.146 265.46 409.56 265.744 410.086C266.032 410.611 266.176 411.268 266.176 412.056V420H263.487V418.37H263.394C263.224 418.699 262.985 419.008 262.676 419.297C262.372 419.58 261.988 419.809 261.524 419.985C261.066 420.155 260.528 420.24 259.909 420.24ZM260.636 418.184C261.197 418.184 261.684 418.073 262.096 417.852C262.508 417.625 262.825 417.326 263.047 416.955C263.273 416.584 263.387 416.18 263.387 415.742V414.344C263.299 414.416 263.15 414.483 262.939 414.544C262.732 414.606 262.501 414.66 262.243 414.707C261.985 414.753 261.73 414.794 261.478 414.83C261.226 414.866 261.007 414.897 260.821 414.923C260.404 414.98 260.03 415.072 259.701 415.201C259.371 415.33 259.111 415.51 258.92 415.742C258.73 415.969 258.634 416.263 258.634 416.623C258.634 417.138 258.822 417.527 259.198 417.79C259.575 418.053 260.054 418.184 260.636 418.184ZM268.989 424.451V408.131H271.74V410.093H271.902C272.047 409.805 272.25 409.498 272.513 409.174C272.775 408.844 273.131 408.563 273.579 408.332C274.027 408.095 274.599 407.976 275.295 407.976C276.212 407.976 277.038 408.211 277.775 408.679C278.517 409.143 279.104 409.831 279.537 410.743C279.975 411.649 280.194 412.762 280.194 414.081C280.194 415.384 279.98 416.492 279.552 417.404C279.125 418.315 278.543 419.011 277.806 419.49C277.069 419.969 276.235 420.209 275.302 420.209C274.622 420.209 274.058 420.095 273.61 419.869C273.162 419.642 272.801 419.369 272.528 419.05C272.26 418.725 272.052 418.418 271.902 418.13H271.786V424.451H268.989ZM271.732 414.065C271.732 414.833 271.84 415.505 272.057 416.082C272.278 416.659 272.595 417.11 273.007 417.435C273.425 417.754 273.929 417.914 274.522 417.914C275.14 417.914 275.658 417.749 276.075 417.419C276.492 417.084 276.807 416.628 277.018 416.051C277.234 415.469 277.342 414.807 277.342 414.065C277.342 413.329 277.237 412.674 277.026 412.103C276.814 411.531 276.5 411.083 276.083 410.758C275.666 410.433 275.145 410.271 274.522 410.271C273.924 410.271 273.417 410.428 273 410.743C272.582 411.057 272.265 411.497 272.049 412.064C271.838 412.631 271.732 413.298 271.732 414.065ZM286.005 420.24C285.253 420.24 284.575 420.106 283.972 419.838C283.375 419.565 282.901 419.163 282.551 418.632C282.205 418.102 282.033 417.447 282.033 416.669C282.033 416 282.157 415.446 282.404 415.008C282.651 414.57 282.989 414.22 283.416 413.957C283.844 413.694 284.325 413.496 284.861 413.362C285.402 413.223 285.961 413.123 286.538 413.061C287.233 412.989 287.798 412.924 288.23 412.868C288.663 412.806 288.977 412.713 289.173 412.589C289.374 412.461 289.474 412.262 289.474 411.994V411.948C289.474 411.366 289.302 410.915 288.957 410.596C288.611 410.276 288.114 410.117 287.465 410.117C286.78 410.117 286.237 410.266 285.835 410.565C285.438 410.864 285.17 411.217 285.031 411.624L282.419 411.253C282.625 410.531 282.965 409.929 283.439 409.444C283.913 408.955 284.493 408.589 285.178 408.347C285.863 408.1 286.62 407.976 287.45 407.976C288.022 407.976 288.591 408.043 289.158 408.177C289.724 408.311 290.242 408.533 290.711 408.842C291.18 409.146 291.556 409.56 291.839 410.086C292.127 410.611 292.272 411.268 292.272 412.056V420H289.583V418.37H289.49C289.32 418.699 289.08 419.008 288.771 419.297C288.467 419.58 288.083 419.809 287.62 419.985C287.161 420.155 286.623 420.24 286.005 420.24ZM286.731 418.184C287.293 418.184 287.78 418.073 288.192 417.852C288.604 417.625 288.921 417.326 289.142 416.955C289.369 416.584 289.482 416.18 289.482 415.742V414.344C289.395 414.416 289.245 414.483 289.034 414.544C288.828 414.606 288.596 414.66 288.338 414.707C288.081 414.753 287.826 414.794 287.573 414.83C287.321 414.866 287.102 414.897 286.917 414.923C286.499 414.98 286.126 415.072 285.796 415.201C285.466 415.33 285.206 415.51 285.016 415.742C284.825 415.969 284.73 416.263 284.73 416.623C284.73 417.138 284.918 417.527 285.294 417.79C285.67 418.053 286.149 418.184 286.731 418.184ZM293.755 410.426V408.131H304.141V410.426H300.3V420H297.596V410.426H293.755ZM314.521 412.906V415.201H308.2V412.906H314.521ZM309.065 408.131V420H306.368V408.131H309.065ZM316.352 408.131V420H313.663V408.131H316.352ZM324.36 420.232C323.201 420.232 322.196 419.977 321.346 419.467C320.496 418.957 319.837 418.243 319.368 417.326C318.904 416.409 318.672 415.338 318.672 414.112C318.672 412.886 318.904 411.812 319.368 410.889C319.837 409.967 320.496 409.251 321.346 408.741C322.196 408.231 323.201 407.976 324.36 407.976C325.519 407.976 326.523 408.231 327.373 408.741C328.223 409.251 328.88 409.967 329.344 410.889C329.813 411.812 330.047 412.886 330.047 414.112C330.047 415.338 329.813 416.409 329.344 417.326C328.88 418.243 328.223 418.957 327.373 419.467C326.523 419.977 325.519 420.232 324.36 420.232ZM324.375 417.991C325.004 417.991 325.529 417.818 325.952 417.473C326.374 417.123 326.688 416.654 326.894 416.067C327.106 415.479 327.211 414.825 327.211 414.104C327.211 413.378 327.106 412.721 326.894 412.134C326.688 411.541 326.374 411.07 325.952 410.719C325.529 410.369 325.004 410.194 324.375 410.194C323.731 410.194 323.195 410.369 322.768 410.719C322.345 411.07 322.029 411.541 321.817 412.134C321.611 412.721 321.508 413.378 321.508 414.104C321.508 414.825 321.611 415.479 321.817 416.067C322.029 416.654 322.345 417.123 322.768 417.473C323.195 417.818 323.731 417.991 324.375 417.991ZM337.676 420.232C336.486 420.232 335.458 419.985 334.593 419.49C333.732 418.99 333.07 418.285 332.607 417.373C332.143 416.456 331.911 415.376 331.911 414.135C331.911 412.914 332.143 411.842 332.607 410.92C333.076 409.993 333.73 409.272 334.57 408.757C335.409 408.236 336.396 407.976 337.529 407.976C338.261 407.976 338.951 408.095 339.6 408.332C340.254 408.563 340.831 408.924 341.331 409.413C341.836 409.903 342.233 410.526 342.521 411.283C342.81 412.036 342.954 412.932 342.954 413.973V414.83H333.225V412.945H340.272C340.267 412.409 340.151 411.933 339.925 411.515C339.698 411.093 339.381 410.761 338.974 410.518C338.572 410.276 338.104 410.155 337.568 410.155C336.996 410.155 336.494 410.294 336.061 410.573C335.628 410.846 335.291 411.206 335.049 411.654C334.812 412.097 334.691 412.584 334.685 413.115V414.761C334.685 415.451 334.812 416.044 335.064 416.538C335.317 417.028 335.669 417.404 336.123 417.666C336.576 417.924 337.107 418.053 337.715 418.053C338.122 418.053 338.49 417.996 338.82 417.883C339.149 417.764 339.435 417.592 339.677 417.365C339.919 417.138 340.102 416.858 340.226 416.523L342.838 416.816C342.673 417.507 342.359 418.109 341.895 418.625C341.437 419.135 340.849 419.531 340.133 419.815C339.417 420.093 338.598 420.232 337.676 420.232ZM355.895 420.232C354.736 420.232 353.732 419.977 352.882 419.467C352.032 418.957 351.372 418.243 350.903 417.326C350.44 416.409 350.208 415.338 350.208 414.112C350.208 412.886 350.44 411.812 350.903 410.889C351.372 409.967 352.032 409.251 352.882 408.741C353.732 408.231 354.736 407.976 355.895 407.976C357.054 407.976 358.059 408.231 358.909 408.741C359.759 409.251 360.416 409.967 360.879 410.889C361.348 411.812 361.583 412.886 361.583 414.112C361.583 415.338 361.348 416.409 360.879 417.326C360.416 418.243 359.759 418.957 358.909 419.467C358.059 419.977 357.054 420.232 355.895 420.232ZM355.911 417.991C356.539 417.991 357.065 417.818 357.487 417.473C357.91 417.123 358.224 416.654 358.43 416.067C358.641 415.479 358.747 414.825 358.747 414.104C358.747 413.378 358.641 412.721 358.43 412.134C358.224 411.541 357.91 411.07 357.487 410.719C357.065 410.369 356.539 410.194 355.911 410.194C355.267 410.194 354.731 410.369 354.303 410.719C353.881 411.07 353.564 411.541 353.353 412.134C353.147 412.721 353.044 413.378 353.044 414.104C353.044 414.825 353.147 415.479 353.353 416.067C353.564 416.654 353.881 417.123 354.303 417.473C354.731 417.818 355.267 417.991 355.911 417.991ZM373.469 403.742L374.443 405.55C374.098 405.849 373.711 406.065 373.284 406.199C372.856 406.333 372.354 406.42 371.777 406.462C371.205 406.498 370.525 406.523 369.737 406.539C368.851 406.559 368.127 406.727 367.566 407.041C367.004 407.355 366.574 407.832 366.275 408.471C365.976 409.104 365.78 409.913 365.688 410.897H365.819C366.19 410.171 366.71 409.617 367.38 409.236C368.05 408.855 368.835 408.664 369.737 408.664C370.721 408.664 371.589 408.885 372.341 409.328C373.098 409.766 373.688 410.403 374.111 411.237C374.538 412.072 374.752 413.081 374.752 414.266C374.752 415.487 374.523 416.546 374.064 417.442C373.606 418.333 372.954 419.021 372.109 419.505C371.27 419.99 370.273 420.232 369.119 420.232C367.97 420.232 366.971 419.982 366.12 419.482C365.276 418.977 364.621 418.233 364.158 417.249C363.699 416.26 363.47 415.042 363.47 413.594V412.528C363.47 409.735 363.99 407.652 365.031 406.276C366.072 404.901 367.614 404.2 369.66 404.174C370.268 404.164 370.811 404.161 371.29 404.167C371.774 404.172 372.197 404.149 372.557 404.097C372.918 404.046 373.222 403.927 373.469 403.742ZM369.134 417.991C369.706 417.991 370.201 417.844 370.618 417.55C371.035 417.252 371.355 416.829 371.576 416.283C371.803 415.737 371.916 415.091 371.916 414.344C371.916 413.607 371.803 412.981 371.576 412.466C371.349 411.945 371.027 411.549 370.61 411.276C370.193 411.003 369.696 410.866 369.119 410.866C368.686 410.866 368.297 410.943 367.952 411.098C367.607 411.253 367.313 411.479 367.071 411.778C366.829 412.077 366.643 412.44 366.515 412.868C366.386 413.295 366.316 413.787 366.306 414.344C366.306 415.461 366.558 416.35 367.063 417.009C367.568 417.664 368.258 417.991 369.134 417.991ZM382.387 420.232C381.197 420.232 380.169 419.985 379.303 419.49C378.443 418.99 377.781 418.285 377.318 417.373C376.854 416.456 376.622 415.376 376.622 414.135C376.622 412.914 376.854 411.842 377.318 410.92C377.786 409.993 378.441 409.272 379.28 408.757C380.12 408.236 381.107 407.976 382.24 407.976C382.971 407.976 383.662 408.095 384.311 408.332C384.965 408.563 385.542 408.924 386.042 409.413C386.547 409.903 386.943 410.526 387.232 411.283C387.52 412.036 387.664 412.932 387.664 413.973V414.83H377.936V412.945H384.983C384.978 412.409 384.862 411.933 384.635 411.515C384.409 411.093 384.092 410.761 383.685 410.518C383.283 410.276 382.814 410.155 382.278 410.155C381.707 410.155 381.204 410.294 380.772 410.573C380.339 410.846 380.001 411.206 379.759 411.654C379.522 412.097 379.401 412.584 379.396 413.115V414.761C379.396 415.451 379.522 416.044 379.775 416.538C380.027 417.028 380.38 417.404 380.833 417.666C381.287 417.924 381.817 418.053 382.425 418.053C382.832 418.053 383.201 417.996 383.53 417.883C383.86 417.764 384.146 417.592 384.388 417.365C384.63 417.138 384.813 416.858 384.937 416.523L387.549 416.816C387.384 417.507 387.069 418.109 386.606 418.625C386.147 419.135 385.56 419.531 384.844 419.815C384.128 420.093 383.309 420.232 382.387 420.232ZM395.208 420.232C394.023 420.232 393.006 419.972 392.156 419.451C391.311 418.931 390.659 418.212 390.201 417.295C389.748 416.373 389.521 415.312 389.521 414.112C389.521 412.906 389.753 411.842 390.216 410.92C390.68 409.993 391.334 409.272 392.179 408.757C393.029 408.236 394.034 407.976 395.193 407.976C396.156 407.976 397.009 408.154 397.751 408.509C398.498 408.86 399.093 409.357 399.536 410.001C399.979 410.64 400.231 411.387 400.293 412.242H397.619C397.511 411.67 397.254 411.193 396.847 410.812C396.445 410.426 395.906 410.233 395.232 410.233C394.66 410.233 394.157 410.387 393.725 410.696C393.292 411 392.955 411.438 392.712 412.01C392.475 412.582 392.357 413.267 392.357 414.065C392.357 414.874 392.475 415.57 392.712 416.152C392.949 416.729 393.282 417.174 393.709 417.489C394.142 417.798 394.649 417.952 395.232 417.952C395.644 417.952 396.012 417.875 396.337 417.72C396.666 417.561 396.942 417.331 397.163 417.033C397.385 416.734 397.537 416.371 397.619 415.943H400.293C400.226 416.783 399.979 417.527 399.551 418.176C399.124 418.82 398.541 419.325 397.805 419.691C397.068 420.052 396.203 420.232 395.208 420.232ZM402.59 420V408.131H412.612V420H409.916V410.426H405.264V420H402.59ZM420.744 420.232C419.554 420.232 418.526 419.985 417.66 419.49C416.8 418.99 416.138 418.285 415.674 417.373C415.211 416.456 414.979 415.376 414.979 414.135C414.979 412.914 415.211 411.842 415.674 410.92C416.143 409.993 416.797 409.272 417.637 408.757C418.477 408.236 419.463 407.976 420.597 407.976C421.328 407.976 422.019 408.095 422.668 408.332C423.322 408.563 423.899 408.924 424.399 409.413C424.903 409.903 425.3 410.526 425.589 411.283C425.877 412.036 426.021 412.932 426.021 413.973V414.83H416.293V412.945H423.34C423.335 412.409 423.219 411.933 422.992 411.515C422.766 411.093 422.449 410.761 422.042 410.518C421.64 410.276 421.171 410.155 420.635 410.155C420.064 410.155 419.561 410.294 419.129 410.573C418.696 410.846 418.358 411.206 418.116 411.654C417.879 412.097 417.758 412.584 417.753 413.115V414.761C417.753 415.451 417.879 416.044 418.132 416.538C418.384 417.028 418.737 417.404 419.19 417.666C419.644 417.924 420.174 418.053 420.782 418.053C421.189 418.053 421.557 417.996 421.887 417.883C422.217 417.764 422.503 417.592 422.745 417.365C422.987 417.138 423.17 416.858 423.294 416.523L425.905 416.816C425.741 417.507 425.426 418.109 424.963 418.625C424.504 419.135 423.917 419.531 423.201 419.815C422.485 420.093 421.666 420.232 420.744 420.232ZM438.302 408.131V420H435.613V408.131H438.302ZM437.043 413.494V415.781C436.739 415.915 436.393 416.036 436.007 416.144C435.626 416.247 435.221 416.329 434.794 416.391C434.371 416.453 433.949 416.484 433.527 416.484C431.94 416.484 430.685 416.129 429.763 415.418C428.846 414.702 428.388 413.586 428.388 412.072V408.115H431.062V412.072C431.062 412.582 431.152 412.991 431.332 413.3C431.512 413.609 431.785 413.836 432.151 413.98C432.517 414.119 432.975 414.189 433.527 414.189C434.145 414.189 434.732 414.127 435.288 414.004C435.845 413.88 436.43 413.71 437.043 413.494ZM446.371 420.232C445.181 420.232 444.154 419.985 443.288 419.49C442.428 418.99 441.766 418.285 441.302 417.373C440.839 416.456 440.607 415.376 440.607 414.135C440.607 412.914 440.839 411.842 441.302 410.92C441.771 409.993 442.425 409.272 443.265 408.757C444.105 408.236 445.091 407.976 446.225 407.976C446.956 407.976 447.646 408.095 448.296 408.332C448.95 408.563 449.527 408.924 450.027 409.413C450.531 409.903 450.928 410.526 451.217 411.283C451.505 412.036 451.649 412.932 451.649 413.973V414.83H441.92V412.945H448.968C448.963 412.409 448.847 411.933 448.62 411.515C448.393 411.093 448.077 410.761 447.67 410.518C447.268 410.276 446.799 410.155 446.263 410.155C445.691 410.155 445.189 410.294 444.756 410.573C444.324 410.846 443.986 411.206 443.744 411.654C443.507 412.097 443.386 412.584 443.381 413.115V414.761C443.381 415.451 443.507 416.044 443.76 416.538C444.012 417.028 444.365 417.404 444.818 417.666C445.272 417.924 445.802 418.053 446.41 418.053C446.817 418.053 447.185 417.996 447.515 417.883C447.845 417.764 448.131 417.592 448.373 417.365C448.615 417.138 448.798 416.858 448.921 416.523L451.533 416.816C451.368 417.507 451.054 418.109 450.591 418.625C450.132 419.135 449.545 419.531 448.829 419.815C448.113 420.093 447.294 420.232 446.371 420.232ZM462.168 412.906V415.201H455.847V412.906H462.168ZM456.713 408.131V420H454.016V408.131H456.713ZM464 408.131V420H461.31V408.131H464ZM469.527 416.214L474.279 408.131H477.154V420H474.449V411.909L469.712 420H466.83V408.131H469.527V416.214ZM485.281 420.232C484.091 420.232 483.063 419.985 482.198 419.49C481.337 418.99 480.675 418.285 480.212 417.373C479.748 416.456 479.516 415.376 479.516 414.135C479.516 412.914 479.748 411.842 480.212 410.92C480.68 409.993 481.335 409.272 482.174 408.757C483.014 408.236 484.001 407.976 485.134 407.976C485.866 407.976 486.556 408.095 487.205 408.332C487.859 408.563 488.436 408.924 488.936 409.413C489.441 409.903 489.837 410.526 490.126 411.283C490.414 412.036 490.559 412.932 490.559 413.973V414.83H480.83V412.945H487.877C487.872 412.409 487.756 411.933 487.529 411.515C487.303 411.093 486.986 410.761 486.579 410.518C486.177 410.276 485.708 410.155 485.173 410.155C484.601 410.155 484.099 410.294 483.666 410.573C483.233 410.846 482.896 411.206 482.654 411.654C482.417 412.097 482.295 412.584 482.29 413.115V414.761C482.29 415.451 482.417 416.044 482.669 416.538C482.921 417.028 483.274 417.404 483.728 417.666C484.181 417.924 484.712 418.053 485.319 418.053C485.726 418.053 486.095 417.996 486.424 417.883C486.754 417.764 487.04 417.592 487.282 417.365C487.524 417.138 487.707 416.858 487.831 416.523L490.443 416.816C490.278 417.507 489.964 418.109 489.5 418.625C489.041 419.135 488.454 419.531 487.738 419.815C487.022 420.093 486.203 420.232 485.281 420.232Z" fill="black"/>
<rect x="120" y="380" width="465" height="65" stroke="#58A982" stroke-width="2"/>
<rect x="100.5" y="100.5" width="504" height="364" stroke="#ABD4C1"/>
</svg>
