<svg width="1543" height="635" viewBox="0 0 1543 635" fill="none" xmlns="http://www.w3.org/2000/svg">
<rect width="1200" height="122" transform="translate(100 168.611)" fill="#ABD4C1"/>
<rect width="600" height="122" transform="translate(100 168.611)" fill="#ABD4C1"/>
<path d="M294.054 222.879H306.022V238.111H303.977V224.663H296.1V238.111H294.054V222.879ZM314.727 238.329C313.987 238.329 313.283 238.213 312.616 237.981C311.949 237.734 311.361 237.371 310.853 236.893C310.346 236.4 309.939 235.783 309.635 235.043C309.33 234.303 309.178 233.44 309.178 232.454V232.018C309.178 231.09 309.33 230.27 309.635 229.56C309.939 228.849 310.346 228.261 310.853 227.797C311.361 227.318 311.949 226.963 312.616 226.731C313.283 226.484 313.987 226.361 314.727 226.361C315.466 226.361 316.17 226.484 316.837 226.731C317.505 226.963 318.092 227.318 318.6 227.797C319.108 228.261 319.514 228.849 319.819 229.56C320.123 230.27 320.276 231.09 320.276 232.018V232.454C320.276 233.44 320.123 234.303 319.819 235.043C319.514 235.783 319.108 236.4 318.6 236.893C318.092 237.371 317.505 237.734 316.837 237.981C316.17 238.213 315.466 238.329 314.727 238.329ZM314.727 236.588C315.162 236.588 315.597 236.516 316.032 236.371C316.467 236.211 316.852 235.972 317.186 235.652C317.519 235.319 317.788 234.891 317.991 234.369C318.208 233.846 318.317 233.208 318.317 232.454V232.018C318.317 231.322 318.208 230.727 317.991 230.234C317.788 229.741 317.519 229.335 317.186 229.016C316.852 228.696 316.467 228.464 316.032 228.319C315.597 228.174 315.162 228.102 314.727 228.102C314.291 228.102 313.856 228.174 313.421 228.319C312.986 228.464 312.601 228.696 312.268 229.016C311.934 229.335 311.658 229.741 311.441 230.234C311.238 230.727 311.136 231.322 311.136 232.018V232.454C311.136 233.208 311.238 233.846 311.441 234.369C311.658 234.891 311.934 235.319 312.268 235.652C312.601 235.972 312.986 236.211 313.421 236.371C313.856 236.516 314.291 236.588 314.727 236.588ZM322.987 226.578H324.771V228.754C325.163 227.986 325.707 227.398 326.403 226.992C327.114 226.571 327.934 226.361 328.862 226.361C330.313 226.361 331.474 226.839 332.344 227.797C333.214 228.74 333.65 230.147 333.65 232.018V232.454C333.65 233.44 333.534 234.303 333.301 235.043C333.069 235.768 332.743 236.378 332.322 236.871C331.902 237.35 331.394 237.712 330.799 237.959C330.219 238.206 329.573 238.329 328.862 238.329C327.876 238.329 327.049 238.111 326.382 237.676C325.729 237.241 325.236 236.697 324.902 236.044V242.463H322.987V226.578ZM328.427 236.632C328.891 236.632 329.327 236.545 329.733 236.371C330.139 236.182 330.487 235.914 330.777 235.565C331.082 235.217 331.314 234.782 331.474 234.26C331.648 233.737 331.735 233.135 331.735 232.454V232.018C331.735 231.395 331.648 230.836 331.474 230.343C331.314 229.85 331.082 229.436 330.777 229.103C330.487 228.754 330.139 228.493 329.733 228.319C329.327 228.145 328.891 228.058 328.427 228.058C327.905 228.058 327.426 228.145 326.991 228.319C326.556 228.479 326.186 228.711 325.881 229.016C325.577 229.306 325.337 229.654 325.163 230.06C324.989 230.466 324.902 230.901 324.902 231.366V233.106C324.902 233.629 324.989 234.107 325.163 234.543C325.337 234.978 325.577 235.348 325.881 235.652C326.186 235.957 326.556 236.196 326.991 236.371C327.426 236.545 327.905 236.632 328.427 236.632ZM338.795 228.276H334.857V226.578H344.649V228.276H340.71V238.111H338.795V228.276ZM352.27 226.578H354.185V235.282L360.147 226.578H362.062V238.111H360.147V229.407L354.185 238.111H352.27V226.578ZM370.012 238.329C369.273 238.329 368.583 238.213 367.945 237.981C367.307 237.734 366.756 237.371 366.291 236.893C365.827 236.4 365.457 235.783 365.182 235.043C364.92 234.303 364.79 233.44 364.79 232.454V232.018C364.79 231.09 364.935 230.27 365.225 229.56C365.515 228.849 365.9 228.261 366.378 227.797C366.857 227.318 367.408 226.963 368.032 226.731C368.67 226.484 369.331 226.361 370.012 226.361C370.694 226.361 371.303 226.455 371.84 226.644C372.392 226.832 372.863 227.093 373.255 227.427C373.661 227.761 373.987 228.152 374.234 228.602C374.495 229.052 374.684 229.538 374.8 230.06H372.841C372.725 229.784 372.587 229.53 372.428 229.298C372.283 229.052 372.094 228.841 371.862 228.667C371.644 228.493 371.383 228.355 371.079 228.254C370.774 228.152 370.419 228.102 370.012 228.102C369.592 228.102 369.185 228.181 368.794 228.341C368.402 228.486 368.054 228.718 367.749 229.037C367.445 229.342 367.198 229.741 367.009 230.234C366.835 230.727 366.748 231.322 366.748 232.018V232.454C366.748 233.193 366.835 233.832 367.009 234.369C367.198 234.891 367.445 235.319 367.749 235.652C368.054 235.972 368.402 236.211 368.794 236.371C369.185 236.516 369.592 236.588 370.012 236.588C370.723 236.588 371.318 236.414 371.797 236.066C372.29 235.718 372.638 235.239 372.841 234.63H374.8C374.524 235.776 373.958 236.682 373.102 237.35C372.246 238.003 371.216 238.329 370.012 238.329ZM380.042 228.276H376.104V226.578H385.896V228.276H381.957V238.111H380.042V228.276ZM392.652 238.329C391.912 238.329 391.208 238.213 390.541 237.981C389.874 237.734 389.286 237.371 388.778 236.893C388.271 236.4 387.864 235.783 387.56 235.043C387.255 234.303 387.103 233.44 387.103 232.454V232.018C387.103 231.09 387.255 230.27 387.56 229.56C387.864 228.849 388.271 228.261 388.778 227.797C389.286 227.318 389.874 226.963 390.541 226.731C391.208 226.484 391.912 226.361 392.652 226.361C393.391 226.361 394.095 226.484 394.762 226.731C395.43 226.963 396.017 227.318 396.525 227.797C397.033 228.261 397.439 228.849 397.744 229.56C398.048 230.27 398.201 231.09 398.201 232.018V232.454C398.201 233.44 398.048 234.303 397.744 235.043C397.439 235.783 397.033 236.4 396.525 236.893C396.017 237.371 395.43 237.734 394.762 237.981C394.095 238.213 393.391 238.329 392.652 238.329ZM392.652 236.588C393.087 236.588 393.522 236.516 393.957 236.371C394.392 236.211 394.777 235.972 395.111 235.652C395.444 235.319 395.713 234.891 395.916 234.369C396.133 233.846 396.242 233.208 396.242 232.454V232.018C396.242 231.322 396.133 230.727 395.916 230.234C395.713 229.741 395.444 229.335 395.111 229.016C394.777 228.696 394.392 228.464 393.957 228.319C393.522 228.174 393.087 228.102 392.652 228.102C392.216 228.102 391.781 228.174 391.346 228.319C390.911 228.464 390.526 228.696 390.193 229.016C389.859 229.335 389.583 229.741 389.366 230.234C389.163 230.727 389.061 231.322 389.061 232.018V232.454C389.061 233.208 389.163 233.846 389.366 234.369C389.583 234.891 389.859 235.319 390.193 235.652C390.526 235.972 390.911 236.211 391.346 236.371C391.781 236.516 392.216 236.588 392.652 236.588ZM407.592 233.52C407.259 233.723 406.853 233.904 406.374 234.064C405.91 234.223 405.322 234.303 404.611 234.303C403.944 234.303 403.342 234.231 402.805 234.086C402.283 233.941 401.841 233.708 401.478 233.389C401.115 233.07 400.84 232.657 400.651 232.149C400.462 231.641 400.368 231.017 400.368 230.278V226.578H402.283V229.951C402.283 230.444 402.326 230.858 402.414 231.192C402.515 231.525 402.675 231.794 402.892 231.997C403.11 232.2 403.385 232.345 403.719 232.432C404.053 232.519 404.459 232.562 404.938 232.562C405.591 232.562 406.149 232.497 406.613 232.367C407.078 232.236 407.404 232.098 407.592 231.953V226.578H409.507V238.111H407.592V233.52ZM412.982 226.578H414.897V231.387H420.86V226.578H422.774V238.111H420.86V233.085H414.897V238.111H412.982V226.578ZM426.264 226.578H428.179V235.282L434.141 226.578H436.056V238.111H434.141V229.407L428.179 238.111H426.264V226.578ZM439.545 226.578H441.46V231.409H442.983L447.292 226.578H449.555L444.55 232.105L449.773 238.111H447.335L442.983 233.063H441.46V238.111H439.545V226.578ZM455.135 238.329C454.497 238.329 453.931 238.242 453.438 238.068C452.959 237.879 452.553 237.625 452.219 237.306C451.885 236.987 451.632 236.61 451.457 236.175C451.283 235.739 451.196 235.261 451.196 234.738C451.196 233.592 451.53 232.766 452.197 232.258C452.879 231.75 453.851 231.496 455.113 231.496H458.856V230.713C458.856 229.726 458.631 229.045 458.181 228.667C457.746 228.29 457.086 228.102 456.201 228.102C455.374 228.102 454.772 228.261 454.395 228.58C454.018 228.885 453.808 229.233 453.764 229.625H451.849C451.878 229.161 452.001 228.733 452.219 228.341C452.451 227.935 452.756 227.587 453.133 227.296C453.525 227.006 453.989 226.781 454.526 226.622C455.062 226.448 455.657 226.361 456.31 226.361C457.674 226.361 458.754 226.687 459.552 227.34C460.365 227.978 460.771 229.03 460.771 230.495V235.174C460.771 235.783 460.771 236.32 460.771 236.784C460.785 237.234 460.822 237.676 460.88 238.111H459.204C459.161 237.778 459.132 237.466 459.117 237.176C459.103 236.871 459.095 236.53 459.095 236.153C458.791 236.762 458.297 237.277 457.616 237.698C456.934 238.119 456.107 238.329 455.135 238.329ZM455.548 236.588C455.998 236.588 456.419 236.53 456.81 236.414C457.217 236.283 457.572 236.102 457.877 235.87C458.181 235.623 458.421 235.326 458.595 234.978C458.769 234.63 458.856 234.223 458.856 233.759V232.976H455.44C454.729 232.976 454.17 233.121 453.764 233.411C453.358 233.687 453.155 234.129 453.155 234.738C453.155 235.275 453.343 235.718 453.721 236.066C454.112 236.414 454.722 236.588 455.548 236.588ZM469.811 232.454C469.811 231.032 470.007 229.741 470.398 228.58C470.804 227.42 471.254 226.412 471.747 225.556C472.313 224.569 472.959 223.677 473.684 222.879H475.904C475.12 223.677 474.431 224.569 473.836 225.556C473.575 225.976 473.321 226.441 473.075 226.948C472.828 227.456 472.603 228 472.4 228.58C472.212 229.161 472.059 229.777 471.943 230.43C471.827 231.068 471.769 231.743 471.769 232.454V232.889C471.769 233.6 471.827 234.282 471.943 234.934C472.059 235.587 472.212 236.204 472.4 236.784C472.603 237.364 472.828 237.908 473.075 238.416C473.321 238.924 473.575 239.388 473.836 239.809C474.431 240.81 475.12 241.695 475.904 242.463H473.597C472.886 241.695 472.255 240.81 471.704 239.809C471.225 238.967 470.79 237.959 470.398 236.784C470.007 235.609 469.811 234.311 469.811 232.889V232.454ZM477.316 236.327H480.95V225.12L477.316 227.71V225.49L480.993 222.879H483.039V236.327H486.02V238.111H477.316V236.327ZM493.535 238.329C492.693 238.329 491.932 238.191 491.25 237.915C490.568 237.64 489.98 237.219 489.487 236.653C489.009 236.073 488.639 235.348 488.377 234.477C488.116 233.607 487.986 232.57 487.986 231.366V230.93C487.986 229.436 488.138 228.167 488.443 227.122C488.747 226.063 489.161 225.207 489.683 224.555C490.205 223.887 490.815 223.409 491.511 223.118C492.207 222.814 492.954 222.661 493.752 222.661C494.927 222.661 495.914 222.944 496.712 223.51C497.524 224.061 498.061 224.903 498.322 226.034H496.276C495.87 225.004 495.029 224.489 493.752 224.489C493.201 224.489 492.693 224.584 492.229 224.772C491.765 224.961 491.359 225.273 491.01 225.708C490.677 226.143 490.408 226.723 490.205 227.449C490.002 228.174 489.886 229.081 489.857 230.169C490.06 229.821 490.307 229.523 490.597 229.277C490.887 229.016 491.199 228.812 491.533 228.667C491.881 228.508 492.236 228.392 492.599 228.319C492.962 228.247 493.31 228.21 493.643 228.21C495.167 228.21 496.378 228.638 497.277 229.494C498.191 230.336 498.648 231.547 498.648 233.128V233.346C498.648 234.071 498.511 234.738 498.235 235.348C497.974 235.957 497.611 236.487 497.147 236.936C496.683 237.371 496.139 237.712 495.515 237.959C494.891 238.206 494.231 238.329 493.535 238.329ZM493.361 236.501C494.42 236.501 495.225 236.233 495.776 235.696C496.327 235.159 496.603 234.383 496.603 233.368V233.15C496.603 232.149 496.327 231.38 495.776 230.843C495.225 230.307 494.42 230.038 493.361 230.038C492.302 230.038 491.496 230.307 490.945 230.843C490.394 231.38 490.118 232.149 490.118 233.15V233.368C490.118 234.369 490.394 235.145 490.945 235.696C491.496 236.233 492.302 236.501 493.361 236.501ZM506.144 232.889C506.144 234.311 505.941 235.602 505.535 236.762C505.143 237.923 504.701 238.931 504.207 239.787C503.642 240.773 502.996 241.666 502.271 242.463H500.051C500.835 241.666 501.524 240.773 502.118 239.787C502.38 239.366 502.633 238.902 502.88 238.394C503.127 237.886 503.344 237.342 503.533 236.762C503.736 236.182 503.896 235.573 504.012 234.934C504.128 234.282 504.186 233.6 504.186 232.889V232.454C504.186 231.743 504.128 231.061 504.012 230.408C503.896 229.755 503.736 229.139 503.533 228.559C503.344 227.978 503.127 227.434 502.88 226.927C502.633 226.419 502.38 225.955 502.118 225.534C501.524 224.533 500.835 223.648 500.051 222.879H502.358C503.069 223.648 503.7 224.533 504.251 225.534C504.73 226.375 505.165 227.383 505.557 228.559C505.948 229.734 506.144 231.032 506.144 232.454V232.889Z" fill="black"/>
<rect x="100" y="168.611" width="600" height="122" stroke="black"/>
<rect width="600" height="122" transform="translate(700 168.611)" fill="#ABD4C1"/>
<path d="M886.861 222.879H898.829V238.111H896.784V224.663H888.907V238.111H886.861V222.879ZM907.533 238.329C906.794 238.329 906.09 238.213 905.423 237.981C904.755 237.734 904.168 237.371 903.66 236.893C903.152 236.4 902.746 235.783 902.441 235.043C902.137 234.303 901.984 233.44 901.984 232.454V232.018C901.984 231.09 902.137 230.27 902.441 229.56C902.746 228.849 903.152 228.261 903.66 227.797C904.168 227.318 904.755 226.963 905.423 226.731C906.09 226.484 906.794 226.361 907.533 226.361C908.273 226.361 908.977 226.484 909.644 226.731C910.311 226.963 910.899 227.318 911.407 227.797C911.914 228.261 912.321 228.849 912.625 229.56C912.93 230.27 913.082 231.09 913.082 232.018V232.454C913.082 233.44 912.93 234.303 912.625 235.043C912.321 235.783 911.914 236.4 911.407 236.893C910.899 237.371 910.311 237.734 909.644 237.981C908.977 238.213 908.273 238.329 907.533 238.329ZM907.533 236.588C907.969 236.588 908.404 236.516 908.839 236.371C909.274 236.211 909.659 235.972 909.992 235.652C910.326 235.319 910.594 234.891 910.797 234.369C911.015 233.846 911.124 233.208 911.124 232.454V232.018C911.124 231.322 911.015 230.727 910.797 230.234C910.594 229.741 910.326 229.335 909.992 229.016C909.659 228.696 909.274 228.464 908.839 228.319C908.404 228.174 907.969 228.102 907.533 228.102C907.098 228.102 906.663 228.174 906.228 228.319C905.793 228.464 905.408 228.696 905.074 229.016C904.741 229.335 904.465 229.741 904.248 230.234C904.044 230.727 903.943 231.322 903.943 232.018V232.454C903.943 233.208 904.044 233.846 904.248 234.369C904.465 234.891 904.741 235.319 905.074 235.652C905.408 235.972 905.793 236.211 906.228 236.371C906.663 236.516 907.098 236.588 907.533 236.588ZM915.794 226.578H917.578V228.754C917.97 227.986 918.514 227.398 919.21 226.992C919.921 226.571 920.741 226.361 921.669 226.361C923.12 226.361 924.28 226.839 925.151 227.797C926.021 228.74 926.456 230.147 926.456 232.018V232.454C926.456 233.44 926.34 234.303 926.108 235.043C925.876 235.768 925.55 236.378 925.129 236.871C924.708 237.35 924.201 237.712 923.606 237.959C923.026 238.206 922.38 238.329 921.669 238.329C920.683 238.329 919.856 238.111 919.188 237.676C918.536 237.241 918.042 236.697 917.709 236.044V242.463H915.794V226.578ZM921.234 236.632C921.698 236.632 922.133 236.545 922.54 236.371C922.946 236.182 923.294 235.914 923.584 235.565C923.889 235.217 924.121 234.782 924.28 234.26C924.454 233.737 924.541 233.135 924.541 232.454V232.018C924.541 231.395 924.454 230.836 924.28 230.343C924.121 229.85 923.889 229.436 923.584 229.103C923.294 228.754 922.946 228.493 922.54 228.319C922.133 228.145 921.698 228.058 921.234 228.058C920.712 228.058 920.233 228.145 919.798 228.319C919.363 228.479 918.993 228.711 918.688 229.016C918.383 229.306 918.144 229.654 917.97 230.06C917.796 230.466 917.709 230.901 917.709 231.366V233.106C917.709 233.629 917.796 234.107 917.97 234.543C918.144 234.978 918.383 235.348 918.688 235.652C918.993 235.957 919.363 236.196 919.798 236.371C920.233 236.545 920.712 236.632 921.234 236.632ZM931.602 228.276H927.663V226.578H937.456V228.276H933.517V238.111H931.602V228.276ZM945.077 226.578H946.992V231.387H952.954V226.578H954.869V238.111H952.954V233.085H946.992V238.111H945.077V226.578ZM961.644 238.329C961.006 238.329 960.44 238.242 959.947 238.068C959.468 237.879 959.062 237.625 958.728 237.306C958.395 236.987 958.141 236.61 957.967 236.175C957.792 235.739 957.705 235.261 957.705 234.738C957.705 233.592 958.039 232.766 958.706 232.258C959.388 231.75 960.36 231.496 961.622 231.496H965.365V230.713C965.365 229.726 965.14 229.045 964.691 228.667C964.255 228.29 963.595 228.102 962.71 228.102C961.883 228.102 961.281 228.261 960.904 228.58C960.527 228.885 960.317 229.233 960.273 229.625H958.358C958.387 229.161 958.511 228.733 958.728 228.341C958.96 227.935 959.265 227.587 959.642 227.296C960.034 227.006 960.498 226.781 961.035 226.622C961.572 226.448 962.166 226.361 962.819 226.361C964.183 226.361 965.264 226.687 966.061 227.34C966.874 227.978 967.28 229.03 967.28 230.495V235.174C967.28 235.783 967.28 236.32 967.28 236.784C967.295 237.234 967.331 237.676 967.389 238.111H965.713C965.67 237.778 965.641 237.466 965.626 237.176C965.612 236.871 965.604 236.53 965.604 236.153C965.3 236.762 964.807 237.277 964.125 237.698C963.443 238.119 962.616 238.329 961.644 238.329ZM962.058 236.588C962.507 236.588 962.928 236.53 963.32 236.414C963.726 236.283 964.081 236.102 964.386 235.87C964.691 235.623 964.93 235.326 965.104 234.978C965.278 234.63 965.365 234.223 965.365 233.759V232.976H961.949C961.238 232.976 960.679 233.121 960.273 233.411C959.867 233.687 959.664 234.129 959.664 234.738C959.664 235.275 959.852 235.718 960.23 236.066C960.621 236.414 961.231 236.588 962.058 236.588ZM974.579 238.329C973.128 238.329 971.99 238.024 971.163 237.415C970.336 236.806 969.879 235.95 969.792 234.847H971.707C971.808 235.413 972.106 235.848 972.599 236.153C973.107 236.443 973.767 236.588 974.579 236.588C975.58 236.588 976.305 236.421 976.755 236.088C977.219 235.739 977.451 235.326 977.451 234.847C977.451 234.282 977.263 233.839 976.886 233.52C976.508 233.186 975.856 233.019 974.927 233.019H972.947V231.453H974.797C975.595 231.453 976.16 231.3 976.494 230.996C976.842 230.691 977.016 230.263 977.016 229.712C977.016 229.277 976.813 228.899 976.407 228.58C976.001 228.261 975.391 228.102 974.579 228.102C973.694 228.102 973.049 228.247 972.642 228.537C972.251 228.812 972.011 229.211 971.924 229.734H970.009C970.053 229.255 970.183 228.812 970.401 228.406C970.633 227.986 970.945 227.623 971.337 227.318C971.728 227.014 972.193 226.781 972.729 226.622C973.281 226.448 973.897 226.361 974.579 226.361C975.319 226.361 975.957 226.448 976.494 226.622C977.045 226.781 977.502 227.014 977.865 227.318C978.228 227.608 978.496 227.956 978.67 228.363C978.844 228.769 978.931 229.219 978.931 229.712C978.931 230.263 978.793 230.749 978.518 231.17C978.242 231.576 977.8 231.895 977.19 232.127C978.003 232.345 978.568 232.693 978.888 233.172C979.207 233.65 979.366 234.209 979.366 234.847C979.366 235.326 979.265 235.776 979.062 236.196C978.859 236.617 978.554 236.987 978.148 237.306C977.756 237.611 977.256 237.857 976.646 238.046C976.052 238.235 975.362 238.329 974.579 238.329ZM982.095 226.578H984.01V231.387H989.972V226.578H991.887V238.111H989.972V233.085H984.01V238.111H982.095V226.578ZM998.662 238.329C998.024 238.329 997.458 238.242 996.965 238.068C996.486 237.879 996.08 237.625 995.746 237.306C995.413 236.987 995.159 236.61 994.985 236.175C994.811 235.739 994.724 235.261 994.724 234.738C994.724 233.592 995.057 232.766 995.725 232.258C996.406 231.75 997.378 231.496 998.64 231.496H1002.38V230.713C1002.38 229.726 1002.16 229.045 1001.71 228.667C1001.27 228.29 1000.61 228.102 999.728 228.102C998.902 228.102 998.299 228.261 997.922 228.58C997.545 228.885 997.335 229.233 997.291 229.625H995.376C995.405 229.161 995.529 228.733 995.746 228.341C995.978 227.935 996.283 227.587 996.66 227.296C997.052 227.006 997.516 226.781 998.053 226.622C998.59 226.448 999.184 226.361 999.837 226.361C1001.2 226.361 1002.28 226.687 1003.08 227.34C1003.89 227.978 1004.3 229.03 1004.3 230.495V235.174C1004.3 235.783 1004.3 236.32 1004.3 236.784C1004.31 237.234 1004.35 237.676 1004.41 238.111H1002.73C1002.69 237.778 1002.66 237.466 1002.64 237.176C1002.63 236.871 1002.62 236.53 1002.62 236.153C1002.32 236.762 1001.82 237.277 1001.14 237.698C1000.46 238.119 999.634 238.329 998.662 238.329ZM999.076 236.588C999.525 236.588 999.946 236.53 1000.34 236.414C1000.74 236.283 1001.1 236.102 1001.4 235.87C1001.71 235.623 1001.95 235.326 1002.12 234.978C1002.3 234.63 1002.38 234.223 1002.38 233.759V232.976H998.967C998.256 232.976 997.697 233.121 997.291 233.411C996.885 233.687 996.682 234.129 996.682 234.738C996.682 235.275 996.871 235.718 997.248 236.066C997.639 236.414 998.249 236.588 999.076 236.588ZM1014.36 233.52C1014.03 233.723 1013.62 233.904 1013.14 234.064C1012.68 234.223 1012.09 234.303 1011.38 234.303C1010.71 234.303 1010.11 234.231 1009.57 234.086C1009.05 233.941 1008.61 233.708 1008.25 233.389C1007.88 233.07 1007.61 232.657 1007.42 232.149C1007.23 231.641 1007.14 231.017 1007.14 230.278V226.578H1009.05V229.951C1009.05 230.444 1009.09 230.858 1009.18 231.192C1009.28 231.525 1009.44 231.794 1009.66 231.997C1009.88 232.2 1010.15 232.345 1010.49 232.432C1010.82 232.519 1011.23 232.562 1011.71 232.562C1012.36 232.562 1012.92 232.497 1013.38 232.367C1013.85 232.236 1014.17 232.098 1014.36 231.953V226.578H1016.28V238.111H1014.36V233.52ZM1024.54 238.329C1023.8 238.329 1023.09 238.213 1022.43 237.981C1021.76 237.749 1021.17 237.393 1020.66 236.915C1020.16 236.421 1019.75 235.805 1019.45 235.065C1019.14 234.325 1018.99 233.455 1018.99 232.454V232.018C1018.99 231.061 1019.13 230.234 1019.42 229.538C1019.71 228.827 1020.1 228.239 1020.58 227.775C1021.07 227.296 1021.64 226.941 1022.27 226.709C1022.93 226.477 1023.61 226.361 1024.32 226.361C1026.02 226.361 1027.33 226.825 1028.26 227.753C1029.19 228.682 1029.65 229.995 1029.65 231.692V232.911H1020.9C1020.9 233.592 1021.01 234.165 1021.23 234.63C1021.45 235.094 1021.73 235.471 1022.08 235.761C1022.43 236.051 1022.81 236.262 1023.23 236.392C1023.67 236.523 1024.1 236.588 1024.54 236.588C1025.41 236.588 1026.08 236.443 1026.54 236.153C1027.02 235.863 1027.36 235.464 1027.56 234.956H1029.43C1029.32 235.507 1029.11 235.993 1028.8 236.414C1028.51 236.835 1028.15 237.19 1027.71 237.48C1027.29 237.756 1026.81 237.966 1026.26 238.111C1025.72 238.256 1025.15 238.329 1024.54 238.329ZM1024.43 228.102C1023.98 228.102 1023.54 228.167 1023.12 228.297C1022.7 228.413 1022.33 228.609 1021.99 228.885C1021.67 229.146 1021.41 229.48 1021.21 229.886C1021.01 230.292 1020.9 230.778 1020.9 231.344H1027.85C1027.83 230.749 1027.73 230.249 1027.54 229.842C1027.37 229.422 1027.13 229.088 1026.82 228.841C1026.52 228.58 1026.16 228.392 1025.73 228.276C1025.33 228.16 1024.89 228.102 1024.43 228.102ZM1032.37 226.578H1034.29V231.387H1040.25V226.578H1042.17V238.111H1040.25V233.085H1034.29V238.111H1032.37V226.578ZM1045.65 226.578H1047.57V235.282L1053.53 226.578H1055.45V238.111H1053.53V229.407L1047.57 238.111H1045.65V226.578ZM1061.2 233.542C1060.24 233.324 1059.55 232.932 1059.13 232.367C1058.71 231.786 1058.5 231.046 1058.5 230.147C1058.5 229.016 1058.84 228.138 1059.52 227.514C1060.22 226.89 1061.33 226.578 1062.85 226.578H1067.86V238.111H1065.94V233.716H1063.01L1060.2 238.111H1058.07L1061.2 233.542ZM1060.42 230.147C1060.42 230.756 1060.59 231.221 1060.94 231.54C1061.3 231.859 1061.9 232.018 1062.74 232.018H1065.94V228.276H1062.74C1061.9 228.276 1061.3 228.435 1060.94 228.754C1060.59 229.074 1060.42 229.538 1060.42 230.147ZM1077 232.454C1077 231.032 1077.2 229.741 1077.59 228.58C1078 227.42 1078.45 226.412 1078.94 225.556C1079.51 224.569 1080.15 223.677 1080.88 222.879H1083.1C1082.31 223.677 1081.62 224.569 1081.03 225.556C1080.77 225.976 1080.51 226.441 1080.27 226.948C1080.02 227.456 1079.8 228 1079.59 228.58C1079.4 229.161 1079.25 229.777 1079.14 230.43C1079.02 231.068 1078.96 231.743 1078.96 232.454V232.889C1078.96 233.6 1079.02 234.282 1079.14 234.934C1079.25 235.587 1079.4 236.204 1079.59 236.784C1079.8 237.364 1080.02 237.908 1080.27 238.416C1080.51 238.924 1080.77 239.388 1081.03 239.809C1081.62 240.81 1082.31 241.695 1083.1 242.463H1080.79C1080.08 241.695 1079.45 240.81 1078.9 239.809C1078.42 238.967 1077.98 237.959 1077.59 236.784C1077.2 235.609 1077 234.311 1077 232.889V232.454ZM1084.51 236.327H1088.14V225.12L1084.51 227.71V225.49L1088.19 222.879H1090.23V236.327H1093.21V238.111H1084.51V236.327ZM1100.73 238.329C1099.89 238.329 1099.12 238.191 1098.44 237.915C1097.76 237.64 1097.17 237.219 1096.68 236.653C1096.2 236.073 1095.83 235.348 1095.57 234.477C1095.31 233.607 1095.18 232.57 1095.18 231.366V230.93C1095.18 229.436 1095.33 228.167 1095.64 227.122C1095.94 226.063 1096.35 225.207 1096.88 224.555C1097.4 223.887 1098.01 223.409 1098.7 223.118C1099.4 222.814 1100.15 222.661 1100.95 222.661C1102.12 222.661 1103.11 222.944 1103.9 223.51C1104.72 224.061 1105.25 224.903 1105.52 226.034H1103.47C1103.06 225.004 1102.22 224.489 1100.95 224.489C1100.39 224.489 1099.89 224.584 1099.42 224.772C1098.96 224.961 1098.55 225.273 1098.2 225.708C1097.87 226.143 1097.6 226.723 1097.4 227.449C1097.2 228.174 1097.08 229.081 1097.05 230.169C1097.25 229.821 1097.5 229.523 1097.79 229.277C1098.08 229.016 1098.39 228.812 1098.73 228.667C1099.07 228.508 1099.43 228.392 1099.79 228.319C1100.15 228.247 1100.5 228.21 1100.84 228.21C1102.36 228.21 1103.57 228.638 1104.47 229.494C1105.38 230.336 1105.84 231.547 1105.84 233.128V233.346C1105.84 234.071 1105.7 234.738 1105.43 235.348C1105.17 235.957 1104.8 236.487 1104.34 236.936C1103.88 237.371 1103.33 237.712 1102.71 237.959C1102.08 238.206 1101.42 238.329 1100.73 238.329ZM1100.55 236.501C1101.61 236.501 1102.42 236.233 1102.97 235.696C1103.52 235.159 1103.8 234.383 1103.8 233.368V233.15C1103.8 232.149 1103.52 231.38 1102.97 230.843C1102.42 230.307 1101.61 230.038 1100.55 230.038C1099.49 230.038 1098.69 230.307 1098.14 230.843C1097.59 231.38 1097.31 232.149 1097.31 233.15V233.368C1097.31 234.369 1097.59 235.145 1098.14 235.696C1098.69 236.233 1099.49 236.501 1100.55 236.501ZM1113.34 232.889C1113.34 234.311 1113.13 235.602 1112.73 236.762C1112.34 237.923 1111.89 238.931 1111.4 239.787C1110.83 240.773 1110.19 241.666 1109.46 242.463H1107.24C1108.03 241.666 1108.72 240.773 1109.31 239.787C1109.57 239.366 1109.83 238.902 1110.07 238.394C1110.32 237.886 1110.54 237.342 1110.73 236.762C1110.93 236.182 1111.09 235.573 1111.2 234.934C1111.32 234.282 1111.38 233.6 1111.38 232.889V232.454C1111.38 231.743 1111.32 231.061 1111.2 230.408C1111.09 229.755 1110.93 229.139 1110.73 228.559C1110.54 227.978 1110.32 227.434 1110.07 226.927C1109.83 226.419 1109.57 225.955 1109.31 225.534C1108.72 224.533 1108.03 223.648 1107.24 222.879H1109.55C1110.26 223.648 1110.89 224.533 1111.44 225.534C1111.92 226.375 1112.36 227.383 1112.75 228.559C1113.14 229.734 1113.34 231.032 1113.34 232.454V232.889Z" fill="black"/>
<rect x="700" y="168.611" width="600" height="122" stroke="black"/>
<rect width="1200" height="122" transform="translate(100 290.611)" fill="#ABD4C1"/>
<rect width="600" height="122" transform="translate(100 290.611)" fill="#ABD4C1"/>
<path d="M343.399 358.327H345.031C345.307 357.776 345.539 357.094 345.728 356.282C345.916 355.469 346.061 354.599 346.163 353.67C346.264 352.727 346.337 351.763 346.38 350.776C346.424 349.775 346.446 348.825 346.446 347.926V344.879H356.347V358.327H358.196V362.94H356.238V360.111H345.358V362.94H343.399V358.327ZM354.301 358.327V346.663H348.448V348.361C348.448 350.566 348.346 352.473 348.143 354.084C347.954 355.694 347.643 357.108 347.207 358.327H354.301ZM360.927 360.329C360.71 360.329 360.492 360.307 360.275 360.264V358.349C360.347 358.363 360.456 358.371 360.601 358.371C360.92 358.371 361.196 358.269 361.428 358.066C361.675 357.863 361.87 357.507 362.015 357C362.161 356.492 362.269 355.803 362.342 354.932C362.414 354.062 362.451 352.959 362.451 351.625V348.578H370.72V360.111H368.805V350.276H364.366V352.06C364.366 353.67 364.293 355.005 364.148 356.064C364.003 357.123 363.785 357.972 363.495 358.61C363.22 359.234 362.864 359.676 362.429 359.937C361.994 360.198 361.493 360.329 360.927 360.329ZM374.2 348.578H376.115V357.282L382.078 348.578H383.993V360.111H382.078V351.407L376.115 360.111H374.2V348.578ZM387.482 348.578H389.397V353.387H395.359V348.578H397.274V360.111H395.359V355.085H389.397V360.111H387.482V348.578ZM404.049 360.329C403.411 360.329 402.845 360.242 402.352 360.068C401.873 359.879 401.467 359.625 401.133 359.306C400.8 358.987 400.546 358.61 400.372 358.175C400.198 357.739 400.111 357.261 400.111 356.738C400.111 355.592 400.444 354.766 401.111 354.258C401.793 353.75 402.765 353.496 404.027 353.496H407.77V352.713C407.77 351.726 407.545 351.045 407.096 350.667C406.66 350.29 406 350.102 405.115 350.102C404.288 350.102 403.686 350.261 403.309 350.58C402.932 350.885 402.722 351.233 402.678 351.625H400.763C400.792 351.161 400.916 350.733 401.133 350.341C401.365 349.935 401.67 349.587 402.047 349.296C402.439 349.006 402.903 348.781 403.44 348.622C403.977 348.448 404.571 348.361 405.224 348.361C406.588 348.361 407.669 348.687 408.466 349.34C409.279 349.978 409.685 351.03 409.685 352.495V357.174C409.685 357.783 409.685 358.32 409.685 358.784C409.7 359.234 409.736 359.676 409.794 360.111H408.118C408.075 359.778 408.046 359.466 408.031 359.176C408.017 358.871 408.01 358.53 408.01 358.153C407.705 358.762 407.212 359.277 406.53 359.698C405.848 360.119 405.021 360.329 404.049 360.329ZM404.463 358.588C404.912 358.588 405.333 358.53 405.725 358.414C406.131 358.283 406.486 358.102 406.791 357.87C407.096 357.623 407.335 357.326 407.509 356.978C407.683 356.63 407.77 356.223 407.77 355.759V354.976H404.354C403.643 354.976 403.084 355.121 402.678 355.411C402.272 355.687 402.069 356.129 402.069 356.738C402.069 357.275 402.258 357.718 402.635 358.066C403.026 358.414 403.636 358.588 404.463 358.588ZM418.725 354.454C418.725 353.032 418.921 351.741 419.312 350.58C419.719 349.42 420.168 348.412 420.662 347.556C421.227 346.569 421.873 345.677 422.598 344.879H424.818C424.034 345.677 423.345 346.569 422.751 347.556C422.489 347.976 422.236 348.441 421.989 348.948C421.742 349.456 421.518 350 421.314 350.58C421.126 351.161 420.974 351.777 420.857 352.43C420.741 353.068 420.683 353.743 420.683 354.454V354.889C420.683 355.6 420.741 356.282 420.857 356.934C420.974 357.587 421.126 358.204 421.314 358.784C421.518 359.364 421.742 359.908 421.989 360.416C422.236 360.924 422.489 361.388 422.751 361.809C423.345 362.81 424.034 363.695 424.818 364.463H422.511C421.8 363.695 421.169 362.81 420.618 361.809C420.139 360.967 419.704 359.959 419.312 358.784C418.921 357.609 418.725 356.311 418.725 354.889V354.454ZM426.23 358.327H429.864V347.12L426.23 349.71V347.49L429.907 344.879H431.953V358.327H434.934V360.111H426.23V358.327ZM442.449 360.329C441.607 360.329 440.846 360.191 440.164 359.915C439.482 359.64 438.895 359.219 438.401 358.653C437.923 358.073 437.553 357.348 437.292 356.477C437.03 355.607 436.9 354.57 436.9 353.366V352.93C436.9 351.436 437.052 350.167 437.357 349.122C437.662 348.063 438.075 347.207 438.597 346.555C439.119 345.887 439.729 345.409 440.425 345.118C441.121 344.814 441.869 344.661 442.666 344.661C443.841 344.661 444.828 344.944 445.626 345.51C446.438 346.061 446.975 346.903 447.236 348.034H445.191C444.784 347.004 443.943 346.489 442.666 346.489C442.115 346.489 441.607 346.584 441.143 346.772C440.679 346.961 440.273 347.273 439.925 347.708C439.591 348.143 439.323 348.723 439.119 349.449C438.916 350.174 438.8 351.081 438.771 352.169C438.974 351.821 439.221 351.523 439.511 351.277C439.801 351.016 440.113 350.812 440.447 350.667C440.795 350.508 441.15 350.392 441.513 350.319C441.876 350.247 442.224 350.21 442.558 350.21C444.081 350.21 445.292 350.638 446.192 351.494C447.106 352.336 447.563 353.547 447.563 355.128V355.346C447.563 356.071 447.425 356.738 447.149 357.348C446.888 357.957 446.525 358.487 446.061 358.936C445.597 359.371 445.053 359.712 444.429 359.959C443.805 360.206 443.145 360.329 442.449 360.329ZM442.275 358.501C443.334 358.501 444.139 358.233 444.69 357.696C445.241 357.159 445.517 356.383 445.517 355.368V355.15C445.517 354.149 445.241 353.38 444.69 352.843C444.139 352.307 443.334 352.038 442.275 352.038C441.216 352.038 440.411 352.307 439.859 352.843C439.308 353.38 439.032 354.149 439.032 355.15V355.368C439.032 356.369 439.308 357.145 439.859 357.696C440.411 358.233 441.216 358.501 442.275 358.501ZM455.08 354.889C455.08 356.311 454.877 357.602 454.471 358.762C454.079 359.923 453.637 360.931 453.143 361.787C452.578 362.773 451.932 363.666 451.207 364.463H448.987C449.771 363.666 450.46 362.773 451.054 361.787C451.315 361.366 451.569 360.902 451.816 360.394C452.063 359.886 452.28 359.342 452.469 358.762C452.672 358.182 452.831 357.573 452.948 356.934C453.064 356.282 453.122 355.6 453.122 354.889V354.454C453.122 353.743 453.064 353.061 452.948 352.408C452.831 351.755 452.672 351.139 452.469 350.559C452.28 349.978 452.063 349.434 451.816 348.927C451.569 348.419 451.315 347.955 451.054 347.534C450.46 346.533 449.771 345.648 448.987 344.879H451.294C452.005 345.648 452.636 346.533 453.187 347.534C453.666 348.375 454.101 349.383 454.493 350.559C454.884 351.734 455.08 353.032 455.08 354.454V354.889Z" fill="black"/>
<rect x="100" y="290.611" width="600" height="122" stroke="black"/>
<rect width="600" height="122" transform="translate(700 290.611)" fill="#ABD4C1"/>
<path d="M872.889 344.879H874.934V351.429H876.675L882.638 344.879H885.075L878.416 352.147L885.292 360.111H882.681L876.675 353.126H874.934V360.111H872.889V344.879ZM892.053 360.329C891.313 360.329 890.609 360.213 889.942 359.981C889.274 359.734 888.687 359.371 888.179 358.893C887.671 358.4 887.265 357.783 886.961 357.043C886.656 356.303 886.504 355.44 886.504 354.454V354.018C886.504 353.09 886.656 352.27 886.961 351.56C887.265 350.849 887.671 350.261 888.179 349.797C888.687 349.318 889.274 348.963 889.942 348.731C890.609 348.484 891.313 348.361 892.053 348.361C892.792 348.361 893.496 348.484 894.163 348.731C894.831 348.963 895.418 349.318 895.926 349.797C896.434 350.261 896.84 350.849 897.144 351.56C897.449 352.27 897.601 353.09 897.601 354.018V354.454C897.601 355.44 897.449 356.303 897.144 357.043C896.84 357.783 896.434 358.4 895.926 358.893C895.418 359.371 894.831 359.734 894.163 359.981C893.496 360.213 892.792 360.329 892.053 360.329ZM892.053 358.588C892.488 358.588 892.923 358.516 893.358 358.371C893.793 358.211 894.178 357.972 894.511 357.652C894.845 357.319 895.113 356.891 895.317 356.369C895.534 355.846 895.643 355.208 895.643 354.454V354.018C895.643 353.322 895.534 352.727 895.317 352.234C895.113 351.741 894.845 351.335 894.511 351.016C894.178 350.696 893.793 350.464 893.358 350.319C892.923 350.174 892.488 350.102 892.053 350.102C891.617 350.102 891.182 350.174 890.747 350.319C890.312 350.464 889.927 350.696 889.594 351.016C889.26 351.335 888.984 351.741 888.767 352.234C888.564 352.727 888.462 353.322 888.462 354.018V354.454C888.462 355.208 888.564 355.846 888.767 356.369C888.984 356.891 889.26 357.319 889.594 357.652C889.927 357.972 890.312 358.211 890.747 358.371C891.182 358.516 891.617 358.588 892.053 358.588ZM900.313 348.578H902.228V353.387H908.19V348.578H910.105V360.111H908.19V355.085H902.228V360.111H900.313V348.578ZM916.227 350.276H912.289V348.578H922.081V350.276H918.142V360.111H916.227V350.276ZM924.262 348.578H926.046V350.754C926.438 349.986 926.982 349.398 927.678 348.992C928.389 348.571 929.209 348.361 930.137 348.361C931.588 348.361 932.749 348.839 933.619 349.797C934.489 350.74 934.925 352.147 934.925 354.018V354.454C934.925 355.44 934.809 356.303 934.576 357.043C934.344 357.768 934.018 358.378 933.597 358.871C933.177 359.35 932.669 359.712 932.074 359.959C931.494 360.206 930.848 360.329 930.137 360.329C929.151 360.329 928.324 360.111 927.657 359.676C927.004 359.241 926.511 358.697 926.177 358.044V364.463H924.262V348.578ZM929.702 358.632C930.166 358.632 930.602 358.545 931.008 358.371C931.414 358.182 931.762 357.914 932.052 357.565C932.357 357.217 932.589 356.782 932.749 356.26C932.923 355.737 933.01 355.135 933.01 354.454V354.018C933.01 353.395 932.923 352.836 932.749 352.343C932.589 351.85 932.357 351.436 932.052 351.103C931.762 350.754 931.414 350.493 931.008 350.319C930.602 350.145 930.166 350.058 929.702 350.058C929.18 350.058 928.701 350.145 928.266 350.319C927.831 350.479 927.461 350.711 927.156 351.016C926.852 351.306 926.612 351.654 926.438 352.06C926.264 352.466 926.177 352.901 926.177 353.366V355.106C926.177 355.629 926.264 356.107 926.438 356.543C926.612 356.978 926.852 357.348 927.156 357.652C927.461 357.957 927.831 358.196 928.266 358.371C928.701 358.545 929.18 358.632 929.702 358.632ZM942.437 360.329C941.697 360.329 940.994 360.213 940.326 359.981C939.659 359.734 939.071 359.371 938.564 358.893C938.056 358.4 937.65 357.783 937.345 357.043C937.041 356.303 936.888 355.44 936.888 354.454V354.018C936.888 353.09 937.041 352.27 937.345 351.56C937.65 350.849 938.056 350.261 938.564 349.797C939.071 349.318 939.659 348.963 940.326 348.731C940.994 348.484 941.697 348.361 942.437 348.361C943.177 348.361 943.881 348.484 944.548 348.731C945.215 348.963 945.803 349.318 946.31 349.797C946.818 350.261 947.224 350.849 947.529 351.56C947.834 352.27 947.986 353.09 947.986 354.018V354.454C947.986 355.44 947.834 356.303 947.529 357.043C947.224 357.783 946.818 358.4 946.31 358.893C945.803 359.371 945.215 359.734 944.548 359.981C943.881 360.213 943.177 360.329 942.437 360.329ZM942.437 358.588C942.872 358.588 943.307 358.516 943.743 358.371C944.178 358.211 944.562 357.972 944.896 357.652C945.23 357.319 945.498 356.891 945.701 356.369C945.919 355.846 946.028 355.208 946.028 354.454V354.018C946.028 353.322 945.919 352.727 945.701 352.234C945.498 351.741 945.23 351.335 944.896 351.016C944.562 350.696 944.178 350.464 943.743 350.319C943.307 350.174 942.872 350.102 942.437 350.102C942.002 350.102 941.567 350.174 941.131 350.319C940.696 350.464 940.312 350.696 939.978 351.016C939.644 351.335 939.369 351.741 939.151 352.234C938.948 352.727 938.847 353.322 938.847 354.018V354.454C938.847 355.208 938.948 355.846 939.151 356.369C939.369 356.891 939.644 357.319 939.978 357.652C940.312 357.972 940.696 358.211 941.131 358.371C941.567 358.516 942.002 358.588 942.437 358.588ZM949.941 360.329C949.723 360.329 949.506 360.307 949.288 360.264V358.349C949.361 358.363 949.47 358.371 949.615 358.371C949.934 358.371 950.209 358.269 950.441 358.066C950.688 357.863 950.884 357.507 951.029 357C951.174 356.492 951.283 355.803 951.355 354.932C951.428 354.062 951.464 352.959 951.464 351.625V348.578H959.733V360.111H957.818V350.276H953.379V352.06C953.379 353.67 953.307 355.005 953.162 356.064C953.016 357.123 952.799 357.972 952.509 358.61C952.233 359.234 951.878 359.676 951.442 359.937C951.007 360.198 950.507 360.329 949.941 360.329ZM963.214 348.578H965.129V352.93H967.892C969.343 352.93 970.409 353.25 971.091 353.888C971.788 354.526 972.136 355.411 972.136 356.543C972.136 357.645 971.788 358.516 971.091 359.154C970.409 359.792 969.343 360.111 967.892 360.111H963.214V348.578ZM967.784 358.414C968.683 358.414 969.314 358.254 969.677 357.935C970.039 357.616 970.221 357.145 970.221 356.521C970.221 355.897 970.039 355.426 969.677 355.106C969.314 354.787 968.683 354.628 967.784 354.628H965.129V358.414H967.784ZM974.647 348.578H976.562V353.387H982.524V348.578H984.439V360.111H982.524V355.085H976.562V360.111H974.647V348.578ZM991.214 360.329C990.576 360.329 990.01 360.242 989.517 360.068C989.038 359.879 988.632 359.625 988.298 359.306C987.964 358.987 987.711 358.61 987.536 358.175C987.362 357.739 987.275 357.261 987.275 356.738C987.275 355.592 987.609 354.766 988.276 354.258C988.958 353.75 989.93 353.496 991.192 353.496H994.935V352.713C994.935 351.726 994.71 351.045 994.26 350.667C993.825 350.29 993.165 350.102 992.28 350.102C991.453 350.102 990.851 350.261 990.474 350.58C990.097 350.885 989.887 351.233 989.843 351.625H987.928C987.957 351.161 988.08 350.733 988.298 350.341C988.53 349.935 988.835 349.587 989.212 349.296C989.604 349.006 990.068 348.781 990.605 348.622C991.141 348.448 991.736 348.361 992.389 348.361C993.753 348.361 994.833 348.687 995.631 349.34C996.444 349.978 996.85 351.03 996.85 352.495V357.174C996.85 357.783 996.85 358.32 996.85 358.784C996.864 359.234 996.901 359.676 996.959 360.111H995.283C995.24 359.778 995.211 359.466 995.196 359.176C995.182 358.871 995.174 358.53 995.174 358.153C994.87 358.762 994.376 359.277 993.695 359.698C993.013 360.119 992.186 360.329 991.214 360.329ZM991.627 358.588C992.077 358.588 992.498 358.53 992.889 358.414C993.296 358.283 993.651 358.102 993.956 357.87C994.26 357.623 994.5 357.326 994.674 356.978C994.848 356.63 994.935 356.223 994.935 355.759V354.976H991.519C990.808 354.976 990.249 355.121 989.843 355.411C989.437 355.687 989.234 356.129 989.234 356.738C989.234 357.275 989.422 357.718 989.799 358.066C990.191 358.414 990.8 358.588 991.627 358.588ZM1002.5 355.542C1001.54 355.324 1000.85 354.932 1000.43 354.367C1000.01 353.786 999.797 353.046 999.797 352.147C999.797 351.016 1000.14 350.138 1000.82 349.514C1001.52 348.89 1002.63 348.578 1004.15 348.578H1009.15V360.111H1007.24V355.716H1004.3L1001.49 360.111H999.362L1002.5 355.542ZM1001.71 352.147C1001.71 352.756 1001.89 353.221 1002.23 353.54C1002.6 353.859 1003.2 354.018 1004.04 354.018H1007.24V350.276H1004.04C1003.2 350.276 1002.6 350.435 1002.23 350.754C1001.89 351.074 1001.71 351.538 1001.71 352.147ZM1022.54 360.329C1021.8 360.329 1021.11 360.213 1020.48 359.981C1019.84 359.734 1019.29 359.371 1018.82 358.893C1018.36 358.4 1017.99 357.783 1017.71 357.043C1017.45 356.303 1017.32 355.44 1017.32 354.454V354.018C1017.32 353.09 1017.47 352.27 1017.76 351.56C1018.05 350.849 1018.43 350.261 1018.91 349.797C1019.39 349.318 1019.94 348.963 1020.56 348.731C1021.2 348.484 1021.86 348.361 1022.54 348.361C1023.23 348.361 1023.83 348.455 1024.37 348.644C1024.92 348.832 1025.39 349.093 1025.79 349.427C1026.19 349.761 1026.52 350.152 1026.76 350.602C1027.03 351.052 1027.21 351.538 1027.33 352.06H1025.37C1025.26 351.784 1025.12 351.53 1024.96 351.298C1024.81 351.052 1024.62 350.841 1024.39 350.667C1024.18 350.493 1023.91 350.355 1023.61 350.254C1023.3 350.152 1022.95 350.102 1022.54 350.102C1022.12 350.102 1021.72 350.181 1021.32 350.341C1020.93 350.486 1020.58 350.718 1020.28 351.037C1019.98 351.342 1019.73 351.741 1019.54 352.234C1019.37 352.727 1019.28 353.322 1019.28 354.018V354.454C1019.28 355.193 1019.37 355.832 1019.54 356.369C1019.73 356.891 1019.98 357.319 1020.28 357.652C1020.58 357.972 1020.93 358.211 1021.32 358.371C1021.72 358.516 1022.12 358.588 1022.54 358.588C1023.25 358.588 1023.85 358.414 1024.33 358.066C1024.82 357.718 1025.17 357.239 1025.37 356.63H1027.33C1027.05 357.776 1026.49 358.682 1025.63 359.35C1024.78 360.003 1023.75 360.329 1022.54 360.329ZM1031.04 364.681C1030.82 364.681 1030.6 364.659 1030.39 364.616V362.875C1030.6 362.918 1030.82 362.94 1031.04 362.94C1031.26 362.94 1031.44 362.904 1031.6 362.831C1031.76 362.759 1031.92 362.621 1032.06 362.418C1032.21 362.215 1032.36 361.925 1032.52 361.548C1032.69 361.185 1032.89 360.706 1033.11 360.111L1028.21 348.578H1030.34L1034.08 357.935L1037.48 348.578H1039.52L1035.17 360.111C1034.87 360.924 1034.58 361.62 1034.3 362.2C1034.03 362.781 1033.73 363.252 1033.41 363.615C1033.11 363.992 1032.76 364.26 1032.39 364.42C1032.01 364.594 1031.56 364.681 1031.04 364.681ZM1041.69 348.578H1043.74L1047.85 355.759L1051.96 348.578H1053.88V360.111H1051.96V351.734L1048.55 357.609H1047.02L1043.61 351.734V360.111H1041.69V348.578ZM1057.35 348.578H1059.4L1063.51 355.759L1067.62 348.578H1069.54V360.111H1067.62V351.734L1064.21 357.609H1062.68L1059.27 351.734V360.111H1057.35V348.578ZM1076.3 360.329C1075.66 360.329 1075.1 360.242 1074.6 360.068C1074.12 359.879 1073.72 359.625 1073.38 359.306C1073.05 358.987 1072.8 358.61 1072.62 358.175C1072.45 357.739 1072.36 357.261 1072.36 356.738C1072.36 355.592 1072.7 354.766 1073.36 354.258C1074.04 353.75 1075.02 353.496 1076.28 353.496H1080.02V352.713C1080.02 351.726 1079.8 351.045 1079.35 350.667C1078.91 350.29 1078.25 350.102 1077.37 350.102C1076.54 350.102 1075.94 350.261 1075.56 350.58C1075.18 350.885 1074.97 351.233 1074.93 351.625H1073.01C1073.04 351.161 1073.17 350.733 1073.38 350.341C1073.62 349.935 1073.92 349.587 1074.3 349.296C1074.69 349.006 1075.15 348.781 1075.69 348.622C1076.23 348.448 1076.82 348.361 1077.48 348.361C1078.84 348.361 1079.92 348.687 1080.72 349.34C1081.53 349.978 1081.94 351.03 1081.94 352.495V357.174C1081.94 357.783 1081.94 358.32 1081.94 358.784C1081.95 359.234 1081.99 359.676 1082.05 360.111H1080.37C1080.33 359.778 1080.3 359.466 1080.28 359.176C1080.27 358.871 1080.26 358.53 1080.26 358.153C1079.96 358.762 1079.46 359.277 1078.78 359.698C1078.1 360.119 1077.27 360.329 1076.3 360.329ZM1076.71 358.588C1077.16 358.588 1077.58 358.53 1077.98 358.414C1078.38 358.283 1078.74 358.102 1079.04 357.87C1079.35 357.623 1079.59 357.326 1079.76 356.978C1079.93 356.63 1080.02 356.223 1080.02 355.759V354.976H1076.6C1075.89 354.976 1075.34 355.121 1074.93 355.411C1074.52 355.687 1074.32 356.129 1074.32 356.738C1074.32 357.275 1074.51 357.718 1074.89 358.066C1075.28 358.414 1075.89 358.588 1076.71 358.588ZM1090.98 354.454C1090.98 353.032 1091.17 351.741 1091.56 350.58C1091.97 349.42 1092.42 348.412 1092.91 347.556C1093.48 346.569 1094.12 345.677 1094.85 344.879H1097.07C1096.29 345.677 1095.6 346.569 1095 347.556C1094.74 347.976 1094.49 348.441 1094.24 348.948C1093.99 349.456 1093.77 350 1093.57 350.58C1093.38 351.161 1093.22 351.777 1093.11 352.43C1092.99 353.068 1092.93 353.743 1092.93 354.454V354.889C1092.93 355.6 1092.99 356.282 1093.11 356.934C1093.22 357.587 1093.38 358.204 1093.57 358.784C1093.77 359.364 1093.99 359.908 1094.24 360.416C1094.49 360.924 1094.74 361.388 1095 361.809C1095.6 362.81 1096.29 363.695 1097.07 364.463H1094.76C1094.05 363.695 1093.42 362.81 1092.87 361.809C1092.39 360.967 1091.96 359.959 1091.56 358.784C1091.17 357.609 1090.98 356.311 1090.98 354.889V354.454ZM1098.48 358.327H1102.11V347.12L1098.48 349.71V347.49L1102.16 344.879H1104.2V358.327H1107.19V360.111H1098.48V358.327ZM1114.7 360.329C1113.86 360.329 1113.1 360.191 1112.42 359.915C1111.73 359.64 1111.15 359.219 1110.65 358.653C1110.17 358.073 1109.8 357.348 1109.54 356.477C1109.28 355.607 1109.15 354.57 1109.15 353.366V352.93C1109.15 351.436 1109.3 350.167 1109.61 349.122C1109.91 348.063 1110.33 347.207 1110.85 346.555C1111.37 345.887 1111.98 345.409 1112.68 345.118C1113.37 344.814 1114.12 344.661 1114.92 344.661C1116.09 344.661 1117.08 344.944 1117.88 345.51C1118.69 346.061 1119.23 346.903 1119.49 348.034H1117.44C1117.04 347.004 1116.19 346.489 1114.92 346.489C1114.37 346.489 1113.86 346.584 1113.39 346.772C1112.93 346.961 1112.52 347.273 1112.18 347.708C1111.84 348.143 1111.57 348.723 1111.37 349.449C1111.17 350.174 1111.05 351.081 1111.02 352.169C1111.23 351.821 1111.47 351.523 1111.76 351.277C1112.05 351.016 1112.36 350.812 1112.7 350.667C1113.05 350.508 1113.4 350.392 1113.76 350.319C1114.13 350.247 1114.48 350.21 1114.81 350.21C1116.33 350.21 1117.54 350.638 1118.44 351.494C1119.36 352.336 1119.81 353.547 1119.81 355.128V355.346C1119.81 356.071 1119.68 356.738 1119.4 357.348C1119.14 357.957 1118.78 358.487 1118.31 358.936C1117.85 359.371 1117.3 359.712 1116.68 359.959C1116.06 360.206 1115.4 360.329 1114.7 360.329ZM1114.53 358.501C1115.58 358.501 1116.39 358.233 1116.94 357.696C1117.49 357.159 1117.77 356.383 1117.77 355.368V355.15C1117.77 354.149 1117.49 353.38 1116.94 352.843C1116.39 352.307 1115.58 352.038 1114.53 352.038C1113.47 352.038 1112.66 352.307 1112.11 352.843C1111.56 353.38 1111.28 354.149 1111.28 355.15V355.368C1111.28 356.369 1111.56 357.145 1112.11 357.696C1112.66 358.233 1113.47 358.501 1114.53 358.501ZM1127.31 354.889C1127.31 356.311 1127.11 357.602 1126.7 358.762C1126.31 359.923 1125.87 360.931 1125.37 361.787C1124.81 362.773 1124.16 363.666 1123.44 364.463H1121.22C1122 363.666 1122.69 362.773 1123.28 361.787C1123.54 361.366 1123.8 360.902 1124.05 360.394C1124.29 359.886 1124.51 359.342 1124.7 358.762C1124.9 358.182 1125.06 357.573 1125.18 356.934C1125.29 356.282 1125.35 355.6 1125.35 354.889V354.454C1125.35 353.743 1125.29 353.061 1125.18 352.408C1125.06 351.755 1124.9 351.139 1124.7 350.559C1124.51 349.978 1124.29 349.434 1124.05 348.927C1123.8 348.419 1123.54 347.955 1123.28 347.534C1122.69 346.533 1122 345.648 1121.22 344.879H1123.52C1124.23 345.648 1124.87 346.533 1125.42 347.534C1125.9 348.375 1126.33 349.383 1126.72 350.559C1127.11 351.734 1127.31 353.032 1127.31 354.454V354.889Z" fill="black"/>
<rect x="700" y="290.611" width="600" height="122" stroke="black"/>
<rect width="1200" height="122" transform="translate(100 412.611)" fill="#F1F7F5"/>
<path d="M426.935 480.327H428.567C428.843 479.776 429.075 479.094 429.264 478.282C429.452 477.469 429.597 476.599 429.699 475.67C429.8 474.727 429.873 473.763 429.916 472.776C429.96 471.775 429.982 470.825 429.982 469.926V466.879H439.883V480.327H441.732V484.94H439.774V482.111H428.894V484.94H426.935V480.327ZM437.837 480.327V468.663H431.984V470.361C431.984 472.566 431.882 474.473 431.679 476.084C431.49 477.694 431.178 479.108 430.743 480.327H437.837ZM447.422 482.329C446.784 482.329 446.218 482.242 445.725 482.068C445.246 481.879 444.84 481.625 444.506 481.306C444.172 480.987 443.918 480.61 443.744 480.175C443.57 479.739 443.483 479.261 443.483 478.738C443.483 477.592 443.817 476.766 444.484 476.258C445.166 475.75 446.138 475.496 447.4 475.496H451.143V474.713C451.143 473.726 450.918 473.045 450.468 472.667C450.033 472.29 449.373 472.102 448.488 472.102C447.661 472.102 447.059 472.261 446.682 472.58C446.305 472.885 446.095 473.233 446.051 473.625H444.136C444.165 473.161 444.288 472.733 444.506 472.341C444.738 471.935 445.043 471.587 445.42 471.296C445.812 471.006 446.276 470.781 446.813 470.622C447.349 470.448 447.944 470.361 448.597 470.361C449.961 470.361 451.041 470.687 451.839 471.34C452.652 471.978 453.058 473.03 453.058 474.495V479.174C453.058 479.783 453.058 480.32 453.058 480.784C453.072 481.234 453.109 481.676 453.167 482.111H451.491C451.448 481.778 451.419 481.466 451.404 481.176C451.39 480.871 451.382 480.53 451.382 480.153C451.078 480.762 450.584 481.277 449.903 481.698C449.221 482.119 448.394 482.329 447.422 482.329ZM447.835 480.588C448.285 480.588 448.706 480.53 449.097 480.414C449.504 480.283 449.859 480.102 450.164 479.87C450.468 479.623 450.708 479.326 450.882 478.978C451.056 478.63 451.143 478.223 451.143 477.759V476.976H447.727C447.016 476.976 446.457 477.121 446.051 477.411C445.645 477.687 445.442 478.129 445.442 478.738C445.442 479.275 445.63 479.718 446.007 480.066C446.399 480.414 447.008 480.588 447.835 480.588ZM456.44 470.578H458.355V475.387H464.317V470.578H466.232V482.111H464.317V477.085H458.355V482.111H456.44V470.578ZM469.721 470.578H471.636V475.387H477.599V470.578H479.514V482.111H477.599V477.085H471.636V482.111H469.721V470.578ZM483.003 470.578H484.918V474.93H487.246C488.697 474.93 489.763 475.25 490.445 475.888C491.141 476.526 491.489 477.411 491.489 478.543C491.489 479.645 491.141 480.516 490.445 481.154C489.763 481.792 488.697 482.111 487.246 482.111H483.003V470.578ZM487.137 480.414C488.037 480.414 488.668 480.254 489.031 479.935C489.393 479.616 489.575 479.145 489.575 478.521C489.575 477.897 489.393 477.426 489.031 477.106C488.668 476.787 488.037 476.628 487.137 476.628H484.918V480.414H487.137ZM493.274 470.578H495.189V482.111H493.274V470.578ZM503.452 482.329C502.712 482.329 502.008 482.213 501.341 481.981C500.674 481.749 500.086 481.393 499.578 480.915C499.071 480.421 498.664 479.805 498.36 479.065C498.055 478.325 497.903 477.455 497.903 476.454V476.018C497.903 475.061 498.048 474.234 498.338 473.538C498.628 472.827 499.013 472.239 499.491 471.775C499.985 471.296 500.55 470.941 501.189 470.709C501.841 470.477 502.523 470.361 503.234 470.361C504.931 470.361 506.244 470.825 507.173 471.753C508.101 472.682 508.565 473.995 508.565 475.692V476.911H499.818C499.818 477.592 499.927 478.165 500.144 478.63C500.362 479.094 500.645 479.471 500.993 479.761C501.341 480.051 501.725 480.262 502.146 480.392C502.581 480.523 503.017 480.588 503.452 480.588C504.322 480.588 504.989 480.443 505.454 480.153C505.932 479.863 506.273 479.464 506.476 478.956H508.348C508.232 479.507 508.021 479.993 507.717 480.414C507.427 480.835 507.064 481.19 506.629 481.48C506.208 481.756 505.722 481.966 505.171 482.111C504.634 482.256 504.061 482.329 503.452 482.329ZM503.343 472.102C502.893 472.102 502.458 472.167 502.037 472.297C501.617 472.413 501.239 472.609 500.906 472.885C500.587 473.146 500.325 473.48 500.122 473.886C499.919 474.292 499.818 474.778 499.818 475.344H506.759C506.745 474.749 506.643 474.249 506.455 473.842C506.281 473.422 506.041 473.088 505.737 472.841C505.432 472.58 505.069 472.392 504.649 472.276C504.242 472.16 503.807 472.102 503.343 472.102ZM518.25 486.681C518.033 486.681 517.815 486.659 517.598 486.616V484.875C517.815 484.918 518.033 484.94 518.25 484.94C518.468 484.94 518.657 484.904 518.816 484.831C518.976 484.759 519.128 484.621 519.273 484.418C519.418 484.215 519.571 483.925 519.73 483.548C519.904 483.185 520.1 482.706 520.318 482.111L515.422 470.578H517.554L521.297 479.935L524.692 470.578H526.737L522.385 482.111C522.08 482.924 521.79 483.62 521.515 484.2C521.239 484.781 520.942 485.252 520.622 485.615C520.318 485.992 519.977 486.26 519.6 486.42C519.222 486.594 518.773 486.681 518.25 486.681ZM528.904 470.578H530.688V472.754C531.08 471.986 531.624 471.398 532.32 470.992C533.031 470.571 533.851 470.361 534.779 470.361C536.23 470.361 537.39 470.839 538.261 471.797C539.131 472.74 539.566 474.147 539.566 476.018V476.454C539.566 477.44 539.45 478.303 539.218 479.043C538.986 479.768 538.66 480.378 538.239 480.871C537.818 481.35 537.31 481.712 536.716 481.959C536.135 482.206 535.49 482.329 534.779 482.329C533.793 482.329 532.966 482.111 532.298 481.676C531.645 481.241 531.152 480.697 530.819 480.044V486.463H528.904V470.578ZM534.344 480.632C534.808 480.632 535.243 480.545 535.649 480.371C536.056 480.182 536.404 479.914 536.694 479.565C536.999 479.217 537.231 478.782 537.39 478.26C537.564 477.737 537.651 477.135 537.651 476.454V476.018C537.651 475.395 537.564 474.836 537.39 474.343C537.231 473.85 536.999 473.436 536.694 473.103C536.404 472.754 536.056 472.493 535.649 472.319C535.243 472.145 534.808 472.058 534.344 472.058C533.822 472.058 533.343 472.145 532.908 472.319C532.472 472.479 532.102 472.711 531.798 473.016C531.493 473.306 531.254 473.654 531.08 474.06C530.906 474.466 530.819 474.901 530.819 475.366V477.106C530.819 477.629 530.906 478.107 531.08 478.543C531.254 478.978 531.493 479.348 531.798 479.652C532.102 479.957 532.472 480.196 532.908 480.371C533.343 480.545 533.822 480.632 534.344 480.632ZM547.079 482.329C546.339 482.329 545.635 482.213 544.968 481.981C544.301 481.734 543.713 481.371 543.205 480.893C542.698 480.4 542.291 479.783 541.987 479.043C541.682 478.303 541.53 477.44 541.53 476.454V476.018C541.53 475.09 541.682 474.27 541.987 473.56C542.291 472.849 542.698 472.261 543.205 471.797C543.713 471.318 544.301 470.963 544.968 470.731C545.635 470.484 546.339 470.361 547.079 470.361C547.819 470.361 548.522 470.484 549.189 470.731C549.857 470.963 550.444 471.318 550.952 471.797C551.46 472.261 551.866 472.849 552.171 473.56C552.475 474.27 552.628 475.09 552.628 476.018V476.454C552.628 477.44 552.475 478.303 552.171 479.043C551.866 479.783 551.46 480.4 550.952 480.893C550.444 481.371 549.857 481.734 549.189 481.981C548.522 482.213 547.819 482.329 547.079 482.329ZM547.079 480.588C547.514 480.588 547.949 480.516 548.384 480.371C548.82 480.211 549.204 479.972 549.538 479.652C549.871 479.319 550.14 478.891 550.343 478.369C550.56 477.846 550.669 477.208 550.669 476.454V476.018C550.669 475.322 550.56 474.727 550.343 474.234C550.14 473.741 549.871 473.335 549.538 473.016C549.204 472.696 548.82 472.464 548.384 472.319C547.949 472.174 547.514 472.102 547.079 472.102C546.643 472.102 546.208 472.174 545.773 472.319C545.338 472.464 544.953 472.696 544.62 473.016C544.286 473.335 544.01 473.741 543.793 474.234C543.59 474.727 543.488 475.322 543.488 476.018V476.454C543.488 477.208 543.59 477.846 543.793 478.369C544.01 478.891 544.286 479.319 544.62 479.652C544.953 479.972 545.338 480.211 545.773 480.371C546.208 480.516 546.643 480.588 547.079 480.588ZM555.339 470.578H560.344C561.766 470.578 562.81 470.876 563.477 471.471C564.145 472.051 564.478 472.805 564.478 473.734C564.478 473.98 564.435 474.234 564.348 474.495C564.261 474.742 564.138 474.974 563.978 475.192C563.833 475.409 563.652 475.598 563.434 475.757C563.231 475.917 562.999 476.04 562.738 476.127C563.448 476.301 563.985 476.635 564.348 477.128C564.725 477.607 564.914 478.173 564.914 478.826C564.914 479.826 564.58 480.624 563.913 481.219C563.245 481.814 562.201 482.111 560.779 482.111H555.339V470.578ZM560.779 480.414C561.592 480.414 562.165 480.269 562.498 479.979C562.832 479.689 562.999 479.275 562.999 478.738C562.999 478.187 562.832 477.767 562.498 477.476C562.165 477.172 561.592 477.019 560.779 477.019H557.254V480.414H560.779ZM560.344 475.453C561.171 475.453 561.744 475.308 562.063 475.017C562.397 474.727 562.564 474.328 562.564 473.821C562.564 473.342 562.397 472.965 562.063 472.689C561.744 472.413 561.171 472.276 560.344 472.276H557.254V475.453H560.344ZM567.643 470.578H569.558V475.387H575.52V470.578H577.435V482.111H575.52V477.085H569.558V482.111H567.643V470.578ZM583.188 477.542C582.23 477.324 581.541 476.932 581.12 476.367C580.7 475.786 580.489 475.046 580.489 474.147C580.489 473.016 580.83 472.138 581.512 471.514C582.208 470.89 583.318 470.578 584.841 470.578H589.846V482.111H587.931V477.716H584.994L582.187 482.111H580.054L583.188 477.542ZM582.404 474.147C582.404 474.756 582.578 475.221 582.926 475.54C583.289 475.859 583.891 476.018 584.733 476.018H587.931V472.276H584.733C583.891 472.276 583.289 472.435 582.926 472.754C582.578 473.074 582.404 473.538 582.404 474.147ZM598.775 470.578H608.349V482.111H606.434V472.276H600.69V482.111H598.775V470.578ZM611.823 470.578H613.607V472.754C613.999 471.986 614.543 471.398 615.239 470.992C615.95 470.571 616.769 470.361 617.698 470.361C619.149 470.361 620.309 470.839 621.179 471.797C622.05 472.74 622.485 474.147 622.485 476.018V476.454C622.485 477.44 622.369 478.303 622.137 479.043C621.905 479.768 621.578 480.378 621.158 480.871C620.737 481.35 620.229 481.712 619.634 481.959C619.054 482.206 618.409 482.329 617.698 482.329C616.711 482.329 615.884 482.111 615.217 481.676C614.564 481.241 614.071 480.697 613.737 480.044V486.463H611.823V470.578ZM617.263 480.632C617.727 480.632 618.162 480.545 618.568 480.371C618.974 480.182 619.323 479.914 619.613 479.565C619.917 479.217 620.149 478.782 620.309 478.26C620.483 477.737 620.57 477.135 620.57 476.454V476.018C620.57 475.395 620.483 474.836 620.309 474.343C620.149 473.85 619.917 473.436 619.613 473.103C619.323 472.754 618.974 472.493 618.568 472.319C618.162 472.145 617.727 472.058 617.263 472.058C616.74 472.058 616.262 472.145 615.826 472.319C615.391 472.479 615.021 472.711 614.717 473.016C614.412 473.306 614.173 473.654 613.999 474.06C613.824 474.466 613.737 474.901 613.737 475.366V477.106C613.737 477.629 613.824 478.107 613.999 478.543C614.173 478.978 614.412 479.348 614.717 479.652C615.021 479.957 615.391 480.196 615.826 480.371C616.262 480.545 616.74 480.632 617.263 480.632ZM625.21 470.578H627.125V479.282L633.087 470.578H635.002V482.111H633.087V473.407L627.125 482.111H625.21V470.578ZM637.948 482.329C637.73 482.329 637.512 482.307 637.295 482.264V480.349C637.367 480.363 637.476 480.371 637.621 480.371C637.94 480.371 638.216 480.269 638.448 480.066C638.695 479.863 638.891 479.507 639.036 479C639.181 478.492 639.29 477.803 639.362 476.932C639.435 476.062 639.471 474.959 639.471 473.625V470.578H647.74V482.111H645.825V472.276H641.386V474.06C641.386 475.67 641.313 477.005 641.168 478.064C641.023 479.123 640.806 479.972 640.515 480.61C640.24 481.234 639.884 481.676 639.449 481.937C639.014 482.198 638.513 482.329 637.948 482.329ZM656.008 482.329C655.268 482.329 654.564 482.213 653.897 481.981C653.23 481.734 652.642 481.371 652.135 480.893C651.627 480.4 651.221 479.783 650.916 479.043C650.611 478.303 650.459 477.44 650.459 476.454V476.018C650.459 475.09 650.611 474.27 650.916 473.56C651.221 472.849 651.627 472.261 652.135 471.797C652.642 471.318 653.23 470.963 653.897 470.731C654.564 470.484 655.268 470.361 656.008 470.361C656.748 470.361 657.451 470.484 658.119 470.731C658.786 470.963 659.374 471.318 659.881 471.797C660.389 472.261 660.795 472.849 661.1 473.56C661.404 474.27 661.557 475.09 661.557 476.018V476.454C661.557 477.44 661.404 478.303 661.1 479.043C660.795 479.783 660.389 480.4 659.881 480.893C659.374 481.371 658.786 481.734 658.119 481.981C657.451 482.213 656.748 482.329 656.008 482.329ZM656.008 480.588C656.443 480.588 656.878 480.516 657.314 480.371C657.749 480.211 658.133 479.972 658.467 479.652C658.801 479.319 659.069 478.891 659.272 478.369C659.49 477.846 659.598 477.208 659.598 476.454V476.018C659.598 475.322 659.49 474.727 659.272 474.234C659.069 473.741 658.801 473.335 658.467 473.016C658.133 472.696 657.749 472.464 657.314 472.319C656.878 472.174 656.443 472.102 656.008 472.102C655.573 472.102 655.138 472.174 654.702 472.319C654.267 472.464 653.883 472.696 653.549 473.016C653.215 473.335 652.94 473.741 652.722 474.234C652.519 474.727 652.417 475.322 652.417 476.018V476.454C652.417 477.208 652.519 477.846 652.722 478.369C652.94 478.891 653.215 479.319 653.549 479.652C653.883 479.972 654.267 480.211 654.702 480.371C655.138 480.516 655.573 480.588 656.008 480.588ZM666.999 476.171L662.864 470.578H664.997L668.522 475.409H669.849V470.578H671.764V475.409H673.07L676.66 470.578H678.749L674.615 476.105L678.967 482.111H676.704L673.07 477.063H671.764V482.111H669.849V477.063H668.522L664.866 482.111H662.647L666.999 476.171ZM685.61 482.329C684.87 482.329 684.166 482.213 683.499 481.981C682.832 481.749 682.244 481.393 681.736 480.915C681.229 480.421 680.822 479.805 680.518 479.065C680.213 478.325 680.061 477.455 680.061 476.454V476.018C680.061 475.061 680.206 474.234 680.496 473.538C680.786 472.827 681.171 472.239 681.649 471.775C682.143 471.296 682.708 470.941 683.347 470.709C683.999 470.477 684.681 470.361 685.392 470.361C687.089 470.361 688.402 470.825 689.331 471.753C690.259 472.682 690.723 473.995 690.723 475.692V476.911H681.976C681.976 477.592 682.084 478.165 682.302 478.63C682.52 479.094 682.803 479.471 683.151 479.761C683.499 480.051 683.883 480.262 684.304 480.392C684.739 480.523 685.174 480.588 685.61 480.588C686.48 480.588 687.147 480.443 687.612 480.153C688.09 479.863 688.431 479.464 688.634 478.956H690.506C690.39 479.507 690.179 479.993 689.875 480.414C689.585 480.835 689.222 481.19 688.787 481.48C688.366 481.756 687.88 481.966 687.329 482.111C686.792 482.256 686.219 482.329 685.61 482.329ZM685.501 472.102C685.051 472.102 684.616 472.167 684.195 472.297C683.775 472.413 683.397 472.609 683.064 472.885C682.745 473.146 682.483 473.48 682.28 473.886C682.077 474.292 681.976 474.778 681.976 475.344H688.917C688.903 474.749 688.801 474.249 688.613 473.842C688.439 473.422 688.199 473.088 687.895 472.841C687.59 472.58 687.227 472.392 686.806 472.276C686.4 472.16 685.965 472.102 685.501 472.102ZM693.445 470.578H695.36V475.387H701.322V470.578H703.237V482.111H701.322V477.085H695.36V482.111H693.445V470.578ZM706.727 470.578H708.641V479.282L714.604 470.578H716.519V482.111H714.604V473.407L708.641 482.111H706.727V470.578ZM720.008 470.578H721.923V479.282L727.885 470.578H729.8V482.111H727.885V473.407L721.923 482.111H720.008V470.578ZM724.904 469.164C723.773 469.164 722.946 468.925 722.423 468.446C721.901 467.953 721.64 467.249 721.64 466.335H723.511C723.511 467.322 723.976 467.815 724.904 467.815C725.862 467.815 726.34 467.322 726.34 466.335H728.168C728.168 467.249 727.907 467.953 727.385 468.446C726.863 468.925 726.036 469.164 724.904 469.164ZM738.947 476.454C738.947 475.032 739.143 473.741 739.535 472.58C739.941 471.42 740.391 470.412 740.884 469.556C741.45 468.569 742.095 467.677 742.821 466.879H745.04C744.257 467.677 743.568 468.569 742.973 469.556C742.712 469.976 742.458 470.441 742.211 470.948C741.965 471.456 741.74 472 741.537 472.58C741.348 473.161 741.196 473.777 741.08 474.43C740.964 475.068 740.906 475.743 740.906 476.454V476.889C740.906 477.6 740.964 478.282 741.08 478.934C741.196 479.587 741.348 480.204 741.537 480.784C741.74 481.364 741.965 481.908 742.211 482.416C742.458 482.924 742.712 483.388 742.973 483.809C743.568 484.81 744.257 485.695 745.04 486.463H742.733C742.023 485.695 741.392 484.81 740.84 483.809C740.362 482.967 739.926 481.959 739.535 480.784C739.143 479.609 738.947 478.311 738.947 476.889V476.454ZM746.996 470.578H756.571V482.111H754.656V472.276H748.911V482.111H746.996V470.578ZM764.831 482.329C764.091 482.329 763.387 482.213 762.72 481.981C762.053 481.749 761.465 481.393 760.958 480.915C760.45 480.421 760.044 479.805 759.739 479.065C759.434 478.325 759.282 477.455 759.282 476.454V476.018C759.282 475.061 759.427 474.234 759.717 473.538C760.007 472.827 760.392 472.239 760.871 471.775C761.364 471.296 761.93 470.941 762.568 470.709C763.221 470.477 763.902 470.361 764.613 470.361C766.311 470.361 767.624 470.825 768.552 471.753C769.48 472.682 769.945 473.995 769.945 475.692V476.911H761.197C761.197 477.592 761.306 478.165 761.523 478.63C761.741 479.094 762.024 479.471 762.372 479.761C762.72 480.051 763.105 480.262 763.525 480.392C763.961 480.523 764.396 480.588 764.831 480.588C765.701 480.588 766.369 480.443 766.833 480.153C767.312 479.863 767.653 479.464 767.856 478.956H769.727C769.611 479.507 769.401 479.993 769.096 480.414C768.806 480.835 768.443 481.19 768.008 481.48C767.587 481.756 767.101 481.966 766.55 482.111C766.013 482.256 765.44 482.329 764.831 482.329ZM764.722 472.102C764.272 472.102 763.837 472.167 763.417 472.297C762.996 472.413 762.619 472.609 762.285 472.885C761.966 473.146 761.705 473.48 761.502 473.886C761.299 474.292 761.197 474.778 761.197 475.344H768.139C768.124 474.749 768.022 474.249 767.834 473.842C767.66 473.422 767.42 473.088 767.116 472.841C766.811 472.58 766.448 472.392 766.028 472.276C765.622 472.16 765.186 472.102 764.722 472.102ZM772.666 470.578H774.451V472.754C774.842 471.986 775.386 471.398 776.083 470.992C776.794 470.571 777.613 470.361 778.542 470.361C779.992 470.361 781.153 470.839 782.023 471.797C782.894 472.74 783.329 474.147 783.329 476.018V476.454C783.329 477.44 783.213 478.303 782.981 479.043C782.749 479.768 782.422 480.378 782.002 480.871C781.581 481.35 781.073 481.712 780.478 481.959C779.898 482.206 779.252 482.329 778.542 482.329C777.555 482.329 776.728 482.111 776.061 481.676C775.408 481.241 774.915 480.697 774.581 480.044V486.463H772.666V470.578ZM778.106 480.632C778.571 480.632 779.006 480.545 779.412 480.371C779.818 480.182 780.166 479.914 780.457 479.565C780.761 479.217 780.993 478.782 781.153 478.26C781.327 477.737 781.414 477.135 781.414 476.454V476.018C781.414 475.395 781.327 474.836 781.153 474.343C780.993 473.85 780.761 473.436 780.457 473.103C780.166 472.754 779.818 472.493 779.412 472.319C779.006 472.145 778.571 472.058 778.106 472.058C777.584 472.058 777.105 472.145 776.67 472.319C776.235 472.479 775.865 472.711 775.56 473.016C775.256 473.306 775.016 473.654 774.842 474.06C774.668 474.466 774.581 474.901 774.581 475.366V477.106C774.581 477.629 774.668 478.107 774.842 478.543C775.016 478.978 775.256 479.348 775.56 479.652C775.865 479.957 776.235 480.196 776.67 480.371C777.105 480.545 777.584 480.632 778.106 480.632ZM790.841 482.329C790.101 482.329 789.398 482.213 788.731 481.981C788.063 481.749 787.476 481.393 786.968 480.915C786.46 480.421 786.054 479.805 785.749 479.065C785.445 478.325 785.292 477.455 785.292 476.454V476.018C785.292 475.061 785.438 474.234 785.728 473.538C786.018 472.827 786.402 472.239 786.881 471.775C787.374 471.296 787.94 470.941 788.578 470.709C789.231 470.477 789.913 470.361 790.624 470.361C792.321 470.361 793.634 470.825 794.562 471.753C795.491 472.682 795.955 473.995 795.955 475.692V476.911H787.207C787.207 477.592 787.316 478.165 787.534 478.63C787.751 479.094 788.034 479.471 788.382 479.761C788.731 480.051 789.115 480.262 789.536 480.392C789.971 480.523 790.406 480.588 790.841 480.588C791.712 480.588 792.379 480.443 792.843 480.153C793.322 479.863 793.663 479.464 793.866 478.956H795.737C795.621 479.507 795.411 479.993 795.106 480.414C794.816 480.835 794.454 481.19 794.018 481.48C793.598 481.756 793.112 481.966 792.56 482.111C792.024 482.256 791.451 482.329 790.841 482.329ZM790.733 472.102C790.283 472.102 789.848 472.167 789.427 472.297C789.006 472.413 788.629 472.609 788.295 472.885C787.976 473.146 787.715 473.48 787.512 473.886C787.309 474.292 787.207 474.778 787.207 475.344H794.149C794.134 474.749 794.033 474.249 793.844 473.842C793.67 473.422 793.431 473.088 793.126 472.841C792.822 472.58 792.459 472.392 792.038 472.276C791.632 472.16 791.197 472.102 790.733 472.102ZM798.677 470.578H800.722L804.835 477.759L808.948 470.578H810.863V482.111H808.948V473.734L805.531 479.609H804.008L800.592 473.734V482.111H798.677V470.578ZM819.126 482.329C818.386 482.329 817.682 482.213 817.015 481.981C816.347 481.749 815.76 481.393 815.252 480.915C814.744 480.421 814.338 479.805 814.034 479.065C813.729 478.325 813.577 477.455 813.577 476.454V476.018C813.577 475.061 813.722 474.234 814.012 473.538C814.302 472.827 814.686 472.239 815.165 471.775C815.658 471.296 816.224 470.941 816.862 470.709C817.515 470.477 818.197 470.361 818.908 470.361C820.605 470.361 821.918 470.825 822.847 471.753C823.775 472.682 824.239 473.995 824.239 475.692V476.911H815.492C815.492 477.592 815.6 478.165 815.818 478.63C816.036 479.094 816.318 479.471 816.667 479.761C817.015 480.051 817.399 480.262 817.82 480.392C818.255 480.523 818.69 480.588 819.126 480.588C819.996 480.588 820.663 480.443 821.127 480.153C821.606 479.863 821.947 479.464 822.15 478.956H824.022C823.906 479.507 823.695 479.993 823.391 480.414C823.1 480.835 822.738 481.19 822.303 481.48C821.882 481.756 821.396 481.966 820.845 482.111C820.308 482.256 819.735 482.329 819.126 482.329ZM819.017 472.102C818.567 472.102 818.132 472.167 817.711 472.297C817.29 472.413 816.913 472.609 816.58 472.885C816.26 473.146 815.999 473.48 815.796 473.886C815.593 474.292 815.492 474.778 815.492 475.344H822.433C822.419 474.749 822.317 474.249 822.128 473.842C821.954 473.422 821.715 473.088 821.41 472.841C821.106 472.58 820.743 472.392 820.322 472.276C819.916 472.16 819.481 472.102 819.017 472.102ZM826.961 470.578H828.876V475.387H834.838V470.578H836.753V482.111H834.838V477.085H828.876V482.111H826.961V470.578ZM840.242 470.578H842.157V475.387H848.12V470.578H850.035V482.111H848.12V477.085H842.157V482.111H840.242V470.578ZM853.524 470.578H855.439V474.93H857.767C859.218 474.93 860.284 475.25 860.966 475.888C861.662 476.526 862.01 477.411 862.01 478.543C862.01 479.645 861.662 480.516 860.966 481.154C860.284 481.792 859.218 482.111 857.767 482.111H853.524V470.578ZM857.658 480.414C858.558 480.414 859.189 480.254 859.552 479.935C859.914 479.616 860.096 479.145 860.096 478.521C860.096 477.897 859.914 477.426 859.552 477.106C859.189 476.787 858.558 476.628 857.658 476.628H855.439V480.414H857.658ZM863.795 470.578H865.71V482.111H863.795V470.578ZM869.185 470.578H871.1V479.282L877.063 470.578H878.978V482.111H877.063V473.407L871.1 482.111H869.185V470.578ZM874.081 469.164C872.95 469.164 872.123 468.925 871.601 468.446C871.079 467.953 870.817 467.249 870.817 466.335H872.689C872.689 467.322 873.153 467.815 874.081 467.815C875.039 467.815 875.518 467.322 875.518 466.335H877.346C877.346 467.249 877.084 467.953 876.562 468.446C876.04 468.925 875.213 469.164 874.081 469.164ZM887.907 470.578H889.691V472.754C890.083 471.986 890.627 471.398 891.323 470.992C892.034 470.571 892.854 470.361 893.782 470.361C895.233 470.361 896.394 470.839 897.264 471.797C898.134 472.74 898.57 474.147 898.57 476.018V476.454C898.57 477.44 898.453 478.303 898.221 479.043C897.989 479.768 897.663 480.378 897.242 480.871C896.821 481.35 896.314 481.712 895.719 481.959C895.139 482.206 894.493 482.329 893.782 482.329C892.796 482.329 891.969 482.111 891.302 481.676C890.649 481.241 890.156 480.697 889.822 480.044V486.463H887.907V470.578ZM893.347 480.632C893.811 480.632 894.246 480.545 894.653 480.371C895.059 480.182 895.407 479.914 895.697 479.565C896.002 479.217 896.234 478.782 896.394 478.26C896.568 477.737 896.655 477.135 896.655 476.454V476.018C896.655 475.395 896.568 474.836 896.394 474.343C896.234 473.85 896.002 473.436 895.697 473.103C895.407 472.754 895.059 472.493 894.653 472.319C894.246 472.145 893.811 472.058 893.347 472.058C892.825 472.058 892.346 472.145 891.911 472.319C891.476 472.479 891.106 472.711 890.801 473.016C890.496 473.306 890.257 473.654 890.083 474.06C889.909 474.466 889.822 474.901 889.822 475.366V477.106C889.822 477.629 889.909 478.107 890.083 478.543C890.257 478.978 890.496 479.348 890.801 479.652C891.106 479.957 891.476 480.196 891.911 480.371C892.346 480.545 892.825 480.632 893.347 480.632ZM904.58 482.329C903.942 482.329 903.376 482.242 902.883 482.068C902.404 481.879 901.998 481.625 901.665 481.306C901.331 480.987 901.077 480.61 900.903 480.175C900.729 479.739 900.642 479.261 900.642 478.738C900.642 477.592 900.976 476.766 901.643 476.258C902.325 475.75 903.297 475.496 904.559 475.496H908.301V474.713C908.301 473.726 908.077 473.045 907.627 472.667C907.192 472.29 906.532 472.102 905.647 472.102C904.82 472.102 904.218 472.261 903.841 472.58C903.463 472.885 903.253 473.233 903.21 473.625H901.295C901.324 473.161 901.447 472.733 901.665 472.341C901.897 471.935 902.201 471.587 902.579 471.296C902.97 471.006 903.434 470.781 903.971 470.622C904.508 470.448 905.103 470.361 905.756 470.361C907.119 470.361 908.2 470.687 908.998 471.34C909.81 471.978 910.216 473.03 910.216 474.495V479.174C910.216 479.783 910.216 480.32 910.216 480.784C910.231 481.234 910.267 481.676 910.325 482.111H908.65C908.606 481.778 908.577 481.466 908.563 481.176C908.548 480.871 908.541 480.53 908.541 480.153C908.236 480.762 907.743 481.277 907.061 481.698C906.379 482.119 905.552 482.329 904.58 482.329ZM904.994 480.588C905.444 480.588 905.864 480.53 906.256 480.414C906.662 480.283 907.018 480.102 907.322 479.87C907.627 479.623 907.866 479.326 908.04 478.978C908.214 478.63 908.301 478.223 908.301 477.759V476.976H904.885C904.174 476.976 903.616 477.121 903.21 477.411C902.803 477.687 902.6 478.129 902.6 478.738C902.6 479.275 902.789 479.718 903.166 480.066C903.558 480.414 904.167 480.588 904.994 480.588ZM917.515 482.329C916.065 482.329 914.926 482.024 914.099 481.415C913.272 480.806 912.815 479.95 912.728 478.847H914.643C914.745 479.413 915.042 479.848 915.535 480.153C916.043 480.443 916.703 480.588 917.515 480.588C918.516 480.588 919.242 480.421 919.692 480.088C920.156 479.739 920.388 479.326 920.388 478.847C920.388 478.282 920.199 477.839 919.822 477.52C919.445 477.186 918.792 477.019 917.864 477.019H915.883V475.453H917.733C918.531 475.453 919.097 475.3 919.43 474.996C919.779 474.691 919.953 474.263 919.953 473.712C919.953 473.277 919.75 472.899 919.343 472.58C918.937 472.261 918.328 472.102 917.515 472.102C916.631 472.102 915.985 472.247 915.579 472.537C915.187 472.812 914.948 473.211 914.861 473.734H912.946C912.989 473.255 913.12 472.812 913.337 472.406C913.57 471.986 913.882 471.623 914.273 471.318C914.665 471.014 915.129 470.781 915.666 470.622C916.217 470.448 916.834 470.361 917.515 470.361C918.255 470.361 918.894 470.448 919.43 470.622C919.982 470.781 920.439 471.014 920.801 471.318C921.164 471.608 921.432 471.956 921.606 472.363C921.781 472.769 921.868 473.219 921.868 473.712C921.868 474.263 921.73 474.749 921.454 475.17C921.178 475.576 920.736 475.895 920.127 476.127C920.939 476.345 921.505 476.693 921.824 477.172C922.143 477.65 922.303 478.209 922.303 478.847C922.303 479.326 922.201 479.776 921.998 480.196C921.795 480.617 921.49 480.987 921.084 481.306C920.692 481.611 920.192 481.857 919.583 482.046C918.988 482.235 918.299 482.329 917.515 482.329ZM925.031 470.578H927.077L931.189 477.759L935.302 470.578H937.217V482.111H935.302V473.734L931.886 479.609H930.363L926.946 473.734V482.111H925.031V470.578ZM945.48 482.329C944.74 482.329 944.037 482.213 943.369 481.981C942.702 481.749 942.114 481.393 941.607 480.915C941.099 480.421 940.693 479.805 940.388 479.065C940.084 478.325 939.931 477.455 939.931 476.454V476.018C939.931 475.061 940.076 474.234 940.366 473.538C940.657 472.827 941.041 472.239 941.52 471.775C942.013 471.296 942.579 470.941 943.217 470.709C943.87 470.477 944.552 470.361 945.262 470.361C946.96 470.361 948.273 470.825 949.201 471.753C950.13 472.682 950.594 473.995 950.594 475.692V476.911H941.846C941.846 477.592 941.955 478.165 942.172 478.63C942.39 479.094 942.673 479.471 943.021 479.761C943.369 480.051 943.754 480.262 944.174 480.392C944.61 480.523 945.045 480.588 945.48 480.588C946.35 480.588 947.018 480.443 947.482 480.153C947.961 479.863 948.302 479.464 948.505 478.956H950.376C950.26 479.507 950.05 479.993 949.745 480.414C949.455 480.835 949.092 481.19 948.657 481.48C948.236 481.756 947.75 481.966 947.199 482.111C946.662 482.256 946.089 482.329 945.48 482.329ZM945.371 472.102C944.922 472.102 944.486 472.167 944.066 472.297C943.645 472.413 943.268 472.609 942.934 472.885C942.615 473.146 942.354 473.48 942.151 473.886C941.948 474.292 941.846 474.778 941.846 475.344H948.788C948.773 474.749 948.672 474.249 948.483 473.842C948.309 473.422 948.07 473.088 947.765 472.841C947.46 472.58 947.098 472.392 946.677 472.276C946.271 472.16 945.835 472.102 945.371 472.102ZM953.316 470.578H955.1V472.754C955.492 471.986 956.036 471.398 956.732 470.992C957.443 470.571 958.262 470.361 959.191 470.361C960.642 470.361 961.802 470.839 962.672 471.797C963.543 472.74 963.978 474.147 963.978 476.018V476.454C963.978 477.44 963.862 478.303 963.63 479.043C963.398 479.768 963.071 480.378 962.651 480.871C962.23 481.35 961.722 481.712 961.128 481.959C960.547 482.206 959.902 482.329 959.191 482.329C958.204 482.329 957.377 482.111 956.71 481.676C956.057 481.241 955.564 480.697 955.23 480.044V486.463H953.316V470.578ZM958.756 480.632C959.22 480.632 959.655 480.545 960.061 480.371C960.467 480.182 960.816 479.914 961.106 479.565C961.41 479.217 961.642 478.782 961.802 478.26C961.976 477.737 962.063 477.135 962.063 476.454V476.018C962.063 475.395 961.976 474.836 961.802 474.343C961.642 473.85 961.41 473.436 961.106 473.103C960.816 472.754 960.467 472.493 960.061 472.319C959.655 472.145 959.22 472.058 958.756 472.058C958.233 472.058 957.755 472.145 957.319 472.319C956.884 472.479 956.514 472.711 956.21 473.016C955.905 473.306 955.666 473.654 955.492 474.06C955.317 474.466 955.23 474.901 955.23 475.366V477.106C955.23 477.629 955.317 478.107 955.492 478.543C955.666 478.978 955.905 479.348 956.21 479.652C956.514 479.957 956.884 480.196 957.319 480.371C957.755 480.545 958.233 480.632 958.756 480.632ZM971.251 476.889C971.251 478.311 971.048 479.602 970.642 480.762C970.25 481.923 969.808 482.931 969.314 483.787C968.749 484.773 968.103 485.666 967.378 486.463H965.158C965.942 485.666 966.631 484.773 967.225 483.787C967.487 483.366 967.74 482.902 967.987 482.394C968.234 481.886 968.451 481.342 968.64 480.762C968.843 480.182 969.003 479.573 969.119 478.934C969.235 478.282 969.293 477.6 969.293 476.889V476.454C969.293 475.743 969.235 475.061 969.119 474.408C969.003 473.755 968.843 473.139 968.64 472.559C968.451 471.978 968.234 471.434 967.987 470.927C967.74 470.419 967.487 469.955 967.225 469.534C966.631 468.533 965.942 467.648 965.158 466.879H967.465C968.176 467.648 968.807 468.533 969.358 469.534C969.837 470.375 970.272 471.383 970.664 472.559C971.055 473.734 971.251 475.032 971.251 476.454V476.889Z" fill="black"/>
<rect x="100" y="412.611" width="1200" height="122" stroke="black"/>
<path d="M100 117.968V153.968" stroke="black"/>
<path d="M122.032 116.189H132.804V118.887H125.296V121.803H128.125C129.17 121.803 130.069 121.919 130.823 122.151C131.592 122.383 132.223 122.71 132.717 123.13C133.224 123.551 133.601 124.059 133.848 124.653C134.095 125.234 134.218 125.887 134.218 126.612C134.218 127.337 134.095 127.997 133.848 128.592C133.601 129.172 133.224 129.673 132.717 130.094C132.223 130.514 131.592 130.841 130.823 131.073C130.069 131.305 129.17 131.421 128.125 131.421H122.032V116.189ZM127.799 128.723C128.988 128.723 129.808 128.541 130.258 128.179C130.722 127.801 130.954 127.279 130.954 126.612C130.954 125.945 130.722 125.43 130.258 125.067C129.808 124.69 128.988 124.501 127.799 124.501H125.296V128.723H127.799ZM136.281 119.888H139.153V127.286L144.289 119.888H146.944V131.421H144.071V124.022L138.936 131.421H136.281V119.888ZM152.37 122.282H148.692V119.888H158.919V122.282H155.242V131.421H152.37V122.282ZM171.753 131.682C170.926 131.682 170.15 131.551 169.425 131.29C168.714 131.015 168.097 130.572 167.575 129.963C167.053 129.339 166.639 128.527 166.335 127.526C166.03 126.51 165.878 125.27 165.878 123.805V123.37C165.878 122.006 166.03 120.853 166.335 119.91C166.639 118.967 167.053 118.205 167.575 117.625C168.097 117.03 168.714 116.602 169.425 116.341C170.15 116.065 170.926 115.928 171.753 115.928C172.58 115.928 173.349 116.065 174.06 116.341C174.785 116.602 175.409 117.03 175.931 117.625C176.453 118.205 176.867 118.967 177.171 119.91C177.476 120.853 177.628 122.006 177.628 123.37V123.805C177.628 125.27 177.476 126.51 177.171 127.526C176.867 128.527 176.453 129.339 175.931 129.963C175.409 130.572 174.785 131.015 174.06 131.29C173.349 131.551 172.58 131.682 171.753 131.682ZM171.753 128.94C172.116 128.94 172.457 128.868 172.776 128.723C173.095 128.578 173.37 128.316 173.603 127.939C173.849 127.548 174.038 127.018 174.168 126.351C174.299 125.683 174.364 124.835 174.364 123.805V123.37C174.364 122.441 174.299 121.68 174.168 121.085C174.038 120.475 173.849 119.997 173.603 119.649C173.37 119.286 173.095 119.032 172.776 118.887C172.457 118.742 172.116 118.669 171.753 118.669C171.376 118.669 171.028 118.742 170.708 118.887C170.404 119.032 170.128 119.286 169.882 119.649C169.649 119.997 169.468 120.475 169.338 121.085C169.207 121.68 169.142 122.441 169.142 123.37V123.805C169.142 124.835 169.207 125.683 169.338 126.351C169.468 127.018 169.649 127.548 169.882 127.939C170.128 128.316 170.404 128.578 170.708 128.723C171.028 128.868 171.376 128.94 171.753 128.94Z" fill="black"/>
<path d="M140 161.515L120 149.968L140 138.421V161.515Z" fill="#FFBD6E"/>
<path d="M360 144.968L140 144.968V154.968L360 154.968V144.968Z" fill="#FFBD6E"/>
<path d="M360 161.515L380 149.968L360 138.421V161.515Z" fill="#FFBD6E"/>
<path d="M400 117.968V153.968" stroke="black"/>
<path d="M612.975 116.189H623.746V118.887H616.239V121.803H619.068C620.112 121.803 621.011 121.919 621.766 122.151C622.535 122.383 623.166 122.71 623.659 123.13C624.167 123.551 624.544 124.059 624.791 124.653C625.037 125.234 625.16 125.887 625.16 126.612C625.16 127.337 625.037 127.997 624.791 128.592C624.544 129.172 624.167 129.673 623.659 130.094C623.166 130.514 622.535 130.841 621.766 131.073C621.011 131.305 620.112 131.421 619.068 131.421H612.975V116.189ZM618.741 128.723C619.931 128.723 620.75 128.541 621.2 128.179C621.664 127.801 621.896 127.279 621.896 126.612C621.896 125.945 621.664 125.43 621.2 125.067C620.75 124.69 619.931 124.501 618.741 124.501H616.239V128.723H618.741ZM627.223 119.888H630.096V127.286L635.231 119.888H637.886V131.421H635.014V124.022L629.878 131.421H627.223V119.888ZM643.312 122.282H639.634V119.888H649.862V122.282H646.184V131.421H643.312V122.282ZM656.711 128.723H660.193V119.496L656.711 121.977V118.8L660.389 116.189H663.457V128.723H666.286V131.421H656.711V128.723ZM673.247 131.682C672.275 131.682 671.448 131.559 670.766 131.312C670.099 131.065 669.547 130.739 669.112 130.333C668.677 129.912 668.35 129.433 668.133 128.897C667.93 128.345 667.821 127.772 667.806 127.178H671.071C671.114 127.7 671.31 128.128 671.658 128.461C672.021 128.781 672.55 128.94 673.247 128.94C674.842 128.94 675.64 128.041 675.64 126.242C675.64 125.763 675.575 125.357 675.444 125.023C675.314 124.69 675.14 124.421 674.922 124.218C674.705 124.015 674.451 123.87 674.161 123.783C673.87 123.681 673.566 123.631 673.247 123.631C672.739 123.631 672.318 123.725 671.984 123.914C671.651 124.102 671.382 124.356 671.179 124.675H668.133V116.189H678.056V118.887H671.397V121.672C671.702 121.397 672.072 121.201 672.507 121.085C672.956 120.954 673.457 120.889 674.008 120.889C674.748 120.889 675.415 121.005 676.01 121.237C676.619 121.455 677.134 121.788 677.555 122.238C677.99 122.688 678.324 123.246 678.556 123.914C678.788 124.581 678.904 125.35 678.904 126.22C678.904 127.047 678.766 127.801 678.491 128.483C678.23 129.151 677.853 129.724 677.359 130.202C676.866 130.681 676.271 131.051 675.575 131.312C674.879 131.559 674.102 131.682 673.247 131.682Z" fill="black"/>
<path d="M440 161.515L420 149.968L440 138.421V161.515Z" fill="#FFBD6E"/>
<path d="M660 144.968L440 144.968V154.968L660 154.968V144.968Z" fill="#FFBD6E"/>
<path d="M660 161.515L680 149.968L660 138.421V161.515Z" fill="#FFBD6E"/>
<path d="M700 117.968V153.968" stroke="black"/>
<path d="M722.198 117.689H732.97V120.387H725.462V123.303H728.291C729.336 123.303 730.235 123.419 730.99 123.651C731.758 123.883 732.389 124.21 732.883 124.63C733.39 125.051 733.768 125.559 734.014 126.153C734.261 126.734 734.384 127.387 734.384 128.112C734.384 128.837 734.261 129.497 734.014 130.092C733.768 130.672 733.39 131.173 732.883 131.594C732.389 132.014 731.758 132.341 730.99 132.573C730.235 132.805 729.336 132.921 728.291 132.921H722.198V117.689ZM727.965 130.223C729.154 130.223 729.974 130.041 730.424 129.679C730.888 129.301 731.12 128.779 731.12 128.112C731.12 127.445 730.888 126.93 730.424 126.567C729.974 126.19 729.154 126.001 727.965 126.001H725.462V130.223H727.965ZM736.447 121.388H739.32V128.786L744.455 121.388H747.11V132.921H744.237V125.522L739.102 132.921H736.447V121.388ZM752.536 123.782H748.858V121.388H759.086V123.782H755.408V132.921H752.536V123.782ZM765.935 130.223H769.417V120.996L765.935 123.477V120.3L769.612 117.689H772.681V130.223H775.51V132.921H765.935V130.223ZM783.014 133.182C782.057 133.182 781.208 133.044 780.468 132.769C779.729 132.493 779.105 132.065 778.597 131.485C778.089 130.89 777.698 130.136 777.422 129.222C777.161 128.308 777.03 127.22 777.03 125.958V125.522C777.03 124.072 777.183 122.839 777.487 121.823C777.792 120.793 778.22 119.952 778.771 119.299C779.322 118.646 779.975 118.175 780.729 117.884C781.498 117.58 782.333 117.428 783.232 117.428C784.639 117.428 785.778 117.725 786.648 118.32C787.519 118.914 788.048 119.901 788.237 121.279H785.19C784.9 120.539 784.211 120.169 783.123 120.169C782.702 120.169 782.311 120.235 781.948 120.365C781.6 120.481 781.288 120.706 781.012 121.04C780.751 121.359 780.541 121.801 780.381 122.367C780.222 122.933 780.12 123.658 780.077 124.543C780.265 124.253 780.497 124.014 780.773 123.825C781.049 123.622 781.346 123.462 781.665 123.346C781.999 123.216 782.34 123.121 782.688 123.063C783.051 123.005 783.413 122.976 783.776 122.976C785.314 122.976 786.496 123.397 787.323 124.239C788.15 125.065 788.563 126.24 788.563 127.764V128.003C788.563 128.772 788.425 129.476 788.15 130.114C787.874 130.752 787.49 131.303 786.996 131.768C786.518 132.217 785.937 132.565 785.256 132.812C784.574 133.059 783.827 133.182 783.014 133.182ZM782.797 130.44C783.58 130.44 784.189 130.223 784.625 129.787C785.074 129.338 785.299 128.765 785.299 128.068V127.851C785.299 127.154 785.074 126.589 784.625 126.153C784.189 125.718 783.58 125.501 782.797 125.501C782.013 125.501 781.397 125.718 780.947 126.153C780.512 126.589 780.294 127.154 780.294 127.851V128.068C780.294 128.765 780.512 129.338 780.947 129.787C781.397 130.223 782.013 130.44 782.797 130.44Z" fill="black"/>
<path d="M740 160.015L720 148.468L740 136.921V160.015Z" fill="#FFBD6E"/>
<path d="M960 143.468L740 143.468V153.468L960 153.468V143.468Z" fill="#FFBD6E"/>
<path d="M960 160.015L980 148.468L960 136.921V160.015Z" fill="#FFBD6E"/>
<path d="M1000 117.968V153.968" stroke="black"/>
<path d="M1212.91 117.689H1223.68V120.387H1216.17V123.303H1219C1220.05 123.303 1220.95 123.419 1221.7 123.651C1222.47 123.883 1223.1 124.21 1223.6 124.63C1224.1 125.051 1224.48 125.559 1224.73 126.153C1224.97 126.734 1225.1 127.387 1225.1 128.112C1225.1 128.837 1224.97 129.497 1224.73 130.092C1224.48 130.672 1224.1 131.173 1223.6 131.594C1223.1 132.014 1222.47 132.341 1221.7 132.573C1220.95 132.805 1220.05 132.921 1219 132.921H1212.91V117.689ZM1218.68 130.223C1219.87 130.223 1220.69 130.041 1221.14 129.679C1221.6 129.301 1221.83 128.779 1221.83 128.112C1221.83 127.445 1221.6 126.93 1221.14 126.567C1220.69 126.19 1219.87 126.001 1218.68 126.001H1216.17V130.223H1218.68ZM1227.16 121.388H1230.03V128.786L1235.17 121.388H1237.82V132.921H1234.95V125.522L1229.81 132.921H1227.16V121.388ZM1243.25 123.782H1239.57V121.388H1249.8V123.782H1246.12V132.921H1243.25V123.782ZM1262.09 133.182C1260.23 133.182 1258.82 132.747 1257.87 131.876C1256.91 130.991 1256.43 129.78 1256.43 128.242H1259.69C1259.69 128.982 1259.88 129.534 1260.26 129.896C1260.65 130.259 1261.26 130.44 1262.09 130.44C1262.89 130.44 1263.48 130.266 1263.87 129.918C1264.28 129.555 1264.48 129.048 1264.48 128.395C1264.48 127.031 1263.68 126.349 1262.09 126.349H1260.67V123.825H1262.09C1262.78 123.825 1263.32 123.68 1263.7 123.39C1264.08 123.1 1264.26 122.65 1264.26 122.041C1264.26 121.489 1264.08 121.04 1263.72 120.692C1263.36 120.343 1262.81 120.169 1262.09 120.169C1261.35 120.169 1260.8 120.343 1260.43 120.692C1260.09 121.025 1259.91 121.511 1259.91 122.15H1256.65C1256.65 120.655 1257.1 119.495 1258 118.668C1258.91 117.841 1260.27 117.428 1262.09 117.428C1263 117.428 1263.8 117.536 1264.48 117.754C1265.16 117.957 1265.73 118.247 1266.18 118.624C1266.63 118.987 1266.96 119.422 1267.18 119.93C1267.41 120.438 1267.53 120.989 1267.53 121.584C1267.53 122.425 1267.29 123.143 1266.81 123.738C1266.35 124.318 1265.72 124.732 1264.94 124.978C1265.84 125.225 1266.53 125.653 1267.01 126.262C1267.5 126.872 1267.75 127.677 1267.75 128.678C1267.75 129.33 1267.61 129.932 1267.35 130.484C1267.09 131.035 1266.72 131.514 1266.22 131.92C1265.74 132.312 1265.15 132.624 1264.44 132.856C1263.74 133.073 1262.96 133.182 1262.09 133.182ZM1269.82 130.223H1273.3V120.996L1269.82 123.477V120.3L1273.5 117.689H1276.57V130.223H1279.4V132.921H1269.82V130.223Z" fill="black"/>
<path d="M1040 160.015L1020 148.468L1040 136.921V160.015Z" fill="#FFBD6E"/>
<path d="M1260 143.468L1040 143.468V153.468L1260 153.468V143.468Z" fill="#FFBD6E"/>
<path d="M1260 160.015L1280 148.468L1260 136.921V160.015Z" fill="#FFBD6E"/>
<path d="M1300 117.968V153.968" stroke="black"/>
<path d="M1358.3 169.421L1322.14 169.421" stroke="black"/>
<path d="M1358.7 412.369L1322.55 412.369" stroke="black"/>
<path d="M1372.41 299.63C1371.5 299.63 1370.67 299.529 1369.93 299.326C1369.21 299.108 1368.59 298.811 1368.08 298.433C1367.59 298.042 1367.21 297.578 1366.93 297.041C1366.67 296.49 1366.54 295.88 1366.54 295.213C1366.54 294.357 1366.8 293.595 1367.32 292.928C1367.84 292.246 1368.62 291.768 1369.65 291.492C1368.88 291.245 1368.24 290.817 1367.74 290.208C1367.23 289.599 1366.97 288.873 1366.97 288.032C1366.97 287.423 1367.09 286.864 1367.32 286.356C1367.57 285.849 1367.92 285.414 1368.39 285.051C1368.85 284.674 1369.42 284.384 1370.09 284.18C1370.77 283.977 1371.54 283.876 1372.41 283.876C1373.28 283.876 1374.05 283.977 1374.72 284.18C1375.4 284.384 1375.98 284.674 1376.44 285.051C1376.92 285.414 1377.27 285.849 1377.51 286.356C1377.75 286.864 1377.88 287.423 1377.88 288.032C1377.88 288.873 1377.62 289.591 1377.11 290.186C1376.61 290.767 1375.96 291.202 1375.18 291.492C1377.25 292.13 1378.29 293.371 1378.29 295.213C1378.29 295.88 1378.15 296.49 1377.88 297.041C1377.61 297.578 1377.23 298.042 1376.72 298.433C1376.23 298.811 1375.62 299.108 1374.89 299.326C1374.17 299.529 1373.34 299.63 1372.41 299.63ZM1372.41 296.888C1373.31 296.888 1373.97 296.714 1374.39 296.366C1374.81 296.018 1375.03 295.547 1375.03 294.952C1375.03 294.299 1374.78 293.784 1374.29 293.407C1373.81 293.015 1373.18 292.761 1372.41 292.645C1371.65 292.761 1371.01 293.015 1370.52 293.407C1370.04 293.784 1369.8 294.299 1369.8 294.952C1369.8 295.547 1370.02 296.018 1370.46 296.366C1370.89 296.714 1371.54 296.888 1372.41 296.888ZM1372.41 290.426C1373.07 290.31 1373.6 290.085 1374 289.751C1374.41 289.403 1374.61 288.924 1374.61 288.315C1374.61 287.749 1374.42 287.328 1374.02 287.053C1373.65 286.763 1373.11 286.618 1372.41 286.618C1371.73 286.618 1371.2 286.763 1370.8 287.053C1370.43 287.328 1370.24 287.749 1370.24 288.315C1370.24 288.924 1370.43 289.403 1370.83 289.751C1371.23 290.085 1371.76 290.31 1372.41 290.426ZM1391.23 299.63C1390.42 299.63 1389.67 299.492 1388.97 299.217C1388.29 298.941 1387.69 298.528 1387.19 297.976C1386.68 297.411 1386.28 296.722 1385.99 295.909C1385.71 295.082 1385.58 294.125 1385.58 293.037V292.536C1385.58 291.231 1385.67 290.07 1385.86 289.055C1386.06 288.039 1386.39 287.176 1386.84 286.465C1387.3 285.754 1387.91 285.203 1388.67 284.811C1389.44 284.405 1390.39 284.173 1391.54 284.115C1391.99 284.101 1392.43 284.086 1392.87 284.072C1393.3 284.057 1393.71 284.035 1394.11 284.006C1394.5 283.977 1394.85 283.934 1395.17 283.876C1395.49 283.803 1395.77 283.709 1396.02 283.593V286.139C1395.79 286.269 1395.35 286.378 1394.72 286.465C1394.09 286.552 1393.14 286.603 1391.87 286.618C1391.21 286.632 1390.65 286.712 1390.17 286.857C1389.7 286.988 1389.31 287.205 1388.99 287.51C1388.69 287.8 1388.44 288.184 1388.25 288.663C1388.08 289.142 1387.96 289.729 1387.88 290.426C1388.22 289.773 1388.72 289.243 1389.38 288.837C1390.05 288.431 1390.92 288.228 1392 288.228C1392.72 288.228 1393.38 288.344 1393.98 288.576C1394.57 288.794 1395.09 289.12 1395.52 289.555C1395.96 289.99 1396.29 290.527 1396.52 291.165C1396.77 291.804 1396.89 292.544 1396.89 293.385V293.798C1396.89 294.712 1396.75 295.532 1396.46 296.257C1396.18 296.983 1395.79 297.599 1395.28 298.107C1394.77 298.6 1394.17 298.977 1393.48 299.239C1392.79 299.5 1392.05 299.63 1391.23 299.63ZM1391.23 297.193C1392.1 297.193 1392.78 296.91 1393.26 296.344C1393.74 295.764 1393.98 294.945 1393.98 293.886V293.45C1393.98 292.536 1393.73 291.818 1393.24 291.296C1392.74 290.774 1392.08 290.513 1391.23 290.513C1390.41 290.513 1389.74 290.774 1389.23 291.296C1388.74 291.818 1388.49 292.536 1388.49 293.45V293.842C1388.49 294.364 1388.56 294.836 1388.69 295.256C1388.83 295.677 1389.03 296.033 1389.28 296.323C1389.52 296.598 1389.81 296.816 1390.15 296.976C1390.48 297.121 1390.84 297.193 1391.23 297.193ZM1402.41 299.63C1401.79 299.63 1401.24 299.543 1400.76 299.369C1400.28 299.181 1399.87 298.927 1399.54 298.608C1399.21 298.274 1398.95 297.889 1398.78 297.454C1398.6 297.005 1398.52 296.519 1398.52 295.996C1398.52 293.675 1399.9 292.515 1402.65 292.515H1406.09V291.971C1406.09 291.216 1405.92 290.687 1405.57 290.382C1405.23 290.077 1404.7 289.925 1403.96 289.925C1403.31 289.925 1402.83 290.041 1402.54 290.273C1402.25 290.491 1402.09 290.767 1402.04 291.1H1399.17C1399.2 290.607 1399.32 290.143 1399.54 289.708C1399.77 289.272 1400.09 288.902 1400.5 288.598C1400.92 288.279 1401.43 288.032 1402.02 287.858C1402.62 287.669 1403.3 287.575 1404.07 287.575C1404.81 287.575 1405.47 287.655 1406.07 287.814C1406.68 287.974 1407.19 288.235 1407.61 288.598C1408.05 288.946 1408.38 289.403 1408.61 289.969C1408.85 290.534 1408.96 291.216 1408.96 292.014V296.431C1408.96 297.041 1408.97 297.578 1408.98 298.042C1409.01 298.491 1409.06 298.934 1409.12 299.369H1406.44C1406.38 299.05 1406.34 298.811 1406.33 298.651C1406.33 298.477 1406.33 298.223 1406.33 297.889C1406.01 298.354 1405.52 298.76 1404.87 299.108C1404.23 299.456 1403.41 299.63 1402.41 299.63ZM1403.31 297.411C1403.65 297.411 1403.99 297.367 1404.33 297.28C1404.66 297.179 1404.96 297.034 1405.22 296.845C1405.48 296.642 1405.69 296.388 1405.85 296.083C1406.01 295.779 1406.09 295.423 1406.09 295.017V294.473H1403.2C1402.65 294.473 1402.21 294.604 1401.89 294.865C1401.59 295.111 1401.43 295.452 1401.43 295.887C1401.43 296.352 1401.59 296.722 1401.91 296.997C1402.23 297.273 1402.7 297.411 1403.31 297.411ZM1411.47 287.836H1414.34V295.235L1419.48 287.836H1422.13V299.369H1419.26V291.971L1414.12 299.369H1411.47V287.836ZM1416.8 286.639C1415.51 286.639 1414.57 286.364 1413.97 285.812C1413.39 285.261 1413.1 284.449 1413.1 283.375H1415.65C1415.65 283.941 1415.74 284.34 1415.93 284.572C1416.13 284.79 1416.42 284.899 1416.8 284.899C1417.21 284.899 1417.5 284.79 1417.69 284.572C1417.9 284.34 1418 283.941 1418 283.375H1420.5C1420.5 284.449 1420.2 285.261 1419.61 285.812C1419.03 286.364 1418.09 286.639 1416.8 286.639ZM1427.56 290.23H1423.88V287.836H1434.11V290.23H1430.43V299.369H1427.56V290.23Z" fill="black"/>
<path d="M1328.55 200.369L1340.1 180.369L1351.64 200.369L1328.55 200.369Z" fill="#FFBD6E"/>
<path d="M1345.1 382.369L1345.1 200.369L1335.1 200.369L1335.1 382.369L1345.1 382.369Z" fill="#FFBD6E"/>
<path d="M1328.55 382.369L1340.1 402.369L1351.64 382.369L1328.55 382.369Z" fill="#FFBD6E"/>
</svg>
