<svg width="793" height="470" viewBox="0 0 793 470" fill="none" xmlns="http://www.w3.org/2000/svg">
<path d="M378.178 366.218C377.265 366.218 376.438 366.087 375.698 365.826C374.972 365.565 374.349 365.166 373.826 364.629C373.304 364.092 372.898 363.418 372.608 362.605C372.332 361.778 372.194 360.807 372.194 359.689V350.768H374.24V359.689C374.24 361.343 374.588 362.54 375.284 363.28C375.981 364.02 376.945 364.39 378.178 364.39C379.412 364.39 380.376 364.02 381.073 363.28C381.769 362.54 382.117 361.343 382.117 359.689V350.768H384.163V359.689C384.163 360.807 384.018 361.778 383.727 362.605C383.452 363.418 383.053 364.092 382.531 364.629C382.008 365.166 381.377 365.565 380.637 365.826C379.912 366.087 379.092 366.218 378.178 366.218ZM388.307 350.768H393.639C394.596 350.768 395.43 350.884 396.141 351.116C396.866 351.348 397.468 351.667 397.947 352.073C398.426 352.48 398.788 352.966 399.035 353.531C399.282 354.083 399.405 354.685 399.405 355.337C399.405 356.353 399.1 357.245 398.491 358.014C397.896 358.768 397.011 359.298 395.836 359.602L399.84 366H397.425L393.791 359.864H390.353V366H388.307V350.768ZM393.421 358.123C394.828 358.123 395.836 357.869 396.446 357.361C397.055 356.839 397.36 356.164 397.36 355.337C397.36 354.511 397.055 353.843 396.446 353.335C395.836 352.813 394.828 352.552 393.421 352.552H390.353V358.123H393.421ZM403.315 350.768H405.361V366H403.315V350.768Z" fill="#4C89BE"/>
<path d="M364.333 191.218C363.419 191.218 362.593 191.087 361.853 190.826C361.127 190.565 360.504 190.166 359.981 189.629C359.459 189.092 359.053 188.418 358.763 187.605C358.487 186.778 358.349 185.807 358.349 184.689V175.768H360.395V184.689C360.395 186.343 360.743 187.54 361.439 188.28C362.136 189.02 363.1 189.39 364.333 189.39C365.566 189.39 366.531 189.02 367.228 188.28C367.924 187.54 368.272 186.343 368.272 184.689V175.768H370.317V184.689C370.317 185.807 370.172 186.778 369.882 187.605C369.607 188.418 369.208 189.092 368.685 189.629C368.163 190.166 367.532 190.565 366.792 190.826C366.067 191.087 365.247 191.218 364.333 191.218ZM374.462 175.768H379.793C380.751 175.768 381.585 175.884 382.296 176.116C383.021 176.348 383.623 176.667 384.102 177.073C384.581 177.48 384.943 177.966 385.19 178.531C385.437 179.083 385.56 179.685 385.56 180.337C385.56 181.353 385.255 182.245 384.646 183.014C384.051 183.768 383.166 184.298 381.991 184.602L385.995 191H383.58L379.946 184.864H376.508V191H374.462V175.768ZM379.576 183.123C380.983 183.123 381.991 182.869 382.601 182.361C383.21 181.839 383.514 181.164 383.514 180.337C383.514 179.511 383.21 178.843 382.601 178.335C381.991 177.813 380.983 177.552 379.576 177.552H376.508V183.123H379.576ZM389.252 175.768H391.254L399.436 187.627V175.768H401.438V191H399.436L391.254 179.141V191H389.252V175.768Z" fill="#58A982"/>
<path d="M289.088 121.218C288.174 121.218 287.347 121.087 286.607 120.826C285.882 120.565 285.258 120.166 284.736 119.629C284.214 119.092 283.807 118.418 283.517 117.605C283.242 116.778 283.104 115.807 283.104 114.689V105.768H285.149V114.689C285.149 116.343 285.497 117.54 286.194 118.28C286.89 119.02 287.855 119.39 289.088 119.39C290.321 119.39 291.286 119.02 291.982 118.28C292.678 117.54 293.026 116.343 293.026 114.689V105.768H295.072V114.689C295.072 115.807 294.927 116.778 294.637 117.605C294.361 118.418 293.962 119.092 293.44 119.629C292.918 120.166 292.287 120.565 291.547 120.826C290.821 121.087 290.002 121.218 289.088 121.218ZM299.217 105.768H304.548C305.505 105.768 306.34 105.884 307.05 106.116C307.776 106.348 308.378 106.667 308.856 107.073C309.335 107.48 309.698 107.966 309.944 108.531C310.191 109.083 310.314 109.685 310.314 110.337C310.314 111.353 310.01 112.245 309.4 113.014C308.806 113.768 307.921 114.298 306.746 114.602L310.75 121H308.334L304.7 114.864H301.262V121H299.217V105.768ZM304.33 113.123C305.737 113.123 306.746 112.869 307.355 112.361C307.964 111.839 308.269 111.164 308.269 110.337C308.269 109.511 307.964 108.843 307.355 108.335C306.746 107.813 305.737 107.552 304.33 107.552H301.262V113.123H304.33ZM314.007 105.768H316.052V119.216H323.799V121H314.007V105.768ZM325.111 114.015H331.64V115.799H325.111V114.015ZM337.534 121.218C336.896 121.218 336.33 121.131 335.837 120.956C335.358 120.768 334.952 120.514 334.618 120.195C334.284 119.876 334.031 119.499 333.857 119.063C333.682 118.628 333.595 118.149 333.595 117.627C333.595 116.481 333.929 115.654 334.596 115.146C335.278 114.639 336.25 114.385 337.512 114.385H341.255V113.601C341.255 112.615 341.03 111.933 340.58 111.556C340.145 111.179 339.485 110.99 338.6 110.99C337.773 110.99 337.171 111.15 336.794 111.469C336.417 111.774 336.207 112.122 336.163 112.513H334.248C334.277 112.049 334.401 111.621 334.618 111.23C334.85 110.823 335.155 110.475 335.532 110.185C335.924 109.895 336.388 109.67 336.925 109.511C337.462 109.336 338.056 109.249 338.709 109.249C340.073 109.249 341.154 109.576 341.951 110.229C342.764 110.867 343.17 111.919 343.17 113.384V118.062C343.17 118.672 343.17 119.208 343.17 119.673C343.184 120.122 343.221 120.565 343.279 121H341.603C341.56 120.666 341.531 120.354 341.516 120.064C341.502 119.76 341.494 119.419 341.494 119.042C341.19 119.651 340.697 120.166 340.015 120.587C339.333 121.007 338.506 121.218 337.534 121.218ZM337.947 119.477C338.397 119.477 338.818 119.419 339.21 119.303C339.616 119.172 339.971 118.991 340.276 118.759C340.58 118.512 340.82 118.215 340.994 117.867C341.168 117.518 341.255 117.112 341.255 116.648V115.865H337.839C337.128 115.865 336.569 116.01 336.163 116.3C335.757 116.575 335.554 117.018 335.554 117.627C335.554 118.164 335.742 118.606 336.12 118.955C336.511 119.303 337.121 119.477 337.947 119.477ZM345.247 119.303H346.661C346.821 119.085 346.966 118.751 347.096 118.302C347.227 117.852 347.343 117.323 347.444 116.713C347.546 116.104 347.618 115.444 347.662 114.733C347.72 114.008 347.749 113.268 347.749 112.513V109.467H355.8V119.303H357.432V123.72H355.604V121H347.074V123.72H345.247V119.303ZM353.885 119.303V111.164H349.62V112.949C349.62 113.558 349.599 114.167 349.555 114.777C349.512 115.371 349.446 115.944 349.359 116.496C349.272 117.032 349.163 117.547 349.033 118.041C348.917 118.519 348.779 118.94 348.619 119.303H353.885ZM359.727 109.467H361.512V111.643C361.903 110.874 362.447 110.287 363.144 109.88C363.855 109.46 364.674 109.249 365.603 109.249C367.053 109.249 368.214 109.728 369.084 110.686C369.955 111.629 370.39 113.036 370.39 114.907V115.342C370.39 116.329 370.274 117.192 370.042 117.932C369.81 118.657 369.483 119.266 369.063 119.76C368.642 120.238 368.134 120.601 367.539 120.848C366.959 121.094 366.314 121.218 365.603 121.218C364.616 121.218 363.789 121 363.122 120.565C362.469 120.13 361.976 119.586 361.642 118.933V125.352H359.727V109.467ZM365.167 119.52C365.632 119.52 366.067 119.433 366.473 119.259C366.879 119.071 367.227 118.802 367.518 118.454C367.822 118.106 368.054 117.671 368.214 117.148C368.388 116.626 368.475 116.024 368.475 115.342V114.907C368.475 114.283 368.388 113.725 368.214 113.232C368.054 112.738 367.822 112.325 367.518 111.991C367.227 111.643 366.879 111.382 366.473 111.208C366.067 111.034 365.632 110.947 365.167 110.947C364.645 110.947 364.166 111.034 363.731 111.208C363.296 111.367 362.926 111.6 362.622 111.904C362.317 112.194 362.078 112.542 361.903 112.949C361.729 113.355 361.642 113.79 361.642 114.254V115.995C361.642 116.517 361.729 116.996 361.903 117.431C362.078 117.867 362.317 118.236 362.622 118.541C362.926 118.846 363.296 119.085 363.731 119.259C364.166 119.433 364.645 119.52 365.167 119.52ZM377.902 121.218C377.163 121.218 376.459 121.102 375.792 120.869C375.124 120.637 374.537 120.282 374.029 119.803C373.521 119.31 373.115 118.693 372.81 117.954C372.506 117.214 372.353 116.343 372.353 115.342V114.907C372.353 113.95 372.499 113.123 372.789 112.426C373.079 111.716 373.463 111.128 373.942 110.664C374.435 110.185 375.001 109.83 375.639 109.598C376.292 109.365 376.974 109.249 377.685 109.249C379.382 109.249 380.695 109.714 381.623 110.642C382.552 111.571 383.016 112.883 383.016 114.581V115.799H374.268C374.268 116.481 374.377 117.054 374.595 117.518C374.812 117.983 375.095 118.36 375.443 118.65C375.792 118.94 376.176 119.15 376.597 119.281C377.032 119.411 377.467 119.477 377.902 119.477C378.773 119.477 379.44 119.332 379.904 119.042C380.383 118.751 380.724 118.352 380.927 117.845H382.798C382.682 118.396 382.472 118.882 382.167 119.303C381.877 119.723 381.515 120.079 381.079 120.369C380.659 120.645 380.173 120.855 379.621 121C379.085 121.145 378.512 121.218 377.902 121.218ZM377.794 110.99C377.344 110.99 376.909 111.056 376.488 111.186C376.067 111.302 375.69 111.498 375.356 111.774C375.037 112.035 374.776 112.368 374.573 112.775C374.37 113.181 374.268 113.667 374.268 114.233H381.21C381.195 113.638 381.094 113.137 380.905 112.731C380.731 112.31 380.492 111.977 380.187 111.73C379.883 111.469 379.52 111.28 379.099 111.164C378.693 111.048 378.258 110.99 377.794 110.99ZM390.199 121.218C389.459 121.218 388.77 121.102 388.131 120.869C387.493 120.623 386.942 120.26 386.478 119.781C386.013 119.288 385.644 118.672 385.368 117.932C385.107 117.192 384.976 116.329 384.976 115.342V114.907C384.976 113.979 385.121 113.159 385.411 112.448C385.702 111.737 386.086 111.15 386.565 110.686C387.043 110.207 387.595 109.851 388.218 109.619C388.857 109.373 389.517 109.249 390.199 109.249C390.881 109.249 391.49 109.344 392.027 109.532C392.578 109.721 393.049 109.982 393.441 110.316C393.847 110.649 394.174 111.041 394.42 111.491C394.681 111.94 394.87 112.426 394.986 112.949H393.028C392.911 112.673 392.774 112.419 392.614 112.187C392.469 111.94 392.28 111.73 392.048 111.556C391.831 111.382 391.57 111.244 391.265 111.143C390.96 111.041 390.605 110.99 390.199 110.99C389.778 110.99 389.372 111.07 388.98 111.23C388.588 111.375 388.24 111.607 387.936 111.926C387.631 112.231 387.384 112.63 387.196 113.123C387.022 113.616 386.935 114.211 386.935 114.907V115.342C386.935 116.082 387.022 116.72 387.196 117.257C387.384 117.779 387.631 118.207 387.936 118.541C388.24 118.86 388.588 119.1 388.98 119.259C389.372 119.404 389.778 119.477 390.199 119.477C390.91 119.477 391.504 119.303 391.983 118.955C392.476 118.606 392.824 118.128 393.028 117.518H394.986C394.71 118.664 394.145 119.571 393.289 120.238C392.433 120.891 391.403 121.218 390.199 121.218Z" fill="#E87F53"/>
<path d="M594.506 193.064C593.389 193.064 592.388 192.905 591.504 192.586C590.619 192.266 589.872 191.817 589.262 191.236C588.653 190.642 588.181 189.938 587.848 189.126C587.529 188.299 587.369 187.385 587.369 186.384V185.949C587.369 185.064 587.529 184.237 587.848 183.468C588.181 182.699 588.653 182.039 589.262 181.488C589.872 180.937 590.619 180.501 591.504 180.182C592.388 179.863 593.389 179.703 594.506 179.703V178.115H596.552V179.703C597.669 179.703 598.67 179.863 599.555 180.182C600.44 180.501 601.187 180.937 601.796 181.488C602.405 182.039 602.87 182.699 603.189 183.468C603.523 184.237 603.689 185.064 603.689 185.949V186.384C603.689 187.385 603.523 188.299 603.189 189.126C602.87 189.938 602.405 190.642 601.796 191.236C601.187 191.817 600.44 192.266 599.555 192.586C598.67 192.905 597.669 193.064 596.552 193.064V194.653H594.506V193.064ZM601.513 185.949C601.513 185.325 601.405 184.745 601.187 184.208C600.969 183.671 600.65 183.207 600.229 182.815C599.809 182.409 599.287 182.097 598.663 181.879C598.053 181.647 597.35 181.531 596.552 181.531V191.236C597.35 191.236 598.053 191.12 598.663 190.888C599.287 190.656 599.809 190.33 600.229 189.909C600.65 189.488 600.969 188.981 601.187 188.386C601.405 187.791 601.513 187.124 601.513 186.384V185.949ZM589.545 186.384C589.545 187.124 589.654 187.791 589.872 188.386C590.089 188.981 590.408 189.488 590.829 189.909C591.25 190.33 591.765 190.656 592.374 190.888C592.998 191.12 593.709 191.236 594.506 191.236V181.531C593.709 181.531 592.998 181.647 592.374 181.879C591.765 182.097 591.25 182.409 590.829 182.815C590.408 183.207 590.089 183.671 589.872 184.208C589.654 184.745 589.545 185.325 589.545 185.949V186.384ZM606.635 182.467H608.419V184.643C608.811 183.874 609.355 183.287 610.051 182.88C610.762 182.46 611.581 182.249 612.51 182.249C613.961 182.249 615.121 182.728 615.992 183.686C616.862 184.629 617.297 186.036 617.297 187.907V188.342C617.297 189.329 617.181 190.192 616.949 190.932C616.717 191.657 616.391 192.266 615.97 192.76C615.549 193.238 615.041 193.601 614.447 193.848C613.866 194.094 613.221 194.218 612.51 194.218C611.523 194.218 610.697 194 610.029 193.565C609.376 193.13 608.883 192.586 608.55 191.933V198.352H606.635V182.467ZM612.075 192.52C612.539 192.52 612.974 192.433 613.38 192.259C613.787 192.071 614.135 191.802 614.425 191.454C614.729 191.106 614.962 190.671 615.121 190.148C615.295 189.626 615.382 189.024 615.382 188.342V187.907C615.382 187.283 615.295 186.725 615.121 186.232C614.962 185.738 614.729 185.325 614.425 184.991C614.135 184.643 613.787 184.382 613.38 184.208C612.974 184.034 612.539 183.947 612.075 183.947C611.552 183.947 611.074 184.034 610.639 184.208C610.203 184.367 609.833 184.6 609.529 184.904C609.224 185.194 608.985 185.542 608.811 185.949C608.637 186.355 608.55 186.79 608.55 187.254V188.995C608.55 189.517 608.637 189.996 608.811 190.431C608.985 190.867 609.224 191.236 609.529 191.541C609.833 191.846 610.203 192.085 610.639 192.259C611.074 192.433 611.552 192.52 612.075 192.52ZM623.308 194.218C622.67 194.218 622.104 194.131 621.611 193.956C621.132 193.768 620.726 193.514 620.392 193.195C620.059 192.876 619.805 192.499 619.631 192.063C619.457 191.628 619.37 191.149 619.37 190.627C619.37 189.481 619.703 188.654 620.371 188.146C621.052 187.639 622.024 187.385 623.286 187.385H627.029V186.601C627.029 185.615 626.804 184.933 626.355 184.556C625.919 184.179 625.259 183.99 624.374 183.99C623.548 183.99 622.946 184.15 622.568 184.469C622.191 184.774 621.981 185.122 621.937 185.513H620.022C620.051 185.049 620.175 184.621 620.392 184.23C620.624 183.823 620.929 183.475 621.306 183.185C621.698 182.895 622.162 182.67 622.699 182.511C623.236 182.336 623.83 182.249 624.483 182.249C625.847 182.249 626.928 182.576 627.726 183.229C628.538 183.867 628.944 184.919 628.944 186.384V191.062C628.944 191.672 628.944 192.208 628.944 192.673C628.959 193.122 628.995 193.565 629.053 194H627.377C627.334 193.666 627.305 193.354 627.29 193.064C627.276 192.76 627.269 192.419 627.269 192.042C626.964 192.651 626.471 193.166 625.789 193.587C625.107 194.007 624.28 194.218 623.308 194.218ZM623.722 192.477C624.171 192.477 624.592 192.419 624.984 192.303C625.39 192.172 625.745 191.991 626.05 191.759C626.355 191.512 626.594 191.215 626.768 190.867C626.942 190.518 627.029 190.112 627.029 189.648V188.865H623.613C622.902 188.865 622.343 189.01 621.937 189.3C621.531 189.575 621.328 190.018 621.328 190.627C621.328 191.164 621.517 191.606 621.894 191.955C622.285 192.303 622.895 192.477 623.722 192.477ZM632.326 182.467H640.16V184.164H634.241V194H632.326V182.467ZM642.335 182.467H644.381L648.493 189.648L652.606 182.467H654.521V194H652.606V185.622L649.19 191.498H647.667L644.25 185.622V194H642.335V182.467ZM662.784 194.218C662.044 194.218 661.341 194.102 660.673 193.869C660.006 193.637 659.418 193.282 658.911 192.803C658.403 192.31 657.997 191.693 657.692 190.954C657.387 190.214 657.235 189.343 657.235 188.342V187.907C657.235 186.95 657.38 186.123 657.67 185.426C657.96 184.716 658.345 184.128 658.824 183.664C659.317 183.185 659.883 182.83 660.521 182.598C661.174 182.365 661.856 182.249 662.566 182.249C664.264 182.249 665.577 182.714 666.505 183.642C667.433 184.571 667.898 185.883 667.898 187.581V188.799H659.15C659.15 189.481 659.259 190.054 659.476 190.518C659.694 190.983 659.977 191.36 660.325 191.65C660.673 191.94 661.058 192.15 661.478 192.281C661.914 192.411 662.349 192.477 662.784 192.477C663.654 192.477 664.322 192.332 664.786 192.042C665.265 191.751 665.606 191.352 665.809 190.845H667.68C667.564 191.396 667.354 191.882 667.049 192.303C666.759 192.723 666.396 193.079 665.961 193.369C665.54 193.645 665.054 193.855 664.503 194C663.966 194.145 663.393 194.218 662.784 194.218ZM662.675 183.99C662.225 183.99 661.79 184.056 661.37 184.186C660.949 184.302 660.572 184.498 660.238 184.774C659.919 185.035 659.658 185.368 659.455 185.775C659.252 186.181 659.15 186.667 659.15 187.233H666.092C666.077 186.638 665.976 186.137 665.787 185.731C665.613 185.31 665.373 184.977 665.069 184.73C664.764 184.469 664.402 184.28 663.981 184.164C663.575 184.048 663.139 183.99 662.675 183.99ZM670.619 182.467H672.534V187.276H678.497V182.467H680.412V194H678.497V188.973H672.534V194H670.619V182.467ZM686.534 184.164H682.595V182.467H692.387V184.164H688.449V194H686.534V184.164Z" fill="#CD859B"/>
<path d="M102.087 268.768H104.002V274.534C104.147 274.23 104.336 273.939 104.568 273.664C104.8 273.388 105.076 273.149 105.395 272.946C105.714 272.728 106.077 272.561 106.483 272.445C106.889 272.315 107.332 272.249 107.81 272.249C109.261 272.249 110.335 272.641 111.031 273.424C111.742 274.193 112.097 275.325 112.097 276.819V284H110.182V277.254C110.182 276.181 109.957 275.368 109.508 274.817C109.058 274.266 108.304 273.99 107.245 273.99C106.679 273.99 106.186 274.085 105.765 274.273C105.359 274.462 105.025 274.708 104.764 275.013C104.503 275.318 104.307 275.666 104.176 276.057C104.06 276.449 104.002 276.848 104.002 277.254V284H102.087V268.768ZM119.506 284.109C118.273 284.109 117.381 283.833 116.829 283.282C116.293 282.716 116.024 281.867 116.024 280.736V274.164H114.283V272.467H116.024V269.856H117.939V272.467H121.029V274.164H117.939V280.518C117.939 281.171 118.077 281.643 118.353 281.933C118.628 282.223 119.158 282.368 119.941 282.368C120.376 282.368 120.812 282.346 121.247 282.303V284C120.971 284.029 120.695 284.051 120.42 284.065C120.144 284.094 119.84 284.109 119.506 284.109ZM128.006 284.109C126.773 284.109 125.881 283.833 125.33 283.282C124.793 282.716 124.524 281.867 124.524 280.736V274.164H122.784V272.467H124.524V269.856H126.439V272.467H129.529V274.164H126.439V280.518C126.439 281.171 126.577 281.643 126.853 281.933C127.128 282.223 127.658 282.368 128.441 282.368C128.876 282.368 129.312 282.346 129.747 282.303V284C129.471 284.029 129.196 284.051 128.92 284.065C128.644 284.094 128.34 284.109 128.006 284.109ZM132.475 272.467H134.26V274.643C134.651 273.874 135.195 273.287 135.892 272.88C136.603 272.46 137.422 272.249 138.351 272.249C139.801 272.249 140.962 272.728 141.832 273.686C142.703 274.629 143.138 276.036 143.138 277.907V278.342C143.138 279.329 143.022 280.192 142.79 280.932C142.558 281.657 142.231 282.266 141.811 282.76C141.39 283.238 140.882 283.601 140.287 283.848C139.707 284.094 139.062 284.218 138.351 284.218C137.364 284.218 136.537 284 135.87 283.565C135.217 283.13 134.724 282.586 134.39 281.933V288.352H132.475V272.467ZM137.916 282.52C138.38 282.52 138.815 282.433 139.221 282.259C139.627 282.071 139.976 281.802 140.266 281.454C140.57 281.106 140.802 280.671 140.962 280.148C141.136 279.626 141.223 279.024 141.223 278.342V277.907C141.223 277.283 141.136 276.725 140.962 276.232C140.802 275.738 140.57 275.325 140.266 274.991C139.976 274.643 139.627 274.382 139.221 274.208C138.815 274.034 138.38 273.947 137.916 273.947C137.393 273.947 136.915 274.034 136.479 274.208C136.044 274.367 135.674 274.6 135.37 274.904C135.065 275.194 134.826 275.542 134.651 275.949C134.477 276.355 134.39 276.79 134.39 277.254V278.995C134.39 279.517 134.477 279.996 134.651 280.431C134.826 280.867 135.065 281.236 135.37 281.541C135.674 281.846 136.044 282.085 136.479 282.259C136.915 282.433 137.393 282.52 137.916 282.52ZM149.889 284.218C149.12 284.218 148.453 284.131 147.887 283.956C147.336 283.768 146.864 283.521 146.472 283.217C146.081 282.912 145.776 282.557 145.559 282.15C145.341 281.744 145.189 281.309 145.102 280.845H147.016C147.118 281.309 147.386 281.715 147.822 282.063C148.271 282.397 148.96 282.564 149.889 282.564C150.426 282.564 150.875 282.52 151.238 282.433C151.601 282.332 151.891 282.208 152.108 282.063C152.34 281.904 152.507 281.722 152.609 281.519C152.71 281.302 152.761 281.077 152.761 280.845C152.761 280.598 152.71 280.381 152.609 280.192C152.522 280.003 152.355 279.837 152.108 279.691C151.876 279.532 151.55 279.394 151.129 279.278C150.723 279.147 150.208 279.039 149.584 278.952C148.946 278.865 148.366 278.741 147.843 278.582C147.336 278.408 146.9 278.183 146.538 277.907C146.19 277.631 145.914 277.305 145.711 276.928C145.522 276.536 145.428 276.065 145.428 275.513C145.428 275.078 145.522 274.665 145.711 274.273C145.899 273.881 146.182 273.533 146.559 273.229C146.937 272.924 147.401 272.685 147.952 272.511C148.503 272.336 149.149 272.249 149.889 272.249C150.571 272.249 151.165 272.344 151.673 272.532C152.181 272.706 152.609 272.946 152.957 273.25C153.32 273.555 153.603 273.91 153.806 274.317C154.009 274.723 154.154 275.158 154.241 275.622H152.326C152.21 275.115 151.963 274.701 151.586 274.382C151.209 274.063 150.643 273.903 149.889 273.903C148.946 273.903 148.286 274.063 147.909 274.382C147.531 274.687 147.343 275.064 147.343 275.513C147.343 275.775 147.386 275.999 147.473 276.188C147.575 276.377 147.735 276.543 147.952 276.689C148.184 276.834 148.482 276.957 148.844 277.058C149.221 277.145 149.686 277.225 150.237 277.298C150.948 277.385 151.579 277.515 152.13 277.689C152.681 277.849 153.146 278.074 153.523 278.364C153.9 278.64 154.183 278.981 154.371 279.387C154.575 279.793 154.676 280.279 154.676 280.845C154.676 281.309 154.575 281.744 154.371 282.15C154.183 282.557 153.893 282.912 153.501 283.217C153.109 283.521 152.609 283.768 152 283.956C151.405 284.131 150.701 284.218 149.889 284.218ZM158.925 284.218C158.505 284.218 158.142 284.073 157.837 283.782C157.547 283.478 157.402 283.115 157.402 282.694C157.402 282.259 157.547 281.896 157.837 281.606C158.142 281.316 158.505 281.171 158.925 281.171C159.346 281.171 159.701 281.316 159.992 281.606C160.296 281.896 160.449 282.259 160.449 282.694C160.449 283.115 160.296 283.478 159.992 283.782C159.701 284.073 159.346 284.218 158.925 284.218ZM158.925 275.296C158.505 275.296 158.142 275.151 157.837 274.861C157.547 274.556 157.402 274.193 157.402 273.773C157.402 273.337 157.547 272.975 157.837 272.685C158.142 272.394 158.505 272.249 158.925 272.249C159.346 272.249 159.701 272.394 159.992 272.685C160.296 272.975 160.449 273.337 160.449 273.773C160.449 274.193 160.296 274.556 159.992 274.861C159.701 275.151 159.346 275.296 158.925 275.296ZM169.932 268.768H171.76L164.883 288.352H163.056L169.932 268.768ZM180.387 268.768H182.215L175.339 288.352H173.511L180.387 268.768ZM183.748 272.467H185.837L188.057 281.389L191.06 272.467H192.757L195.869 281.389L198.067 272.467H200.069L196.913 284H194.998L191.865 275.078L188.818 284H186.904L183.748 272.467ZM201.577 272.467H203.666L205.886 281.389L208.889 272.467H210.586L213.698 281.389L215.896 272.467H217.898L214.742 284H212.827L209.694 275.078L206.647 284H204.733L201.577 272.467ZM219.406 272.467H221.495L223.715 281.389L226.718 272.467H228.415L231.527 281.389L233.725 272.467H235.727L232.571 284H230.656L227.523 275.078L224.476 284H222.562L219.406 272.467ZM238.763 284.218C238.342 284.218 237.979 284.073 237.675 283.782C237.385 283.478 237.24 283.115 237.24 282.694C237.24 282.259 237.385 281.896 237.675 281.606C237.979 281.316 238.342 281.171 238.763 281.171C239.184 281.171 239.539 281.316 239.829 281.606C240.134 281.896 240.286 282.259 240.286 282.694C240.286 283.115 240.134 283.478 239.829 283.782C239.539 284.073 239.184 284.218 238.763 284.218ZM248.126 284.218C247.386 284.218 246.682 284.102 246.015 283.869C245.348 283.637 244.76 283.282 244.252 282.803C243.745 282.31 243.338 281.693 243.034 280.954C242.729 280.214 242.577 279.343 242.577 278.342V277.907C242.577 276.95 242.722 276.123 243.012 275.426C243.302 274.716 243.687 274.128 244.165 273.664C244.659 273.185 245.224 272.83 245.863 272.598C246.515 272.365 247.197 272.249 247.908 272.249C249.605 272.249 250.918 272.714 251.847 273.642C252.775 274.571 253.239 275.883 253.239 277.581V278.799H244.492C244.492 279.481 244.601 280.054 244.818 280.518C245.036 280.983 245.319 281.36 245.667 281.65C246.015 281.94 246.399 282.15 246.82 282.281C247.255 282.411 247.691 282.477 248.126 282.477C248.996 282.477 249.663 282.332 250.128 282.042C250.606 281.751 250.947 281.352 251.15 280.845H253.022C252.906 281.396 252.695 281.882 252.391 282.303C252.101 282.723 251.738 283.079 251.303 283.369C250.882 283.645 250.396 283.855 249.845 284C249.308 284.145 248.735 284.218 248.126 284.218ZM248.017 273.99C247.567 273.99 247.132 274.056 246.711 274.186C246.291 274.302 245.913 274.498 245.58 274.774C245.261 275.035 245 275.368 244.796 275.775C244.593 276.181 244.492 276.667 244.492 277.233H251.433C251.419 276.638 251.317 276.137 251.129 275.731C250.955 275.31 250.715 274.977 250.411 274.73C250.106 274.469 249.743 274.28 249.323 274.164C248.916 274.048 248.481 273.99 248.017 273.99ZM258.67 278.146L254.557 272.467H256.777L259.823 276.667L262.869 272.467H265.002L260.889 278.038L265.22 284H262.956L259.736 279.496L256.515 284H254.339L258.67 278.146ZM270.573 284.218C269.935 284.218 269.369 284.131 268.876 283.956C268.397 283.768 267.991 283.514 267.658 283.195C267.324 282.876 267.07 282.499 266.896 282.063C266.722 281.628 266.635 281.149 266.635 280.627C266.635 279.481 266.968 278.654 267.636 278.146C268.318 277.639 269.29 277.385 270.552 277.385H274.294V276.601C274.294 275.615 274.07 274.933 273.62 274.556C273.185 274.179 272.525 273.99 271.64 273.99C270.813 273.99 270.211 274.15 269.834 274.469C269.456 274.774 269.246 275.122 269.203 275.513H267.288C267.317 275.049 267.44 274.621 267.658 274.23C267.89 273.823 268.194 273.475 268.571 273.185C268.963 272.895 269.427 272.67 269.964 272.511C270.501 272.336 271.096 272.249 271.748 272.249C273.112 272.249 274.193 272.576 274.991 273.229C275.803 273.867 276.209 274.919 276.209 276.384V281.062C276.209 281.672 276.209 282.208 276.209 282.673C276.224 283.122 276.26 283.565 276.318 284H274.643C274.599 283.666 274.57 283.354 274.556 283.064C274.541 282.76 274.534 282.419 274.534 282.042C274.229 282.651 273.736 283.166 273.054 283.587C272.372 284.007 271.545 284.218 270.573 284.218ZM270.987 282.477C271.437 282.477 271.857 282.419 272.249 282.303C272.655 282.172 273.011 281.991 273.315 281.759C273.62 281.512 273.859 281.215 274.033 280.867C274.207 280.518 274.294 280.112 274.294 279.648V278.865H270.878C270.167 278.865 269.609 279.01 269.203 279.3C268.796 279.575 268.593 280.018 268.593 280.627C268.593 281.164 268.782 281.606 269.159 281.955C269.551 282.303 270.16 282.477 270.987 282.477ZM279.592 272.467H281.376V274.643C281.623 273.932 282.043 273.359 282.638 272.924C283.247 272.474 283.936 272.249 284.705 272.249C285.706 272.249 286.475 272.467 287.012 272.902C287.549 273.323 287.919 273.867 288.122 274.534C288.499 273.823 288.978 273.265 289.558 272.859C290.153 272.453 290.863 272.249 291.69 272.249C292.88 272.249 293.808 272.612 294.476 273.337C295.143 274.048 295.477 275.173 295.477 276.71V284H293.562V277.145C293.562 275.999 293.359 275.187 292.952 274.708C292.561 274.23 291.959 273.99 291.146 273.99C290.798 273.99 290.464 274.063 290.145 274.208C289.826 274.353 289.543 274.563 289.297 274.839C289.05 275.115 288.854 275.448 288.709 275.84C288.564 276.232 288.492 276.667 288.492 277.145V284H286.577V277.145C286.577 275.999 286.374 275.187 285.967 274.708C285.561 274.23 284.959 273.99 284.161 273.99C283.813 273.99 283.479 274.063 283.16 274.208C282.841 274.353 282.558 274.563 282.312 274.839C282.065 275.115 281.869 275.448 281.724 275.84C281.579 276.232 281.506 276.667 281.506 277.145V284H279.592V272.467ZM298.844 272.467H300.629V274.643C301.02 273.874 301.564 273.287 302.261 272.88C302.972 272.46 303.791 272.249 304.72 272.249C306.17 272.249 307.331 272.728 308.201 273.686C309.072 274.629 309.507 276.036 309.507 277.907V278.342C309.507 279.329 309.391 280.192 309.159 280.932C308.927 281.657 308.6 282.266 308.18 282.76C307.759 283.238 307.251 283.601 306.656 283.848C306.076 284.094 305.43 284.218 304.72 284.218C303.733 284.218 302.906 284 302.239 283.565C301.586 283.13 301.093 282.586 300.759 281.933V288.352H298.844V272.467ZM304.284 282.52C304.749 282.52 305.184 282.433 305.59 282.259C305.996 282.071 306.344 281.802 306.635 281.454C306.939 281.106 307.171 280.671 307.331 280.148C307.505 279.626 307.592 279.024 307.592 278.342V277.907C307.592 277.283 307.505 276.725 307.331 276.232C307.171 275.738 306.939 275.325 306.635 274.991C306.344 274.643 305.996 274.382 305.59 274.208C305.184 274.034 304.749 273.947 304.284 273.947C303.762 273.947 303.283 274.034 302.848 274.208C302.413 274.367 302.043 274.6 301.738 274.904C301.434 275.194 301.194 275.542 301.02 275.949C300.846 276.355 300.759 276.79 300.759 277.254V278.995C300.759 279.517 300.846 279.996 301.02 280.431C301.194 280.867 301.434 281.236 301.738 281.541C302.043 281.846 302.413 282.085 302.848 282.259C303.283 282.433 303.762 282.52 304.284 282.52ZM315.714 284.109C314.51 284.109 313.646 283.819 313.124 283.238C312.602 282.658 312.341 281.715 312.341 280.41V268.768H314.256V280.41C314.256 281.164 314.379 281.679 314.626 281.955C314.872 282.23 315.308 282.368 315.931 282.368C316.091 282.368 316.229 282.368 316.345 282.368C316.461 282.353 316.577 282.339 316.693 282.324V284.022C316.577 284.051 316.41 284.073 316.192 284.087C315.989 284.102 315.83 284.109 315.714 284.109ZM323.777 284.218C323.037 284.218 322.334 284.102 321.666 283.869C320.999 283.637 320.411 283.282 319.904 282.803C319.396 282.31 318.99 281.693 318.685 280.954C318.38 280.214 318.228 279.343 318.228 278.342V277.907C318.228 276.95 318.373 276.123 318.663 275.426C318.953 274.716 319.338 274.128 319.817 273.664C320.31 273.185 320.876 272.83 321.514 272.598C322.167 272.365 322.849 272.249 323.559 272.249C325.257 272.249 326.57 272.714 327.498 273.642C328.426 274.571 328.891 275.883 328.891 277.581V278.799H320.143C320.143 279.481 320.252 280.054 320.469 280.518C320.687 280.983 320.97 281.36 321.318 281.65C321.666 281.94 322.051 282.15 322.471 282.281C322.907 282.411 323.342 282.477 323.777 282.477C324.647 282.477 325.315 282.332 325.779 282.042C326.258 281.751 326.599 281.352 326.802 280.845H328.673C328.557 281.396 328.347 281.882 328.042 282.303C327.752 282.723 327.389 283.079 326.954 283.369C326.533 283.645 326.047 283.855 325.496 284C324.959 284.145 324.386 284.218 323.777 284.218ZM323.668 273.99C323.218 273.99 322.783 274.056 322.363 274.186C321.942 274.302 321.565 274.498 321.231 274.774C320.912 275.035 320.651 275.368 320.448 275.775C320.245 276.181 320.143 276.667 320.143 277.233H327.085C327.07 276.638 326.968 276.137 326.78 275.731C326.606 275.31 326.366 274.977 326.062 274.73C325.757 274.469 325.394 274.28 324.974 274.164C324.568 274.048 324.132 273.99 323.668 273.99ZM332.711 284.218C332.29 284.218 331.927 284.073 331.623 283.782C331.332 283.478 331.187 283.115 331.187 282.694C331.187 282.259 331.332 281.896 331.623 281.606C331.927 281.316 332.29 281.171 332.711 281.171C333.131 281.171 333.487 281.316 333.777 281.606C334.082 281.896 334.234 282.259 334.234 282.694C334.234 283.115 334.082 283.478 333.777 283.782C333.487 284.073 333.131 284.218 332.711 284.218ZM341.747 284.218C341.007 284.218 340.318 284.102 339.68 283.869C339.042 283.623 338.49 283.26 338.026 282.781C337.562 282.288 337.192 281.672 336.916 280.932C336.655 280.192 336.525 279.329 336.525 278.342V277.907C336.525 276.979 336.67 276.159 336.96 275.448C337.25 274.737 337.634 274.15 338.113 273.686C338.592 273.207 339.143 272.851 339.767 272.619C340.405 272.373 341.065 272.249 341.747 272.249C342.429 272.249 343.038 272.344 343.575 272.532C344.126 272.721 344.598 272.982 344.989 273.316C345.396 273.649 345.722 274.041 345.969 274.491C346.23 274.94 346.418 275.426 346.534 275.949H344.576C344.46 275.673 344.322 275.419 344.162 275.187C344.017 274.94 343.829 274.73 343.597 274.556C343.379 274.382 343.118 274.244 342.813 274.143C342.509 274.041 342.153 273.99 341.747 273.99C341.326 273.99 340.92 274.07 340.529 274.23C340.137 274.375 339.789 274.607 339.484 274.926C339.179 275.231 338.933 275.63 338.744 276.123C338.57 276.616 338.483 277.211 338.483 277.907V278.342C338.483 279.082 338.57 279.72 338.744 280.257C338.933 280.779 339.179 281.207 339.484 281.541C339.789 281.86 340.137 282.1 340.529 282.259C340.92 282.404 341.326 282.477 341.747 282.477C342.458 282.477 343.053 282.303 343.531 281.955C344.025 281.606 344.373 281.128 344.576 280.518H346.534C346.259 281.664 345.693 282.571 344.837 283.238C343.981 283.891 342.951 284.218 341.747 284.218ZM353.931 284.218C353.191 284.218 352.488 284.102 351.82 283.869C351.153 283.623 350.566 283.26 350.058 282.781C349.55 282.288 349.144 281.672 348.839 280.932C348.535 280.192 348.382 279.329 348.382 278.342V277.907C348.382 276.979 348.535 276.159 348.839 275.448C349.144 274.737 349.55 274.15 350.058 273.686C350.566 273.207 351.153 272.851 351.82 272.619C352.488 272.373 353.191 272.249 353.931 272.249C354.671 272.249 355.375 272.373 356.042 272.619C356.709 272.851 357.297 273.207 357.805 273.686C358.312 274.15 358.718 274.737 359.023 275.448C359.328 276.159 359.48 276.979 359.48 277.907V278.342C359.48 279.329 359.328 280.192 359.023 280.932C358.718 281.672 358.312 282.288 357.805 282.781C357.297 283.26 356.709 283.623 356.042 283.869C355.375 284.102 354.671 284.218 353.931 284.218ZM353.931 282.477C354.366 282.477 354.802 282.404 355.237 282.259C355.672 282.1 356.056 281.86 356.39 281.541C356.724 281.207 356.992 280.779 357.195 280.257C357.413 279.735 357.522 279.097 357.522 278.342V277.907C357.522 277.211 357.413 276.616 357.195 276.123C356.992 275.63 356.724 275.223 356.39 274.904C356.056 274.585 355.672 274.353 355.237 274.208C354.802 274.063 354.366 273.99 353.931 273.99C353.496 273.99 353.061 274.063 352.626 274.208C352.19 274.353 351.806 274.585 351.472 274.904C351.139 275.223 350.863 275.63 350.645 276.123C350.442 276.616 350.341 277.211 350.341 277.907V278.342C350.341 279.097 350.442 279.735 350.645 280.257C350.863 280.779 351.139 281.207 351.472 281.541C351.806 281.86 352.19 282.1 352.626 282.259C353.061 282.404 353.496 282.477 353.931 282.477ZM362.192 272.467H363.976V274.643C364.223 273.932 364.643 273.359 365.238 272.924C365.847 272.474 366.536 272.249 367.305 272.249C368.306 272.249 369.075 272.467 369.612 272.902C370.149 273.323 370.519 273.867 370.722 274.534C371.099 273.823 371.578 273.265 372.158 272.859C372.753 272.453 373.463 272.249 374.29 272.249C375.48 272.249 376.408 272.612 377.076 273.337C377.743 274.048 378.077 275.173 378.077 276.71V284H376.162V277.145C376.162 275.999 375.959 275.187 375.552 274.708C375.161 274.23 374.559 273.99 373.746 273.99C373.398 273.99 373.065 274.063 372.745 274.208C372.426 274.353 372.143 274.563 371.897 274.839C371.65 275.115 371.454 275.448 371.309 275.84C371.164 276.232 371.092 276.667 371.092 277.145V284H369.177V277.145C369.177 275.999 368.974 275.187 368.567 274.708C368.161 274.23 367.559 273.99 366.761 273.99C366.413 273.99 366.079 274.063 365.76 274.208C365.441 274.353 365.158 274.563 364.912 274.839C364.665 275.115 364.469 275.448 364.324 275.84C364.179 276.232 364.107 276.667 364.107 277.145V284H362.192V272.467ZM387.45 268.768H389.278L382.402 288.352H380.574L387.45 268.768ZM395.185 284.218C394.547 284.218 393.981 284.131 393.488 283.956C393.009 283.768 392.603 283.514 392.27 283.195C391.936 282.876 391.682 282.499 391.508 282.063C391.334 281.628 391.247 281.149 391.247 280.627C391.247 279.481 391.58 278.654 392.248 278.146C392.93 277.639 393.902 277.385 395.164 277.385H398.906V276.601C398.906 275.615 398.682 274.933 398.232 274.556C397.797 274.179 397.137 273.99 396.252 273.99C395.425 273.99 394.823 274.15 394.446 274.469C394.068 274.774 393.858 275.122 393.815 275.513H391.9C391.929 275.049 392.052 274.621 392.27 274.23C392.502 273.823 392.806 273.475 393.183 273.185C393.575 272.895 394.039 272.67 394.576 272.511C395.113 272.336 395.708 272.249 396.36 272.249C397.724 272.249 398.805 272.576 399.603 273.229C400.415 273.867 400.821 274.919 400.821 276.384V281.062C400.821 281.672 400.821 282.208 400.821 282.673C400.836 283.122 400.872 283.565 400.93 284H399.255C399.211 283.666 399.182 283.354 399.168 283.064C399.153 282.76 399.146 282.419 399.146 282.042C398.841 282.651 398.348 283.166 397.666 283.587C396.984 284.007 396.157 284.218 395.185 284.218ZM395.599 282.477C396.049 282.477 396.469 282.419 396.861 282.303C397.267 282.172 397.623 281.991 397.927 281.759C398.232 281.512 398.471 281.215 398.645 280.867C398.819 280.518 398.906 280.112 398.906 279.648V278.865H395.49C394.779 278.865 394.221 279.01 393.815 279.3C393.408 279.575 393.205 280.018 393.205 280.627C393.205 281.164 393.394 281.606 393.771 281.955C394.163 282.303 394.772 282.477 395.599 282.477ZM408.273 284.218C406.88 284.218 405.836 283.819 405.139 283.021C404.443 282.223 404.095 280.99 404.095 279.322V272.467H406.01V279.213C406.01 280.286 406.227 281.099 406.662 281.65C407.112 282.201 407.838 282.477 408.838 282.477C409.375 282.477 409.839 282.382 410.231 282.194C410.637 282.005 410.964 281.759 411.21 281.454C411.471 281.149 411.66 280.801 411.776 280.41C411.907 280.018 411.972 279.619 411.972 279.213V272.467H413.887V284H412.103V281.824C411.972 282.143 411.791 282.448 411.559 282.738C411.341 283.028 411.065 283.282 410.732 283.5C410.412 283.717 410.043 283.891 409.622 284.022C409.216 284.152 408.766 284.218 408.273 284.218ZM421.622 284.109C420.389 284.109 419.497 283.833 418.946 283.282C418.409 282.716 418.14 281.867 418.14 280.736V274.164H416.4V272.467H418.14V269.856H420.055V272.467H423.145V274.164H420.055V280.518C420.055 281.171 420.193 281.643 420.469 281.933C420.744 282.223 421.274 282.368 422.057 282.368C422.492 282.368 422.928 282.346 423.363 282.303V284C423.087 284.029 422.812 284.051 422.536 284.065C422.26 284.094 421.956 284.109 421.622 284.109ZM426.091 268.768H428.006V274.534C428.151 274.23 428.34 273.939 428.572 273.664C428.804 273.388 429.08 273.149 429.399 272.946C429.718 272.728 430.081 272.561 430.487 272.445C430.893 272.315 431.336 272.249 431.814 272.249C433.265 272.249 434.339 272.641 435.035 273.424C435.746 274.193 436.101 275.325 436.101 276.819V284H434.186V277.254C434.186 276.181 433.961 275.368 433.512 274.817C433.062 274.266 432.308 273.99 431.249 273.99C430.683 273.99 430.19 274.085 429.769 274.273C429.363 274.462 429.029 274.708 428.768 275.013C428.507 275.318 428.311 275.666 428.18 276.057C428.064 276.449 428.006 276.848 428.006 277.254V284H426.091V268.768ZM444.266 284.218C443.527 284.218 442.823 284.102 442.156 283.869C441.488 283.623 440.901 283.26 440.393 282.781C439.885 282.288 439.479 281.672 439.174 280.932C438.87 280.192 438.717 279.329 438.717 278.342V277.907C438.717 276.979 438.87 276.159 439.174 275.448C439.479 274.737 439.885 274.15 440.393 273.686C440.901 273.207 441.488 272.851 442.156 272.619C442.823 272.373 443.527 272.249 444.266 272.249C445.006 272.249 445.71 272.373 446.377 272.619C447.044 272.851 447.632 273.207 448.14 273.686C448.647 274.15 449.054 274.737 449.358 275.448C449.663 276.159 449.815 276.979 449.815 277.907V278.342C449.815 279.329 449.663 280.192 449.358 280.932C449.054 281.672 448.647 282.288 448.14 282.781C447.632 283.26 447.044 283.623 446.377 283.869C445.71 284.102 445.006 284.218 444.266 284.218ZM444.266 282.477C444.702 282.477 445.137 282.404 445.572 282.259C446.007 282.1 446.392 281.86 446.725 281.541C447.059 281.207 447.327 280.779 447.53 280.257C447.748 279.735 447.857 279.097 447.857 278.342V277.907C447.857 277.211 447.748 276.616 447.53 276.123C447.327 275.63 447.059 275.223 446.725 274.904C446.392 274.585 446.007 274.353 445.572 274.208C445.137 274.063 444.702 273.99 444.266 273.99C443.831 273.99 443.396 274.063 442.961 274.208C442.526 274.353 442.141 274.585 441.807 274.904C441.474 275.223 441.198 275.63 440.981 276.123C440.777 276.616 440.676 277.211 440.676 277.907V278.342C440.676 279.097 440.777 279.735 440.981 280.257C441.198 280.779 441.474 281.207 441.807 281.541C442.141 281.86 442.526 282.1 442.961 282.259C443.396 282.404 443.831 282.477 444.266 282.477ZM452.527 272.467H454.311V274.643C454.558 273.961 454.964 273.395 455.53 272.946C456.11 272.482 456.814 272.249 457.641 272.249C457.931 272.249 458.163 272.264 458.337 272.293C458.525 272.322 458.692 272.358 458.837 272.402V274.186C458.649 274.114 458.46 274.063 458.272 274.034C458.097 274.005 457.851 273.99 457.532 273.99C457.097 273.99 456.69 274.07 456.313 274.23C455.936 274.389 455.61 274.614 455.334 274.904C455.058 275.18 454.841 275.521 454.681 275.927C454.522 276.333 454.442 276.776 454.442 277.254V284H452.527V272.467ZM467.012 268.768H468.839L461.963 288.352H460.135L467.012 268.768ZM477.336 284.218C476.35 284.218 475.494 284 474.768 283.565C474.043 283.115 473.535 282.535 473.245 281.824V284H471.461V268.768H473.376V274.534C473.709 273.823 474.217 273.265 474.899 272.859C475.595 272.453 476.408 272.249 477.336 272.249C478.772 272.249 479.926 272.728 480.796 273.686C481.681 274.629 482.123 276.036 482.123 277.907V278.342C482.123 279.329 482.007 280.192 481.775 280.932C481.543 281.657 481.217 282.266 480.796 282.76C480.375 283.238 479.868 283.601 479.273 283.848C478.693 284.094 478.047 284.218 477.336 284.218ZM476.901 282.52C477.365 282.52 477.8 282.433 478.207 282.259C478.613 282.071 478.961 281.802 479.251 281.454C479.556 281.106 479.788 280.671 479.947 280.148C480.122 279.626 480.209 279.024 480.209 278.342V277.907C480.209 277.283 480.122 276.725 479.947 276.232C479.788 275.738 479.556 275.325 479.251 274.991C478.961 274.643 478.613 274.382 478.207 274.208C477.8 274.034 477.365 273.947 476.901 273.947C476.379 273.947 475.9 274.034 475.465 274.208C475.03 274.367 474.66 274.6 474.355 274.904C474.05 275.194 473.811 275.542 473.637 275.949C473.463 276.355 473.376 276.79 473.376 277.254V278.995C473.376 279.517 473.463 279.996 473.637 280.431C473.811 280.867 474.05 281.236 474.355 281.541C474.66 281.846 475.03 282.085 475.465 282.259C475.9 282.433 476.379 282.52 476.901 282.52ZM489.636 284.218C488.896 284.218 488.192 284.102 487.525 283.869C486.858 283.623 486.27 283.26 485.763 282.781C485.255 282.288 484.849 281.672 484.544 280.932C484.239 280.192 484.087 279.329 484.087 278.342V277.907C484.087 276.979 484.239 276.159 484.544 275.448C484.849 274.737 485.255 274.15 485.763 273.686C486.27 273.207 486.858 272.851 487.525 272.619C488.192 272.373 488.896 272.249 489.636 272.249C490.376 272.249 491.079 272.373 491.747 272.619C492.414 272.851 493.001 273.207 493.509 273.686C494.017 274.15 494.423 274.737 494.728 275.448C495.032 276.159 495.185 276.979 495.185 277.907V278.342C495.185 279.329 495.032 280.192 494.728 280.932C494.423 281.672 494.017 282.288 493.509 282.781C493.001 283.26 492.414 283.623 491.747 283.869C491.079 284.102 490.376 284.218 489.636 284.218ZM489.636 282.477C490.071 282.477 490.506 282.404 490.941 282.259C491.377 282.1 491.761 281.86 492.095 281.541C492.428 281.207 492.697 280.779 492.9 280.257C493.118 279.735 493.226 279.097 493.226 278.342V277.907C493.226 277.211 493.118 276.616 492.9 276.123C492.697 275.63 492.428 275.223 492.095 274.904C491.761 274.585 491.377 274.353 490.941 274.208C490.506 274.063 490.071 273.99 489.636 273.99C489.201 273.99 488.765 274.063 488.33 274.208C487.895 274.353 487.511 274.585 487.177 274.904C486.843 275.223 486.568 275.63 486.35 276.123C486.147 276.616 486.045 277.211 486.045 277.907V278.342C486.045 279.097 486.147 279.735 486.35 280.257C486.568 280.779 486.843 281.207 487.177 281.541C487.511 281.86 487.895 282.1 488.33 282.259C488.765 282.404 489.201 282.477 489.636 282.477ZM502.684 284.218C501.944 284.218 501.24 284.102 500.573 283.869C499.906 283.623 499.318 283.26 498.81 282.781C498.303 282.288 497.896 281.672 497.592 280.932C497.287 280.192 497.135 279.329 497.135 278.342V277.907C497.135 276.979 497.287 276.159 497.592 275.448C497.896 274.737 498.303 274.15 498.81 273.686C499.318 273.207 499.906 272.851 500.573 272.619C501.24 272.373 501.944 272.249 502.684 272.249C503.423 272.249 504.127 272.373 504.794 272.619C505.462 272.851 506.049 273.207 506.557 273.686C507.065 274.15 507.471 274.737 507.776 275.448C508.08 276.159 508.232 276.979 508.232 277.907V278.342C508.232 279.329 508.08 280.192 507.776 280.932C507.471 281.672 507.065 282.288 506.557 282.781C506.049 283.26 505.462 283.623 504.794 283.869C504.127 284.102 503.423 284.218 502.684 284.218ZM502.684 282.477C503.119 282.477 503.554 282.404 503.989 282.259C504.424 282.1 504.809 281.86 505.143 281.541C505.476 281.207 505.745 280.779 505.948 280.257C506.165 279.735 506.274 279.097 506.274 278.342V277.907C506.274 277.211 506.165 276.616 505.948 276.123C505.745 275.63 505.476 275.223 505.143 274.904C504.809 274.585 504.424 274.353 503.989 274.208C503.554 274.063 503.119 273.99 502.684 273.99C502.248 273.99 501.813 274.063 501.378 274.208C500.943 274.353 500.558 274.585 500.225 274.904C499.891 275.223 499.615 275.63 499.398 276.123C499.195 276.616 499.093 277.211 499.093 277.907V278.342C499.093 279.097 499.195 279.735 499.398 280.257C499.615 280.779 499.891 281.207 500.225 281.541C500.558 281.86 500.943 282.1 501.378 282.259C501.813 282.404 502.248 282.477 502.684 282.477ZM510.944 268.768H512.859V277.777L518.168 272.467H520.519L515.731 277.233L520.954 284H518.517L514.36 278.56L512.859 279.974V284H510.944V268.768ZM524.984 284.218C524.563 284.218 524.2 284.073 523.896 283.782C523.606 283.478 523.46 283.115 523.46 282.694C523.46 282.259 523.606 281.896 523.896 281.606C524.2 281.316 524.563 281.171 524.984 281.171C525.404 281.171 525.76 281.316 526.05 281.606C526.355 281.896 526.507 282.259 526.507 282.694C526.507 283.115 526.355 283.478 526.05 283.782C525.76 284.073 525.404 284.218 524.984 284.218ZM529.984 268.768H531.899V274.534C532.044 274.23 532.233 273.939 532.465 273.664C532.697 273.388 532.973 273.149 533.292 272.946C533.611 272.728 533.974 272.561 534.38 272.445C534.786 272.315 535.229 272.249 535.707 272.249C537.158 272.249 538.232 272.641 538.928 273.424C539.639 274.193 539.994 275.325 539.994 276.819V284H538.079V277.254C538.079 276.181 537.854 275.368 537.405 274.817C536.955 274.266 536.201 273.99 535.142 273.99C534.576 273.99 534.083 274.085 533.662 274.273C533.256 274.462 532.922 274.708 532.661 275.013C532.4 275.318 532.204 275.666 532.073 276.057C531.957 276.449 531.899 276.848 531.899 277.254V284H529.984V268.768ZM547.403 284.109C546.17 284.109 545.278 283.833 544.726 283.282C544.19 282.716 543.921 281.867 543.921 280.736V274.164H542.18V272.467H543.921V269.856H545.836V272.467H548.926V274.164H545.836V280.518C545.836 281.171 545.974 281.643 546.249 281.933C546.525 282.223 547.055 282.368 547.838 282.368C548.273 282.368 548.708 282.346 549.144 282.303V284C548.868 284.029 548.592 284.051 548.317 284.065C548.041 284.094 547.736 284.109 547.403 284.109ZM551.872 272.467H553.657V274.643C553.903 273.932 554.324 273.359 554.919 272.924C555.528 272.474 556.217 272.249 556.986 272.249C557.987 272.249 558.756 272.467 559.292 272.902C559.829 273.323 560.199 273.867 560.402 274.534C560.779 273.823 561.258 273.265 561.838 272.859C562.433 272.453 563.144 272.249 563.971 272.249C565.16 272.249 566.089 272.612 566.756 273.337C567.424 274.048 567.757 275.173 567.757 276.71V284H565.842V277.145C565.842 275.999 565.639 275.187 565.233 274.708C564.841 274.23 564.239 273.99 563.427 273.99C563.079 273.99 562.745 274.063 562.426 274.208C562.107 274.353 561.824 274.563 561.577 274.839C561.331 275.115 561.135 275.448 560.99 275.84C560.845 276.232 560.772 276.667 560.772 277.145V284H558.857V277.145C558.857 275.999 558.654 275.187 558.248 274.708C557.842 274.23 557.24 273.99 556.442 273.99C556.094 273.99 555.76 274.063 555.441 274.208C555.122 274.353 554.839 274.563 554.592 274.839C554.346 275.115 554.15 275.448 554.005 275.84C553.86 276.232 553.787 276.667 553.787 277.145V284H551.872V272.467ZM574.607 284.109C573.403 284.109 572.539 283.819 572.017 283.238C571.495 282.658 571.234 281.715 571.234 280.41V268.768H573.149V280.41C573.149 281.164 573.272 281.679 573.519 281.955C573.765 282.23 574.2 282.368 574.824 282.368C574.984 282.368 575.122 282.368 575.238 282.368C575.354 282.353 575.47 282.339 575.586 282.324V284.022C575.47 284.051 575.303 284.073 575.085 284.087C574.882 284.102 574.723 284.109 574.607 284.109ZM579.553 279.691H577.769V278.081H579.836L580.467 274.687H578.617V273.076H580.772L581.577 268.768H583.405L582.599 273.076H586.125L586.93 268.768H588.758L587.953 273.076H589.737V274.687H587.648L587.017 278.081H588.888V279.691H586.734L585.929 284H584.101L584.906 279.691H581.381L580.576 284H578.748L579.553 279.691ZM585.189 278.081L585.82 274.687H582.295L581.664 278.081H585.189ZM592.885 272.467H594.67V274.643C595.061 273.874 595.605 273.287 596.302 272.88C597.013 272.46 597.832 272.249 598.761 272.249C600.211 272.249 601.372 272.728 602.242 273.686C603.113 274.629 603.548 276.036 603.548 277.907V278.342C603.548 279.329 603.432 280.192 603.2 280.932C602.968 281.657 602.641 282.266 602.221 282.76C601.8 283.238 601.292 283.601 600.697 283.848C600.117 284.094 599.471 284.218 598.761 284.218C597.774 284.218 596.947 284 596.28 283.565C595.627 283.13 595.134 282.586 594.8 281.933V288.352H592.885V272.467ZM598.325 282.52C598.79 282.52 599.225 282.433 599.631 282.259C600.037 282.071 600.385 281.802 600.676 281.454C600.98 281.106 601.212 280.671 601.372 280.148C601.546 279.626 601.633 279.024 601.633 278.342V277.907C601.633 277.283 601.546 276.725 601.372 276.232C601.212 275.738 600.98 275.325 600.676 274.991C600.385 274.643 600.037 274.382 599.631 274.208C599.225 274.034 598.79 273.947 598.325 273.947C597.803 273.947 597.324 274.034 596.889 274.208C596.454 274.367 596.084 274.6 595.779 274.904C595.475 275.194 595.235 275.542 595.061 275.949C594.887 276.355 594.8 276.79 594.8 277.254V278.995C594.8 279.517 594.887 279.996 595.061 280.431C595.235 280.867 595.475 281.236 595.779 281.541C596.084 281.846 596.454 282.085 596.889 282.259C597.324 282.433 597.803 282.52 598.325 282.52ZM609.559 284.218C608.921 284.218 608.355 284.131 607.862 283.956C607.383 283.768 606.977 283.514 606.643 283.195C606.309 282.876 606.055 282.499 605.881 282.063C605.707 281.628 605.62 281.149 605.62 280.627C605.62 279.481 605.954 278.654 606.621 278.146C607.303 277.639 608.275 277.385 609.537 277.385H613.28V276.601C613.28 275.615 613.055 274.933 612.605 274.556C612.17 274.179 611.51 273.99 610.625 273.99C609.798 273.99 609.196 274.15 608.819 274.469C608.442 274.774 608.231 275.122 608.188 275.513H606.273C606.302 275.049 606.425 274.621 606.643 274.23C606.875 273.823 607.18 273.475 607.557 273.185C607.949 272.895 608.413 272.67 608.95 272.511C609.486 272.336 610.081 272.249 610.734 272.249C612.098 272.249 613.178 272.576 613.976 273.229C614.789 273.867 615.195 274.919 615.195 276.384V281.062C615.195 281.672 615.195 282.208 615.195 282.673C615.209 283.122 615.246 283.565 615.304 284H613.628C613.585 283.666 613.556 283.354 613.541 283.064C613.527 282.76 613.519 282.419 613.519 282.042C613.215 282.651 612.721 283.166 612.04 283.587C611.358 284.007 610.531 284.218 609.559 284.218ZM609.972 282.477C610.422 282.477 610.843 282.419 611.234 282.303C611.641 282.172 611.996 281.991 612.301 281.759C612.605 281.512 612.845 281.215 613.019 280.867C613.193 280.518 613.28 280.112 613.28 279.648V278.865H609.864C609.153 278.865 608.594 279.01 608.188 279.3C607.782 279.575 607.579 280.018 607.579 280.627C607.579 281.164 607.767 281.606 608.144 281.955C608.536 282.303 609.145 282.477 609.972 282.477ZM623.147 288.57C622.305 288.57 621.587 288.483 620.992 288.309C620.398 288.149 619.904 287.924 619.513 287.634C619.136 287.344 618.845 286.996 618.642 286.589C618.439 286.198 618.309 285.77 618.251 285.306H620.253C620.325 285.538 620.427 285.748 620.557 285.937C620.688 286.125 620.862 286.285 621.079 286.415C621.297 286.546 621.573 286.648 621.906 286.72C622.255 286.793 622.668 286.829 623.147 286.829C624.322 286.829 625.185 286.546 625.736 285.98C626.287 285.414 626.563 284.609 626.563 283.565V281.715C626.229 282.484 625.714 283.057 625.018 283.434C624.336 283.811 623.531 284 622.603 284C621.892 284 621.239 283.877 620.644 283.63C620.064 283.383 619.563 283.021 619.143 282.542C618.722 282.063 618.396 281.469 618.164 280.758C617.931 280.032 617.815 279.191 617.815 278.234V277.798C617.815 276.913 617.931 276.13 618.164 275.448C618.41 274.752 618.744 274.172 619.165 273.707C619.585 273.229 620.086 272.866 620.666 272.619C621.261 272.373 621.906 272.249 622.603 272.249C623.589 272.249 624.445 272.474 625.17 272.924C625.896 273.359 626.403 273.932 626.694 274.643V272.467H628.478V283.565C628.478 285.132 628.021 286.357 627.107 287.242C626.193 288.127 624.873 288.57 623.147 288.57ZM623.038 282.303C623.56 282.303 624.039 282.223 624.474 282.063C624.909 281.889 625.279 281.65 625.584 281.345C625.888 281.041 626.128 280.678 626.302 280.257C626.476 279.837 626.563 279.38 626.563 278.886V277.145C626.563 276.71 626.476 276.297 626.302 275.905C626.128 275.513 625.888 275.173 625.584 274.882C625.279 274.592 624.909 274.367 624.474 274.208C624.039 274.034 623.56 273.947 623.038 273.947C622.574 273.947 622.138 274.034 621.732 274.208C621.326 274.382 620.971 274.636 620.666 274.969C620.376 275.303 620.144 275.709 619.97 276.188C619.81 276.652 619.73 277.189 619.73 277.798V278.234C619.73 278.886 619.81 279.467 619.97 279.974C620.144 280.482 620.376 280.91 620.666 281.258C620.971 281.606 621.326 281.867 621.732 282.042C622.138 282.216 622.574 282.303 623.038 282.303ZM636.752 284.218C636.012 284.218 635.309 284.102 634.641 283.869C633.974 283.637 633.386 283.282 632.879 282.803C632.371 282.31 631.965 281.693 631.66 280.954C631.355 280.214 631.203 279.343 631.203 278.342V277.907C631.203 276.95 631.348 276.123 631.638 275.426C631.928 274.716 632.313 274.128 632.792 273.664C633.285 273.185 633.851 272.83 634.489 272.598C635.142 272.365 635.824 272.249 636.534 272.249C638.232 272.249 639.545 272.714 640.473 273.642C641.401 274.571 641.866 275.883 641.866 277.581V278.799H633.118C633.118 279.481 633.227 280.054 633.444 280.518C633.662 280.983 633.945 281.36 634.293 281.65C634.641 281.94 635.026 282.15 635.446 282.281C635.882 282.411 636.317 282.477 636.752 282.477C637.622 282.477 638.29 282.332 638.754 282.042C639.233 281.751 639.574 281.352 639.777 280.845H641.648C641.532 281.396 641.322 281.882 641.017 282.303C640.727 282.723 640.364 283.079 639.929 283.369C639.508 283.645 639.022 283.855 638.471 284C637.934 284.145 637.361 284.218 636.752 284.218ZM636.643 273.99C636.193 273.99 635.758 274.056 635.338 274.186C634.917 274.302 634.54 274.498 634.206 274.774C633.887 275.035 633.626 275.368 633.423 275.775C633.22 276.181 633.118 276.667 633.118 277.233H640.06C640.045 276.638 639.944 276.137 639.755 275.731C639.581 275.31 639.341 274.977 639.037 274.73C638.732 274.469 638.37 274.28 637.949 274.164C637.543 274.048 637.107 273.99 636.643 273.99ZM644.043 282.216H647.677V271.009L644.043 273.599V271.379L647.721 268.768H649.766V282.216H652.748V284H644.043V282.216ZM659.719 284.218C658.892 284.218 658.174 284.109 657.564 283.891C656.955 283.659 656.44 283.362 656.019 282.999C655.613 282.622 655.301 282.201 655.084 281.737C654.866 281.273 654.743 280.794 654.714 280.301H656.759C656.832 280.852 657.122 281.338 657.63 281.759C658.152 282.179 658.848 282.39 659.719 282.39C660.705 282.39 661.481 282.085 662.047 281.476C662.613 280.852 662.896 279.989 662.896 278.886C662.896 278.263 662.801 277.726 662.613 277.276C662.439 276.826 662.199 276.464 661.895 276.188C661.604 275.912 661.271 275.709 660.894 275.579C660.516 275.448 660.125 275.383 659.719 275.383C658.935 275.383 658.319 275.528 657.869 275.818C657.434 276.108 657.1 276.442 656.868 276.819H655.04V268.768H664.071V270.552H657.086V274.795C657.84 273.968 658.826 273.555 660.045 273.555C661.554 273.555 662.743 274.012 663.614 274.926C664.499 275.84 664.941 277.16 664.941 278.886C664.941 279.699 664.81 280.439 664.549 281.106C664.303 281.759 663.947 282.317 663.483 282.781C663.033 283.246 662.482 283.601 661.829 283.848C661.191 284.094 660.487 284.218 659.719 284.218ZM672.341 284.218C671.514 284.218 670.796 284.109 670.187 283.891C669.578 283.659 669.063 283.362 668.642 282.999C668.236 282.622 667.924 282.201 667.706 281.737C667.489 281.273 667.365 280.794 667.336 280.301H669.382C669.454 280.852 669.744 281.338 670.252 281.759C670.774 282.179 671.471 282.39 672.341 282.39C673.328 282.39 674.104 282.085 674.67 281.476C675.235 280.852 675.518 279.989 675.518 278.886C675.518 278.263 675.424 277.726 675.235 277.276C675.061 276.826 674.822 276.464 674.517 276.188C674.227 275.912 673.893 275.709 673.516 275.579C673.139 275.448 672.747 275.383 672.341 275.383C671.558 275.383 670.941 275.528 670.492 275.818C670.056 276.108 669.723 276.442 669.491 276.819H667.663V268.768H676.693V270.552H669.708V274.795C670.463 273.968 671.449 273.555 672.668 273.555C674.176 273.555 675.366 274.012 676.236 274.926C677.121 275.84 677.564 277.16 677.564 278.886C677.564 279.699 677.433 280.439 677.172 281.106C676.925 281.759 676.57 282.317 676.106 282.781C675.656 283.246 675.105 283.601 674.452 283.848C673.814 284.094 673.11 284.218 672.341 284.218Z" fill="#333333"/>
<path d="M100 288V318.784H389M678 288V318.784H389M389 318.784V341" stroke="#4C89BE"/>
<path d="M182 254V223.216H377.5M573 254V223.216H377.5M377.5 223.216V201" stroke="#58A982"/>
<path d="M100 254L100 156.5H338.5M577 254V156.5H338.5M338.5 156.5V133.808" stroke="#E87F53"/>
<path d="M634.547 235L634.547 211L644.547 211L644.547 235L634.547 235Z" fill="#CD859B"/>
<path d="M651.094 235L639.547 255L628 235L651.094 235Z" fill="#CD859B"/>
</svg>
