<svg width="779" height="945" viewBox="0 0 779 945" fill="none" xmlns="http://www.w3.org/2000/svg">
<path d="M169.913 208.768H181.882V224H179.836V210.552H171.959V224H169.913V208.768ZM185.798 212.467H187.583V214.643C187.974 213.874 188.518 213.287 189.215 212.88C189.926 212.46 190.745 212.249 191.674 212.249C193.124 212.249 194.285 212.728 195.155 213.686C196.026 214.629 196.461 216.036 196.461 217.907V218.342C196.461 219.329 196.345 220.192 196.113 220.932C195.881 221.657 195.554 222.266 195.134 222.76C194.713 223.238 194.205 223.601 193.61 223.848C193.03 224.094 192.385 224.218 191.674 224.218C190.687 224.218 189.86 224 189.193 223.565C188.54 223.13 188.047 222.586 187.713 221.933V228.352H185.798V212.467ZM191.239 222.52C191.703 222.52 192.138 222.433 192.544 222.259C192.95 222.071 193.298 221.802 193.589 221.454C193.893 221.106 194.125 220.671 194.285 220.148C194.459 219.626 194.546 219.024 194.546 218.342V217.907C194.546 217.283 194.459 216.725 194.285 216.232C194.125 215.738 193.893 215.325 193.589 214.991C193.298 214.643 192.95 214.382 192.544 214.208C192.138 214.034 191.703 213.947 191.239 213.947C190.716 213.947 190.238 214.034 189.802 214.208C189.367 214.367 188.997 214.6 188.693 214.904C188.388 215.194 188.149 215.542 187.974 215.949C187.8 216.355 187.713 216.79 187.713 217.254V218.995C187.713 219.517 187.8 219.996 187.974 220.431C188.149 220.867 188.388 221.236 188.693 221.541C188.997 221.846 189.367 222.085 189.802 222.259C190.238 222.433 190.716 222.52 191.239 222.52ZM203.973 224.218C203.234 224.218 202.53 224.102 201.863 223.869C201.195 223.623 200.608 223.26 200.1 222.781C199.592 222.288 199.186 221.672 198.881 220.932C198.577 220.192 198.425 219.329 198.425 218.342V217.907C198.425 216.979 198.577 216.159 198.881 215.448C199.186 214.737 199.592 214.15 200.1 213.686C200.608 213.207 201.195 212.851 201.863 212.619C202.53 212.373 203.234 212.249 203.973 212.249C204.713 212.249 205.417 212.373 206.084 212.619C206.751 212.851 207.339 213.207 207.847 213.686C208.355 214.15 208.761 214.737 209.065 215.448C209.37 216.159 209.522 216.979 209.522 217.907V218.342C209.522 219.329 209.37 220.192 209.065 220.932C208.761 221.672 208.355 222.288 207.847 222.781C207.339 223.26 206.751 223.623 206.084 223.869C205.417 224.102 204.713 224.218 203.973 224.218ZM203.973 222.477C204.409 222.477 204.844 222.404 205.279 222.259C205.714 222.1 206.099 221.86 206.432 221.541C206.766 221.207 207.034 220.779 207.237 220.257C207.455 219.735 207.564 219.097 207.564 218.342V217.907C207.564 217.211 207.455 216.616 207.237 216.123C207.034 215.63 206.766 215.223 206.432 214.904C206.099 214.585 205.714 214.353 205.279 214.208C204.844 214.063 204.409 213.99 203.973 213.99C203.538 213.99 203.103 214.063 202.668 214.208C202.233 214.353 201.848 214.585 201.514 214.904C201.181 215.223 200.905 215.63 200.688 216.123C200.485 216.616 200.383 217.211 200.383 217.907V218.342C200.383 219.097 200.485 219.735 200.688 220.257C200.905 220.779 201.181 221.207 201.514 221.541C201.848 221.86 202.233 222.1 202.668 222.259C203.103 222.404 203.538 222.477 203.973 222.477ZM214.654 214.164H210.716V212.467H220.508V214.164H216.569V224H214.654V214.164ZM227.264 224.218C226.524 224.218 225.82 224.102 225.153 223.869C224.486 223.623 223.898 223.26 223.39 222.781C222.883 222.288 222.477 221.672 222.172 220.932C221.867 220.192 221.715 219.329 221.715 218.342V217.907C221.715 216.979 221.867 216.159 222.172 215.448C222.477 214.737 222.883 214.15 223.39 213.686C223.898 213.207 224.486 212.851 225.153 212.619C225.82 212.373 226.524 212.249 227.264 212.249C228.004 212.249 228.707 212.373 229.375 212.619C230.042 212.851 230.629 213.207 231.137 213.686C231.645 214.15 232.051 214.737 232.356 215.448C232.66 216.159 232.813 216.979 232.813 217.907V218.342C232.813 219.329 232.66 220.192 232.356 220.932C232.051 221.672 231.645 222.288 231.137 222.781C230.629 223.26 230.042 223.623 229.375 223.869C228.707 224.102 228.004 224.218 227.264 224.218ZM227.264 222.477C227.699 222.477 228.134 222.404 228.569 222.259C229.005 222.1 229.389 221.86 229.723 221.541C230.056 221.207 230.325 220.779 230.528 220.257C230.745 219.735 230.854 219.097 230.854 218.342V217.907C230.854 217.211 230.745 216.616 230.528 216.123C230.325 215.63 230.056 215.223 229.723 214.904C229.389 214.585 229.005 214.353 228.569 214.208C228.134 214.063 227.699 213.99 227.264 213.99C226.829 213.99 226.393 214.063 225.958 214.208C225.523 214.353 225.139 214.585 224.805 214.904C224.471 215.223 224.196 215.63 223.978 216.123C223.775 216.616 223.673 217.211 223.673 217.907V218.342C223.673 219.097 223.775 219.735 223.978 220.257C224.196 220.779 224.471 221.207 224.805 221.541C225.139 221.86 225.523 222.1 225.958 222.259C226.393 222.404 226.829 222.477 227.264 222.477ZM235.524 212.467H237.439V217.298H238.962L243.271 212.467H245.534L240.529 217.994L245.752 224H243.314L238.962 218.952H237.439V224H235.524V212.467ZM252.403 224.218C251.663 224.218 250.96 224.102 250.292 223.869C249.625 223.623 249.037 223.26 248.53 222.781C248.022 222.288 247.616 221.672 247.311 220.932C247.006 220.192 246.854 219.329 246.854 218.342V217.907C246.854 216.979 247.006 216.159 247.311 215.448C247.616 214.737 248.022 214.15 248.53 213.686C249.037 213.207 249.625 212.851 250.292 212.619C250.96 212.373 251.663 212.249 252.403 212.249C253.143 212.249 253.846 212.373 254.514 212.619C255.181 212.851 255.769 213.207 256.276 213.686C256.784 214.15 257.19 214.737 257.495 215.448C257.8 216.159 257.952 216.979 257.952 217.907V218.342C257.952 219.329 257.8 220.192 257.495 220.932C257.19 221.672 256.784 222.288 256.276 222.781C255.769 223.26 255.181 223.623 254.514 223.869C253.846 224.102 253.143 224.218 252.403 224.218ZM252.403 222.477C252.838 222.477 253.273 222.404 253.709 222.259C254.144 222.1 254.528 221.86 254.862 221.541C255.196 221.207 255.464 220.779 255.667 220.257C255.885 219.735 255.993 219.097 255.993 218.342V217.907C255.993 217.211 255.885 216.616 255.667 216.123C255.464 215.63 255.196 215.223 254.862 214.904C254.528 214.585 254.144 214.353 253.709 214.208C253.273 214.063 252.838 213.99 252.403 213.99C251.968 213.99 251.533 214.063 251.097 214.208C250.662 214.353 250.278 214.585 249.944 214.904C249.61 215.223 249.335 215.63 249.117 216.123C248.914 216.616 248.812 217.211 248.812 217.907V218.342C248.812 219.097 248.914 219.735 249.117 220.257C249.335 220.779 249.61 221.207 249.944 221.541C250.278 221.86 250.662 222.1 251.097 222.259C251.533 222.404 251.968 222.477 252.403 222.477ZM259.907 224.218C259.689 224.218 259.472 224.196 259.254 224.152V222.237C259.327 222.252 259.435 222.259 259.58 222.259C259.9 222.259 260.175 222.158 260.407 221.955C260.654 221.751 260.85 221.396 260.995 220.888C261.14 220.381 261.249 219.691 261.321 218.821C261.394 217.951 261.43 216.848 261.43 215.513V212.467H269.699V224H267.784V214.164H263.345V215.949C263.345 217.559 263.272 218.894 263.127 219.953C262.982 221.012 262.765 221.86 262.475 222.499C262.199 223.122 261.844 223.565 261.408 223.826C260.973 224.087 260.473 224.218 259.907 224.218ZM279.273 208.768H281.318V224H279.273V208.768ZM285.898 208.768H291.12C292.121 208.768 292.992 208.884 293.731 209.116C294.471 209.348 295.081 209.674 295.559 210.095C296.053 210.501 296.415 210.995 296.647 211.575C296.879 212.141 296.996 212.764 296.996 213.446C296.996 214.128 296.879 214.759 296.647 215.339C296.415 215.905 296.053 216.398 295.559 216.819C295.081 217.225 294.471 217.544 293.731 217.777C292.992 218.009 292.121 218.125 291.12 218.125H287.943V224H285.898V208.768ZM291.011 216.34C291.737 216.34 292.346 216.275 292.839 216.145C293.347 215.999 293.753 215.804 294.058 215.557C294.377 215.31 294.602 215.006 294.732 214.643C294.878 214.28 294.95 213.881 294.95 213.446C294.95 213.011 294.878 212.612 294.732 212.249C294.602 211.887 294.377 211.582 294.058 211.335C293.753 211.089 293.347 210.9 292.839 210.77C292.346 210.625 291.737 210.552 291.011 210.552H287.943V216.34H291.011ZM303.747 224.218C302.978 224.218 302.311 224.131 301.745 223.956C301.194 223.768 300.722 223.521 300.331 223.217C299.939 222.912 299.634 222.557 299.417 222.15C299.199 221.744 299.047 221.309 298.96 220.845H300.875C300.976 221.309 301.245 221.715 301.68 222.063C302.13 222.397 302.819 222.564 303.747 222.564C304.284 222.564 304.734 222.52 305.096 222.433C305.459 222.332 305.749 222.208 305.967 222.063C306.199 221.904 306.366 221.722 306.467 221.519C306.569 221.302 306.62 221.077 306.62 220.845C306.62 220.598 306.569 220.381 306.467 220.192C306.38 220.003 306.213 219.837 305.967 219.691C305.735 219.532 305.408 219.394 304.988 219.278C304.581 219.147 304.066 219.039 303.443 218.952C302.804 218.865 302.224 218.741 301.702 218.582C301.194 218.408 300.759 218.183 300.396 217.907C300.048 217.631 299.772 217.305 299.569 216.928C299.381 216.536 299.286 216.065 299.286 215.513C299.286 215.078 299.381 214.665 299.569 214.273C299.758 213.881 300.041 213.533 300.418 213.229C300.795 212.924 301.259 212.685 301.811 212.511C302.362 212.336 303.007 212.249 303.747 212.249C304.429 212.249 305.024 212.344 305.532 212.532C306.039 212.706 306.467 212.946 306.815 213.25C307.178 213.555 307.461 213.91 307.664 214.317C307.867 214.723 308.012 215.158 308.099 215.622H306.184C306.068 215.115 305.822 214.701 305.444 214.382C305.067 214.063 304.502 213.903 303.747 213.903C302.804 213.903 302.144 214.063 301.767 214.382C301.39 214.687 301.201 215.064 301.201 215.513C301.201 215.775 301.245 215.999 301.332 216.188C301.433 216.377 301.593 216.543 301.811 216.689C302.043 216.834 302.34 216.957 302.703 217.058C303.08 217.145 303.544 217.225 304.095 217.298C304.806 217.385 305.437 217.515 305.988 217.689C306.54 217.849 307.004 218.074 307.381 218.364C307.758 218.64 308.041 218.981 308.23 219.387C308.433 219.793 308.534 220.279 308.534 220.845C308.534 221.309 308.433 221.744 308.23 222.15C308.041 222.557 307.751 222.912 307.359 223.217C306.968 223.521 306.467 223.768 305.858 223.956C305.263 224.131 304.56 224.218 303.747 224.218ZM316.048 224.218C315.308 224.218 314.604 224.102 313.937 223.869C313.27 223.637 312.682 223.282 312.174 222.803C311.667 222.31 311.26 221.693 310.956 220.954C310.651 220.214 310.499 219.343 310.499 218.342V217.907C310.499 216.95 310.644 216.123 310.934 215.426C311.224 214.716 311.609 214.128 312.087 213.664C312.581 213.185 313.146 212.83 313.785 212.598C314.437 212.365 315.119 212.249 315.83 212.249C317.527 212.249 318.84 212.714 319.769 213.642C320.697 214.571 321.161 215.883 321.161 217.581V218.799H312.414C312.414 219.481 312.523 220.054 312.74 220.518C312.958 220.983 313.241 221.36 313.589 221.65C313.937 221.94 314.321 222.15 314.742 222.281C315.177 222.411 315.613 222.477 316.048 222.477C316.918 222.477 317.585 222.332 318.05 222.042C318.528 221.751 318.869 221.352 319.072 220.845H320.944C320.828 221.396 320.617 221.882 320.313 222.303C320.023 222.723 319.66 223.079 319.225 223.369C318.804 223.645 318.318 223.855 317.767 224C317.23 224.145 316.657 224.218 316.048 224.218ZM315.939 213.99C315.489 213.99 315.054 214.056 314.633 214.186C314.213 214.302 313.835 214.498 313.502 214.774C313.183 215.035 312.921 215.368 312.718 215.775C312.515 216.181 312.414 216.667 312.414 217.233H319.355C319.341 216.638 319.239 216.137 319.051 215.731C318.877 215.31 318.637 214.977 318.333 214.73C318.028 214.469 317.665 214.28 317.245 214.164C316.838 214.048 316.403 213.99 315.939 213.99ZM328.344 224.218C327.604 224.218 326.915 224.102 326.277 223.869C325.638 223.623 325.087 223.26 324.623 222.781C324.159 222.288 323.789 221.672 323.513 220.932C323.252 220.192 323.122 219.329 323.122 218.342V217.907C323.122 216.979 323.267 216.159 323.557 215.448C323.847 214.737 324.231 214.15 324.71 213.686C325.189 213.207 325.74 212.851 326.364 212.619C327.002 212.373 327.662 212.249 328.344 212.249C329.026 212.249 329.635 212.344 330.172 212.532C330.723 212.721 331.195 212.982 331.586 213.316C331.993 213.649 332.319 214.041 332.566 214.491C332.827 214.94 333.015 215.426 333.131 215.949H331.173C331.057 215.673 330.919 215.419 330.759 215.187C330.614 214.94 330.426 214.73 330.194 214.556C329.976 214.382 329.715 214.244 329.41 214.143C329.106 214.041 328.75 213.99 328.344 213.99C327.923 213.99 327.517 214.07 327.125 214.23C326.734 214.375 326.386 214.607 326.081 214.926C325.776 215.231 325.53 215.63 325.341 216.123C325.167 216.616 325.08 217.211 325.08 217.907V218.342C325.08 219.082 325.167 219.72 325.341 220.257C325.53 220.779 325.776 221.207 326.081 221.541C326.386 221.86 326.734 222.1 327.125 222.259C327.517 222.404 327.923 222.477 328.344 222.477C329.055 222.477 329.65 222.303 330.128 221.955C330.622 221.606 330.97 221.128 331.173 220.518H333.131C332.856 221.664 332.29 222.571 331.434 223.238C330.578 223.891 329.548 224.218 328.344 224.218Z" fill="black"/>
<path d="M103.039 344.268H105.084V350.818H106.825L112.787 344.268H115.224L108.566 351.536L115.442 359.5H112.831L106.825 352.515H105.084V359.5H103.039V344.268ZM122.202 359.718C121.462 359.718 120.759 359.602 120.091 359.369C119.424 359.123 118.836 358.76 118.329 358.281C117.821 357.788 117.415 357.172 117.11 356.432C116.806 355.692 116.653 354.829 116.653 353.842V353.407C116.653 352.479 116.806 351.659 117.11 350.948C117.415 350.237 117.821 349.65 118.329 349.186C118.836 348.707 119.424 348.351 120.091 348.119C120.759 347.873 121.462 347.749 122.202 347.749C122.942 347.749 123.646 347.873 124.313 348.119C124.98 348.351 125.568 348.707 126.075 349.186C126.583 349.65 126.989 350.237 127.294 350.948C127.599 351.659 127.751 352.479 127.751 353.407V353.842C127.751 354.829 127.599 355.692 127.294 356.432C126.989 357.172 126.583 357.788 126.075 358.281C125.568 358.76 124.98 359.123 124.313 359.369C123.646 359.602 122.942 359.718 122.202 359.718ZM122.202 357.977C122.637 357.977 123.073 357.904 123.508 357.759C123.943 357.6 124.327 357.36 124.661 357.041C124.995 356.707 125.263 356.279 125.466 355.757C125.684 355.235 125.793 354.597 125.793 353.842V353.407C125.793 352.711 125.684 352.116 125.466 351.623C125.263 351.13 124.995 350.723 124.661 350.404C124.327 350.085 123.943 349.853 123.508 349.708C123.073 349.563 122.637 349.49 122.202 349.49C121.767 349.49 121.332 349.563 120.896 349.708C120.461 349.853 120.077 350.085 119.743 350.404C119.41 350.723 119.134 351.13 118.916 351.623C118.713 352.116 118.612 352.711 118.612 353.407V353.842C118.612 354.597 118.713 355.235 118.916 355.757C119.134 356.279 119.41 356.707 119.743 357.041C120.077 357.36 120.461 357.6 120.896 357.759C121.332 357.904 121.767 357.977 122.202 357.977ZM130.463 347.967H132.377V352.776H138.34V347.967H140.255V359.5H138.34V354.473H132.377V359.5H130.463V347.967ZM149.097 359.718C147.095 359.718 145.572 359.21 144.527 358.194C143.497 357.179 142.982 355.735 142.982 353.864V353.429C142.982 351.645 143.497 350.252 144.527 349.251C145.572 348.25 147.095 347.749 149.097 347.749V344.268H151.012V347.749C153.014 347.749 154.53 348.25 155.56 349.251C156.604 350.252 157.127 351.645 157.127 353.429V353.864C157.127 355.735 156.604 357.179 155.56 358.194C154.53 359.21 153.014 359.718 151.012 359.718V363.852H149.097V359.718ZM155.168 353.429C155.168 352.109 154.827 351.122 154.145 350.469C153.478 349.817 152.426 349.49 150.99 349.49V357.977C152.426 357.977 153.478 357.643 154.145 356.976C154.827 356.308 155.168 355.271 155.168 353.864V353.429ZM144.941 353.864C144.941 355.271 145.274 356.308 145.942 356.976C146.624 357.643 147.683 357.977 149.119 357.977V349.49C147.683 349.49 146.624 349.817 145.942 350.469C145.274 351.122 144.941 352.109 144.941 353.429V353.864ZM159.852 347.967H161.767V356.671L167.729 347.967H169.644V359.5H167.729V350.796L161.767 359.5H159.852V347.967ZM171.828 357.803H173.242C173.402 357.585 173.547 357.251 173.677 356.802C173.808 356.352 173.924 355.823 174.025 355.213C174.127 354.604 174.199 353.944 174.243 353.233C174.301 352.508 174.33 351.768 174.33 351.013V347.967H182.381V357.803H184.013V362.22H182.186V359.5H173.655V362.22H171.828V357.803ZM180.466 357.803V349.664H176.201V351.449C176.201 352.058 176.18 352.667 176.136 353.277C176.093 353.871 176.027 354.444 175.94 354.996C175.853 355.532 175.744 356.047 175.614 356.541C175.498 357.019 175.36 357.44 175.2 357.803H180.466ZM191.096 359.718C190.356 359.718 189.652 359.602 188.985 359.369C188.318 359.137 187.73 358.782 187.222 358.303C186.715 357.81 186.308 357.193 186.004 356.454C185.699 355.714 185.547 354.843 185.547 353.842V353.407C185.547 352.45 185.692 351.623 185.982 350.926C186.272 350.216 186.657 349.628 187.135 349.164C187.629 348.685 188.194 348.33 188.833 348.098C189.485 347.865 190.167 347.749 190.878 347.749C192.575 347.749 193.888 348.214 194.817 349.142C195.745 350.071 196.209 351.383 196.209 353.081V354.299H187.462C187.462 354.981 187.571 355.554 187.788 356.018C188.006 356.483 188.289 356.86 188.637 357.15C188.985 357.44 189.369 357.65 189.79 357.781C190.225 357.911 190.66 357.977 191.096 357.977C191.966 357.977 192.633 357.832 193.098 357.542C193.576 357.251 193.917 356.852 194.12 356.345H195.992C195.876 356.896 195.665 357.382 195.361 357.803C195.071 358.223 194.708 358.579 194.273 358.869C193.852 359.145 193.366 359.355 192.815 359.5C192.278 359.645 191.705 359.718 191.096 359.718ZM190.987 349.49C190.537 349.49 190.102 349.556 189.681 349.686C189.261 349.802 188.883 349.998 188.55 350.274C188.231 350.535 187.969 350.868 187.766 351.275C187.563 351.681 187.462 352.167 187.462 352.733H194.403C194.389 352.138 194.287 351.637 194.099 351.231C193.925 350.81 193.685 350.477 193.381 350.23C193.076 349.969 192.713 349.78 192.293 349.664C191.886 349.548 191.451 349.49 190.987 349.49ZM198.931 347.967H200.846V352.776H206.808V347.967H208.723V359.5H206.808V354.473H200.846V359.5H198.931V347.967ZM221.591 359.5H212.213V347.967H214.128V357.803H219.655V347.967H221.57V357.803H223.419V362.22H221.591V359.5ZM225.707 347.967H227.621V356.671L233.584 347.967H235.499V359.5H233.584V350.796L227.621 359.5H225.707V347.967ZM242.274 359.718C241.636 359.718 241.07 359.631 240.577 359.456C240.098 359.268 239.692 359.014 239.358 358.695C239.024 358.376 238.77 357.999 238.596 357.563C238.422 357.128 238.335 356.649 238.335 356.127C238.335 354.981 238.669 354.154 239.336 353.646C240.018 353.139 240.99 352.885 242.252 352.885H245.995V352.101C245.995 351.115 245.77 350.433 245.32 350.056C244.885 349.679 244.225 349.49 243.34 349.49C242.513 349.49 241.911 349.65 241.534 349.969C241.157 350.274 240.946 350.622 240.903 351.013H238.988C239.017 350.549 239.14 350.121 239.358 349.73C239.59 349.323 239.895 348.975 240.272 348.685C240.664 348.395 241.128 348.17 241.665 348.011C242.201 347.836 242.796 347.749 243.449 347.749C244.813 347.749 245.893 348.076 246.691 348.729C247.504 349.367 247.91 350.419 247.91 351.884V356.562C247.91 357.172 247.91 357.708 247.91 358.173C247.924 358.622 247.961 359.065 248.019 359.5H246.343C246.299 359.166 246.27 358.854 246.256 358.564C246.241 358.26 246.234 357.919 246.234 357.542C245.93 358.151 245.436 358.666 244.755 359.087C244.073 359.507 243.246 359.718 242.274 359.718ZM242.687 357.977C243.137 357.977 243.558 357.919 243.949 357.803C244.356 357.672 244.711 357.491 245.016 357.259C245.32 357.012 245.56 356.715 245.734 356.367C245.908 356.018 245.995 355.612 245.995 355.148V354.365H242.578C241.868 354.365 241.309 354.51 240.903 354.8C240.497 355.075 240.294 355.518 240.294 356.127C240.294 356.664 240.482 357.106 240.859 357.455C241.251 357.803 241.86 357.977 242.687 357.977ZM250.748 359.718C250.53 359.718 250.313 359.696 250.095 359.652V357.737C250.168 357.752 250.276 357.759 250.422 357.759C250.741 357.759 251.016 357.658 251.248 357.455C251.495 357.251 251.691 356.896 251.836 356.388C251.981 355.881 252.09 355.191 252.162 354.321C252.235 353.451 252.271 352.348 252.271 351.013V347.967H260.54V359.5H258.625V349.664H254.186V351.449C254.186 353.059 254.114 354.394 253.968 355.453C253.823 356.512 253.606 357.36 253.316 357.999C253.04 358.622 252.685 359.065 252.249 359.326C251.814 359.587 251.314 359.718 250.748 359.718ZM264.021 347.967H265.936V352.319H268.699C270.15 352.319 271.216 352.638 271.898 353.277C272.595 353.915 272.943 354.8 272.943 355.931C272.943 357.034 272.595 357.904 271.898 358.543C271.216 359.181 270.15 359.5 268.699 359.5H264.021V347.967ZM268.591 357.803C269.49 357.803 270.121 357.643 270.484 357.324C270.846 357.005 271.028 356.533 271.028 355.91C271.028 355.286 270.846 354.814 270.484 354.495C270.121 354.176 269.49 354.016 268.591 354.016H265.936V357.803H268.591ZM275.454 347.967H277.369V352.776H283.331V347.967H285.246V359.5H283.331V354.473H277.369V359.5H275.454V347.967ZM293.522 359.718C292.783 359.718 292.079 359.602 291.412 359.369C290.744 359.123 290.157 358.76 289.649 358.281C289.141 357.788 288.735 357.172 288.43 356.432C288.126 355.692 287.973 354.829 287.973 353.842V353.407C287.973 352.479 288.126 351.659 288.43 350.948C288.735 350.237 289.141 349.65 289.649 349.186C290.157 348.707 290.744 348.351 291.412 348.119C292.079 347.873 292.783 347.749 293.522 347.749C294.262 347.749 294.966 347.873 295.633 348.119C296.3 348.351 296.888 348.707 297.396 349.186C297.903 349.65 298.31 350.237 298.614 350.948C298.919 351.659 299.071 352.479 299.071 353.407V353.842C299.071 354.829 298.919 355.692 298.614 356.432C298.31 357.172 297.903 357.788 297.396 358.281C296.888 358.76 296.3 359.123 295.633 359.369C294.966 359.602 294.262 359.718 293.522 359.718ZM293.522 357.977C293.958 357.977 294.393 357.904 294.828 357.759C295.263 357.6 295.648 357.36 295.981 357.041C296.315 356.707 296.583 356.279 296.786 355.757C297.004 355.235 297.113 354.597 297.113 353.842V353.407C297.113 352.711 297.004 352.116 296.786 351.623C296.583 351.13 296.315 350.723 295.981 350.404C295.648 350.085 295.263 349.853 294.828 349.708C294.393 349.563 293.958 349.49 293.522 349.49C293.087 349.49 292.652 349.563 292.217 349.708C291.782 349.853 291.397 350.085 291.063 350.404C290.73 350.723 290.454 351.13 290.237 351.623C290.033 352.116 289.932 352.711 289.932 353.407V353.842C289.932 354.597 290.033 355.235 290.237 355.757C290.454 356.279 290.73 356.707 291.063 357.041C291.397 357.36 291.782 357.6 292.217 357.759C292.652 357.904 293.087 357.977 293.522 357.977ZM306.244 359.718C305.504 359.718 304.815 359.602 304.176 359.369C303.538 359.123 302.987 358.76 302.523 358.281C302.058 357.788 301.688 357.172 301.413 356.432C301.152 355.692 301.021 354.829 301.021 353.842V353.407C301.021 352.479 301.166 351.659 301.456 350.948C301.747 350.237 302.131 349.65 302.61 349.186C303.088 348.707 303.64 348.351 304.263 348.119C304.902 347.873 305.562 347.749 306.244 347.749C306.925 347.749 307.535 347.844 308.072 348.032C308.623 348.221 309.094 348.482 309.486 348.816C309.892 349.149 310.219 349.541 310.465 349.991C310.726 350.44 310.915 350.926 311.031 351.449H309.073C308.956 351.173 308.819 350.919 308.659 350.687C308.514 350.44 308.325 350.23 308.093 350.056C307.876 349.882 307.615 349.744 307.31 349.643C307.005 349.541 306.65 349.49 306.244 349.49C305.823 349.49 305.417 349.57 305.025 349.73C304.633 349.875 304.285 350.107 303.981 350.426C303.676 350.731 303.429 351.13 303.241 351.623C303.067 352.116 302.98 352.711 302.98 353.407V353.842C302.98 354.582 303.067 355.22 303.241 355.757C303.429 356.279 303.676 356.707 303.981 357.041C304.285 357.36 304.633 357.6 305.025 357.759C305.417 357.904 305.823 357.977 306.244 357.977C306.954 357.977 307.549 357.803 308.028 357.455C308.521 357.106 308.869 356.628 309.073 356.018H311.031C310.755 357.164 310.19 358.071 309.334 358.738C308.478 359.391 307.448 359.718 306.244 359.718ZM316.273 349.664H312.335V347.967H322.127V349.664H318.188V359.5H316.273V349.664ZM324.308 347.967H326.223V352.319H328.987C330.437 352.319 331.504 352.638 332.185 353.277C332.882 353.915 333.23 354.8 333.23 355.931C333.23 357.034 332.882 357.904 332.185 358.543C331.504 359.181 330.437 359.5 328.987 359.5H324.308V347.967ZM328.878 357.803C329.777 357.803 330.408 357.643 330.771 357.324C331.134 357.005 331.315 356.533 331.315 355.91C331.315 355.286 331.134 354.814 330.771 354.495C330.408 354.176 329.777 354.016 328.878 354.016H326.223V357.803H328.878Z" fill="black"/>
<path d="M210.609 503.5H198.75V488.268H200.796V501.716H208.455V488.268H210.501V501.716H212.568V506.329H210.609V503.5ZM219.529 503.718C218.789 503.718 218.085 503.602 217.418 503.369C216.751 503.137 216.163 502.782 215.655 502.303C215.148 501.81 214.741 501.193 214.437 500.454C214.132 499.714 213.98 498.843 213.98 497.842V497.407C213.98 496.45 214.125 495.623 214.415 494.926C214.705 494.216 215.09 493.628 215.568 493.164C216.062 492.685 216.627 492.33 217.266 492.098C217.918 491.865 218.6 491.749 219.311 491.749C221.008 491.749 222.321 492.214 223.25 493.142C224.178 494.071 224.642 495.383 224.642 497.081V498.299H215.895C215.895 498.981 216.003 499.554 216.221 500.018C216.439 500.483 216.722 500.86 217.07 501.15C217.418 501.44 217.802 501.65 218.223 501.781C218.658 501.911 219.093 501.977 219.529 501.977C220.399 501.977 221.066 501.832 221.531 501.542C222.009 501.251 222.35 500.852 222.553 500.345H224.425C224.309 500.896 224.098 501.382 223.794 501.803C223.504 502.223 223.141 502.579 222.706 502.869C222.285 503.145 221.799 503.355 221.248 503.5C220.711 503.645 220.138 503.718 219.529 503.718ZM219.42 493.49C218.97 493.49 218.535 493.556 218.114 493.686C217.694 493.802 217.316 493.998 216.983 494.274C216.664 494.535 216.402 494.868 216.199 495.275C215.996 495.681 215.895 496.167 215.895 496.733H222.836C222.822 496.138 222.72 495.637 222.532 495.231C222.358 494.81 222.118 494.477 221.814 494.23C221.509 493.969 221.146 493.78 220.725 493.664C220.319 493.548 219.884 493.49 219.42 493.49ZM226.608 503.718C226.39 503.718 226.172 503.696 225.955 503.652V501.737C226.027 501.752 226.136 501.759 226.281 501.759C226.6 501.759 226.876 501.658 227.108 501.455C227.355 501.251 227.551 500.896 227.696 500.388C227.841 499.881 227.949 499.191 228.022 498.321C228.095 497.451 228.131 496.348 228.131 495.013V491.967H236.4V503.5H234.485V493.664H230.046V495.449C230.046 497.059 229.973 498.394 229.828 499.453C229.683 500.512 229.465 501.36 229.175 501.999C228.9 502.622 228.544 503.065 228.109 503.326C227.674 503.587 227.173 503.718 226.608 503.718ZM244.668 503.718C243.928 503.718 243.224 503.602 242.557 503.369C241.89 503.123 241.302 502.76 240.794 502.281C240.287 501.788 239.881 501.172 239.576 500.432C239.271 499.692 239.119 498.829 239.119 497.842V497.407C239.119 496.479 239.271 495.659 239.576 494.948C239.881 494.237 240.287 493.65 240.794 493.186C241.302 492.707 241.89 492.351 242.557 492.119C243.224 491.873 243.928 491.749 244.668 491.749C245.408 491.749 246.111 491.873 246.779 492.119C247.446 492.351 248.033 492.707 248.541 493.186C249.049 493.65 249.455 494.237 249.76 494.948C250.064 495.659 250.217 496.479 250.217 497.407V497.842C250.217 498.829 250.064 499.692 249.76 500.432C249.455 501.172 249.049 501.788 248.541 502.281C248.033 502.76 247.446 503.123 246.779 503.369C246.111 503.602 245.408 503.718 244.668 503.718ZM244.668 501.977C245.103 501.977 245.538 501.904 245.973 501.759C246.409 501.6 246.793 501.36 247.127 501.041C247.46 500.707 247.729 500.279 247.932 499.757C248.149 499.235 248.258 498.597 248.258 497.842V497.407C248.258 496.711 248.149 496.116 247.932 495.623C247.729 495.13 247.46 494.723 247.127 494.404C246.793 494.085 246.409 493.853 245.973 493.708C245.538 493.563 245.103 493.49 244.668 493.49C244.233 493.49 243.797 493.563 243.362 493.708C242.927 493.853 242.543 494.085 242.209 494.404C241.875 494.723 241.6 495.13 241.382 495.623C241.179 496.116 241.077 496.711 241.077 497.407V497.842C241.077 498.597 241.179 499.235 241.382 499.757C241.6 500.279 241.875 500.707 242.209 501.041C242.543 501.36 242.927 501.6 243.362 501.759C243.797 501.904 244.233 501.977 244.668 501.977ZM257.389 503.718C256.649 503.718 255.96 503.602 255.322 503.369C254.684 503.123 254.132 502.76 253.668 502.281C253.204 501.788 252.834 501.172 252.558 500.432C252.297 499.692 252.167 498.829 252.167 497.842V497.407C252.167 496.479 252.312 495.659 252.602 494.948C252.892 494.237 253.276 493.65 253.755 493.186C254.234 492.707 254.785 492.351 255.409 492.119C256.047 491.873 256.707 491.749 257.389 491.749C258.071 491.749 258.68 491.844 259.217 492.032C259.768 492.221 260.24 492.482 260.631 492.816C261.038 493.149 261.364 493.541 261.611 493.991C261.872 494.44 262.06 494.926 262.176 495.449H260.218C260.102 495.173 259.964 494.919 259.805 494.687C259.659 494.44 259.471 494.23 259.239 494.056C259.021 493.882 258.76 493.744 258.455 493.643C258.151 493.541 257.795 493.49 257.389 493.49C256.968 493.49 256.562 493.57 256.171 493.73C255.779 493.875 255.431 494.107 255.126 494.426C254.821 494.731 254.575 495.13 254.386 495.623C254.212 496.116 254.125 496.711 254.125 497.407V497.842C254.125 498.582 254.212 499.22 254.386 499.757C254.575 500.279 254.821 500.707 255.126 501.041C255.431 501.36 255.779 501.6 256.171 501.759C256.562 501.904 256.968 501.977 257.389 501.977C258.1 501.977 258.695 501.803 259.173 501.455C259.667 501.106 260.015 500.628 260.218 500.018H262.176C261.901 501.164 261.335 502.071 260.479 502.738C259.623 503.391 258.593 503.718 257.389 503.718ZM267.419 493.664H263.48V491.967H273.272V493.664H269.334V503.5H267.419V493.664ZM275.454 491.967H277.369V496.776H283.331V491.967H285.246V503.5H283.331V498.473H277.369V503.5H275.454V491.967ZM293.522 503.718C292.783 503.718 292.079 503.602 291.412 503.369C290.744 503.123 290.157 502.76 289.649 502.281C289.141 501.788 288.735 501.172 288.43 500.432C288.126 499.692 287.973 498.829 287.973 497.842V497.407C287.973 496.479 288.126 495.659 288.43 494.948C288.735 494.237 289.141 493.65 289.649 493.186C290.157 492.707 290.744 492.351 291.412 492.119C292.079 491.873 292.783 491.749 293.522 491.749C294.262 491.749 294.966 491.873 295.633 492.119C296.3 492.351 296.888 492.707 297.396 493.186C297.903 493.65 298.31 494.237 298.614 494.948C298.919 495.659 299.071 496.479 299.071 497.407V497.842C299.071 498.829 298.919 499.692 298.614 500.432C298.31 501.172 297.903 501.788 297.396 502.281C296.888 502.76 296.3 503.123 295.633 503.369C294.966 503.602 294.262 503.718 293.522 503.718ZM293.522 501.977C293.958 501.977 294.393 501.904 294.828 501.759C295.263 501.6 295.648 501.36 295.981 501.041C296.315 500.707 296.583 500.279 296.786 499.757C297.004 499.235 297.113 498.597 297.113 497.842V497.407C297.113 496.711 297.004 496.116 296.786 495.623C296.583 495.13 296.315 494.723 295.981 494.404C295.648 494.085 295.263 493.853 294.828 493.708C294.393 493.563 293.958 493.49 293.522 493.49C293.087 493.49 292.652 493.563 292.217 493.708C291.782 493.853 291.397 494.085 291.063 494.404C290.73 494.723 290.454 495.13 290.237 495.623C290.033 496.116 289.932 496.711 289.932 497.407V497.842C289.932 498.597 290.033 499.235 290.237 499.757C290.454 500.279 290.73 500.707 291.063 501.041C291.397 501.36 291.782 501.6 292.217 501.759C292.652 501.904 293.087 501.977 293.522 501.977ZM306.244 503.718C305.504 503.718 304.815 503.602 304.176 503.369C303.538 503.123 302.987 502.76 302.523 502.281C302.058 501.788 301.688 501.172 301.413 500.432C301.152 499.692 301.021 498.829 301.021 497.842V497.407C301.021 496.479 301.166 495.659 301.456 494.948C301.747 494.237 302.131 493.65 302.61 493.186C303.088 492.707 303.64 492.351 304.263 492.119C304.902 491.873 305.562 491.749 306.244 491.749C306.925 491.749 307.535 491.844 308.072 492.032C308.623 492.221 309.094 492.482 309.486 492.816C309.892 493.149 310.219 493.541 310.465 493.991C310.726 494.44 310.915 494.926 311.031 495.449H309.073C308.956 495.173 308.819 494.919 308.659 494.687C308.514 494.44 308.325 494.23 308.093 494.056C307.876 493.882 307.615 493.744 307.31 493.643C307.005 493.541 306.65 493.49 306.244 493.49C305.823 493.49 305.417 493.57 305.025 493.73C304.633 493.875 304.285 494.107 303.981 494.426C303.676 494.731 303.429 495.13 303.241 495.623C303.067 496.116 302.98 496.711 302.98 497.407V497.842C302.98 498.582 303.067 499.22 303.241 499.757C303.429 500.279 303.676 500.707 303.981 501.041C304.285 501.36 304.633 501.6 305.025 501.759C305.417 501.904 305.823 501.977 306.244 501.977C306.954 501.977 307.549 501.803 308.028 501.455C308.521 501.106 308.869 500.628 309.073 500.018H311.031C310.755 501.164 310.19 502.071 309.334 502.738C308.478 503.391 307.448 503.718 306.244 503.718ZM316.273 493.664H312.335V491.967H322.127V493.664H318.188V503.5H316.273V493.664ZM324.308 491.967H326.223V496.319H328.987C330.437 496.319 331.504 496.638 332.185 497.277C332.882 497.915 333.23 498.8 333.23 499.931C333.23 501.034 332.882 501.904 332.185 502.543C331.504 503.181 330.437 503.5 328.987 503.5H324.308V491.967ZM328.878 501.803C329.777 501.803 330.408 501.643 330.771 501.324C331.134 501.005 331.315 500.533 331.315 499.91C331.315 499.286 331.134 498.814 330.771 498.495C330.408 498.176 329.777 498.016 328.878 498.016H326.223V501.803H328.878Z" fill="black"/>
<path d="M165.093 639.714H158.652L157.194 643.5H155.061L160.893 628.268H162.938L168.77 643.5H166.551L165.093 639.714ZM159.326 637.929H164.418L161.872 630.879L159.326 637.929ZM171.171 648.07C170.954 648.07 170.736 648.048 170.519 648.004V646.264C170.736 646.307 170.954 646.329 171.171 646.329C171.389 646.329 171.578 646.293 171.737 646.22C171.897 646.148 172.049 646.01 172.194 645.807C172.339 645.604 172.492 645.313 172.651 644.936C172.825 644.574 173.021 644.095 173.239 643.5L168.343 631.967H170.475L174.218 641.324L177.612 631.967H179.658L175.306 643.5C175.001 644.312 174.711 645.009 174.435 645.589C174.16 646.169 173.862 646.641 173.543 647.003C173.239 647.381 172.898 647.649 172.521 647.809C172.143 647.983 171.694 648.07 171.171 648.07ZM184.883 633.664H180.944V631.967H190.736V633.664H186.798V643.5H184.883V633.664ZM197.492 643.718C196.752 643.718 196.049 643.602 195.381 643.369C194.714 643.137 194.126 642.782 193.619 642.303C193.111 641.81 192.705 641.193 192.4 640.454C192.095 639.714 191.943 638.843 191.943 637.842V637.407C191.943 636.45 192.088 635.623 192.378 634.926C192.669 634.216 193.053 633.628 193.532 633.164C194.025 632.685 194.591 632.33 195.229 632.098C195.882 631.865 196.564 631.749 197.274 631.749C198.972 631.749 200.285 632.214 201.213 633.142C202.142 634.071 202.606 635.383 202.606 637.081V638.299H193.858C193.858 638.981 193.967 639.554 194.184 640.018C194.402 640.483 194.685 640.86 195.033 641.15C195.381 641.44 195.766 641.65 196.186 641.781C196.622 641.911 197.057 641.977 197.492 641.977C198.362 641.977 199.03 641.832 199.494 641.542C199.973 641.251 200.314 640.852 200.517 640.345H202.388C202.272 640.896 202.062 641.382 201.757 641.803C201.467 642.223 201.104 642.579 200.669 642.869C200.248 643.145 199.762 643.355 199.211 643.5C198.674 643.645 198.101 643.718 197.492 643.718ZM197.383 633.49C196.934 633.49 196.498 633.556 196.078 633.686C195.657 633.802 195.28 633.998 194.946 634.274C194.627 634.535 194.366 634.868 194.163 635.275C193.96 635.681 193.858 636.167 193.858 636.733H200.8C200.785 636.138 200.684 635.637 200.495 635.231C200.321 634.81 200.082 634.477 199.777 634.23C199.472 633.969 199.11 633.78 198.689 633.664C198.283 633.548 197.847 633.49 197.383 633.49ZM205.327 631.967H207.242V636.776H213.205V631.967H215.12V643.5H213.205V638.473H207.242V643.5H205.327V631.967ZM221.242 633.664H217.303V631.967H227.095V633.664H223.157V643.5H221.242V633.664ZM229.277 631.967H231.192V640.671L237.154 631.967H239.069V643.5H237.154V634.796L231.192 643.5H229.277V631.967ZM247.911 643.718C245.909 643.718 244.386 643.21 243.341 642.194C242.311 641.179 241.796 639.735 241.796 637.864V637.429C241.796 635.645 242.311 634.252 243.341 633.251C244.386 632.25 245.909 631.749 247.911 631.749V628.268H249.826V631.749C251.828 631.749 253.344 632.25 254.374 633.251C255.418 634.252 255.941 635.645 255.941 637.429V637.864C255.941 639.735 255.418 641.179 254.374 642.194C253.344 643.21 251.828 643.718 249.826 643.718V647.852H247.911V643.718ZM253.982 637.429C253.982 636.109 253.641 635.122 252.96 634.469C252.292 633.817 251.24 633.49 249.804 633.49V641.977C251.24 641.977 252.292 641.643 252.96 640.976C253.641 640.308 253.982 639.271 253.982 637.864V637.429ZM243.755 637.864C243.755 639.271 244.089 640.308 244.756 640.976C245.438 641.643 246.497 641.977 247.933 641.977V633.49C246.497 633.49 245.438 633.817 244.756 634.469C244.089 635.122 243.755 636.109 243.755 637.429V637.864ZM258.666 631.967H260.581V640.671L266.543 631.967H268.458V643.5H266.543V634.796L260.581 643.5H258.666V631.967ZM271.947 631.967H273.862V636.798H275.385L279.694 631.967H281.957L276.952 637.494L282.175 643.5H279.738L275.385 638.452H273.862V643.5H271.947V631.967ZM287.537 643.718C286.899 643.718 286.333 643.631 285.84 643.456C285.361 643.268 284.955 643.014 284.621 642.695C284.288 642.376 284.034 641.999 283.86 641.563C283.685 641.128 283.598 640.649 283.598 640.127C283.598 638.981 283.932 638.154 284.599 637.646C285.281 637.139 286.253 636.885 287.515 636.885H291.258V636.101C291.258 635.115 291.033 634.433 290.584 634.056C290.148 633.679 289.488 633.49 288.603 633.49C287.776 633.49 287.174 633.65 286.797 633.969C286.42 634.274 286.21 634.622 286.166 635.013H284.251C284.28 634.549 284.404 634.121 284.621 633.73C284.853 633.323 285.158 632.975 285.535 632.685C285.927 632.395 286.391 632.17 286.928 632.011C287.465 631.836 288.059 631.749 288.712 631.749C290.076 631.749 291.157 632.076 291.954 632.729C292.767 633.367 293.173 634.419 293.173 635.884V640.562C293.173 641.172 293.173 641.708 293.173 642.173C293.188 642.622 293.224 643.065 293.282 643.5H291.606C291.563 643.166 291.534 642.854 291.519 642.564C291.505 642.26 291.497 641.919 291.497 641.542C291.193 642.151 290.7 642.666 290.018 643.087C289.336 643.507 288.509 643.718 287.537 643.718ZM287.951 641.977C288.4 641.977 288.821 641.919 289.213 641.803C289.619 641.672 289.974 641.491 290.279 641.259C290.584 641.012 290.823 640.715 290.997 640.367C291.171 640.018 291.258 639.612 291.258 639.148V638.365H287.842C287.131 638.365 286.572 638.51 286.166 638.8C285.76 639.075 285.557 639.518 285.557 640.127C285.557 640.664 285.745 641.106 286.123 641.455C286.514 641.803 287.124 641.977 287.951 641.977ZM305.934 643.5H296.555V631.967H298.47V641.803H303.997V631.967H305.912V641.803H307.762V646.22H305.934V643.5ZM310.049 631.967H311.964V640.671L317.926 631.967H319.841V643.5H317.926V634.796L311.964 643.5H310.049V631.967ZM325.594 638.93C324.636 638.713 323.947 638.321 323.526 637.755C323.106 637.175 322.895 636.435 322.895 635.536C322.895 634.404 323.236 633.527 323.918 632.903C324.614 632.279 325.724 631.967 327.247 631.967H332.252V643.5H330.337V639.104H327.4L324.593 643.5H322.46L325.594 638.93ZM324.81 635.536C324.81 636.145 324.984 636.609 325.333 636.928C325.695 637.248 326.297 637.407 327.139 637.407H330.337V633.664H327.139C326.297 633.664 325.695 633.824 325.333 634.143C324.984 634.462 324.81 634.926 324.81 635.536Z" fill="black"/>
<path d="M361.953 121.218C361.039 121.218 360.242 121.109 359.56 120.891C358.878 120.674 358.305 120.376 357.841 119.999C357.376 119.607 357.006 119.158 356.731 118.65C356.47 118.128 356.288 117.569 356.187 116.974H358.232C358.305 117.308 358.428 117.627 358.602 117.932C358.776 118.222 359.008 118.476 359.299 118.693C359.603 118.911 359.973 119.085 360.408 119.216C360.844 119.332 361.359 119.39 361.953 119.39C363.172 119.39 364.093 119.158 364.717 118.693C365.355 118.229 365.674 117.656 365.674 116.974C365.674 116.554 365.602 116.198 365.457 115.908C365.326 115.618 365.094 115.364 364.76 115.146C364.441 114.929 364.013 114.733 363.477 114.559C362.954 114.385 362.309 114.211 361.54 114.037C360.684 113.848 359.944 113.645 359.32 113.427C358.711 113.195 358.203 112.912 357.797 112.579C357.405 112.231 357.108 111.817 356.905 111.338C356.716 110.86 356.622 110.272 356.622 109.576C356.622 109.01 356.745 108.488 356.992 108.009C357.239 107.516 357.587 107.088 358.036 106.725C358.501 106.363 359.059 106.08 359.712 105.877C360.379 105.659 361.126 105.55 361.953 105.55C362.766 105.55 363.477 105.659 364.086 105.877C364.695 106.08 365.21 106.363 365.631 106.725C366.066 107.088 366.407 107.516 366.654 108.009C366.9 108.488 367.074 109.01 367.176 109.576H365.13C365.058 109.271 364.949 108.988 364.804 108.727C364.659 108.452 364.456 108.219 364.195 108.031C363.948 107.828 363.636 107.668 363.259 107.552C362.896 107.436 362.461 107.378 361.953 107.378C360.909 107.378 360.096 107.596 359.516 108.031C358.95 108.452 358.668 108.967 358.668 109.576C358.668 109.968 358.74 110.308 358.885 110.599C359.03 110.874 359.255 111.121 359.56 111.338C359.864 111.542 360.249 111.723 360.713 111.882C361.192 112.027 361.757 112.173 362.41 112.318C363.353 112.521 364.158 112.753 364.826 113.014C365.508 113.261 366.059 113.565 366.479 113.928C366.915 114.291 367.227 114.719 367.415 115.212C367.618 115.705 367.72 116.293 367.72 116.974C367.72 117.569 367.589 118.128 367.328 118.65C367.067 119.158 366.69 119.607 366.197 119.999C365.703 120.376 365.101 120.674 364.39 120.891C363.68 121.109 362.867 121.218 361.953 121.218ZM379.163 117.214H372.722L371.264 121H369.132L374.963 105.768H377.009L382.841 121H380.621L379.163 117.214ZM373.397 115.429H378.489L375.943 108.379L373.397 115.429ZM390.89 105.768H402.859V121H400.813V107.552H392.936V121H390.89V105.768ZM406.775 109.467H408.56V111.643C408.951 110.874 409.495 110.287 410.192 109.88C410.903 109.46 411.722 109.249 412.651 109.249C414.101 109.249 415.262 109.728 416.132 110.686C417.003 111.629 417.438 113.036 417.438 114.907V115.342C417.438 116.329 417.322 117.192 417.09 117.932C416.858 118.657 416.531 119.266 416.111 119.76C415.69 120.238 415.182 120.601 414.587 120.848C414.007 121.094 413.362 121.218 412.651 121.218C411.664 121.218 410.837 121 410.17 120.565C409.517 120.13 409.024 119.586 408.69 118.933V125.352H406.775V109.467ZM412.215 119.52C412.68 119.52 413.115 119.433 413.521 119.259C413.927 119.071 414.275 118.802 414.566 118.454C414.87 118.106 415.102 117.671 415.262 117.148C415.436 116.626 415.523 116.024 415.523 115.342V114.907C415.523 114.283 415.436 113.725 415.262 113.232C415.102 112.738 414.87 112.325 414.566 111.991C414.275 111.643 413.927 111.382 413.521 111.208C413.115 111.034 412.68 110.947 412.215 110.947C411.693 110.947 411.215 111.034 410.779 111.208C410.344 111.367 409.974 111.6 409.67 111.904C409.365 112.194 409.126 112.542 408.951 112.949C408.777 113.355 408.69 113.79 408.69 114.254V115.995C408.69 116.517 408.777 116.996 408.951 117.431C409.126 117.867 409.365 118.236 409.67 118.541C409.974 118.846 410.344 119.085 410.779 119.259C411.215 119.433 411.693 119.52 412.215 119.52ZM420.163 109.467H422.078V118.171L428.04 109.467H429.955V121H428.04V112.296L422.078 121H420.163V109.467ZM433.445 109.467H435.49L439.603 116.648L443.715 109.467H445.63V121H443.715V112.622L440.299 118.498H438.776L435.359 112.622V121H433.445V109.467ZM453.893 121.218C453.154 121.218 452.45 121.102 451.783 120.869C451.115 120.637 450.528 120.282 450.02 119.803C449.512 119.31 449.106 118.693 448.801 117.954C448.497 117.214 448.344 116.343 448.344 115.342V114.907C448.344 113.95 448.49 113.123 448.78 112.426C449.07 111.716 449.454 111.128 449.933 110.664C450.426 110.185 450.992 109.83 451.63 109.598C452.283 109.365 452.965 109.249 453.676 109.249C455.373 109.249 456.686 109.714 457.614 110.642C458.543 111.571 459.007 112.883 459.007 114.581V115.799H450.259C450.259 116.481 450.368 117.054 450.586 117.518C450.803 117.983 451.086 118.36 451.434 118.65C451.783 118.94 452.167 119.15 452.588 119.281C453.023 119.411 453.458 119.477 453.893 119.477C454.764 119.477 455.431 119.332 455.895 119.042C456.374 118.751 456.715 118.352 456.918 117.845H458.789C458.673 118.396 458.463 118.882 458.158 119.303C457.868 119.723 457.506 120.079 457.07 120.369C456.65 120.645 456.164 120.855 455.612 121C455.076 121.145 454.503 121.218 453.893 121.218ZM453.785 110.99C453.335 110.99 452.9 111.056 452.479 111.186C452.058 111.302 451.681 111.498 451.347 111.774C451.028 112.035 450.767 112.368 450.564 112.775C450.361 113.181 450.259 113.667 450.259 114.233H457.201C457.186 113.638 457.085 113.137 456.896 112.731C456.722 112.31 456.483 111.977 456.178 111.73C455.874 111.469 455.511 111.28 455.09 111.164C454.684 111.048 454.249 110.99 453.785 110.99ZM461.729 109.467H463.513V111.643C463.905 110.874 464.449 110.287 465.145 109.88C465.856 109.46 466.676 109.249 467.604 109.249C469.055 109.249 470.215 109.728 471.086 110.686C471.956 111.629 472.391 113.036 472.391 114.907V115.342C472.391 116.329 472.275 117.192 472.043 117.932C471.811 118.657 471.485 119.266 471.064 119.76C470.643 120.238 470.136 120.601 469.541 120.848C468.96 121.094 468.315 121.218 467.604 121.218C466.618 121.218 465.791 121 465.123 120.565C464.471 120.13 463.977 119.586 463.644 118.933V125.352H461.729V109.467ZM467.169 119.52C467.633 119.52 468.068 119.433 468.474 119.259C468.881 119.071 469.229 118.802 469.519 118.454C469.824 118.106 470.056 117.671 470.215 117.148C470.389 116.626 470.476 116.024 470.476 115.342V114.907C470.476 114.283 470.389 113.725 470.215 113.232C470.056 112.738 469.824 112.325 469.519 111.991C469.229 111.643 468.881 111.382 468.474 111.208C468.068 111.034 467.633 110.947 467.169 110.947C466.647 110.947 466.168 111.034 465.733 111.208C465.297 111.367 464.928 111.6 464.623 111.904C464.318 112.194 464.079 112.542 463.905 112.949C463.731 113.355 463.644 113.79 463.644 114.254V115.995C463.644 116.517 463.731 116.996 463.905 117.431C464.079 117.867 464.318 118.236 464.623 118.541C464.928 118.846 465.297 119.085 465.733 119.259C466.168 119.433 466.647 119.52 467.169 119.52ZM480.013 119.216H483.647V108.009L480.013 110.599V108.379L483.69 105.768H485.736V119.216H488.717V121H480.013V119.216Z" fill="black"/>
<path d="M547.423 121.218C546.509 121.218 545.711 121.109 545.029 120.891C544.347 120.674 543.774 120.376 543.31 119.999C542.846 119.607 542.476 119.158 542.2 118.65C541.939 118.128 541.758 117.569 541.656 116.974H543.702C543.774 117.308 543.898 117.627 544.072 117.932C544.246 118.222 544.478 118.476 544.768 118.693C545.073 118.911 545.442 119.085 545.878 119.216C546.313 119.332 546.828 119.39 547.423 119.39C548.641 119.39 549.562 119.158 550.186 118.693C550.825 118.229 551.144 117.656 551.144 116.974C551.144 116.554 551.071 116.198 550.926 115.908C550.796 115.618 550.563 115.364 550.23 115.146C549.911 114.929 549.483 114.733 548.946 114.559C548.424 114.385 547.778 114.211 547.009 114.037C546.153 113.848 545.413 113.645 544.79 113.427C544.18 113.195 543.673 112.912 543.266 112.579C542.875 112.231 542.577 111.817 542.374 111.338C542.186 110.86 542.091 110.272 542.091 109.576C542.091 109.01 542.215 108.488 542.461 108.009C542.708 107.516 543.056 107.088 543.506 106.725C543.97 106.363 544.529 106.08 545.181 105.877C545.849 105.659 546.596 105.55 547.423 105.55C548.235 105.55 548.946 105.659 549.555 105.877C550.164 106.08 550.679 106.363 551.1 106.725C551.535 107.088 551.876 107.516 552.123 108.009C552.37 108.488 552.544 109.01 552.645 109.576H550.6C550.527 109.271 550.418 108.988 550.273 108.727C550.128 108.452 549.925 108.219 549.664 108.031C549.417 107.828 549.105 107.668 548.728 107.552C548.366 107.436 547.93 107.378 547.423 107.378C546.378 107.378 545.566 107.596 544.986 108.031C544.42 108.452 544.137 108.967 544.137 109.576C544.137 109.968 544.209 110.308 544.354 110.599C544.5 110.874 544.724 111.121 545.029 111.338C545.334 111.542 545.718 111.723 546.182 111.882C546.661 112.027 547.227 112.173 547.88 112.318C548.823 112.521 549.628 112.753 550.295 113.014C550.977 113.261 551.528 113.565 551.949 113.928C552.384 114.291 552.696 114.719 552.885 115.212C553.088 115.705 553.189 116.293 553.189 116.974C553.189 117.569 553.059 118.128 552.797 118.65C552.536 119.158 552.159 119.607 551.666 119.999C551.173 120.376 550.571 120.674 549.86 120.891C549.149 121.109 548.337 121.218 547.423 121.218ZM564.633 117.214H558.192L556.734 121H554.601L560.433 105.768H562.478L568.31 121H566.091L564.633 117.214ZM558.866 115.429H563.958L561.412 108.379L558.866 115.429ZM576.36 105.768H588.328V121H586.282V107.552H578.405V121H576.36V105.768ZM592.245 109.467H594.029V111.643C594.421 110.874 594.965 110.287 595.661 109.88C596.372 109.46 597.192 109.249 598.12 109.249C599.571 109.249 600.731 109.728 601.602 110.686C602.472 111.629 602.907 113.036 602.907 114.907V115.342C602.907 116.329 602.791 117.192 602.559 117.932C602.327 118.657 602.001 119.266 601.58 119.76C601.159 120.238 600.652 120.601 600.057 120.848C599.476 121.094 598.831 121.218 598.12 121.218C597.134 121.218 596.307 121 595.639 120.565C594.987 120.13 594.493 119.586 594.16 118.933V125.352H592.245V109.467ZM597.685 119.52C598.149 119.52 598.584 119.433 598.99 119.259C599.397 119.071 599.745 118.802 600.035 118.454C600.34 118.106 600.572 117.671 600.731 117.148C600.905 116.626 600.992 116.024 600.992 115.342V114.907C600.992 114.283 600.905 113.725 600.731 113.232C600.572 112.738 600.34 112.325 600.035 111.991C599.745 111.643 599.397 111.382 598.99 111.208C598.584 111.034 598.149 110.947 597.685 110.947C597.163 110.947 596.684 111.034 596.249 111.208C595.813 111.367 595.444 111.6 595.139 111.904C594.834 112.194 594.595 112.542 594.421 112.949C594.247 113.355 594.16 113.79 594.16 114.254V115.995C594.16 116.517 594.247 116.996 594.421 117.431C594.595 117.867 594.834 118.236 595.139 118.541C595.444 118.846 595.813 119.085 596.249 119.259C596.684 119.433 597.163 119.52 597.685 119.52ZM605.632 109.467H607.547V118.171L613.51 109.467H615.425V121H613.51V112.296L607.547 121H605.632V109.467ZM618.914 109.467H620.959L625.072 116.648L629.185 109.467H631.1V121H629.185V112.622L625.768 118.498H624.245L620.829 112.622V121H618.914V109.467ZM639.363 121.218C638.623 121.218 637.919 121.102 637.252 120.869C636.585 120.637 635.997 120.282 635.489 119.803C634.982 119.31 634.575 118.693 634.271 117.954C633.966 117.214 633.814 116.343 633.814 115.342V114.907C633.814 113.95 633.959 113.123 634.249 112.426C634.539 111.716 634.924 111.128 635.402 110.664C635.896 110.185 636.461 109.83 637.1 109.598C637.752 109.365 638.434 109.249 639.145 109.249C640.842 109.249 642.155 109.714 643.084 110.642C644.012 111.571 644.476 112.883 644.476 114.581V115.799H635.729C635.729 116.481 635.838 117.054 636.055 117.518C636.273 117.983 636.556 118.36 636.904 118.65C637.252 118.94 637.636 119.15 638.057 119.281C638.492 119.411 638.928 119.477 639.363 119.477C640.233 119.477 640.9 119.332 641.365 119.042C641.843 118.751 642.184 118.352 642.387 117.845H644.259C644.143 118.396 643.932 118.882 643.628 119.303C643.338 119.723 642.975 120.079 642.54 120.369C642.119 120.645 641.633 120.855 641.082 121C640.545 121.145 639.972 121.218 639.363 121.218ZM639.254 110.99C638.804 110.99 638.369 111.056 637.948 111.186C637.528 111.302 637.15 111.498 636.817 111.774C636.498 112.035 636.236 112.368 636.033 112.775C635.83 113.181 635.729 113.667 635.729 114.233H642.67C642.656 113.638 642.554 113.137 642.366 112.731C642.192 112.31 641.952 111.977 641.648 111.73C641.343 111.469 640.98 111.28 640.56 111.164C640.153 111.048 639.718 110.99 639.254 110.99ZM647.198 109.467H648.982V111.643C649.374 110.874 649.918 110.287 650.615 109.88C651.325 109.46 652.145 109.249 653.073 109.249C654.524 109.249 655.685 109.728 656.555 110.686C657.426 111.629 657.861 113.036 657.861 114.907V115.342C657.861 116.329 657.745 117.192 657.513 117.932C657.28 118.657 656.954 119.266 656.533 119.76C656.113 120.238 655.605 120.601 655.01 120.848C654.43 121.094 653.784 121.218 653.073 121.218C652.087 121.218 651.26 121 650.593 120.565C649.94 120.13 649.447 119.586 649.113 118.933V125.352H647.198V109.467ZM652.638 119.52C653.102 119.52 653.538 119.433 653.944 119.259C654.35 119.071 654.698 118.802 654.988 118.454C655.293 118.106 655.525 117.671 655.685 117.148C655.859 116.626 655.946 116.024 655.946 115.342V114.907C655.946 114.283 655.859 113.725 655.685 113.232C655.525 112.738 655.293 112.325 654.988 111.991C654.698 111.643 654.35 111.382 653.944 111.208C653.538 111.034 653.102 110.947 652.638 110.947C652.116 110.947 651.637 111.034 651.202 111.208C650.767 111.367 650.397 111.6 650.092 111.904C649.788 112.194 649.548 112.542 649.374 112.949C649.2 113.355 649.113 113.79 649.113 114.254V115.995C649.113 116.517 649.2 116.996 649.374 117.431C649.548 117.867 649.788 118.236 650.092 118.541C650.397 118.846 650.767 119.085 651.202 119.259C651.637 119.433 652.116 119.52 652.638 119.52ZM665.156 119.324L671.248 114.037C671.713 113.645 672.09 113.29 672.38 112.97C672.685 112.651 672.924 112.354 673.098 112.078C673.272 111.788 673.388 111.505 673.446 111.23C673.519 110.954 673.555 110.657 673.555 110.337C673.555 109.482 673.301 108.778 672.793 108.227C672.286 107.661 671.589 107.378 670.704 107.378C669.645 107.378 668.833 107.668 668.267 108.248C667.701 108.814 667.419 109.619 667.419 110.664H665.373C665.373 109.924 665.496 109.242 665.743 108.618C666.004 107.98 666.367 107.436 666.831 106.986C667.31 106.537 667.876 106.188 668.528 105.942C669.181 105.681 669.907 105.55 670.704 105.55C671.473 105.55 672.162 105.673 672.772 105.92C673.381 106.152 673.896 106.486 674.317 106.921C674.737 107.342 675.056 107.842 675.274 108.423C675.492 109.003 675.6 109.641 675.6 110.337C675.6 110.86 675.521 111.346 675.361 111.795C675.202 112.245 674.977 112.673 674.687 113.079C674.411 113.485 674.07 113.884 673.664 114.276C673.272 114.653 672.837 115.045 672.358 115.451L667.81 119.216H675.818V121H665.156V119.324Z" fill="black"/>
<rect width="140" height="140" transform="translate(352.684 145)" fill="#404040"/>
<rect x="373.184" y="165.5" width="99" height="99" fill="#ABCFF4" stroke="#4C89BE"/>
<path d="M417.88 219.214H411.439L409.981 223H407.849L413.68 207.768H415.726L421.558 223H419.338L417.88 219.214ZM412.114 217.429H417.206L414.66 210.379L412.114 217.429ZM424.167 207.768H426.213V214.274H434.308V207.768H436.353V223H434.308V216.058H426.213V223H424.167V207.768Z" fill="black"/>
<rect width="140" height="140" transform="translate(352.684 285)" fill="#404040"/>
<rect x="372.684" y="305" width="100" height="100" fill="#D9D9D9"/>
<rect width="140" height="140" transform="translate(352.684 425)" fill="#404040"/>
<rect x="373.184" y="445.5" width="99" height="99" fill="#ABD4C1" stroke="#58A982"/>
<path d="M417.88 499.214H411.439L409.981 503H407.849L413.68 487.768H415.726L421.558 503H419.338L417.88 499.214ZM412.114 497.429H417.206L414.66 490.379L412.114 497.429ZM424.167 487.768H426.213V494.274H434.308V487.768H436.353V503H434.308V496.058H426.213V503H424.167V487.768Z" fill="black"/>
<rect width="140" height="140" transform="translate(352.684 565)" fill="#404040"/>
<rect x="373.184" y="585.5" width="99" height="99" fill="#E6B9B7" stroke="#CD859B"/>
<path d="M403.544 627.768H408.766C409.767 627.768 410.638 627.884 411.378 628.116C412.117 628.348 412.727 628.674 413.205 629.095C413.699 629.501 414.061 629.995 414.293 630.575C414.526 631.141 414.642 631.764 414.642 632.446C414.642 633.128 414.526 633.759 414.293 634.339C414.061 634.905 413.699 635.398 413.205 635.819C412.727 636.225 412.117 636.544 411.378 636.777C410.638 637.009 409.767 637.125 408.766 637.125H405.589V643H403.544V627.768ZM408.657 635.34C409.383 635.34 409.992 635.275 410.485 635.145C410.993 634.999 411.399 634.804 411.704 634.557C412.023 634.31 412.248 634.006 412.379 633.643C412.524 633.28 412.596 632.881 412.596 632.446C412.596 632.011 412.524 631.612 412.379 631.249C412.248 630.887 412.023 630.582 411.704 630.335C411.399 630.089 410.993 629.9 410.485 629.77C409.992 629.625 409.383 629.552 408.657 629.552H405.589V635.34H408.657ZM422.59 643.218C421.676 643.218 420.878 643.109 420.196 642.891C419.515 642.674 418.942 642.376 418.477 641.999C418.013 641.607 417.643 641.158 417.368 640.65C417.106 640.128 416.925 639.569 416.824 638.974H418.869C418.942 639.308 419.065 639.627 419.239 639.932C419.413 640.222 419.645 640.476 419.935 640.693C420.24 640.911 420.61 641.085 421.045 641.216C421.48 641.332 421.995 641.39 422.59 641.39C423.809 641.39 424.73 641.158 425.354 640.693C425.992 640.229 426.311 639.656 426.311 638.974C426.311 638.554 426.239 638.198 426.093 637.908C425.963 637.618 425.731 637.364 425.397 637.146C425.078 636.929 424.65 636.733 424.113 636.559C423.591 636.385 422.945 636.211 422.177 636.037C421.321 635.848 420.581 635.645 419.957 635.427C419.348 635.195 418.84 634.912 418.434 634.579C418.042 634.231 417.745 633.817 417.542 633.338C417.353 632.86 417.259 632.272 417.259 631.576C417.259 631.01 417.382 630.488 417.629 630.009C417.875 629.516 418.223 629.088 418.673 628.725C419.137 628.363 419.696 628.08 420.349 627.877C421.016 627.659 421.763 627.55 422.59 627.55C423.402 627.55 424.113 627.659 424.723 627.877C425.332 628.08 425.847 628.363 426.268 628.725C426.703 629.088 427.044 629.516 427.29 630.009C427.537 630.488 427.711 631.01 427.813 631.576H425.767C425.695 631.271 425.586 630.988 425.441 630.727C425.296 630.452 425.093 630.219 424.831 630.031C424.585 629.828 424.273 629.668 423.896 629.552C423.533 629.436 423.098 629.378 422.59 629.378C421.546 629.378 420.733 629.596 420.153 630.031C419.587 630.452 419.304 630.967 419.304 631.576C419.304 631.968 419.377 632.308 419.522 632.599C419.667 632.874 419.892 633.121 420.196 633.338C420.501 633.542 420.886 633.723 421.35 633.882C421.828 634.027 422.394 634.173 423.047 634.318C423.99 634.521 424.795 634.753 425.462 635.014C426.144 635.261 426.696 635.565 427.116 635.928C427.551 636.291 427.863 636.719 428.052 637.212C428.255 637.705 428.357 638.293 428.357 638.974C428.357 639.569 428.226 640.128 427.965 640.65C427.704 641.158 427.327 641.607 426.833 641.999C426.34 642.376 425.738 642.674 425.027 642.891C424.316 643.109 423.504 643.218 422.59 643.218ZM431.722 627.768H433.767V635.797L440.926 627.768H443.472L437.815 634.035L443.908 643H441.383L436.487 635.427L433.767 638.409V643H431.722V627.768Z" fill="black"/>
<rect width="140" height="140" transform="translate(352.684 705)" fill="#404040"/>
<rect x="373.184" y="725.5" width="99" height="99" fill="#D9D2C3" stroke="#A59D88"/>
<path d="M404.479 767.768H408.94C410.086 767.768 411.109 767.927 412.009 768.246C412.908 768.551 413.67 769.008 414.293 769.617C414.917 770.227 415.396 770.988 415.73 771.902C416.063 772.816 416.23 773.868 416.23 775.057V775.493C416.23 776.711 416.056 777.792 415.708 778.735C415.374 779.663 414.881 780.447 414.228 781.085C413.59 781.709 412.806 782.188 411.878 782.521C410.95 782.84 409.898 783 408.723 783H404.479V767.768ZM408.505 781.216C409.361 781.216 410.13 781.107 410.812 780.889C411.508 780.672 412.096 780.338 412.574 779.888C413.053 779.424 413.416 778.829 413.662 778.104C413.923 777.379 414.054 776.508 414.054 775.493V775.057C414.054 774.086 413.931 773.251 413.684 772.555C413.437 771.859 413.082 771.293 412.618 770.858C412.154 770.408 411.588 770.082 410.921 769.879C410.268 769.661 409.535 769.552 408.723 769.552H406.525V781.216H408.505ZM419.716 767.768H421.761V774.274H429.856V767.768H431.902V783H429.856V776.058H421.761V783H419.716V767.768ZM435.269 781.216H438.903V770.009L435.269 772.599V770.379L438.947 767.768H440.992V781.216H443.974V783H435.269V781.216Z" fill="black"/>
<rect width="140" height="140" transform="translate(538.684 145)" fill="#404040"/>
<rect x="559.184" y="165.5" width="99" height="99" fill="#ABCFF4" stroke="#4C89BE"/>
<path d="M590.415 207.768H600.207V209.552H592.461V214.274H599.554V216.058H592.461V221.216H600.207V223H590.415V207.768ZM608.484 223.218C607.57 223.218 606.772 223.109 606.09 222.891C605.408 222.674 604.835 222.376 604.371 221.999C603.907 221.607 603.537 221.158 603.261 220.65C603 220.128 602.819 219.569 602.717 218.974H604.763C604.835 219.308 604.959 219.627 605.133 219.932C605.307 220.222 605.539 220.476 605.829 220.693C606.134 220.911 606.504 221.085 606.939 221.216C607.374 221.332 607.889 221.39 608.484 221.39C609.702 221.39 610.624 221.158 611.247 220.693C611.886 220.229 612.205 219.656 612.205 218.974C612.205 218.554 612.132 218.198 611.987 217.908C611.857 217.618 611.625 217.364 611.291 217.146C610.972 216.929 610.544 216.733 610.007 216.559C609.485 216.385 608.839 216.211 608.07 216.037C607.214 215.848 606.475 215.645 605.851 215.427C605.242 215.195 604.734 214.912 604.328 214.579C603.936 214.231 603.639 213.817 603.435 213.338C603.247 212.86 603.153 212.272 603.153 211.576C603.153 211.01 603.276 210.488 603.522 210.009C603.769 209.516 604.117 209.088 604.567 208.725C605.031 208.363 605.59 208.08 606.243 207.877C606.91 207.659 607.657 207.55 608.484 207.55C609.296 207.55 610.007 207.659 610.616 207.877C611.226 208.08 611.741 208.363 612.161 208.725C612.597 209.088 612.937 209.516 613.184 210.009C613.431 210.488 613.605 211.01 613.706 211.576H611.661C611.588 211.271 611.479 210.988 611.334 210.727C611.189 210.452 610.986 210.219 610.725 210.031C610.479 209.828 610.167 209.668 609.789 209.552C609.427 209.436 608.992 209.378 608.484 209.378C607.439 209.378 606.627 209.596 606.047 210.031C605.481 210.452 605.198 210.967 605.198 211.576C605.198 211.968 605.271 212.308 605.416 212.599C605.561 212.874 605.786 213.121 606.09 213.338C606.395 213.542 606.779 213.723 607.243 213.882C607.722 214.027 608.288 214.173 608.941 214.318C609.884 214.521 610.689 214.753 611.356 215.014C612.038 215.261 612.589 215.565 613.01 215.928C613.445 216.291 613.757 216.719 613.946 217.212C614.149 217.705 614.25 218.293 614.25 218.974C614.25 219.569 614.12 220.128 613.859 220.65C613.598 221.158 613.22 221.607 612.727 221.999C612.234 222.376 611.632 222.674 610.921 222.891C610.21 223.109 609.398 223.218 608.484 223.218ZM617.616 207.768H622.838C623.839 207.768 624.709 207.884 625.449 208.116C626.189 208.348 626.798 208.674 627.277 209.095C627.77 209.501 628.133 209.995 628.365 210.575C628.597 211.141 628.713 211.764 628.713 212.446C628.713 213.128 628.597 213.759 628.365 214.339C628.133 214.905 627.77 215.398 627.277 215.819C626.798 216.225 626.189 216.544 625.449 216.777C624.709 217.009 623.839 217.125 622.838 217.125H619.661V223H617.616V207.768ZM622.729 215.34C623.455 215.34 624.064 215.275 624.557 215.145C625.065 214.999 625.471 214.804 625.776 214.557C626.095 214.31 626.32 214.006 626.45 213.643C626.595 213.28 626.668 212.881 626.668 212.446C626.668 212.011 626.595 211.612 626.45 211.249C626.32 210.887 626.095 210.582 625.776 210.335C625.471 210.089 625.065 209.9 624.557 209.77C624.064 209.625 623.455 209.552 622.729 209.552H619.661V215.34H622.729Z" fill="black"/>
<rect width="140" height="140" transform="translate(538.684 285)" fill="#404040"/>
<rect x="559.184" y="305.5" width="99" height="99" fill="#FFECB3" stroke="#EAC053"/>
<path d="M598.546 359.214H592.105L590.647 363H588.515L594.347 347.768H596.392L602.224 363H600.004L598.546 359.214ZM592.78 357.429H597.872L595.326 350.379L592.78 357.429ZM604.833 347.768H614.626V349.552H606.879V354.274H613.973V356.058H606.879V361.216H614.626V363H604.833V347.768ZM622.902 363.218C621.988 363.218 621.19 363.109 620.509 362.891C619.827 362.674 619.254 362.376 618.789 361.999C618.325 361.607 617.955 361.158 617.68 360.65C617.419 360.128 617.237 359.569 617.136 358.974H619.181C619.254 359.308 619.377 359.627 619.551 359.932C619.725 360.222 619.957 360.476 620.247 360.693C620.552 360.911 620.922 361.085 621.357 361.216C621.792 361.332 622.307 361.39 622.902 361.39C624.121 361.39 625.042 361.158 625.666 360.693C626.304 360.229 626.623 359.656 626.623 358.974C626.623 358.554 626.551 358.198 626.406 357.908C626.275 357.618 626.043 357.364 625.709 357.146C625.39 356.929 624.962 356.733 624.425 356.559C623.903 356.385 623.258 356.211 622.489 356.037C621.633 355.848 620.893 355.645 620.269 355.427C619.66 355.195 619.152 354.912 618.746 354.579C618.354 354.231 618.057 353.817 617.854 353.338C617.665 352.86 617.571 352.272 617.571 351.576C617.571 351.01 617.694 350.488 617.941 350.009C618.187 349.516 618.536 349.088 618.985 348.725C619.45 348.363 620.008 348.08 620.661 347.877C621.328 347.659 622.075 347.55 622.902 347.55C623.715 347.55 624.425 347.659 625.035 347.877C625.644 348.08 626.159 348.363 626.58 348.725C627.015 349.088 627.356 349.516 627.602 350.009C627.849 350.488 628.023 351.01 628.125 351.576H626.079C626.007 351.271 625.898 350.988 625.753 350.727C625.608 350.452 625.405 350.219 625.143 350.031C624.897 349.828 624.585 349.668 624.208 349.552C623.845 349.436 623.41 349.378 622.902 349.378C621.858 349.378 621.045 349.596 620.465 350.031C619.899 350.452 619.616 350.967 619.616 351.576C619.616 351.968 619.689 352.308 619.834 352.599C619.979 352.874 620.204 353.121 620.509 353.338C620.813 353.542 621.198 353.723 621.662 353.882C622.141 354.027 622.706 354.173 623.359 354.318C624.302 354.521 625.107 354.753 625.775 355.014C626.456 355.261 627.008 355.565 627.428 355.928C627.864 356.291 628.175 356.719 628.364 357.212C628.567 357.705 628.669 358.293 628.669 358.974C628.669 359.569 628.538 360.128 628.277 360.65C628.016 361.158 627.639 361.607 627.145 361.999C626.652 362.376 626.05 362.674 625.339 362.891C624.628 363.109 623.816 363.218 622.902 363.218Z" fill="black"/>
<rect width="140" height="140" transform="translate(538.684 425)" fill="#404040"/>
<rect x="559.184" y="445.5" width="99" height="99" fill="#ABD4C1" stroke="#58A982"/>
<path d="M593.417 503.218C592.503 503.218 591.706 503.109 591.024 502.891C590.342 502.674 589.769 502.376 589.305 501.999C588.84 501.607 588.47 501.158 588.195 500.65C587.934 500.128 587.752 499.569 587.651 498.974H589.696C589.769 499.308 589.892 499.627 590.066 499.932C590.24 500.222 590.472 500.476 590.763 500.693C591.067 500.911 591.437 501.085 591.872 501.216C592.308 501.332 592.823 501.39 593.417 501.39C594.636 501.39 595.557 501.158 596.181 500.693C596.819 500.229 597.138 499.656 597.138 498.974C597.138 498.554 597.066 498.198 596.921 497.908C596.79 497.618 596.558 497.364 596.224 497.146C595.905 496.929 595.477 496.733 594.941 496.559C594.418 496.385 593.773 496.211 593.004 496.037C592.148 495.848 591.408 495.645 590.784 495.427C590.175 495.195 589.667 494.912 589.261 494.579C588.869 494.231 588.572 493.817 588.369 493.338C588.18 492.86 588.086 492.272 588.086 491.576C588.086 491.01 588.209 490.488 588.456 490.009C588.703 489.516 589.051 489.088 589.5 488.725C589.965 488.363 590.523 488.08 591.176 487.877C591.843 487.659 592.59 487.55 593.417 487.55C594.23 487.55 594.941 487.659 595.55 487.877C596.159 488.08 596.674 488.363 597.095 488.725C597.53 489.088 597.871 489.516 598.118 490.009C598.364 490.488 598.538 491.01 598.64 491.576H596.594C596.522 491.271 596.413 490.988 596.268 490.727C596.123 490.452 595.92 490.219 595.659 490.031C595.412 489.828 595.1 489.668 594.723 489.552C594.36 489.436 593.925 489.378 593.417 489.378C592.373 489.378 591.56 489.596 590.98 490.031C590.414 490.452 590.132 490.967 590.132 491.576C590.132 491.968 590.204 492.308 590.349 492.599C590.494 492.874 590.719 493.121 591.024 493.338C591.328 493.542 591.713 493.723 592.177 493.882C592.656 494.027 593.221 494.173 593.874 494.318C594.817 494.521 595.622 494.753 596.29 495.014C596.972 495.261 597.523 495.565 597.943 495.928C598.379 496.291 598.691 496.719 598.879 497.212C599.082 497.705 599.184 498.293 599.184 498.974C599.184 499.569 599.053 500.128 598.792 500.65C598.531 501.158 598.154 501.607 597.661 501.999C597.167 502.376 596.565 502.674 595.854 502.891C595.144 503.109 594.331 503.218 593.417 503.218ZM602.549 487.768H604.594V494.274H612.689V487.768H614.735V503H612.689V496.058H604.594V503H602.549V487.768ZM627.372 499.214H620.931L619.473 503H617.341L623.173 487.768H625.218L631.05 503H628.83L627.372 499.214ZM621.606 497.429H626.698L624.152 490.379L621.606 497.429Z" fill="black"/>
<rect width="140" height="140" transform="translate(538.684 565)" fill="#404040"/>
<rect x="559.184" y="585.5" width="99" height="99" fill="#E6B9B7" stroke="#CD859B"/>
<path d="M566.605 605.268H568.65V617.236L576.745 605.268H578.79V620.5H576.745V608.532L568.65 620.5H566.605V605.268ZM587.163 620.718C586.423 620.718 585.734 620.602 585.096 620.369C584.458 620.123 583.906 619.76 583.442 619.281C582.978 618.788 582.608 618.172 582.332 617.432C582.071 616.692 581.941 615.829 581.941 614.842V614.407C581.941 613.479 582.086 612.659 582.376 611.948C582.666 611.237 583.05 610.65 583.529 610.186C584.008 609.707 584.559 609.351 585.183 609.119C585.821 608.873 586.481 608.749 587.163 608.749C587.845 608.749 588.454 608.844 588.991 609.032C589.542 609.221 590.014 609.482 590.405 609.816C590.812 610.149 591.138 610.541 591.385 610.991C591.646 611.44 591.834 611.926 591.95 612.449H589.992C589.876 612.173 589.738 611.919 589.579 611.687C589.433 611.44 589.245 611.23 589.013 611.056C588.795 610.882 588.534 610.744 588.229 610.643C587.925 610.541 587.569 610.49 587.163 610.49C586.742 610.49 586.336 610.57 585.945 610.73C585.553 610.875 585.205 611.107 584.9 611.426C584.595 611.731 584.349 612.13 584.16 612.623C583.986 613.116 583.899 613.711 583.899 614.407V614.842C583.899 615.582 583.986 616.22 584.16 616.757C584.349 617.279 584.595 617.707 584.9 618.041C585.205 618.36 585.553 618.6 585.945 618.759C586.336 618.904 586.742 618.977 587.163 618.977C587.874 618.977 588.469 618.803 588.947 618.455C589.441 618.106 589.789 617.628 589.992 617.018H591.95C591.675 618.164 591.109 619.071 590.253 619.738C589.397 620.391 588.367 620.718 587.163 620.718ZM594.56 608.967H604.134V620.5H602.22V610.664H596.475V620.5H594.56V608.967ZM612.395 620.718C611.655 620.718 610.951 620.602 610.284 620.369C609.617 620.123 609.029 619.76 608.522 619.281C608.014 618.788 607.608 618.172 607.303 617.432C606.998 616.692 606.846 615.829 606.846 614.842V614.407C606.846 613.479 606.998 612.659 607.303 611.948C607.608 611.237 608.014 610.65 608.522 610.186C609.029 609.707 609.617 609.351 610.284 609.119C610.951 608.873 611.655 608.749 612.395 608.749C613.135 608.749 613.838 608.873 614.506 609.119C615.173 609.351 615.761 609.707 616.268 610.186C616.776 610.65 617.182 611.237 617.487 611.948C617.791 612.659 617.944 613.479 617.944 614.407V614.842C617.944 615.829 617.791 616.692 617.487 617.432C617.182 618.172 616.776 618.788 616.268 619.281C615.761 619.76 615.173 620.123 614.506 620.369C613.838 620.602 613.135 620.718 612.395 620.718ZM612.395 618.977C612.83 618.977 613.265 618.904 613.701 618.759C614.136 618.6 614.52 618.36 614.854 618.041C615.188 617.707 615.456 617.279 615.659 616.757C615.877 616.235 615.985 615.597 615.985 614.842V614.407C615.985 613.711 615.877 613.116 615.659 612.623C615.456 612.13 615.188 611.723 614.854 611.404C614.52 611.085 614.136 610.853 613.701 610.708C613.265 610.563 612.83 610.49 612.395 610.49C611.96 610.49 611.525 610.563 611.089 610.708C610.654 610.853 610.27 611.085 609.936 611.404C609.602 611.723 609.327 612.13 609.109 612.623C608.906 613.116 608.804 613.711 608.804 614.407V614.842C608.804 615.597 608.906 616.235 609.109 616.757C609.327 617.279 609.602 617.707 609.936 618.041C610.27 618.36 610.654 618.6 611.089 618.759C611.525 618.904 611.96 618.977 612.395 618.977ZM619.899 620.718C619.681 620.718 619.464 620.696 619.246 620.652V618.737C619.319 618.752 619.427 618.759 619.572 618.759C619.892 618.759 620.167 618.658 620.399 618.455C620.646 618.251 620.842 617.896 620.987 617.388C621.132 616.881 621.241 616.191 621.313 615.321C621.386 614.451 621.422 613.348 621.422 612.013V608.967H629.691V620.5H627.776V610.664H623.337V612.449C623.337 614.059 623.264 615.394 623.119 616.453C622.974 617.512 622.757 618.36 622.467 618.999C622.191 619.622 621.836 620.065 621.4 620.326C620.965 620.587 620.465 620.718 619.899 620.718ZM633.172 608.967H635.087V613.319H637.85C639.301 613.319 640.367 613.638 641.049 614.277C641.745 614.915 642.094 615.8 642.094 616.931C642.094 618.034 641.745 618.904 641.049 619.543C640.367 620.181 639.301 620.5 637.85 620.5H633.172V608.967ZM637.741 618.803C638.641 618.803 639.272 618.643 639.635 618.324C639.997 618.005 640.179 617.533 640.179 616.91C640.179 616.286 639.997 615.814 639.635 615.495C639.272 615.176 638.641 615.016 637.741 615.016H635.087V618.803H637.741ZM648.734 620.718C647.283 620.718 646.144 620.413 645.317 619.804C644.491 619.194 644.034 618.338 643.947 617.236H645.861C645.963 617.802 646.26 618.237 646.754 618.542C647.261 618.832 647.921 618.977 648.734 618.977C649.735 618.977 650.46 618.81 650.91 618.476C651.374 618.128 651.606 617.715 651.606 617.236C651.606 616.67 651.418 616.228 651.04 615.909C650.663 615.575 650.01 615.408 649.082 615.408H647.102V613.841H648.951C649.749 613.841 650.315 613.689 650.649 613.384C650.997 613.08 651.171 612.652 651.171 612.101C651.171 611.665 650.968 611.288 650.562 610.969C650.156 610.65 649.546 610.49 648.734 610.49C647.849 610.49 647.203 610.635 646.797 610.925C646.406 611.201 646.166 611.6 646.079 612.122H644.164C644.208 611.644 644.338 611.201 644.556 610.795C644.788 610.374 645.1 610.012 645.492 609.707C645.883 609.402 646.347 609.17 646.884 609.011C647.435 608.836 648.052 608.749 648.734 608.749C649.474 608.749 650.112 608.836 650.649 609.011C651.2 609.17 651.657 609.402 652.02 609.707C652.382 609.997 652.651 610.345 652.825 610.751C652.999 611.158 653.086 611.607 653.086 612.101C653.086 612.652 652.948 613.138 652.672 613.558C652.397 613.965 651.954 614.284 651.345 614.516C652.157 614.734 652.723 615.082 653.042 615.56C653.362 616.039 653.521 616.598 653.521 617.236C653.521 617.715 653.42 618.164 653.216 618.585C653.013 619.006 652.709 619.376 652.303 619.695C651.911 620 651.41 620.246 650.801 620.435C650.206 620.623 649.517 620.718 648.734 620.718ZM577.576 644.718C576.836 644.718 576.133 644.602 575.465 644.369C574.798 644.123 574.211 643.76 573.703 643.281C573.195 642.788 572.789 642.172 572.484 641.432C572.18 640.692 572.027 639.829 572.027 638.842V638.407C572.027 637.479 572.18 636.659 572.484 635.948C572.789 635.237 573.195 634.65 573.703 634.186C574.211 633.707 574.798 633.351 575.465 633.119C576.133 632.873 576.836 632.749 577.576 632.749C578.316 632.749 579.02 632.873 579.687 633.119C580.354 633.351 580.942 633.707 581.45 634.186C581.957 634.65 582.364 635.237 582.668 635.948C582.973 636.659 583.125 637.479 583.125 638.407V638.842C583.125 639.829 582.973 640.692 582.668 641.432C582.364 642.172 581.957 642.788 581.45 643.281C580.942 643.76 580.354 644.123 579.687 644.369C579.02 644.602 578.316 644.718 577.576 644.718ZM577.576 642.977C578.011 642.977 578.447 642.904 578.882 642.759C579.317 642.6 579.701 642.36 580.035 642.041C580.369 641.707 580.637 641.279 580.84 640.757C581.058 640.235 581.167 639.597 581.167 638.842V638.407C581.167 637.711 581.058 637.116 580.84 636.623C580.637 636.13 580.369 635.723 580.035 635.404C579.701 635.085 579.317 634.853 578.882 634.708C578.447 634.563 578.011 634.49 577.576 634.49C577.141 634.49 576.706 634.563 576.271 634.708C575.835 634.853 575.451 635.085 575.117 635.404C574.784 635.723 574.508 636.13 574.29 636.623C574.087 637.116 573.986 637.711 573.986 638.407V638.842C573.986 639.597 574.087 640.235 574.29 640.757C574.508 641.279 574.784 641.707 575.117 642.041C575.451 642.36 575.835 642.6 576.271 642.759C576.706 642.904 577.141 642.977 577.576 642.977ZM585.837 632.967H590.842C592.263 632.967 593.308 633.264 593.975 633.859C594.642 634.439 594.976 635.194 594.976 636.122C594.976 636.369 594.932 636.623 594.845 636.884C594.758 637.13 594.635 637.363 594.476 637.58C594.33 637.798 594.149 637.986 593.932 638.146C593.728 638.306 593.496 638.429 593.235 638.516C593.946 638.69 594.483 639.024 594.845 639.517C595.223 639.996 595.411 640.561 595.411 641.214C595.411 642.215 595.078 643.013 594.41 643.608C593.743 644.203 592.698 644.5 591.277 644.5H585.837V632.967ZM591.277 642.803C592.089 642.803 592.662 642.658 592.996 642.367C593.329 642.077 593.496 641.664 593.496 641.127C593.496 640.576 593.329 640.155 592.996 639.865C592.662 639.56 592.089 639.408 591.277 639.408H587.752V642.803H591.277ZM590.842 637.841C591.668 637.841 592.241 637.696 592.561 637.406C592.894 637.116 593.061 636.717 593.061 636.209C593.061 635.731 592.894 635.353 592.561 635.078C592.241 634.802 591.668 634.664 590.842 634.664H587.752V637.841H590.842ZM601.426 644.718C600.788 644.718 600.222 644.631 599.729 644.456C599.25 644.268 598.844 644.014 598.511 643.695C598.177 643.376 597.923 642.999 597.749 642.563C597.575 642.128 597.488 641.649 597.488 641.127C597.488 639.981 597.821 639.154 598.489 638.646C599.171 638.139 600.143 637.885 601.405 637.885H605.147V637.101C605.147 636.115 604.923 635.433 604.473 635.056C604.038 634.679 603.378 634.49 602.493 634.49C601.666 634.49 601.064 634.65 600.687 634.969C600.309 635.274 600.099 635.622 600.056 636.013H598.141C598.17 635.549 598.293 635.121 598.511 634.73C598.743 634.323 599.047 633.975 599.424 633.685C599.816 633.395 600.28 633.17 600.817 633.011C601.354 632.836 601.949 632.749 602.601 632.749C603.965 632.749 605.046 633.076 605.844 633.729C606.656 634.367 607.062 635.419 607.062 636.884V641.562C607.062 642.172 607.062 642.708 607.062 643.173C607.077 643.622 607.113 644.065 607.171 644.5H605.496C605.452 644.166 605.423 643.854 605.409 643.564C605.394 643.26 605.387 642.919 605.387 642.542C605.082 643.151 604.589 643.666 603.907 644.087C603.225 644.507 602.398 644.718 601.426 644.718ZM601.84 642.977C602.29 642.977 602.71 642.919 603.102 642.803C603.508 642.672 603.864 642.491 604.168 642.259C604.473 642.012 604.712 641.715 604.886 641.367C605.06 641.018 605.147 640.612 605.147 640.148V639.365H601.731C601.02 639.365 600.462 639.51 600.056 639.8C599.649 640.075 599.446 640.518 599.446 641.127C599.446 641.664 599.635 642.106 600.012 642.455C600.404 642.803 601.013 642.977 601.84 642.977ZM610.445 632.967H612.359V637.776H618.322V632.967H620.237V644.5H618.322V639.473H612.359V644.5H610.445V632.967ZM623.726 632.967H625.641V641.671L631.603 632.967H633.518V644.5H631.603V635.796L625.641 644.5H623.726V632.967ZM641.795 644.718C641.055 644.718 640.351 644.602 639.684 644.369C639.017 644.137 638.429 643.782 637.921 643.303C637.414 642.81 637.007 642.193 636.703 641.454C636.398 640.714 636.246 639.843 636.246 638.842V638.407C636.246 637.45 636.391 636.623 636.681 635.926C636.971 635.216 637.356 634.628 637.834 634.164C638.328 633.685 638.893 633.33 639.532 633.098C640.185 632.865 640.866 632.749 641.577 632.749C643.274 632.749 644.587 633.214 645.516 634.142C646.444 635.071 646.908 636.383 646.908 638.081V639.299H638.161C638.161 639.981 638.27 640.554 638.487 641.018C638.705 641.483 638.988 641.86 639.336 642.15C639.684 642.44 640.068 642.65 640.489 642.781C640.924 642.911 641.36 642.977 641.795 642.977C642.665 642.977 643.332 642.832 643.797 642.542C644.275 642.251 644.616 641.852 644.819 641.345H646.691C646.575 641.896 646.364 642.382 646.06 642.803C645.77 643.223 645.407 643.579 644.972 643.869C644.551 644.145 644.065 644.355 643.514 644.5C642.977 644.645 642.404 644.718 641.795 644.718ZM641.686 634.49C641.236 634.49 640.801 634.556 640.38 634.686C639.96 634.802 639.582 634.998 639.249 635.274C638.93 635.535 638.669 635.868 638.465 636.275C638.262 636.681 638.161 637.167 638.161 637.733H645.102C645.088 637.138 644.986 636.637 644.798 636.231C644.624 635.81 644.384 635.477 644.08 635.23C643.775 634.969 643.412 634.78 642.992 634.664C642.585 634.548 642.15 634.49 641.686 634.49ZM590.108 653.268H595.439C596.396 653.268 597.23 653.384 597.941 653.616C598.667 653.848 599.269 654.167 599.747 654.573C600.226 654.98 600.589 655.466 600.835 656.031C601.082 656.583 601.205 657.185 601.205 657.837C601.205 658.853 600.901 659.745 600.291 660.514C599.697 661.268 598.812 661.798 597.637 662.102L601.641 668.5H599.225L595.591 662.364H592.153V668.5H590.108V653.268ZM595.221 660.623C596.628 660.623 597.637 660.369 598.246 659.861C598.855 659.339 599.16 658.664 599.16 657.837C599.16 657.011 598.855 656.343 598.246 655.835C597.637 655.313 596.628 655.052 595.221 655.052H592.153V660.623H595.221ZM609.685 668.718C608.771 668.718 607.973 668.609 607.291 668.391C606.61 668.174 606.037 667.876 605.572 667.499C605.108 667.107 604.738 666.658 604.463 666.15C604.201 665.628 604.02 665.069 603.919 664.474H605.964C606.037 664.808 606.16 665.127 606.334 665.432C606.508 665.722 606.74 665.976 607.03 666.193C607.335 666.411 607.705 666.585 608.14 666.716C608.575 666.832 609.09 666.89 609.685 666.89C610.904 666.89 611.825 666.658 612.449 666.193C613.087 665.729 613.406 665.156 613.406 664.474C613.406 664.054 613.334 663.698 613.188 663.408C613.058 663.118 612.826 662.864 612.492 662.646C612.173 662.429 611.745 662.233 611.208 662.059C610.686 661.885 610.04 661.711 609.272 661.537C608.416 661.348 607.676 661.145 607.052 660.927C606.443 660.695 605.935 660.412 605.529 660.079C605.137 659.731 604.84 659.317 604.637 658.838C604.448 658.36 604.354 657.772 604.354 657.076C604.354 656.51 604.477 655.988 604.724 655.509C604.97 655.016 605.319 654.588 605.768 654.225C606.232 653.863 606.791 653.58 607.444 653.377C608.111 653.159 608.858 653.05 609.685 653.05C610.497 653.05 611.208 653.159 611.818 653.377C612.427 653.58 612.942 653.863 613.363 654.225C613.798 654.588 614.139 655.016 614.385 655.509C614.632 655.988 614.806 656.51 614.908 657.076H612.862C612.79 656.771 612.681 656.488 612.536 656.227C612.391 655.952 612.188 655.719 611.926 655.531C611.68 655.328 611.368 655.168 610.991 655.052C610.628 654.936 610.193 654.878 609.685 654.878C608.641 654.878 607.828 655.096 607.248 655.531C606.682 655.952 606.399 656.467 606.399 657.076C606.399 657.468 606.472 657.808 606.617 658.099C606.762 658.374 606.987 658.621 607.291 658.838C607.596 659.042 607.981 659.223 608.445 659.382C608.923 659.527 609.489 659.673 610.142 659.818C611.085 660.021 611.89 660.253 612.557 660.514C613.239 660.761 613.791 661.065 614.211 661.428C614.646 661.791 614.958 662.219 615.147 662.712C615.35 663.205 615.452 663.793 615.452 664.474C615.452 665.069 615.321 665.628 615.06 666.15C614.799 666.658 614.422 667.107 613.928 667.499C613.435 667.876 612.833 668.174 612.122 668.391C611.411 668.609 610.599 668.718 609.685 668.718ZM626.895 664.714H620.454L618.996 668.5H616.863L622.695 653.268H624.741L630.572 668.5H628.353L626.895 664.714ZM621.128 662.929H626.22L623.674 655.879L621.128 662.929Z" fill="black"/>
<rect width="140" height="140" transform="translate(538.684 705)" fill="#404040"/>
<rect x="559.184" y="725.5" width="99" height="99" fill="#D9D2C3" stroke="#A59D88"/>
<path d="M582.308 767.768H586.769C587.915 767.768 588.938 767.927 589.837 768.246C590.737 768.551 591.498 769.008 592.122 769.617C592.746 770.227 593.225 770.988 593.558 771.902C593.892 772.816 594.059 773.868 594.059 775.057V775.493C594.059 776.711 593.885 777.792 593.536 778.735C593.203 779.663 592.71 780.447 592.057 781.085C591.418 781.709 590.635 782.188 589.707 782.521C588.778 782.84 587.726 783 586.551 783H582.308V767.768ZM586.334 781.216C587.19 781.216 587.959 781.107 588.64 780.889C589.337 780.672 589.924 780.338 590.403 779.888C590.882 779.424 591.244 778.829 591.491 778.104C591.752 777.379 591.883 776.508 591.883 775.493V775.057C591.883 774.086 591.759 773.251 591.513 772.555C591.266 771.859 590.911 771.293 590.446 770.858C589.982 770.408 589.416 770.082 588.749 769.879C588.096 769.661 587.364 769.552 586.551 769.552H584.354V781.216H586.334ZM597.545 767.768H599.59V774.274H607.685V767.768H609.73V783H607.685V776.058H599.59V783H597.545V767.768ZM612.772 781.324L618.865 776.037C619.329 775.645 619.706 775.29 619.996 774.97C620.301 774.651 620.54 774.354 620.714 774.078C620.888 773.788 621.004 773.505 621.062 773.23C621.135 772.954 621.171 772.657 621.171 772.337C621.171 771.482 620.917 770.778 620.41 770.227C619.902 769.661 619.206 769.378 618.321 769.378C617.262 769.378 616.449 769.668 615.883 770.248C615.318 770.814 615.035 771.619 615.035 772.664H612.989C612.989 771.924 613.113 771.242 613.359 770.618C613.62 769.98 613.983 769.436 614.447 768.986C614.926 768.537 615.492 768.188 616.145 767.942C616.797 767.681 617.523 767.55 618.321 767.55C619.089 767.55 619.779 767.673 620.388 767.92C620.997 768.152 621.512 768.486 621.933 768.921C622.354 769.342 622.673 769.842 622.89 770.423C623.108 771.003 623.217 771.641 623.217 772.337C623.217 772.86 623.137 773.346 622.977 773.795C622.818 774.245 622.593 774.673 622.303 775.079C622.027 775.485 621.686 775.884 621.28 776.276C620.888 776.653 620.453 777.045 619.974 777.451L615.426 781.216H623.434V783H612.772V781.324ZM632.706 779.323H624.959V777.756L632.488 767.768H634.751V777.538H636.71V779.323H634.751V783H632.706V779.323ZM632.706 777.538V770.161L627.135 777.538H632.706Z" fill="black"/>
<path d="M160.779 771.214H154.338L152.88 775H150.747L156.579 759.768H158.624L164.456 775H162.237L160.779 771.214ZM155.012 769.429H160.104L157.558 762.379L155.012 769.429ZM166.512 775.218C166.294 775.218 166.076 775.196 165.859 775.152V773.237C165.931 773.252 166.04 773.259 166.185 773.259C166.504 773.259 166.78 773.158 167.012 772.955C167.259 772.751 167.455 772.396 167.6 771.888C167.745 771.381 167.853 770.691 167.926 769.821C167.999 768.951 168.035 767.848 168.035 766.513V763.467H176.304V775H174.389V765.164H169.95V766.949C169.95 768.559 169.877 769.894 169.732 770.953C169.587 772.012 169.369 772.86 169.079 773.499C168.804 774.122 168.448 774.565 168.013 774.826C167.578 775.087 167.077 775.218 166.512 775.218ZM179.785 763.467H187.618V765.164H181.699V775H179.785V763.467ZM194.368 775.218C193.628 775.218 192.925 775.102 192.257 774.869C191.59 774.623 191.003 774.26 190.495 773.781C189.987 773.288 189.581 772.672 189.276 771.932C188.972 771.192 188.819 770.329 188.819 769.342V768.907C188.819 767.979 188.972 767.159 189.276 766.448C189.581 765.737 189.987 765.15 190.495 764.686C191.003 764.207 191.59 763.851 192.257 763.619C192.925 763.373 193.628 763.249 194.368 763.249C195.108 763.249 195.812 763.373 196.479 763.619C197.146 763.851 197.734 764.207 198.242 764.686C198.749 765.15 199.156 765.737 199.46 766.448C199.765 767.159 199.917 767.979 199.917 768.907V769.342C199.917 770.329 199.765 771.192 199.46 771.932C199.156 772.672 198.749 773.288 198.242 773.781C197.734 774.26 197.146 774.623 196.479 774.869C195.812 775.102 195.108 775.218 194.368 775.218ZM194.368 773.477C194.803 773.477 195.239 773.404 195.674 773.259C196.109 773.1 196.494 772.86 196.827 772.541C197.161 772.207 197.429 771.779 197.632 771.257C197.85 770.735 197.959 770.097 197.959 769.342V768.907C197.959 768.211 197.85 767.616 197.632 767.123C197.429 766.63 197.161 766.223 196.827 765.904C196.494 765.585 196.109 765.353 195.674 765.208C195.239 765.063 194.803 764.99 194.368 764.99C193.933 764.99 193.498 765.063 193.063 765.208C192.627 765.353 192.243 765.585 191.909 765.904C191.576 766.223 191.3 766.63 191.082 767.123C190.879 767.616 190.778 768.211 190.778 768.907V769.342C190.778 770.097 190.879 770.735 191.082 771.257C191.3 771.779 191.576 772.207 191.909 772.541C192.243 772.86 192.627 773.1 193.063 773.259C193.498 773.404 193.933 773.477 194.368 773.477ZM202.629 763.467H204.413V765.643C204.805 764.874 205.349 764.287 206.045 763.88C206.756 763.46 207.576 763.249 208.504 763.249C209.955 763.249 211.115 763.728 211.986 764.686C212.856 765.629 213.291 767.036 213.291 768.907V769.342C213.291 770.329 213.175 771.192 212.943 771.932C212.711 772.657 212.385 773.266 211.964 773.76C211.543 774.238 211.035 774.601 210.441 774.848C209.86 775.094 209.215 775.218 208.504 775.218C207.518 775.218 206.691 775 206.023 774.565C205.37 774.13 204.877 773.586 204.544 772.933V779.352H202.629V763.467ZM208.069 773.52C208.533 773.52 208.968 773.433 209.374 773.259C209.781 773.071 210.129 772.802 210.419 772.454C210.724 772.106 210.956 771.671 211.115 771.148C211.289 770.626 211.376 770.024 211.376 769.342V768.907C211.376 768.283 211.289 767.725 211.115 767.232C210.956 766.738 210.724 766.325 210.419 765.991C210.129 765.643 209.781 765.382 209.374 765.208C208.968 765.034 208.533 764.947 208.069 764.947C207.547 764.947 207.068 765.034 206.633 765.208C206.197 765.367 205.827 765.6 205.523 765.904C205.218 766.194 204.979 766.542 204.805 766.949C204.631 767.355 204.544 767.79 204.544 768.254V769.995C204.544 770.517 204.631 770.996 204.805 771.431C204.979 771.867 205.218 772.236 205.523 772.541C205.827 772.846 206.197 773.085 206.633 773.259C207.068 773.433 207.547 773.52 208.069 773.52ZM216.016 763.467H217.931V772.171L223.894 763.467H225.809V775H223.894V766.296L217.931 775H216.016V763.467ZM231.931 765.164H227.992V763.467H237.784V765.164H233.846V775H231.931V765.164ZM239.966 763.467H242.011L246.124 770.648L250.236 763.467H252.151V775H250.236V766.622L246.82 772.498H245.297L241.88 766.622V775H239.966V763.467ZM259.762 773.216H261.394C261.669 772.664 261.901 771.983 262.09 771.17C262.278 770.358 262.424 769.487 262.525 768.559C262.627 767.616 262.699 766.651 262.743 765.665C262.786 764.664 262.808 763.714 262.808 762.814V759.768H272.709V773.216H274.559V777.829H272.6V775H261.72V777.829H259.762V773.216ZM270.663 773.216V761.552H264.81V763.249C264.81 765.454 264.708 767.362 264.505 768.972C264.317 770.583 264.005 771.997 263.57 773.216H270.663ZM276.962 763.467H278.877V772.171L284.84 763.467H286.755V775H284.84V766.296L278.877 775H276.962V763.467ZM295.597 775.218C293.595 775.218 292.072 774.71 291.027 773.694C289.997 772.679 289.482 771.235 289.482 769.364V768.929C289.482 767.145 289.997 765.752 291.027 764.751C292.072 763.75 293.595 763.249 295.597 763.249V759.768H297.512V763.249C299.514 763.249 301.03 763.75 302.06 764.751C303.104 765.752 303.626 767.145 303.626 768.929V769.364C303.626 771.235 303.104 772.679 302.06 773.694C301.03 774.71 299.514 775.218 297.512 775.218V779.352H295.597V775.218ZM301.668 768.929C301.668 767.609 301.327 766.622 300.645 765.969C299.978 765.317 298.926 764.99 297.49 764.99V773.477C298.926 773.477 299.978 773.143 300.645 772.476C301.327 771.808 301.668 770.771 301.668 769.364V768.929ZM291.441 769.364C291.441 770.771 291.774 771.808 292.442 772.476C293.123 773.143 294.182 773.477 295.619 773.477V764.99C294.182 764.99 293.123 765.317 292.442 765.969C291.774 766.622 291.441 767.609 291.441 768.929V769.364ZM311.705 775.218C309.703 775.218 308.179 774.71 307.135 773.694C306.105 772.679 305.59 771.235 305.59 769.364V768.929C305.59 767.145 306.105 765.752 307.135 764.751C308.179 763.75 309.703 763.249 311.705 763.249V759.768H313.62V763.249C315.622 763.249 317.137 763.75 318.167 764.751C319.212 765.752 319.734 767.145 319.734 768.929V769.364C319.734 771.235 319.212 772.679 318.167 773.694C317.137 774.71 315.622 775.218 313.62 775.218V779.352H311.705V775.218ZM317.776 768.929C317.776 767.609 317.435 766.622 316.753 765.969C316.086 765.317 315.034 764.99 313.598 764.99V773.477C315.034 773.477 316.086 773.143 316.753 772.476C317.435 771.808 317.776 770.771 317.776 769.364V768.929ZM307.548 769.364C307.548 770.771 307.882 771.808 308.549 772.476C309.231 773.143 310.29 773.477 311.726 773.477V764.99C310.29 764.99 309.231 765.317 308.549 765.969C307.882 766.622 307.548 767.609 307.548 768.929V769.364ZM322.459 763.467H324.374V772.171L330.337 763.467H332.252V775H330.337V766.296L324.374 775H322.459V763.467ZM215.805 792.015H222.333V793.799H215.805V792.015ZM234.668 791.232L229.511 783.768H231.774L235.843 789.665L239.956 783.768H242.132L236.997 791.188L242.35 799H240.043L235.8 792.733L231.513 799H229.294L234.668 791.232ZM249.109 799.218C248.369 799.218 247.666 799.102 246.998 798.869C246.331 798.637 245.744 798.282 245.236 797.803C244.728 797.31 244.322 796.693 244.017 795.954C243.713 795.214 243.56 794.343 243.56 793.342V792.907C243.56 791.95 243.705 791.123 243.995 790.426C244.286 789.716 244.67 789.128 245.149 788.664C245.642 788.185 246.208 787.83 246.846 787.598C247.499 787.365 248.181 787.249 248.892 787.249C250.589 787.249 251.902 787.714 252.83 788.642C253.759 789.571 254.223 790.883 254.223 792.581V793.799H245.475C245.475 794.481 245.584 795.054 245.802 795.518C246.019 795.983 246.302 796.36 246.65 796.65C246.998 796.94 247.383 797.15 247.804 797.281C248.239 797.411 248.674 797.477 249.109 797.477C249.98 797.477 250.647 797.332 251.111 797.042C251.59 796.751 251.931 796.352 252.134 795.845H254.005C253.889 796.396 253.679 796.882 253.374 797.303C253.084 797.723 252.721 798.079 252.286 798.369C251.865 798.645 251.379 798.855 250.828 799C250.291 799.145 249.718 799.218 249.109 799.218ZM249 788.99C248.551 788.99 248.115 789.056 247.695 789.186C247.274 789.302 246.897 789.498 246.563 789.774C246.244 790.035 245.983 790.368 245.78 790.775C245.577 791.181 245.475 791.667 245.475 792.233H252.417C252.402 791.638 252.301 791.137 252.112 790.731C251.938 790.31 251.699 789.977 251.394 789.73C251.089 789.469 250.727 789.28 250.306 789.164C249.9 789.048 249.465 788.99 249 788.99ZM256.188 799.218C255.97 799.218 255.753 799.196 255.535 799.152V797.237C255.608 797.252 255.717 797.259 255.862 797.259C256.181 797.259 256.456 797.158 256.689 796.955C256.935 796.751 257.131 796.396 257.276 795.888C257.421 795.381 257.53 794.691 257.602 793.821C257.675 792.951 257.711 791.848 257.711 790.513V787.467H265.98V799H264.065V789.164H259.626V790.949C259.626 792.559 259.554 793.894 259.409 794.953C259.264 796.012 259.046 796.86 258.756 797.499C258.48 798.122 258.125 798.565 257.69 798.826C257.254 799.087 256.754 799.218 256.188 799.218ZM268.917 799.218C268.699 799.218 268.482 799.196 268.264 799.152V797.237C268.337 797.252 268.446 797.259 268.591 797.259C268.91 797.259 269.185 797.158 269.417 796.955C269.664 796.751 269.86 796.396 270.005 795.888C270.15 795.381 270.259 794.691 270.331 793.821C270.404 792.951 270.44 791.848 270.44 790.513V787.467H278.709V799H276.794V789.164H272.355V790.949C272.355 792.559 272.283 793.894 272.138 794.953C271.992 796.012 271.775 796.86 271.485 797.499C271.209 798.122 270.854 798.565 270.418 798.826C269.983 799.087 269.483 799.218 268.917 799.218ZM282.19 787.467H284.235L288.348 794.648L292.461 787.467H294.376V799H292.461V790.622L289.044 796.498H287.521L284.105 790.622V799H282.19V787.467ZM301.137 799.218C300.499 799.218 299.933 799.131 299.44 798.956C298.961 798.768 298.555 798.514 298.221 798.195C297.888 797.876 297.634 797.499 297.46 797.063C297.286 796.628 297.199 796.149 297.199 795.627C297.199 794.481 297.532 793.654 298.2 793.146C298.881 792.639 299.853 792.385 301.116 792.385H304.858V791.601C304.858 790.615 304.633 789.933 304.184 789.556C303.749 789.179 303.088 788.99 302.204 788.99C301.377 788.99 300.775 789.15 300.397 789.469C300.02 789.774 299.81 790.122 299.766 790.513H297.851C297.88 790.049 298.004 789.621 298.221 789.23C298.454 788.823 298.758 788.475 299.135 788.185C299.527 787.895 299.991 787.67 300.528 787.511C301.065 787.336 301.66 787.249 302.312 787.249C303.676 787.249 304.757 787.576 305.555 788.229C306.367 788.867 306.773 789.919 306.773 791.384V796.062C306.773 796.672 306.773 797.208 306.773 797.673C306.788 798.122 306.824 798.565 306.882 799H305.206C305.163 798.666 305.134 798.354 305.119 798.064C305.105 797.76 305.098 797.419 305.098 797.042C304.793 797.651 304.3 798.166 303.618 798.587C302.936 799.007 302.109 799.218 301.137 799.218ZM301.551 797.477C302 797.477 302.421 797.419 302.813 797.303C303.219 797.172 303.574 796.991 303.879 796.759C304.184 796.512 304.423 796.215 304.597 795.867C304.771 795.518 304.858 795.112 304.858 794.648V793.865H301.442C300.731 793.865 300.173 794.01 299.766 794.3C299.36 794.575 299.157 795.018 299.157 795.627C299.157 796.164 299.346 796.606 299.723 796.955C300.115 797.303 300.724 797.477 301.551 797.477ZM310.155 787.467H312.07V792.276H318.033V787.467H319.948V799H318.033V793.973H312.07V799H310.155V787.467ZM326.723 799.218C326.084 799.218 325.519 799.131 325.025 798.956C324.547 798.768 324.14 798.514 323.807 798.195C323.473 797.876 323.219 797.499 323.045 797.063C322.871 796.628 322.784 796.149 322.784 795.627C322.784 794.481 323.118 793.654 323.785 793.146C324.467 792.639 325.439 792.385 326.701 792.385H330.444V791.601C330.444 790.615 330.219 789.933 329.769 789.556C329.334 789.179 328.674 788.99 327.789 788.99C326.962 788.99 326.36 789.15 325.983 789.469C325.606 789.774 325.395 790.122 325.352 790.513H323.437C323.466 790.049 323.589 789.621 323.807 789.23C324.039 788.823 324.344 788.475 324.721 788.185C325.112 787.895 325.577 787.67 326.113 787.511C326.65 787.336 327.245 787.249 327.898 787.249C329.261 787.249 330.342 787.576 331.14 788.229C331.952 788.867 332.359 789.919 332.359 791.384V796.062C332.359 796.672 332.359 797.208 332.359 797.673C332.373 798.122 332.409 798.565 332.467 799H330.792C330.748 798.666 330.719 798.354 330.705 798.064C330.69 797.76 330.683 797.419 330.683 797.042C330.378 797.651 329.885 798.166 329.203 798.587C328.522 799.007 327.695 799.218 326.723 799.218ZM327.136 797.477C327.586 797.477 328.007 797.419 328.398 797.303C328.804 797.172 329.16 796.991 329.464 796.759C329.769 796.512 330.008 796.215 330.183 795.867C330.357 795.518 330.444 795.112 330.444 794.648V793.865H327.027C326.316 793.865 325.758 794.01 325.352 794.3C324.946 794.575 324.742 795.018 324.742 795.627C324.742 796.164 324.931 796.606 325.308 796.955C325.7 797.303 326.309 797.477 327.136 797.477Z" fill="black"/>
</svg>
